<?xml version="1.0" encoding="UTF-8" standalone="no"?>
<!DOCTYPE svg PUBLIC "-//W3C//DTD SVG 1.1//EN"
 "http://www.w3.org/Graphics/SVG/1.1/DTD/svg11.dtd">
<!-- Generated by graphviz version 2.28.0 (20110507.0327)
 -->
<!-- Title: G Pages: 1 -->
<svg width="346pt" height="65pt"
 viewBox="0.00 0.00 346.00 65.00" xmlns="http://www.w3.org/2000/svg" xmlns:xlink="http://www.w3.org/1999/xlink">
<g id="graph1" class="graph" transform="scale(1 1) rotate(0) translate(4 61)">
<title>G</title>
<polygon fill="white" stroke="white" points="-4,5 -4,-61 343,-61 343,5 -4,5"/>
<!-- Node1 -->
<g id="node1" class="node"><title>Node1</title>
<polygon fill="#bfbfbf" stroke="black" points="0.5,-0.5 0.5,-19.5 55.5,-19.5 55.5,-0.5 0.5,-0.5"/>
<text text-anchor="middle" x="28" y="-7.5" font-family="Helvetica,sans-Serif" font-size="10.00">CalcCoP</text>
</g>
<!-- Node2 -->
<g id="node3" class="node"><title>Node2</title>
<a xlink:href="_calc_co_p_8h.html#a02921ece8800aa474b3825acaace1800" target="_top" xlink:title="CalcCoP">
<polygon fill="white" stroke="black" points="92.5,-19.5 92.5,-38.5 147.5,-38.5 147.5,-19.5 92.5,-19.5"/>
<text text-anchor="middle" x="120" y="-26.5" font-family="Helvetica,sans-Serif" font-size="10.00">CalcCoP</text>
</a>
</g>
<!-- Node1&#45;&gt;Node2 -->
<g id="edge2" class="edge"><title>Node1&#45;&gt;Node2</title>
<path fill="none" stroke="midnightblue" d="M65.4088,-17.6863C74.4224,-19.5892 83.9135,-21.5929 92.3623,-23.3765"/>
<polygon fill="midnightblue" stroke="midnightblue" points="66.0235,-14.239 55.5162,-15.5979 64.5776,-21.088 66.0235,-14.239"/>
</g>
<!-- Node3 -->
<g id="node6" class="node"><title>Node3</title>
<a xlink:href="_draw_indicators_8h.html#a25c2edda1fcf20ca794ee4556ca2a6e0" target="_top" xlink:title="DrawIndicators">
<polygon fill="white" stroke="black" points="184,-0.5 184,-19.5 264,-19.5 264,-0.5 184,-0.5"/>
<text text-anchor="middle" x="224" y="-7.5" font-family="Helvetica,sans-Serif" font-size="10.00">DrawIndicators</text>
</a>
</g>
<!-- Node1&#45;&gt;Node3 -->
<g id="edge10" class="edge"><title>Node1&#45;&gt;Node3</title>
<path fill="none" stroke="midnightblue" d="M65.9062,-10C99.5966,-10 149.246,-10 183.675,-10"/>
<polygon fill="midnightblue" stroke="midnightblue" points="65.5681,-6.5001 55.5681,-10 65.5681,-13.5001 65.5681,-6.5001"/>
</g>
<!-- Node2&#45;&gt;Node2 -->
<g id="edge4" class="edge"><title>Node2&#45;&gt;Node2</title>
<path fill="none" stroke="midnightblue" d="M102.964,-48.4C104.102,-53.3146 109.78,-57 120,-57 136.352,-57 141.078,-47.5653 134.18,-38.7571"/>
<polygon fill="midnightblue" stroke="midnightblue" points="106.336,-49.3393 105.82,-38.7571 99.6241,-47.3512 106.336,-49.3393"/>
</g>
<!-- Node2&#45;&gt;Node3 -->
<g id="edge6" class="edge"><title>Node2&#45;&gt;Node3</title>
<path fill="none" stroke="midnightblue" d="M157.592,-22.1838C166.137,-20.5922 175.269,-18.891 183.917,-17.2801"/>
<polygon fill="midnightblue" stroke="midnightblue" points="156.723,-18.7854 147.533,-24.0576 158.005,-25.6671 156.723,-18.7854"/>
</g>
<!-- Node4 -->
<g id="node8" class="node"><title>Node4</title>
<a xlink:href="main_8c.html#a0ddf1224851353fc92bfbff6f499fa97" target="_top" xlink:title="main">
<polygon fill="white" stroke="black" points="300,-0.5 300,-19.5 338,-19.5 338,-0.5 300,-0.5"/>
<text text-anchor="middle" x="319" y="-7.5" font-family="Helvetica,sans-Serif" font-size="10.00">main</text>
</a>
</g>
<!-- Node3&#45;&gt;Node4 -->
<g id="edge8" class="edge"><title>Node3&#45;&gt;Node4</title>
<path fill="none" stroke="midnightblue" d="M274.354,-10C283.385,-10 292.271,-10 299.644,-10"/>
<polygon fill="midnightblue" stroke="midnightblue" points="274.171,-6.5001 264.171,-10 274.171,-13.5001 274.171,-6.5001"/>
</g>
</g>
</svg>
