<?xml version="1.0" encoding="UTF-8" standalone="no"?>
<!DOCTYPE svg PUBLIC "-//W3C//DTD SVG 1.1//EN"
 "http://www.w3.org/Graphics/SVG/1.1/DTD/svg11.dtd">
<!-- Generated by graphviz version 2.28.0 (20110507.0327)
 -->
<!-- Title: G Pages: 1 -->
<svg width="254pt" height="142pt"
 viewBox="0.00 0.00 254.00 142.00" xmlns="http://www.w3.org/2000/svg" xmlns:xlink="http://www.w3.org/1999/xlink">
<g id="graph1" class="graph" transform="scale(1 1) rotate(0) translate(4 138)">
<title>G</title>
<polygon fill="white" stroke="white" points="-4,5 -4,-138 251,-138 251,5 -4,5"/>
<!-- Node1 -->
<g id="node1" class="node"><title>Node1</title>
<polygon fill="#bfbfbf" stroke="black" points="0,-57.5 0,-76.5 56,-76.5 56,-57.5 0,-57.5"/>
<text text-anchor="middle" x="28" y="-64.5" font-family="Helvetica,sans-Serif" font-size="10.00">CalcCoM</text>
</g>
<!-- Node2 -->
<g id="node3" class="node"><title>Node2</title>
<a xlink:href="_draw_indicators_8h.html#a25c2edda1fcf20ca794ee4556ca2a6e0" target="_top" xlink:title="DrawIndicators">
<polygon fill="white" stroke="black" points="92,-114.5 92,-133.5 172,-133.5 172,-114.5 92,-114.5"/>
<text text-anchor="middle" x="132" y="-121.5" font-family="Helvetica,sans-Serif" font-size="10.00">DrawIndicators</text>
</a>
</g>
<!-- Node1&#45;&gt;Node2 -->
<g id="edge2" class="edge"><title>Node1&#45;&gt;Node2</title>
<path fill="none" stroke="midnightblue" d="M55.1155,-81.5939C73.6132,-91.9309 97.8964,-105.501 113.953,-114.474"/>
<polygon fill="midnightblue" stroke="midnightblue" points="56.7397,-78.4922 46.3029,-76.6693 53.325,-84.6028 56.7397,-78.4922"/>
</g>
<!-- Node3 -->
<g id="node5" class="node"><title>Node3</title>
<a xlink:href="main_8c.html#a0ddf1224851353fc92bfbff6f499fa97" target="_top" xlink:title="main">
<polygon fill="white" stroke="black" points="208,-76.5 208,-95.5 246,-95.5 246,-76.5 208,-76.5"/>
<text text-anchor="middle" x="227" y="-83.5" font-family="Helvetica,sans-Serif" font-size="10.00">main</text>
</a>
</g>
<!-- Node1&#45;&gt;Node3 -->
<g id="edge6" class="edge"><title>Node1&#45;&gt;Node3</title>
<path fill="none" stroke="midnightblue" d="M66.5868,-70.6251C108.924,-74.7084 175.978,-81.1756 207.924,-84.2566"/>
<polygon fill="midnightblue" stroke="midnightblue" points="66.6819,-67.1181 56.392,-69.6419 66.0098,-74.0858 66.6819,-67.1181"/>
</g>
<!-- Node4 -->
<g id="node8" class="node"><title>Node4</title>
<a xlink:href="_stabilizator_8h.html#ab7d621a4109213b04e8479e729268e23" target="_top" xlink:title="Stabilizator">
<polygon fill="white" stroke="black" points="99.5,-38.5 99.5,-57.5 164.5,-57.5 164.5,-38.5 99.5,-38.5"/>
<text text-anchor="middle" x="132" y="-45.5" font-family="Helvetica,sans-Serif" font-size="10.00">Stabilizator</text>
</a>
</g>
<!-- Node1&#45;&gt;Node4 -->
<g id="edge8" class="edge"><title>Node1&#45;&gt;Node4</title>
<path fill="none" stroke="midnightblue" d="M66.1822,-60.0739C77.1007,-58.0401 88.9332,-55.836 99.4632,-53.8745"/>
<polygon fill="midnightblue" stroke="midnightblue" points="65.2563,-56.6861 56.0663,-61.9582 66.5382,-63.5677 65.2563,-56.6861"/>
</g>
<!-- Node5 -->
<g id="node10" class="node"><title>Node5</title>
<a xlink:href="u_link_8h.html#ae420e3d1a86aca06b7286b7678b4ecb6" target="_top" xlink:title="Initialize the link structure with the model value.">
<polygon fill="white" stroke="black" points="98,-0.5 98,-19.5 166,-19.5 166,-0.5 98,-0.5"/>
<text text-anchor="middle" x="132" y="-7.5" font-family="Helvetica,sans-Serif" font-size="10.00">SetupRobot</text>
</a>
</g>
<!-- Node1&#45;&gt;Node5 -->
<g id="edge10" class="edge"><title>Node1&#45;&gt;Node5</title>
<path fill="none" stroke="midnightblue" d="M52.7685,-51.9759C64.4441,-44.7734 78.807,-36.1739 92,-29 97.955,-25.7619 104.543,-22.4522 110.583,-19.5216"/>
<polygon fill="midnightblue" stroke="midnightblue" points="50.6957,-49.1434 44.0548,-57.3987 54.3943,-55.0865 50.6957,-49.1434"/>
</g>
<!-- Node2&#45;&gt;Node3 -->
<g id="edge4" class="edge"><title>Node2&#45;&gt;Node3</title>
<path fill="none" stroke="midnightblue" d="M165.864,-110.572C179.963,-104.811 195.898,-98.2998 207.82,-93.4283"/>
<polygon fill="midnightblue" stroke="midnightblue" points="164.401,-107.389 156.468,-114.411 167.049,-113.868 164.401,-107.389"/>
</g>
<!-- Node5&#45;&gt;Node3 -->
<g id="edge12" class="edge"><title>Node5&#45;&gt;Node3</title>
<path fill="none" stroke="midnightblue" d="M165.009,-24.3953C167.439,-25.8467 169.799,-27.3852 172,-29 190.905,-42.8677 208.783,-63.8314 218.48,-76.0957"/>
<polygon fill="midnightblue" stroke="midnightblue" points="166.524,-21.2352 156.066,-19.54 163.184,-27.3871 166.524,-21.2352"/>
</g>
</g>
</svg>
