<?xml version="1.0" encoding="UTF-8" standalone="no"?>
<!DOCTYPE svg PUBLIC "-//W3C//DTD SVG 1.1//EN"
 "http://www.w3.org/Graphics/SVG/1.1/DTD/svg11.dtd">
<!-- Generated by graphviz version 2.28.0 (20110507.0327)
 -->
<!-- Title: G Pages: 1 -->
<svg width="342pt" height="140pt"
 viewBox="0.00 0.00 342.22 140.00" xmlns="http://www.w3.org/2000/svg" xmlns:xlink="http://www.w3.org/1999/xlink">
<g id="graph1" class="graph" transform="scale(1 1) rotate(0) translate(4 136)">
<title>G</title>
<polygon fill="white" stroke="white" points="-4,5 -4,-136 339.216,-136 339.216,5 -4,5"/>
<!-- Node1 -->
<g id="node1" class="node"><title>Node1</title>
<polygon fill="#bfbfbf" stroke="black" points="117.216,-112.5 117.216,-131.5 167.216,-131.5 167.216,-112.5 117.216,-112.5"/>
<text text-anchor="middle" x="142.216" y="-119.5" font-family="Helvetica,sans-Serif" font-size="10.00">CalcL.c</text>
</g>
<!-- Node2 -->
<g id="node3" class="node"><title>Node2</title>
<polygon fill="white" stroke="#bfbfbf" points="5.21562,-0.5 5.21562,-19.5 89.2156,-19.5 89.2156,-0.5 5.21562,-0.5"/>
<text text-anchor="middle" x="47.2156" y="-7.5" font-family="Helvetica,sans-Serif" font-size="10.00">gsl/gsl_vector.h</text>
</g>
<!-- Node1&#45;&gt;Node2 -->
<g id="edge2" class="edge"><title>Node1&#45;&gt;Node2</title>
<path fill="none" stroke="midnightblue" d="M117.015,-121.043C84.7805,-119.569 30.044,-111.589 4.21562,-76 -7.96606,-59.2147 9.85576,-39.227 26.1188,-25.8894"/>
<polygon fill="midnightblue" stroke="midnightblue" points="28.5302,-28.4499 34.3141,-19.5731 24.257,-22.9055 28.5302,-28.4499"/>
</g>
<!-- Node3 -->
<g id="node5" class="node"><title>Node3</title>
<polygon fill="white" stroke="#bfbfbf" points="124.216,-0.5 124.216,-19.5 210.216,-19.5 210.216,-0.5 124.216,-0.5"/>
<text text-anchor="middle" x="167.216" y="-7.5" font-family="Helvetica,sans-Serif" font-size="10.00">gsl/gsl_matrix.h</text>
</g>
<!-- Node1&#45;&gt;Node3 -->
<g id="edge4" class="edge"><title>Node1&#45;&gt;Node3</title>
<path fill="none" stroke="midnightblue" d="M165.67,-112.408C181.377,-105.28 200.834,-93.4581 210.216,-76 219.835,-58.0997 203.368,-38.8307 188.111,-25.9599"/>
<polygon fill="midnightblue" stroke="midnightblue" points="189.955,-22.9565 179.934,-19.5171 185.623,-28.455 189.955,-22.9565"/>
</g>
<!-- Node4 -->
<g id="node7" class="node"><title>Node4</title>
<polygon fill="white" stroke="#bfbfbf" points="257.716,-56.5 257.716,-75.5 334.716,-75.5 334.716,-56.5 257.716,-56.5"/>
<text text-anchor="middle" x="296.216" y="-63.5" font-family="Helvetica,sans-Serif" font-size="10.00">gsl/gsl_blas.h</text>
</g>
<!-- Node1&#45;&gt;Node4 -->
<g id="edge6" class="edge"><title>Node1&#45;&gt;Node4</title>
<path fill="none" stroke="midnightblue" d="M166.617,-112.444C192.412,-103.399 233.292,-89.064 262.233,-78.9158"/>
<polygon fill="midnightblue" stroke="midnightblue" points="263.65,-82.1283 271.928,-75.5164 261.333,-75.5226 263.65,-82.1283"/>
</g>
<!-- Node5 -->
<g id="node9" class="node"><title>Node5</title>
<a xlink:href="u_link_8h.html" target="_top" xlink:title="Link initialisation and declarations.">
<polygon fill="white" stroke="black" points="13.7156,-56.5 13.7156,-75.5 64.7156,-75.5 64.7156,-56.5 13.7156,-56.5"/>
<text text-anchor="middle" x="39.2156" y="-63.5" font-family="Helvetica,sans-Serif" font-size="10.00">uLINK.h</text>
</a>
</g>
<!-- Node1&#45;&gt;Node5 -->
<g id="edge8" class="edge"><title>Node1&#45;&gt;Node5</title>
<path fill="none" stroke="midnightblue" d="M125.667,-112.324C109.224,-103.703 83.7808,-90.3643 64.7472,-80.3855"/>
<polygon fill="midnightblue" stroke="midnightblue" points="66.2051,-77.198 55.7233,-75.6545 62.9548,-83.3977 66.2051,-77.198"/>
</g>
<!-- Node6 -->
<g id="node13" class="node"><title>Node6</title>
<a xlink:href="_calc_l_8h.html" target="_top" xlink:title="CalcL.h">
<polygon fill="white" stroke="black" points="83.2156,-56.5 83.2156,-75.5 133.216,-75.5 133.216,-56.5 83.2156,-56.5"/>
<text text-anchor="middle" x="108.216" y="-63.5" font-family="Helvetica,sans-Serif" font-size="10.00">CalcL.h</text>
</a>
</g>
<!-- Node1&#45;&gt;Node6 -->
<g id="edge14" class="edge"><title>Node1&#45;&gt;Node6</title>
<path fill="none" stroke="midnightblue" d="M136.601,-112.083C131.848,-104.534 124.898,-93.4948 119.064,-84.2298"/>
<polygon fill="midnightblue" stroke="midnightblue" points="122.016,-82.3486 113.726,-75.7511 116.092,-86.0783 122.016,-82.3486"/>
</g>
<!-- Node7 -->
<g id="node17" class="node"><title>Node7</title>
<a xlink:href="_cross_8h.html" target="_top" xlink:title="Cross.h">
<polygon fill="white" stroke="black" points="151.216,-56.5 151.216,-75.5 201.216,-75.5 201.216,-56.5 151.216,-56.5"/>
<text text-anchor="middle" x="176.216" y="-63.5" font-family="Helvetica,sans-Serif" font-size="10.00">Cross.h</text>
</a>
</g>
<!-- Node1&#45;&gt;Node7 -->
<g id="edge20" class="edge"><title>Node1&#45;&gt;Node7</title>
<path fill="none" stroke="midnightblue" d="M147.83,-112.083C152.583,-104.534 159.534,-93.4948 165.367,-84.2298"/>
<polygon fill="midnightblue" stroke="midnightblue" points="168.339,-86.0783 170.706,-75.7511 162.416,-82.3486 168.339,-86.0783"/>
</g>
<!-- Node5&#45;&gt;Node2 -->
<g id="edge10" class="edge"><title>Node5&#45;&gt;Node2</title>
<path fill="none" stroke="midnightblue" d="M40.5367,-56.083C41.5968,-48.9272 43.1215,-38.6353 44.4466,-29.6911"/>
<polygon fill="midnightblue" stroke="midnightblue" points="47.9158,-30.1561 45.9192,-19.7511 40.9914,-29.1302 47.9158,-30.1561"/>
</g>
<!-- Node5&#45;&gt;Node3 -->
<g id="edge12" class="edge"><title>Node5&#45;&gt;Node3</title>
<path fill="none" stroke="midnightblue" d="M59.4976,-56.4435C80.563,-47.5566 113.732,-33.5632 137.701,-23.4514"/>
<polygon fill="midnightblue" stroke="midnightblue" points="139.175,-26.6283 147.029,-19.5164 136.454,-20.1787 139.175,-26.6283"/>
</g>
<!-- Node6&#45;&gt;Node2 -->
<g id="edge16" class="edge"><title>Node6&#45;&gt;Node2</title>
<path fill="none" stroke="midnightblue" d="M98.4149,-56.324C89.3976,-48.3414 75.8097,-36.3128 64.8976,-26.6529"/>
<polygon fill="midnightblue" stroke="midnightblue" points="67.0022,-23.8416 57.1947,-19.8339 62.3624,-29.083 67.0022,-23.8416"/>
</g>
<!-- Node6&#45;&gt;Node3 -->
<g id="edge18" class="edge"><title>Node6&#45;&gt;Node3</title>
<path fill="none" stroke="midnightblue" d="M117.695,-56.324C126.417,-48.3414 139.559,-36.3128 150.113,-26.6529"/>
<polygon fill="midnightblue" stroke="midnightblue" points="152.55,-29.1674 157.564,-19.8339 147.824,-24.0036 152.55,-29.1674"/>
</g>
<!-- Node7&#45;&gt;Node2 -->
<g id="edge22" class="edge"><title>Node7&#45;&gt;Node2</title>
<path fill="none" stroke="midnightblue" d="M155.775,-56.4435C134.545,-47.5566 101.117,-33.5632 76.9607,-23.4514"/>
<polygon fill="midnightblue" stroke="midnightblue" points="78.1363,-20.1493 67.5604,-19.5164 75.4333,-26.6064 78.1363,-20.1493"/>
</g>
<!-- Node7&#45;&gt;Node3 -->
<g id="edge24" class="edge"><title>Node7&#45;&gt;Node3</title>
<path fill="none" stroke="midnightblue" d="M174.729,-56.083C173.537,-48.9272 171.821,-38.6353 170.331,-29.6911"/>
<polygon fill="midnightblue" stroke="midnightblue" points="173.771,-29.0396 168.674,-19.7511 166.866,-30.1904 173.771,-29.0396"/>
</g>
</g>
</svg>
