<?xml version="1.0" encoding="UTF-8" standalone="no"?>
<!DOCTYPE svg PUBLIC "-//W3C//DTD SVG 1.1//EN"
 "http://www.w3.org/Graphics/SVG/1.1/DTD/svg11.dtd">
<!-- Generated by graphviz version 2.28.0 (20110507.0327)
 -->
<!-- Title: G Pages: 1 -->
<svg width="156pt" height="46pt"
 viewBox="0.00 0.00 156.00 46.00" xmlns="http://www.w3.org/2000/svg" xmlns:xlink="http://www.w3.org/1999/xlink">
<g id="graph1" class="graph" transform="scale(1 1) rotate(0) translate(4 42)">
<title>G</title>
<polygon fill="white" stroke="white" points="-4,5 -4,-42 153,-42 153,5 -4,5"/>
<!-- Node1 -->
<g id="node1" class="node"><title>Node1</title>
<polygon fill="#bfbfbf" stroke="black" points="0.5,-0.5 0.5,-19.5 55.5,-19.5 55.5,-0.5 0.5,-0.5"/>
<text text-anchor="middle" x="28" y="-7.5" font-family="Helvetica,sans-Serif" font-size="10.00">CalcCoP</text>
</g>
<!-- Node2 -->
<g id="node3" class="node"><title>Node2</title>
<a xlink:href="_calc_co_p_8c.html#a02921ece8800aa474b3825acaace1800" target="_top" xlink:title="CalcCoP">
<polygon fill="white" stroke="black" points="92.5,-0.5 92.5,-19.5 147.5,-19.5 147.5,-0.5 92.5,-0.5"/>
<text text-anchor="middle" x="120" y="-7.5" font-family="Helvetica,sans-Serif" font-size="10.00">CalcCoP</text>
</a>
</g>
<!-- Node1&#45;&gt;Node2 -->
<g id="edge2" class="edge"><title>Node1&#45;&gt;Node2</title>
<path fill="none" stroke="midnightblue" d="M55.5162,-10C63.8642,-10 73.2395,-10 82.1704,-10"/>
<polygon fill="midnightblue" stroke="midnightblue" points="82.3624,-13.5001 92.3623,-10 82.3623,-6.5001 82.3624,-13.5001"/>
</g>
<!-- Node2&#45;&gt;Node2 -->
<g id="edge4" class="edge"><title>Node2&#45;&gt;Node2</title>
<path fill="none" stroke="midnightblue" d="M105.82,-19.7571C98.9218,-28.5653 103.648,-38 120,-38 130.22,-38 135.898,-34.3146 137.036,-29.4"/>
<polygon fill="midnightblue" stroke="midnightblue" points="140.376,-28.3512 134.18,-19.7571 133.664,-30.3393 140.376,-28.3512"/>
</g>
</g>
</svg>
