<?xml version="1.0" encoding="UTF-8" standalone="no"?>
<!DOCTYPE svg PUBLIC "-//W3C//DTD SVG 1.1//EN"
 "http://www.w3.org/Graphics/SVG/1.1/DTD/svg11.dtd">
<!-- Generated by graphviz version 2.28.0 (20110507.0327)
 -->
<!-- Title: G Pages: 1 -->
<svg width="149pt" height="84pt"
 viewBox="0.00 0.00 149.00 84.00" xmlns="http://www.w3.org/2000/svg" xmlns:xlink="http://www.w3.org/1999/xlink">
<g id="graph1" class="graph" transform="scale(1 1) rotate(0) translate(4 80)">
<title>G</title>
<polygon fill="white" stroke="white" points="-4,5 -4,-80 146,-80 146,5 -4,5"/>
<!-- Node1 -->
<g id="node1" class="node"><title>Node1</title>
<polygon fill="#bfbfbf" stroke="black" points="42.5,-56.5 42.5,-75.5 101.5,-75.5 101.5,-56.5 42.5,-56.5"/>
<text text-anchor="middle" x="72" y="-63.5" font-family="Helvetica,sans-Serif" font-size="10.00">CalcMC.h</text>
</g>
<!-- Node2 -->
<g id="node3" class="node"><title>Node2</title>
<a xlink:href="_calc_co_m_8c.html" target="_top" xlink:title="CalcCoM.c">
<polygon fill="white" stroke="black" points="-0.5,-0.5 -0.5,-19.5 64.5,-19.5 64.5,-0.5 -0.5,-0.5"/>
<text text-anchor="middle" x="32" y="-7.5" font-family="Helvetica,sans-Serif" font-size="10.00">CalcCoM.c</text>
</a>
</g>
<!-- Node1&#45;&gt;Node2 -->
<g id="edge2" class="edge"><title>Node1&#45;&gt;Node2</title>
<path fill="none" stroke="midnightblue" d="M59.3003,-47.8554C52.374,-38.5048 44.0937,-27.3265 38.4823,-19.7511"/>
<polygon fill="midnightblue" stroke="midnightblue" points="56.63,-50.1307 65.3948,-56.083 62.255,-45.9641 56.63,-50.1307"/>
</g>
<!-- Node3 -->
<g id="node5" class="node"><title>Node3</title>
<a xlink:href="_calc_m_c_8c.html" target="_top" xlink:title="CalcMC.c">
<polygon fill="white" stroke="black" points="82.5,-0.5 82.5,-19.5 141.5,-19.5 141.5,-0.5 82.5,-0.5"/>
<text text-anchor="middle" x="112" y="-7.5" font-family="Helvetica,sans-Serif" font-size="10.00">CalcMC.c</text>
</a>
</g>
<!-- Node1&#45;&gt;Node3 -->
<g id="edge4" class="edge"><title>Node1&#45;&gt;Node3</title>
<path fill="none" stroke="midnightblue" d="M84.6997,-47.8554C91.626,-38.5048 99.9063,-27.3265 105.518,-19.7511"/>
<polygon fill="midnightblue" stroke="midnightblue" points="81.745,-45.9641 78.6052,-56.083 87.37,-50.1307 81.745,-45.9641"/>
</g>
</g>
</svg>
