<?xml version="1.0" encoding="UTF-8" standalone="no"?>
<!DOCTYPE svg PUBLIC "-//W3C//DTD SVG 1.1//EN"
 "http://www.w3.org/Graphics/SVG/1.1/DTD/svg11.dtd">
<!-- Generated by graphviz version 2.28.0 (20110507.0327)
 -->
<!-- Title: G Pages: 1 -->
<svg width="342pt" height="142pt"
 viewBox="0.00 0.00 342.00 142.00" xmlns="http://www.w3.org/2000/svg" xmlns:xlink="http://www.w3.org/1999/xlink">
<g id="graph1" class="graph" transform="scale(1 1) rotate(0) translate(4 138)">
<title>G</title>
<polygon fill="white" stroke="white" points="-4,5 -4,-138 339,-138 339,5 -4,5"/>
<!-- Node1 -->
<g id="node1" class="node"><title>Node1</title>
<polygon fill="#bfbfbf" stroke="black" points="0.5,-57.5 0.5,-76.5 51.5,-76.5 51.5,-57.5 0.5,-57.5"/>
<text text-anchor="middle" x="26" y="-64.5" font-family="Helvetica,sans-Serif" font-size="10.00">CalcMC</text>
</g>
<!-- Node1&#45;&gt;Node1 -->
<g id="edge16" class="edge"><title>Node1&#45;&gt;Node1</title>
<path fill="none" stroke="midnightblue" d="M9.33415,-86.4C10.4472,-91.3146 16.0024,-95 26,-95 41.9961,-95 46.62,-85.5653 39.8716,-76.7571"/>
<polygon fill="midnightblue" stroke="midnightblue" points="12.7068,-87.3361 12.1284,-76.7571 5.9834,-85.3878 12.7068,-87.3361"/>
</g>
<!-- Node2 -->
<g id="node3" class="node"><title>Node2</title>
<a xlink:href="_calc_co_m_8h.html#a02ae60f79cbcfde98d1451065cf394c7" target="_top" xlink:title="CalcCoM">
<polygon fill="white" stroke="black" points="88,-57.5 88,-76.5 144,-76.5 144,-57.5 88,-57.5"/>
<text text-anchor="middle" x="116" y="-64.5" font-family="Helvetica,sans-Serif" font-size="10.00">CalcCoM</text>
</a>
</g>
<!-- Node1&#45;&gt;Node2 -->
<g id="edge2" class="edge"><title>Node1&#45;&gt;Node2</title>
<path fill="none" stroke="midnightblue" d="M61.7451,-67C70.4167,-67 79.5907,-67 87.8359,-67"/>
<polygon fill="midnightblue" stroke="midnightblue" points="61.5129,-63.5001 51.5129,-67 61.5129,-70.5001 61.5129,-63.5001"/>
</g>
<!-- Node3 -->
<g id="node5" class="node"><title>Node3</title>
<a xlink:href="_draw_indicators_8h.html#a25c2edda1fcf20ca794ee4556ca2a6e0" target="_top" xlink:title="DrawIndicators">
<polygon fill="white" stroke="black" points="180,-114.5 180,-133.5 260,-133.5 260,-114.5 180,-114.5"/>
<text text-anchor="middle" x="220" y="-121.5" font-family="Helvetica,sans-Serif" font-size="10.00">DrawIndicators</text>
</a>
</g>
<!-- Node2&#45;&gt;Node3 -->
<g id="edge4" class="edge"><title>Node2&#45;&gt;Node3</title>
<path fill="none" stroke="midnightblue" d="M143.115,-81.5939C161.613,-91.9309 185.896,-105.501 201.953,-114.474"/>
<polygon fill="midnightblue" stroke="midnightblue" points="144.74,-78.4922 134.303,-76.6693 141.325,-84.6028 144.74,-78.4922"/>
</g>
<!-- Node4 -->
<g id="node7" class="node"><title>Node4</title>
<a xlink:href="main_8c.html#a0ddf1224851353fc92bfbff6f499fa97" target="_top" xlink:title="main">
<polygon fill="white" stroke="black" points="296,-76.5 296,-95.5 334,-95.5 334,-76.5 296,-76.5"/>
<text text-anchor="middle" x="315" y="-83.5" font-family="Helvetica,sans-Serif" font-size="10.00">main</text>
</a>
</g>
<!-- Node2&#45;&gt;Node4 -->
<g id="edge8" class="edge"><title>Node2&#45;&gt;Node4</title>
<path fill="none" stroke="midnightblue" d="M154.587,-70.6251C196.924,-74.7084 263.978,-81.1756 295.924,-84.2566"/>
<polygon fill="midnightblue" stroke="midnightblue" points="154.682,-67.1181 144.392,-69.6419 154.01,-74.0858 154.682,-67.1181"/>
</g>
<!-- Node5 -->
<g id="node10" class="node"><title>Node5</title>
<a xlink:href="_stabilizator_8h.html#ab7d621a4109213b04e8479e729268e23" target="_top" xlink:title="Stabilizator">
<polygon fill="white" stroke="black" points="187.5,-38.5 187.5,-57.5 252.5,-57.5 252.5,-38.5 187.5,-38.5"/>
<text text-anchor="middle" x="220" y="-45.5" font-family="Helvetica,sans-Serif" font-size="10.00">Stabilizator</text>
</a>
</g>
<!-- Node2&#45;&gt;Node5 -->
<g id="edge10" class="edge"><title>Node2&#45;&gt;Node5</title>
<path fill="none" stroke="midnightblue" d="M154.182,-60.0739C165.101,-58.0401 176.933,-55.836 187.463,-53.8745"/>
<polygon fill="midnightblue" stroke="midnightblue" points="153.256,-56.6861 144.066,-61.9582 154.538,-63.5677 153.256,-56.6861"/>
</g>
<!-- Node6 -->
<g id="node12" class="node"><title>Node6</title>
<a xlink:href="u_link_8h.html#ae420e3d1a86aca06b7286b7678b4ecb6" target="_top" xlink:title="Initialize the link structure with the model value.">
<polygon fill="white" stroke="black" points="186,-0.5 186,-19.5 254,-19.5 254,-0.5 186,-0.5"/>
<text text-anchor="middle" x="220" y="-7.5" font-family="Helvetica,sans-Serif" font-size="10.00">SetupRobot</text>
</a>
</g>
<!-- Node2&#45;&gt;Node6 -->
<g id="edge12" class="edge"><title>Node2&#45;&gt;Node6</title>
<path fill="none" stroke="midnightblue" d="M140.769,-51.9759C152.444,-44.7734 166.807,-36.1739 180,-29 185.955,-25.7619 192.543,-22.4522 198.583,-19.5216"/>
<polygon fill="midnightblue" stroke="midnightblue" points="138.696,-49.1434 132.055,-57.3987 142.394,-55.0865 138.696,-49.1434"/>
</g>
<!-- Node3&#45;&gt;Node4 -->
<g id="edge6" class="edge"><title>Node3&#45;&gt;Node4</title>
<path fill="none" stroke="midnightblue" d="M253.864,-110.572C267.963,-104.811 283.898,-98.2998 295.82,-93.4283"/>
<polygon fill="midnightblue" stroke="midnightblue" points="252.401,-107.389 244.468,-114.411 255.049,-113.868 252.401,-107.389"/>
</g>
<!-- Node6&#45;&gt;Node4 -->
<g id="edge14" class="edge"><title>Node6&#45;&gt;Node4</title>
<path fill="none" stroke="midnightblue" d="M253.009,-24.3953C255.439,-25.8467 257.799,-27.3852 260,-29 278.905,-42.8677 296.783,-63.8314 306.48,-76.0957"/>
<polygon fill="midnightblue" stroke="midnightblue" points="254.524,-21.2352 244.066,-19.54 251.184,-27.3871 254.524,-21.2352"/>
</g>
</g>
</svg>
