<?xml version="1.0" encoding="UTF-8" standalone="no"?>
<!DOCTYPE svg PUBLIC "-//W3C//DTD SVG 1.1//EN"
 "http://www.w3.org/Graphics/SVG/1.1/DTD/svg11.dtd">
<!-- Generated by graphviz version 2.28.0 (20110507.0327)
 -->
<!-- Title: G Pages: 1 -->
<svg width="210pt" height="57pt"
 viewBox="0.00 0.00 210.00 56.56" xmlns="http://www.w3.org/2000/svg" xmlns:xlink="http://www.w3.org/1999/xlink">
<g id="graph1" class="graph" transform="scale(1 1) rotate(0) translate(4 52.5565)">
<title>G</title>
<polygon fill="white" stroke="white" points="-4,5 -4,-52.5565 207,-52.5565 207,5 -4,5"/>
<!-- Node1 -->
<g id="node1" class="node"><title>Node1</title>
<polygon fill="#bfbfbf" stroke="black" points="0.5,-28.5 0.5,-47.5 43.5,-47.5 43.5,-28.5 0.5,-28.5"/>
<text text-anchor="middle" x="22" y="-35.5" font-family="Helvetica,sans-Serif" font-size="10.00">CalcP</text>
</g>
<!-- Node2 -->
<g id="node3" class="node"><title>Node2</title>
<a xlink:href="_cross_8c.html#ae694d97c46b1d90555b4e9a1809baeb3" target="_top" xlink:title="Cross">
<polygon fill="white" stroke="black" points="160,-28.5 160,-47.5 202,-47.5 202,-28.5 160,-28.5"/>
<text text-anchor="middle" x="181" y="-35.5" font-family="Helvetica,sans-Serif" font-size="10.00">Cross</text>
</a>
</g>
<!-- Node1&#45;&gt;Node2 -->
<g id="edge2" class="edge"><title>Node1&#45;&gt;Node2</title>
<path fill="none" stroke="midnightblue" d="M43.7532,-42.0777C54.5199,-43.9893 67.9148,-46.0518 80,-47 99.4956,-48.5297 104.506,-48.5565 124,-47 132.42,-46.3277 141.485,-45.0954 149.817,-43.7539"/>
<polygon fill="midnightblue" stroke="midnightblue" points="150.611,-47.1691 159.876,-42.0303 149.428,-40.2696 150.611,-47.1691"/>
</g>
<!-- Node3 -->
<g id="node5" class="node"><title>Node3</title>
<a xlink:href="_calc_p_8c.html#a7d7ed03161edcf4ded8f478f74504c43" target="_top" xlink:title="CalcP">
<polygon fill="white" stroke="black" points="80.5,-0.5 80.5,-19.5 123.5,-19.5 123.5,-0.5 80.5,-0.5"/>
<text text-anchor="middle" x="102" y="-7.5" font-family="Helvetica,sans-Serif" font-size="10.00">CalcP</text>
</a>
</g>
<!-- Node1&#45;&gt;Node3 -->
<g id="edge4" class="edge"><title>Node1&#45;&gt;Node3</title>
<path fill="none" stroke="midnightblue" d="M43.9026,-30.4965C52.1874,-27.5225 61.8723,-24.0458 70.8879,-20.8095"/>
<polygon fill="midnightblue" stroke="midnightblue" points="72.0808,-24.1 80.3102,-17.4271 69.7157,-17.5116 72.0808,-24.1"/>
</g>
<!-- Node3&#45;&gt;Node2 -->
<g id="edge6" class="edge"><title>Node3&#45;&gt;Node2</title>
<path fill="none" stroke="midnightblue" d="M123.635,-17.5035C131.791,-20.4694 141.322,-23.9352 150.201,-27.1641"/>
<polygon fill="midnightblue" stroke="midnightblue" points="149.247,-30.5414 159.841,-30.6696 151.64,-23.9628 149.247,-30.5414"/>
</g>
<!-- Node3&#45;&gt;Node3 -->
<g id="edge8" class="edge"><title>Node3&#45;&gt;Node3</title>
<path fill="none" stroke="midnightblue" d="M89.9779,-19.7571C84.1294,-28.5653 88.1367,-38 102,-38 110.448,-38 115.236,-34.4965 116.364,-29.7663"/>
<polygon fill="midnightblue" stroke="midnightblue" points="119.708,-28.6966 114.022,-19.7571 112.893,-30.2915 119.708,-28.6966"/>
</g>
</g>
</svg>
