<?xml version="1.0" encoding="UTF-8" standalone="no"?>
<!DOCTYPE svg PUBLIC "-//W3C//DTD SVG 1.1//EN"
 "http://www.w3.org/Graphics/SVG/1.1/DTD/svg11.dtd">
<!-- Generated by graphviz version 2.28.0 (20110507.0327)
 -->
<!-- Title: G Pages: 1 -->
<!--zoomable-->
<svg id="main" version="1.1" xmlns="http://www.w3.org/2000/svg" xmlns:xlink="http://www.w3.org/1999/xlink" xml:space="preserve" onload="init(evt)">
        <defs>
                <circle id="rim" cx="0" cy="0" r="7"/>
                <circle id="rim2" cx="0" cy="0" r="3.5"/>
                <g id="zoomPlus">
                        <use xlink:href="#rim" fill="#404040">
                                <set attributeName="fill" to="#808080" begin="zoomplus.mouseover" end="zoomplus.mouseout"/>
                        </use>
                        <path d="M-4,0h8M0,-4v8" fill="none" stroke="white" stroke-width="1.5" pointer-events="none"/>
                </g>
                <g id="zoomMin">
                        <use xlink:href="#rim" fill="#404040">
                                <set attributeName="fill" to="#808080" begin="zoomminus.mouseover" end="zoomminus.mouseout"/>
                        </use>
                        <path d="M-4,0h8" fill="none" stroke="white" stroke-width="1.5" pointer-events="none"/>
                </g>
                <g id="dirArrow">
                        <path fill="none" stroke="white" stroke-width="1.5" d="M0,-3.0v7 M-2.5,-0.5L0,-3.0L2.5,-0.5"/>
                </g>
               <g id="resetDef">
                       <use xlink:href="#rim2" fill="#404040">
                               <set attributeName="fill" to="#808080" begin="reset.mouseover" end="reset.mouseout"/>
                       </use>
               </g>
        </defs>

<script type="text/javascript">
var viewWidth = 1027;
var viewHeight = 84;
var sectionId = 'dynsection-1';
</script>
<script xlink:href="svgpan.js"/>
<svg id="graph" class="graph">
<g id="viewport">
<title>G</title>
<polygon fill="white" stroke="white" points="-4,5 -4,-80 1024,-80 1024,5 -4,5"/>
<!-- Node1 -->
<g id="node1" class="node"><title>Node1</title>
<polygon fill="#bfbfbf" stroke="black" points="483.5,-56.5 483.5,-75.5 548.5,-75.5 548.5,-56.5 483.5,-56.5"/>
<text text-anchor="middle" x="516" y="-63.5" font-family="Helvetica,sans-Serif" font-size="10.00">CalcCoM.h</text>
</g>
<!-- Node2 -->
<g id="node3" class="node"><title>Node2</title>
<a xlink:href="_calc_co_m_8c.html" target="_top" xlink:title="CalcCoM.c">
<polygon fill="white" stroke="black" points="-0.5,-0.5 -0.5,-19.5 64.5,-19.5 64.5,-0.5 -0.5,-0.5"/>
<text text-anchor="middle" x="32" y="-7.5" font-family="Helvetica,sans-Serif" font-size="10.00">CalcCoM.c</text>
</a>
</g>
<!-- Node1&#45;&gt;Node2 -->
<g id="edge2" class="edge"><title>Node1&#45;&gt;Node2</title>
<path fill="none" stroke="midnightblue" d="M473.231,-62.2959C393.943,-56.9197 218.926,-43.3488 73,-20 70.2655,-19.5625 67.4395,-19.0565 64.6093,-18.5121"/>
<polygon fill="midnightblue" stroke="midnightblue" points="473.109,-65.7955 483.32,-62.9706 473.576,-58.8111 473.109,-65.7955"/>
</g>
<!-- Node3 -->
<g id="node5" class="node"><title>Node3</title>
<a xlink:href="_draw_indicators_8c.html" target="_top" xlink:title="DrawIndicators.c">
<polygon fill="white" stroke="black" points="82.5,-0.5 82.5,-19.5 171.5,-19.5 171.5,-0.5 82.5,-0.5"/>
<text text-anchor="middle" x="127" y="-7.5" font-family="Helvetica,sans-Serif" font-size="10.00">DrawIndicators.c</text>
</a>
</g>
<!-- Node1&#45;&gt;Node3 -->
<g id="edge4" class="edge"><title>Node1&#45;&gt;Node3</title>
<path fill="none" stroke="midnightblue" d="M472.92,-59.7213C408.925,-51.7685 285.002,-35.9416 180,-20 177.232,-19.5797 174.385,-19.1344 171.515,-18.6755"/>
<polygon fill="midnightblue" stroke="midnightblue" points="472.683,-63.2185 483.037,-60.9749 473.544,-56.2717 472.683,-63.2185"/>
</g>
<!-- Node4 -->
<g id="node7" class="node"><title>Node4</title>
<a xlink:href="_external_forces_8c.html" target="_top" xlink:title="ExternalForces.c">
<polygon fill="white" stroke="black" points="189.5,-0.5 189.5,-19.5 280.5,-19.5 280.5,-0.5 189.5,-0.5"/>
<text text-anchor="middle" x="235" y="-7.5" font-family="Helvetica,sans-Serif" font-size="10.00">ExternalForces.c</text>
</a>
</g>
<!-- Node1&#45;&gt;Node4 -->
<g id="edge6" class="edge"><title>Node1&#45;&gt;Node4</title>
<path fill="none" stroke="midnightblue" d="M473.541,-56.8407C421.281,-46.7978 332.936,-29.8205 279.678,-19.5858"/>
<polygon fill="midnightblue" stroke="midnightblue" points="473.01,-60.3026 483.491,-58.7528 474.331,-53.4284 473.01,-60.3026"/>
</g>
<!-- Node5 -->
<g id="node9" class="node"><title>Node5</title>
<a xlink:href="_forward_dynamics_8c.html" target="_top" xlink:title="ForwardDynamics.c">
<polygon fill="white" stroke="black" points="298.5,-0.5 298.5,-19.5 401.5,-19.5 401.5,-0.5 298.5,-0.5"/>
<text text-anchor="middle" x="350" y="-7.5" font-family="Helvetica,sans-Serif" font-size="10.00">ForwardDynamics.c</text>
</a>
</g>
<!-- Node1&#45;&gt;Node5 -->
<g id="edge8" class="edge"><title>Node1&#45;&gt;Node5</title>
<path fill="none" stroke="midnightblue" d="M480.047,-53.3044C448.768,-43.1294 404.179,-28.6246 376.18,-19.5164"/>
<polygon fill="midnightblue" stroke="midnightblue" points="479.105,-56.6783 489.697,-56.4435 481.27,-50.0217 479.105,-56.6783"/>
</g>
<!-- Node6 -->
<g id="node11" class="node"><title>Node6</title>
<a xlink:href="_gravity_8c.html" target="_top" xlink:title="Gravity.c">
<polygon fill="white" stroke="black" points="419.5,-0.5 419.5,-19.5 474.5,-19.5 474.5,-0.5 419.5,-0.5"/>
<text text-anchor="middle" x="447" y="-7.5" font-family="Helvetica,sans-Serif" font-size="10.00">Gravity.c</text>
</a>
</g>
<!-- Node1&#45;&gt;Node6 -->
<g id="edge10" class="edge"><title>Node1&#45;&gt;Node6</title>
<path fill="none" stroke="midnightblue" d="M496.962,-50.1008C484.544,-40.3824 468.757,-28.0269 458.288,-19.8339"/>
<polygon fill="midnightblue" stroke="midnightblue" points="494.882,-52.9171 504.914,-56.324 499.196,-47.4046 494.882,-52.9171"/>
</g>
<!-- Node7 -->
<g id="node13" class="node"><title>Node7</title>
<a xlink:href="main_8c.html" target="_top" xlink:title="This is the multi body simulator.">
<polygon fill="white" stroke="black" points="493,-0.5 493,-19.5 539,-19.5 539,-0.5 493,-0.5"/>
<text text-anchor="middle" x="516" y="-7.5" font-family="Helvetica,sans-Serif" font-size="10.00">main.c</text>
</a>
</g>
<!-- Node1&#45;&gt;Node7 -->
<g id="edge12" class="edge"><title>Node1&#45;&gt;Node7</title>
<path fill="none" stroke="midnightblue" d="M516,-45.8045C516,-36.9102 516,-26.7798 516,-19.7511"/>
<polygon fill="midnightblue" stroke="midnightblue" points="512.5,-46.083 516,-56.083 519.5,-46.083 512.5,-46.083"/>
</g>
<!-- Node8 -->
<g id="node15" class="node"><title>Node8</title>
<a xlink:href="_one_foot_trajectory_8c.html" target="_top" xlink:title="OneFootTrajectory.c">
<polygon fill="white" stroke="black" points="557.5,-0.5 557.5,-19.5 662.5,-19.5 662.5,-0.5 557.5,-0.5"/>
<text text-anchor="middle" x="610" y="-7.5" font-family="Helvetica,sans-Serif" font-size="10.00">OneFootTrajectory.c</text>
</a>
</g>
<!-- Node1&#45;&gt;Node8 -->
<g id="edge14" class="edge"><title>Node1&#45;&gt;Node8</title>
<path fill="none" stroke="midnightblue" d="M540.062,-51.1774C557.359,-41.2407 580.148,-28.1492 594.935,-19.6545"/>
<polygon fill="midnightblue" stroke="midnightblue" points="538.03,-48.3078 531.103,-56.324 541.517,-54.3775 538.03,-48.3078"/>
</g>
<!-- Node9 -->
<g id="node17" class="node"><title>Node9</title>
<a xlink:href="_stabilizator_8c.html" target="_top" xlink:title="Stabilizator.c">
<polygon fill="white" stroke="black" points="681,-0.5 681,-19.5 755,-19.5 755,-0.5 681,-0.5"/>
<text text-anchor="middle" x="718" y="-7.5" font-family="Helvetica,sans-Serif" font-size="10.00">Stabilizator.c</text>
</a>
</g>
<!-- Node1&#45;&gt;Node9 -->
<g id="edge16" class="edge"><title>Node1&#45;&gt;Node9</title>
<path fill="none" stroke="midnightblue" d="M557.788,-53.8291C595.927,-43.6333 651.481,-28.7823 686.142,-19.5164"/>
<polygon fill="midnightblue" stroke="midnightblue" points="556.764,-50.4796 548.008,-56.4435 558.572,-57.2422 556.764,-50.4796"/>
</g>
<!-- Node10 -->
<g id="node19" class="node"><title>Node10</title>
<a xlink:href="_static_trajectory_8c.html" target="_top" xlink:title="StaticTrajectory.c">
<polygon fill="white" stroke="black" points="773.5,-0.5 773.5,-19.5 866.5,-19.5 866.5,-0.5 773.5,-0.5"/>
<text text-anchor="middle" x="820" y="-7.5" font-family="Helvetica,sans-Serif" font-size="10.00">StaticTrajectory.c</text>
</a>
</g>
<!-- Node1&#45;&gt;Node10 -->
<g id="edge18" class="edge"><title>Node1&#45;&gt;Node10</title>
<path fill="none" stroke="midnightblue" d="M558.579,-57.4367C615.165,-47.3852 714.801,-29.6867 773.363,-19.2841"/>
<polygon fill="midnightblue" stroke="midnightblue" points="557.767,-54.026 548.533,-59.2211 558.991,-60.9181 557.767,-54.026"/>
</g>
<!-- Node11 -->
<g id="node21" class="node"><title>Node11</title>
<a xlink:href="_trajectory_8c.html" target="_top" xlink:title="Trajectory.c">
<polygon fill="white" stroke="black" points="885,-0.5 885,-19.5 953,-19.5 953,-0.5 885,-0.5"/>
<text text-anchor="middle" x="919" y="-7.5" font-family="Helvetica,sans-Serif" font-size="10.00">Trajectory.c</text>
</a>
</g>
<!-- Node1&#45;&gt;Node11 -->
<g id="edge20" class="edge"><title>Node1&#45;&gt;Node11</title>
<path fill="none" stroke="midnightblue" d="M559.038,-60.6892C626.571,-53.6811 761.455,-38.7004 875,-20 878.231,-19.4678 881.587,-18.868 884.938,-18.2371"/>
<polygon fill="midnightblue" stroke="midnightblue" points="558.38,-57.2384 548.791,-61.7448 559.097,-64.2015 558.38,-57.2384"/>
</g>
<!-- Node12 -->
<g id="node23" class="node"><title>Node12</title>
<a xlink:href="u_link_8c.html" target="_top" xlink:title="uLink.c">
<polygon fill="white" stroke="black" points="971,-0.5 971,-19.5 1019,-19.5 1019,-0.5 971,-0.5"/>
<text text-anchor="middle" x="995" y="-7.5" font-family="Helvetica,sans-Serif" font-size="10.00">uLink.c</text>
</a>
</g>
<!-- Node1&#45;&gt;Node12 -->
<g id="edge22" class="edge"><title>Node1&#45;&gt;Node12</title>
<path fill="none" stroke="midnightblue" d="M558.881,-63.0397C638.764,-58.8657 815.539,-47.1669 962,-20 964.919,-19.4585 967.957,-18.7852 970.956,-18.0522"/>
<polygon fill="midnightblue" stroke="midnightblue" points="558.528,-59.5531 548.719,-63.5572 558.884,-66.544 558.528,-59.5531"/>
</g>
</g>
</svg>
        <g id="navigator" transform="translate(0 0)" fill="#404254">
                <rect fill="#f2f5e9" fill-opacity="0.5" stroke="#606060" stroke-width=".5" x="0" y="0" width="60" height="60"/>
                <use id="zoomplus" xlink:href="#zoomPlus" x="17" y="9" onmousedown="handleZoom(evt,'in')"/>
                <use id="zoomminus" xlink:href="#zoomMin" x="42" y="9" onmousedown="handleZoom(evt,'out')"/>
                <use id="reset" xlink:href="#resetDef" x="30" y="36" onmousedown="handleReset()"/>
                <g id="arrowUp" xlink:href="#dirArrow" transform="translate(30 24)" onmousedown="handlePan(0,-1)">
                  <use xlink:href="#rim" fill="#404040">
                        <set attributeName="fill" to="#808080" begin="arrowUp.mouseover" end="arrowUp.mouseout"/>
                  </use>
                  <path fill="none" stroke="white" stroke-width="1.5" d="M0,-3.0v7 M-2.5,-0.5L0,-3.0L2.5,-0.5"/>
                </g>
                <g id="arrowRight" xlink:href="#dirArrow" transform="rotate(90) translate(36 -43)" onmousedown="handlePan(1,0)">
                  <use xlink:href="#rim" fill="#404040">
                        <set attributeName="fill" to="#808080" begin="arrowRight.mouseover" end="arrowRight.mouseout"/>
                  </use>
                  <path fill="none" stroke="white" stroke-width="1.5" d="M0,-3.0v7 M-2.5,-0.5L0,-3.0L2.5,-0.5"/>
                </g>
                <g id="arrowDown" xlink:href="#dirArrow" transform="rotate(180) translate(-30 -48)" onmousedown="handlePan(0,1)">
                  <use xlink:href="#rim" fill="#404040">
                        <set attributeName="fill" to="#808080" begin="arrowDown.mouseover" end="arrowDown.mouseout"/>
                  </use>
                  <path fill="none" stroke="white" stroke-width="1.5" d="M0,-3.0v7 M-2.5,-0.5L0,-3.0L2.5,-0.5"/>
                </g>
                <g id="arrowLeft" xlink:href="#dirArrow" transform="rotate(270) translate(-36 17)" onmousedown="handlePan(-1,0)">
                  <use xlink:href="#rim" fill="#404040">
                        <set attributeName="fill" to="#808080" begin="arrowLeft.mouseover" end="arrowLeft.mouseout"/>
                  </use>
                  <path fill="none" stroke="white" stroke-width="1.5" d="M0,-3.0v7 M-2.5,-0.5L0,-3.0L2.5,-0.5"/>
                </g>
        </g>
</svg>
