<?xml version="1.0" encoding="UTF-8" standalone="no"?>
<!DOCTYPE svg PUBLIC "-//W3C//DTD SVG 1.1//EN"
 "http://www.w3.org/Graphics/SVG/1.1/DTD/svg11.dtd">
<!-- Generated by graphviz version 2.28.0 (20110507.0327)
 -->
<!-- Title: G Pages: 1 -->
<svg width="430pt" height="142pt"
 viewBox="0.00 0.00 430.00 142.00" xmlns="http://www.w3.org/2000/svg" xmlns:xlink="http://www.w3.org/1999/xlink">
<g id="graph1" class="graph" transform="scale(1 1) rotate(0) translate(4 138)">
<title>G</title>
<polygon fill="white" stroke="white" points="-4,5 -4,-138 427,-138 427,5 -4,5"/>
<!-- Node1 -->
<g id="node1" class="node"><title>Node1</title>
<polygon fill="#bfbfbf" stroke="black" points="0.5,-57.5 0.5,-76.5 51.5,-76.5 51.5,-57.5 0.5,-57.5"/>
<text text-anchor="middle" x="26" y="-64.5" font-family="Helvetica,sans-Serif" font-size="10.00">CalcMC</text>
</g>
<!-- Node2 -->
<g id="node3" class="node"><title>Node2</title>
<a xlink:href="_calc_co_m_8h.html#a02ae60f79cbcfde98d1451065cf394c7" target="_top" xlink:title="CalcCoM">
<polygon fill="white" stroke="black" points="176,-57.5 176,-76.5 232,-76.5 232,-57.5 176,-57.5"/>
<text text-anchor="middle" x="204" y="-64.5" font-family="Helvetica,sans-Serif" font-size="10.00">CalcCoM</text>
</a>
</g>
<!-- Node1&#45;&gt;Node2 -->
<g id="edge2" class="edge"><title>Node1&#45;&gt;Node2</title>
<path fill="none" stroke="midnightblue" d="M61.6334,-73.0084C70.2222,-74.25 79.4232,-75.3707 88,-76 111.049,-77.6912 116.947,-77.6383 140,-76 151.792,-75.162 164.733,-73.4522 175.802,-71.7458"/>
<polygon fill="midnightblue" stroke="midnightblue" points="61.9592,-69.5175 51.5438,-71.4588 60.8965,-76.4364 61.9592,-69.5175"/>
</g>
<!-- Node7 -->
<g id="node15" class="node"><title>Node7</title>
<a xlink:href="_calc_m_c_8h.html#ae1ac5dd3e92965aa232a169e6639bb37" target="_top" xlink:title="CalcMC">
<polygon fill="white" stroke="black" points="88.5,-29.5 88.5,-48.5 139.5,-48.5 139.5,-29.5 88.5,-29.5"/>
<text text-anchor="middle" x="114" y="-36.5" font-family="Helvetica,sans-Serif" font-size="10.00">CalcMC</text>
</a>
</g>
<!-- Node1&#45;&gt;Node7 -->
<g id="edge16" class="edge"><title>Node1&#45;&gt;Node7</title>
<path fill="none" stroke="midnightblue" d="M61.4145,-55.7953C70.4716,-52.8465 80.0585,-49.7252 88.4781,-46.9839"/>
<polygon fill="midnightblue" stroke="midnightblue" points="60.2999,-52.4773 51.8748,-58.9012 62.4671,-59.1334 60.2999,-52.4773"/>
</g>
<!-- Node3 -->
<g id="node5" class="node"><title>Node3</title>
<a xlink:href="_draw_indicators_8h.html#a25c2edda1fcf20ca794ee4556ca2a6e0" target="_top" xlink:title="DrawIndicators">
<polygon fill="white" stroke="black" points="268,-114.5 268,-133.5 348,-133.5 348,-114.5 268,-114.5"/>
<text text-anchor="middle" x="308" y="-121.5" font-family="Helvetica,sans-Serif" font-size="10.00">DrawIndicators</text>
</a>
</g>
<!-- Node2&#45;&gt;Node3 -->
<g id="edge4" class="edge"><title>Node2&#45;&gt;Node3</title>
<path fill="none" stroke="midnightblue" d="M231.115,-81.5939C249.613,-91.9309 273.896,-105.501 289.953,-114.474"/>
<polygon fill="midnightblue" stroke="midnightblue" points="232.74,-78.4922 222.303,-76.6693 229.325,-84.6028 232.74,-78.4922"/>
</g>
<!-- Node4 -->
<g id="node7" class="node"><title>Node4</title>
<a xlink:href="main_8c.html#a0ddf1224851353fc92bfbff6f499fa97" target="_top" xlink:title="main">
<polygon fill="white" stroke="black" points="384,-76.5 384,-95.5 422,-95.5 422,-76.5 384,-76.5"/>
<text text-anchor="middle" x="403" y="-83.5" font-family="Helvetica,sans-Serif" font-size="10.00">main</text>
</a>
</g>
<!-- Node2&#45;&gt;Node4 -->
<g id="edge8" class="edge"><title>Node2&#45;&gt;Node4</title>
<path fill="none" stroke="midnightblue" d="M242.587,-70.6251C284.924,-74.7084 351.978,-81.1756 383.924,-84.2566"/>
<polygon fill="midnightblue" stroke="midnightblue" points="242.682,-67.1181 232.392,-69.6419 242.01,-74.0858 242.682,-67.1181"/>
</g>
<!-- Node5 -->
<g id="node10" class="node"><title>Node5</title>
<a xlink:href="_stabilizator_8h.html#ab7d621a4109213b04e8479e729268e23" target="_top" xlink:title="Stabilizator">
<polygon fill="white" stroke="black" points="275.5,-38.5 275.5,-57.5 340.5,-57.5 340.5,-38.5 275.5,-38.5"/>
<text text-anchor="middle" x="308" y="-45.5" font-family="Helvetica,sans-Serif" font-size="10.00">Stabilizator</text>
</a>
</g>
<!-- Node2&#45;&gt;Node5 -->
<g id="edge10" class="edge"><title>Node2&#45;&gt;Node5</title>
<path fill="none" stroke="midnightblue" d="M242.182,-60.0739C253.101,-58.0401 264.933,-55.836 275.463,-53.8745"/>
<polygon fill="midnightblue" stroke="midnightblue" points="241.256,-56.6861 232.066,-61.9582 242.538,-63.5677 241.256,-56.6861"/>
</g>
<!-- Node6 -->
<g id="node12" class="node"><title>Node6</title>
<a xlink:href="u_link_8h.html#ae420e3d1a86aca06b7286b7678b4ecb6" target="_top" xlink:title="Initialize the link structure with the model value.">
<polygon fill="white" stroke="black" points="274,-0.5 274,-19.5 342,-19.5 342,-0.5 274,-0.5"/>
<text text-anchor="middle" x="308" y="-7.5" font-family="Helvetica,sans-Serif" font-size="10.00">SetupRobot</text>
</a>
</g>
<!-- Node2&#45;&gt;Node6 -->
<g id="edge12" class="edge"><title>Node2&#45;&gt;Node6</title>
<path fill="none" stroke="midnightblue" d="M228.769,-51.9759C240.444,-44.7734 254.807,-36.1739 268,-29 273.955,-25.7619 280.543,-22.4522 286.583,-19.5216"/>
<polygon fill="midnightblue" stroke="midnightblue" points="226.696,-49.1434 220.055,-57.3987 230.394,-55.0865 226.696,-49.1434"/>
</g>
<!-- Node3&#45;&gt;Node4 -->
<g id="edge6" class="edge"><title>Node3&#45;&gt;Node4</title>
<path fill="none" stroke="midnightblue" d="M341.864,-110.572C355.963,-104.811 371.898,-98.2998 383.82,-93.4283"/>
<polygon fill="midnightblue" stroke="midnightblue" points="340.401,-107.389 332.468,-114.411 343.049,-113.868 340.401,-107.389"/>
</g>
<!-- Node6&#45;&gt;Node4 -->
<g id="edge14" class="edge"><title>Node6&#45;&gt;Node4</title>
<path fill="none" stroke="midnightblue" d="M341.009,-24.3953C343.439,-25.8467 345.799,-27.3852 348,-29 366.905,-42.8677 384.783,-63.8314 394.48,-76.0957"/>
<polygon fill="midnightblue" stroke="midnightblue" points="342.524,-21.2352 332.066,-19.54 339.184,-27.3871 342.524,-21.2352"/>
</g>
<!-- Node7&#45;&gt;Node2 -->
<g id="edge18" class="edge"><title>Node7&#45;&gt;Node2</title>
<path fill="none" stroke="midnightblue" d="M149.174,-49.8736C158.013,-52.686 167.41,-55.6758 175.836,-58.3569"/>
<polygon fill="midnightblue" stroke="midnightblue" points="150.103,-46.4964 139.513,-46.7996 147.981,-53.1669 150.103,-46.4964"/>
</g>
<!-- Node7&#45;&gt;Node7 -->
<g id="edge20" class="edge"><title>Node7&#45;&gt;Node7</title>
<path fill="none" stroke="midnightblue" d="M97.7045,-58.4C98.7928,-63.3146 104.225,-67 114,-67 129.641,-67 134.162,-57.5653 127.563,-48.7571"/>
<polygon fill="midnightblue" stroke="midnightblue" points="101.078,-59.3325 100.437,-48.7571 94.3431,-57.4242 101.078,-59.3325"/>
</g>
</g>
</svg>
