<?xml version="1.0" encoding="UTF-8" standalone="no"?>
<!DOCTYPE svg PUBLIC "-//W3C//DTD SVG 1.1//EN"
 "http://www.w3.org/Graphics/SVG/1.1/DTD/svg11.dtd">
<!-- Generated by graphviz version 2.28.0 (20110507.0327)
 -->
<!-- Title: G Pages: 1 -->
<svg width="456pt" height="140pt"
 viewBox="0.00 0.00 455.52 140.00" xmlns="http://www.w3.org/2000/svg" xmlns:xlink="http://www.w3.org/1999/xlink">
<g id="graph1" class="graph" transform="scale(1 1) rotate(0) translate(4 136)">
<title>G</title>
<polygon fill="white" stroke="white" points="-4,5 -4,-136 452.524,-136 452.524,5 -4,5"/>
<!-- Node1 -->
<g id="node1" class="node"><title>Node1</title>
<polygon fill="#bfbfbf" stroke="black" points="164.024,-112.5 164.024,-131.5 229.024,-131.5 229.024,-112.5 164.024,-112.5"/>
<text text-anchor="middle" x="196.524" y="-119.5" font-family="Helvetica,sans-Serif" font-size="10.00">CalcCoM.c</text>
</g>
<!-- Node2 -->
<g id="node3" class="node"><title>Node2</title>
<polygon fill="white" stroke="#bfbfbf" points="66.5237,-0.5 66.5237,-19.5 150.524,-19.5 150.524,-0.5 66.5237,-0.5"/>
<text text-anchor="middle" x="108.524" y="-7.5" font-family="Helvetica,sans-Serif" font-size="10.00">gsl/gsl_vector.h</text>
</g>
<!-- Node1&#45;&gt;Node2 -->
<g id="edge2" class="edge"><title>Node1&#45;&gt;Node2</title>
<path fill="none" stroke="midnightblue" d="M163.912,-118.113C114.649,-113.001 24.9267,-100.506 5.5237,-76 -14.2128,-51.0732 24.7692,-33.004 60.3011,-22.3362"/>
<polygon fill="midnightblue" stroke="midnightblue" points="61.5202,-25.6283 70.1798,-19.524 59.6036,-18.8958 61.5202,-25.6283"/>
</g>
<!-- Node3 -->
<g id="node5" class="node"><title>Node3</title>
<polygon fill="white" stroke="#bfbfbf" points="168.524,-0.5 168.524,-19.5 254.524,-19.5 254.524,-0.5 168.524,-0.5"/>
<text text-anchor="middle" x="211.524" y="-7.5" font-family="Helvetica,sans-Serif" font-size="10.00">gsl/gsl_matrix.h</text>
</g>
<!-- Node1&#45;&gt;Node3 -->
<g id="edge4" class="edge"><title>Node1&#45;&gt;Node3</title>
<path fill="none" stroke="midnightblue" d="M229.305,-119.472C259.366,-116.123 302.331,-105.993 323.524,-76 342.757,-48.7798 302.153,-31.2876 264.566,-21.3851"/>
<polygon fill="midnightblue" stroke="midnightblue" points="265.155,-17.9252 254.606,-18.9107 263.467,-24.7187 265.155,-17.9252"/>
</g>
<!-- Node4 -->
<g id="node7" class="node"><title>Node4</title>
<polygon fill="white" stroke="#bfbfbf" points="371.024,-56.5 371.024,-75.5 448.024,-75.5 448.024,-56.5 371.024,-56.5"/>
<text text-anchor="middle" x="409.524" y="-63.5" font-family="Helvetica,sans-Serif" font-size="10.00">gsl/gsl_blas.h</text>
</g>
<!-- Node1&#45;&gt;Node4 -->
<g id="edge6" class="edge"><title>Node1&#45;&gt;Node4</title>
<path fill="none" stroke="midnightblue" d="M229.338,-112.681C266.023,-103.381 325.585,-88.2802 366.103,-78.008"/>
<polygon fill="midnightblue" stroke="midnightblue" points="367.136,-81.3571 375.969,-75.5069 365.415,-74.5718 367.136,-81.3571"/>
</g>
<!-- Node5 -->
<g id="node9" class="node"><title>Node5</title>
<a xlink:href="u_link_8h.html" target="_top" xlink:title="Link initialisation and declarations.">
<polygon fill="white" stroke="black" points="98.0237,-56.5 98.0237,-75.5 149.024,-75.5 149.024,-56.5 98.0237,-56.5"/>
<text text-anchor="middle" x="123.524" y="-63.5" font-family="Helvetica,sans-Serif" font-size="10.00">uLINK.h</text>
</a>
</g>
<!-- Node1&#45;&gt;Node5 -->
<g id="edge8" class="edge"><title>Node1&#45;&gt;Node5</title>
<path fill="none" stroke="midnightblue" d="M184.795,-112.324C173.686,-104.107 156.782,-91.6017 143.54,-81.8069"/>
<polygon fill="midnightblue" stroke="midnightblue" points="145.587,-78.9671 135.466,-75.8339 141.424,-84.5948 145.587,-78.9671"/>
</g>
<!-- Node6 -->
<g id="node13" class="node"><title>Node6</title>
<a xlink:href="_calc_m_c_8h.html" target="_top" xlink:title="CalcMC.h">
<polygon fill="white" stroke="black" points="167.024,-56.5 167.024,-75.5 226.024,-75.5 226.024,-56.5 167.024,-56.5"/>
<text text-anchor="middle" x="196.524" y="-63.5" font-family="Helvetica,sans-Serif" font-size="10.00">CalcMC.h</text>
</a>
</g>
<!-- Node1&#45;&gt;Node6 -->
<g id="edge14" class="edge"><title>Node1&#45;&gt;Node6</title>
<path fill="none" stroke="midnightblue" d="M196.524,-112.083C196.524,-105.006 196.524,-94.8611 196.524,-85.9865"/>
<polygon fill="midnightblue" stroke="midnightblue" points="200.024,-85.751 196.524,-75.7511 193.024,-85.7511 200.024,-85.751"/>
</g>
<!-- Node7 -->
<g id="node17" class="node"><title>Node7</title>
<a xlink:href="_total_mass_8h.html" target="_top" xlink:title="TotalMass.h">
<polygon fill="white" stroke="black" points="244.524,-56.5 244.524,-75.5 314.524,-75.5 314.524,-56.5 244.524,-56.5"/>
<text text-anchor="middle" x="279.524" y="-63.5" font-family="Helvetica,sans-Serif" font-size="10.00">TotalMass.h</text>
</a>
</g>
<!-- Node1&#45;&gt;Node7 -->
<g id="edge20" class="edge"><title>Node1&#45;&gt;Node7</title>
<path fill="none" stroke="midnightblue" d="M209.859,-112.324C222.686,-103.979 242.309,-91.2122 257.464,-81.3524"/>
<polygon fill="midnightblue" stroke="midnightblue" points="259.748,-84.0417 266.221,-75.6545 255.931,-78.1742 259.748,-84.0417"/>
</g>
<!-- Node8 -->
<g id="node21" class="node"><title>Node8</title>
<a xlink:href="_calc_co_m_8h.html" target="_top" xlink:title="CalcCoM.h">
<polygon fill="white" stroke="black" points="15.0237,-56.5 15.0237,-75.5 80.0237,-75.5 80.0237,-56.5 15.0237,-56.5"/>
<text text-anchor="middle" x="47.5237" y="-63.5" font-family="Helvetica,sans-Serif" font-size="10.00">CalcCoM.h</text>
</a>
</g>
<!-- Node1&#45;&gt;Node8 -->
<g id="edge26" class="edge"><title>Node1&#45;&gt;Node8</title>
<path fill="none" stroke="midnightblue" d="M172.914,-112.444C148.066,-103.438 108.749,-89.1891 80.7701,-79.049"/>
<polygon fill="midnightblue" stroke="midnightblue" points="81.6169,-75.6332 71.0227,-75.5164 79.2318,-82.2144 81.6169,-75.6332"/>
</g>
<!-- Node5&#45;&gt;Node2 -->
<g id="edge10" class="edge"><title>Node5&#45;&gt;Node2</title>
<path fill="none" stroke="midnightblue" d="M121.047,-56.083C119.037,-48.8486 116.137,-38.4087 113.634,-29.3968"/>
<polygon fill="midnightblue" stroke="midnightblue" points="117.003,-28.4495 110.955,-19.7511 110.259,-30.323 117.003,-28.4495"/>
</g>
<!-- Node5&#45;&gt;Node3 -->
<g id="edge12" class="edge"><title>Node5&#45;&gt;Node3</title>
<path fill="none" stroke="midnightblue" d="M137.662,-56.324C151.39,-47.9002 172.46,-34.9709 188.588,-25.0741"/>
<polygon fill="midnightblue" stroke="midnightblue" points="190.727,-27.8678 197.42,-19.6545 187.066,-21.9016 190.727,-27.8678"/>
</g>
<!-- Node6&#45;&gt;Node2 -->
<g id="edge16" class="edge"><title>Node6&#45;&gt;Node2</title>
<path fill="none" stroke="midnightblue" d="M182.385,-56.324C168.657,-47.9002 147.587,-34.9709 131.459,-25.0741"/>
<polygon fill="midnightblue" stroke="midnightblue" points="132.981,-21.9016 122.627,-19.6545 129.32,-27.8678 132.981,-21.9016"/>
</g>
<!-- Node6&#45;&gt;Node3 -->
<g id="edge18" class="edge"><title>Node6&#45;&gt;Node3</title>
<path fill="none" stroke="midnightblue" d="M199.001,-56.083C201.01,-48.8486 203.91,-38.4087 206.413,-29.3968"/>
<polygon fill="midnightblue" stroke="midnightblue" points="209.789,-30.323 209.093,-19.7511 203.044,-28.4495 209.789,-30.323"/>
</g>
<!-- Node7&#45;&gt;Node2 -->
<g id="edge22" class="edge"><title>Node7&#45;&gt;Node2</title>
<path fill="none" stroke="midnightblue" d="M252.428,-56.4435C223.536,-47.3196 177.599,-32.8133 145.418,-22.6509"/>
<polygon fill="midnightblue" stroke="midnightblue" points="146.082,-19.1903 135.492,-19.5164 143.974,-25.8654 146.082,-19.1903"/>
</g>
<!-- Node7&#45;&gt;Node3 -->
<g id="edge24" class="edge"><title>Node7&#45;&gt;Node3</title>
<path fill="none" stroke="midnightblue" d="M268.598,-56.324C258.349,-48.1849 242.803,-35.8395 230.523,-26.0874"/>
<polygon fill="midnightblue" stroke="midnightblue" points="232.656,-23.3119 222.648,-19.8339 228.302,-28.7937 232.656,-23.3119"/>
</g>
<!-- Node8&#45;&gt;Node2 -->
<g id="edge28" class="edge"><title>Node8&#45;&gt;Node2</title>
<path fill="none" stroke="midnightblue" d="M57.3244,-56.324C66.3418,-48.3414 79.9297,-36.3128 90.8417,-26.6529"/>
<polygon fill="midnightblue" stroke="midnightblue" points="93.377,-29.083 98.5447,-19.8339 88.7371,-23.8416 93.377,-29.083"/>
</g>
<!-- Node8&#45;&gt;Node3 -->
<g id="edge30" class="edge"><title>Node8&#45;&gt;Node3</title>
<path fill="none" stroke="midnightblue" d="M73.51,-56.4435C101.22,-47.3196 145.276,-32.8133 176.139,-22.6509"/>
<polygon fill="midnightblue" stroke="midnightblue" points="177.255,-25.9684 185.659,-19.5164 175.066,-19.3196 177.255,-25.9684"/>
</g>
</g>
</svg>
