<?xml version="1.0" encoding="UTF-8" standalone="no"?>
<!DOCTYPE svg PUBLIC "-//W3C//DTD SVG 1.1//EN"
 "http://www.w3.org/Graphics/SVG/1.1/DTD/svg11.dtd">
<!-- Generated by graphviz version 2.28.0 (20110507.0327)
 -->
<!-- Title: G Pages: 1 -->
<svg width="177pt" height="84pt"
 viewBox="0.00 0.00 177.00 84.00" xmlns="http://www.w3.org/2000/svg" xmlns:xlink="http://www.w3.org/1999/xlink">
<g id="graph1" class="graph" transform="scale(1 1) rotate(0) translate(4 80)">
<title>G</title>
<polygon fill="white" stroke="white" points="-4,5 -4,-80 174,-80 174,5 -4,5"/>
<!-- Node1 -->
<g id="node1" class="node"><title>Node1</title>
<polygon fill="#bfbfbf" stroke="black" points="46.5,-56.5 46.5,-75.5 109.5,-75.5 109.5,-56.5 46.5,-56.5"/>
<text text-anchor="middle" x="78" y="-63.5" font-family="Helvetica,sans-Serif" font-size="10.00">CalcCoP.h</text>
</g>
<!-- Node2 -->
<g id="node3" class="node"><title>Node2</title>
<a xlink:href="_calc_co_p_8c.html" target="_top" xlink:title="CalcCoP.c">
<polygon fill="white" stroke="black" points="-0.5,-0.5 -0.5,-19.5 62.5,-19.5 62.5,-0.5 -0.5,-0.5"/>
<text text-anchor="middle" x="31" y="-7.5" font-family="Helvetica,sans-Serif" font-size="10.00">CalcCoP.c</text>
</a>
</g>
<!-- Node1&#45;&gt;Node2 -->
<g id="edge2" class="edge"><title>Node1&#45;&gt;Node2</title>
<path fill="none" stroke="midnightblue" d="M63.5792,-48.4314C55.3419,-38.9673 45.3461,-27.4827 38.6167,-19.7511"/>
<polygon fill="midnightblue" stroke="midnightblue" points="61.0336,-50.8378 70.2389,-56.083 66.3137,-46.2421 61.0336,-50.8378"/>
</g>
<!-- Node3 -->
<g id="node5" class="node"><title>Node3</title>
<a xlink:href="_draw_indicators_8c.html" target="_top" xlink:title="DrawIndicators.c">
<polygon fill="white" stroke="black" points="80.5,-0.5 80.5,-19.5 169.5,-19.5 169.5,-0.5 80.5,-0.5"/>
<text text-anchor="middle" x="125" y="-7.5" font-family="Helvetica,sans-Serif" font-size="10.00">DrawIndicators.c</text>
</a>
</g>
<!-- Node1&#45;&gt;Node3 -->
<g id="edge4" class="edge"><title>Node1&#45;&gt;Node3</title>
<path fill="none" stroke="midnightblue" d="M92.4208,-48.4314C100.658,-38.9673 110.654,-27.4827 117.383,-19.7511"/>
<polygon fill="midnightblue" stroke="midnightblue" points="89.6863,-46.2421 85.7611,-56.083 94.9664,-50.8378 89.6863,-46.2421"/>
</g>
</g>
</svg>
