<?xml version="1.0" encoding="UTF-8" standalone="no"?>
<!DOCTYPE svg PUBLIC "-//W3C//DTD SVG 1.1//EN"
 "http://www.w3.org/Graphics/SVG/1.1/DTD/svg11.dtd">
<!-- Generated by graphviz version 2.28.0 (20110507.0327)
 -->
<!-- Title: G Pages: 1 -->
<svg width="128pt" height="46pt"
 viewBox="0.00 0.00 128.00 46.00" xmlns="http://www.w3.org/2000/svg" xmlns:xlink="http://www.w3.org/1999/xlink">
<g id="graph1" class="graph" transform="scale(1 1) rotate(0) translate(4 42)">
<title>G</title>
<polygon fill="white" stroke="white" points="-4,5 -4,-42 125,-42 125,5 -4,5"/>
<!-- Node1 -->
<g id="node1" class="node"><title>Node1</title>
<polygon fill="#bfbfbf" stroke="black" points="0.5,-0.5 0.5,-19.5 41.5,-19.5 41.5,-0.5 0.5,-0.5"/>
<text text-anchor="middle" x="21" y="-7.5" font-family="Helvetica,sans-Serif" font-size="10.00">CalcL</text>
</g>
<!-- Node2 -->
<g id="node3" class="node"><title>Node2</title>
<a xlink:href="_calc_l_8h.html#a7c3511e6a28f9dd6d23fa407147ceeb5" target="_top" xlink:title="CalcL">
<polygon fill="white" stroke="black" points="78.5,-0.5 78.5,-19.5 119.5,-19.5 119.5,-0.5 78.5,-0.5"/>
<text text-anchor="middle" x="99" y="-7.5" font-family="Helvetica,sans-Serif" font-size="10.00">CalcL</text>
</a>
</g>
<!-- Node1&#45;&gt;Node2 -->
<g id="edge2" class="edge"><title>Node1&#45;&gt;Node2</title>
<path fill="none" stroke="midnightblue" d="M51.7035,-10C60.6991,-10 70.3468,-10 78.4944,-10"/>
<polygon fill="midnightblue" stroke="midnightblue" points="51.5719,-6.5001 41.5719,-10 51.5719,-13.5001 51.5719,-6.5001"/>
</g>
<!-- Node2&#45;&gt;Node2 -->
<g id="edge4" class="edge"><title>Node2&#45;&gt;Node2</title>
<path fill="none" stroke="midnightblue" d="M84.6358,-29.7663C85.764,-34.4965 90.5521,-38 99,-38 112.863,-38 116.871,-28.5653 111.022,-19.7571"/>
<polygon fill="midnightblue" stroke="midnightblue" points="88.1074,-30.2915 86.9779,-19.7571 81.2915,-28.6966 88.1074,-30.2915"/>
</g>
</g>
</svg>
