<?xml version="1.0" encoding="UTF-8" standalone="no"?>
<!DOCTYPE svg PUBLIC "-//W3C//DTD SVG 1.1//EN"
 "http://www.w3.org/Graphics/SVG/1.1/DTD/svg11.dtd">
<!-- Generated by graphviz version 2.28.0 (20110507.0327)
 -->
<!-- Title: G Pages: 1 -->
<svg width="206pt" height="56pt"
 viewBox="0.00 0.00 206.00 56.49" xmlns="http://www.w3.org/2000/svg" xmlns:xlink="http://www.w3.org/1999/xlink">
<g id="graph1" class="graph" transform="scale(1 1) rotate(0) translate(4 52.4857)">
<title>G</title>
<polygon fill="white" stroke="white" points="-4,5 -4,-52.4857 203,-52.4857 203,5 -4,5"/>
<!-- Node1 -->
<g id="node1" class="node"><title>Node1</title>
<polygon fill="#bfbfbf" stroke="black" points="0.5,-28.5 0.5,-47.5 41.5,-47.5 41.5,-28.5 0.5,-28.5"/>
<text text-anchor="middle" x="21" y="-35.5" font-family="Helvetica,sans-Serif" font-size="10.00">CalcL</text>
</g>
<!-- Node2 -->
<g id="node3" class="node"><title>Node2</title>
<a xlink:href="_cross_8c.html#ae694d97c46b1d90555b4e9a1809baeb3" target="_top" xlink:title="Cross">
<polygon fill="white" stroke="black" points="156,-28.5 156,-47.5 198,-47.5 198,-28.5 156,-28.5"/>
<text text-anchor="middle" x="177" y="-35.5" font-family="Helvetica,sans-Serif" font-size="10.00">Cross</text>
</a>
</g>
<!-- Node1&#45;&gt;Node2 -->
<g id="edge2" class="edge"><title>Node1&#45;&gt;Node2</title>
<path fill="none" stroke="midnightblue" d="M41.604,-41.9357C52.3094,-43.8862 65.8285,-46.0282 78,-47 96.6074,-48.4857 101.393,-48.4857 120,-47 128.42,-46.3277 137.485,-45.0954 145.817,-43.7539"/>
<polygon fill="midnightblue" stroke="midnightblue" points="146.611,-47.1691 155.876,-42.0303 145.428,-40.2696 146.611,-47.1691"/>
</g>
<!-- Node3 -->
<g id="node5" class="node"><title>Node3</title>
<a xlink:href="_calc_l_8c.html#a7c3511e6a28f9dd6d23fa407147ceeb5" target="_top" xlink:title="CalcL">
<polygon fill="white" stroke="black" points="78.5,-0.5 78.5,-19.5 119.5,-19.5 119.5,-0.5 78.5,-0.5"/>
<text text-anchor="middle" x="99" y="-7.5" font-family="Helvetica,sans-Serif" font-size="10.00">CalcL</text>
</a>
</g>
<!-- Node1&#45;&gt;Node3 -->
<g id="edge4" class="edge"><title>Node1&#45;&gt;Node3</title>
<path fill="none" stroke="midnightblue" d="M41.5719,-30.7893C49.9049,-27.7192 59.7979,-24.0745 68.9552,-20.7007"/>
<polygon fill="midnightblue" stroke="midnightblue" points="70.321,-23.9276 78.4944,-17.1863 67.901,-17.3592 70.321,-23.9276"/>
</g>
<!-- Node3&#45;&gt;Node2 -->
<g id="edge6" class="edge"><title>Node3&#45;&gt;Node2</title>
<path fill="none" stroke="midnightblue" d="M119.572,-17.2107C127.776,-20.2332 137.492,-23.8127 146.529,-27.1422"/>
<polygon fill="midnightblue" stroke="midnightblue" points="145.372,-30.4458 155.965,-30.6187 147.792,-23.8774 145.372,-30.4458"/>
</g>
<!-- Node3&#45;&gt;Node3 -->
<g id="edge8" class="edge"><title>Node3&#45;&gt;Node3</title>
<path fill="none" stroke="midnightblue" d="M86.9779,-19.7571C81.1294,-28.5653 85.1367,-38 99,-38 107.448,-38 112.236,-34.4965 113.364,-29.7663"/>
<polygon fill="midnightblue" stroke="midnightblue" points="116.708,-28.6966 111.022,-19.7571 109.893,-30.2915 116.708,-28.6966"/>
</g>
</g>
</svg>
