<?xml version="1.0" encoding="UTF-8" standalone="no"?>
<!DOCTYPE svg PUBLIC "-//W3C//DTD SVG 1.1//EN"
 "http://www.w3.org/Graphics/SVG/1.1/DTD/svg11.dtd">
<!-- Generated by graphviz version 2.28.0 (20110507.0327)
 -->
<!-- Title: G Pages: 1 -->
<svg width="132pt" height="46pt"
 viewBox="0.00 0.00 132.00 46.00" xmlns="http://www.w3.org/2000/svg" xmlns:xlink="http://www.w3.org/1999/xlink">
<g id="graph1" class="graph" transform="scale(1 1) rotate(0) translate(4 42)">
<title>G</title>
<polygon fill="white" stroke="white" points="-4,5 -4,-42 129,-42 129,5 -4,5"/>
<!-- Node1 -->
<g id="node1" class="node"><title>Node1</title>
<polygon fill="#bfbfbf" stroke="black" points="0.5,-0.5 0.5,-19.5 43.5,-19.5 43.5,-0.5 0.5,-0.5"/>
<text text-anchor="middle" x="22" y="-7.5" font-family="Helvetica,sans-Serif" font-size="10.00">CalcP</text>
</g>
<!-- Node2 -->
<g id="node3" class="node"><title>Node2</title>
<a xlink:href="_calc_p_8h.html#a7d7ed03161edcf4ded8f478f74504c43" target="_top" xlink:title="CalcP">
<polygon fill="white" stroke="black" points="80.5,-0.5 80.5,-19.5 123.5,-19.5 123.5,-0.5 80.5,-0.5"/>
<text text-anchor="middle" x="102" y="-7.5" font-family="Helvetica,sans-Serif" font-size="10.00">CalcP</text>
</a>
</g>
<!-- Node1&#45;&gt;Node2 -->
<g id="edge2" class="edge"><title>Node1&#45;&gt;Node2</title>
<path fill="none" stroke="midnightblue" d="M53.9211,-10C62.7822,-10 72.2253,-10 80.3102,-10"/>
<polygon fill="midnightblue" stroke="midnightblue" points="53.9026,-6.5001 43.9026,-10 53.9025,-13.5001 53.9026,-6.5001"/>
</g>
<!-- Node2&#45;&gt;Node2 -->
<g id="edge4" class="edge"><title>Node2&#45;&gt;Node2</title>
<path fill="none" stroke="midnightblue" d="M87.2675,-29.7663C88.4246,-34.4965 93.3354,-38 102,-38 116.219,-38 120.329,-28.5653 114.33,-19.7571"/>
<polygon fill="midnightblue" stroke="midnightblue" points="90.7393,-30.2978 89.6697,-19.7571 83.9326,-28.6641 90.7393,-30.2978"/>
</g>
</g>
</svg>
