<?xml version="1.0" encoding="UTF-8" standalone="no"?>
<!DOCTYPE svg PUBLIC "-//W3C//DTD SVG 1.1//EN"
 "http://www.w3.org/Graphics/SVG/1.1/DTD/svg11.dtd">
<!-- Generated by graphviz version 2.28.0 (20110507.0327)
 -->
<!-- Title: G Pages: 1 -->
<svg width="162pt" height="102pt"
 viewBox="0.00 0.00 162.00 102.00" xmlns="http://www.w3.org/2000/svg" xmlns:xlink="http://www.w3.org/1999/xlink">
<g id="graph1" class="graph" transform="scale(1 1) rotate(0) translate(4 98)">
<title>G</title>
<polygon fill="white" stroke="white" points="-4,5 -4,-98 159,-98 159,5 -4,5"/>
<!-- Node1 -->
<g id="node1" class="node"><title>Node1</title>
<polygon fill="#bfbfbf" stroke="black" points="0,-28.5 0,-47.5 56,-47.5 56,-28.5 0,-28.5"/>
<text text-anchor="middle" x="28" y="-35.5" font-family="Helvetica,sans-Serif" font-size="10.00">CalcCoM</text>
</g>
<!-- Node2 -->
<g id="node3" class="node"><title>Node2</title>
<a xlink:href="_total_mass_8c.html#a8b97866743257c18887a3d7adde02637" target="_top" xlink:title="TotalMass">
<polygon fill="white" stroke="black" points="92,-56.5 92,-75.5 154,-75.5 154,-56.5 92,-56.5"/>
<text text-anchor="middle" x="123" y="-63.5" font-family="Helvetica,sans-Serif" font-size="10.00">TotalMass</text>
</a>
</g>
<!-- Node1&#45;&gt;Node2 -->
<g id="edge2" class="edge"><title>Node1&#45;&gt;Node2</title>
<path fill="none" stroke="midnightblue" d="M56.4001,-46.2495C64.4973,-48.6873 73.5297,-51.4068 82.2398,-54.0292"/>
<polygon fill="midnightblue" stroke="midnightblue" points="81.2853,-57.3969 91.8698,-56.9285 83.3034,-50.6941 81.2853,-57.3969"/>
</g>
<!-- Node3 -->
<g id="node6" class="node"><title>Node3</title>
<a xlink:href="_calc_m_c_8c.html#ae1ac5dd3e92965aa232a169e6639bb37" target="_top" xlink:title="CalcMC">
<polygon fill="white" stroke="black" points="97.5,-0.5 97.5,-19.5 148.5,-19.5 148.5,-0.5 97.5,-0.5"/>
<text text-anchor="middle" x="123" y="-7.5" font-family="Helvetica,sans-Serif" font-size="10.00">CalcMC</text>
</a>
</g>
<!-- Node1&#45;&gt;Node3 -->
<g id="edge6" class="edge"><title>Node1&#45;&gt;Node3</title>
<path fill="none" stroke="midnightblue" d="M56.4001,-29.7505C66.1247,-26.8227 77.1984,-23.4887 87.4425,-20.4044"/>
<polygon fill="midnightblue" stroke="midnightblue" points="88.7631,-23.6621 97.3295,-17.4277 86.745,-16.9593 88.7631,-23.6621"/>
</g>
<!-- Node2&#45;&gt;Node2 -->
<g id="edge4" class="edge"><title>Node2&#45;&gt;Node2</title>
<path fill="none" stroke="midnightblue" d="M108.512,-75.7571C101.464,-84.5653 106.293,-94 123,-94 133.442,-94 139.244,-90.3146 140.407,-85.4"/>
<polygon fill="midnightblue" stroke="midnightblue" points="143.735,-84.3144 137.488,-75.7571 137.035,-86.3422 143.735,-84.3144"/>
</g>
<!-- Node3&#45;&gt;Node3 -->
<g id="edge8" class="edge"><title>Node3&#45;&gt;Node3</title>
<path fill="none" stroke="midnightblue" d="M108.512,-19.7571C101.464,-28.5653 106.293,-38 123,-38 133.442,-38 139.244,-34.3146 140.407,-29.4"/>
<polygon fill="midnightblue" stroke="midnightblue" points="143.735,-28.3144 137.488,-19.7571 137.035,-30.3422 143.735,-28.3144"/>
</g>
</g>
</svg>
