<?xml version="1.0" encoding="UTF-8" standalone="no"?>
<!DOCTYPE svg PUBLIC "-//W3C//DTD SVG 1.1//EN"
 "http://www.w3.org/Graphics/SVG/1.1/DTD/svg11.dtd">
<!-- Generated by graphviz version 2.28.0 (20110507.0327)
 -->
<!-- Title: G Pages: 1 -->
<svg width="297pt" height="140pt"
 viewBox="0.00 0.00 297.00 140.00" xmlns="http://www.w3.org/2000/svg" xmlns:xlink="http://www.w3.org/1999/xlink">
<g id="graph1" class="graph" transform="scale(1 1) rotate(0) translate(4 136)">
<title>G</title>
<polygon fill="white" stroke="white" points="-4,5 -4,-136 294,-136 294,5 -4,5"/>
<!-- Node1 -->
<g id="node1" class="node"><title>Node1</title>
<polygon fill="#bfbfbf" stroke="black" points="100.5,-112.5 100.5,-131.5 159.5,-131.5 159.5,-112.5 100.5,-112.5"/>
<text text-anchor="middle" x="130" y="-119.5" font-family="Helvetica,sans-Serif" font-size="10.00">CalcMC.c</text>
</g>
<!-- Node2 -->
<g id="node3" class="node"><title>Node2</title>
<polygon fill="white" stroke="#bfbfbf" points="0,-0.5 0,-19.5 84,-19.5 84,-0.5 0,-0.5"/>
<text text-anchor="middle" x="42" y="-7.5" font-family="Helvetica,sans-Serif" font-size="10.00">gsl/gsl_vector.h</text>
</g>
<!-- Node1&#45;&gt;Node2 -->
<g id="edge2" class="edge"><title>Node1&#45;&gt;Node2</title>
<path fill="none" stroke="midnightblue" d="M100.462,-118.163C73.8916,-113.869 36.3062,-103.084 18,-76 7.94283,-61.1206 17.7788,-41.489 27.7255,-27.7087"/>
<polygon fill="midnightblue" stroke="midnightblue" points="30.6602,-29.638 34.07,-19.6069 25.1489,-25.3222 30.6602,-29.638"/>
</g>
<!-- Node3 -->
<g id="node5" class="node"><title>Node3</title>
<polygon fill="white" stroke="#bfbfbf" points="102,-0.5 102,-19.5 188,-19.5 188,-0.5 102,-0.5"/>
<text text-anchor="middle" x="145" y="-7.5" font-family="Helvetica,sans-Serif" font-size="10.00">gsl/gsl_matrix.h</text>
</g>
<!-- Node1&#45;&gt;Node3 -->
<g id="edge4" class="edge"><title>Node1&#45;&gt;Node3</title>
<path fill="none" stroke="midnightblue" d="M139.288,-112.395C147.581,-104.025 159.144,-90.4826 164,-76 169.302,-60.1887 162.895,-41.9436 156.127,-28.8159"/>
<polygon fill="midnightblue" stroke="midnightblue" points="159.048,-26.8707 151.07,-19.8996 152.959,-30.3246 159.048,-26.8707"/>
</g>
<!-- Node4 -->
<g id="node7" class="node"><title>Node4</title>
<polygon fill="white" stroke="#bfbfbf" points="212.5,-56.5 212.5,-75.5 289.5,-75.5 289.5,-56.5 212.5,-56.5"/>
<text text-anchor="middle" x="251" y="-63.5" font-family="Helvetica,sans-Serif" font-size="10.00">gsl/gsl_blas.h</text>
</g>
<!-- Node1&#45;&gt;Node4 -->
<g id="edge6" class="edge"><title>Node1&#45;&gt;Node4</title>
<path fill="none" stroke="midnightblue" d="M149.173,-112.444C168.909,-103.636 199.885,-89.8116 222.493,-79.722"/>
<polygon fill="midnightblue" stroke="midnightblue" points="224.211,-82.788 231.917,-75.5164 221.359,-76.3957 224.211,-82.788"/>
</g>
<!-- Node5 -->
<g id="node9" class="node"><title>Node5</title>
<a xlink:href="u_link_8h.html" target="_top" xlink:title="Link initialisation and declarations.">
<polygon fill="white" stroke="black" points="104.5,-56.5 104.5,-75.5 155.5,-75.5 155.5,-56.5 104.5,-56.5"/>
<text text-anchor="middle" x="130" y="-63.5" font-family="Helvetica,sans-Serif" font-size="10.00">uLINK.h</text>
</a>
</g>
<!-- Node1&#45;&gt;Node5 -->
<g id="edge8" class="edge"><title>Node1&#45;&gt;Node5</title>
<path fill="none" stroke="midnightblue" d="M130,-112.083C130,-105.006 130,-94.8611 130,-85.9865"/>
<polygon fill="midnightblue" stroke="midnightblue" points="133.5,-85.751 130,-75.7511 126.5,-85.7511 133.5,-85.751"/>
</g>
<!-- Node6 -->
<g id="node13" class="node"><title>Node6</title>
<a xlink:href="_calc_m_c_8h.html" target="_top" xlink:title="CalcMC.h">
<polygon fill="white" stroke="black" points="27.5,-56.5 27.5,-75.5 86.5,-75.5 86.5,-56.5 27.5,-56.5"/>
<text text-anchor="middle" x="57" y="-63.5" font-family="Helvetica,sans-Serif" font-size="10.00">CalcMC.h</text>
</a>
</g>
<!-- Node1&#45;&gt;Node6 -->
<g id="edge14" class="edge"><title>Node1&#45;&gt;Node6</title>
<path fill="none" stroke="midnightblue" d="M118.271,-112.324C107.163,-104.107 90.2578,-91.6017 77.0167,-81.8069"/>
<polygon fill="midnightblue" stroke="midnightblue" points="79.0631,-78.9671 68.9421,-75.8339 74.9001,-84.5948 79.0631,-78.9671"/>
</g>
<!-- Node5&#45;&gt;Node2 -->
<g id="edge10" class="edge"><title>Node5&#45;&gt;Node2</title>
<path fill="none" stroke="midnightblue" d="M115.861,-56.324C102.134,-47.9002 81.0637,-34.9709 64.9357,-25.0741"/>
<polygon fill="midnightblue" stroke="midnightblue" points="66.4574,-21.9016 56.1036,-19.6545 62.7963,-27.8678 66.4574,-21.9016"/>
</g>
<!-- Node5&#45;&gt;Node3 -->
<g id="edge12" class="edge"><title>Node5&#45;&gt;Node3</title>
<path fill="none" stroke="midnightblue" d="M132.477,-56.083C134.486,-48.8486 137.386,-38.4087 139.89,-29.3968"/>
<polygon fill="midnightblue" stroke="midnightblue" points="143.265,-30.323 142.569,-19.7511 136.52,-28.4495 143.265,-30.323"/>
</g>
<!-- Node6&#45;&gt;Node2 -->
<g id="edge16" class="edge"><title>Node6&#45;&gt;Node2</title>
<path fill="none" stroke="midnightblue" d="M54.5231,-56.083C52.5135,-48.8486 49.6135,-38.4087 47.1102,-29.3968"/>
<polygon fill="midnightblue" stroke="midnightblue" points="50.4797,-28.4495 44.4309,-19.7511 43.7351,-30.323 50.4797,-28.4495"/>
</g>
<!-- Node6&#45;&gt;Node3 -->
<g id="edge18" class="edge"><title>Node6&#45;&gt;Node3</title>
<path fill="none" stroke="midnightblue" d="M71.1387,-56.324C84.8663,-47.9002 105.936,-34.9709 122.064,-25.0741"/>
<polygon fill="midnightblue" stroke="midnightblue" points="124.204,-27.8678 130.896,-19.6545 120.543,-21.9016 124.204,-27.8678"/>
</g>
</g>
</svg>
