<?xml version="1.0" encoding="UTF-8" standalone="no"?>
<!DOCTYPE svg PUBLIC "-//W3C//DTD SVG 1.1//EN"
 "http://www.w3.org/Graphics/SVG/1.1/DTD/svg11.dtd">
<!-- Generated by graphviz version 2.28.0 (20110507.0327)
 -->
<!-- Title: G Pages: 1 -->
<svg width="148pt" height="46pt"
 viewBox="0.00 0.00 148.00 46.00" xmlns="http://www.w3.org/2000/svg" xmlns:xlink="http://www.w3.org/1999/xlink">
<g id="graph1" class="graph" transform="scale(1 1) rotate(0) translate(4 42)">
<title>G</title>
<polygon fill="white" stroke="white" points="-4,5 -4,-42 145,-42 145,5 -4,5"/>
<!-- Node1 -->
<g id="node1" class="node"><title>Node1</title>
<polygon fill="#bfbfbf" stroke="black" points="0.5,-0.5 0.5,-19.5 51.5,-19.5 51.5,-0.5 0.5,-0.5"/>
<text text-anchor="middle" x="26" y="-7.5" font-family="Helvetica,sans-Serif" font-size="10.00">CalcMC</text>
</g>
<!-- Node2 -->
<g id="node3" class="node"><title>Node2</title>
<a xlink:href="_calc_m_c_8c.html#ae1ac5dd3e92965aa232a169e6639bb37" target="_top" xlink:title="CalcMC">
<polygon fill="white" stroke="black" points="88.5,-0.5 88.5,-19.5 139.5,-19.5 139.5,-0.5 88.5,-0.5"/>
<text text-anchor="middle" x="114" y="-7.5" font-family="Helvetica,sans-Serif" font-size="10.00">CalcMC</text>
</a>
</g>
<!-- Node1&#45;&gt;Node2 -->
<g id="edge2" class="edge"><title>Node1&#45;&gt;Node2</title>
<path fill="none" stroke="midnightblue" d="M51.8748,-10C60.1468,-10 69.5143,-10 78.3862,-10"/>
<polygon fill="midnightblue" stroke="midnightblue" points="78.4782,-13.5001 88.4781,-10 78.4781,-6.5001 78.4782,-13.5001"/>
</g>
<!-- Node2&#45;&gt;Node2 -->
<g id="edge4" class="edge"><title>Node2&#45;&gt;Node2</title>
<path fill="none" stroke="midnightblue" d="M100.437,-19.7571C93.8383,-28.5653 98.3594,-38 114,-38 123.775,-38 129.207,-34.3146 130.295,-29.4"/>
<polygon fill="midnightblue" stroke="midnightblue" points="133.657,-28.4242 127.563,-19.7571 126.922,-30.3325 133.657,-28.4242"/>
</g>
</g>
</svg>
