<?xml version="1.0" encoding="UTF-8" standalone="no"?>
<!DOCTYPE svg PUBLIC "-//W3C//DTD SVG 1.1//EN"
 "http://www.w3.org/Graphics/SVG/1.1/DTD/svg11.dtd">
<!-- Generated by graphviz version 2.28.0 (20110507.0327)
 -->
<!-- Title: G Pages: 1 -->
<svg width="343pt" height="140pt"
 viewBox="0.00 0.00 343.23 140.00" xmlns="http://www.w3.org/2000/svg" xmlns:xlink="http://www.w3.org/1999/xlink">
<g id="graph1" class="graph" transform="scale(1 1) rotate(0) translate(4 136)">
<title>G</title>
<polygon fill="white" stroke="white" points="-4,5 -4,-136 340.23,-136 340.23,5 -4,5"/>
<!-- Node1 -->
<g id="node1" class="node"><title>Node1</title>
<polygon fill="#bfbfbf" stroke="black" points="116.73,-112.5 116.73,-131.5 167.73,-131.5 167.73,-112.5 116.73,-112.5"/>
<text text-anchor="middle" x="142.23" y="-119.5" font-family="Helvetica,sans-Serif" font-size="10.00">CalcP.c</text>
</g>
<!-- Node2 -->
<g id="node3" class="node"><title>Node2</title>
<polygon fill="white" stroke="#bfbfbf" points="6.23017,-0.5 6.23017,-19.5 90.2302,-19.5 90.2302,-0.5 6.23017,-0.5"/>
<text text-anchor="middle" x="48.2302" y="-7.5" font-family="Helvetica,sans-Serif" font-size="10.00">gsl/gsl_vector.h</text>
</g>
<!-- Node1&#45;&gt;Node2 -->
<g id="edge2" class="edge"><title>Node1&#45;&gt;Node2</title>
<path fill="none" stroke="midnightblue" d="M116.473,-121.017C84.1687,-119.477 29.9106,-111.385 4.23017,-76 -8.03843,-59.095 10.1591,-39.1309 26.7376,-25.8316"/>
<polygon fill="midnightblue" stroke="midnightblue" points="29.2109,-28.3502 35.0896,-19.5359 24.9973,-22.7604 29.2109,-28.3502"/>
</g>
<!-- Node3 -->
<g id="node5" class="node"><title>Node3</title>
<polygon fill="white" stroke="#bfbfbf" points="125.23,-0.5 125.23,-19.5 211.23,-19.5 211.23,-0.5 125.23,-0.5"/>
<text text-anchor="middle" x="168.23" y="-7.5" font-family="Helvetica,sans-Serif" font-size="10.00">gsl/gsl_matrix.h</text>
</g>
<!-- Node1&#45;&gt;Node3 -->
<g id="edge4" class="edge"><title>Node1&#45;&gt;Node3</title>
<path fill="none" stroke="midnightblue" d="M166.019,-112.499C181.952,-105.413 201.693,-93.6052 211.23,-76 220.909,-58.132 204.432,-38.8574 189.157,-25.9765"/>
<polygon fill="midnightblue" stroke="midnightblue" points="190.99,-22.9651 180.968,-19.5278 186.659,-28.4645 190.99,-22.9651"/>
</g>
<!-- Node4 -->
<g id="node7" class="node"><title>Node4</title>
<polygon fill="white" stroke="#bfbfbf" points="258.73,-56.5 258.73,-75.5 335.73,-75.5 335.73,-56.5 258.73,-56.5"/>
<text text-anchor="middle" x="297.23" y="-63.5" font-family="Helvetica,sans-Serif" font-size="10.00">gsl/gsl_blas.h</text>
</g>
<!-- Node1&#45;&gt;Node4 -->
<g id="edge6" class="edge"><title>Node1&#45;&gt;Node4</title>
<path fill="none" stroke="midnightblue" d="M166.79,-112.444C192.753,-103.399 233.898,-89.064 263.027,-78.9158"/>
<polygon fill="midnightblue" stroke="midnightblue" points="264.493,-82.1116 272.785,-75.5164 262.19,-75.5013 264.493,-82.1116"/>
</g>
<!-- Node5 -->
<g id="node9" class="node"><title>Node5</title>
<a xlink:href="u_link_8h.html" target="_top" xlink:title="Link initialisation and declarations.">
<polygon fill="white" stroke="black" points="13.7302,-56.5 13.7302,-75.5 64.7302,-75.5 64.7302,-56.5 13.7302,-56.5"/>
<text text-anchor="middle" x="39.2302" y="-63.5" font-family="Helvetica,sans-Serif" font-size="10.00">uLINK.h</text>
</a>
</g>
<!-- Node1&#45;&gt;Node5 -->
<g id="edge8" class="edge"><title>Node1&#45;&gt;Node5</title>
<path fill="none" stroke="midnightblue" d="M125.681,-112.324C109.239,-103.703 83.7954,-90.3643 64.7618,-80.3855"/>
<polygon fill="midnightblue" stroke="midnightblue" points="66.2196,-77.198 55.7378,-75.6545 62.9693,-83.3977 66.2196,-77.198"/>
</g>
<!-- Node6 -->
<g id="node13" class="node"><title>Node6</title>
<a xlink:href="_calc_p_8h.html" target="_top" xlink:title="CalcP.h">
<polygon fill="white" stroke="black" points="82.7302,-56.5 82.7302,-75.5 133.73,-75.5 133.73,-56.5 82.7302,-56.5"/>
<text text-anchor="middle" x="108.23" y="-63.5" font-family="Helvetica,sans-Serif" font-size="10.00">CalcP.h</text>
</a>
</g>
<!-- Node1&#45;&gt;Node6 -->
<g id="edge14" class="edge"><title>Node1&#45;&gt;Node6</title>
<path fill="none" stroke="midnightblue" d="M136.616,-112.083C131.863,-104.534 124.912,-93.4948 119.079,-84.2298"/>
<polygon fill="midnightblue" stroke="midnightblue" points="122.03,-82.3486 113.74,-75.7511 116.106,-86.0783 122.03,-82.3486"/>
</g>
<!-- Node7 -->
<g id="node17" class="node"><title>Node7</title>
<a xlink:href="_cross_8h.html" target="_top" xlink:title="Cross.h">
<polygon fill="white" stroke="black" points="152.23,-56.5 152.23,-75.5 202.23,-75.5 202.23,-56.5 152.23,-56.5"/>
<text text-anchor="middle" x="177.23" y="-63.5" font-family="Helvetica,sans-Serif" font-size="10.00">Cross.h</text>
</a>
</g>
<!-- Node1&#45;&gt;Node7 -->
<g id="edge20" class="edge"><title>Node1&#45;&gt;Node7</title>
<path fill="none" stroke="midnightblue" d="M148.01,-112.083C152.903,-104.534 160.058,-93.4948 166.063,-84.2298"/>
<polygon fill="midnightblue" stroke="midnightblue" points="169.056,-86.0463 171.558,-75.7511 163.182,-82.239 169.056,-86.0463"/>
</g>
<!-- Node5&#45;&gt;Node2 -->
<g id="edge10" class="edge"><title>Node5&#45;&gt;Node2</title>
<path fill="none" stroke="midnightblue" d="M40.7163,-56.083C41.909,-48.9272 43.6243,-38.6353 45.115,-29.6911"/>
<polygon fill="midnightblue" stroke="midnightblue" points="48.58,-30.1904 46.7717,-19.7511 41.6752,-29.0396 48.58,-30.1904"/>
</g>
<!-- Node5&#45;&gt;Node3 -->
<g id="edge12" class="edge"><title>Node5&#45;&gt;Node3</title>
<path fill="none" stroke="midnightblue" d="M59.6706,-56.4435C80.9005,-47.5566 114.329,-33.5632 138.485,-23.4514"/>
<polygon fill="midnightblue" stroke="midnightblue" points="140.012,-26.6064 147.885,-19.5164 137.309,-20.1493 140.012,-26.6064"/>
</g>
<!-- Node6&#45;&gt;Node2 -->
<g id="edge16" class="edge"><title>Node6&#45;&gt;Node2</title>
<path fill="none" stroke="midnightblue" d="M98.5901,-56.324C89.7206,-48.3414 76.3555,-36.3128 65.6223,-26.6529"/>
<polygon fill="midnightblue" stroke="midnightblue" points="67.82,-23.922 58.0456,-19.8339 63.1372,-29.1251 67.82,-23.922"/>
</g>
<!-- Node6&#45;&gt;Node3 -->
<g id="edge18" class="edge"><title>Node6&#45;&gt;Node3</title>
<path fill="none" stroke="midnightblue" d="M117.87,-56.324C126.74,-48.3414 140.105,-36.3128 150.838,-26.6529"/>
<polygon fill="midnightblue" stroke="midnightblue" points="153.323,-29.1251 158.415,-19.8339 148.64,-23.922 153.323,-29.1251"/>
</g>
<!-- Node7&#45;&gt;Node2 -->
<g id="edge22" class="edge"><title>Node7&#45;&gt;Node2</title>
<path fill="none" stroke="midnightblue" d="M156.79,-56.4435C135.56,-47.5566 102.131,-33.5632 77.9752,-23.4514"/>
<polygon fill="midnightblue" stroke="midnightblue" points="79.1509,-20.1493 68.575,-19.5164 76.4479,-26.6064 79.1509,-20.1493"/>
</g>
<!-- Node7&#45;&gt;Node3 -->
<g id="edge24" class="edge"><title>Node7&#45;&gt;Node3</title>
<path fill="none" stroke="midnightblue" d="M175.744,-56.083C174.551,-48.9272 172.836,-38.6353 171.345,-29.6911"/>
<polygon fill="midnightblue" stroke="midnightblue" points="174.785,-29.0396 169.689,-19.7511 167.88,-30.1904 174.785,-29.0396"/>
</g>
</g>
</svg>
