<?xml version="1.0" encoding="UTF-8" standalone="no"?>
<!DOCTYPE svg PUBLIC "-//W3C//DTD SVG 1.1//EN"
 "http://www.w3.org/Graphics/SVG/1.1/DTD/svg11.dtd">
<!-- Generated by graphviz version 2.28.0 (20110507.0327)
 -->
<!-- Title: G Pages: 1 -->
<svg width="298pt" height="140pt"
 viewBox="0.00 0.00 298.00 140.00" xmlns="http://www.w3.org/2000/svg" xmlns:xlink="http://www.w3.org/1999/xlink">
<g id="graph1" class="graph" transform="scale(1 1) rotate(0) translate(4 136)">
<title>G</title>
<polygon fill="white" stroke="white" points="-4,5 -4,-136 295,-136 295,5 -4,5"/>
<!-- Node1 -->
<g id="node1" class="node"><title>Node1</title>
<polygon fill="#bfbfbf" stroke="black" points="99.5,-112.5 99.5,-131.5 162.5,-131.5 162.5,-112.5 99.5,-112.5"/>
<text text-anchor="middle" x="131" y="-119.5" font-family="Helvetica,sans-Serif" font-size="10.00">CalcCoP.c</text>
</g>
<!-- Node2 -->
<g id="node3" class="node"><title>Node2</title>
<polygon fill="white" stroke="#bfbfbf" points="0,-0.5 0,-19.5 84,-19.5 84,-0.5 0,-0.5"/>
<text text-anchor="middle" x="42" y="-7.5" font-family="Helvetica,sans-Serif" font-size="10.00">gsl/gsl_vector.h</text>
</g>
<!-- Node1&#45;&gt;Node2 -->
<g id="edge2" class="edge"><title>Node1&#45;&gt;Node2</title>
<path fill="none" stroke="midnightblue" d="M99.3793,-118.334C71.9538,-114.158 33.7934,-103.449 15,-76 4.59528,-60.8035 15.8008,-40.9704 26.7772,-27.2276"/>
<polygon fill="midnightblue" stroke="midnightblue" points="29.5125,-29.4149 33.3867,-19.5538 24.2086,-24.8466 29.5125,-29.4149"/>
</g>
<!-- Node3 -->
<g id="node5" class="node"><title>Node3</title>
<polygon fill="white" stroke="#bfbfbf" points="102,-0.5 102,-19.5 188,-19.5 188,-0.5 102,-0.5"/>
<text text-anchor="middle" x="145" y="-7.5" font-family="Helvetica,sans-Serif" font-size="10.00">gsl/gsl_matrix.h</text>
</g>
<!-- Node1&#45;&gt;Node3 -->
<g id="edge4" class="edge"><title>Node1&#45;&gt;Node3</title>
<path fill="none" stroke="midnightblue" d="M140.288,-112.395C148.581,-104.025 160.144,-90.4826 165,-76 170.324,-60.1216 163.608,-41.8838 156.56,-28.7759"/>
<polygon fill="midnightblue" stroke="midnightblue" points="159.401,-26.7037 151.299,-19.8762 153.375,-30.2657 159.401,-26.7037"/>
</g>
<!-- Node4 -->
<g id="node7" class="node"><title>Node4</title>
<polygon fill="white" stroke="#bfbfbf" points="213.5,-56.5 213.5,-75.5 290.5,-75.5 290.5,-56.5 213.5,-56.5"/>
<text text-anchor="middle" x="252" y="-63.5" font-family="Helvetica,sans-Serif" font-size="10.00">gsl/gsl_blas.h</text>
</g>
<!-- Node1&#45;&gt;Node4 -->
<g id="edge6" class="edge"><title>Node1&#45;&gt;Node4</title>
<path fill="none" stroke="midnightblue" d="M150.173,-112.444C169.909,-103.636 200.885,-89.8116 223.493,-79.722"/>
<polygon fill="midnightblue" stroke="midnightblue" points="225.211,-82.788 232.917,-75.5164 222.359,-76.3957 225.211,-82.788"/>
</g>
<!-- Node5 -->
<g id="node9" class="node"><title>Node5</title>
<a xlink:href="u_link_8h.html" target="_top" xlink:title="Link initialisation and declarations.">
<polygon fill="white" stroke="black" points="105.5,-56.5 105.5,-75.5 156.5,-75.5 156.5,-56.5 105.5,-56.5"/>
<text text-anchor="middle" x="131" y="-63.5" font-family="Helvetica,sans-Serif" font-size="10.00">uLINK.h</text>
</a>
</g>
<!-- Node1&#45;&gt;Node5 -->
<g id="edge8" class="edge"><title>Node1&#45;&gt;Node5</title>
<path fill="none" stroke="midnightblue" d="M131,-112.083C131,-105.006 131,-94.8611 131,-85.9865"/>
<polygon fill="midnightblue" stroke="midnightblue" points="134.5,-85.751 131,-75.7511 127.5,-85.7511 134.5,-85.751"/>
</g>
<!-- Node6 -->
<g id="node13" class="node"><title>Node6</title>
<a xlink:href="_calc_co_p_8h.html" target="_top" xlink:title="CalcCoP.h">
<polygon fill="white" stroke="black" points="24.5,-56.5 24.5,-75.5 87.5,-75.5 87.5,-56.5 24.5,-56.5"/>
<text text-anchor="middle" x="56" y="-63.5" font-family="Helvetica,sans-Serif" font-size="10.00">CalcCoP.h</text>
</a>
</g>
<!-- Node1&#45;&gt;Node6 -->
<g id="edge14" class="edge"><title>Node1&#45;&gt;Node6</title>
<path fill="none" stroke="midnightblue" d="M118.95,-112.324C107.537,-104.107 90.169,-91.6017 76.5651,-81.8069"/>
<polygon fill="midnightblue" stroke="midnightblue" points="78.4297,-78.8366 68.2693,-75.8339 74.3396,-84.5174 78.4297,-78.8366"/>
</g>
<!-- Node5&#45;&gt;Node2 -->
<g id="edge10" class="edge"><title>Node5&#45;&gt;Node2</title>
<path fill="none" stroke="midnightblue" d="M116.701,-56.324C102.817,-47.9002 81.5076,-34.9709 65.1963,-25.0741"/>
<polygon fill="midnightblue" stroke="midnightblue" points="66.6289,-21.8495 56.2639,-19.6545 62.9978,-27.8341 66.6289,-21.8495"/>
</g>
<!-- Node5&#45;&gt;Node3 -->
<g id="edge12" class="edge"><title>Node5&#45;&gt;Node3</title>
<path fill="none" stroke="midnightblue" d="M133.312,-56.083C135.167,-48.9272 137.835,-38.6353 140.154,-29.6911"/>
<polygon fill="midnightblue" stroke="midnightblue" points="143.609,-30.3094 142.731,-19.7511 136.834,-28.5527 143.609,-30.3094"/>
</g>
<!-- Node6&#45;&gt;Node2 -->
<g id="edge16" class="edge"><title>Node6&#45;&gt;Node2</title>
<path fill="none" stroke="midnightblue" d="M53.6882,-56.083C51.833,-48.9272 49.1647,-38.6353 46.8458,-29.6911"/>
<polygon fill="midnightblue" stroke="midnightblue" points="50.1665,-28.5527 44.2688,-19.7511 43.3905,-30.3094 50.1665,-28.5527"/>
</g>
<!-- Node6&#45;&gt;Node3 -->
<g id="edge18" class="edge"><title>Node6&#45;&gt;Node3</title>
<path fill="none" stroke="midnightblue" d="M70.2994,-56.324C84.1829,-47.9002 105.492,-34.9709 121.804,-25.0741"/>
<polygon fill="midnightblue" stroke="midnightblue" points="124.002,-27.8341 130.736,-19.6545 120.371,-21.8495 124.002,-27.8341"/>
</g>
</g>
</svg>
