<?xml version="1.0" encoding="UTF-8" standalone="no"?>
<!DOCTYPE svg PUBLIC "-//W3C//DTD SVG 1.1//EN"
 "http://www.w3.org/Graphics/SVG/1.1/DTD/svg11.dtd">
<!-- Generated by graphviz version 2.28.0 (20110507.0327)
 -->
<!-- Title: G Pages: 1 -->
<svg width="260pt" height="46pt"
 viewBox="0.00 0.00 260.00 46.00" xmlns="http://www.w3.org/2000/svg" xmlns:xlink="http://www.w3.org/1999/xlink">
<g id="graph1" class="graph" transform="scale(1 1) rotate(0) translate(4 42)">
<title>G</title>
<polygon fill="white" stroke="white" points="-4,5 -4,-42 257,-42 257,5 -4,5"/>
<!-- Node1 -->
<g id="node1" class="node"><title>Node1</title>
<polygon fill="#bfbfbf" stroke="black" points="0.5,-0.5 0.5,-19.5 65.5,-19.5 65.5,-0.5 0.5,-0.5"/>
<text text-anchor="middle" x="33" y="-7.5" font-family="Helvetica,sans-Serif" font-size="10.00">Connect3D</text>
</g>
<!-- Node2 -->
<g id="node3" class="node"><title>Node2</title>
<a xlink:href="_draw_all_joints_8h.html#ac2cdd09ad3d4b4006066ed8d55fb9c87" target="_top" xlink:title="DrawAllJoints">
<polygon fill="white" stroke="black" points="102.5,-0.5 102.5,-19.5 177.5,-19.5 177.5,-0.5 102.5,-0.5"/>
<text text-anchor="middle" x="140" y="-7.5" font-family="Helvetica,sans-Serif" font-size="10.00">DrawAllJoints</text>
</a>
</g>
<!-- Node1&#45;&gt;Node2 -->
<g id="edge2" class="edge"><title>Node1&#45;&gt;Node2</title>
<path fill="none" stroke="midnightblue" d="M75.6142,-10C84.4497,-10 93.7153,-10 102.35,-10"/>
<polygon fill="midnightblue" stroke="midnightblue" points="75.5035,-6.5001 65.5035,-10 75.5034,-13.5001 75.5035,-6.5001"/>
</g>
<!-- Node2&#45;&gt;Node2 -->
<g id="edge4" class="edge"><title>Node2&#45;&gt;Node2</title>
<path fill="none" stroke="midnightblue" d="M122.964,-29.4C124.102,-34.3146 129.78,-38 140,-38 156.352,-38 161.078,-28.5653 154.18,-19.7571"/>
<polygon fill="midnightblue" stroke="midnightblue" points="126.336,-30.3393 125.82,-19.7571 119.624,-28.3512 126.336,-30.3393"/>
</g>
<!-- Node3 -->
<g id="node6" class="node"><title>Node3</title>
<a xlink:href="main_8c.html#a0ddf1224851353fc92bfbff6f499fa97" target="_top" xlink:title="main">
<polygon fill="white" stroke="black" points="214,-0.5 214,-19.5 252,-19.5 252,-0.5 214,-0.5"/>
<text text-anchor="middle" x="233" y="-7.5" font-family="Helvetica,sans-Serif" font-size="10.00">main</text>
</a>
</g>
<!-- Node2&#45;&gt;Node3 -->
<g id="edge6" class="edge"><title>Node2&#45;&gt;Node3</title>
<path fill="none" stroke="midnightblue" d="M187.775,-10C197.055,-10 206.264,-10 213.856,-10"/>
<polygon fill="midnightblue" stroke="midnightblue" points="187.751,-6.5001 177.751,-10 187.751,-13.5001 187.751,-6.5001"/>
</g>
</g>
</svg>
