<?xml version="1.0" encoding="UTF-8" standalone="no"?>
<!DOCTYPE svg PUBLIC "-//W3C//DTD SVG 1.1//EN"
 "http://www.w3.org/Graphics/SVG/1.1/DTD/svg11.dtd">
<!-- Generated by graphviz version 2.28.0 (20110507.0327)
 -->
<!-- Title: G Pages: 1 -->
<!--zoomable-->
<svg id="main" version="1.1" xmlns="http://www.w3.org/2000/svg" xmlns:xlink="http://www.w3.org/1999/xlink" xml:space="preserve" onload="init(evt)">
        <defs>
                <circle id="rim" cx="0" cy="0" r="7"/>
                <circle id="rim2" cx="0" cy="0" r="3.5"/>
                <g id="zoomPlus">
                        <use xlink:href="#rim" fill="#404040">
                                <set attributeName="fill" to="#808080" begin="zoomplus.mouseover" end="zoomplus.mouseout"/>
                        </use>
                        <path d="M-4,0h8M0,-4v8" fill="none" stroke="white" stroke-width="1.5" pointer-events="none"/>
                </g>
                <g id="zoomMin">
                        <use xlink:href="#rim" fill="#404040">
                                <set attributeName="fill" to="#808080" begin="zoomminus.mouseover" end="zoomminus.mouseout"/>
                        </use>
                        <path d="M-4,0h8" fill="none" stroke="white" stroke-width="1.5" pointer-events="none"/>
                </g>
                <g id="dirArrow">
                        <path fill="none" stroke="white" stroke-width="1.5" d="M0,-3.0v7 M-2.5,-0.5L0,-3.0L2.5,-0.5"/>
                </g>
               <g id="resetDef">
                       <use xlink:href="#rim2" fill="#404040">
                               <set attributeName="fill" to="#808080" begin="reset.mouseover" end="reset.mouseout"/>
                       </use>
               </g>
        </defs>

<script type="text/javascript">
var viewWidth = 636;
var viewHeight = 140;
var sectionId = 'dynsection-0';
</script>
<script xlink:href="svgpan.js"/>
<svg id="graph" class="graph">
<g id="viewport">
<title>G</title>
<polygon fill="white" stroke="white" points="-4,5 -4,-136 633,-136 633,5 -4,5"/>
<!-- Node1 -->
<g id="node1" class="node"><title>Node1</title>
<polygon fill="#bfbfbf" stroke="black" points="218.5,-112.5 218.5,-131.5 291.5,-131.5 291.5,-112.5 218.5,-112.5"/>
<text text-anchor="middle" x="255" y="-119.5" font-family="Helvetica,sans-Serif" font-size="10.00">Connect3D.c</text>
</g>
<!-- Node2 -->
<g id="node3" class="node"><title>Node2</title>
<polygon fill="white" stroke="#bfbfbf" points="0,-0.5 0,-19.5 84,-19.5 84,-0.5 0,-0.5"/>
<text text-anchor="middle" x="42" y="-7.5" font-family="Helvetica,sans-Serif" font-size="10.00">gsl/gsl_vector.h</text>
</g>
<!-- Node1&#45;&gt;Node2 -->
<g id="edge2" class="edge"><title>Node1&#45;&gt;Node2</title>
<path fill="none" stroke="midnightblue" d="M218.028,-119.844C155.796,-117.033 34.3172,-107.545 8,-76 -4.52819,-60.9831 10.2078,-40.5935 24.0069,-26.6803"/>
<polygon fill="midnightblue" stroke="midnightblue" points="26.5359,-29.1059 31.3976,-19.6923 21.7267,-24.0195 26.5359,-29.1059"/>
</g>
<!-- Node3 -->
<g id="node5" class="node"><title>Node3</title>
<polygon fill="white" stroke="#bfbfbf" points="102,-0.5 102,-19.5 188,-19.5 188,-0.5 102,-0.5"/>
<text text-anchor="middle" x="145" y="-7.5" font-family="Helvetica,sans-Serif" font-size="10.00">gsl/gsl_matrix.h</text>
</g>
<!-- Node1&#45;&gt;Node3 -->
<g id="edge4" class="edge"><title>Node1&#45;&gt;Node3</title>
<path fill="none" stroke="midnightblue" d="M245.893,-112.472C236.353,-103.494 220.98,-88.901 208,-76 191.385,-59.4862 172.759,-40.1656 160.097,-26.9059"/>
<polygon fill="midnightblue" stroke="midnightblue" points="162.487,-24.3398 153.056,-19.5123 157.418,-29.1674 162.487,-24.3398"/>
</g>
<!-- Node4 -->
<g id="node7" class="node"><title>Node4</title>
<polygon fill="white" stroke="#bfbfbf" points="216.5,-56.5 216.5,-75.5 293.5,-75.5 293.5,-56.5 216.5,-56.5"/>
<text text-anchor="middle" x="255" y="-63.5" font-family="Helvetica,sans-Serif" font-size="10.00">gsl/gsl_blas.h</text>
</g>
<!-- Node1&#45;&gt;Node4 -->
<g id="edge6" class="edge"><title>Node1&#45;&gt;Node4</title>
<path fill="none" stroke="midnightblue" d="M255,-112.083C255,-105.006 255,-94.8611 255,-85.9865"/>
<polygon fill="midnightblue" stroke="midnightblue" points="258.5,-85.751 255,-75.7511 251.5,-85.7511 258.5,-85.751"/>
</g>
<!-- Node5 -->
<g id="node9" class="node"><title>Node5</title>
<polygon fill="white" stroke="#bfbfbf" points="311.5,-56.5 311.5,-75.5 392.5,-75.5 392.5,-56.5 311.5,-56.5"/>
<text text-anchor="middle" x="352" y="-63.5" font-family="Helvetica,sans-Serif" font-size="10.00">gsl/gsl_linalg.h</text>
</g>
<!-- Node1&#45;&gt;Node5 -->
<g id="edge8" class="edge"><title>Node1&#45;&gt;Node5</title>
<path fill="none" stroke="midnightblue" d="M270.585,-112.324C285.999,-103.743 309.812,-90.486 327.71,-80.5224"/>
<polygon fill="midnightblue" stroke="midnightblue" points="329.419,-83.5767 336.454,-75.6545 326.014,-77.4606 329.419,-83.5767"/>
</g>
<!-- Node6 -->
<g id="node11" class="node"><title>Node6</title>
<polygon fill="white" stroke="#bfbfbf" points="411,-56.5 411,-75.5 491,-75.5 491,-56.5 411,-56.5"/>
<text text-anchor="middle" x="451" y="-63.5" font-family="Helvetica,sans-Serif" font-size="10.00">gsl/gsl_math.h</text>
</g>
<!-- Node1&#45;&gt;Node6 -->
<g id="edge10" class="edge"><title>Node1&#45;&gt;Node6</title>
<path fill="none" stroke="midnightblue" d="M286.057,-112.444C319.603,-103.201 373.197,-88.4356 410.141,-78.2572"/>
<polygon fill="midnightblue" stroke="midnightblue" points="411.377,-81.5469 420.089,-75.5164 409.518,-74.7984 411.377,-81.5469"/>
</g>
<!-- Node7 -->
<g id="node13" class="node"><title>Node7</title>
<a xlink:href="u_link_8h.html" target="_top" xlink:title="Link initialisation and declarations.">
<polygon fill="white" stroke="black" points="108.5,-56.5 108.5,-75.5 159.5,-75.5 159.5,-56.5 108.5,-56.5"/>
<text text-anchor="middle" x="134" y="-63.5" font-family="Helvetica,sans-Serif" font-size="10.00">uLINK.h</text>
</a>
</g>
<!-- Node1&#45;&gt;Node7 -->
<g id="edge12" class="edge"><title>Node1&#45;&gt;Node7</title>
<path fill="none" stroke="midnightblue" d="M235.827,-112.444C216.091,-103.636 185.115,-89.8116 162.507,-79.722"/>
<polygon fill="midnightblue" stroke="midnightblue" points="163.641,-76.3957 153.083,-75.5164 160.789,-82.788 163.641,-76.3957"/>
</g>
<!-- Node8 -->
<g id="node17" class="node"><title>Node8</title>
<a xlink:href="_connect3_d_8h.html" target="_top" xlink:title="Connect3D.h">
<polygon fill="white" stroke="black" points="17.5,-56.5 17.5,-75.5 90.5,-75.5 90.5,-56.5 17.5,-56.5"/>
<text text-anchor="middle" x="54" y="-63.5" font-family="Helvetica,sans-Serif" font-size="10.00">Connect3D.h</text>
</a>
</g>
<!-- Node1&#45;&gt;Node8 -->
<g id="edge18" class="edge"><title>Node1&#45;&gt;Node8</title>
<path fill="none" stroke="midnightblue" d="M223.151,-112.444C188.602,-103.162 133.318,-88.3093 95.417,-78.127"/>
<polygon fill="midnightblue" stroke="midnightblue" points="96.2657,-74.7309 85.7,-75.5164 94.4495,-81.4912 96.2657,-74.7309"/>
</g>
<!-- Node9 -->
<g id="node21" class="node"><title>Node9</title>
<polygon fill="white" stroke="#bfbfbf" points="509,-56.5 509,-75.5 557,-75.5 557,-56.5 509,-56.5"/>
<text text-anchor="middle" x="533" y="-63.5" font-family="Helvetica,sans-Serif" font-size="10.00">GL/gl.h</text>
</g>
<!-- Node1&#45;&gt;Node9 -->
<g id="edge24" class="edge"><title>Node1&#45;&gt;Node9</title>
<path fill="none" stroke="midnightblue" d="M291.725,-115.251C337.841,-107.813 419.574,-93.9123 498.765,-76.1264"/>
<polygon fill="midnightblue" stroke="midnightblue" points="499.932,-79.4506 508.909,-73.8232 498.382,-72.6243 499.932,-79.4506"/>
</g>
<!-- Node10 -->
<g id="node23" class="node"><title>Node10</title>
<polygon fill="white" stroke="#bfbfbf" points="575.5,-56.5 575.5,-75.5 628.5,-75.5 628.5,-56.5 575.5,-56.5"/>
<text text-anchor="middle" x="602" y="-63.5" font-family="Helvetica,sans-Serif" font-size="10.00">GL/glu.h</text>
</g>
<!-- Node1&#45;&gt;Node10 -->
<g id="edge26" class="edge"><title>Node1&#45;&gt;Node10</title>
<path fill="none" stroke="midnightblue" d="M291.591,-116.924C348.169,-110.356 460.443,-96.2721 565.514,-75.9119"/>
<polygon fill="midnightblue" stroke="midnightblue" points="566.192,-79.3457 575.331,-73.9867 564.845,-72.4765 566.192,-79.3457"/>
</g>
<!-- Node7&#45;&gt;Node2 -->
<g id="edge14" class="edge"><title>Node7&#45;&gt;Node2</title>
<path fill="none" stroke="midnightblue" d="M119.219,-56.324C104.733,-47.8215 82.4269,-34.7288 65.5068,-24.7975"/>
<polygon fill="midnightblue" stroke="midnightblue" points="67.1406,-21.6981 56.7447,-19.6545 63.5972,-27.735 67.1406,-21.6981"/>
</g>
<!-- Node7&#45;&gt;Node3 -->
<g id="edge16" class="edge"><title>Node7&#45;&gt;Node3</title>
<path fill="none" stroke="midnightblue" d="M135.816,-56.083C137.274,-48.9272 139.371,-38.6353 141.193,-29.6911"/>
<polygon fill="midnightblue" stroke="midnightblue" points="144.651,-30.2485 143.217,-19.7511 137.792,-28.8512 144.651,-30.2485"/>
</g>
<!-- Node8&#45;&gt;Node2 -->
<g id="edge20" class="edge"><title>Node8&#45;&gt;Node2</title>
<path fill="none" stroke="midnightblue" d="M52.0184,-56.083C50.4283,-48.9272 48.1412,-38.6353 46.1536,-29.6911"/>
<polygon fill="midnightblue" stroke="midnightblue" points="49.5307,-28.7537 43.9447,-19.7511 42.6974,-30.2722 49.5307,-28.7537"/>
</g>
<!-- Node8&#45;&gt;Node3 -->
<g id="edge22" class="edge"><title>Node8&#45;&gt;Node3</title>
<path fill="none" stroke="midnightblue" d="M68.6207,-56.324C82.9489,-47.8215 105.013,-34.7288 121.749,-24.7975"/>
<polygon fill="midnightblue" stroke="midnightblue" points="123.602,-27.7677 130.416,-19.6545 120.03,-21.7478 123.602,-27.7677"/>
</g>
</g>
</svg>
        <g id="navigator" transform="translate(0 0)" fill="#404254">
                <rect fill="#f2f5e9" fill-opacity="0.5" stroke="#606060" stroke-width=".5" x="0" y="0" width="60" height="60"/>
                <use id="zoomplus" xlink:href="#zoomPlus" x="17" y="9" onmousedown="handleZoom(evt,'in')"/>
                <use id="zoomminus" xlink:href="#zoomMin" x="42" y="9" onmousedown="handleZoom(evt,'out')"/>
                <use id="reset" xlink:href="#resetDef" x="30" y="36" onmousedown="handleReset()"/>
                <g id="arrowUp" xlink:href="#dirArrow" transform="translate(30 24)" onmousedown="handlePan(0,-1)">
                  <use xlink:href="#rim" fill="#404040">
                        <set attributeName="fill" to="#808080" begin="arrowUp.mouseover" end="arrowUp.mouseout"/>
                  </use>
                  <path fill="none" stroke="white" stroke-width="1.5" d="M0,-3.0v7 M-2.5,-0.5L0,-3.0L2.5,-0.5"/>
                </g>
                <g id="arrowRight" xlink:href="#dirArrow" transform="rotate(90) translate(36 -43)" onmousedown="handlePan(1,0)">
                  <use xlink:href="#rim" fill="#404040">
                        <set attributeName="fill" to="#808080" begin="arrowRight.mouseover" end="arrowRight.mouseout"/>
                  </use>
                  <path fill="none" stroke="white" stroke-width="1.5" d="M0,-3.0v7 M-2.5,-0.5L0,-3.0L2.5,-0.5"/>
                </g>
                <g id="arrowDown" xlink:href="#dirArrow" transform="rotate(180) translate(-30 -48)" onmousedown="handlePan(0,1)">
                  <use xlink:href="#rim" fill="#404040">
                        <set attributeName="fill" to="#808080" begin="arrowDown.mouseover" end="arrowDown.mouseout"/>
                  </use>
                  <path fill="none" stroke="white" stroke-width="1.5" d="M0,-3.0v7 M-2.5,-0.5L0,-3.0L2.5,-0.5"/>
                </g>
                <g id="arrowLeft" xlink:href="#dirArrow" transform="rotate(270) translate(-36 17)" onmousedown="handlePan(-1,0)">
                  <use xlink:href="#rim" fill="#404040">
                        <set attributeName="fill" to="#808080" begin="arrowLeft.mouseover" end="arrowLeft.mouseout"/>
                  </use>
                  <path fill="none" stroke="white" stroke-width="1.5" d="M0,-3.0v7 M-2.5,-0.5L0,-3.0L2.5,-0.5"/>
                </g>
        </g>
</svg>
