<?xml version="1.0" encoding="UTF-8" standalone="no"?>
<!DOCTYPE svg PUBLIC "-//W3C//DTD SVG 1.1//EN"
 "http://www.w3.org/Graphics/SVG/1.1/DTD/svg11.dtd">
<!-- Generated by graphviz version 2.28.0 (20110507.0327)
 -->
<!-- Title: G Pages: 1 -->
<svg width="181pt" height="84pt"
 viewBox="0.00 0.00 181.00 84.00" xmlns="http://www.w3.org/2000/svg" xmlns:xlink="http://www.w3.org/1999/xlink">
<g id="graph1" class="graph" transform="scale(1 1) rotate(0) translate(4 80)">
<title>G</title>
<polygon fill="white" stroke="white" points="-4,5 -4,-80 178,-80 178,5 -4,5"/>
<!-- Node1 -->
<g id="node1" class="node"><title>Node1</title>
<polygon fill="#bfbfbf" stroke="black" points="47.5,-56.5 47.5,-75.5 120.5,-75.5 120.5,-56.5 47.5,-56.5"/>
<text text-anchor="middle" x="84" y="-63.5" font-family="Helvetica,sans-Serif" font-size="10.00">Connect3D.h</text>
</g>
<!-- Node2 -->
<g id="node3" class="node"><title>Node2</title>
<a xlink:href="_connect3_d_8c.html" target="_top" xlink:title="Connect3D.c">
<polygon fill="white" stroke="black" points="-0.5,-0.5 -0.5,-19.5 72.5,-19.5 72.5,-0.5 -0.5,-0.5"/>
<text text-anchor="middle" x="36" y="-7.5" font-family="Helvetica,sans-Serif" font-size="10.00">Connect3D.c</text>
</a>
</g>
<!-- Node1&#45;&gt;Node2 -->
<g id="edge2" class="edge"><title>Node1&#45;&gt;Node2</title>
<path fill="none" stroke="midnightblue" d="M69.2723,-48.4314C60.8599,-38.9673 50.6513,-27.4827 43.7787,-19.7511"/>
<polygon fill="midnightblue" stroke="midnightblue" points="66.8142,-50.9342 76.0738,-56.083 72.046,-46.2836 66.8142,-50.9342"/>
</g>
<!-- Node3 -->
<g id="node5" class="node"><title>Node3</title>
<a xlink:href="_draw_all_joints_8c.html" target="_top" xlink:title="DrawAllJoints.c">
<polygon fill="white" stroke="black" points="90.5,-0.5 90.5,-19.5 173.5,-19.5 173.5,-0.5 90.5,-0.5"/>
<text text-anchor="middle" x="132" y="-7.5" font-family="Helvetica,sans-Serif" font-size="10.00">DrawAllJoints.c</text>
</a>
</g>
<!-- Node1&#45;&gt;Node3 -->
<g id="edge4" class="edge"><title>Node1&#45;&gt;Node3</title>
<path fill="none" stroke="midnightblue" d="M98.7277,-48.4314C107.14,-38.9673 117.349,-27.4827 124.221,-19.7511"/>
<polygon fill="midnightblue" stroke="midnightblue" points="95.954,-46.2836 91.9262,-56.083 101.186,-50.9342 95.954,-46.2836"/>
</g>
</g>
</svg>
