<?xml version="1.0" encoding="UTF-8" standalone="no"?>
<!DOCTYPE svg PUBLIC "-//W3C//DTD SVG 1.1//EN"
 "http://www.w3.org/Graphics/SVG/1.1/DTD/svg11.dtd">
<!-- Generated by graphviz version 2.28.0 (20110507.0327)
 -->
<!-- Title: G Pages: 1 -->
<svg width="197pt" height="140pt"
 viewBox="0.00 0.00 197.00 140.00" xmlns="http://www.w3.org/2000/svg" xmlns:xlink="http://www.w3.org/1999/xlink">
<g id="graph1" class="graph" transform="scale(1 1) rotate(0) translate(4 136)">
<title>G</title>
<polygon fill="white" stroke="white" points="-4,5 -4,-136 194,-136 194,5 -4,5"/>
<!-- Node1 -->
<g id="node1" class="node"><title>Node1</title>
<polygon fill="#bfbfbf" stroke="black" points="69,-112.5 69,-131.5 119,-131.5 119,-112.5 69,-112.5"/>
<text text-anchor="middle" x="94" y="-119.5" font-family="Helvetica,sans-Serif" font-size="10.00">Cross.c</text>
</g>
<!-- Node2 -->
<g id="node3" class="node"><title>Node2</title>
<polygon fill="white" stroke="#bfbfbf" points="0,-0.5 0,-19.5 84,-19.5 84,-0.5 0,-0.5"/>
<text text-anchor="middle" x="42" y="-7.5" font-family="Helvetica,sans-Serif" font-size="10.00">gsl/gsl_vector.h</text>
</g>
<!-- Node1&#45;&gt;Node2 -->
<g id="edge2" class="edge"><title>Node1&#45;&gt;Node2</title>
<path fill="none" stroke="midnightblue" d="M85.8781,-112.364C78.195,-103.762 66.8489,-89.8724 60,-76 52.7104,-61.235 47.998,-43.0777 45.2309,-29.7103"/>
<polygon fill="midnightblue" stroke="midnightblue" points="48.6513,-28.9611 43.3503,-19.7878 41.7738,-30.2647 48.6513,-28.9611"/>
</g>
<!-- Node3 -->
<g id="node5" class="node"><title>Node3</title>
<polygon fill="white" stroke="#bfbfbf" points="103,-0.5 103,-19.5 189,-19.5 189,-0.5 103,-0.5"/>
<text text-anchor="middle" x="146" y="-7.5" font-family="Helvetica,sans-Serif" font-size="10.00">gsl/gsl_matrix.h</text>
</g>
<!-- Node1&#45;&gt;Node3 -->
<g id="edge4" class="edge"><title>Node1&#45;&gt;Node3</title>
<path fill="none" stroke="midnightblue" d="M102.122,-112.364C109.805,-103.762 121.151,-89.8724 128,-76 135.29,-61.235 140.002,-43.0777 142.769,-29.7103"/>
<polygon fill="midnightblue" stroke="midnightblue" points="146.226,-30.2647 144.65,-19.7878 139.349,-28.9611 146.226,-30.2647"/>
</g>
<!-- Node4 -->
<g id="node7" class="node"><title>Node4</title>
<a xlink:href="_cross_8h.html" target="_top" xlink:title="Cross.h">
<polygon fill="white" stroke="black" points="69,-56.5 69,-75.5 119,-75.5 119,-56.5 69,-56.5"/>
<text text-anchor="middle" x="94" y="-63.5" font-family="Helvetica,sans-Serif" font-size="10.00">Cross.h</text>
</a>
</g>
<!-- Node1&#45;&gt;Node4 -->
<g id="edge6" class="edge"><title>Node1&#45;&gt;Node4</title>
<path fill="none" stroke="midnightblue" d="M94,-112.083C94,-105.006 94,-94.8611 94,-85.9865"/>
<polygon fill="midnightblue" stroke="midnightblue" points="97.5001,-85.751 94,-75.7511 90.5001,-85.7511 97.5001,-85.751"/>
</g>
<!-- Node4&#45;&gt;Node2 -->
<g id="edge8" class="edge"><title>Node4&#45;&gt;Node2</title>
<path fill="none" stroke="midnightblue" d="M85.4133,-56.083C77.841,-48.2195 66.6218,-36.5688 57.4856,-27.0813"/>
<polygon fill="midnightblue" stroke="midnightblue" points="59.8845,-24.5266 50.427,-19.7511 54.8423,-29.3821 59.8845,-24.5266"/>
</g>
<!-- Node4&#45;&gt;Node3 -->
<g id="edge10" class="edge"><title>Node4&#45;&gt;Node3</title>
<path fill="none" stroke="midnightblue" d="M102.587,-56.083C110.159,-48.2195 121.378,-36.5688 130.514,-27.0813"/>
<polygon fill="midnightblue" stroke="midnightblue" points="133.158,-29.3821 137.573,-19.7511 128.115,-24.5266 133.158,-29.3821"/>
</g>
</g>
</svg>
