<?xml version="1.0" encoding="UTF-8" standalone="no"?>
<!DOCTYPE svg PUBLIC "-//W3C//DTD SVG 1.1//EN"
 "http://www.w3.org/Graphics/SVG/1.1/DTD/svg11.dtd">
<!-- Generated by graphviz version 2.28.0 (20110507.0327)
 -->
<!-- Title: G Pages: 1 -->
<!--zoomable-->
<svg id="main" version="1.1" xmlns="http://www.w3.org/2000/svg" xmlns:xlink="http://www.w3.org/1999/xlink" xml:space="preserve" onload="init(evt)">
        <defs>
                <circle id="rim" cx="0" cy="0" r="7"/>
                <circle id="rim2" cx="0" cy="0" r="3.5"/>
                <g id="zoomPlus">
                        <use xlink:href="#rim" fill="#404040">
                                <set attributeName="fill" to="#808080" begin="zoomplus.mouseover" end="zoomplus.mouseout"/>
                        </use>
                        <path d="M-4,0h8M0,-4v8" fill="none" stroke="white" stroke-width="1.5" pointer-events="none"/>
                </g>
                <g id="zoomMin">
                        <use xlink:href="#rim" fill="#404040">
                                <set attributeName="fill" to="#808080" begin="zoomminus.mouseover" end="zoomminus.mouseout"/>
                        </use>
                        <path d="M-4,0h8" fill="none" stroke="white" stroke-width="1.5" pointer-events="none"/>
                </g>
                <g id="dirArrow">
                        <path fill="none" stroke="white" stroke-width="1.5" d="M0,-3.0v7 M-2.5,-0.5L0,-3.0L2.5,-0.5"/>
                </g>
               <g id="resetDef">
                       <use xlink:href="#rim2" fill="#404040">
                               <set attributeName="fill" to="#808080" begin="reset.mouseover" end="reset.mouseout"/>
                       </use>
               </g>
        </defs>

<script type="text/javascript">
var viewWidth = 943;
var viewHeight = 84;
var sectionId = 'dynsection-1';
</script>
<script xlink:href="svgpan.js"/>
<svg id="graph" class="graph">
<g id="viewport">
<title>G</title>
<polygon fill="white" stroke="white" points="-4,5 -4,-80 940,-80 940,5 -4,5"/>
<!-- Node1 -->
<g id="node1" class="node"><title>Node1</title>
<polygon fill="#bfbfbf" stroke="black" points="414,-56.5 414,-75.5 464,-75.5 464,-56.5 414,-56.5"/>
<text text-anchor="middle" x="439" y="-63.5" font-family="Helvetica,sans-Serif" font-size="10.00">Cross.h</text>
</g>
<!-- Node2 -->
<g id="node3" class="node"><title>Node2</title>
<a xlink:href="_calc_l_8c.html" target="_top" xlink:title="CalcL.c">
<polygon fill="white" stroke="black" points="0,-0.5 0,-19.5 50,-19.5 50,-0.5 0,-0.5"/>
<text text-anchor="middle" x="25" y="-7.5" font-family="Helvetica,sans-Serif" font-size="10.00">CalcL.c</text>
</a>
</g>
<!-- Node1&#45;&gt;Node2 -->
<g id="edge2" class="edge"><title>Node1&#45;&gt;Node2</title>
<path fill="none" stroke="midnightblue" d="M403.846,-62.5019C336.487,-57.3482 184.748,-43.965 59,-20 56.1209,-19.4513 53.1262,-18.792 50.1603,-18.0828"/>
<polygon fill="midnightblue" stroke="midnightblue" points="403.682,-65.9993 413.916,-63.2587 404.206,-59.0189 403.682,-65.9993"/>
</g>
<!-- Node3 -->
<g id="node5" class="node"><title>Node3</title>
<a xlink:href="_calc_p_8c.html" target="_top" xlink:title="CalcP.c">
<polygon fill="white" stroke="black" points="68.5,-0.5 68.5,-19.5 119.5,-19.5 119.5,-0.5 68.5,-0.5"/>
<text text-anchor="middle" x="94" y="-7.5" font-family="Helvetica,sans-Serif" font-size="10.00">CalcP.c</text>
</a>
</g>
<!-- Node1&#45;&gt;Node3 -->
<g id="edge4" class="edge"><title>Node1&#45;&gt;Node3</title>
<path fill="none" stroke="midnightblue" d="M403.882,-61.1499C346.192,-54.5464 227.889,-39.832 129,-20 125.924,-19.3832 122.715,-18.6639 119.541,-17.9059"/>
<polygon fill="midnightblue" stroke="midnightblue" points="403.6,-64.6403 413.931,-62.288 404.388,-57.6847 403.6,-64.6403"/>
</g>
<!-- Node4 -->
<g id="node7" class="node"><title>Node4</title>
<a xlink:href="_cross_8c.html" target="_top" xlink:title="Cross.c">
<polygon fill="white" stroke="black" points="138,-0.5 138,-19.5 188,-19.5 188,-0.5 138,-0.5"/>
<text text-anchor="middle" x="163" y="-7.5" font-family="Helvetica,sans-Serif" font-size="10.00">Cross.c</text>
</a>
</g>
<!-- Node1&#45;&gt;Node4 -->
<g id="edge6" class="edge"><title>Node1&#45;&gt;Node4</title>
<path fill="none" stroke="midnightblue" d="M403.762,-59.299C356.5,-51.4589 270.063,-36.439 197,-20 194.141,-19.3566 191.158,-18.6381 188.199,-17.8953"/>
<polygon fill="midnightblue" stroke="midnightblue" points="403.354,-62.7789 413.79,-60.9522 404.492,-55.8722 403.354,-62.7789"/>
</g>
<!-- Node5 -->
<g id="node9" class="node"><title>Node5</title>
<a xlink:href="_external_forces_8c.html" target="_top" xlink:title="ExternalForces.c">
<polygon fill="white" stroke="black" points="206.5,-0.5 206.5,-19.5 297.5,-19.5 297.5,-0.5 206.5,-0.5"/>
<text text-anchor="middle" x="252" y="-7.5" font-family="Helvetica,sans-Serif" font-size="10.00">ExternalForces.c</text>
</a>
</g>
<!-- Node1&#45;&gt;Node5 -->
<g id="edge8" class="edge"><title>Node1&#45;&gt;Node5</title>
<path fill="none" stroke="midnightblue" d="M403.922,-54.8705C368.681,-44.694 314.965,-29.1825 281.747,-19.59"/>
<polygon fill="midnightblue" stroke="midnightblue" points="403.202,-58.3055 413.78,-57.7173 405.144,-51.5803 403.202,-58.3055"/>
</g>
<!-- Node6 -->
<g id="node11" class="node"><title>Node6</title>
<a xlink:href="_forward_all_kinematics_8c.html" target="_top" xlink:title="ForwardAllKinematics.c">
<polygon fill="white" stroke="black" points="315.5,-0.5 315.5,-19.5 434.5,-19.5 434.5,-0.5 315.5,-0.5"/>
<text text-anchor="middle" x="375" y="-7.5" font-family="Helvetica,sans-Serif" font-size="10.00">ForwardAllKinematics.c</text>
</a>
</g>
<!-- Node1&#45;&gt;Node6 -->
<g id="edge10" class="edge"><title>Node1&#45;&gt;Node6</title>
<path fill="none" stroke="midnightblue" d="M421.009,-49.8197C409.542,-40.1452 395.087,-27.9481 385.47,-19.8339"/>
<polygon fill="midnightblue" stroke="midnightblue" points="418.817,-52.5502 428.717,-56.324 423.331,-47.2002 418.817,-52.5502"/>
</g>
<!-- Node7 -->
<g id="node13" class="node"><title>Node7</title>
<a xlink:href="_forward_dynamics_8c.html" target="_top" xlink:title="ForwardDynamics.c">
<polygon fill="white" stroke="black" points="452.5,-0.5 452.5,-19.5 555.5,-19.5 555.5,-0.5 452.5,-0.5"/>
<text text-anchor="middle" x="504" y="-7.5" font-family="Helvetica,sans-Serif" font-size="10.00">ForwardDynamics.c</text>
</a>
</g>
<!-- Node1&#45;&gt;Node7 -->
<g id="edge12" class="edge"><title>Node1&#45;&gt;Node7</title>
<path fill="none" stroke="midnightblue" d="M457.273,-49.8197C468.918,-40.1452 483.599,-27.9481 493.367,-19.8339"/>
<polygon fill="midnightblue" stroke="midnightblue" points="454.899,-47.2416 449.443,-56.324 459.372,-52.6259 454.899,-47.2416"/>
</g>
<!-- Node8 -->
<g id="node15" class="node"><title>Node8</title>
<a xlink:href="_forward_velocity_8c.html" target="_top" xlink:title="ForwardVelocity.c">
<polygon fill="white" stroke="black" points="573.5,-0.5 573.5,-19.5 668.5,-19.5 668.5,-0.5 573.5,-0.5"/>
<text text-anchor="middle" x="621" y="-7.5" font-family="Helvetica,sans-Serif" font-size="10.00">ForwardVelocity.c</text>
</a>
</g>
<!-- Node1&#45;&gt;Node8 -->
<g id="edge14" class="edge"><title>Node1&#45;&gt;Node8</title>
<path fill="none" stroke="midnightblue" d="M473.946,-54.6314C508.347,-44.4245 560.255,-29.0234 592.312,-19.5118"/>
<polygon fill="midnightblue" stroke="midnightblue" points="472.898,-51.2916 464.306,-57.4915 474.889,-58.0024 472.898,-51.2916"/>
</g>
<!-- Node9 -->
<g id="node17" class="node"><title>Node9</title>
<a xlink:href="_gravity_8c.html" target="_top" xlink:title="Gravity.c">
<polygon fill="white" stroke="black" points="686.5,-0.5 686.5,-19.5 741.5,-19.5 741.5,-0.5 686.5,-0.5"/>
<text text-anchor="middle" x="714" y="-7.5" font-family="Helvetica,sans-Serif" font-size="10.00">Gravity.c</text>
</a>
</g>
<!-- Node1&#45;&gt;Node9 -->
<g id="edge16" class="edge"><title>Node1&#45;&gt;Node9</title>
<path fill="none" stroke="midnightblue" d="M473.973,-58.9716C520.476,-50.8227 605.159,-35.5183 677,-20 679.972,-19.3579 683.071,-18.656 686.155,-17.9365"/>
<polygon fill="midnightblue" stroke="midnightblue" points="473.349,-55.5276 464.1,-60.6948 474.553,-62.4234 473.349,-55.5276"/>
</g>
<!-- Node10 -->
<g id="node19" class="node"><title>Node10</title>
<a xlink:href="_inverse_dynamics_8c.html" target="_top" xlink:title="InverseDynamics.c">
<polygon fill="white" stroke="black" points="760,-0.5 760,-19.5 858,-19.5 858,-0.5 760,-0.5"/>
<text text-anchor="middle" x="809" y="-7.5" font-family="Helvetica,sans-Serif" font-size="10.00">InverseDynamics.c</text>
</a>
</g>
<!-- Node1&#45;&gt;Node10 -->
<g id="edge18" class="edge"><title>Node1&#45;&gt;Node10</title>
<path fill="none" stroke="midnightblue" d="M474.033,-60.0203C531.628,-51.8135 649.922,-34.8731 750,-20 753.177,-19.5278 756.45,-19.038 759.749,-18.5418"/>
<polygon fill="midnightblue" stroke="midnightblue" points="473.41,-56.5737 464.003,-61.4486 474.397,-63.5037 473.41,-56.5737"/>
</g>
<!-- Node11 -->
<g id="node21" class="node"><title>Node11</title>
<a xlink:href="_s_e3exp_8c.html" target="_top" xlink:title="SE3exp.c">
<polygon fill="white" stroke="black" points="876.5,-0.5 876.5,-19.5 935.5,-19.5 935.5,-0.5 876.5,-0.5"/>
<text text-anchor="middle" x="906" y="-7.5" font-family="Helvetica,sans-Serif" font-size="10.00">SE3exp.c</text>
</a>
</g>
<!-- Node1&#45;&gt;Node11 -->
<g id="edge20" class="edge"><title>Node1&#45;&gt;Node11</title>
<path fill="none" stroke="midnightblue" d="M474.323,-62.7516C547.8,-57.7533 722.313,-44.208 867,-20 870.016,-19.4955 873.147,-18.8985 876.264,-18.2558"/>
<polygon fill="midnightblue" stroke="midnightblue" points="473.974,-59.267 464.231,-63.4273 474.442,-66.2514 473.974,-59.267"/>
</g>
</g>
</svg>
        <g id="navigator" transform="translate(0 0)" fill="#404254">
                <rect fill="#f2f5e9" fill-opacity="0.5" stroke="#606060" stroke-width=".5" x="0" y="0" width="60" height="60"/>
                <use id="zoomplus" xlink:href="#zoomPlus" x="17" y="9" onmousedown="handleZoom(evt,'in')"/>
                <use id="zoomminus" xlink:href="#zoomMin" x="42" y="9" onmousedown="handleZoom(evt,'out')"/>
                <use id="reset" xlink:href="#resetDef" x="30" y="36" onmousedown="handleReset()"/>
                <g id="arrowUp" xlink:href="#dirArrow" transform="translate(30 24)" onmousedown="handlePan(0,-1)">
                  <use xlink:href="#rim" fill="#404040">
                        <set attributeName="fill" to="#808080" begin="arrowUp.mouseover" end="arrowUp.mouseout"/>
                  </use>
                  <path fill="none" stroke="white" stroke-width="1.5" d="M0,-3.0v7 M-2.5,-0.5L0,-3.0L2.5,-0.5"/>
                </g>
                <g id="arrowRight" xlink:href="#dirArrow" transform="rotate(90) translate(36 -43)" onmousedown="handlePan(1,0)">
                  <use xlink:href="#rim" fill="#404040">
                        <set attributeName="fill" to="#808080" begin="arrowRight.mouseover" end="arrowRight.mouseout"/>
                  </use>
                  <path fill="none" stroke="white" stroke-width="1.5" d="M0,-3.0v7 M-2.5,-0.5L0,-3.0L2.5,-0.5"/>
                </g>
                <g id="arrowDown" xlink:href="#dirArrow" transform="rotate(180) translate(-30 -48)" onmousedown="handlePan(0,1)">
                  <use xlink:href="#rim" fill="#404040">
                        <set attributeName="fill" to="#808080" begin="arrowDown.mouseover" end="arrowDown.mouseout"/>
                  </use>
                  <path fill="none" stroke="white" stroke-width="1.5" d="M0,-3.0v7 M-2.5,-0.5L0,-3.0L2.5,-0.5"/>
                </g>
                <g id="arrowLeft" xlink:href="#dirArrow" transform="rotate(270) translate(-36 17)" onmousedown="handlePan(-1,0)">
                  <use xlink:href="#rim" fill="#404040">
                        <set attributeName="fill" to="#808080" begin="arrowLeft.mouseover" end="arrowLeft.mouseout"/>
                  </use>
                  <path fill="none" stroke="white" stroke-width="1.5" d="M0,-3.0v7 M-2.5,-0.5L0,-3.0L2.5,-0.5"/>
                </g>
        </g>
</svg>
