<?xml version="1.0" encoding="UTF-8" standalone="no"?>
<!DOCTYPE svg PUBLIC "-//W3C//DTD SVG 1.1//EN"
 "http://www.w3.org/Graphics/SVG/1.1/DTD/svg11.dtd">
<!-- Generated by graphviz version 2.28.0 (20110507.0327)
 -->
<!-- Title: G Pages: 1 -->
<!--zoomable-->
<svg id="main" version="1.1" xmlns="http://www.w3.org/2000/svg" xmlns:xlink="http://www.w3.org/1999/xlink" xml:space="preserve" onload="init(evt)">
        <defs>
                <circle id="rim" cx="0" cy="0" r="7"/>
                <circle id="rim2" cx="0" cy="0" r="3.5"/>
                <g id="zoomPlus">
                        <use xlink:href="#rim" fill="#404040">
                                <set attributeName="fill" to="#808080" begin="zoomplus.mouseover" end="zoomplus.mouseout"/>
                        </use>
                        <path d="M-4,0h8M0,-4v8" fill="none" stroke="white" stroke-width="1.5" pointer-events="none"/>
                </g>
                <g id="zoomMin">
                        <use xlink:href="#rim" fill="#404040">
                                <set attributeName="fill" to="#808080" begin="zoomminus.mouseover" end="zoomminus.mouseout"/>
                        </use>
                        <path d="M-4,0h8" fill="none" stroke="white" stroke-width="1.5" pointer-events="none"/>
                </g>
                <g id="dirArrow">
                        <path fill="none" stroke="white" stroke-width="1.5" d="M0,-3.0v7 M-2.5,-0.5L0,-3.0L2.5,-0.5"/>
                </g>
               <g id="resetDef">
                       <use xlink:href="#rim2" fill="#404040">
                               <set attributeName="fill" to="#808080" begin="reset.mouseover" end="reset.mouseout"/>
                       </use>
               </g>
        </defs>

<script type="text/javascript">
var viewWidth = 526;
var viewHeight = 381;
var sectionId = 'dynsection-2';
</script>
<script xlink:href="svgpan.js"/>
<svg id="graph" class="graph">
<g id="viewport">
<title>G</title>
<polygon fill="white" stroke="white" points="-4,5 -4,-377 523,-377 523,5 -4,5"/>
<!-- Node1 -->
<g id="node1" class="node"><title>Node1</title>
<polygon fill="#bfbfbf" stroke="black" points="0,-148.5 0,-167.5 42,-167.5 42,-148.5 0,-148.5"/>
<text text-anchor="middle" x="21" y="-155.5" font-family="Helvetica,sans-Serif" font-size="10.00">Cross</text>
</g>
<!-- Node2 -->
<g id="node3" class="node"><title>Node2</title>
<a xlink:href="_calc_l_8h.html#a7c3511e6a28f9dd6d23fa407147ceeb5" target="_top" xlink:title="CalcL">
<polygon fill="white" stroke="black" points="113.5,-335.5 113.5,-354.5 154.5,-354.5 154.5,-335.5 113.5,-335.5"/>
<text text-anchor="middle" x="134" y="-342.5" font-family="Helvetica,sans-Serif" font-size="10.00">CalcL</text>
</a>
</g>
<!-- Node1&#45;&gt;Node2 -->
<g id="edge2" class="edge"><title>Node1&#45;&gt;Node2</title>
<path fill="none" stroke="midnightblue" d="M23.1181,-178.192C26.1255,-213.056 37.2071,-284.761 78,-326 87.3779,-335.48 101.708,-340.236 113.389,-342.618"/>
<polygon fill="midnightblue" stroke="midnightblue" points="26.5848,-177.601 22.3765,-167.878 19.6028,-178.103 26.5848,-177.601"/>
</g>
<!-- Node3 -->
<g id="node6" class="node"><title>Node3</title>
<a xlink:href="_calc_p_8h.html#a7d7ed03161edcf4ded8f478f74504c43" target="_top" xlink:title="CalcP">
<polygon fill="white" stroke="black" points="112.5,-279.5 112.5,-298.5 155.5,-298.5 155.5,-279.5 112.5,-279.5"/>
<text text-anchor="middle" x="134" y="-286.5" font-family="Helvetica,sans-Serif" font-size="10.00">CalcP</text>
</a>
</g>
<!-- Node1&#45;&gt;Node3 -->
<g id="edge6" class="edge"><title>Node1&#45;&gt;Node3</title>
<path fill="none" stroke="midnightblue" d="M26.775,-177.342C33.8699,-202.175 49.5229,-245.03 78,-270 87.5706,-278.392 101.044,-283.126 112.26,-285.77"/>
<polygon fill="midnightblue" stroke="midnightblue" points="30.1392,-176.374 24.1737,-167.618 23.377,-178.183 30.1392,-176.374"/>
</g>
<!-- Node4 -->
<g id="node9" class="node"><title>Node4</title>
<a xlink:href="_external_forces_8h.html#a54d22e224db2a33d86207a6a0d5562fe" target="_top" xlink:title="ExternalForces">
<polygon fill="white" stroke="black" points="227.5,-94.5 227.5,-113.5 310.5,-113.5 310.5,-94.5 227.5,-94.5"/>
<text text-anchor="middle" x="269" y="-101.5" font-family="Helvetica,sans-Serif" font-size="10.00">ExternalForces</text>
</a>
</g>
<!-- Node1&#45;&gt;Node4 -->
<g id="edge10" class="edge"><title>Node1&#45;&gt;Node4</title>
<path fill="none" stroke="midnightblue" d="M51.9346,-151.429C95.9108,-141.776 178.091,-123.736 227.447,-112.902"/>
<polygon fill="midnightblue" stroke="midnightblue" points="51.1482,-148.018 42.1312,-153.581 52.6491,-154.855 51.1482,-148.018"/>
</g>
<!-- Node7 -->
<g id="node16" class="node"><title>Node7</title>
<a xlink:href="_forward_all_kinematics_8h.html#a4ce3cc40a8f7cd71ac18ce0111679a00" target="_top" xlink:title="ForwardAllKinematics">
<polygon fill="white" stroke="black" points="78.5,-223.5 78.5,-242.5 189.5,-242.5 189.5,-223.5 78.5,-223.5"/>
<text text-anchor="middle" x="134" y="-230.5" font-family="Helvetica,sans-Serif" font-size="10.00">ForwardAllKinematics</text>
</a>
</g>
<!-- Node1&#45;&gt;Node7 -->
<g id="edge18" class="edge"><title>Node1&#45;&gt;Node7</title>
<path fill="none" stroke="midnightblue" d="M35.7159,-175.427C46.1641,-187.69 61.5208,-203.691 78,-214 83.9952,-217.75 90.824,-220.87 97.5823,-223.424"/>
<polygon fill="midnightblue" stroke="midnightblue" points="38.3715,-173.146 29.3132,-167.651 32.9675,-177.595 38.3715,-173.146"/>
</g>
<!-- Node9 -->
<g id="node22" class="node"><title>Node9</title>
<a xlink:href="_forward_velocity_8h.html#ad3bfaea752c445b6aa7acf78cf9a6725" target="_top" xlink:title="ForwardVelocity">
<polygon fill="white" stroke="black" points="226,-38.5 226,-57.5 312,-57.5 312,-38.5 226,-38.5"/>
<text text-anchor="middle" x="269" y="-45.5" font-family="Helvetica,sans-Serif" font-size="10.00">ForwardVelocity</text>
</a>
</g>
<!-- Node1&#45;&gt;Node9 -->
<g id="edge26" class="edge"><title>Node1&#45;&gt;Node9</title>
<path fill="none" stroke="midnightblue" d="M41.3389,-141.723C51.7317,-133.537 65.0439,-123.913 78,-117 129.242,-89.6576 193.639,-68.83 232.765,-57.5214"/>
<polygon fill="midnightblue" stroke="midnightblue" points="38.9417,-139.16 33.3676,-148.17 43.3438,-144.603 38.9417,-139.16"/>
</g>
<!-- Node11 -->
<g id="node28" class="node"><title>Node11</title>
<a xlink:href="_gravity_8h.html#ac74a03b55af13dd218455f237a5289dc" target="_top" xlink:title="Gravity">
<polygon fill="white" stroke="black" points="245.5,-150.5 245.5,-169.5 292.5,-169.5 292.5,-150.5 245.5,-150.5"/>
<text text-anchor="middle" x="269" y="-157.5" font-family="Helvetica,sans-Serif" font-size="10.00">Gravity</text>
</a>
</g>
<!-- Node1&#45;&gt;Node11 -->
<g id="edge34" class="edge"><title>Node1&#45;&gt;Node11</title>
<path fill="none" stroke="midnightblue" d="M52.2723,-157.767C85.911,-157.562 141.841,-157.383 190,-158 208.692,-158.24 229.898,-158.802 245.475,-159.27"/>
<polygon fill="midnightblue" stroke="midnightblue" points="52.1488,-154.267 42.172,-157.833 52.1949,-161.267 52.1488,-154.267"/>
</g>
<!-- Node12 -->
<g id="node32" class="node"><title>Node12</title>
<a xlink:href="_inverse_dynamics_8h.html#accb6237d3631b28dae6469d0ee9a0c2f" target="_top" xlink:title="InverseDynamics">
<polygon fill="white" stroke="black" points="89,-167.5 89,-186.5 179,-186.5 179,-167.5 89,-167.5"/>
<text text-anchor="middle" x="134" y="-174.5" font-family="Helvetica,sans-Serif" font-size="10.00">InverseDynamics</text>
</a>
</g>
<!-- Node1&#45;&gt;Node12 -->
<g id="edge40" class="edge"><title>Node1&#45;&gt;Node12</title>
<path fill="none" stroke="midnightblue" d="M52.2429,-163.177C63.4658,-165.098 76.4401,-167.319 88.6613,-169.41"/>
<polygon fill="midnightblue" stroke="midnightblue" points="52.5484,-159.678 42.1013,-161.441 51.3674,-166.578 52.5484,-159.678"/>
</g>
<!-- Node13 -->
<g id="node36" class="node"><title>Node13</title>
<a xlink:href="_s_e3exp_8h.html#a4098db0d8f1f1e6a030edb1ff9e9f11f" target="_top" xlink:title="SE3exp">
<polygon fill="white" stroke="black" points="243.5,-0.5 243.5,-19.5 294.5,-19.5 294.5,-0.5 243.5,-0.5"/>
<text text-anchor="middle" x="269" y="-7.5" font-family="Helvetica,sans-Serif" font-size="10.00">SE3exp</text>
</a>
</g>
<!-- Node1&#45;&gt;Node13 -->
<g id="edge46" class="edge"><title>Node1&#45;&gt;Node13</title>
<path fill="none" stroke="midnightblue" d="M28.9668,-138.826C37.4433,-118.144 53.702,-85.6755 78,-67 128.241,-28.3845 204.415,-15.8325 243.289,-11.8265"/>
<polygon fill="midnightblue" stroke="midnightblue" points="25.5942,-137.843 25.2421,-148.432 32.1207,-140.373 25.5942,-137.843"/>
</g>
<!-- Node2&#45;&gt;Node2 -->
<g id="edge4" class="edge"><title>Node2&#45;&gt;Node2</title>
<path fill="none" stroke="midnightblue" d="M113.26,-364.4C114.645,-369.315 121.559,-373 134,-373 153.906,-373 159.66,-363.565 151.262,-354.757"/>
<polygon fill="midnightblue" stroke="midnightblue" points="116.638,-365.351 116.738,-354.757 110.053,-362.977 116.638,-365.351"/>
</g>
<!-- Node3&#45;&gt;Node3 -->
<g id="edge8" class="edge"><title>Node3&#45;&gt;Node3</title>
<path fill="none" stroke="midnightblue" d="M113.26,-308.4C114.645,-313.315 121.559,-317 134,-317 153.906,-317 159.66,-307.565 151.262,-298.757"/>
<polygon fill="midnightblue" stroke="midnightblue" points="116.638,-309.351 116.738,-298.757 110.053,-306.977 116.638,-309.351"/>
</g>
<!-- Node4&#45;&gt;Node4 -->
<g id="edge12" class="edge"><title>Node4&#45;&gt;Node4</title>
<path fill="none" stroke="midnightblue" d="M245.563,-123.029C246.841,-128.128 254.654,-132 269,-132 291.395,-132 297.868,-122.565 288.42,-113.757"/>
<polygon fill="midnightblue" stroke="midnightblue" points="248.816,-124.324 249.58,-113.757 242.393,-121.541 248.816,-124.324"/>
</g>
<!-- Node5 -->
<g id="node12" class="node"><title>Node5</title>
<a xlink:href="_forward_dynamics_8h.html#a23609ae4e05df387941c4bbc7bfc26fe" target="_top" xlink:title="ForwardDynamics">
<polygon fill="white" stroke="black" points="348.5,-122.5 348.5,-141.5 443.5,-141.5 443.5,-122.5 348.5,-122.5"/>
<text text-anchor="middle" x="396" y="-129.5" font-family="Helvetica,sans-Serif" font-size="10.00">ForwardDynamics</text>
</a>
</g>
<!-- Node4&#45;&gt;Node5 -->
<g id="edge14" class="edge"><title>Node4&#45;&gt;Node5</title>
<path fill="none" stroke="midnightblue" d="M320.55,-115.323C331.141,-117.696 342.207,-120.174 352.471,-122.473"/>
<polygon fill="midnightblue" stroke="midnightblue" points="321.107,-111.861 310.584,-113.091 319.577,-118.692 321.107,-111.861"/>
</g>
<!-- Node6 -->
<g id="node14" class="node"><title>Node6</title>
<a xlink:href="main_8c.html#a0ddf1224851353fc92bfbff6f499fa97" target="_top" xlink:title="main">
<polygon fill="white" stroke="black" points="480,-56.5 480,-75.5 518,-75.5 518,-56.5 480,-56.5"/>
<text text-anchor="middle" x="499" y="-63.5" font-family="Helvetica,sans-Serif" font-size="10.00">main</text>
</a>
</g>
<!-- Node5&#45;&gt;Node6 -->
<g id="edge16" class="edge"><title>Node5&#45;&gt;Node6</title>
<path fill="none" stroke="midnightblue" d="M420.492,-116.649C439.918,-103.955 466.897,-86.3244 483.364,-75.5639"/>
<polygon fill="midnightblue" stroke="midnightblue" points="418.359,-113.861 411.903,-122.261 422.189,-119.721 418.359,-113.861"/>
</g>
<!-- Node7&#45;&gt;Node7 -->
<g id="edge20" class="edge"><title>Node7&#45;&gt;Node7</title>
<path fill="none" stroke="midnightblue" d="M113.26,-252.4C114.645,-257.315 121.559,-261 134,-261 153.906,-261 159.66,-251.565 151.262,-242.757"/>
<polygon fill="midnightblue" stroke="midnightblue" points="116.638,-253.351 116.738,-242.757 110.053,-250.977 116.638,-253.351"/>
</g>
<!-- Node8 -->
<g id="node19" class="node"><title>Node8</title>
<a xlink:href="_inv_dyn_8h.html#a30f653a126a6f95e6c9b01a3c5997ff4" target="_top" xlink:title="InvDyn">
<polygon fill="white" stroke="black" points="246.5,-206.5 246.5,-225.5 291.5,-225.5 291.5,-206.5 246.5,-206.5"/>
<text text-anchor="middle" x="269" y="-213.5" font-family="Helvetica,sans-Serif" font-size="10.00">InvDyn</text>
</a>
</g>
<!-- Node7&#45;&gt;Node8 -->
<g id="edge22" class="edge"><title>Node7&#45;&gt;Node8</title>
<path fill="none" stroke="midnightblue" d="M200.21,-224.665C216.91,-222.53 233.719,-220.382 246.421,-218.758"/>
<polygon fill="midnightblue" stroke="midnightblue" points="199.34,-221.248 189.864,-225.987 200.227,-228.191 199.34,-221.248"/>
</g>
<!-- Node8&#45;&gt;Node5 -->
<g id="edge24" class="edge"><title>Node8&#45;&gt;Node5</title>
<path fill="none" stroke="midnightblue" d="M301.101,-202.953C304.843,-201.086 308.556,-199.086 312,-197 339.866,-180.122 369.108,-155.29 384.34,-141.725"/>
<polygon fill="midnightblue" stroke="midnightblue" points="299.431,-199.871 291.872,-207.294 302.411,-206.205 299.431,-199.871"/>
</g>
<!-- Node9&#45;&gt;Node9 -->
<g id="edge28" class="edge"><title>Node9&#45;&gt;Node9</title>
<path fill="none" stroke="midnightblue" d="M245.563,-67.0292C246.841,-72.128 254.654,-76 269,-76 291.395,-76 297.868,-66.5653 288.42,-57.7571"/>
<polygon fill="midnightblue" stroke="midnightblue" points="248.816,-68.3243 249.58,-57.7571 242.393,-65.5415 248.816,-68.3243"/>
</g>
<!-- Node10 -->
<g id="node25" class="node"><title>Node10</title>
<a xlink:href="u_link_8h.html#ae420e3d1a86aca06b7286b7678b4ecb6" target="_top" xlink:title="Initialize the link structure with the model value.">
<polygon fill="white" stroke="black" points="362,-56.5 362,-75.5 430,-75.5 430,-56.5 362,-56.5"/>
<text text-anchor="middle" x="396" y="-63.5" font-family="Helvetica,sans-Serif" font-size="10.00">SetupRobot</text>
</a>
</g>
<!-- Node9&#45;&gt;Node10 -->
<g id="edge30" class="edge"><title>Node9&#45;&gt;Node10</title>
<path fill="none" stroke="midnightblue" d="M322.367,-55.5409C335.723,-57.4641 349.713,-59.4787 361.81,-61.2206"/>
<polygon fill="midnightblue" stroke="midnightblue" points="322.716,-52.0551 312.319,-54.094 321.718,-58.9836 322.716,-52.0551"/>
</g>
<!-- Node10&#45;&gt;Node6 -->
<g id="edge32" class="edge"><title>Node10&#45;&gt;Node6</title>
<path fill="none" stroke="midnightblue" d="M440.45,-66C454.299,-66 468.87,-66 479.885,-66"/>
<polygon fill="midnightblue" stroke="midnightblue" points="440.071,-62.5001 430.071,-66 440.071,-69.5001 440.071,-62.5001"/>
</g>
<!-- Node11&#45;&gt;Node5 -->
<g id="edge36" class="edge"><title>Node11&#45;&gt;Node5</title>
<path fill="none" stroke="midnightblue" d="M302.638,-152.689C317.891,-149.272 336.246,-145.161 352.561,-141.506"/>
<polygon fill="midnightblue" stroke="midnightblue" points="301.63,-149.328 292.637,-154.929 303.16,-156.159 301.63,-149.328"/>
</g>
<!-- Node11&#45;&gt;Node11 -->
<g id="edge38" class="edge"><title>Node11&#45;&gt;Node11</title>
<path fill="none" stroke="midnightblue" d="M245.563,-179.029C246.841,-184.128 254.654,-188 269,-188 291.395,-188 297.868,-178.565 288.42,-169.757"/>
<polygon fill="midnightblue" stroke="midnightblue" points="248.816,-180.324 249.58,-169.757 242.393,-177.541 248.816,-180.324"/>
</g>
<!-- Node12&#45;&gt;Node8 -->
<g id="edge42" class="edge"><title>Node12&#45;&gt;Node8</title>
<path fill="none" stroke="midnightblue" d="M177.368,-189.424C200.265,-196.138 227.578,-204.147 246.192,-209.605"/>
<polygon fill="midnightblue" stroke="midnightblue" points="178.116,-185.996 167.535,-186.54 176.147,-192.713 178.116,-185.996"/>
</g>
<!-- Node12&#45;&gt;Node12 -->
<g id="edge44" class="edge"><title>Node12&#45;&gt;Node12</title>
<path fill="none" stroke="midnightblue" d="M113.26,-196.4C114.645,-201.315 121.559,-205 134,-205 153.906,-205 159.66,-195.565 151.262,-186.757"/>
<polygon fill="midnightblue" stroke="midnightblue" points="116.638,-197.351 116.738,-186.757 110.053,-194.977 116.638,-197.351"/>
</g>
<!-- Node14 -->
<g id="node38" class="node"><title>Node14</title>
<a xlink:href="_integrate_euler_8h.html#a8158bd5a4eacb684aed3dcc88daa8582" target="_top" xlink:title="IntegrateEuler">
<polygon fill="white" stroke="black" points="357.5,-0.5 357.5,-19.5 434.5,-19.5 434.5,-0.5 357.5,-0.5"/>
<text text-anchor="middle" x="396" y="-7.5" font-family="Helvetica,sans-Serif" font-size="10.00">IntegrateEuler</text>
</a>
</g>
<!-- Node13&#45;&gt;Node14 -->
<g id="edge48" class="edge"><title>Node13&#45;&gt;Node14</title>
<path fill="none" stroke="midnightblue" d="M304.857,-10C321.096,-10 340.452,-10 357.058,-10"/>
<polygon fill="midnightblue" stroke="midnightblue" points="304.696,-6.5001 294.696,-10 304.696,-13.5001 304.696,-6.5001"/>
</g>
<!-- Node14&#45;&gt;Node6 -->
<g id="edge52" class="edge"><title>Node14&#45;&gt;Node6</title>
<path fill="none" stroke="midnightblue" d="M423.472,-24.6775C441.512,-34.6802 464.888,-47.6407 480.609,-56.3573"/>
<polygon fill="midnightblue" stroke="midnightblue" points="425.036,-21.5426 414.593,-19.7545 421.641,-27.6646 425.036,-21.5426"/>
</g>
<!-- Node14&#45;&gt;Node14 -->
<g id="edge50" class="edge"><title>Node14&#45;&gt;Node14</title>
<path fill="none" stroke="midnightblue" d="M377.112,-29.4C378.373,-34.3146 384.669,-38 396,-38 414.129,-38 419.369,-28.5653 411.721,-19.7571"/>
<polygon fill="midnightblue" stroke="midnightblue" points="380.484,-30.3499 380.279,-19.7571 373.833,-28.1658 380.484,-30.3499"/>
</g>
</g>
</svg>
        <g id="navigator" transform="translate(0 0)" fill="#404254">
                <rect fill="#f2f5e9" fill-opacity="0.5" stroke="#606060" stroke-width=".5" x="0" y="0" width="60" height="60"/>
                <use id="zoomplus" xlink:href="#zoomPlus" x="17" y="9" onmousedown="handleZoom(evt,'in')"/>
                <use id="zoomminus" xlink:href="#zoomMin" x="42" y="9" onmousedown="handleZoom(evt,'out')"/>
                <use id="reset" xlink:href="#resetDef" x="30" y="36" onmousedown="handleReset()"/>
                <g id="arrowUp" xlink:href="#dirArrow" transform="translate(30 24)" onmousedown="handlePan(0,-1)">
                  <use xlink:href="#rim" fill="#404040">
                        <set attributeName="fill" to="#808080" begin="arrowUp.mouseover" end="arrowUp.mouseout"/>
                  </use>
                  <path fill="none" stroke="white" stroke-width="1.5" d="M0,-3.0v7 M-2.5,-0.5L0,-3.0L2.5,-0.5"/>
                </g>
                <g id="arrowRight" xlink:href="#dirArrow" transform="rotate(90) translate(36 -43)" onmousedown="handlePan(1,0)">
                  <use xlink:href="#rim" fill="#404040">
                        <set attributeName="fill" to="#808080" begin="arrowRight.mouseover" end="arrowRight.mouseout"/>
                  </use>
                  <path fill="none" stroke="white" stroke-width="1.5" d="M0,-3.0v7 M-2.5,-0.5L0,-3.0L2.5,-0.5"/>
                </g>
                <g id="arrowDown" xlink:href="#dirArrow" transform="rotate(180) translate(-30 -48)" onmousedown="handlePan(0,1)">
                  <use xlink:href="#rim" fill="#404040">
                        <set attributeName="fill" to="#808080" begin="arrowDown.mouseover" end="arrowDown.mouseout"/>
                  </use>
                  <path fill="none" stroke="white" stroke-width="1.5" d="M0,-3.0v7 M-2.5,-0.5L0,-3.0L2.5,-0.5"/>
                </g>
                <g id="arrowLeft" xlink:href="#dirArrow" transform="rotate(270) translate(-36 17)" onmousedown="handlePan(-1,0)">
                  <use xlink:href="#rim" fill="#404040">
                        <set attributeName="fill" to="#808080" begin="arrowLeft.mouseover" end="arrowLeft.mouseout"/>
                  </use>
                  <path fill="none" stroke="white" stroke-width="1.5" d="M0,-3.0v7 M-2.5,-0.5L0,-3.0L2.5,-0.5"/>
                </g>
        </g>
</svg>
