<?xml version="1.0" encoding="UTF-8" standalone="no"?>
<!DOCTYPE svg PUBLIC "-//W3C//DTD SVG 1.1//EN"
 "http://www.w3.org/Graphics/SVG/1.1/DTD/svg11.dtd">
<!-- Generated by graphviz version 2.28.0 (20110507.0327)
 -->
<!-- Title: G Pages: 1 -->
<svg width="398pt" height="46pt"
 viewBox="0.00 0.00 398.00 46.00" xmlns="http://www.w3.org/2000/svg" xmlns:xlink="http://www.w3.org/1999/xlink">
<g id="graph1" class="graph" transform="scale(1 1) rotate(0) translate(4 42)">
<title>G</title>
<polygon fill="white" stroke="white" points="-4,5 -4,-42 395,-42 395,5 -4,5"/>
<!-- Node1 -->
<g id="node1" class="node"><title>Node1</title>
<polygon fill="#bfbfbf" stroke="black" points="0.5,-0.5 0.5,-19.5 71.5,-19.5 71.5,-0.5 0.5,-0.5"/>
<text text-anchor="middle" x="36" y="-7.5" font-family="Helvetica,sans-Serif" font-size="10.00">David_Cross</text>
</g>
<!-- Node2 -->
<g id="node3" class="node"><title>Node2</title>
<a xlink:href="_david___gravity_8h.html#a1f1e600a0c38ffaf69b85505ea4645d0" target="_top" xlink:title="David_Gravity">
<polygon fill="white" stroke="black" points="108.5,-0.5 108.5,-19.5 183.5,-19.5 183.5,-0.5 108.5,-0.5"/>
<text text-anchor="middle" x="146" y="-7.5" font-family="Helvetica,sans-Serif" font-size="10.00">David_Gravity</text>
</a>
</g>
<!-- Node1&#45;&gt;Node2 -->
<g id="edge2" class="edge"><title>Node1&#45;&gt;Node2</title>
<path fill="none" stroke="midnightblue" d="M81.9227,-10C90.7551,-10 99.921,-10 108.438,-10"/>
<polygon fill="midnightblue" stroke="midnightblue" points="81.7664,-6.5001 71.7664,-10 81.7663,-13.5001 81.7664,-6.5001"/>
</g>
<!-- Node2&#45;&gt;Node2 -->
<g id="edge4" class="edge"><title>Node2&#45;&gt;Node2</title>
<path fill="none" stroke="midnightblue" d="M125.631,-29.4C126.991,-34.3146 133.781,-38 146,-38 165.551,-38 171.202,-28.5653 162.954,-19.7571"/>
<polygon fill="midnightblue" stroke="midnightblue" points="129.007,-30.3518 129.046,-19.7571 122.408,-28.0149 129.007,-30.3518"/>
</g>
<!-- Node3 -->
<g id="node6" class="node"><title>Node3</title>
<a xlink:href="_forward_dynamics_8h.html#a23609ae4e05df387941c4bbc7bfc26fe" target="_top" xlink:title="ForwardDynamics">
<polygon fill="white" stroke="black" points="220.5,-0.5 220.5,-19.5 315.5,-19.5 315.5,-0.5 220.5,-0.5"/>
<text text-anchor="middle" x="268" y="-7.5" font-family="Helvetica,sans-Serif" font-size="10.00">ForwardDynamics</text>
</a>
</g>
<!-- Node2&#45;&gt;Node3 -->
<g id="edge6" class="edge"><title>Node2&#45;&gt;Node3</title>
<path fill="none" stroke="midnightblue" d="M193.704,-10C202.461,-10 211.615,-10 220.369,-10"/>
<polygon fill="midnightblue" stroke="midnightblue" points="193.656,-6.5001 183.656,-10 193.656,-13.5001 193.656,-6.5001"/>
</g>
<!-- Node4 -->
<g id="node8" class="node"><title>Node4</title>
<a xlink:href="main_8c.html#a0ddf1224851353fc92bfbff6f499fa97" target="_top" xlink:title="main">
<polygon fill="white" stroke="black" points="352,-0.5 352,-19.5 390,-19.5 390,-0.5 352,-0.5"/>
<text text-anchor="middle" x="371" y="-7.5" font-family="Helvetica,sans-Serif" font-size="10.00">main</text>
</a>
</g>
<!-- Node3&#45;&gt;Node4 -->
<g id="edge8" class="edge"><title>Node3&#45;&gt;Node4</title>
<path fill="none" stroke="midnightblue" d="M325.879,-10C335.25,-10 344.323,-10 351.779,-10"/>
<polygon fill="midnightblue" stroke="midnightblue" points="325.657,-6.5001 315.657,-10 325.657,-13.5001 325.657,-6.5001"/>
</g>
</g>
</svg>
