<?xml version="1.0" encoding="UTF-8" standalone="no"?>
<!DOCTYPE svg PUBLIC "-//W3C//DTD SVG 1.1//EN"
 "http://www.w3.org/Graphics/SVG/1.1/DTD/svg11.dtd">
<!-- Generated by graphviz version 2.28.0 (20110507.0327)
 -->
<!-- Title: G Pages: 1 -->
<svg width="259pt" height="84pt"
 viewBox="0.00 0.00 259.00 84.00" xmlns="http://www.w3.org/2000/svg" xmlns:xlink="http://www.w3.org/1999/xlink">
<g id="graph1" class="graph" transform="scale(1 1) rotate(0) translate(4 80)">
<title>G</title>
<polygon fill="white" stroke="white" points="-4,5 -4,-80 256,-80 256,5 -4,5"/>
<!-- Node1 -->
<g id="node1" class="node"><title>Node1</title>
<polygon fill="#bfbfbf" stroke="black" points="86.5,-56.5 86.5,-75.5 183.5,-75.5 183.5,-56.5 86.5,-56.5"/>
<text text-anchor="middle" x="135" y="-63.5" font-family="Helvetica,sans-Serif" font-size="10.00">David_Rodrigues.h</text>
</g>
<!-- Node2 -->
<g id="node3" class="node"><title>Node2</title>
<a xlink:href="_david___forward_kinematics_8c.html" target="_top" xlink:title="David_ForwardKinematics.c">
<polygon fill="white" stroke="black" points="-0.5,-0.5 -0.5,-19.5 136.5,-19.5 136.5,-0.5 -0.5,-0.5"/>
<text text-anchor="middle" x="68" y="-7.5" font-family="Helvetica,sans-Serif" font-size="10.00">David_ForwardKinematics.c</text>
</a>
</g>
<!-- Node1&#45;&gt;Node2 -->
<g id="edge2" class="edge"><title>Node1&#45;&gt;Node2</title>
<path fill="none" stroke="midnightblue" d="M116.165,-49.8197C104.162,-40.1452 89.0283,-27.9481 78.9606,-19.8339"/>
<polygon fill="midnightblue" stroke="midnightblue" points="114.253,-52.7738 124.235,-56.324 118.646,-47.3236 114.253,-52.7738"/>
</g>
<!-- Node3 -->
<g id="node5" class="node"><title>Node3</title>
<a xlink:href="_david___rodrigues_8c.html" target="_top" xlink:title="David_Rodrigues.c">
<polygon fill="white" stroke="black" points="154.5,-0.5 154.5,-19.5 251.5,-19.5 251.5,-0.5 154.5,-0.5"/>
<text text-anchor="middle" x="203" y="-7.5" font-family="Helvetica,sans-Serif" font-size="10.00">David_Rodrigues.c</text>
</a>
</g>
<!-- Node1&#45;&gt;Node3 -->
<g id="edge4" class="edge"><title>Node1&#45;&gt;Node3</title>
<path fill="none" stroke="midnightblue" d="M153.762,-50.1008C166,-40.3824 181.559,-28.0269 191.876,-19.8339"/>
<polygon fill="midnightblue" stroke="midnightblue" points="151.58,-47.3642 145.925,-56.324 155.933,-52.846 151.58,-47.3642"/>
</g>
</g>
</svg>
