<?xml version="1.0" encoding="UTF-8" standalone="no"?>
<!DOCTYPE svg PUBLIC "-//W3C//DTD SVG 1.1//EN"
 "http://www.w3.org/Graphics/SVG/1.1/DTD/svg11.dtd">
<!-- Generated by graphviz version 2.28.0 (20110507.0327)
 -->
<!-- Title: G Pages: 1 -->
<!--zoomable-->
<svg id="main" version="1.1" xmlns="http://www.w3.org/2000/svg" xmlns:xlink="http://www.w3.org/1999/xlink" xml:space="preserve" onload="init(evt)">
        <defs>
                <circle id="rim" cx="0" cy="0" r="7"/>
                <circle id="rim2" cx="0" cy="0" r="3.5"/>
                <g id="zoomPlus">
                        <use xlink:href="#rim" fill="#404040">
                                <set attributeName="fill" to="#808080" begin="zoomplus.mouseover" end="zoomplus.mouseout"/>
                        </use>
                        <path d="M-4,0h8M0,-4v8" fill="none" stroke="white" stroke-width="1.5" pointer-events="none"/>
                </g>
                <g id="zoomMin">
                        <use xlink:href="#rim" fill="#404040">
                                <set attributeName="fill" to="#808080" begin="zoomminus.mouseover" end="zoomminus.mouseout"/>
                        </use>
                        <path d="M-4,0h8" fill="none" stroke="white" stroke-width="1.5" pointer-events="none"/>
                </g>
                <g id="dirArrow">
                        <path fill="none" stroke="white" stroke-width="1.5" d="M0,-3.0v7 M-2.5,-0.5L0,-3.0L2.5,-0.5"/>
                </g>
               <g id="resetDef">
                       <use xlink:href="#rim2" fill="#404040">
                               <set attributeName="fill" to="#808080" begin="reset.mouseover" end="reset.mouseout"/>
                       </use>
               </g>
        </defs>

<script type="text/javascript">
var viewWidth = 548;
var viewHeight = 192;
var sectionId = 'dynsection-1';
</script>
<script xlink:href="svgpan.js"/>
<svg id="graph" class="graph">
<g id="viewport">
<title>G</title>
<polygon fill="white" stroke="white" points="-4,5 -4,-187.568 545,-187.568 545,5 -4,5"/>
<!-- Node1 -->
<g id="node1" class="node"><title>Node1</title>
<polygon fill="#bfbfbf" stroke="black" points="0,-70.0684 0,-89.0684 94,-89.0684 94,-70.0684 0,-70.0684"/>
<text text-anchor="middle" x="47" y="-77.0684" font-family="Helvetica,sans-Serif" font-size="10.00">David_Stabilizator</text>
</g>
<!-- Node2 -->
<g id="node3" class="node"><title>Node2</title>
<a xlink:href="_david___calc_co_m_8c.html#a87e4908ddc041180e53e28286d691b80" target="_top" xlink:title="David_CalcCoM">
<polygon fill="white" stroke="black" points="130.5,-70.0684 130.5,-89.0684 215.5,-89.0684 215.5,-70.0684 130.5,-70.0684"/>
<text text-anchor="middle" x="173" y="-77.0684" font-family="Helvetica,sans-Serif" font-size="10.00">David_CalcCoM</text>
</a>
</g>
<!-- Node1&#45;&gt;Node2 -->
<g id="edge2" class="edge"><title>Node1&#45;&gt;Node2</title>
<path fill="none" stroke="midnightblue" d="M94.173,-79.5684C102.686,-79.5684 111.625,-79.5684 120.288,-79.5684"/>
<polygon fill="midnightblue" stroke="midnightblue" points="120.289,-83.0685 130.289,-79.5684 120.289,-76.0685 120.289,-83.0685"/>
</g>
<!-- Node3 -->
<g id="node5" class="node"><title>Node3</title>
<a xlink:href="_mat_8c.html#a245892f5cf1ad342b2baa13a352892d3" target="_top" xlink:title="MatClrf">
<polygon fill="white" stroke="black" points="273.5,-164.068 273.5,-183.068 320.5,-183.068 320.5,-164.068 273.5,-164.068"/>
<text text-anchor="middle" x="297" y="-171.068" font-family="Helvetica,sans-Serif" font-size="10.00">MatClrf</text>
</a>
</g>
<!-- Node1&#45;&gt;Node3 -->
<g id="edge24" class="edge"><title>Node1&#45;&gt;Node3</title>
<path fill="none" stroke="midnightblue" d="M73.1443,-89.0989C118.515,-106.296 213.989,-142.484 263.963,-161.425"/>
<polygon fill="midnightblue" stroke="midnightblue" points="262.732,-164.702 273.323,-164.973 265.213,-158.156 262.732,-164.702"/>
</g>
<!-- Node7 -->
<g id="node14" class="node"><title>Node7</title>
<a xlink:href="_mat_8c.html#a63a68223bbacc69c068f6a3bdb4b428a" target="_top" xlink:title="MatCpyf">
<polygon fill="white" stroke="black" points="486.5,-33.0684 486.5,-52.0684 539.5,-52.0684 539.5,-33.0684 486.5,-33.0684"/>
<text text-anchor="middle" x="513" y="-40.0684" font-family="Helvetica,sans-Serif" font-size="10.00">MatCpyf</text>
</a>
</g>
<!-- Node1&#45;&gt;Node7 -->
<g id="edge26" class="edge"><title>Node1&#45;&gt;Node7</title>
<path fill="none" stroke="midnightblue" d="M77.4308,-70.0359C116.818,-57.5813 189.023,-35.8059 252,-22.5684 307.359,-10.9322 321.574,-8.57846 378,-4.56837 409.919,-2.29992 419.202,4.11887 450,-4.56837 465.492,-8.93821 480.932,-18.3812 492.528,-26.7601"/>
<polygon fill="midnightblue" stroke="midnightblue" points="490.499,-29.6134 500.584,-32.8584 494.724,-24.0322 490.499,-29.6134"/>
</g>
<!-- Node2&#45;&gt;Node3 -->
<g id="edge4" class="edge"><title>Node2&#45;&gt;Node3</title>
<path fill="none" stroke="midnightblue" d="M182.208,-89.4878C195.513,-105.059 223.214,-135.431 252,-154.568 255.766,-157.072 259.915,-159.368 264.116,-161.433"/>
<polygon fill="midnightblue" stroke="midnightblue" points="262.712,-164.64 273.265,-165.574 265.598,-158.262 262.712,-164.64"/>
</g>
<!-- Node4 -->
<g id="node7" class="node"><title>Node4</title>
<a xlink:href="_david___total_mass_8c.html#a3d576eef04375cf190383f1440ef5600" target="_top" xlink:title="David_TotalMass">
<polygon fill="white" stroke="black" points="252,-108.068 252,-127.068 342,-127.068 342,-108.068 252,-108.068"/>
<text text-anchor="middle" x="297" y="-115.068" font-family="Helvetica,sans-Serif" font-size="10.00">David_TotalMass</text>
</a>
</g>
<!-- Node2&#45;&gt;Node4 -->
<g id="edge6" class="edge"><title>Node2&#45;&gt;Node4</title>
<path fill="none" stroke="midnightblue" d="M204.786,-89.1574C220.101,-93.9278 238.817,-99.7571 255.3,-104.891"/>
<polygon fill="midnightblue" stroke="midnightblue" points="254.636,-108.35 265.224,-107.982 256.717,-101.667 254.636,-108.35"/>
</g>
<!-- Node5 -->
<g id="node10" class="node"><title>Node5</title>
<a xlink:href="_david___calc_m_c_8c.html#a5877c51babeda61b69280e4dc6ed28dd" target="_top" xlink:title="David_CalcMC">
<polygon fill="white" stroke="black" points="257,-52.0684 257,-71.0684 337,-71.0684 337,-52.0684 257,-52.0684"/>
<text text-anchor="middle" x="297" y="-59.0684" font-family="Helvetica,sans-Serif" font-size="10.00">David_CalcMC</text>
</a>
</g>
<!-- Node2&#45;&gt;Node5 -->
<g id="edge10" class="edge"><title>Node2&#45;&gt;Node5</title>
<path fill="none" stroke="midnightblue" d="M215.644,-73.4241C225.584,-71.9576 236.289,-70.3781 246.543,-68.8653"/>
<polygon fill="midnightblue" stroke="midnightblue" points="247.219,-72.3036 256.601,-67.3814 246.197,-65.3786 247.219,-72.3036"/>
</g>
<!-- Node9 -->
<g id="node18" class="node"><title>Node9</title>
<a xlink:href="_mat_8c.html#a9f566ce4c8ca2381358f2134cdd4e9e7" target="_top" xlink:title="MatMulScalf">
<polygon fill="white" stroke="black" points="378.5,-14.0684 378.5,-33.0684 449.5,-33.0684 449.5,-14.0684 378.5,-14.0684"/>
<text text-anchor="middle" x="414" y="-21.0684" font-family="Helvetica,sans-Serif" font-size="10.00">MatMulScalf</text>
</a>
</g>
<!-- Node2&#45;&gt;Node9 -->
<g id="edge22" class="edge"><title>Node2&#45;&gt;Node9</title>
<path fill="none" stroke="midnightblue" d="M190.122,-70.0017C205.481,-61.3594 229.531,-49.0343 252,-42.5684 290.318,-31.5417 335.531,-26.9006 368.273,-24.9544"/>
<polygon fill="midnightblue" stroke="midnightblue" points="368.642,-28.4398 378.441,-24.4125 368.269,-21.4497 368.642,-28.4398"/>
</g>
<!-- Node4&#45;&gt;Node4 -->
<g id="edge8" class="edge"><title>Node4&#45;&gt;Node4</title>
<path fill="none" stroke="midnightblue" d="M279.121,-127.325C270.423,-136.134 276.383,-145.568 297,-145.568 309.886,-145.568 317.046,-141.883 318.48,-136.968"/>
<polygon fill="midnightblue" stroke="midnightblue" points="321.657,-135.469 314.879,-127.325 315.099,-137.918 321.657,-135.469"/>
</g>
<!-- Node5&#45;&gt;Node5 -->
<g id="edge20" class="edge"><title>Node5&#45;&gt;Node5</title>
<path fill="none" stroke="midnightblue" d="M279.121,-71.3254C270.423,-80.1336 276.383,-89.5684 297,-89.5684 309.886,-89.5684 317.046,-85.8829 318.48,-80.9684"/>
<polygon fill="midnightblue" stroke="midnightblue" points="321.657,-79.4688 314.879,-71.3254 315.099,-81.918 321.657,-79.4688"/>
</g>
<!-- Node6 -->
<g id="node12" class="node"><title>Node6</title>
<a xlink:href="_mat_8c.html#ae5dcc36ff446d01426b9ce7fbd5e1f83" target="_top" xlink:title="MatMulf">
<polygon fill="white" stroke="black" points="388.5,-90.0684 388.5,-109.068 439.5,-109.068 439.5,-90.0684 388.5,-90.0684"/>
<text text-anchor="middle" x="414" y="-97.0684" font-family="Helvetica,sans-Serif" font-size="10.00">MatMulf</text>
</a>
</g>
<!-- Node5&#45;&gt;Node6 -->
<g id="edge12" class="edge"><title>Node5&#45;&gt;Node6</title>
<path fill="none" stroke="midnightblue" d="M327.019,-71.1574C342.668,-76.3284 362.083,-82.7436 378.501,-88.1688"/>
<polygon fill="midnightblue" stroke="midnightblue" points="377.683,-91.5846 388.277,-91.3989 379.88,-84.9381 377.683,-91.5846"/>
</g>
<!-- Node8 -->
<g id="node16" class="node"><title>Node8</title>
<a xlink:href="_mat_8c.html#aa4b0ec687e717aa5243535ca86cf60c3" target="_top" xlink:title="MatAddf">
<polygon fill="white" stroke="black" points="387.5,-52.0684 387.5,-71.0684 440.5,-71.0684 440.5,-52.0684 387.5,-52.0684"/>
<text text-anchor="middle" x="414" y="-59.0684" font-family="Helvetica,sans-Serif" font-size="10.00">MatAddf</text>
</a>
</g>
<!-- Node5&#45;&gt;Node8 -->
<g id="edge16" class="edge"><title>Node5&#45;&gt;Node8</title>
<path fill="none" stroke="midnightblue" d="M337.255,-61.5684C350.167,-61.5684 364.448,-61.5684 377.097,-61.5684"/>
<polygon fill="midnightblue" stroke="midnightblue" points="377.273,-65.0685 387.273,-61.5684 377.273,-58.0685 377.273,-65.0685"/>
</g>
<!-- Node5&#45;&gt;Node9 -->
<g id="edge18" class="edge"><title>Node5&#45;&gt;Node9</title>
<path fill="none" stroke="midnightblue" d="M327.019,-51.9794C341.32,-47.2539 358.765,-41.4895 374.195,-36.391"/>
<polygon fill="midnightblue" stroke="midnightblue" points="375.593,-39.6151 383.99,-33.1543 373.397,-32.9686 375.593,-39.6151"/>
</g>
<!-- Node6&#45;&gt;Node7 -->
<g id="edge14" class="edge"><title>Node6&#45;&gt;Node7</title>
<path fill="none" stroke="midnightblue" d="M433.266,-89.8868C438.685,-86.9517 444.611,-83.6797 450,-80.5684 462.768,-73.1967 476.789,-64.6429 488.263,-57.5195"/>
<polygon fill="midnightblue" stroke="midnightblue" points="490.216,-60.4267 496.846,-52.1633 486.51,-54.4882 490.216,-60.4267"/>
</g>
</g>
</svg>
        <g id="navigator" transform="translate(0 0)" fill="#404254">
                <rect fill="#f2f5e9" fill-opacity="0.5" stroke="#606060" stroke-width=".5" x="0" y="0" width="60" height="60"/>
                <use id="zoomplus" xlink:href="#zoomPlus" x="17" y="9" onmousedown="handleZoom(evt,'in')"/>
                <use id="zoomminus" xlink:href="#zoomMin" x="42" y="9" onmousedown="handleZoom(evt,'out')"/>
                <use id="reset" xlink:href="#resetDef" x="30" y="36" onmousedown="handleReset()"/>
                <g id="arrowUp" xlink:href="#dirArrow" transform="translate(30 24)" onmousedown="handlePan(0,-1)">
                  <use xlink:href="#rim" fill="#404040">
                        <set attributeName="fill" to="#808080" begin="arrowUp.mouseover" end="arrowUp.mouseout"/>
                  </use>
                  <path fill="none" stroke="white" stroke-width="1.5" d="M0,-3.0v7 M-2.5,-0.5L0,-3.0L2.5,-0.5"/>
                </g>
                <g id="arrowRight" xlink:href="#dirArrow" transform="rotate(90) translate(36 -43)" onmousedown="handlePan(1,0)">
                  <use xlink:href="#rim" fill="#404040">
                        <set attributeName="fill" to="#808080" begin="arrowRight.mouseover" end="arrowRight.mouseout"/>
                  </use>
                  <path fill="none" stroke="white" stroke-width="1.5" d="M0,-3.0v7 M-2.5,-0.5L0,-3.0L2.5,-0.5"/>
                </g>
                <g id="arrowDown" xlink:href="#dirArrow" transform="rotate(180) translate(-30 -48)" onmousedown="handlePan(0,1)">
                  <use xlink:href="#rim" fill="#404040">
                        <set attributeName="fill" to="#808080" begin="arrowDown.mouseover" end="arrowDown.mouseout"/>
                  </use>
                  <path fill="none" stroke="white" stroke-width="1.5" d="M0,-3.0v7 M-2.5,-0.5L0,-3.0L2.5,-0.5"/>
                </g>
                <g id="arrowLeft" xlink:href="#dirArrow" transform="rotate(270) translate(-36 17)" onmousedown="handlePan(-1,0)">
                  <use xlink:href="#rim" fill="#404040">
                        <set attributeName="fill" to="#808080" begin="arrowLeft.mouseover" end="arrowLeft.mouseout"/>
                  </use>
                  <path fill="none" stroke="white" stroke-width="1.5" d="M0,-3.0v7 M-2.5,-0.5L0,-3.0L2.5,-0.5"/>
                </g>
        </g>
</svg>
