<?xml version="1.0" encoding="UTF-8" standalone="no"?>
<!DOCTYPE svg PUBLIC "-//W3C//DTD SVG 1.1//EN"
 "http://www.w3.org/Graphics/SVG/1.1/DTD/svg11.dtd">
<!-- Generated by graphviz version 2.28.0 (20110507.0327)
 -->
<!-- Title: G Pages: 1 -->
<svg width="364pt" height="84pt"
 viewBox="0.00 0.00 364.00 84.00" xmlns="http://www.w3.org/2000/svg" xmlns:xlink="http://www.w3.org/1999/xlink">
<g id="graph1" class="graph" transform="scale(1 1) rotate(0) translate(4 80)">
<title>G</title>
<polygon fill="white" stroke="white" points="-4,5 -4,-80 361,-80 361,5 -4,5"/>
<!-- Node1 -->
<g id="node1" class="node"><title>Node1</title>
<polygon fill="#bfbfbf" stroke="black" points="126.5,-56.5 126.5,-75.5 263.5,-75.5 263.5,-56.5 126.5,-56.5"/>
<text text-anchor="middle" x="195" y="-63.5" font-family="Helvetica,sans-Serif" font-size="10.00">David_ForwardKinematics.h</text>
</g>
<!-- Node2 -->
<g id="node3" class="node"><title>Node2</title>
<a xlink:href="_david___forward_kinematics_8c.html" target="_top" xlink:title="David_ForwardKinematics.c">
<polygon fill="white" stroke="black" points="-0.5,-0.5 -0.5,-19.5 136.5,-19.5 136.5,-0.5 -0.5,-0.5"/>
<text text-anchor="middle" x="68" y="-7.5" font-family="Helvetica,sans-Serif" font-size="10.00">David_ForwardKinematics.c</text>
</a>
</g>
<!-- Node1&#45;&gt;Node2 -->
<g id="edge2" class="edge"><title>Node1&#45;&gt;Node2</title>
<path fill="none" stroke="midnightblue" d="M165.609,-52.503C141.8,-42.3795 108.894,-28.388 88.0294,-19.5164"/>
<polygon fill="midnightblue" stroke="midnightblue" points="164.304,-55.7515 174.876,-56.4435 167.043,-49.3096 164.304,-55.7515"/>
</g>
<!-- Node3 -->
<g id="node5" class="node"><title>Node3</title>
<a xlink:href="_david__u_l_i_n_k_8c.html" target="_top" xlink:title="David_uLINK.c">
<polygon fill="white" stroke="black" points="155,-0.5 155,-19.5 235,-19.5 235,-0.5 155,-0.5"/>
<text text-anchor="middle" x="195" y="-7.5" font-family="Helvetica,sans-Serif" font-size="10.00">David_uLINK.c</text>
</a>
</g>
<!-- Node1&#45;&gt;Node3 -->
<g id="edge4" class="edge"><title>Node1&#45;&gt;Node3</title>
<path fill="none" stroke="midnightblue" d="M195,-45.8045C195,-36.9102 195,-26.7798 195,-19.7511"/>
<polygon fill="midnightblue" stroke="midnightblue" points="191.5,-46.083 195,-56.083 198.5,-46.083 191.5,-46.083"/>
</g>
<!-- Node4 -->
<g id="node7" class="node"><title>Node4</title>
<a xlink:href="_forward_dynamics_8c.html" target="_top" xlink:title="ForwardDynamics.c">
<polygon fill="white" stroke="black" points="253.5,-0.5 253.5,-19.5 356.5,-19.5 356.5,-0.5 253.5,-0.5"/>
<text text-anchor="middle" x="305" y="-7.5" font-family="Helvetica,sans-Serif" font-size="10.00">ForwardDynamics.c</text>
</a>
</g>
<!-- Node1&#45;&gt;Node4 -->
<g id="edge6" class="edge"><title>Node1&#45;&gt;Node4</title>
<path fill="none" stroke="midnightblue" d="M221.762,-51.8622C242.159,-41.8492 269.666,-28.3458 287.37,-19.6545"/>
<polygon fill="midnightblue" stroke="midnightblue" points="220.108,-48.7753 212.673,-56.324 223.192,-55.059 220.108,-48.7753"/>
</g>
</g>
</svg>
