<?xml version="1.0" encoding="UTF-8" standalone="no"?>
<!DOCTYPE svg PUBLIC "-//W3C//DTD SVG 1.1//EN"
 "http://www.w3.org/Graphics/SVG/1.1/DTD/svg11.dtd">
<!-- Generated by graphviz version 2.28.0 (20110507.0327)
 -->
<!-- Title: G Pages: 1 -->
<!--zoomable-->
<svg id="main" version="1.1" xmlns="http://www.w3.org/2000/svg" xmlns:xlink="http://www.w3.org/1999/xlink" xml:space="preserve" onload="init(evt)">
        <defs>
                <circle id="rim" cx="0" cy="0" r="7"/>
                <circle id="rim2" cx="0" cy="0" r="3.5"/>
                <g id="zoomPlus">
                        <use xlink:href="#rim" fill="#404040">
                                <set attributeName="fill" to="#808080" begin="zoomplus.mouseover" end="zoomplus.mouseout"/>
                        </use>
                        <path d="M-4,0h8M0,-4v8" fill="none" stroke="white" stroke-width="1.5" pointer-events="none"/>
                </g>
                <g id="zoomMin">
                        <use xlink:href="#rim" fill="#404040">
                                <set attributeName="fill" to="#808080" begin="zoomminus.mouseover" end="zoomminus.mouseout"/>
                        </use>
                        <path d="M-4,0h8" fill="none" stroke="white" stroke-width="1.5" pointer-events="none"/>
                </g>
                <g id="dirArrow">
                        <path fill="none" stroke="white" stroke-width="1.5" d="M0,-3.0v7 M-2.5,-0.5L0,-3.0L2.5,-0.5"/>
                </g>
               <g id="resetDef">
                       <use xlink:href="#rim2" fill="#404040">
                               <set attributeName="fill" to="#808080" begin="reset.mouseover" end="reset.mouseout"/>
                       </use>
               </g>
        </defs>

<script type="text/javascript">
var viewWidth = 534;
var viewHeight = 413;
var sectionId = 'dynsection-1';
</script>
<script xlink:href="svgpan.js"/>
<svg id="graph" class="graph">
<g id="viewport">
<title>G</title>
<polygon fill="white" stroke="white" points="-4,5 -4,-408.932 531,-408.932 531,5 -4,5"/>
<!-- Node1 -->
<g id="node1" class="node"><title>Node1</title>
<polygon fill="#bfbfbf" stroke="black" points="0.5,-189.5 0.5,-208.5 75.5,-208.5 75.5,-189.5 0.5,-189.5"/>
<text text-anchor="middle" x="38" y="-196.5" font-family="Helvetica,sans-Serif" font-size="10.00">David_Gravity</text>
</g>
<!-- Node1&#45;&gt;Node1 -->
<g id="edge44" class="edge"><title>Node1&#45;&gt;Node1</title>
<path fill="none" stroke="midnightblue" d="M19.8128,-208.757C10.9649,-217.565 17.0273,-227 38,-227 51.4356,-227 58.752,-223.128 59.9493,-218.029"/>
<polygon fill="midnightblue" stroke="midnightblue" points="63.1902,-216.707 56.1872,-208.757 56.7038,-219.339 63.1902,-216.707"/>
</g>
<!-- Node2 -->
<g id="node3" class="node"><title>Node2</title>
<a xlink:href="_mat_8c.html#a245892f5cf1ad342b2baa13a352892d3" target="_top" xlink:title="MatClrf">
<polygon fill="white" stroke="black" points="259.5,-264.5 259.5,-283.5 306.5,-283.5 306.5,-264.5 259.5,-264.5"/>
<text text-anchor="middle" x="283" y="-271.5" font-family="Helvetica,sans-Serif" font-size="10.00">MatClrf</text>
</a>
</g>
<!-- Node1&#45;&gt;Node2 -->
<g id="edge2" class="edge"><title>Node1&#45;&gt;Node2</title>
<path fill="none" stroke="midnightblue" d="M70.2705,-208.651C116.487,-222.916 202.606,-249.496 249.512,-263.973"/>
<polygon fill="midnightblue" stroke="midnightblue" points="248.585,-267.35 259.172,-266.954 250.649,-260.661 248.585,-267.35"/>
</g>
<!-- Node3 -->
<g id="node5" class="node"><title>Node3</title>
<a xlink:href="_mat_8c.html#ae5dcc36ff446d01426b9ce7fbd5e1f83" target="_top" xlink:title="MatMulf">
<polygon fill="white" stroke="black" points="374.5,-340.5 374.5,-359.5 425.5,-359.5 425.5,-340.5 374.5,-340.5"/>
<text text-anchor="middle" x="400" y="-347.5" font-family="Helvetica,sans-Serif" font-size="10.00">MatMulf</text>
</a>
</g>
<!-- Node1&#45;&gt;Node3 -->
<g id="edge4" class="edge"><title>Node1&#45;&gt;Node3</title>
<path fill="none" stroke="midnightblue" d="M41.2115,-208.595C47.477,-233.429 67.8299,-300.028 112,-331 188.403,-384.573 306.189,-370.058 364.231,-358.312"/>
<polygon fill="midnightblue" stroke="midnightblue" points="365.293,-361.665 374.35,-356.168 363.842,-354.817 365.293,-361.665"/>
</g>
<!-- Node4 -->
<g id="node7" class="node"><title>Node4</title>
<a xlink:href="_mat_8c.html#a63a68223bbacc69c068f6a3bdb4b428a" target="_top" xlink:title="MatCpyf">
<polygon fill="white" stroke="black" points="472.5,-340.5 472.5,-359.5 525.5,-359.5 525.5,-340.5 472.5,-340.5"/>
<text text-anchor="middle" x="499" y="-347.5" font-family="Helvetica,sans-Serif" font-size="10.00">MatCpyf</text>
</a>
</g>
<!-- Node1&#45;&gt;Node4 -->
<g id="edge38" class="edge"><title>Node1&#45;&gt;Node4</title>
<path fill="none" stroke="midnightblue" d="M40.1794,-208.594C44.2249,-237.055 60.2781,-321.483 112,-361 218.337,-442.245 393.526,-390.104 465.544,-363.192"/>
<polygon fill="midnightblue" stroke="midnightblue" points="466.911,-366.416 475.004,-359.578 464.413,-359.877 466.911,-366.416"/>
</g>
<!-- Node5 -->
<g id="node9" class="node"><title>Node5</title>
<a xlink:href="_mat_8c.html#aa4b0ec687e717aa5243535ca86cf60c3" target="_top" xlink:title="MatAddf">
<polygon fill="white" stroke="black" points="373.5,-114.5 373.5,-133.5 426.5,-133.5 426.5,-114.5 373.5,-114.5"/>
<text text-anchor="middle" x="400" y="-121.5" font-family="Helvetica,sans-Serif" font-size="10.00">MatAddf</text>
</a>
</g>
<!-- Node1&#45;&gt;Node5 -->
<g id="edge8" class="edge"><title>Node1&#45;&gt;Node5</title>
<path fill="none" stroke="midnightblue" d="M50.1484,-189.168C63.8702,-177.494 88.2778,-158.088 112,-146 164.47,-119.262 179.837,-114.225 238,-105 277.506,-98.7341 288.341,-99.7853 328,-105 339.72,-106.541 352.256,-109.455 363.482,-112.546"/>
<polygon fill="midnightblue" stroke="midnightblue" points="362.783,-115.988 373.362,-115.401 364.726,-109.263 362.783,-115.988"/>
</g>
<!-- Node6 -->
<g id="node11" class="node"><title>Node6</title>
<a xlink:href="_mat_8c.html#ae8e0d9d094b36fd7aa5d222e70d93953" target="_top" xlink:title="MatProVectorielf">
<polygon fill="white" stroke="black" points="112.5,-302.5 112.5,-321.5 201.5,-321.5 201.5,-302.5 112.5,-302.5"/>
<text text-anchor="middle" x="157" y="-309.5" font-family="Helvetica,sans-Serif" font-size="10.00">MatProVectorielf</text>
</a>
</g>
<!-- Node1&#45;&gt;Node6 -->
<g id="edge10" class="edge"><title>Node1&#45;&gt;Node6</title>
<path fill="none" stroke="midnightblue" d="M48.8898,-208.676C62.8981,-222.369 89.3385,-248.165 112,-270 120.669,-278.353 130.343,-287.596 138.407,-295.279"/>
<polygon fill="midnightblue" stroke="midnightblue" points="136.182,-297.992 145.838,-302.351 141.008,-292.922 136.182,-297.992"/>
</g>
<!-- Node8 -->
<g id="node16" class="node"><title>Node8</title>
<a xlink:href="_david___calc_co_m_8c.html#a87e4908ddc041180e53e28286d691b80" target="_top" xlink:title="David_CalcCoM">
<polygon fill="white" stroke="black" points="114.5,-189.5 114.5,-208.5 199.5,-208.5 199.5,-189.5 114.5,-189.5"/>
<text text-anchor="middle" x="157" y="-196.5" font-family="Helvetica,sans-Serif" font-size="10.00">David_CalcCoM</text>
</a>
</g>
<!-- Node1&#45;&gt;Node8 -->
<g id="edge16" class="edge"><title>Node1&#45;&gt;Node8</title>
<path fill="none" stroke="midnightblue" d="M75.6985,-199C84.6556,-199 94.4085,-199 103.931,-199"/>
<polygon fill="midnightblue" stroke="midnightblue" points="104.126,-202.5 114.126,-199 104.126,-195.5 104.126,-202.5"/>
</g>
<!-- Node9 -->
<g id="node19" class="node"><title>Node9</title>
<a xlink:href="_david___total_mass_8c.html#a3d576eef04375cf190383f1440ef5600" target="_top" xlink:title="David_TotalMass">
<polygon fill="white" stroke="black" points="238,-114.5 238,-133.5 328,-133.5 328,-114.5 238,-114.5"/>
<text text-anchor="middle" x="283" y="-121.5" font-family="Helvetica,sans-Serif" font-size="10.00">David_TotalMass</text>
</a>
</g>
<!-- Node1&#45;&gt;Node9 -->
<g id="edge36" class="edge"><title>Node1&#45;&gt;Node9</title>
<path fill="none" stroke="midnightblue" d="M70.2705,-189.349C113.831,-175.904 192.841,-151.518 241.053,-136.638"/>
<polygon fill="midnightblue" stroke="midnightblue" points="242.326,-139.908 250.849,-133.614 240.262,-133.219 242.326,-139.908"/>
</g>
<!-- Node12 -->
<g id="node32" class="node"><title>Node12</title>
<a xlink:href="_david___cross_8c.html#a575fbbe98ba6d596f8b981a25516710e" target="_top" xlink:title="David_Cross">
<polygon fill="white" stroke="black" points="364.5,-57.5 364.5,-76.5 435.5,-76.5 435.5,-57.5 364.5,-57.5"/>
<text text-anchor="middle" x="400" y="-64.5" font-family="Helvetica,sans-Serif" font-size="10.00">David_Cross</text>
</a>
</g>
<!-- Node1&#45;&gt;Node12 -->
<g id="edge40" class="edge"><title>Node1&#45;&gt;Node12</title>
<path fill="none" stroke="midnightblue" d="M43.6154,-189.295C53.2945,-170.124 77.6924,-127.566 112,-108 188.51,-64.3653 294.525,-61.2272 353.958,-63.6104"/>
<polygon fill="midnightblue" stroke="midnightblue" points="353.989,-67.1157 364.143,-64.0918 354.319,-60.1235 353.989,-67.1157"/>
</g>
<!-- Node13 -->
<g id="node36" class="node"><title>Node13</title>
<a xlink:href="_mat_8c.html#a6c57f1cba877524ae0db527511183bd6" target="_top" xlink:title="MatProScalf">
<polygon fill="white" stroke="black" points="122,-0.5 122,-19.5 192,-19.5 192,-0.5 122,-0.5"/>
<text text-anchor="middle" x="157" y="-7.5" font-family="Helvetica,sans-Serif" font-size="10.00">MatProScalf</text>
</a>
</g>
<!-- Node1&#45;&gt;Node13 -->
<g id="edge46" class="edge"><title>Node1&#45;&gt;Node13</title>
<path fill="none" stroke="midnightblue" d="M40.9949,-189.228C47.0642,-161.663 67.6633,-82.1691 112,-34 115.134,-30.5948 118.865,-27.5686 122.81,-24.9109"/>
<polygon fill="midnightblue" stroke="midnightblue" points="124.821,-27.7876 131.638,-19.6772 121.251,-21.7662 124.821,-27.7876"/>
</g>
<!-- Node3&#45;&gt;Node4 -->
<g id="edge6" class="edge"><title>Node3&#45;&gt;Node4</title>
<path fill="none" stroke="midnightblue" d="M425.728,-350C436.755,-350 449.96,-350 462.048,-350"/>
<polygon fill="midnightblue" stroke="midnightblue" points="462.301,-353.5 472.301,-350 462.301,-346.5 462.301,-353.5"/>
</g>
<!-- Node6&#45;&gt;Node3 -->
<g id="edge14" class="edge"><title>Node6&#45;&gt;Node3</title>
<path fill="none" stroke="midnightblue" d="M194.455,-321.597C208.05,-324.928 223.662,-328.46 238,-331 281.263,-338.664 331.63,-344.046 364.35,-347.079"/>
<polygon fill="midnightblue" stroke="midnightblue" points="364.047,-350.566 374.322,-347.982 364.678,-343.595 364.047,-350.566"/>
</g>
<!-- Node7 -->
<g id="node13" class="node"><title>Node7</title>
<a xlink:href="_mat_8c.html#a048190ee0aceb657fc3830bf279359b3" target="_top" xlink:title="MatTildef">
<polygon fill="white" stroke="black" points="255,-302.5 255,-321.5 311,-321.5 311,-302.5 255,-302.5"/>
<text text-anchor="middle" x="283" y="-309.5" font-family="Helvetica,sans-Serif" font-size="10.00">MatTildef</text>
</a>
</g>
<!-- Node6&#45;&gt;Node7 -->
<g id="edge12" class="edge"><title>Node6&#45;&gt;Node7</title>
<path fill="none" stroke="midnightblue" d="M201.718,-312C215.693,-312 231.028,-312 244.518,-312"/>
<polygon fill="midnightblue" stroke="midnightblue" points="244.88,-315.5 254.88,-312 244.88,-308.5 244.88,-315.5"/>
</g>
<!-- Node8&#45;&gt;Node2 -->
<g id="edge18" class="edge"><title>Node8&#45;&gt;Node2</title>
<path fill="none" stroke="midnightblue" d="M169.964,-208.54C185.178,-220.393 212.539,-240.786 238,-255 241.76,-257.099 245.797,-259.126 249.847,-261.024"/>
<polygon fill="midnightblue" stroke="midnightblue" points="248.634,-264.315 259.193,-265.192 251.486,-257.922 248.634,-264.315"/>
</g>
<!-- Node8&#45;&gt;Node9 -->
<g id="edge20" class="edge"><title>Node8&#45;&gt;Node9</title>
<path fill="none" stroke="midnightblue" d="M173.957,-189.349C195.069,-176.579 232.5,-153.939 257.285,-138.949"/>
<polygon fill="midnightblue" stroke="midnightblue" points="259.359,-141.785 266.104,-133.614 255.736,-135.795 259.359,-141.785"/>
</g>
<!-- Node10 -->
<g id="node22" class="node"><title>Node10</title>
<a xlink:href="_david___calc_m_c_8c.html#a5877c51babeda61b69280e4dc6ed28dd" target="_top" xlink:title="David_CalcMC">
<polygon fill="white" stroke="black" points="243,-208.5 243,-227.5 323,-227.5 323,-208.5 243,-208.5"/>
<text text-anchor="middle" x="283" y="-215.5" font-family="Helvetica,sans-Serif" font-size="10.00">David_CalcMC</text>
</a>
</g>
<!-- Node8&#45;&gt;Node10 -->
<g id="edge24" class="edge"><title>Node8&#45;&gt;Node10</title>
<path fill="none" stroke="midnightblue" d="M199.635,-205.38C210.301,-207.014 221.871,-208.787 232.876,-210.473"/>
<polygon fill="midnightblue" stroke="midnightblue" points="232.365,-213.935 242.78,-211.991 233.426,-207.016 232.365,-213.935"/>
</g>
<!-- Node11 -->
<g id="node26" class="node"><title>Node11</title>
<a xlink:href="_mat_8c.html#a9f566ce4c8ca2381358f2134cdd4e9e7" target="_top" xlink:title="MatMulScalf">
<polygon fill="white" stroke="black" points="364.5,-189.5 364.5,-208.5 435.5,-208.5 435.5,-189.5 364.5,-189.5"/>
<text text-anchor="middle" x="400" y="-196.5" font-family="Helvetica,sans-Serif" font-size="10.00">MatMulScalf</text>
</a>
</g>
<!-- Node8&#45;&gt;Node11 -->
<g id="edge34" class="edge"><title>Node8&#45;&gt;Node11</title>
<path fill="none" stroke="midnightblue" d="M199.704,-199C242.858,-199 310.021,-199 354.262,-199"/>
<polygon fill="midnightblue" stroke="midnightblue" points="354.436,-202.5 364.436,-199 354.435,-195.5 354.436,-202.5"/>
</g>
<!-- Node9&#45;&gt;Node9 -->
<g id="edge22" class="edge"><title>Node9&#45;&gt;Node9</title>
<path fill="none" stroke="midnightblue" d="M265.121,-133.757C256.423,-142.565 262.383,-152 283,-152 295.886,-152 303.046,-148.315 304.48,-143.4"/>
<polygon fill="midnightblue" stroke="midnightblue" points="307.657,-141.9 300.879,-133.757 301.099,-144.35 307.657,-141.9"/>
</g>
<!-- Node10&#45;&gt;Node3 -->
<g id="edge26" class="edge"><title>Node10&#45;&gt;Node3</title>
<path fill="none" stroke="midnightblue" d="M297.006,-227.648C306.147,-234.727 318.407,-244.84 328,-255 351.308,-279.686 374.046,-311.982 387.278,-331.845"/>
<polygon fill="midnightblue" stroke="midnightblue" points="384.397,-333.833 392.814,-340.267 390.246,-329.988 384.397,-333.833"/>
</g>
<!-- Node10&#45;&gt;Node5 -->
<g id="edge28" class="edge"><title>Node10&#45;&gt;Node5</title>
<path fill="none" stroke="midnightblue" d="M295.874,-208.294C315.603,-192.168 355.331,-159.694 379.308,-140.096"/>
<polygon fill="midnightblue" stroke="midnightblue" points="381.834,-142.551 387.362,-133.513 377.404,-137.132 381.834,-142.551"/>
</g>
<!-- Node10&#45;&gt;Node10 -->
<g id="edge32" class="edge"><title>Node10&#45;&gt;Node10</title>
<path fill="none" stroke="midnightblue" d="M265.121,-227.757C256.423,-236.565 262.383,-246 283,-246 295.886,-246 303.046,-242.315 304.48,-237.4"/>
<polygon fill="midnightblue" stroke="midnightblue" points="307.657,-235.9 300.879,-227.757 301.099,-238.35 307.657,-235.9"/>
</g>
<!-- Node10&#45;&gt;Node11 -->
<g id="edge30" class="edge"><title>Node10&#45;&gt;Node11</title>
<path fill="none" stroke="midnightblue" d="M323.255,-211.514C333.21,-209.87 343.98,-208.09 354.187,-206.404"/>
<polygon fill="midnightblue" stroke="midnightblue" points="354.862,-209.84 364.157,-204.757 353.72,-202.934 354.862,-209.84"/>
</g>
<!-- Node12&#45;&gt;Node4 -->
<g id="edge42" class="edge"><title>Node12&#45;&gt;Node4</title>
<path fill="none" stroke="midnightblue" d="M412.365,-76.5338C420.116,-83.6274 430.023,-93.9569 436,-105 477.41,-181.509 491.867,-286.477 496.281,-329.921"/>
<polygon fill="midnightblue" stroke="midnightblue" points="492.811,-330.403 497.236,-340.029 499.78,-329.744 492.811,-330.403"/>
</g>
</g>
</svg>
        <g id="navigator" transform="translate(0 0)" fill="#404254">
                <rect fill="#f2f5e9" fill-opacity="0.5" stroke="#606060" stroke-width=".5" x="0" y="0" width="60" height="60"/>
                <use id="zoomplus" xlink:href="#zoomPlus" x="17" y="9" onmousedown="handleZoom(evt,'in')"/>
                <use id="zoomminus" xlink:href="#zoomMin" x="42" y="9" onmousedown="handleZoom(evt,'out')"/>
                <use id="reset" xlink:href="#resetDef" x="30" y="36" onmousedown="handleReset()"/>
                <g id="arrowUp" xlink:href="#dirArrow" transform="translate(30 24)" onmousedown="handlePan(0,-1)">
                  <use xlink:href="#rim" fill="#404040">
                        <set attributeName="fill" to="#808080" begin="arrowUp.mouseover" end="arrowUp.mouseout"/>
                  </use>
                  <path fill="none" stroke="white" stroke-width="1.5" d="M0,-3.0v7 M-2.5,-0.5L0,-3.0L2.5,-0.5"/>
                </g>
                <g id="arrowRight" xlink:href="#dirArrow" transform="rotate(90) translate(36 -43)" onmousedown="handlePan(1,0)">
                  <use xlink:href="#rim" fill="#404040">
                        <set attributeName="fill" to="#808080" begin="arrowRight.mouseover" end="arrowRight.mouseout"/>
                  </use>
                  <path fill="none" stroke="white" stroke-width="1.5" d="M0,-3.0v7 M-2.5,-0.5L0,-3.0L2.5,-0.5"/>
                </g>
                <g id="arrowDown" xlink:href="#dirArrow" transform="rotate(180) translate(-30 -48)" onmousedown="handlePan(0,1)">
                  <use xlink:href="#rim" fill="#404040">
                        <set attributeName="fill" to="#808080" begin="arrowDown.mouseover" end="arrowDown.mouseout"/>
                  </use>
                  <path fill="none" stroke="white" stroke-width="1.5" d="M0,-3.0v7 M-2.5,-0.5L0,-3.0L2.5,-0.5"/>
                </g>
                <g id="arrowLeft" xlink:href="#dirArrow" transform="rotate(270) translate(-36 17)" onmousedown="handlePan(-1,0)">
                  <use xlink:href="#rim" fill="#404040">
                        <set attributeName="fill" to="#808080" begin="arrowLeft.mouseover" end="arrowLeft.mouseout"/>
                  </use>
                  <path fill="none" stroke="white" stroke-width="1.5" d="M0,-3.0v7 M-2.5,-0.5L0,-3.0L2.5,-0.5"/>
                </g>
        </g>
</svg>
