<?xml version="1.0" encoding="UTF-8" standalone="no"?>
<!DOCTYPE svg PUBLIC "-//W3C//DTD SVG 1.1//EN"
 "http://www.w3.org/Graphics/SVG/1.1/DTD/svg11.dtd">
<!-- Generated by graphviz version 2.28.0 (20110507.0327)
 -->
<!-- Title: G Pages: 1 -->
<svg width="204pt" height="84pt"
 viewBox="0.00 0.00 204.00 84.00" xmlns="http://www.w3.org/2000/svg" xmlns:xlink="http://www.w3.org/1999/xlink">
<g id="graph1" class="graph" transform="scale(1 1) rotate(0) translate(4 80)">
<title>G</title>
<polygon fill="white" stroke="white" points="-4,5 -4,-80 201,-80 201,5 -4,5"/>
<!-- Node1 -->
<g id="node1" class="node"><title>Node1</title>
<polygon fill="#bfbfbf" stroke="black" points="44,-56.5 44,-75.5 142,-75.5 142,-56.5 44,-56.5"/>
<text text-anchor="middle" x="93" y="-63.5" font-family="Helvetica,sans-Serif" font-size="10.00">David_TotalMass.c</text>
</g>
<!-- Node2 -->
<g id="node3" class="node"><title>Node2</title>
<a xlink:href="_david__u_l_i_n_k_8h.html" target="_top" xlink:title="Link initialisation and declarations (used in control loop)">
<polygon fill="white" stroke="black" points="0,-0.5 0,-19.5 80,-19.5 80,-0.5 0,-0.5"/>
<text text-anchor="middle" x="40" y="-7.5" font-family="Helvetica,sans-Serif" font-size="10.00">David_uLINK.h</text>
</a>
</g>
<!-- Node1&#45;&gt;Node2 -->
<g id="edge2" class="edge"><title>Node1&#45;&gt;Node2</title>
<path fill="none" stroke="midnightblue" d="M84.2481,-56.083C76.5303,-48.2195 65.0953,-36.5688 55.7835,-27.0813"/>
<polygon fill="midnightblue" stroke="midnightblue" points="58.0916,-24.4363 48.589,-19.7511 53.0958,-29.3396 58.0916,-24.4363"/>
</g>
<!-- Node3 -->
<g id="node5" class="node"><title>Node3</title>
<a xlink:href="_david___total_mass_8h.html" target="_top" xlink:title="David_TotalMass.h">
<polygon fill="white" stroke="black" points="98,-0.5 98,-19.5 196,-19.5 196,-0.5 98,-0.5"/>
<text text-anchor="middle" x="147" y="-7.5" font-family="Helvetica,sans-Serif" font-size="10.00">David_TotalMass.h</text>
</a>
</g>
<!-- Node1&#45;&gt;Node3 -->
<g id="edge4" class="edge"><title>Node1&#45;&gt;Node3</title>
<path fill="none" stroke="midnightblue" d="M101.917,-56.083C109.78,-48.2195 121.431,-36.5688 130.919,-27.0813"/>
<polygon fill="midnightblue" stroke="midnightblue" points="133.653,-29.2971 138.249,-19.7511 128.703,-24.3473 133.653,-29.2971"/>
</g>
</g>
</svg>
