<?xml version="1.0" encoding="UTF-8" standalone="no"?>
<!DOCTYPE svg PUBLIC "-//W3C//DTD SVG 1.1//EN"
 "http://www.w3.org/Graphics/SVG/1.1/DTD/svg11.dtd">
<!-- Generated by graphviz version 2.28.0 (20110507.0327)
 -->
<!-- Title: G Pages: 1 -->
<svg width="311pt" height="84pt"
 viewBox="0.00 0.00 311.00 84.00" xmlns="http://www.w3.org/2000/svg" xmlns:xlink="http://www.w3.org/1999/xlink">
<g id="graph1" class="graph" transform="scale(1 1) rotate(0) translate(4 80)">
<title>G</title>
<polygon fill="white" stroke="white" points="-4,5 -4,-80 308,-80 308,5 -4,5"/>
<!-- Node1 -->
<g id="node1" class="node"><title>Node1</title>
<polygon fill="#bfbfbf" stroke="black" points="79.5,-56.5 79.5,-75.5 242.5,-75.5 242.5,-56.5 79.5,-56.5"/>
<text text-anchor="middle" x="161" y="-63.5" font-family="Helvetica,sans-Serif" font-size="10.00">David_InverseSherpaKinematics.h</text>
</g>
<!-- Node2 -->
<g id="node3" class="node"><title>Node2</title>
<a xlink:href="_david___inverse_sherpa_kinematics_8c.html" target="_top" xlink:title="David_InverseSherpaKinematics.c">
<polygon fill="white" stroke="black" points="-0.5,-0.5 -0.5,-19.5 162.5,-19.5 162.5,-0.5 -0.5,-0.5"/>
<text text-anchor="middle" x="81" y="-7.5" font-family="Helvetica,sans-Serif" font-size="10.00">David_InverseSherpaKinematics.c</text>
</a>
</g>
<!-- Node1&#45;&gt;Node2 -->
<g id="edge2" class="edge"><title>Node1&#45;&gt;Node2</title>
<path fill="none" stroke="midnightblue" d="M139.699,-50.6221C125.085,-40.7574 106.173,-27.9919 93.8215,-19.6545"/>
<polygon fill="midnightblue" stroke="midnightblue" points="137.9,-53.6302 148.147,-56.324 141.816,-47.8282 137.9,-53.6302"/>
</g>
<!-- Node3 -->
<g id="node5" class="node"><title>Node3</title>
<a xlink:href="_david___static_trajectory_8c.html" target="_top" xlink:title="David_StaticTrajectory.c">
<polygon fill="white" stroke="black" points="181,-0.5 181,-19.5 303,-19.5 303,-0.5 181,-0.5"/>
<text text-anchor="middle" x="242" y="-7.5" font-family="Helvetica,sans-Serif" font-size="10.00">David_StaticTrajectory.c</text>
</a>
</g>
<!-- Node1&#45;&gt;Node3 -->
<g id="edge4" class="edge"><title>Node1&#45;&gt;Node3</title>
<path fill="none" stroke="midnightblue" d="M182.567,-50.6221C197.364,-40.7574 216.512,-27.9919 229.018,-19.6545"/>
<polygon fill="midnightblue" stroke="midnightblue" points="180.393,-47.8647 174.014,-56.324 184.276,-53.6891 180.393,-47.8647"/>
</g>
</g>
</svg>
