<?xml version="1.0" encoding="UTF-8" standalone="no"?>
<!DOCTYPE svg PUBLIC "-//W3C//DTD SVG 1.1//EN"
 "http://www.w3.org/Graphics/SVG/1.1/DTD/svg11.dtd">
<!-- Generated by graphviz version 2.28.0 (20110507.0327)
 -->
<!-- Title: G Pages: 1 -->
<!--zoomable-->
<svg id="main" version="1.1" xmlns="http://www.w3.org/2000/svg" xmlns:xlink="http://www.w3.org/1999/xlink" xml:space="preserve" onload="init(evt)">
        <defs>
                <circle id="rim" cx="0" cy="0" r="7"/>
                <circle id="rim2" cx="0" cy="0" r="3.5"/>
                <g id="zoomPlus">
                        <use xlink:href="#rim" fill="#404040">
                                <set attributeName="fill" to="#808080" begin="zoomplus.mouseover" end="zoomplus.mouseout"/>
                        </use>
                        <path d="M-4,0h8M0,-4v8" fill="none" stroke="white" stroke-width="1.5" pointer-events="none"/>
                </g>
                <g id="zoomMin">
                        <use xlink:href="#rim" fill="#404040">
                                <set attributeName="fill" to="#808080" begin="zoomminus.mouseover" end="zoomminus.mouseout"/>
                        </use>
                        <path d="M-4,0h8" fill="none" stroke="white" stroke-width="1.5" pointer-events="none"/>
                </g>
                <g id="dirArrow">
                        <path fill="none" stroke="white" stroke-width="1.5" d="M0,-3.0v7 M-2.5,-0.5L0,-3.0L2.5,-0.5"/>
                </g>
               <g id="resetDef">
                       <use xlink:href="#rim2" fill="#404040">
                               <set attributeName="fill" to="#808080" begin="reset.mouseover" end="reset.mouseout"/>
                       </use>
               </g>
        </defs>

<script type="text/javascript">
var viewWidth = 546;
var viewHeight = 122;
var sectionId = 'dynsection-2';
</script>
<script xlink:href="svgpan.js"/>
<svg id="graph" class="graph">
<g id="viewport">
<title>G</title>
<polygon fill="white" stroke="white" points="-4,5 -4,-118 543,-118 543,5 -4,5"/>
<!-- Node1 -->
<g id="node1" class="node"><title>Node1</title>
<polygon fill="#bfbfbf" stroke="black" points="0,-38.5 0,-57.5 80,-57.5 80,-38.5 0,-38.5"/>
<text text-anchor="middle" x="40" y="-45.5" font-family="Helvetica,sans-Serif" font-size="10.00">David_CalcMC</text>
</g>
<!-- Node1&#45;&gt;Node1 -->
<g id="edge16" class="edge"><title>Node1&#45;&gt;Node1</title>
<path fill="none" stroke="midnightblue" d="M18.0507,-67.0292C19.248,-72.128 26.5644,-76 40,-76 60.9727,-76 67.0351,-66.5653 58.1872,-57.7571"/>
<polygon fill="midnightblue" stroke="midnightblue" points="21.2962,-68.3393 21.8128,-57.7571 14.8098,-65.7074 21.2962,-68.3393"/>
</g>
<!-- Node2 -->
<g id="node3" class="node"><title>Node2</title>
<a xlink:href="_david___calc_co_m_8h.html#a87e4908ddc041180e53e28286d691b80" target="_top" xlink:title="David_CalcCoM">
<polygon fill="white" stroke="black" points="116.5,-38.5 116.5,-57.5 201.5,-57.5 201.5,-38.5 116.5,-38.5"/>
<text text-anchor="middle" x="159" y="-45.5" font-family="Helvetica,sans-Serif" font-size="10.00">David_CalcCoM</text>
</a>
</g>
<!-- Node1&#45;&gt;Node2 -->
<g id="edge2" class="edge"><title>Node1&#45;&gt;Node2</title>
<path fill="none" stroke="midnightblue" d="M90.533,-48C99.0827,-48 107.894,-48 116.213,-48"/>
<polygon fill="midnightblue" stroke="midnightblue" points="90.2848,-44.5001 80.2848,-48 90.2848,-51.5001 90.2848,-44.5001"/>
</g>
<!-- Node3 -->
<g id="node5" class="node"><title>Node3</title>
<a xlink:href="_david___gravity_8h.html#a1f1e600a0c38ffaf69b85505ea4645d0" target="_top" xlink:title="David_Gravity">
<polygon fill="white" stroke="black" points="247.5,-76.5 247.5,-95.5 322.5,-95.5 322.5,-76.5 247.5,-76.5"/>
<text text-anchor="middle" x="285" y="-83.5" font-family="Helvetica,sans-Serif" font-size="10.00">David_Gravity</text>
</a>
</g>
<!-- Node2&#45;&gt;Node3 -->
<g id="edge4" class="edge"><title>Node2&#45;&gt;Node3</title>
<path fill="none" stroke="midnightblue" d="M200.905,-60.5353C217.773,-65.7048 237.008,-71.5991 252.72,-76.4141"/>
<polygon fill="midnightblue" stroke="midnightblue" points="201.877,-57.1727 191.29,-57.589 199.826,-63.8655 201.877,-57.1727"/>
</g>
<!-- Node4 -->
<g id="node8" class="node"><title>Node4</title>
<a xlink:href="_forward_dynamics_8h.html#a23609ae4e05df387941c4bbc7bfc26fe" target="_top" xlink:title="ForwardDynamics">
<polygon fill="white" stroke="black" points="368.5,-57.5 368.5,-76.5 463.5,-76.5 463.5,-57.5 368.5,-57.5"/>
<text text-anchor="middle" x="416" y="-64.5" font-family="Helvetica,sans-Serif" font-size="10.00">ForwardDynamics</text>
</a>
</g>
<!-- Node2&#45;&gt;Node4 -->
<g id="edge14" class="edge"><title>Node2&#45;&gt;Node4</title>
<path fill="none" stroke="midnightblue" d="M211.574,-51.8428C257.449,-55.2609 323.952,-60.216 368.289,-63.5196"/>
<polygon fill="midnightblue" stroke="midnightblue" points="211.77,-48.3478 201.538,-51.095 211.25,-55.3284 211.77,-48.3478"/>
</g>
<!-- Node6 -->
<g id="node12" class="node"><title>Node6</title>
<a xlink:href="_david___stabilizator_8h.html#a160d145abfa84a49d710ddcb384990ef" target="_top" xlink:title="David_Stabilizator">
<polygon fill="white" stroke="black" points="238,-0.5 238,-19.5 332,-19.5 332,-0.5 238,-0.5"/>
<text text-anchor="middle" x="285" y="-7.5" font-family="Helvetica,sans-Serif" font-size="10.00">David_Stabilizator</text>
</a>
</g>
<!-- Node2&#45;&gt;Node6 -->
<g id="edge12" class="edge"><title>Node2&#45;&gt;Node6</title>
<path fill="none" stroke="midnightblue" d="M200.905,-35.4647C217.773,-30.2952 237.008,-24.4009 252.72,-19.5859"/>
<polygon fill="midnightblue" stroke="midnightblue" points="199.826,-32.1345 191.29,-38.411 201.877,-38.8273 199.826,-32.1345"/>
</g>
<!-- Node3&#45;&gt;Node3 -->
<g id="edge6" class="edge"><title>Node3&#45;&gt;Node3</title>
<path fill="none" stroke="midnightblue" d="M261.563,-105.029C262.841,-110.128 270.654,-114 285,-114 307.395,-114 313.868,-104.565 304.42,-95.7571"/>
<polygon fill="midnightblue" stroke="midnightblue" points="264.816,-106.324 265.58,-95.7571 258.393,-103.541 264.816,-106.324"/>
</g>
<!-- Node3&#45;&gt;Node4 -->
<g id="edge8" class="edge"><title>Node3&#45;&gt;Node4</title>
<path fill="none" stroke="midnightblue" d="M332.54,-79.1452C344.121,-77.4395 356.541,-75.6102 368.137,-73.9023"/>
<polygon fill="midnightblue" stroke="midnightblue" points="332.004,-75.6863 322.621,-80.6062 333.024,-82.6116 332.004,-75.6863"/>
</g>
<!-- Node5 -->
<g id="node10" class="node"><title>Node5</title>
<a xlink:href="main_8c.html#a0ddf1224851353fc92bfbff6f499fa97" target="_top" xlink:title="main">
<polygon fill="white" stroke="black" points="500,-57.5 500,-76.5 538,-76.5 538,-57.5 500,-57.5"/>
<text text-anchor="middle" x="519" y="-64.5" font-family="Helvetica,sans-Serif" font-size="10.00">main</text>
</a>
</g>
<!-- Node4&#45;&gt;Node5 -->
<g id="edge10" class="edge"><title>Node4&#45;&gt;Node5</title>
<path fill="none" stroke="midnightblue" d="M473.879,-67C483.25,-67 492.323,-67 499.779,-67"/>
<polygon fill="midnightblue" stroke="midnightblue" points="473.657,-63.5001 463.657,-67 473.657,-70.5001 473.657,-63.5001"/>
</g>
</g>
</svg>
        <g id="navigator" transform="translate(0 0)" fill="#404254">
                <rect fill="#f2f5e9" fill-opacity="0.5" stroke="#606060" stroke-width=".5" x="0" y="0" width="60" height="60"/>
                <use id="zoomplus" xlink:href="#zoomPlus" x="17" y="9" onmousedown="handleZoom(evt,'in')"/>
                <use id="zoomminus" xlink:href="#zoomMin" x="42" y="9" onmousedown="handleZoom(evt,'out')"/>
                <use id="reset" xlink:href="#resetDef" x="30" y="36" onmousedown="handleReset()"/>
                <g id="arrowUp" xlink:href="#dirArrow" transform="translate(30 24)" onmousedown="handlePan(0,-1)">
                  <use xlink:href="#rim" fill="#404040">
                        <set attributeName="fill" to="#808080" begin="arrowUp.mouseover" end="arrowUp.mouseout"/>
                  </use>
                  <path fill="none" stroke="white" stroke-width="1.5" d="M0,-3.0v7 M-2.5,-0.5L0,-3.0L2.5,-0.5"/>
                </g>
                <g id="arrowRight" xlink:href="#dirArrow" transform="rotate(90) translate(36 -43)" onmousedown="handlePan(1,0)">
                  <use xlink:href="#rim" fill="#404040">
                        <set attributeName="fill" to="#808080" begin="arrowRight.mouseover" end="arrowRight.mouseout"/>
                  </use>
                  <path fill="none" stroke="white" stroke-width="1.5" d="M0,-3.0v7 M-2.5,-0.5L0,-3.0L2.5,-0.5"/>
                </g>
                <g id="arrowDown" xlink:href="#dirArrow" transform="rotate(180) translate(-30 -48)" onmousedown="handlePan(0,1)">
                  <use xlink:href="#rim" fill="#404040">
                        <set attributeName="fill" to="#808080" begin="arrowDown.mouseover" end="arrowDown.mouseout"/>
                  </use>
                  <path fill="none" stroke="white" stroke-width="1.5" d="M0,-3.0v7 M-2.5,-0.5L0,-3.0L2.5,-0.5"/>
                </g>
                <g id="arrowLeft" xlink:href="#dirArrow" transform="rotate(270) translate(-36 17)" onmousedown="handlePan(-1,0)">
                  <use xlink:href="#rim" fill="#404040">
                        <set attributeName="fill" to="#808080" begin="arrowLeft.mouseover" end="arrowLeft.mouseout"/>
                  </use>
                  <path fill="none" stroke="white" stroke-width="1.5" d="M0,-3.0v7 M-2.5,-0.5L0,-3.0L2.5,-0.5"/>
                </g>
        </g>
</svg>
