<?xml version="1.0" encoding="UTF-8" standalone="no"?>
<!DOCTYPE svg PUBLIC "-//W3C//DTD SVG 1.1//EN"
 "http://www.w3.org/Graphics/SVG/1.1/DTD/svg11.dtd">
<!-- Generated by graphviz version 2.28.0 (20110507.0327)
 -->
<!-- Title: G Pages: 1 -->
<svg width="207pt" height="84pt"
 viewBox="0.00 0.00 207.00 84.00" xmlns="http://www.w3.org/2000/svg" xmlns:xlink="http://www.w3.org/1999/xlink">
<g id="graph1" class="graph" transform="scale(1 1) rotate(0) translate(4 80)">
<title>G</title>
<polygon fill="white" stroke="white" points="-4,5 -4,-80 204,-80 204,5 -4,5"/>
<!-- Node1 -->
<g id="node1" class="node"><title>Node1</title>
<polygon fill="#bfbfbf" stroke="black" points="56,-56.5 56,-75.5 144,-75.5 144,-56.5 56,-56.5"/>
<text text-anchor="middle" x="100" y="-63.5" font-family="Helvetica,sans-Serif" font-size="10.00">David_CalcMC.h</text>
</g>
<!-- Node2 -->
<g id="node3" class="node"><title>Node2</title>
<a xlink:href="_david___calc_co_m_8c.html" target="_top" xlink:title="David_CalcCoM.c">
<polygon fill="white" stroke="black" points="-0.5,-0.5 -0.5,-19.5 92.5,-19.5 92.5,-0.5 -0.5,-0.5"/>
<text text-anchor="middle" x="46" y="-7.5" font-family="Helvetica,sans-Serif" font-size="10.00">David_CalcCoM.c</text>
</a>
</g>
<!-- Node1&#45;&gt;Node2 -->
<g id="edge2" class="edge"><title>Node1&#45;&gt;Node2</title>
<path fill="none" stroke="midnightblue" d="M84.0024,-49.0024C74.4329,-39.4329 62.6389,-27.6389 54.7511,-19.7511"/>
<polygon fill="midnightblue" stroke="midnightblue" points="81.537,-51.4868 91.083,-56.083 86.4868,-46.537 81.537,-51.4868"/>
</g>
<!-- Node3 -->
<g id="node5" class="node"><title>Node3</title>
<a xlink:href="_david___calc_m_c_8c.html" target="_top" xlink:title="David_CalcMC.c">
<polygon fill="white" stroke="black" points="111,-0.5 111,-19.5 199,-19.5 199,-0.5 111,-0.5"/>
<text text-anchor="middle" x="155" y="-7.5" font-family="Helvetica,sans-Serif" font-size="10.00">David_CalcMC.c</text>
</a>
</g>
<!-- Node1&#45;&gt;Node3 -->
<g id="edge4" class="edge"><title>Node1&#45;&gt;Node3</title>
<path fill="none" stroke="midnightblue" d="M116.294,-49.0024C126.041,-39.4329 138.053,-27.6389 146.087,-19.7511"/>
<polygon fill="midnightblue" stroke="midnightblue" points="113.766,-46.5796 109.082,-56.083 118.67,-51.5746 113.766,-46.5796"/>
</g>
</g>
</svg>
