<?xml version="1.0" encoding="UTF-8" standalone="no"?>
<!DOCTYPE svg PUBLIC "-//W3C//DTD SVG 1.1//EN"
 "http://www.w3.org/Graphics/SVG/1.1/DTD/svg11.dtd">
<!-- Generated by graphviz version 2.28.0 (20110507.0327)
 -->
<!-- Title: G Pages: 1 -->
<svg width="251pt" height="84pt"
 viewBox="0.00 0.00 251.00 84.00" xmlns="http://www.w3.org/2000/svg" xmlns:xlink="http://www.w3.org/1999/xlink">
<g id="graph1" class="graph" transform="scale(1 1) rotate(0) translate(4 80)">
<title>G</title>
<polygon fill="white" stroke="white" points="-4,5 -4,-80 248,-80 248,5 -4,5"/>
<!-- Node1 -->
<g id="node1" class="node"><title>Node1</title>
<polygon fill="#bfbfbf" stroke="black" points="65,-56.5 65,-75.5 187,-75.5 187,-56.5 65,-56.5"/>
<text text-anchor="middle" x="126" y="-63.5" font-family="Helvetica,sans-Serif" font-size="10.00">David_StaticTrajectory.h</text>
</g>
<!-- Node2 -->
<g id="node3" class="node"><title>Node2</title>
<a xlink:href="_david___static_trajectory_8c.html" target="_top" xlink:title="David_StaticTrajectory.c">
<polygon fill="white" stroke="black" points="0,-0.5 0,-19.5 122,-19.5 122,-0.5 0,-0.5"/>
<text text-anchor="middle" x="61" y="-7.5" font-family="Helvetica,sans-Serif" font-size="10.00">David_StaticTrajectory.c</text>
</a>
</g>
<!-- Node1&#45;&gt;Node2 -->
<g id="edge2" class="edge"><title>Node1&#45;&gt;Node2</title>
<path fill="none" stroke="midnightblue" d="M107.727,-49.8197C96.0822,-40.1452 81.4005,-27.9481 71.6334,-19.8339"/>
<polygon fill="midnightblue" stroke="midnightblue" points="105.628,-52.6259 115.557,-56.324 110.101,-47.2416 105.628,-52.6259"/>
</g>
<!-- Node3 -->
<g id="node5" class="node"><title>Node3</title>
<a xlink:href="_forward_dynamics_8c.html" target="_top" xlink:title="ForwardDynamics.c">
<polygon fill="white" stroke="black" points="140.5,-0.5 140.5,-19.5 243.5,-19.5 243.5,-0.5 140.5,-0.5"/>
<text text-anchor="middle" x="192" y="-7.5" font-family="Helvetica,sans-Serif" font-size="10.00">ForwardDynamics.c</text>
</a>
</g>
<!-- Node1&#45;&gt;Node3 -->
<g id="edge4" class="edge"><title>Node1&#45;&gt;Node3</title>
<path fill="none" stroke="midnightblue" d="M144.554,-49.8197C156.378,-40.1452 171.286,-27.9481 181.203,-19.8339"/>
<polygon fill="midnightblue" stroke="midnightblue" points="142.127,-47.2827 136.604,-56.324 146.56,-52.7004 142.127,-47.2827"/>
</g>
</g>
</svg>
