<?xml version="1.0" encoding="UTF-8" standalone="no"?>
<!DOCTYPE svg PUBLIC "-//W3C//DTD SVG 1.1//EN"
 "http://www.w3.org/Graphics/SVG/1.1/DTD/svg11.dtd">
<!-- Generated by graphviz version 2.28.0 (20110507.0327)
 -->
<!-- Title: G Pages: 1 -->
<!--zoomable-->
<svg id="main" version="1.1" xmlns="http://www.w3.org/2000/svg" xmlns:xlink="http://www.w3.org/1999/xlink" xml:space="preserve" onload="init(evt)">
        <defs>
                <circle id="rim" cx="0" cy="0" r="7"/>
                <circle id="rim2" cx="0" cy="0" r="3.5"/>
                <g id="zoomPlus">
                        <use xlink:href="#rim" fill="#404040">
                                <set attributeName="fill" to="#808080" begin="zoomplus.mouseover" end="zoomplus.mouseout"/>
                        </use>
                        <path d="M-4,0h8M0,-4v8" fill="none" stroke="white" stroke-width="1.5" pointer-events="none"/>
                </g>
                <g id="zoomMin">
                        <use xlink:href="#rim" fill="#404040">
                                <set attributeName="fill" to="#808080" begin="zoomminus.mouseover" end="zoomminus.mouseout"/>
                        </use>
                        <path d="M-4,0h8" fill="none" stroke="white" stroke-width="1.5" pointer-events="none"/>
                </g>
                <g id="dirArrow">
                        <path fill="none" stroke="white" stroke-width="1.5" d="M0,-3.0v7 M-2.5,-0.5L0,-3.0L2.5,-0.5"/>
                </g>
               <g id="resetDef">
                       <use xlink:href="#rim2" fill="#404040">
                               <set attributeName="fill" to="#808080" begin="reset.mouseover" end="reset.mouseout"/>
                       </use>
               </g>
        </defs>

<script type="text/javascript">
var viewWidth = 592;
var viewHeight = 256;
var sectionId = 'dynsection-1';
</script>
<script xlink:href="svgpan.js"/>
<svg id="graph" class="graph">
<g id="viewport">
<title>G</title>
<polygon fill="white" stroke="white" points="-4,5 -4,-252 589,-252 589,5 -4,5"/>
<!-- Node1 -->
<g id="node1" class="node"><title>Node1</title>
<polygon fill="#bfbfbf" stroke="black" points="0,-151.5 0,-170.5 96,-170.5 96,-151.5 0,-151.5"/>
<text text-anchor="middle" x="48" y="-158.5" font-family="Helvetica,sans-Serif" font-size="10.00">David_SetupRobot</text>
</g>
<!-- Node2 -->
<g id="node3" class="node"><title>Node2</title>
<a xlink:href="_mat_8c.html#a245892f5cf1ad342b2baa13a352892d3" target="_top" xlink:title="MatClrf">
<polygon fill="white" stroke="black" points="172.5,-207.5 172.5,-226.5 219.5,-226.5 219.5,-207.5 172.5,-207.5"/>
<text text-anchor="middle" x="196" y="-214.5" font-family="Helvetica,sans-Serif" font-size="10.00">MatClrf</text>
</a>
</g>
<!-- Node1&#45;&gt;Node2 -->
<g id="edge2" class="edge"><title>Node1&#45;&gt;Node2</title>
<path fill="none" stroke="midnightblue" d="M68.4979,-170.534C85.1363,-178.464 109.82,-189.749 132,-198 141.775,-201.636 152.589,-205.095 162.459,-208.041"/>
<polygon fill="midnightblue" stroke="midnightblue" points="161.74,-211.476 172.319,-210.911 163.696,-204.755 161.74,-211.476"/>
</g>
<!-- Node3 -->
<g id="node5" class="node"><title>Node3</title>
<a xlink:href="_david___find_mother_8c.html#a6a77c2a87c6fa7845d007e4cb968ff0f" target="_top" xlink:title="David_FindMother">
<polygon fill="white" stroke="black" points="149,-151.5 149,-170.5 243,-170.5 243,-151.5 149,-151.5"/>
<text text-anchor="middle" x="196" y="-158.5" font-family="Helvetica,sans-Serif" font-size="10.00">David_FindMother</text>
</a>
</g>
<!-- Node1&#45;&gt;Node3 -->
<g id="edge4" class="edge"><title>Node1&#45;&gt;Node3</title>
<path fill="none" stroke="midnightblue" d="M96.402,-161C109.936,-161 124.815,-161 138.82,-161"/>
<polygon fill="midnightblue" stroke="midnightblue" points="138.831,-164.5 148.831,-161 138.831,-157.5 138.831,-164.5"/>
</g>
<!-- Node4 -->
<g id="node8" class="node"><title>Node4</title>
<a xlink:href="_david___forward_kinematics_8c.html#ab4a9975fbdb8a88c795a8f0b5bf0bf97" target="_top" xlink:title="David_ForwardKinematics">
<polygon fill="white" stroke="black" points="132,-95.5 132,-114.5 260,-114.5 260,-95.5 132,-95.5"/>
<text text-anchor="middle" x="196" y="-102.5" font-family="Helvetica,sans-Serif" font-size="10.00">David_ForwardKinematics</text>
</a>
</g>
<!-- Node1&#45;&gt;Node4 -->
<g id="edge8" class="edge"><title>Node1&#45;&gt;Node4</title>
<path fill="none" stroke="midnightblue" d="M74.0983,-151.373C97.9555,-142.223 134.034,-128.384 160.571,-118.206"/>
<polygon fill="midnightblue" stroke="midnightblue" points="162.146,-121.35 170.229,-114.501 159.639,-114.815 162.146,-121.35"/>
</g>
<!-- Node3&#45;&gt;Node3 -->
<g id="edge6" class="edge"><title>Node3&#45;&gt;Node3</title>
<path fill="none" stroke="midnightblue" d="M173.805,-170.757C163.008,-179.565 170.406,-189 196,-189 212.796,-189 221.756,-184.937 222.879,-179.654"/>
<polygon fill="midnightblue" stroke="midnightblue" points="225.951,-177.975 218.195,-170.757 219.757,-181.236 225.951,-177.975"/>
</g>
<!-- Node4&#45;&gt;Node4 -->
<g id="edge38" class="edge"><title>Node4&#45;&gt;Node4</title>
<path fill="none" stroke="midnightblue" d="M173.805,-114.757C163.008,-123.565 170.406,-133 196,-133 212.796,-133 221.756,-128.937 222.879,-123.654"/>
<polygon fill="midnightblue" stroke="midnightblue" points="225.951,-121.975 218.195,-114.757 219.757,-125.236 225.951,-121.975"/>
</g>
<!-- Node5 -->
<g id="node10" class="node"><title>Node5</title>
<a xlink:href="_mat_8c.html#ae5dcc36ff446d01426b9ce7fbd5e1f83" target="_top" xlink:title="MatMulf">
<polygon fill="white" stroke="black" points="432.5,-38.5 432.5,-57.5 483.5,-57.5 483.5,-38.5 432.5,-38.5"/>
<text text-anchor="middle" x="458" y="-45.5" font-family="Helvetica,sans-Serif" font-size="10.00">MatMulf</text>
</a>
</g>
<!-- Node4&#45;&gt;Node5 -->
<g id="edge10" class="edge"><title>Node4&#45;&gt;Node5</title>
<path fill="none" stroke="midnightblue" d="M248.931,-95.4728C287.009,-88.2654 339.888,-77.7943 386,-67 398.012,-64.1882 411.077,-60.7904 422.687,-57.6501"/>
<polygon fill="midnightblue" stroke="midnightblue" points="423.731,-60.9933 432.452,-54.978 421.883,-54.2415 423.731,-60.9933"/>
</g>
<!-- Node7 -->
<g id="node14" class="node"><title>Node7</title>
<a xlink:href="_mat_8c.html#aa4b0ec687e717aa5243535ca86cf60c3" target="_top" xlink:title="MatAddf">
<polygon fill="white" stroke="black" points="431.5,-228.5 431.5,-247.5 484.5,-247.5 484.5,-228.5 431.5,-228.5"/>
<text text-anchor="middle" x="458" y="-235.5" font-family="Helvetica,sans-Serif" font-size="10.00">MatAddf</text>
</a>
</g>
<!-- Node4&#45;&gt;Node7 -->
<g id="edge14" class="edge"><title>Node4&#45;&gt;Node7</title>
<path fill="none" stroke="midnightblue" d="M215.699,-114.565C260.75,-137.611 375.514,-196.317 428.898,-223.625"/>
<polygon fill="midnightblue" stroke="midnightblue" points="427.625,-226.905 438.122,-228.343 430.813,-220.673 427.625,-226.905"/>
</g>
<!-- Node8 -->
<g id="node16" class="node"><title>Node8</title>
<a xlink:href="_david___rodrigues_8c.html#a60a6dbedf38702ef67715eb17c6efadc" target="_top" xlink:title="David_Rodrigues">
<polygon fill="white" stroke="black" points="296.5,-114.5 296.5,-133.5 385.5,-133.5 385.5,-114.5 296.5,-114.5"/>
<text text-anchor="middle" x="341" y="-121.5" font-family="Helvetica,sans-Serif" font-size="10.00">David_Rodrigues</text>
</a>
</g>
<!-- Node4&#45;&gt;Node8 -->
<g id="edge16" class="edge"><title>Node4&#45;&gt;Node8</title>
<path fill="none" stroke="midnightblue" d="M260.138,-113.389C268.862,-114.548 277.754,-115.729 286.285,-116.863"/>
<polygon fill="midnightblue" stroke="midnightblue" points="286.102,-120.369 296.476,-118.217 287.025,-113.43 286.102,-120.369"/>
</g>
<!-- Node14 -->
<g id="node30" class="node"><title>Node14</title>
<a xlink:href="_mat_8c.html#ae8e0d9d094b36fd7aa5d222e70d93953" target="_top" xlink:title="MatProVectorielf">
<polygon fill="white" stroke="black" points="296.5,-38.5 296.5,-57.5 385.5,-57.5 385.5,-38.5 296.5,-38.5"/>
<text text-anchor="middle" x="341" y="-45.5" font-family="Helvetica,sans-Serif" font-size="10.00">MatProVectorielf</text>
</a>
</g>
<!-- Node4&#45;&gt;Node14 -->
<g id="edge32" class="edge"><title>Node4&#45;&gt;Node14</title>
<path fill="none" stroke="midnightblue" d="M220.935,-95.4595C244.342,-86.1295 280.195,-71.8384 306.443,-61.3758"/>
<polygon fill="midnightblue" stroke="midnightblue" points="307.994,-64.5256 315.987,-57.5716 305.402,-58.0232 307.994,-64.5256"/>
</g>
<!-- Node6 -->
<g id="node12" class="node"><title>Node6</title>
<a xlink:href="_mat_8c.html#a63a68223bbacc69c068f6a3bdb4b428a" target="_top" xlink:title="MatCpyf">
<polygon fill="white" stroke="black" points="530.5,-38.5 530.5,-57.5 583.5,-57.5 583.5,-38.5 530.5,-38.5"/>
<text text-anchor="middle" x="557" y="-45.5" font-family="Helvetica,sans-Serif" font-size="10.00">MatCpyf</text>
</a>
</g>
<!-- Node5&#45;&gt;Node6 -->
<g id="edge12" class="edge"><title>Node5&#45;&gt;Node6</title>
<path fill="none" stroke="midnightblue" d="M483.728,-48C494.755,-48 507.96,-48 520.048,-48"/>
<polygon fill="midnightblue" stroke="midnightblue" points="520.301,-51.5001 530.301,-48 520.301,-44.5001 520.301,-51.5001"/>
</g>
<!-- Node8&#45;&gt;Node5 -->
<g id="edge30" class="edge"><title>Node8&#45;&gt;Node5</title>
<path fill="none" stroke="midnightblue" d="M361.888,-114.461C369.663,-110.401 378.497,-105.364 386,-100 403.657,-87.3772 404.33,-79.6052 422,-67 424.069,-65.5244 426.264,-64.0809 428.508,-62.6907"/>
<polygon fill="midnightblue" stroke="midnightblue" points="430.335,-65.6777 437.235,-57.6378 426.827,-59.6199 430.335,-65.6777"/>
</g>
<!-- Node8&#45;&gt;Node7 -->
<g id="edge28" class="edge"><title>Node8&#45;&gt;Node7</title>
<path fill="none" stroke="midnightblue" d="M348.291,-133.65C360.657,-152.06 389.75,-192.7 422,-219 423.741,-220.42 425.605,-221.786 427.531,-223.088"/>
<polygon fill="midnightblue" stroke="midnightblue" points="425.834,-226.153 436.196,-228.364 429.474,-220.174 425.834,-226.153"/>
</g>
<!-- Node9 -->
<g id="node18" class="node"><title>Node9</title>
<a xlink:href="_mat_8c.html#a8fa4d7a3efd929279b0fbeb2fb7c22e3" target="_top" xlink:title="MatNormf">
<polygon fill="white" stroke="black" points="428.5,-114.5 428.5,-133.5 487.5,-133.5 487.5,-114.5 428.5,-114.5"/>
<text text-anchor="middle" x="458" y="-121.5" font-family="Helvetica,sans-Serif" font-size="10.00">MatNormf</text>
</a>
</g>
<!-- Node8&#45;&gt;Node9 -->
<g id="edge18" class="edge"><title>Node8&#45;&gt;Node9</title>
<path fill="none" stroke="midnightblue" d="M385.805,-124C396.468,-124 407.799,-124 418.212,-124"/>
<polygon fill="midnightblue" stroke="midnightblue" points="418.259,-127.5 428.259,-124 418.259,-120.5 418.259,-127.5"/>
</g>
<!-- Node10 -->
<g id="node20" class="node"><title>Node10</title>
<a xlink:href="_mat_8c.html#a9f566ce4c8ca2381358f2134cdd4e9e7" target="_top" xlink:title="MatMulScalf">
<polygon fill="white" stroke="black" points="422.5,-76.5 422.5,-95.5 493.5,-95.5 493.5,-76.5 422.5,-76.5"/>
<text text-anchor="middle" x="458" y="-83.5" font-family="Helvetica,sans-Serif" font-size="10.00">MatMulScalf</text>
</a>
</g>
<!-- Node8&#45;&gt;Node10 -->
<g id="edge20" class="edge"><title>Node8&#45;&gt;Node10</title>
<path fill="none" stroke="midnightblue" d="M371.019,-114.411C385.32,-109.686 402.765,-103.921 418.195,-98.8226"/>
<polygon fill="midnightblue" stroke="midnightblue" points="419.593,-102.047 427.99,-95.5859 417.397,-95.4002 419.593,-102.047"/>
</g>
<!-- Node11 -->
<g id="node22" class="node"><title>Node11</title>
<a xlink:href="_mat_8c.html#a271708fa4a26745632412df2d7b894d1" target="_top" xlink:title="MatTilde">
<polygon fill="white" stroke="black" points="431.5,-190.5 431.5,-209.5 484.5,-209.5 484.5,-190.5 431.5,-190.5"/>
<text text-anchor="middle" x="458" y="-197.5" font-family="Helvetica,sans-Serif" font-size="10.00">MatTilde</text>
</a>
</g>
<!-- Node8&#45;&gt;Node11 -->
<g id="edge22" class="edge"><title>Node8&#45;&gt;Node11</title>
<path fill="none" stroke="midnightblue" d="M354.421,-133.57C369.88,-145.311 397.265,-165.554 422,-181 424.338,-182.46 426.798,-183.927 429.283,-185.362"/>
<polygon fill="midnightblue" stroke="midnightblue" points="427.794,-188.539 438.232,-190.355 431.205,-182.426 427.794,-188.539"/>
</g>
<!-- Node12 -->
<g id="node24" class="node"><title>Node12</title>
<a xlink:href="_mat_8c.html#a9e1be75d926e81ca29ca09676705a51e" target="_top" xlink:title="MatI">
<polygon fill="white" stroke="black" points="440.5,-152.5 440.5,-171.5 475.5,-171.5 475.5,-152.5 440.5,-152.5"/>
<text text-anchor="middle" x="458" y="-159.5" font-family="Helvetica,sans-Serif" font-size="10.00">MatI</text>
</a>
</g>
<!-- Node8&#45;&gt;Node12 -->
<g id="edge24" class="edge"><title>Node8&#45;&gt;Node12</title>
<path fill="none" stroke="midnightblue" d="M371.019,-133.589C389.375,-139.654 412.91,-147.431 430.716,-153.315"/>
<polygon fill="midnightblue" stroke="midnightblue" points="429.861,-156.718 440.454,-156.533 432.058,-150.072 429.861,-156.718"/>
</g>
<!-- Node13 -->
<g id="node26" class="node"><title>Node13</title>
<a xlink:href="_mat_8c.html#a05baf6927b033792fd0ba2adcfb8df34" target="_top" xlink:title="MatClr">
<polygon fill="white" stroke="black" points="534.5,-152.5 534.5,-171.5 579.5,-171.5 579.5,-152.5 534.5,-152.5"/>
<text text-anchor="middle" x="557" y="-159.5" font-family="Helvetica,sans-Serif" font-size="10.00">MatClr</text>
</a>
</g>
<!-- Node12&#45;&gt;Node13 -->
<g id="edge26" class="edge"><title>Node12&#45;&gt;Node13</title>
<path fill="none" stroke="midnightblue" d="M475.896,-162C489.165,-162 508.024,-162 524.11,-162"/>
<polygon fill="midnightblue" stroke="midnightblue" points="524.194,-165.5 534.194,-162 524.193,-158.5 524.194,-165.5"/>
</g>
<!-- Node14&#45;&gt;Node5 -->
<g id="edge36" class="edge"><title>Node14&#45;&gt;Node5</title>
<path fill="none" stroke="midnightblue" d="M385.805,-48C397.857,-48 410.761,-48 422.229,-48"/>
<polygon fill="midnightblue" stroke="midnightblue" points="422.29,-51.5001 432.29,-48 422.29,-44.5001 422.29,-51.5001"/>
</g>
<!-- Node15 -->
<g id="node32" class="node"><title>Node15</title>
<a xlink:href="_mat_8c.html#a048190ee0aceb657fc3830bf279359b3" target="_top" xlink:title="MatTildef">
<polygon fill="white" stroke="black" points="430,-0.5 430,-19.5 486,-19.5 486,-0.5 430,-0.5"/>
<text text-anchor="middle" x="458" y="-7.5" font-family="Helvetica,sans-Serif" font-size="10.00">MatTildef</text>
</a>
</g>
<!-- Node14&#45;&gt;Node15 -->
<g id="edge34" class="edge"><title>Node14&#45;&gt;Node15</title>
<path fill="none" stroke="midnightblue" d="M371.019,-38.411C386.007,-33.4585 404.449,-27.3647 420.405,-22.0924"/>
<polygon fill="midnightblue" stroke="midnightblue" points="421.568,-25.3942 429.965,-18.9333 419.372,-18.7476 421.568,-25.3942"/>
</g>
</g>
</svg>
        <g id="navigator" transform="translate(0 0)" fill="#404254">
                <rect fill="#f2f5e9" fill-opacity="0.5" stroke="#606060" stroke-width=".5" x="0" y="0" width="60" height="60"/>
                <use id="zoomplus" xlink:href="#zoomPlus" x="17" y="9" onmousedown="handleZoom(evt,'in')"/>
                <use id="zoomminus" xlink:href="#zoomMin" x="42" y="9" onmousedown="handleZoom(evt,'out')"/>
                <use id="reset" xlink:href="#resetDef" x="30" y="36" onmousedown="handleReset()"/>
                <g id="arrowUp" xlink:href="#dirArrow" transform="translate(30 24)" onmousedown="handlePan(0,-1)">
                  <use xlink:href="#rim" fill="#404040">
                        <set attributeName="fill" to="#808080" begin="arrowUp.mouseover" end="arrowUp.mouseout"/>
                  </use>
                  <path fill="none" stroke="white" stroke-width="1.5" d="M0,-3.0v7 M-2.5,-0.5L0,-3.0L2.5,-0.5"/>
                </g>
                <g id="arrowRight" xlink:href="#dirArrow" transform="rotate(90) translate(36 -43)" onmousedown="handlePan(1,0)">
                  <use xlink:href="#rim" fill="#404040">
                        <set attributeName="fill" to="#808080" begin="arrowRight.mouseover" end="arrowRight.mouseout"/>
                  </use>
                  <path fill="none" stroke="white" stroke-width="1.5" d="M0,-3.0v7 M-2.5,-0.5L0,-3.0L2.5,-0.5"/>
                </g>
                <g id="arrowDown" xlink:href="#dirArrow" transform="rotate(180) translate(-30 -48)" onmousedown="handlePan(0,1)">
                  <use xlink:href="#rim" fill="#404040">
                        <set attributeName="fill" to="#808080" begin="arrowDown.mouseover" end="arrowDown.mouseout"/>
                  </use>
                  <path fill="none" stroke="white" stroke-width="1.5" d="M0,-3.0v7 M-2.5,-0.5L0,-3.0L2.5,-0.5"/>
                </g>
                <g id="arrowLeft" xlink:href="#dirArrow" transform="rotate(270) translate(-36 17)" onmousedown="handlePan(-1,0)">
                  <use xlink:href="#rim" fill="#404040">
                        <set attributeName="fill" to="#808080" begin="arrowLeft.mouseover" end="arrowLeft.mouseout"/>
                  </use>
                  <path fill="none" stroke="white" stroke-width="1.5" d="M0,-3.0v7 M-2.5,-0.5L0,-3.0L2.5,-0.5"/>
                </g>
        </g>
</svg>
