<?xml version="1.0" encoding="UTF-8" standalone="no"?>
<!DOCTYPE svg PUBLIC "-//W3C//DTD SVG 1.1//EN"
 "http://www.w3.org/Graphics/SVG/1.1/DTD/svg11.dtd">
<!-- Generated by graphviz version 2.28.0 (20110507.0327)
 -->
<!-- Title: G Pages: 1 -->
<svg width="418pt" height="178pt"
 viewBox="0.00 0.00 418.00 178.00" xmlns="http://www.w3.org/2000/svg" xmlns:xlink="http://www.w3.org/1999/xlink">
<g id="graph1" class="graph" transform="scale(1 1) rotate(0) translate(4 174)">
<title>G</title>
<polygon fill="white" stroke="white" points="-4,5 -4,-174 415,-174 415,5 -4,5"/>
<!-- Node1 -->
<g id="node1" class="node"><title>Node1</title>
<polygon fill="#bfbfbf" stroke="black" points="0.5,-66.5 0.5,-85.5 85.5,-85.5 85.5,-66.5 0.5,-66.5"/>
<text text-anchor="middle" x="43" y="-73.5" font-family="Helvetica,sans-Serif" font-size="10.00">David_CalcCoM</text>
</g>
<!-- Node2 -->
<g id="node3" class="node"><title>Node2</title>
<a xlink:href="_mat_8c.html#a245892f5cf1ad342b2baa13a352892d3" target="_top" xlink:title="MatClrf">
<polygon fill="white" stroke="black" points="143.5,-150.5 143.5,-169.5 190.5,-169.5 190.5,-150.5 143.5,-150.5"/>
<text text-anchor="middle" x="167" y="-157.5" font-family="Helvetica,sans-Serif" font-size="10.00">MatClrf</text>
</a>
</g>
<!-- Node1&#45;&gt;Node2 -->
<g id="edge2" class="edge"><title>Node1&#45;&gt;Node2</title>
<path fill="none" stroke="midnightblue" d="M53.8664,-85.8493C68.0017,-99.562 95.2701,-124.568 122,-141 125.852,-143.368 130.052,-145.587 134.277,-147.613"/>
<polygon fill="midnightblue" stroke="midnightblue" points="132.889,-150.826 143.445,-151.725 135.753,-144.439 132.889,-150.826"/>
</g>
<!-- Node3 -->
<g id="node5" class="node"><title>Node3</title>
<a xlink:href="_david___total_mass_8c.html#a3d576eef04375cf190383f1440ef5600" target="_top" xlink:title="David_TotalMass">
<polygon fill="white" stroke="black" points="122,-94.5 122,-113.5 212,-113.5 212,-94.5 122,-94.5"/>
<text text-anchor="middle" x="167" y="-101.5" font-family="Helvetica,sans-Serif" font-size="10.00">David_TotalMass</text>
</a>
</g>
<!-- Node1&#45;&gt;Node3 -->
<g id="edge4" class="edge"><title>Node1&#45;&gt;Node3</title>
<path fill="none" stroke="midnightblue" d="M85.6443,-85.5577C94.9685,-87.6977 104.966,-89.9921 114.632,-92.2106"/>
<polygon fill="midnightblue" stroke="midnightblue" points="114.014,-95.6597 124.543,-94.4854 115.58,-88.8371 114.014,-95.6597"/>
</g>
<!-- Node4 -->
<g id="node8" class="node"><title>Node4</title>
<a xlink:href="_david___calc_m_c_8c.html#a5877c51babeda61b69280e4dc6ed28dd" target="_top" xlink:title="David_CalcMC">
<polygon fill="white" stroke="black" points="127,-38.5 127,-57.5 207,-57.5 207,-38.5 127,-38.5"/>
<text text-anchor="middle" x="167" y="-45.5" font-family="Helvetica,sans-Serif" font-size="10.00">David_CalcMC</text>
</a>
</g>
<!-- Node1&#45;&gt;Node4 -->
<g id="edge8" class="edge"><title>Node1&#45;&gt;Node4</title>
<path fill="none" stroke="midnightblue" d="M85.6443,-66.4423C95.5843,-64.161 106.289,-61.7041 116.543,-59.3508"/>
<polygon fill="midnightblue" stroke="midnightblue" points="117.637,-62.6908 126.601,-57.0425 116.071,-55.8682 117.637,-62.6908"/>
</g>
<!-- Node8 -->
<g id="node16" class="node"><title>Node8</title>
<a xlink:href="_mat_8c.html#a9f566ce4c8ca2381358f2134cdd4e9e7" target="_top" xlink:title="MatMulScalf">
<polygon fill="white" stroke="black" points="248.5,-0.5 248.5,-19.5 319.5,-19.5 319.5,-0.5 248.5,-0.5"/>
<text text-anchor="middle" x="284" y="-7.5" font-family="Helvetica,sans-Serif" font-size="10.00">MatMulScalf</text>
</a>
</g>
<!-- Node1&#45;&gt;Node8 -->
<g id="edge20" class="edge"><title>Node1&#45;&gt;Node8</title>
<path fill="none" stroke="midnightblue" d="M56.1441,-66.4037C70.8258,-55.3657 96.7217,-37.6552 122,-29 159.843,-16.0426 205.288,-11.6162 238.232,-10.2421"/>
<polygon fill="midnightblue" stroke="midnightblue" points="238.587,-13.7322 248.463,-9.89634 238.35,-6.73623 238.587,-13.7322"/>
</g>
<!-- Node3&#45;&gt;Node3 -->
<g id="edge6" class="edge"><title>Node3&#45;&gt;Node3</title>
<path fill="none" stroke="midnightblue" d="M149.121,-113.757C140.423,-122.565 146.383,-132 167,-132 179.886,-132 187.046,-128.315 188.48,-123.4"/>
<polygon fill="midnightblue" stroke="midnightblue" points="191.657,-121.9 184.879,-113.757 185.099,-124.35 191.657,-121.9"/>
</g>
<!-- Node4&#45;&gt;Node4 -->
<g id="edge18" class="edge"><title>Node4&#45;&gt;Node4</title>
<path fill="none" stroke="midnightblue" d="M149.121,-57.7571C140.423,-66.5653 146.383,-76 167,-76 179.886,-76 187.046,-72.3146 188.48,-67.4"/>
<polygon fill="midnightblue" stroke="midnightblue" points="191.657,-65.9004 184.879,-57.7571 185.099,-68.3496 191.657,-65.9004"/>
</g>
<!-- Node5 -->
<g id="node10" class="node"><title>Node5</title>
<a xlink:href="_mat_8c.html#ae5dcc36ff446d01426b9ce7fbd5e1f83" target="_top" xlink:title="MatMulf">
<polygon fill="white" stroke="black" points="258.5,-76.5 258.5,-95.5 309.5,-95.5 309.5,-76.5 258.5,-76.5"/>
<text text-anchor="middle" x="284" y="-83.5" font-family="Helvetica,sans-Serif" font-size="10.00">MatMulf</text>
</a>
</g>
<!-- Node4&#45;&gt;Node5 -->
<g id="edge10" class="edge"><title>Node4&#45;&gt;Node5</title>
<path fill="none" stroke="midnightblue" d="M197.019,-57.589C212.668,-62.76 232.083,-69.1752 248.501,-74.6005"/>
<polygon fill="midnightblue" stroke="midnightblue" points="247.683,-78.0163 258.277,-77.8305 249.88,-71.3697 247.683,-78.0163"/>
</g>
<!-- Node7 -->
<g id="node14" class="node"><title>Node7</title>
<a xlink:href="_mat_8c.html#aa4b0ec687e717aa5243535ca86cf60c3" target="_top" xlink:title="MatAddf">
<polygon fill="white" stroke="black" points="257.5,-38.5 257.5,-57.5 310.5,-57.5 310.5,-38.5 257.5,-38.5"/>
<text text-anchor="middle" x="284" y="-45.5" font-family="Helvetica,sans-Serif" font-size="10.00">MatAddf</text>
</a>
</g>
<!-- Node4&#45;&gt;Node7 -->
<g id="edge14" class="edge"><title>Node4&#45;&gt;Node7</title>
<path fill="none" stroke="midnightblue" d="M207.255,-48C220.167,-48 234.448,-48 247.097,-48"/>
<polygon fill="midnightblue" stroke="midnightblue" points="247.273,-51.5001 257.273,-48 247.273,-44.5001 247.273,-51.5001"/>
</g>
<!-- Node4&#45;&gt;Node8 -->
<g id="edge16" class="edge"><title>Node4&#45;&gt;Node8</title>
<path fill="none" stroke="midnightblue" d="M197.019,-38.411C211.32,-33.6856 228.765,-27.9211 244.195,-22.8226"/>
<polygon fill="midnightblue" stroke="midnightblue" points="245.593,-26.0468 253.99,-19.5859 243.397,-19.4002 245.593,-26.0468"/>
</g>
<!-- Node6 -->
<g id="node12" class="node"><title>Node6</title>
<a xlink:href="_mat_8c.html#a63a68223bbacc69c068f6a3bdb4b428a" target="_top" xlink:title="MatCpyf">
<polygon fill="white" stroke="black" points="356.5,-76.5 356.5,-95.5 409.5,-95.5 409.5,-76.5 356.5,-76.5"/>
<text text-anchor="middle" x="383" y="-83.5" font-family="Helvetica,sans-Serif" font-size="10.00">MatCpyf</text>
</a>
</g>
<!-- Node5&#45;&gt;Node6 -->
<g id="edge12" class="edge"><title>Node5&#45;&gt;Node6</title>
<path fill="none" stroke="midnightblue" d="M309.728,-86C320.755,-86 333.96,-86 346.048,-86"/>
<polygon fill="midnightblue" stroke="midnightblue" points="346.301,-89.5001 356.301,-86 346.301,-82.5001 346.301,-89.5001"/>
</g>
</g>
</svg>
