<?xml version="1.0" encoding="UTF-8" standalone="no"?>
<!DOCTYPE svg PUBLIC "-//W3C//DTD SVG 1.1//EN"
 "http://www.w3.org/Graphics/SVG/1.1/DTD/svg11.dtd">
<!-- Generated by graphviz version 2.28.0 (20110507.0327)
 -->
<!-- Title: G Pages: 1 -->
<svg width="228pt" height="84pt"
 viewBox="0.00 0.00 228.00 84.00" xmlns="http://www.w3.org/2000/svg" xmlns:xlink="http://www.w3.org/1999/xlink">
<g id="graph1" class="graph" transform="scale(1 1) rotate(0) translate(4 80)">
<title>G</title>
<polygon fill="white" stroke="white" points="-4,5 -4,-80 225,-80 225,5 -4,5"/>
<!-- Node1 -->
<g id="node1" class="node"><title>Node1</title>
<polygon fill="#bfbfbf" stroke="black" points="59,-56.5 59,-75.5 139,-75.5 139,-56.5 59,-56.5"/>
<text text-anchor="middle" x="99" y="-63.5" font-family="Helvetica,sans-Serif" font-size="10.00">David_Spline.h</text>
</g>
<!-- Node2 -->
<g id="node3" class="node"><title>Node2</title>
<a xlink:href="_david___spline_8c.html" target="_top" xlink:title="David_Spline.c">
<polygon fill="white" stroke="black" points="0,-0.5 0,-19.5 80,-19.5 80,-0.5 0,-0.5"/>
<text text-anchor="middle" x="40" y="-7.5" font-family="Helvetica,sans-Serif" font-size="10.00">David_Spline.c</text>
</a>
</g>
<!-- Node1&#45;&gt;Node2 -->
<g id="edge2" class="edge"><title>Node1&#45;&gt;Node2</title>
<path fill="none" stroke="midnightblue" d="M82.1055,-49.5372C71.5855,-39.9087 58.4313,-27.8694 49.6519,-19.8339"/>
<polygon fill="midnightblue" stroke="midnightblue" points="79.7808,-52.1542 89.5206,-56.324 84.5069,-46.9905 79.7808,-52.1542"/>
</g>
<!-- Node3 -->
<g id="node5" class="node"><title>Node3</title>
<a xlink:href="_david___static_trajectory_8c.html" target="_top" xlink:title="David_StaticTrajectory.c">
<polygon fill="white" stroke="black" points="98,-0.5 98,-19.5 220,-19.5 220,-0.5 98,-0.5"/>
<text text-anchor="middle" x="159" y="-7.5" font-family="Helvetica,sans-Serif" font-size="10.00">David_StaticTrajectory.c</text>
</a>
</g>
<!-- Node1&#45;&gt;Node3 -->
<g id="edge4" class="edge"><title>Node1&#45;&gt;Node3</title>
<path fill="none" stroke="midnightblue" d="M116.181,-49.5372C126.879,-39.9087 140.256,-27.8694 149.185,-19.8339"/>
<polygon fill="midnightblue" stroke="midnightblue" points="113.732,-47.0327 108.64,-56.324 118.414,-52.2358 113.732,-47.0327"/>
</g>
</g>
</svg>
