<?xml version="1.0" encoding="UTF-8" standalone="no"?>
<!DOCTYPE svg PUBLIC "-//W3C//DTD SVG 1.1//EN"
 "http://www.w3.org/Graphics/SVG/1.1/DTD/svg11.dtd">
<!-- Generated by graphviz version 2.28.0 (20110507.0327)
 -->
<!-- Title: G Pages: 1 -->
<svg width="434pt" height="104pt"
 viewBox="0.00 0.00 434.00 104.00" xmlns="http://www.w3.org/2000/svg" xmlns:xlink="http://www.w3.org/1999/xlink">
<g id="graph1" class="graph" transform="scale(1 1) rotate(0) translate(4 100)">
<title>G</title>
<polygon fill="white" stroke="white" points="-4,5 -4,-100 431,-100 431,5 -4,5"/>
<!-- Node1 -->
<g id="node1" class="node"><title>Node1</title>
<polygon fill="#bfbfbf" stroke="black" points="0.5,-38.5 0.5,-57.5 125.5,-57.5 125.5,-38.5 0.5,-38.5"/>
<text text-anchor="middle" x="63" y="-45.5" font-family="Helvetica,sans-Serif" font-size="10.00">David_GravityExperiment</text>
</g>
<!-- Node2 -->
<g id="node3" class="node"><title>Node2</title>
<a xlink:href="_david___inverse_sherpa_kinematics_8c.html#a6cfabefdd27205999cddc92c5967828d" target="_top" xlink:title="David_InverseSherpaKinematics">
<polygon fill="white" stroke="black" points="162.5,-76.5 162.5,-95.5 317.5,-95.5 317.5,-76.5 162.5,-76.5"/>
<text text-anchor="middle" x="240" y="-83.5" font-family="Helvetica,sans-Serif" font-size="10.00">David_InverseSherpaKinematics</text>
</a>
</g>
<!-- Node1&#45;&gt;Node2 -->
<g id="edge2" class="edge"><title>Node1&#45;&gt;Node2</title>
<path fill="none" stroke="midnightblue" d="M108.16,-57.589C131.565,-62.6713 160.505,-68.9554 185.212,-74.3203"/>
<polygon fill="midnightblue" stroke="midnightblue" points="184.643,-77.7782 195.158,-76.4799 186.128,-70.9376 184.643,-77.7782"/>
</g>
<!-- Node3 -->
<g id="node5" class="node"><title>Node3</title>
<a xlink:href="_david___spline_8c.html#ae3970b1cd353fd2b3ee3ed2a7249ea26" target="_top" xlink:title="David_Spline">
<polygon fill="white" stroke="black" points="354,-19.5 354,-38.5 426,-38.5 426,-19.5 354,-19.5"/>
<text text-anchor="middle" x="390" y="-26.5" font-family="Helvetica,sans-Serif" font-size="10.00">David_Spline</text>
</a>
</g>
<!-- Node1&#45;&gt;Node3 -->
<g id="edge4" class="edge"><title>Node1&#45;&gt;Node3</title>
<path fill="none" stroke="midnightblue" d="M125.512,-44.4039C189.092,-40.6869 286.844,-34.9722 343.699,-31.6484"/>
<polygon fill="midnightblue" stroke="midnightblue" points="344.043,-35.1343 353.822,-31.0566 343.634,-28.1463 344.043,-35.1343"/>
</g>
<!-- Node4 -->
<g id="node7" class="node"><title>Node4</title>
<a xlink:href="_david___spline_8c.html#a4dca050905a794c29d094e3ee708486a" target="_top" xlink:title="David_C2Spline">
<polygon fill="white" stroke="black" points="198,-0.5 198,-19.5 282,-19.5 282,-0.5 198,-0.5"/>
<text text-anchor="middle" x="240" y="-7.5" font-family="Helvetica,sans-Serif" font-size="10.00">David_C2Spline</text>
</a>
</g>
<!-- Node1&#45;&gt;Node4 -->
<g id="edge6" class="edge"><title>Node1&#45;&gt;Node4</title>
<path fill="none" stroke="midnightblue" d="M108.16,-38.411C132.474,-33.1314 162.76,-26.5549 188.07,-21.0592"/>
<polygon fill="midnightblue" stroke="midnightblue" points="188.83,-24.4757 197.86,-18.9333 187.345,-17.6351 188.83,-24.4757"/>
</g>
<!-- Node4&#45;&gt;Node3 -->
<g id="edge8" class="edge"><title>Node4&#45;&gt;Node3</title>
<path fill="none" stroke="midnightblue" d="M282.226,-15.2926C301.222,-17.7311 323.827,-20.6332 343.338,-23.1379"/>
<polygon fill="midnightblue" stroke="midnightblue" points="343.154,-26.643 353.518,-24.4449 344.045,-19.6999 343.154,-26.643"/>
</g>
</g>
</svg>
