<?xml version="1.0" encoding="UTF-8" standalone="no"?>
<!DOCTYPE svg PUBLIC "-//W3C//DTD SVG 1.1//EN"
 "http://www.w3.org/Graphics/SVG/1.1/DTD/svg11.dtd">
<!-- Generated by graphviz version 2.28.0 (20110507.0327)
 -->
<!-- Title: G Pages: 1 -->
<svg width="460pt" height="104pt"
 viewBox="0.00 0.00 460.00 104.00" xmlns="http://www.w3.org/2000/svg" xmlns:xlink="http://www.w3.org/1999/xlink">
<g id="graph1" class="graph" transform="scale(1 1) rotate(0) translate(4 100)">
<title>G</title>
<polygon fill="white" stroke="white" points="-4,5 -4,-100 457,-100 457,5 -4,5"/>
<!-- Node1 -->
<g id="node1" class="node"><title>Node1</title>
<polygon fill="#bfbfbf" stroke="black" points="0,-38.5 0,-57.5 84,-57.5 84,-38.5 0,-38.5"/>
<text text-anchor="middle" x="42" y="-45.5" font-family="Helvetica,sans-Serif" font-size="10.00">David_C2Spline</text>
</g>
<!-- Node2 -->
<g id="node3" class="node"><title>Node2</title>
<a xlink:href="_david___static_trajectory_8h.html#a91fb57999d030dd61f2807822888dd1f" target="_top" xlink:title="David_StaticTrajectory">
<polygon fill="white" stroke="black" points="126.5,-76.5 126.5,-95.5 239.5,-95.5 239.5,-76.5 126.5,-76.5"/>
<text text-anchor="middle" x="183" y="-83.5" font-family="Helvetica,sans-Serif" font-size="10.00">David_StaticTrajectory</text>
</a>
</g>
<!-- Node1&#45;&gt;Node2 -->
<g id="edge2" class="edge"><title>Node1&#45;&gt;Node2</title>
<path fill="none" stroke="midnightblue" d="M87.7953,-60.2462C106.955,-65.484 128.994,-71.5091 146.936,-76.4141"/>
<polygon fill="midnightblue" stroke="midnightblue" points="88.6446,-56.85 78.0756,-57.589 86.7986,-63.6022 88.6446,-56.85"/>
</g>
<!-- Node3 -->
<g id="node5" class="node"><title>Node3</title>
<a xlink:href="_david___static_trajectory_8h.html#a95ad314ee9a20a04d22df232f17c64cf" target="_top" xlink:title="David_OneFoot">
<polygon fill="white" stroke="black" points="141.5,-38.5 141.5,-57.5 224.5,-57.5 224.5,-38.5 141.5,-38.5"/>
<text text-anchor="middle" x="183" y="-45.5" font-family="Helvetica,sans-Serif" font-size="10.00">David_OneFoot</text>
</a>
</g>
<!-- Node1&#45;&gt;Node3 -->
<g id="edge4" class="edge"><title>Node1&#45;&gt;Node3</title>
<path fill="none" stroke="midnightblue" d="M94.689,-48C109.998,-48 126.542,-48 141.071,-48"/>
<polygon fill="midnightblue" stroke="midnightblue" points="94.3283,-44.5001 84.3282,-48 94.3282,-51.5001 94.3283,-44.5001"/>
</g>
<!-- Node6 -->
<g id="node11" class="node"><title>Node6</title>
<a xlink:href="_david___static_trajectory_8h.html#acf6ece8c4ea8078f94c4220ded1df288" target="_top" xlink:title="David_GravityExperiment">
<polygon fill="white" stroke="black" points="120.5,-0.5 120.5,-19.5 245.5,-19.5 245.5,-0.5 120.5,-0.5"/>
<text text-anchor="middle" x="183" y="-7.5" font-family="Helvetica,sans-Serif" font-size="10.00">David_GravityExperiment</text>
</a>
</g>
<!-- Node1&#45;&gt;Node6 -->
<g id="edge10" class="edge"><title>Node1&#45;&gt;Node6</title>
<path fill="none" stroke="midnightblue" d="M87.7953,-35.7538C106.955,-30.516 128.994,-24.4909 146.936,-19.5859"/>
<polygon fill="midnightblue" stroke="midnightblue" points="86.7986,-32.3978 78.0756,-38.411 88.6446,-39.15 86.7986,-32.3978"/>
</g>
<!-- Node4 -->
<g id="node7" class="node"><title>Node4</title>
<a xlink:href="_forward_dynamics_8h.html#a23609ae4e05df387941c4bbc7bfc26fe" target="_top" xlink:title="ForwardDynamics">
<polygon fill="white" stroke="black" points="282.5,-38.5 282.5,-57.5 377.5,-57.5 377.5,-38.5 282.5,-38.5"/>
<text text-anchor="middle" x="330" y="-45.5" font-family="Helvetica,sans-Serif" font-size="10.00">ForwardDynamics</text>
</a>
</g>
<!-- Node3&#45;&gt;Node4 -->
<g id="edge6" class="edge"><title>Node3&#45;&gt;Node4</title>
<path fill="none" stroke="midnightblue" d="M235.161,-48C250.541,-48 267.328,-48 282.396,-48"/>
<polygon fill="midnightblue" stroke="midnightblue" points="234.776,-44.5001 224.776,-48 234.776,-51.5001 234.776,-44.5001"/>
</g>
<!-- Node5 -->
<g id="node9" class="node"><title>Node5</title>
<a xlink:href="main_8c.html#a0ddf1224851353fc92bfbff6f499fa97" target="_top" xlink:title="main">
<polygon fill="white" stroke="black" points="414,-38.5 414,-57.5 452,-57.5 452,-38.5 414,-38.5"/>
<text text-anchor="middle" x="433" y="-45.5" font-family="Helvetica,sans-Serif" font-size="10.00">main</text>
</a>
</g>
<!-- Node4&#45;&gt;Node5 -->
<g id="edge8" class="edge"><title>Node4&#45;&gt;Node5</title>
<path fill="none" stroke="midnightblue" d="M387.879,-48C397.25,-48 406.323,-48 413.779,-48"/>
<polygon fill="midnightblue" stroke="midnightblue" points="387.657,-44.5001 377.657,-48 387.657,-51.5001 387.657,-44.5001"/>
</g>
</g>
</svg>
