<?xml version="1.0" encoding="UTF-8" standalone="no"?>
<!DOCTYPE svg PUBLIC "-//W3C//DTD SVG 1.1//EN"
 "http://www.w3.org/Graphics/SVG/1.1/DTD/svg11.dtd">
<!-- Generated by graphviz version 2.28.0 (20110507.0327)
 -->
<!-- Title: G Pages: 1 -->
<!--zoomable-->
<svg id="main" version="1.1" xmlns="http://www.w3.org/2000/svg" xmlns:xlink="http://www.w3.org/1999/xlink" xml:space="preserve" onload="init(evt)">
        <defs>
                <circle id="rim" cx="0" cy="0" r="7"/>
                <circle id="rim2" cx="0" cy="0" r="3.5"/>
                <g id="zoomPlus">
                        <use xlink:href="#rim" fill="#404040">
                                <set attributeName="fill" to="#808080" begin="zoomplus.mouseover" end="zoomplus.mouseout"/>
                        </use>
                        <path d="M-4,0h8M0,-4v8" fill="none" stroke="white" stroke-width="1.5" pointer-events="none"/>
                </g>
                <g id="zoomMin">
                        <use xlink:href="#rim" fill="#404040">
                                <set attributeName="fill" to="#808080" begin="zoomminus.mouseover" end="zoomminus.mouseout"/>
                        </use>
                        <path d="M-4,0h8" fill="none" stroke="white" stroke-width="1.5" pointer-events="none"/>
                </g>
                <g id="dirArrow">
                        <path fill="none" stroke="white" stroke-width="1.5" d="M0,-3.0v7 M-2.5,-0.5L0,-3.0L2.5,-0.5"/>
                </g>
               <g id="resetDef">
                       <use xlink:href="#rim2" fill="#404040">
                               <set attributeName="fill" to="#808080" begin="reset.mouseover" end="reset.mouseout"/>
                       </use>
               </g>
        </defs>

<script type="text/javascript">
var viewWidth = 646;
var viewHeight = 493;
var sectionId = 'dynsection-1';
</script>
<script xlink:href="svgpan.js"/>
<svg id="graph" class="graph">
<g id="viewport">
<title>G</title>
<polygon fill="white" stroke="white" points="-4,5 -4,-488.642 643,-488.642 643,5 -4,5"/>
<!-- Node1 -->
<g id="node1" class="node"><title>Node1</title>
<polygon fill="#bfbfbf" stroke="black" points="0.5,-161.5 0.5,-180.5 75.5,-180.5 75.5,-161.5 0.5,-161.5"/>
<text text-anchor="middle" x="38" y="-168.5" font-family="Helvetica,sans-Serif" font-size="10.00">David_Gravity</text>
</g>
<!-- Node2 -->
<g id="node3" class="node"><title>Node2</title>
<a xlink:href="_mat_8c.html#a245892f5cf1ad342b2baa13a352892d3" target="_top" xlink:title="MatClrf">
<polygon fill="white" stroke="black" points="371.5,-350.5 371.5,-369.5 418.5,-369.5 418.5,-350.5 371.5,-350.5"/>
<text text-anchor="middle" x="395" y="-357.5" font-family="Helvetica,sans-Serif" font-size="10.00">MatClrf</text>
</a>
</g>
<!-- Node1&#45;&gt;Node2 -->
<g id="edge2" class="edge"><title>Node1&#45;&gt;Node2</title>
<path fill="none" stroke="midnightblue" d="M43.5445,-180.77C53.6212,-201.698 79.5371,-251.661 112,-285 153.967,-328.1 166.497,-343.332 224,-361 270.022,-375.14 326.418,-370.854 361.282,-365.883"/>
<polygon fill="midnightblue" stroke="midnightblue" points="362.019,-369.311 371.375,-364.338 360.96,-362.391 362.019,-369.311"/>
</g>
<!-- Node3 -->
<g id="node5" class="node"><title>Node3</title>
<a xlink:href="_mat_8c.html#ae5dcc36ff446d01426b9ce7fbd5e1f83" target="_top" xlink:title="MatMulf">
<polygon fill="white" stroke="black" points="486.5,-180.5 486.5,-199.5 537.5,-199.5 537.5,-180.5 486.5,-180.5"/>
<text text-anchor="middle" x="512" y="-187.5" font-family="Helvetica,sans-Serif" font-size="10.00">MatMulf</text>
</a>
</g>
<!-- Node1&#45;&gt;Node3 -->
<g id="edge4" class="edge"><title>Node1&#45;&gt;Node3</title>
<path fill="none" stroke="midnightblue" d="M45.9948,-161.315C57.8733,-145.519 83.4917,-114.152 112,-96 235.832,-17.151 314.101,18.5058 440,-57 481.383,-81.8189 499.984,-139.868 507.154,-170.413"/>
<polygon fill="midnightblue" stroke="midnightblue" points="503.76,-171.279 509.299,-180.31 510.601,-169.796 503.76,-171.279"/>
</g>
<!-- Node4 -->
<g id="node7" class="node"><title>Node4</title>
<a xlink:href="_mat_8c.html#a63a68223bbacc69c068f6a3bdb4b428a" target="_top" xlink:title="MatCpyf">
<polygon fill="white" stroke="black" points="584.5,-161.5 584.5,-180.5 637.5,-180.5 637.5,-161.5 584.5,-161.5"/>
<text text-anchor="middle" x="611" y="-168.5" font-family="Helvetica,sans-Serif" font-size="10.00">MatCpyf</text>
</a>
</g>
<!-- Node1&#45;&gt;Node4 -->
<g id="edge38" class="edge"><title>Node1&#45;&gt;Node4</title>
<path fill="none" stroke="midnightblue" d="M42.033,-161.468C49.8095,-138.564 72.6626,-80.035 112,-49 169.055,-3.9871 195.327,-0 268,-0 268,-0 268,-0 396,-0 493.03,-0 571.328,-108.618 599.119,-152.719"/>
<polygon fill="midnightblue" stroke="midnightblue" points="596.187,-154.633 604.408,-161.316 602.149,-150.965 596.187,-154.633"/>
</g>
<!-- Node5 -->
<g id="node9" class="node"><title>Node5</title>
<a xlink:href="_mat_8c.html#aa4b0ec687e717aa5243535ca86cf60c3" target="_top" xlink:title="MatAddf">
<polygon fill="white" stroke="black" points="485.5,-312.5 485.5,-331.5 538.5,-331.5 538.5,-312.5 485.5,-312.5"/>
<text text-anchor="middle" x="512" y="-319.5" font-family="Helvetica,sans-Serif" font-size="10.00">MatAddf</text>
</a>
</g>
<!-- Node1&#45;&gt;Node5 -->
<g id="edge8" class="edge"><title>Node1&#45;&gt;Node5</title>
<path fill="none" stroke="midnightblue" d="M40.1142,-180.896C44.1089,-212.129 60.3388,-309.976 112,-368 188.88,-454.349 236.295,-452.075 350,-473 389.339,-480.239 406.23,-494.438 440,-473 486.143,-443.707 502.836,-375.574 508.425,-341.761"/>
<polygon fill="midnightblue" stroke="midnightblue" points="511.91,-342.123 509.921,-331.716 504.986,-341.091 511.91,-342.123"/>
</g>
<!-- Node6 -->
<g id="node11" class="node"><title>Node6</title>
<a xlink:href="_mat_8c.html#ae8e0d9d094b36fd7aa5d222e70d93953" target="_top" xlink:title="MatProVectorielf">
<polygon fill="white" stroke="black" points="224.5,-104.5 224.5,-123.5 313.5,-123.5 313.5,-104.5 224.5,-104.5"/>
<text text-anchor="middle" x="269" y="-111.5" font-family="Helvetica,sans-Serif" font-size="10.00">MatProVectorielf</text>
</a>
</g>
<!-- Node1&#45;&gt;Node6 -->
<g id="edge10" class="edge"><title>Node1&#45;&gt;Node6</title>
<path fill="none" stroke="midnightblue" d="M75.5389,-161.905C114.585,-152.186 176.665,-136.734 219.716,-126.018"/>
<polygon fill="midnightblue" stroke="midnightblue" points="220.823,-129.35 229.682,-123.538 219.132,-122.557 220.823,-129.35"/>
</g>
<!-- Node8 -->
<g id="node16" class="node"><title>Node8</title>
<a xlink:href="_david___calc_co_m_8c.html#a87e4908ddc041180e53e28286d691b80" target="_top" xlink:title="David_CalcCoM">
<polygon fill="white" stroke="black" points="226.5,-332.5 226.5,-351.5 311.5,-351.5 311.5,-332.5 226.5,-332.5"/>
<text text-anchor="middle" x="269" y="-339.5" font-family="Helvetica,sans-Serif" font-size="10.00">David_CalcCoM</text>
</a>
</g>
<!-- Node1&#45;&gt;Node8 -->
<g id="edge16" class="edge"><title>Node1&#45;&gt;Node8</title>
<path fill="none" stroke="midnightblue" d="M46.8825,-180.501C59.6092,-195.499 85.9042,-225.1 112,-246 153.794,-279.472 208.097,-310.444 240.373,-327.723"/>
<polygon fill="midnightblue" stroke="midnightblue" points="238.779,-330.84 249.254,-332.43 242.057,-324.655 238.779,-330.84"/>
</g>
<!-- Node9 -->
<g id="node19" class="node"><title>Node9</title>
<a xlink:href="_david___total_mass_8c.html#a3d576eef04375cf190383f1440ef5600" target="_top" xlink:title="David_TotalMass">
<polygon fill="white" stroke="black" points="350,-426.5 350,-445.5 440,-445.5 440,-426.5 350,-426.5"/>
<text text-anchor="middle" x="395" y="-433.5" font-family="Helvetica,sans-Serif" font-size="10.00">David_TotalMass</text>
</a>
</g>
<!-- Node1&#45;&gt;Node9 -->
<g id="edge36" class="edge"><title>Node1&#45;&gt;Node9</title>
<path fill="none" stroke="midnightblue" d="M40.8984,-180.612C46.7137,-207.69 66.7087,-285.517 112,-330 174.918,-391.796 277.29,-418.173 339.849,-428.98"/>
<polygon fill="midnightblue" stroke="midnightblue" points="339.477,-432.466 349.913,-430.644 340.618,-425.559 339.477,-432.466"/>
</g>
<!-- Node12 -->
<g id="node32" class="node"><title>Node12</title>
<a xlink:href="_david___cross_8c.html#a575fbbe98ba6d596f8b981a25516710e" target="_top" xlink:title="David_Cross">
<polygon fill="white" stroke="black" points="233.5,-142.5 233.5,-161.5 304.5,-161.5 304.5,-142.5 233.5,-142.5"/>
<text text-anchor="middle" x="269" y="-149.5" font-family="Helvetica,sans-Serif" font-size="10.00">David_Cross</text>
</a>
</g>
<!-- Node1&#45;&gt;Node12 -->
<g id="edge40" class="edge"><title>Node1&#45;&gt;Node12</title>
<path fill="none" stroke="midnightblue" d="M75.5389,-167.968C115.669,-164.639 180.13,-159.291 223.257,-155.712"/>
<polygon fill="midnightblue" stroke="midnightblue" points="223.788,-159.18 233.465,-154.865 223.209,-152.204 223.788,-159.18"/>
</g>
<!-- Node13 -->
<g id="node35" class="node"><title>Node13</title>
<a xlink:href="_david___gravity_8c.html#a1f1e600a0c38ffaf69b85505ea4645d0" target="_top" xlink:title="David_Gravity">
<polygon fill="white" stroke="black" points="112.5,-199.5 112.5,-218.5 187.5,-218.5 187.5,-199.5 112.5,-199.5"/>
<text text-anchor="middle" x="150" y="-206.5" font-family="Helvetica,sans-Serif" font-size="10.00">David_Gravity</text>
</a>
</g>
<!-- Node1&#45;&gt;Node13 -->
<g id="edge44" class="edge"><title>Node1&#45;&gt;Node13</title>
<path fill="none" stroke="midnightblue" d="M66.7576,-180.589C80.3062,-185.269 96.8055,-190.969 111.46,-196.032"/>
<polygon fill="midnightblue" stroke="midnightblue" points="110.656,-199.457 121.251,-199.414 112.942,-192.841 110.656,-199.457"/>
</g>
<!-- Node14 -->
<g id="node46" class="node"><title>Node14</title>
<a xlink:href="_mat_8c.html#a6c57f1cba877524ae0db527511183bd6" target="_top" xlink:title="MatProScalf">
<polygon fill="white" stroke="black" points="234,-66.5 234,-85.5 304,-85.5 304,-66.5 234,-66.5"/>
<text text-anchor="middle" x="269" y="-73.5" font-family="Helvetica,sans-Serif" font-size="10.00">MatProScalf</text>
</a>
</g>
<!-- Node1&#45;&gt;Node14 -->
<g id="edge66" class="edge"><title>Node1&#45;&gt;Node14</title>
<path fill="none" stroke="midnightblue" d="M54.2471,-161.375C68.7346,-152.489 91.3182,-139.298 112,-130 149.268,-113.246 193.41,-98.4045 225.21,-88.542"/>
<polygon fill="midnightblue" stroke="midnightblue" points="226.541,-91.7948 235.077,-85.5187 224.491,-85.1019 226.541,-91.7948"/>
</g>
<!-- Node3&#45;&gt;Node4 -->
<g id="edge6" class="edge"><title>Node3&#45;&gt;Node4</title>
<path fill="none" stroke="midnightblue" d="M537.728,-185.156C548.867,-182.975 562.227,-180.358 574.414,-177.97"/>
<polygon fill="midnightblue" stroke="midnightblue" points="575.16,-181.391 584.301,-176.034 573.815,-174.521 575.16,-181.391"/>
</g>
<!-- Node6&#45;&gt;Node3 -->
<g id="edge14" class="edge"><title>Node6&#45;&gt;Node3</title>
<path fill="none" stroke="midnightblue" d="M300.523,-123.625C345.481,-137.803 429.264,-164.224 476.431,-179.098"/>
<polygon fill="midnightblue" stroke="midnightblue" points="475.602,-182.507 486.192,-182.177 477.708,-175.831 475.602,-182.507"/>
</g>
<!-- Node7 -->
<g id="node13" class="node"><title>Node7</title>
<a xlink:href="_mat_8c.html#a048190ee0aceb657fc3830bf279359b3" target="_top" xlink:title="MatTildef">
<polygon fill="white" stroke="black" points="367,-66.5 367,-85.5 423,-85.5 423,-66.5 367,-66.5"/>
<text text-anchor="middle" x="395" y="-73.5" font-family="Helvetica,sans-Serif" font-size="10.00">MatTildef</text>
</a>
</g>
<!-- Node6&#45;&gt;Node7 -->
<g id="edge12" class="edge"><title>Node6&#45;&gt;Node7</title>
<path fill="none" stroke="midnightblue" d="M301.29,-104.411C318.203,-99.228 339.195,-92.795 356.925,-87.3617"/>
<polygon fill="midnightblue" stroke="midnightblue" points="358.396,-90.5717 366.931,-84.2952 356.345,-83.8789 358.396,-90.5717"/>
</g>
<!-- Node8&#45;&gt;Node2 -->
<g id="edge18" class="edge"><title>Node8&#45;&gt;Node2</title>
<path fill="none" stroke="midnightblue" d="M311.635,-348.044C327.87,-350.401 346.201,-353.061 361.441,-355.274"/>
<polygon fill="midnightblue" stroke="midnightblue" points="361.035,-358.751 371.434,-356.724 362.041,-351.824 361.035,-358.751"/>
</g>
<!-- Node8&#45;&gt;Node9 -->
<g id="edge20" class="edge"><title>Node8&#45;&gt;Node9</title>
<path fill="none" stroke="midnightblue" d="M291.709,-351.607C299.196,-355.481 307.362,-360.374 314,-366 333.805,-382.785 330.195,-395.215 350,-412 354.045,-415.428 358.657,-418.584 363.338,-421.403"/>
<polygon fill="midnightblue" stroke="midnightblue" points="361.852,-424.582 372.291,-426.393 365.26,-418.467 361.852,-424.582"/>
</g>
<!-- Node10 -->
<g id="node22" class="node"><title>Node10</title>
<a xlink:href="_david___calc_m_c_8c.html#a5877c51babeda61b69280e4dc6ed28dd" target="_top" xlink:title="David_CalcMC">
<polygon fill="white" stroke="black" points="355,-256.5 355,-275.5 435,-275.5 435,-256.5 355,-256.5"/>
<text text-anchor="middle" x="395" y="-263.5" font-family="Helvetica,sans-Serif" font-size="10.00">David_CalcMC</text>
</a>
</g>
<!-- Node8&#45;&gt;Node10 -->
<g id="edge24" class="edge"><title>Node8&#45;&gt;Node10</title>
<path fill="none" stroke="midnightblue" d="M285.705,-332.375C306.855,-319.412 344.704,-296.214 369.584,-280.965"/>
<polygon fill="midnightblue" stroke="midnightblue" points="371.726,-283.757 378.423,-275.547 368.068,-277.789 371.726,-283.757"/>
</g>
<!-- Node11 -->
<g id="node26" class="node"><title>Node11</title>
<a xlink:href="_mat_8c.html#a9f566ce4c8ca2381358f2134cdd4e9e7" target="_top" xlink:title="MatMulScalf">
<polygon fill="white" stroke="black" points="476.5,-265.5 476.5,-284.5 547.5,-284.5 547.5,-265.5 476.5,-265.5"/>
<text text-anchor="middle" x="512" y="-272.5" font-family="Helvetica,sans-Serif" font-size="10.00">MatMulScalf</text>
</a>
</g>
<!-- Node8&#45;&gt;Node11 -->
<g id="edge34" class="edge"><title>Node8&#45;&gt;Node11</title>
<path fill="none" stroke="midnightblue" d="M288.466,-351.673C308.001,-361.701 337.67,-376.287 350,-379 389.065,-387.596 406.2,-400.39 440,-379 471.583,-359.013 452.813,-332.314 476,-303 479.412,-298.686 483.609,-294.619 487.896,-290.993"/>
<polygon fill="midnightblue" stroke="midnightblue" points="490.342,-293.524 496.071,-284.611 486.034,-288.006 490.342,-293.524"/>
</g>
<!-- Node9&#45;&gt;Node9 -->
<g id="edge22" class="edge"><title>Node9&#45;&gt;Node9</title>
<path fill="none" stroke="midnightblue" d="M377.121,-445.757C368.423,-454.565 374.383,-464 395,-464 407.886,-464 415.046,-460.315 416.48,-455.4"/>
<polygon fill="midnightblue" stroke="midnightblue" points="419.657,-453.9 412.879,-445.757 413.099,-456.35 419.657,-453.9"/>
</g>
<!-- Node10&#45;&gt;Node3 -->
<g id="edge26" class="edge"><title>Node10&#45;&gt;Node3</title>
<path fill="none" stroke="midnightblue" d="M410.565,-256.375C430.093,-243.469 464.973,-220.418 488.05,-205.167"/>
<polygon fill="midnightblue" stroke="midnightblue" points="490.14,-207.981 496.553,-199.547 486.281,-202.141 490.14,-207.981"/>
</g>
<!-- Node10&#45;&gt;Node5 -->
<g id="edge28" class="edge"><title>Node10&#45;&gt;Node5</title>
<path fill="none" stroke="midnightblue" d="M415.769,-275.627C434.147,-284.576 461.731,-298.008 482.489,-308.117"/>
<polygon fill="midnightblue" stroke="midnightblue" points="480.966,-311.267 491.489,-312.499 484.03,-304.974 480.966,-311.267"/>
</g>
<!-- Node10&#45;&gt;Node10 -->
<g id="edge32" class="edge"><title>Node10&#45;&gt;Node10</title>
<path fill="none" stroke="midnightblue" d="M377.121,-275.757C368.423,-284.565 374.383,-294 395,-294 407.886,-294 415.046,-290.315 416.48,-285.4"/>
<polygon fill="midnightblue" stroke="midnightblue" points="419.657,-283.9 412.879,-275.757 413.099,-286.35 419.657,-283.9"/>
</g>
<!-- Node10&#45;&gt;Node11 -->
<g id="edge30" class="edge"><title>Node10&#45;&gt;Node11</title>
<path fill="none" stroke="midnightblue" d="M435.255,-269.072C445.21,-269.851 455.98,-270.694 466.187,-271.493"/>
<polygon fill="midnightblue" stroke="midnightblue" points="465.915,-274.982 476.157,-272.273 466.461,-268.004 465.915,-274.982"/>
</g>
<!-- Node12&#45;&gt;Node4 -->
<g id="edge42" class="edge"><title>Node12&#45;&gt;Node4</title>
<path fill="none" stroke="midnightblue" d="M304.788,-153.944C369.558,-157.564 508.02,-165.301 573.826,-168.979"/>
<polygon fill="midnightblue" stroke="midnightblue" points="573.936,-172.49 584.115,-169.554 574.326,-165.501 573.936,-172.49"/>
</g>
<!-- Node13&#45;&gt;Node2 -->
<g id="edge46" class="edge"><title>Node13&#45;&gt;Node2</title>
<path fill="none" stroke="midnightblue" d="M159.142,-218.776C171.81,-233.524 197.547,-261.681 224,-280 227.128,-282.166 316.057,-323.697 364.015,-346.042"/>
<polygon fill="midnightblue" stroke="midnightblue" points="362.759,-349.318 373.302,-350.368 365.715,-342.973 362.759,-349.318"/>
</g>
<!-- Node13&#45;&gt;Node3 -->
<g id="edge48" class="edge"><title>Node13&#45;&gt;Node3</title>
<path fill="none" stroke="midnightblue" d="M187.835,-207.056C257.577,-203.375 408.012,-195.435 476.173,-191.838"/>
<polygon fill="midnightblue" stroke="midnightblue" points="476.579,-195.322 486.381,-191.299 476.21,-188.331 476.579,-195.322"/>
</g>
<!-- Node13&#45;&gt;Node4 -->
<g id="edge58" class="edge"><title>Node13&#45;&gt;Node4</title>
<path fill="none" stroke="midnightblue" d="M187.553,-215.719C258.702,-227.347 420.035,-246.575 548,-209 563.445,-204.465 578.884,-195.021 590.492,-186.683"/>
<polygon fill="midnightblue" stroke="midnightblue" points="592.667,-189.428 598.559,-180.623 588.462,-183.831 592.667,-189.428"/>
</g>
<!-- Node13&#45;&gt;Node5 -->
<g id="edge50" class="edge"><title>Node13&#45;&gt;Node5</title>
<path fill="none" stroke="midnightblue" d="M171.706,-218.527C186.286,-225.194 206.285,-234.258 224,-242 263.785,-259.388 275.568,-259.795 314,-280 330.806,-288.835 332.119,-296.615 350,-303 391.258,-317.734 441.865,-321.575 475.199,-322.322"/>
<polygon fill="midnightblue" stroke="midnightblue" points="475.333,-325.824 485.381,-322.466 475.432,-318.825 475.333,-325.824"/>
</g>
<!-- Node13&#45;&gt;Node6 -->
<g id="edge52" class="edge"><title>Node13&#45;&gt;Node6</title>
<path fill="none" stroke="midnightblue" d="M158.118,-199.412C170.174,-183.729 196.042,-152.399 224,-133 226.517,-131.254 229.219,-129.617 232.002,-128.094"/>
<polygon fill="midnightblue" stroke="midnightblue" points="233.626,-131.196 241.037,-123.624 230.522,-124.922 233.626,-131.196"/>
</g>
<!-- Node13&#45;&gt;Node8 -->
<g id="edge54" class="edge"><title>Node13&#45;&gt;Node8</title>
<path fill="none" stroke="midnightblue" d="M155.415,-218.567C165.241,-239.017 190.699,-287.592 224,-318 227.837,-321.504 232.279,-324.679 236.833,-327.488"/>
<polygon fill="midnightblue" stroke="midnightblue" points="235.173,-330.57 245.603,-332.429 238.609,-324.471 235.173,-330.57"/>
</g>
<!-- Node13&#45;&gt;Node9 -->
<g id="edge56" class="edge"><title>Node13&#45;&gt;Node9</title>
<path fill="none" stroke="midnightblue" d="M153.123,-218.56C159.404,-244.772 180.255,-318.643 224,-361 256.834,-392.792 305.395,-412.366 342.218,-423.509"/>
<polygon fill="midnightblue" stroke="midnightblue" points="341.69,-427 352.27,-426.431 343.644,-420.278 341.69,-427"/>
</g>
<!-- Node13&#45;&gt;Node12 -->
<g id="edge60" class="edge"><title>Node13&#45;&gt;Node12</title>
<path fill="none" stroke="midnightblue" d="M170.583,-199.459C189.312,-190.335 217.781,-176.466 239.114,-166.073"/>
<polygon fill="midnightblue" stroke="midnightblue" points="240.896,-169.098 248.353,-161.572 237.83,-162.805 240.896,-169.098"/>
</g>
<!-- Node13&#45;&gt;Node13 -->
<g id="edge62" class="edge"><title>Node13&#45;&gt;Node13</title>
<path fill="none" stroke="midnightblue" d="M132.738,-218.757C124.34,-227.565 130.094,-237 150,-237 162.441,-237 169.355,-233.315 170.74,-228.4"/>
<polygon fill="midnightblue" stroke="midnightblue" points="173.947,-226.977 167.262,-218.757 167.362,-229.351 173.947,-226.977"/>
</g>
<!-- Node13&#45;&gt;Node14 -->
<g id="edge64" class="edge"><title>Node13&#45;&gt;Node14</title>
<path fill="none" stroke="midnightblue" d="M154.81,-199.391C163.775,-177.897 188.184,-125.44 224,-95 225.942,-93.3498 228.048,-91.8225 230.253,-90.4123"/>
<polygon fill="midnightblue" stroke="midnightblue" points="232.027,-93.431 239.099,-85.5416 228.651,-87.2991 232.027,-93.431"/>
</g>
</g>
</svg>
        <g id="navigator" transform="translate(0 0)" fill="#404254">
                <rect fill="#f2f5e9" fill-opacity="0.5" stroke="#606060" stroke-width=".5" x="0" y="0" width="60" height="60"/>
                <use id="zoomplus" xlink:href="#zoomPlus" x="17" y="9" onmousedown="handleZoom(evt,'in')"/>
                <use id="zoomminus" xlink:href="#zoomMin" x="42" y="9" onmousedown="handleZoom(evt,'out')"/>
                <use id="reset" xlink:href="#resetDef" x="30" y="36" onmousedown="handleReset()"/>
                <g id="arrowUp" xlink:href="#dirArrow" transform="translate(30 24)" onmousedown="handlePan(0,-1)">
                  <use xlink:href="#rim" fill="#404040">
                        <set attributeName="fill" to="#808080" begin="arrowUp.mouseover" end="arrowUp.mouseout"/>
                  </use>
                  <path fill="none" stroke="white" stroke-width="1.5" d="M0,-3.0v7 M-2.5,-0.5L0,-3.0L2.5,-0.5"/>
                </g>
                <g id="arrowRight" xlink:href="#dirArrow" transform="rotate(90) translate(36 -43)" onmousedown="handlePan(1,0)">
                  <use xlink:href="#rim" fill="#404040">
                        <set attributeName="fill" to="#808080" begin="arrowRight.mouseover" end="arrowRight.mouseout"/>
                  </use>
                  <path fill="none" stroke="white" stroke-width="1.5" d="M0,-3.0v7 M-2.5,-0.5L0,-3.0L2.5,-0.5"/>
                </g>
                <g id="arrowDown" xlink:href="#dirArrow" transform="rotate(180) translate(-30 -48)" onmousedown="handlePan(0,1)">
                  <use xlink:href="#rim" fill="#404040">
                        <set attributeName="fill" to="#808080" begin="arrowDown.mouseover" end="arrowDown.mouseout"/>
                  </use>
                  <path fill="none" stroke="white" stroke-width="1.5" d="M0,-3.0v7 M-2.5,-0.5L0,-3.0L2.5,-0.5"/>
                </g>
                <g id="arrowLeft" xlink:href="#dirArrow" transform="rotate(270) translate(-36 17)" onmousedown="handlePan(-1,0)">
                  <use xlink:href="#rim" fill="#404040">
                        <set attributeName="fill" to="#808080" begin="arrowLeft.mouseover" end="arrowLeft.mouseout"/>
                  </use>
                  <path fill="none" stroke="white" stroke-width="1.5" d="M0,-3.0v7 M-2.5,-0.5L0,-3.0L2.5,-0.5"/>
                </g>
        </g>
</svg>
