<?xml version="1.0" encoding="UTF-8" standalone="no"?>
<!DOCTYPE svg PUBLIC "-//W3C//DTD SVG 1.1//EN"
 "http://www.w3.org/Graphics/SVG/1.1/DTD/svg11.dtd">
<!-- Generated by graphviz version 2.28.0 (20110507.0327)
 -->
<!-- Title: G Pages: 1 -->
<!--zoomable-->
<svg id="main" version="1.1" xmlns="http://www.w3.org/2000/svg" xmlns:xlink="http://www.w3.org/1999/xlink" xml:space="preserve" onload="init(evt)">
        <defs>
                <circle id="rim" cx="0" cy="0" r="7"/>
                <circle id="rim2" cx="0" cy="0" r="3.5"/>
                <g id="zoomPlus">
                        <use xlink:href="#rim" fill="#404040">
                                <set attributeName="fill" to="#808080" begin="zoomplus.mouseover" end="zoomplus.mouseout"/>
                        </use>
                        <path d="M-4,0h8M0,-4v8" fill="none" stroke="white" stroke-width="1.5" pointer-events="none"/>
                </g>
                <g id="zoomMin">
                        <use xlink:href="#rim" fill="#404040">
                                <set attributeName="fill" to="#808080" begin="zoomminus.mouseover" end="zoomminus.mouseout"/>
                        </use>
                        <path d="M-4,0h8" fill="none" stroke="white" stroke-width="1.5" pointer-events="none"/>
                </g>
                <g id="dirArrow">
                        <path fill="none" stroke="white" stroke-width="1.5" d="M0,-3.0v7 M-2.5,-0.5L0,-3.0L2.5,-0.5"/>
                </g>
               <g id="resetDef">
                       <use xlink:href="#rim2" fill="#404040">
                               <set attributeName="fill" to="#808080" begin="reset.mouseover" end="reset.mouseout"/>
                       </use>
               </g>
        </defs>

<script type="text/javascript">
var viewWidth = 568;
var viewHeight = 123;
var sectionId = 'dynsection-3';
</script>
<script xlink:href="svgpan.js"/>
<svg id="graph" class="graph">
<g id="viewport">
<title>G</title>
<polygon fill="white" stroke="white" points="-4,5 -4,-119 565,-119 565,5 -4,5"/>
<!-- Node1 -->
<g id="node1" class="node"><title>Node1</title>
<polygon fill="#bfbfbf" stroke="black" points="0,-48.5 0,-67.5 72,-67.5 72,-48.5 0,-48.5"/>
<text text-anchor="middle" x="36" y="-55.5" font-family="Helvetica,sans-Serif" font-size="10.00">David_Spline</text>
</g>
<!-- Node2 -->
<g id="node3" class="node"><title>Node2</title>
<a xlink:href="_david___spline_8h.html#a4dca050905a794c29d094e3ee708486a" target="_top" xlink:title="David_C2Spline">
<polygon fill="white" stroke="black" points="108,-67.5 108,-86.5 192,-86.5 192,-67.5 108,-67.5"/>
<text text-anchor="middle" x="150" y="-74.5" font-family="Helvetica,sans-Serif" font-size="10.00">David_C2Spline</text>
</a>
</g>
<!-- Node1&#45;&gt;Node2 -->
<g id="edge2" class="edge"><title>Node1&#45;&gt;Node2</title>
<path fill="none" stroke="midnightblue" d="M82.1984,-65.6676C90.6351,-67.0988 99.4118,-68.5877 107.723,-69.9976"/>
<polygon fill="midnightblue" stroke="midnightblue" points="82.5748,-62.1815 72.1302,-63.9596 81.4039,-69.0829 82.5748,-62.1815"/>
</g>
<!-- Node3 -->
<g id="node5" class="node"><title>Node3</title>
<a xlink:href="_david___static_trajectory_8h.html#a91fb57999d030dd61f2807822888dd1f" target="_top" xlink:title="David_StaticTrajectory">
<polygon fill="white" stroke="black" points="234.5,-95.5 234.5,-114.5 347.5,-114.5 347.5,-95.5 234.5,-95.5"/>
<text text-anchor="middle" x="291" y="-102.5" font-family="Helvetica,sans-Serif" font-size="10.00">David_StaticTrajectory</text>
</a>
</g>
<!-- Node1&#45;&gt;Node3 -->
<g id="edge14" class="edge"><title>Node1&#45;&gt;Node3</title>
<path fill="none" stroke="midnightblue" d="M58.9394,-73.0263C72.4501,-81.4216 90.4854,-91.1449 108,-96 149.309,-107.451 197.877,-109.301 234.446,-108.506"/>
<polygon fill="midnightblue" stroke="midnightblue" points="60.6721,-69.9791 50.3707,-67.5025 56.8793,-75.8625 60.6721,-69.9791"/>
</g>
<!-- Node4 -->
<g id="node7" class="node"><title>Node4</title>
<a xlink:href="_david___static_trajectory_8h.html#a95ad314ee9a20a04d22df232f17c64cf" target="_top" xlink:title="David_OneFoot">
<polygon fill="white" stroke="black" points="249.5,-38.5 249.5,-57.5 332.5,-57.5 332.5,-38.5 249.5,-38.5"/>
<text text-anchor="middle" x="291" y="-45.5" font-family="Helvetica,sans-Serif" font-size="10.00">David_OneFoot</text>
</a>
</g>
<!-- Node1&#45;&gt;Node4 -->
<g id="edge16" class="edge"><title>Node1&#45;&gt;Node4</title>
<path fill="none" stroke="midnightblue" d="M82.1727,-56.2145C129.617,-54.3393 203.556,-51.4167 249.263,-49.6101"/>
<polygon fill="midnightblue" stroke="midnightblue" points="82.0325,-52.7172 72.1786,-56.6095 82.309,-59.7118 82.0325,-52.7172"/>
</g>
<!-- Node7 -->
<g id="node13" class="node"><title>Node7</title>
<a xlink:href="_david___static_trajectory_8h.html#acf6ece8c4ea8078f94c4220ded1df288" target="_top" xlink:title="David_GravityExperiment">
<polygon fill="white" stroke="black" points="228.5,-0.5 228.5,-19.5 353.5,-19.5 353.5,-0.5 228.5,-0.5"/>
<text text-anchor="middle" x="291" y="-7.5" font-family="Helvetica,sans-Serif" font-size="10.00">David_GravityExperiment</text>
</a>
</g>
<!-- Node1&#45;&gt;Node7 -->
<g id="edge18" class="edge"><title>Node1&#45;&gt;Node7</title>
<path fill="none" stroke="midnightblue" d="M82.0915,-49.4451C126.407,-41.0373 193.897,-28.233 239.874,-19.5101"/>
<polygon fill="midnightblue" stroke="midnightblue" points="81.3509,-46.0231 72.1786,-51.3258 82.6557,-52.9004 81.3509,-46.0231"/>
</g>
<!-- Node2&#45;&gt;Node3 -->
<g id="edge4" class="edge"><title>Node2&#45;&gt;Node3</title>
<path fill="none" stroke="midnightblue" d="M202.24,-87.3217C215.49,-89.9908 229.693,-92.8519 242.73,-95.478"/>
<polygon fill="midnightblue" stroke="midnightblue" points="202.823,-83.8688 192.328,-85.3251 201.44,-90.731 202.823,-83.8688"/>
</g>
<!-- Node2&#45;&gt;Node4 -->
<g id="edge6" class="edge"><title>Node2&#45;&gt;Node4</title>
<path fill="none" stroke="midnightblue" d="M202.248,-66.308C217.679,-63.0885 234.403,-59.5994 249.071,-56.5392"/>
<polygon fill="midnightblue" stroke="midnightblue" points="201.403,-62.9089 192.328,-68.3776 202.832,-69.7614 201.403,-62.9089"/>
</g>
<!-- Node2&#45;&gt;Node7 -->
<g id="edge12" class="edge"><title>Node2&#45;&gt;Node7</title>
<path fill="none" stroke="midnightblue" d="M172.561,-61.4312C187.547,-51.1532 208.293,-37.9761 228,-29 235.991,-25.3601 244.869,-22.1745 253.35,-19.5041"/>
<polygon fill="midnightblue" stroke="midnightblue" points="170.225,-58.7938 164.035,-67.3925 174.236,-64.5306 170.225,-58.7938"/>
</g>
<!-- Node5 -->
<g id="node9" class="node"><title>Node5</title>
<a xlink:href="_forward_dynamics_8h.html#a23609ae4e05df387941c4bbc7bfc26fe" target="_top" xlink:title="ForwardDynamics">
<polygon fill="white" stroke="black" points="390.5,-38.5 390.5,-57.5 485.5,-57.5 485.5,-38.5 390.5,-38.5"/>
<text text-anchor="middle" x="438" y="-45.5" font-family="Helvetica,sans-Serif" font-size="10.00">ForwardDynamics</text>
</a>
</g>
<!-- Node4&#45;&gt;Node5 -->
<g id="edge8" class="edge"><title>Node4&#45;&gt;Node5</title>
<path fill="none" stroke="midnightblue" d="M343.161,-48C358.541,-48 375.328,-48 390.396,-48"/>
<polygon fill="midnightblue" stroke="midnightblue" points="342.776,-44.5001 332.776,-48 342.776,-51.5001 342.776,-44.5001"/>
</g>
<!-- Node6 -->
<g id="node11" class="node"><title>Node6</title>
<a xlink:href="main_8c.html#a0ddf1224851353fc92bfbff6f499fa97" target="_top" xlink:title="main">
<polygon fill="white" stroke="black" points="522,-38.5 522,-57.5 560,-57.5 560,-38.5 522,-38.5"/>
<text text-anchor="middle" x="541" y="-45.5" font-family="Helvetica,sans-Serif" font-size="10.00">main</text>
</a>
</g>
<!-- Node5&#45;&gt;Node6 -->
<g id="edge10" class="edge"><title>Node5&#45;&gt;Node6</title>
<path fill="none" stroke="midnightblue" d="M495.879,-48C505.25,-48 514.323,-48 521.779,-48"/>
<polygon fill="midnightblue" stroke="midnightblue" points="495.657,-44.5001 485.657,-48 495.657,-51.5001 495.657,-44.5001"/>
</g>
</g>
</svg>
        <g id="navigator" transform="translate(0 0)" fill="#404254">
                <rect fill="#f2f5e9" fill-opacity="0.5" stroke="#606060" stroke-width=".5" x="0" y="0" width="60" height="60"/>
                <use id="zoomplus" xlink:href="#zoomPlus" x="17" y="9" onmousedown="handleZoom(evt,'in')"/>
                <use id="zoomminus" xlink:href="#zoomMin" x="42" y="9" onmousedown="handleZoom(evt,'out')"/>
                <use id="reset" xlink:href="#resetDef" x="30" y="36" onmousedown="handleReset()"/>
                <g id="arrowUp" xlink:href="#dirArrow" transform="translate(30 24)" onmousedown="handlePan(0,-1)">
                  <use xlink:href="#rim" fill="#404040">
                        <set attributeName="fill" to="#808080" begin="arrowUp.mouseover" end="arrowUp.mouseout"/>
                  </use>
                  <path fill="none" stroke="white" stroke-width="1.5" d="M0,-3.0v7 M-2.5,-0.5L0,-3.0L2.5,-0.5"/>
                </g>
                <g id="arrowRight" xlink:href="#dirArrow" transform="rotate(90) translate(36 -43)" onmousedown="handlePan(1,0)">
                  <use xlink:href="#rim" fill="#404040">
                        <set attributeName="fill" to="#808080" begin="arrowRight.mouseover" end="arrowRight.mouseout"/>
                  </use>
                  <path fill="none" stroke="white" stroke-width="1.5" d="M0,-3.0v7 M-2.5,-0.5L0,-3.0L2.5,-0.5"/>
                </g>
                <g id="arrowDown" xlink:href="#dirArrow" transform="rotate(180) translate(-30 -48)" onmousedown="handlePan(0,1)">
                  <use xlink:href="#rim" fill="#404040">
                        <set attributeName="fill" to="#808080" begin="arrowDown.mouseover" end="arrowDown.mouseout"/>
                  </use>
                  <path fill="none" stroke="white" stroke-width="1.5" d="M0,-3.0v7 M-2.5,-0.5L0,-3.0L2.5,-0.5"/>
                </g>
                <g id="arrowLeft" xlink:href="#dirArrow" transform="rotate(270) translate(-36 17)" onmousedown="handlePan(-1,0)">
                  <use xlink:href="#rim" fill="#404040">
                        <set attributeName="fill" to="#808080" begin="arrowLeft.mouseover" end="arrowLeft.mouseout"/>
                  </use>
                  <path fill="none" stroke="white" stroke-width="1.5" d="M0,-3.0v7 M-2.5,-0.5L0,-3.0L2.5,-0.5"/>
                </g>
        </g>
</svg>
