<?xml version="1.0" encoding="UTF-8" standalone="no"?>
<!DOCTYPE svg PUBLIC "-//W3C//DTD SVG 1.1//EN"
 "http://www.w3.org/Graphics/SVG/1.1/DTD/svg11.dtd">
<!-- Generated by graphviz version 2.28.0 (20110507.0327)
 -->
<!-- Title: G Pages: 1 -->
<svg width="187pt" height="84pt"
 viewBox="0.00 0.00 187.00 84.00" xmlns="http://www.w3.org/2000/svg" xmlns:xlink="http://www.w3.org/1999/xlink">
<g id="graph1" class="graph" transform="scale(1 1) rotate(0) translate(4 80)">
<title>G</title>
<polygon fill="white" stroke="white" points="-4,5 -4,-80 184,-80 184,5 -4,5"/>
<!-- Node1 -->
<g id="node1" class="node"><title>Node1</title>
<polygon fill="#bfbfbf" stroke="black" points="48.5,-56.5 48.5,-75.5 127.5,-75.5 127.5,-56.5 48.5,-56.5"/>
<text text-anchor="middle" x="88" y="-63.5" font-family="Helvetica,sans-Serif" font-size="10.00">David_Cross.h</text>
</g>
<!-- Node2 -->
<g id="node3" class="node"><title>Node2</title>
<a xlink:href="_david___cross_8c.html" target="_top" xlink:title="David_Cross.c">
<polygon fill="white" stroke="black" points="-0.5,-0.5 -0.5,-19.5 78.5,-19.5 78.5,-0.5 -0.5,-0.5"/>
<text text-anchor="middle" x="39" y="-7.5" font-family="Helvetica,sans-Serif" font-size="10.00">David_Cross.c</text>
</a>
</g>
<!-- Node1&#45;&gt;Node2 -->
<g id="edge2" class="edge"><title>Node1&#45;&gt;Node2</title>
<path fill="none" stroke="midnightblue" d="M72.9655,-48.4314C64.3778,-38.9673 53.9565,-27.4827 46.9408,-19.7511"/>
<polygon fill="midnightblue" stroke="midnightblue" points="70.5967,-51.0293 79.9086,-56.083 75.7807,-46.3254 70.5967,-51.0293"/>
</g>
<!-- Node3 -->
<g id="node5" class="node"><title>Node3</title>
<a xlink:href="_david___gravity_8c.html" target="_top" xlink:title="David_Gravity.c">
<polygon fill="white" stroke="black" points="96.5,-0.5 96.5,-19.5 179.5,-19.5 179.5,-0.5 96.5,-0.5"/>
<text text-anchor="middle" x="138" y="-7.5" font-family="Helvetica,sans-Serif" font-size="10.00">David_Gravity.c</text>
</a>
</g>
<!-- Node1&#45;&gt;Node3 -->
<g id="edge4" class="edge"><title>Node1&#45;&gt;Node3</title>
<path fill="none" stroke="midnightblue" d="M103.076,-48.7175C111.889,-39.1997 122.666,-27.5608 129.897,-19.7511"/>
<polygon fill="midnightblue" stroke="midnightblue" points="100.482,-46.3674 96.2565,-56.083 105.619,-51.1233 100.482,-46.3674"/>
</g>
</g>
</svg>
