<?xml version="1.0" encoding="UTF-8" standalone="no"?>
<!DOCTYPE svg PUBLIC "-//W3C//DTD SVG 1.1//EN"
 "http://www.w3.org/Graphics/SVG/1.1/DTD/svg11.dtd">
<!-- Generated by graphviz version 2.28.0 (20110507.0327)
 -->
<!-- Title: G Pages: 1 -->
<svg width="443pt" height="84pt"
 viewBox="0.00 0.00 443.00 84.00" xmlns="http://www.w3.org/2000/svg" xmlns:xlink="http://www.w3.org/1999/xlink">
<g id="graph1" class="graph" transform="scale(1 1) rotate(0) translate(4 80)">
<title>G</title>
<polygon fill="white" stroke="white" points="-4,5 -4,-80 440,-80 440,5 -4,5"/>
<!-- Node1 -->
<g id="node1" class="node"><title>Node1</title>
<polygon fill="#bfbfbf" stroke="black" points="160.5,-56.5 160.5,-75.5 253.5,-75.5 253.5,-56.5 160.5,-56.5"/>
<text text-anchor="middle" x="207" y="-63.5" font-family="Helvetica,sans-Serif" font-size="10.00">David_CalcCoM.h</text>
</g>
<!-- Node2 -->
<g id="node3" class="node"><title>Node2</title>
<a xlink:href="_david___calc_co_m_8c.html" target="_top" xlink:title="David_CalcCoM.c">
<polygon fill="white" stroke="black" points="-0.5,-0.5 -0.5,-19.5 92.5,-19.5 92.5,-0.5 -0.5,-0.5"/>
<text text-anchor="middle" x="46" y="-7.5" font-family="Helvetica,sans-Serif" font-size="10.00">David_CalcCoM.c</text>
</a>
</g>
<!-- Node1&#45;&gt;Node2 -->
<g id="edge2" class="edge"><title>Node1&#45;&gt;Node2</title>
<path fill="none" stroke="midnightblue" d="M171.735,-53.172C141.419,-43.0039 98.4298,-28.5852 71.3916,-19.5164"/>
<polygon fill="midnightblue" stroke="midnightblue" points="170.895,-56.5819 181.489,-56.4435 173.121,-49.9452 170.895,-56.5819"/>
</g>
<!-- Node3 -->
<g id="node5" class="node"><title>Node3</title>
<a xlink:href="_david___gravity_8c.html" target="_top" xlink:title="David_Gravity.c">
<polygon fill="white" stroke="black" points="110.5,-0.5 110.5,-19.5 193.5,-19.5 193.5,-0.5 110.5,-0.5"/>
<text text-anchor="middle" x="152" y="-7.5" font-family="Helvetica,sans-Serif" font-size="10.00">David_Gravity.c</text>
</a>
</g>
<!-- Node1&#45;&gt;Node3 -->
<g id="edge4" class="edge"><title>Node1&#45;&gt;Node3</title>
<path fill="none" stroke="midnightblue" d="M190.706,-49.0024C180.959,-39.4329 168.947,-27.6389 160.913,-19.7511"/>
<polygon fill="midnightblue" stroke="midnightblue" points="188.33,-51.5746 197.918,-56.083 193.234,-46.5796 188.33,-51.5746"/>
</g>
<!-- Node4 -->
<g id="node7" class="node"><title>Node4</title>
<a xlink:href="_david___stabilizator_8c.html" target="_top" xlink:title="David_Stabilizator.c">
<polygon fill="white" stroke="black" points="212,-0.5 212,-19.5 314,-19.5 314,-0.5 212,-0.5"/>
<text text-anchor="middle" x="263" y="-7.5" font-family="Helvetica,sans-Serif" font-size="10.00">David_Stabilizator.c</text>
</a>
</g>
<!-- Node1&#45;&gt;Node4 -->
<g id="edge6" class="edge"><title>Node1&#45;&gt;Node4</title>
<path fill="none" stroke="midnightblue" d="M223.33,-49.2533C233.265,-39.6731 245.588,-27.7906 253.839,-19.8339"/>
<polygon fill="midnightblue" stroke="midnightblue" points="220.766,-46.8631 215.997,-56.324 225.625,-51.902 220.766,-46.8631"/>
</g>
<!-- Node5 -->
<g id="node9" class="node"><title>Node5</title>
<a xlink:href="_forward_dynamics_8c.html" target="_top" xlink:title="ForwardDynamics.c">
<polygon fill="white" stroke="black" points="332.5,-0.5 332.5,-19.5 435.5,-19.5 435.5,-0.5 332.5,-0.5"/>
<text text-anchor="middle" x="384" y="-7.5" font-family="Helvetica,sans-Serif" font-size="10.00">ForwardDynamics.c</text>
</a>
</g>
<!-- Node1&#45;&gt;Node5 -->
<g id="edge8" class="edge"><title>Node1&#45;&gt;Node5</title>
<path fill="none" stroke="midnightblue" d="M244.903,-53.4363C278.275,-43.2551 326.101,-28.664 356.085,-19.5164"/>
<polygon fill="midnightblue" stroke="midnightblue" points="243.59,-50.1777 235.046,-56.4435 245.632,-56.8731 243.59,-50.1777"/>
</g>
</g>
</svg>
