<?xml version="1.0" encoding="UTF-8" standalone="no"?>
<!DOCTYPE svg PUBLIC "-//W3C//DTD SVG 1.1//EN"
 "http://www.w3.org/Graphics/SVG/1.1/DTD/svg11.dtd">
<!-- Generated by graphviz version 2.28.0 (20110507.0327)
 -->
<!-- Title: G Pages: 1 -->
<svg width="208pt" height="84pt"
 viewBox="0.00 0.00 208.00 84.00" xmlns="http://www.w3.org/2000/svg" xmlns:xlink="http://www.w3.org/1999/xlink">
<g id="graph1" class="graph" transform="scale(1 1) rotate(0) translate(4 80)">
<title>G</title>
<polygon fill="white" stroke="white" points="-4,5 -4,-80 205,-80 205,5 -4,5"/>
<!-- Node1 -->
<g id="node1" class="node"><title>Node1</title>
<polygon fill="#bfbfbf" stroke="black" points="54,-56.5 54,-75.5 156,-75.5 156,-56.5 54,-56.5"/>
<text text-anchor="middle" x="105" y="-63.5" font-family="Helvetica,sans-Serif" font-size="10.00">David_FindMother.h</text>
</g>
<!-- Node2 -->
<g id="node3" class="node"><title>Node2</title>
<a xlink:href="_david___find_mother_8c.html" target="_top" xlink:title="David_FindMother.c">
<polygon fill="white" stroke="black" points="0,-0.5 0,-19.5 102,-19.5 102,-0.5 0,-0.5"/>
<text text-anchor="middle" x="51" y="-7.5" font-family="Helvetica,sans-Serif" font-size="10.00">David_FindMother.c</text>
</a>
</g>
<!-- Node1&#45;&gt;Node2 -->
<g id="edge2" class="edge"><title>Node1&#45;&gt;Node2</title>
<path fill="none" stroke="midnightblue" d="M89.0024,-49.0024C79.4329,-39.4329 67.6389,-27.6389 59.7511,-19.7511"/>
<polygon fill="midnightblue" stroke="midnightblue" points="86.537,-51.4868 96.083,-56.083 91.4868,-46.537 86.537,-51.4868"/>
</g>
<!-- Node3 -->
<g id="node5" class="node"><title>Node3</title>
<a xlink:href="_david__u_l_i_n_k_8c.html" target="_top" xlink:title="David_uLINK.c">
<polygon fill="white" stroke="black" points="120,-0.5 120,-19.5 200,-19.5 200,-0.5 120,-0.5"/>
<text text-anchor="middle" x="160" y="-7.5" font-family="Helvetica,sans-Serif" font-size="10.00">David_uLINK.c</text>
</a>
</g>
<!-- Node1&#45;&gt;Node3 -->
<g id="edge4" class="edge"><title>Node1&#45;&gt;Node3</title>
<path fill="none" stroke="midnightblue" d="M121.294,-49.0024C131.041,-39.4329 143.053,-27.6389 151.087,-19.7511"/>
<polygon fill="midnightblue" stroke="midnightblue" points="118.766,-46.5796 114.082,-56.083 123.67,-51.5746 118.766,-46.5796"/>
</g>
</g>
</svg>
