<?xml version="1.0" encoding="UTF-8" standalone="no"?>
<!DOCTYPE svg PUBLIC "-//W3C//DTD SVG 1.1//EN"
 "http://www.w3.org/Graphics/SVG/1.1/DTD/svg11.dtd">
<!-- Generated by graphviz version 2.28.0 (20110507.0327)
 -->
<!-- Title: G Pages: 1 -->
<svg width="402pt" height="65pt"
 viewBox="0.00 0.00 402.00 65.00" xmlns="http://www.w3.org/2000/svg" xmlns:xlink="http://www.w3.org/1999/xlink">
<g id="graph1" class="graph" transform="scale(1 1) rotate(0) translate(4 61)">
<title>G</title>
<polygon fill="white" stroke="white" points="-4,5 -4,-61 399,-61 399,5 -4,5"/>
<!-- Node1 -->
<g id="node1" class="node"><title>Node1</title>
<polygon fill="#bfbfbf" stroke="black" points="0.5,-0.5 0.5,-19.5 75.5,-19.5 75.5,-0.5 0.5,-0.5"/>
<text text-anchor="middle" x="38" y="-7.5" font-family="Helvetica,sans-Serif" font-size="10.00">David_Gravity</text>
</g>
<!-- Node2 -->
<g id="node3" class="node"><title>Node2</title>
<a xlink:href="_david___gravity_8h.html#a1f1e600a0c38ffaf69b85505ea4645d0" target="_top" xlink:title="David_Gravity">
<polygon fill="white" stroke="black" points="112.5,-19.5 112.5,-38.5 187.5,-38.5 187.5,-19.5 112.5,-19.5"/>
<text text-anchor="middle" x="150" y="-26.5" font-family="Helvetica,sans-Serif" font-size="10.00">David_Gravity</text>
</a>
</g>
<!-- Node1&#45;&gt;Node2 -->
<g id="edge2" class="edge"><title>Node1&#45;&gt;Node2</title>
<path fill="none" stroke="midnightblue" d="M85.4989,-18.0316C94.4014,-19.5693 103.608,-21.1596 112.156,-22.6361"/>
<polygon fill="midnightblue" stroke="midnightblue" points="86.0782,-14.5799 75.6284,-16.3267 84.8867,-21.4778 86.0782,-14.5799"/>
</g>
<!-- Node3 -->
<g id="node6" class="node"><title>Node3</title>
<a xlink:href="_forward_dynamics_8h.html#a23609ae4e05df387941c4bbc7bfc26fe" target="_top" xlink:title="ForwardDynamics">
<polygon fill="white" stroke="black" points="224.5,-0.5 224.5,-19.5 319.5,-19.5 319.5,-0.5 224.5,-0.5"/>
<text text-anchor="middle" x="272" y="-7.5" font-family="Helvetica,sans-Serif" font-size="10.00">ForwardDynamics</text>
</a>
</g>
<!-- Node1&#45;&gt;Node3 -->
<g id="edge10" class="edge"><title>Node1&#45;&gt;Node3</title>
<path fill="none" stroke="midnightblue" d="M85.6104,-10C125.935,-10 183.947,-10 224.298,-10"/>
<polygon fill="midnightblue" stroke="midnightblue" points="85.5052,-6.5001 75.5052,-10 85.5052,-13.5001 85.5052,-6.5001"/>
</g>
<!-- Node2&#45;&gt;Node2 -->
<g id="edge4" class="edge"><title>Node2&#45;&gt;Node2</title>
<path fill="none" stroke="midnightblue" d="M129.26,-48.4C130.645,-53.3146 137.559,-57 150,-57 169.906,-57 175.66,-47.5653 167.262,-38.7571"/>
<polygon fill="midnightblue" stroke="midnightblue" points="132.638,-49.3514 132.738,-38.7571 126.053,-46.9768 132.638,-49.3514"/>
</g>
<!-- Node2&#45;&gt;Node3 -->
<g id="edge6" class="edge"><title>Node2&#45;&gt;Node3</title>
<path fill="none" stroke="midnightblue" d="M197.704,-21.6051C206.461,-20.2187 215.615,-18.7693 224.369,-17.3833"/>
<polygon fill="midnightblue" stroke="midnightblue" points="196.986,-18.1753 187.656,-23.1961 198.08,-25.0891 196.986,-18.1753"/>
</g>
<!-- Node4 -->
<g id="node8" class="node"><title>Node4</title>
<a xlink:href="main_8c.html#a0ddf1224851353fc92bfbff6f499fa97" target="_top" xlink:title="main">
<polygon fill="white" stroke="black" points="356,-0.5 356,-19.5 394,-19.5 394,-0.5 356,-0.5"/>
<text text-anchor="middle" x="375" y="-7.5" font-family="Helvetica,sans-Serif" font-size="10.00">main</text>
</a>
</g>
<!-- Node3&#45;&gt;Node4 -->
<g id="edge8" class="edge"><title>Node3&#45;&gt;Node4</title>
<path fill="none" stroke="midnightblue" d="M329.879,-10C339.25,-10 348.323,-10 355.779,-10"/>
<polygon fill="midnightblue" stroke="midnightblue" points="329.657,-6.5001 319.657,-10 329.657,-13.5001 329.657,-6.5001"/>
</g>
</g>
</svg>
