<?xml version="1.0" encoding="UTF-8" standalone="no"?>
<!DOCTYPE svg PUBLIC "-//W3C//DTD SVG 1.1//EN"
 "http://www.w3.org/Graphics/SVG/1.1/DTD/svg11.dtd">
<!-- Generated by graphviz version 2.28.0 (20110507.0327)
 -->
<!-- Title: G Pages: 1 -->
<svg width="282pt" height="84pt"
 viewBox="0.00 0.00 282.00 84.00" xmlns="http://www.w3.org/2000/svg" xmlns:xlink="http://www.w3.org/1999/xlink">
<g id="graph1" class="graph" transform="scale(1 1) rotate(0) translate(4 80)">
<title>G</title>
<polygon fill="white" stroke="white" points="-4,5 -4,-80 279,-80 279,5 -4,5"/>
<!-- Node1 -->
<g id="node1" class="node"><title>Node1</title>
<polygon fill="#bfbfbf" stroke="black" points="63.5,-56.5 63.5,-75.5 160.5,-75.5 160.5,-56.5 63.5,-56.5"/>
<text text-anchor="middle" x="112" y="-63.5" font-family="Helvetica,sans-Serif" font-size="10.00">David_Rodrigues.c</text>
</g>
<!-- Node2 -->
<g id="node3" class="node"><title>Node2</title>
<polygon fill="white" stroke="#bfbfbf" points="-0.5,-0.5 -0.5,-19.5 46.5,-19.5 46.5,-0.5 -0.5,-0.5"/>
<text text-anchor="middle" x="23" y="-7.5" font-family="Helvetica,sans-Serif" font-size="10.00">math.h</text>
</g>
<!-- Node1&#45;&gt;Node2 -->
<g id="edge2" class="edge"><title>Node1&#45;&gt;Node2</title>
<path fill="none" stroke="midnightblue" d="M97.7006,-56.324C83.8171,-47.9002 62.5076,-34.9709 46.1963,-25.0741"/>
<polygon fill="midnightblue" stroke="midnightblue" points="47.6289,-21.8495 37.2639,-19.6545 43.9978,-27.8341 47.6289,-21.8495"/>
</g>
<!-- Node3 -->
<g id="node5" class="node"><title>Node3</title>
<polygon fill="white" stroke="#bfbfbf" points="64.5,-0.5 64.5,-19.5 159.5,-19.5 159.5,-0.5 64.5,-0.5"/>
<text text-anchor="middle" x="112" y="-7.5" font-family="Helvetica,sans-Serif" font-size="10.00">d:\Mb\StLib\Mat.h</text>
</g>
<!-- Node1&#45;&gt;Node3 -->
<g id="edge4" class="edge"><title>Node1&#45;&gt;Node3</title>
<path fill="none" stroke="midnightblue" d="M112,-56.083C112,-49.0059 112,-38.8611 112,-29.9865"/>
<polygon fill="midnightblue" stroke="midnightblue" points="115.5,-29.751 112,-19.7511 108.5,-29.7511 115.5,-29.751"/>
</g>
<!-- Node4 -->
<g id="node7" class="node"><title>Node4</title>
<a xlink:href="_david___rodrigues_8h.html" target="_top" xlink:title="David_Rodrigues.h">
<polygon fill="white" stroke="black" points="177.5,-0.5 177.5,-19.5 274.5,-19.5 274.5,-0.5 177.5,-0.5"/>
<text text-anchor="middle" x="226" y="-7.5" font-family="Helvetica,sans-Serif" font-size="10.00">David_Rodrigues.h</text>
</a>
</g>
<!-- Node1&#45;&gt;Node4 -->
<g id="edge6" class="edge"><title>Node1&#45;&gt;Node4</title>
<path fill="none" stroke="midnightblue" d="M130.064,-56.4435C148.575,-47.6751 177.581,-33.9355 198.855,-23.8579"/>
<polygon fill="midnightblue" stroke="midnightblue" points="200.482,-26.9604 208.021,-19.5164 197.485,-20.6343 200.482,-26.9604"/>
</g>
</g>
</svg>
