<?xml version="1.0" encoding="UTF-8" standalone="no"?>
<!DOCTYPE svg PUBLIC "-//W3C//DTD SVG 1.1//EN"
 "http://www.w3.org/Graphics/SVG/1.1/DTD/svg11.dtd">
<!-- Generated by graphviz version 2.28.0 (20110507.0327)
 -->
<!-- Title: G Pages: 1 -->
<svg width="296pt" height="218pt"
 viewBox="0.00 0.00 296.00 218.00" xmlns="http://www.w3.org/2000/svg" xmlns:xlink="http://www.w3.org/1999/xlink">
<g id="graph1" class="graph" transform="scale(1 1) rotate(0) translate(4 214)">
<title>G</title>
<polygon fill="white" stroke="white" points="-4,5 -4,-214 293,-214 293,5 -4,5"/>
<!-- Node1 -->
<g id="node1" class="node"><title>Node1</title>
<polygon fill="#bfbfbf" stroke="black" points="0.5,-95.5 0.5,-114.5 89.5,-114.5 89.5,-95.5 0.5,-95.5"/>
<text text-anchor="middle" x="45" y="-102.5" font-family="Helvetica,sans-Serif" font-size="10.00">David_Rodrigues</text>
</g>
<!-- Node2 -->
<g id="node3" class="node"><title>Node2</title>
<a xlink:href="_mat_8c.html#a8fa4d7a3efd929279b0fbeb2fb7c22e3" target="_top" xlink:title="MatNormf">
<polygon fill="white" stroke="black" points="132.5,-190.5 132.5,-209.5 191.5,-209.5 191.5,-190.5 132.5,-190.5"/>
<text text-anchor="middle" x="162" y="-197.5" font-family="Helvetica,sans-Serif" font-size="10.00">MatNormf</text>
</a>
</g>
<!-- Node1&#45;&gt;Node2 -->
<g id="edge2" class="edge"><title>Node1&#45;&gt;Node2</title>
<path fill="none" stroke="midnightblue" d="M54.6587,-114.735C68.6337,-130.08 97.4878,-160.274 126,-181 128.055,-182.494 130.242,-183.951 132.479,-185.35"/>
<polygon fill="midnightblue" stroke="midnightblue" points="130.79,-188.416 141.194,-190.419 134.31,-182.365 130.79,-188.416"/>
</g>
<!-- Node3 -->
<g id="node5" class="node"><title>Node3</title>
<a xlink:href="_mat_8c.html#a9f566ce4c8ca2381358f2134cdd4e9e7" target="_top" xlink:title="MatMulScalf">
<polygon fill="white" stroke="black" points="126.5,-152.5 126.5,-171.5 197.5,-171.5 197.5,-152.5 126.5,-152.5"/>
<text text-anchor="middle" x="162" y="-159.5" font-family="Helvetica,sans-Serif" font-size="10.00">MatMulScalf</text>
</a>
</g>
<!-- Node1&#45;&gt;Node3 -->
<g id="edge4" class="edge"><title>Node1&#45;&gt;Node3</title>
<path fill="none" stroke="midnightblue" d="M65.2484,-114.541C83.6574,-123.665 111.64,-137.534 132.608,-147.927"/>
<polygon fill="midnightblue" stroke="midnightblue" points="131.175,-151.123 141.689,-152.428 134.283,-144.851 131.175,-151.123"/>
</g>
<!-- Node4 -->
<g id="node7" class="node"><title>Node4</title>
<a xlink:href="_mat_8c.html#a271708fa4a26745632412df2d7b894d1" target="_top" xlink:title="MatTilde">
<polygon fill="white" stroke="black" points="135.5,-114.5 135.5,-133.5 188.5,-133.5 188.5,-114.5 135.5,-114.5"/>
<text text-anchor="middle" x="162" y="-121.5" font-family="Helvetica,sans-Serif" font-size="10.00">MatTilde</text>
</a>
</g>
<!-- Node1&#45;&gt;Node4 -->
<g id="edge6" class="edge"><title>Node1&#45;&gt;Node4</title>
<path fill="none" stroke="midnightblue" d="M89.8046,-112.237C101.565,-114.18 114.137,-116.257 125.394,-118.117"/>
<polygon fill="midnightblue" stroke="midnightblue" points="124.863,-121.577 135.3,-119.754 126.005,-114.671 124.863,-121.577"/>
</g>
<!-- Node5 -->
<g id="node9" class="node"><title>Node5</title>
<a xlink:href="_mat_8c.html#a9e1be75d926e81ca29ca09676705a51e" target="_top" xlink:title="MatI">
<polygon fill="white" stroke="black" points="144.5,-76.5 144.5,-95.5 179.5,-95.5 179.5,-76.5 144.5,-76.5"/>
<text text-anchor="middle" x="162" y="-83.5" font-family="Helvetica,sans-Serif" font-size="10.00">MatI</text>
</a>
</g>
<!-- Node1&#45;&gt;Node5 -->
<g id="edge8" class="edge"><title>Node1&#45;&gt;Node5</title>
<path fill="none" stroke="midnightblue" d="M89.8046,-97.7627C104.681,-95.3048 120.857,-92.6323 134.025,-90.4568"/>
<polygon fill="midnightblue" stroke="midnightblue" points="134.988,-93.8452 144.284,-88.7618 133.847,-86.9388 134.988,-93.8452"/>
</g>
<!-- Node7 -->
<g id="node13" class="node"><title>Node7</title>
<a xlink:href="_mat_8c.html#aa4b0ec687e717aa5243535ca86cf60c3" target="_top" xlink:title="MatAddf">
<polygon fill="white" stroke="black" points="135.5,-38.5 135.5,-57.5 188.5,-57.5 188.5,-38.5 135.5,-38.5"/>
<text text-anchor="middle" x="162" y="-45.5" font-family="Helvetica,sans-Serif" font-size="10.00">MatAddf</text>
</a>
</g>
<!-- Node1&#45;&gt;Node7 -->
<g id="edge12" class="edge"><title>Node1&#45;&gt;Node7</title>
<path fill="none" stroke="midnightblue" d="M65.2484,-95.4595C83.6574,-86.335 111.64,-72.4656 132.608,-62.0726"/>
<polygon fill="midnightblue" stroke="midnightblue" points="134.283,-65.1486 141.689,-57.5716 131.175,-58.8767 134.283,-65.1486"/>
</g>
<!-- Node8 -->
<g id="node15" class="node"><title>Node8</title>
<a xlink:href="_mat_8c.html#ae5dcc36ff446d01426b9ce7fbd5e1f83" target="_top" xlink:title="MatMulf">
<polygon fill="white" stroke="black" points="136.5,-0.5 136.5,-19.5 187.5,-19.5 187.5,-0.5 136.5,-0.5"/>
<text text-anchor="middle" x="162" y="-7.5" font-family="Helvetica,sans-Serif" font-size="10.00">MatMulf</text>
</a>
</g>
<!-- Node1&#45;&gt;Node8 -->
<g id="edge14" class="edge"><title>Node1&#45;&gt;Node8</title>
<path fill="none" stroke="midnightblue" d="M54.6587,-95.2647C68.6337,-79.9198 97.4878,-49.7256 126,-29 128.055,-27.506 130.242,-26.0494 132.479,-24.6503"/>
<polygon fill="midnightblue" stroke="midnightblue" points="134.31,-27.6346 141.194,-19.581 130.79,-21.5839 134.31,-27.6346"/>
</g>
<!-- Node6 -->
<g id="node11" class="node"><title>Node6</title>
<a xlink:href="_mat_8c.html#a05baf6927b033792fd0ba2adcfb8df34" target="_top" xlink:title="MatClr">
<polygon fill="white" stroke="black" points="238.5,-76.5 238.5,-95.5 283.5,-95.5 283.5,-76.5 238.5,-76.5"/>
<text text-anchor="middle" x="261" y="-83.5" font-family="Helvetica,sans-Serif" font-size="10.00">MatClr</text>
</a>
</g>
<!-- Node5&#45;&gt;Node6 -->
<g id="edge10" class="edge"><title>Node5&#45;&gt;Node6</title>
<path fill="none" stroke="midnightblue" d="M179.896,-86C193.165,-86 212.024,-86 228.11,-86"/>
<polygon fill="midnightblue" stroke="midnightblue" points="228.194,-89.5001 238.194,-86 228.193,-82.5001 228.194,-89.5001"/>
</g>
<!-- Node9 -->
<g id="node17" class="node"><title>Node9</title>
<a xlink:href="_mat_8c.html#a63a68223bbacc69c068f6a3bdb4b428a" target="_top" xlink:title="MatCpyf">
<polygon fill="white" stroke="black" points="234.5,-0.5 234.5,-19.5 287.5,-19.5 287.5,-0.5 234.5,-0.5"/>
<text text-anchor="middle" x="261" y="-7.5" font-family="Helvetica,sans-Serif" font-size="10.00">MatCpyf</text>
</a>
</g>
<!-- Node8&#45;&gt;Node9 -->
<g id="edge16" class="edge"><title>Node8&#45;&gt;Node9</title>
<path fill="none" stroke="midnightblue" d="M187.728,-10C198.755,-10 211.96,-10 224.048,-10"/>
<polygon fill="midnightblue" stroke="midnightblue" points="224.301,-13.5001 234.301,-10 224.301,-6.5001 224.301,-13.5001"/>
</g>
</g>
</svg>
