<?xml version="1.0" encoding="UTF-8" standalone="no"?>
<!DOCTYPE svg PUBLIC "-//W3C//DTD SVG 1.1//EN"
 "http://www.w3.org/Graphics/SVG/1.1/DTD/svg11.dtd">
<!-- Generated by graphviz version 2.28.0 (20110507.0327)
 -->
<!-- Title: G Pages: 1 -->
<!--zoomable-->
<svg id="main" version="1.1" xmlns="http://www.w3.org/2000/svg" xmlns:xlink="http://www.w3.org/1999/xlink" xml:space="preserve" onload="init(evt)">
        <defs>
                <circle id="rim" cx="0" cy="0" r="7"/>
                <circle id="rim2" cx="0" cy="0" r="3.5"/>
                <g id="zoomPlus">
                        <use xlink:href="#rim" fill="#404040">
                                <set attributeName="fill" to="#808080" begin="zoomplus.mouseover" end="zoomplus.mouseout"/>
                        </use>
                        <path d="M-4,0h8M0,-4v8" fill="none" stroke="white" stroke-width="1.5" pointer-events="none"/>
                </g>
                <g id="zoomMin">
                        <use xlink:href="#rim" fill="#404040">
                                <set attributeName="fill" to="#808080" begin="zoomminus.mouseover" end="zoomminus.mouseout"/>
                        </use>
                        <path d="M-4,0h8" fill="none" stroke="white" stroke-width="1.5" pointer-events="none"/>
                </g>
                <g id="dirArrow">
                        <path fill="none" stroke="white" stroke-width="1.5" d="M0,-3.0v7 M-2.5,-0.5L0,-3.0L2.5,-0.5"/>
                </g>
               <g id="resetDef">
                       <use xlink:href="#rim2" fill="#404040">
                               <set attributeName="fill" to="#808080" begin="reset.mouseover" end="reset.mouseout"/>
                       </use>
               </g>
        </defs>

<script type="text/javascript">
var viewWidth = 682;
var viewHeight = 130;
var sectionId = 'dynsection-2';
</script>
<script xlink:href="svgpan.js"/>
<svg id="graph" class="graph">
<g id="viewport">
<title>G</title>
<polygon fill="white" stroke="white" points="-4,5 -4,-126.249 679,-126.249 679,5 -4,5"/>
<!-- Node1 -->
<g id="node1" class="node"><title>Node1</title>
<polygon fill="#bfbfbf" stroke="black" points="0,-67.5 0,-86.5 90,-86.5 90,-67.5 0,-67.5"/>
<text text-anchor="middle" x="45" y="-74.5" font-family="Helvetica,sans-Serif" font-size="10.00">David_TotalMass</text>
</g>
<!-- Node2 -->
<g id="node3" class="node"><title>Node2</title>
<a xlink:href="_david___calc_co_m_8h.html#a87e4908ddc041180e53e28286d691b80" target="_top" xlink:title="David_CalcCoM">
<polygon fill="white" stroke="black" points="252.5,-38.5 252.5,-57.5 337.5,-57.5 337.5,-38.5 252.5,-38.5"/>
<text text-anchor="middle" x="295" y="-45.5" font-family="Helvetica,sans-Serif" font-size="10.00">David_CalcCoM</text>
</a>
</g>
<!-- Node1&#45;&gt;Node2 -->
<g id="edge2" class="edge"><title>Node1&#45;&gt;Node2</title>
<path fill="none" stroke="midnightblue" d="M90.2667,-65.0394C101.821,-62.3168 114.312,-59.7224 126,-58 168.781,-51.6954 218.247,-49.3382 252.37,-48.4714"/>
<polygon fill="midnightblue" stroke="midnightblue" points="89.284,-61.6764 80.3981,-67.4463 90.9427,-68.4771 89.284,-61.6764"/>
</g>
<!-- Node3 -->
<g id="node5" class="node"><title>Node3</title>
<a xlink:href="_david___gravity_8h.html#a1f1e600a0c38ffaf69b85505ea4645d0" target="_top" xlink:title="David_Gravity">
<polygon fill="white" stroke="black" points="383.5,-76.5 383.5,-95.5 458.5,-95.5 458.5,-76.5 383.5,-76.5"/>
<text text-anchor="middle" x="421" y="-83.5" font-family="Helvetica,sans-Serif" font-size="10.00">David_Gravity</text>
</a>
</g>
<!-- Node1&#45;&gt;Node3 -->
<g id="edge16" class="edge"><title>Node1&#45;&gt;Node3</title>
<path fill="none" stroke="midnightblue" d="M70.3553,-91.6402C85.7224,-100.006 106.322,-109.67 126,-114 219.389,-134.55 332.743,-110.298 387.408,-95.6145"/>
<polygon fill="midnightblue" stroke="midnightblue" points="71.9482,-88.5203 61.5182,-86.6585 68.5107,-94.6182 71.9482,-88.5203"/>
</g>
<!-- Node7 -->
<g id="node16" class="node"><title>Node7</title>
<a xlink:href="_david___total_mass_8h.html#a3d576eef04375cf190383f1440ef5600" target="_top" xlink:title="David_TotalMass">
<polygon fill="white" stroke="black" points="126,-67.5 126,-86.5 216,-86.5 216,-67.5 126,-67.5"/>
<text text-anchor="middle" x="171" y="-74.5" font-family="Helvetica,sans-Serif" font-size="10.00">David_TotalMass</text>
</a>
</g>
<!-- Node1&#45;&gt;Node7 -->
<g id="edge18" class="edge"><title>Node1&#45;&gt;Node7</title>
<path fill="none" stroke="midnightblue" d="M100.272,-77C108.754,-77 117.432,-77 125.657,-77"/>
<polygon fill="midnightblue" stroke="midnightblue" points="100.067,-73.5001 90.0669,-77 100.067,-80.5001 100.067,-73.5001"/>
</g>
<!-- Node2&#45;&gt;Node3 -->
<g id="edge4" class="edge"><title>Node2&#45;&gt;Node3</title>
<path fill="none" stroke="midnightblue" d="M336.905,-60.5353C353.773,-65.7048 373.008,-71.5991 388.72,-76.4141"/>
<polygon fill="midnightblue" stroke="midnightblue" points="337.877,-57.1727 327.29,-57.589 335.826,-63.8655 337.877,-57.1727"/>
</g>
<!-- Node4 -->
<g id="node8" class="node"><title>Node4</title>
<a xlink:href="_forward_dynamics_8h.html#a23609ae4e05df387941c4bbc7bfc26fe" target="_top" xlink:title="ForwardDynamics">
<polygon fill="white" stroke="black" points="504.5,-57.5 504.5,-76.5 599.5,-76.5 599.5,-57.5 504.5,-57.5"/>
<text text-anchor="middle" x="552" y="-64.5" font-family="Helvetica,sans-Serif" font-size="10.00">ForwardDynamics</text>
</a>
</g>
<!-- Node2&#45;&gt;Node4 -->
<g id="edge14" class="edge"><title>Node2&#45;&gt;Node4</title>
<path fill="none" stroke="midnightblue" d="M347.574,-51.8428C393.449,-55.2609 459.952,-60.216 504.289,-63.5196"/>
<polygon fill="midnightblue" stroke="midnightblue" points="347.77,-48.3478 337.538,-51.095 347.25,-55.3284 347.77,-48.3478"/>
</g>
<!-- Node6 -->
<g id="node12" class="node"><title>Node6</title>
<a xlink:href="_david___stabilizator_8h.html#a160d145abfa84a49d710ddcb384990ef" target="_top" xlink:title="David_Stabilizator">
<polygon fill="white" stroke="black" points="374,-0.5 374,-19.5 468,-19.5 468,-0.5 374,-0.5"/>
<text text-anchor="middle" x="421" y="-7.5" font-family="Helvetica,sans-Serif" font-size="10.00">David_Stabilizator</text>
</a>
</g>
<!-- Node2&#45;&gt;Node6 -->
<g id="edge12" class="edge"><title>Node2&#45;&gt;Node6</title>
<path fill="none" stroke="midnightblue" d="M336.905,-35.4647C353.773,-30.2952 373.008,-24.4009 388.72,-19.5859"/>
<polygon fill="midnightblue" stroke="midnightblue" points="335.826,-32.1345 327.29,-38.411 337.877,-38.8273 335.826,-32.1345"/>
</g>
<!-- Node3&#45;&gt;Node3 -->
<g id="edge6" class="edge"><title>Node3&#45;&gt;Node3</title>
<path fill="none" stroke="midnightblue" d="M397.563,-105.029C398.841,-110.128 406.654,-114 421,-114 443.395,-114 449.868,-104.565 440.42,-95.7571"/>
<polygon fill="midnightblue" stroke="midnightblue" points="400.816,-106.324 401.58,-95.7571 394.393,-103.541 400.816,-106.324"/>
</g>
<!-- Node3&#45;&gt;Node4 -->
<g id="edge8" class="edge"><title>Node3&#45;&gt;Node4</title>
<path fill="none" stroke="midnightblue" d="M468.54,-79.1452C480.121,-77.4395 492.541,-75.6102 504.137,-73.9023"/>
<polygon fill="midnightblue" stroke="midnightblue" points="468.004,-75.6863 458.621,-80.6062 469.024,-82.6116 468.004,-75.6863"/>
</g>
<!-- Node5 -->
<g id="node10" class="node"><title>Node5</title>
<a xlink:href="main_8c.html#a0ddf1224851353fc92bfbff6f499fa97" target="_top" xlink:title="main">
<polygon fill="white" stroke="black" points="636,-57.5 636,-76.5 674,-76.5 674,-57.5 636,-57.5"/>
<text text-anchor="middle" x="655" y="-64.5" font-family="Helvetica,sans-Serif" font-size="10.00">main</text>
</a>
</g>
<!-- Node4&#45;&gt;Node5 -->
<g id="edge10" class="edge"><title>Node4&#45;&gt;Node5</title>
<path fill="none" stroke="midnightblue" d="M609.879,-67C619.25,-67 628.323,-67 635.779,-67"/>
<polygon fill="midnightblue" stroke="midnightblue" points="609.657,-63.5001 599.657,-67 609.657,-70.5001 609.657,-63.5001"/>
</g>
<!-- Node7&#45;&gt;Node2 -->
<g id="edge20" class="edge"><title>Node7&#45;&gt;Node2</title>
<path fill="none" stroke="midnightblue" d="M222.188,-65.07C232.703,-62.5706 243.661,-59.9659 253.757,-57.566"/>
<polygon fill="midnightblue" stroke="midnightblue" points="221.205,-61.7061 212.285,-67.4239 222.824,-68.5164 221.205,-61.7061"/>
</g>
<!-- Node7&#45;&gt;Node3 -->
<g id="edge22" class="edge"><title>Node7&#45;&gt;Node3</title>
<path fill="none" stroke="midnightblue" d="M226.18,-78.9662C273.767,-80.6932 341.707,-83.1587 383.222,-84.6653"/>
<polygon fill="midnightblue" stroke="midnightblue" points="226.172,-75.4637 216.052,-78.5986 225.918,-82.4591 226.172,-75.4637"/>
</g>
<!-- Node7&#45;&gt;Node7 -->
<g id="edge24" class="edge"><title>Node7&#45;&gt;Node7</title>
<path fill="none" stroke="midnightblue" d="M147.935,-96.0292C149.193,-101.128 156.881,-105 171,-105 193.039,-105 199.41,-95.5653 190.112,-86.7571"/>
<polygon fill="midnightblue" stroke="midnightblue" points="151.185,-97.3286 151.888,-86.7571 144.746,-94.5831 151.185,-97.3286"/>
</g>
</g>
</svg>
        <g id="navigator" transform="translate(0 0)" fill="#404254">
                <rect fill="#f2f5e9" fill-opacity="0.5" stroke="#606060" stroke-width=".5" x="0" y="0" width="60" height="60"/>
                <use id="zoomplus" xlink:href="#zoomPlus" x="17" y="9" onmousedown="handleZoom(evt,'in')"/>
                <use id="zoomminus" xlink:href="#zoomMin" x="42" y="9" onmousedown="handleZoom(evt,'out')"/>
                <use id="reset" xlink:href="#resetDef" x="30" y="36" onmousedown="handleReset()"/>
                <g id="arrowUp" xlink:href="#dirArrow" transform="translate(30 24)" onmousedown="handlePan(0,-1)">
                  <use xlink:href="#rim" fill="#404040">
                        <set attributeName="fill" to="#808080" begin="arrowUp.mouseover" end="arrowUp.mouseout"/>
                  </use>
                  <path fill="none" stroke="white" stroke-width="1.5" d="M0,-3.0v7 M-2.5,-0.5L0,-3.0L2.5,-0.5"/>
                </g>
                <g id="arrowRight" xlink:href="#dirArrow" transform="rotate(90) translate(36 -43)" onmousedown="handlePan(1,0)">
                  <use xlink:href="#rim" fill="#404040">
                        <set attributeName="fill" to="#808080" begin="arrowRight.mouseover" end="arrowRight.mouseout"/>
                  </use>
                  <path fill="none" stroke="white" stroke-width="1.5" d="M0,-3.0v7 M-2.5,-0.5L0,-3.0L2.5,-0.5"/>
                </g>
                <g id="arrowDown" xlink:href="#dirArrow" transform="rotate(180) translate(-30 -48)" onmousedown="handlePan(0,1)">
                  <use xlink:href="#rim" fill="#404040">
                        <set attributeName="fill" to="#808080" begin="arrowDown.mouseover" end="arrowDown.mouseout"/>
                  </use>
                  <path fill="none" stroke="white" stroke-width="1.5" d="M0,-3.0v7 M-2.5,-0.5L0,-3.0L2.5,-0.5"/>
                </g>
                <g id="arrowLeft" xlink:href="#dirArrow" transform="rotate(270) translate(-36 17)" onmousedown="handlePan(-1,0)">
                  <use xlink:href="#rim" fill="#404040">
                        <set attributeName="fill" to="#808080" begin="arrowLeft.mouseover" end="arrowLeft.mouseout"/>
                  </use>
                  <path fill="none" stroke="white" stroke-width="1.5" d="M0,-3.0v7 M-2.5,-0.5L0,-3.0L2.5,-0.5"/>
                </g>
        </g>
</svg>
