<?xml version="1.0" encoding="UTF-8" standalone="no"?>
<!DOCTYPE svg PUBLIC "-//W3C//DTD SVG 1.1//EN"
 "http://www.w3.org/Graphics/SVG/1.1/DTD/svg11.dtd">
<!-- Generated by graphviz version 2.28.0 (20110507.0327)
 -->
<!-- Title: G Pages: 1 -->
<!--zoomable-->
<svg id="main" version="1.1" xmlns="http://www.w3.org/2000/svg" xmlns:xlink="http://www.w3.org/1999/xlink" xml:space="preserve" onload="init(evt)">
        <defs>
                <circle id="rim" cx="0" cy="0" r="7"/>
                <circle id="rim2" cx="0" cy="0" r="3.5"/>
                <g id="zoomPlus">
                        <use xlink:href="#rim" fill="#404040">
                                <set attributeName="fill" to="#808080" begin="zoomplus.mouseover" end="zoomplus.mouseout"/>
                        </use>
                        <path d="M-4,0h8M0,-4v8" fill="none" stroke="white" stroke-width="1.5" pointer-events="none"/>
                </g>
                <g id="zoomMin">
                        <use xlink:href="#rim" fill="#404040">
                                <set attributeName="fill" to="#808080" begin="zoomminus.mouseover" end="zoomminus.mouseout"/>
                        </use>
                        <path d="M-4,0h8" fill="none" stroke="white" stroke-width="1.5" pointer-events="none"/>
                </g>
                <g id="dirArrow">
                        <path fill="none" stroke="white" stroke-width="1.5" d="M0,-3.0v7 M-2.5,-0.5L0,-3.0L2.5,-0.5"/>
                </g>
               <g id="resetDef">
                       <use xlink:href="#rim2" fill="#404040">
                               <set attributeName="fill" to="#808080" begin="reset.mouseover" end="reset.mouseout"/>
                       </use>
               </g>
        </defs>

<script type="text/javascript">
var viewWidth = 624;
var viewHeight = 256;
var sectionId = 'dynsection-1';
</script>
<script xlink:href="svgpan.js"/>
<svg id="graph" class="graph">
<g id="viewport">
<title>G</title>
<polygon fill="white" stroke="white" points="-4,5 -4,-252 621,-252 621,5 -4,5"/>
<!-- Node1 -->
<g id="node1" class="node"><title>Node1</title>
<polygon fill="#bfbfbf" stroke="black" points="0,-96.5 0,-115.5 128,-115.5 128,-96.5 0,-96.5"/>
<text text-anchor="middle" x="64" y="-103.5" font-family="Helvetica,sans-Serif" font-size="10.00">David_ForwardKinematics</text>
</g>
<!-- Node2 -->
<g id="node3" class="node"><title>Node2</title>
<a xlink:href="_mat_8c.html#ae5dcc36ff446d01426b9ce7fbd5e1f83" target="_top" xlink:title="MatMulf">
<polygon fill="white" stroke="black" points="464.5,-190.5 464.5,-209.5 515.5,-209.5 515.5,-190.5 464.5,-190.5"/>
<text text-anchor="middle" x="490" y="-197.5" font-family="Helvetica,sans-Serif" font-size="10.00">MatMulf</text>
</a>
</g>
<!-- Node1&#45;&gt;Node2 -->
<g id="edge2" class="edge"><title>Node1&#45;&gt;Node2</title>
<path fill="none" stroke="midnightblue" d="M86.5965,-115.571C106.374,-123.972 136.643,-135.925 164,-143 274.509,-171.581 306.245,-157.765 418,-181 429.982,-183.491 442.951,-186.782 454.486,-189.925"/>
<polygon fill="midnightblue" stroke="midnightblue" points="453.62,-193.317 464.192,-192.624 455.496,-186.573 453.62,-193.317"/>
</g>
<!-- Node4 -->
<g id="node7" class="node"><title>Node4</title>
<a xlink:href="_mat_8c.html#aa4b0ec687e717aa5243535ca86cf60c3" target="_top" xlink:title="MatAddf">
<polygon fill="white" stroke="black" points="463.5,-0.5 463.5,-19.5 516.5,-19.5 516.5,-0.5 463.5,-0.5"/>
<text text-anchor="middle" x="490" y="-7.5" font-family="Helvetica,sans-Serif" font-size="10.00">MatAddf</text>
</a>
</g>
<!-- Node1&#45;&gt;Node4 -->
<g id="edge6" class="edge"><title>Node1&#45;&gt;Node4</title>
<path fill="none" stroke="midnightblue" d="M93.8636,-96.4565C141.927,-80.8877 241.623,-49.9632 328,-32 370.743,-23.111 420.642,-16.9296 453.427,-13.4305"/>
<polygon fill="midnightblue" stroke="midnightblue" points="453.855,-16.9049 463.439,-12.3886 453.13,-9.9425 453.855,-16.9049"/>
</g>
<!-- Node5 -->
<g id="node9" class="node"><title>Node5</title>
<a xlink:href="_david___rodrigues_8c.html#a60a6dbedf38702ef67715eb17c6efadc" target="_top" xlink:title="David_Rodrigues">
<polygon fill="white" stroke="black" points="328.5,-76.5 328.5,-95.5 417.5,-95.5 417.5,-76.5 328.5,-76.5"/>
<text text-anchor="middle" x="373" y="-83.5" font-family="Helvetica,sans-Serif" font-size="10.00">David_Rodrigues</text>
</a>
</g>
<!-- Node1&#45;&gt;Node5 -->
<g id="edge8" class="edge"><title>Node1&#45;&gt;Node5</title>
<path fill="none" stroke="midnightblue" d="M105.695,-96.4332C123.485,-92.708 144.665,-88.8855 164,-87 216.295,-81.9003 276.338,-82.2746 318.427,-83.5478"/>
<polygon fill="midnightblue" stroke="midnightblue" points="318.348,-87.047 328.458,-83.8785 318.579,-80.0508 318.348,-87.047"/>
</g>
<!-- Node11 -->
<g id="node23" class="node"><title>Node11</title>
<a xlink:href="_mat_8c.html#ae8e0d9d094b36fd7aa5d222e70d93953" target="_top" xlink:title="MatProVectorielf">
<polygon fill="white" stroke="black" points="328.5,-190.5 328.5,-209.5 417.5,-209.5 417.5,-190.5 328.5,-190.5"/>
<text text-anchor="middle" x="373" y="-197.5" font-family="Helvetica,sans-Serif" font-size="10.00">MatProVectorielf</text>
</a>
</g>
<!-- Node1&#45;&gt;Node11 -->
<g id="edge24" class="edge"><title>Node1&#45;&gt;Node11</title>
<path fill="none" stroke="midnightblue" d="M74.955,-115.703C91.7386,-131.401 127.429,-162.018 164,-176 213.874,-195.068 274.994,-200.155 318.034,-201.028"/>
<polygon fill="midnightblue" stroke="midnightblue" points="318.25,-204.531 328.295,-201.164 318.342,-197.532 318.25,-204.531"/>
</g>
<!-- Node13 -->
<g id="node28" class="node"><title>Node13</title>
<a xlink:href="_david___forward_kinematics_8c.html#ab4a9975fbdb8a88c795a8f0b5bf0bf97" target="_top" xlink:title="David_ForwardKinematics">
<polygon fill="white" stroke="black" points="164,-96.5 164,-115.5 292,-115.5 292,-96.5 164,-96.5"/>
<text text-anchor="middle" x="228" y="-103.5" font-family="Helvetica,sans-Serif" font-size="10.00">David_ForwardKinematics</text>
</a>
</g>
<!-- Node1&#45;&gt;Node13 -->
<g id="edge30" class="edge"><title>Node1&#45;&gt;Node13</title>
<path fill="none" stroke="midnightblue" d="M128.097,-106C136.435,-106 145.038,-106 153.53,-106"/>
<polygon fill="midnightblue" stroke="midnightblue" points="153.808,-109.5 163.808,-106 153.808,-102.5 153.808,-109.5"/>
</g>
<!-- Node3 -->
<g id="node5" class="node"><title>Node3</title>
<a xlink:href="_mat_8c.html#a63a68223bbacc69c068f6a3bdb4b428a" target="_top" xlink:title="MatCpyf">
<polygon fill="white" stroke="black" points="562.5,-190.5 562.5,-209.5 615.5,-209.5 615.5,-190.5 562.5,-190.5"/>
<text text-anchor="middle" x="589" y="-197.5" font-family="Helvetica,sans-Serif" font-size="10.00">MatCpyf</text>
</a>
</g>
<!-- Node2&#45;&gt;Node3 -->
<g id="edge4" class="edge"><title>Node2&#45;&gt;Node3</title>
<path fill="none" stroke="midnightblue" d="M515.728,-200C526.755,-200 539.96,-200 552.048,-200"/>
<polygon fill="midnightblue" stroke="midnightblue" points="552.301,-203.5 562.301,-200 552.301,-196.5 552.301,-203.5"/>
</g>
<!-- Node5&#45;&gt;Node2 -->
<g id="edge22" class="edge"><title>Node5&#45;&gt;Node2</title>
<path fill="none" stroke="midnightblue" d="M397.717,-95.6169C404.859,-99.335 412.304,-104.13 418,-110 442.638,-135.391 429.336,-155.634 454,-181 455.226,-182.261 456.554,-183.459 457.952,-184.594"/>
<polygon fill="midnightblue" stroke="midnightblue" points="456.255,-187.673 466.491,-190.407 460.194,-181.886 456.255,-187.673"/>
</g>
<!-- Node5&#45;&gt;Node4 -->
<g id="edge20" class="edge"><title>Node5&#45;&gt;Node4</title>
<path fill="none" stroke="midnightblue" d="M393.888,-76.4615C401.663,-72.4007 410.497,-67.364 418,-62 435.657,-49.3772 436.33,-41.6052 454,-29 456.069,-27.5244 458.264,-26.0809 460.508,-24.6907"/>
<polygon fill="midnightblue" stroke="midnightblue" points="462.335,-27.6777 469.235,-19.6378 458.827,-21.6199 462.335,-27.6777"/>
</g>
<!-- Node6 -->
<g id="node11" class="node"><title>Node6</title>
<a xlink:href="_mat_8c.html#a8fa4d7a3efd929279b0fbeb2fb7c22e3" target="_top" xlink:title="MatNormf">
<polygon fill="white" stroke="black" points="460.5,-76.5 460.5,-95.5 519.5,-95.5 519.5,-76.5 460.5,-76.5"/>
<text text-anchor="middle" x="490" y="-83.5" font-family="Helvetica,sans-Serif" font-size="10.00">MatNormf</text>
</a>
</g>
<!-- Node5&#45;&gt;Node6 -->
<g id="edge10" class="edge"><title>Node5&#45;&gt;Node6</title>
<path fill="none" stroke="midnightblue" d="M417.805,-86C428.468,-86 439.799,-86 450.212,-86"/>
<polygon fill="midnightblue" stroke="midnightblue" points="450.259,-89.5001 460.259,-86 450.259,-82.5001 450.259,-89.5001"/>
</g>
<!-- Node7 -->
<g id="node13" class="node"><title>Node7</title>
<a xlink:href="_mat_8c.html#a9f566ce4c8ca2381358f2134cdd4e9e7" target="_top" xlink:title="MatMulScalf">
<polygon fill="white" stroke="black" points="454.5,-38.5 454.5,-57.5 525.5,-57.5 525.5,-38.5 454.5,-38.5"/>
<text text-anchor="middle" x="490" y="-45.5" font-family="Helvetica,sans-Serif" font-size="10.00">MatMulScalf</text>
</a>
</g>
<!-- Node5&#45;&gt;Node7 -->
<g id="edge12" class="edge"><title>Node5&#45;&gt;Node7</title>
<path fill="none" stroke="midnightblue" d="M403.019,-76.411C417.32,-71.6856 434.765,-65.9211 450.195,-60.8226"/>
<polygon fill="midnightblue" stroke="midnightblue" points="451.593,-64.0468 459.99,-57.5859 449.397,-57.4002 451.593,-64.0468"/>
</g>
<!-- Node8 -->
<g id="node15" class="node"><title>Node8</title>
<a xlink:href="_mat_8c.html#a271708fa4a26745632412df2d7b894d1" target="_top" xlink:title="MatTilde">
<polygon fill="white" stroke="black" points="463.5,-152.5 463.5,-171.5 516.5,-171.5 516.5,-152.5 463.5,-152.5"/>
<text text-anchor="middle" x="490" y="-159.5" font-family="Helvetica,sans-Serif" font-size="10.00">MatTilde</text>
</a>
</g>
<!-- Node5&#45;&gt;Node8 -->
<g id="edge14" class="edge"><title>Node5&#45;&gt;Node8</title>
<path fill="none" stroke="midnightblue" d="M393.888,-95.5385C401.663,-99.5993 410.497,-104.636 418,-110 435.657,-122.623 436.33,-130.395 454,-143 456.069,-144.476 458.264,-145.919 460.508,-147.309"/>
<polygon fill="midnightblue" stroke="midnightblue" points="458.827,-150.38 469.235,-152.362 462.335,-144.322 458.827,-150.38"/>
</g>
<!-- Node9 -->
<g id="node17" class="node"><title>Node9</title>
<a xlink:href="_mat_8c.html#a9e1be75d926e81ca29ca09676705a51e" target="_top" xlink:title="MatI">
<polygon fill="white" stroke="black" points="472.5,-114.5 472.5,-133.5 507.5,-133.5 507.5,-114.5 472.5,-114.5"/>
<text text-anchor="middle" x="490" y="-121.5" font-family="Helvetica,sans-Serif" font-size="10.00">MatI</text>
</a>
</g>
<!-- Node5&#45;&gt;Node9 -->
<g id="edge16" class="edge"><title>Node5&#45;&gt;Node9</title>
<path fill="none" stroke="midnightblue" d="M403.019,-95.589C421.375,-101.654 444.91,-109.431 462.716,-115.315"/>
<polygon fill="midnightblue" stroke="midnightblue" points="461.861,-118.718 472.454,-118.533 464.058,-112.072 461.861,-118.718"/>
</g>
<!-- Node10 -->
<g id="node19" class="node"><title>Node10</title>
<a xlink:href="_mat_8c.html#a05baf6927b033792fd0ba2adcfb8df34" target="_top" xlink:title="MatClr">
<polygon fill="white" stroke="black" points="566.5,-114.5 566.5,-133.5 611.5,-133.5 611.5,-114.5 566.5,-114.5"/>
<text text-anchor="middle" x="589" y="-121.5" font-family="Helvetica,sans-Serif" font-size="10.00">MatClr</text>
</a>
</g>
<!-- Node9&#45;&gt;Node10 -->
<g id="edge18" class="edge"><title>Node9&#45;&gt;Node10</title>
<path fill="none" stroke="midnightblue" d="M507.896,-124C521.165,-124 540.024,-124 556.11,-124"/>
<polygon fill="midnightblue" stroke="midnightblue" points="556.194,-127.5 566.194,-124 556.193,-120.5 556.194,-127.5"/>
</g>
<!-- Node11&#45;&gt;Node2 -->
<g id="edge28" class="edge"><title>Node11&#45;&gt;Node2</title>
<path fill="none" stroke="midnightblue" d="M417.805,-200C429.857,-200 442.761,-200 454.229,-200"/>
<polygon fill="midnightblue" stroke="midnightblue" points="454.29,-203.5 464.29,-200 454.29,-196.5 454.29,-203.5"/>
</g>
<!-- Node12 -->
<g id="node25" class="node"><title>Node12</title>
<a xlink:href="_mat_8c.html#a048190ee0aceb657fc3830bf279359b3" target="_top" xlink:title="MatTildef">
<polygon fill="white" stroke="black" points="462,-228.5 462,-247.5 518,-247.5 518,-228.5 462,-228.5"/>
<text text-anchor="middle" x="490" y="-235.5" font-family="Helvetica,sans-Serif" font-size="10.00">MatTildef</text>
</a>
</g>
<!-- Node11&#45;&gt;Node12 -->
<g id="edge26" class="edge"><title>Node11&#45;&gt;Node12</title>
<path fill="none" stroke="midnightblue" d="M403.019,-209.589C418.007,-214.542 436.449,-220.635 452.405,-225.908"/>
<polygon fill="midnightblue" stroke="midnightblue" points="451.372,-229.252 461.965,-229.067 453.568,-222.606 451.372,-229.252"/>
</g>
<!-- Node13&#45;&gt;Node2 -->
<g id="edge32" class="edge"><title>Node13&#45;&gt;Node2</title>
<path fill="none" stroke="midnightblue" d="M292.247,-111.71C330.374,-117.133 378.949,-127.654 418,-148 437.249,-158.029 436.33,-168.395 454,-181 456.069,-182.476 458.264,-183.919 460.508,-185.309"/>
<polygon fill="midnightblue" stroke="midnightblue" points="458.827,-188.38 469.235,-190.362 462.335,-182.322 458.827,-188.38"/>
</g>
<!-- Node13&#45;&gt;Node4 -->
<g id="edge34" class="edge"><title>Node13&#45;&gt;Node4</title>
<path fill="none" stroke="midnightblue" d="M252.514,-96.4688C272.517,-88.4253 302.045,-76.7035 328,-67 371.041,-50.9088 420.97,-33.4118 453.676,-22.1075"/>
<polygon fill="midnightblue" stroke="midnightblue" points="454.934,-25.3759 463.246,-18.8065 452.651,-18.7585 454.934,-25.3759"/>
</g>
<!-- Node13&#45;&gt;Node5 -->
<g id="edge36" class="edge"><title>Node13&#45;&gt;Node5</title>
<path fill="none" stroke="midnightblue" d="M292.138,-97.1695C300.958,-95.936 309.949,-94.6785 318.566,-93.4733"/>
<polygon fill="midnightblue" stroke="midnightblue" points="319.058,-96.9387 328.476,-92.0872 318.088,-90.0062 319.058,-96.9387"/>
</g>
<!-- Node13&#45;&gt;Node11 -->
<g id="edge38" class="edge"><title>Node13&#45;&gt;Node11</title>
<path fill="none" stroke="midnightblue" d="M243.499,-115.531C268.337,-131.858 319.219,-165.305 348.963,-184.857"/>
<polygon fill="midnightblue" stroke="midnightblue" points="347.184,-187.876 357.463,-190.444 351.029,-182.027 347.184,-187.876"/>
</g>
<!-- Node13&#45;&gt;Node13 -->
<g id="edge40" class="edge"><title>Node13&#45;&gt;Node13</title>
<path fill="none" stroke="midnightblue" d="M205.805,-115.757C195.008,-124.565 202.406,-134 228,-134 244.796,-134 253.756,-129.937 254.879,-124.654"/>
<polygon fill="midnightblue" stroke="midnightblue" points="257.951,-122.975 250.195,-115.757 251.757,-126.236 257.951,-122.975"/>
</g>
</g>
</svg>
        <g id="navigator" transform="translate(0 0)" fill="#404254">
                <rect fill="#f2f5e9" fill-opacity="0.5" stroke="#606060" stroke-width=".5" x="0" y="0" width="60" height="60"/>
                <use id="zoomplus" xlink:href="#zoomPlus" x="17" y="9" onmousedown="handleZoom(evt,'in')"/>
                <use id="zoomminus" xlink:href="#zoomMin" x="42" y="9" onmousedown="handleZoom(evt,'out')"/>
                <use id="reset" xlink:href="#resetDef" x="30" y="36" onmousedown="handleReset()"/>
                <g id="arrowUp" xlink:href="#dirArrow" transform="translate(30 24)" onmousedown="handlePan(0,-1)">
                  <use xlink:href="#rim" fill="#404040">
                        <set attributeName="fill" to="#808080" begin="arrowUp.mouseover" end="arrowUp.mouseout"/>
                  </use>
                  <path fill="none" stroke="white" stroke-width="1.5" d="M0,-3.0v7 M-2.5,-0.5L0,-3.0L2.5,-0.5"/>
                </g>
                <g id="arrowRight" xlink:href="#dirArrow" transform="rotate(90) translate(36 -43)" onmousedown="handlePan(1,0)">
                  <use xlink:href="#rim" fill="#404040">
                        <set attributeName="fill" to="#808080" begin="arrowRight.mouseover" end="arrowRight.mouseout"/>
                  </use>
                  <path fill="none" stroke="white" stroke-width="1.5" d="M0,-3.0v7 M-2.5,-0.5L0,-3.0L2.5,-0.5"/>
                </g>
                <g id="arrowDown" xlink:href="#dirArrow" transform="rotate(180) translate(-30 -48)" onmousedown="handlePan(0,1)">
                  <use xlink:href="#rim" fill="#404040">
                        <set attributeName="fill" to="#808080" begin="arrowDown.mouseover" end="arrowDown.mouseout"/>
                  </use>
                  <path fill="none" stroke="white" stroke-width="1.5" d="M0,-3.0v7 M-2.5,-0.5L0,-3.0L2.5,-0.5"/>
                </g>
                <g id="arrowLeft" xlink:href="#dirArrow" transform="rotate(270) translate(-36 17)" onmousedown="handlePan(-1,0)">
                  <use xlink:href="#rim" fill="#404040">
                        <set attributeName="fill" to="#808080" begin="arrowLeft.mouseover" end="arrowLeft.mouseout"/>
                  </use>
                  <path fill="none" stroke="white" stroke-width="1.5" d="M0,-3.0v7 M-2.5,-0.5L0,-3.0L2.5,-0.5"/>
                </g>
        </g>
</svg>
