<?xml version="1.0" encoding="UTF-8" standalone="no"?>
<!DOCTYPE svg PUBLIC "-//W3C//DTD SVG 1.1//EN"
 "http://www.w3.org/Graphics/SVG/1.1/DTD/svg11.dtd">
<!-- Generated by graphviz version 2.28.0 (20110507.0327)
 -->
<!-- Title: G Pages: 1 -->
<svg width="474pt" height="47pt"
 viewBox="0.00 0.00 474.00 47.00" xmlns="http://www.w3.org/2000/svg" xmlns:xlink="http://www.w3.org/1999/xlink">
<g id="graph1" class="graph" transform="scale(1 1) rotate(0) translate(4 43)">
<title>G</title>
<polygon fill="white" stroke="white" points="-4,5 -4,-43 471,-43 471,5 -4,5"/>
<!-- Node1 -->
<g id="node1" class="node"><title>Node1</title>
<polygon fill="#bfbfbf" stroke="black" points="0,-0.5 0,-19.5 128,-19.5 128,-0.5 0,-0.5"/>
<text text-anchor="middle" x="64" y="-7.5" font-family="Helvetica,sans-Serif" font-size="10.00">David_ForwardKinematics</text>
</g>
<!-- Node1&#45;&gt;Node1 -->
<g id="edge2" class="edge"><title>Node1&#45;&gt;Node1</title>
<path fill="none" stroke="midnightblue" d="M36.3742,-28.6539C37.5289,-33.9368 46.7375,-38 64,-38 90.3047,-38 97.9084,-28.5653 86.8111,-19.7571"/>
<polygon fill="midnightblue" stroke="midnightblue" points="39.5076,-30.2176 41.1889,-19.7571 33.3512,-26.886 39.5076,-30.2176"/>
</g>
<!-- Node2 -->
<g id="node4" class="node"><title>Node2</title>
<a xlink:href="_david__u_l_i_n_k_8h.html#adaa17668a497d22fe2cd4e7087336a86" target="_top" xlink:title="Initialize the link structure with the model value (used in control loop). See SetupRobot.">
<polygon fill="white" stroke="black" points="164,-19.5 164,-38.5 260,-38.5 260,-19.5 164,-19.5"/>
<text text-anchor="middle" x="212" y="-26.5" font-family="Helvetica,sans-Serif" font-size="10.00">David_SetupRobot</text>
</a>
</g>
<!-- Node1&#45;&gt;Node2 -->
<g id="edge4" class="edge"><title>Node1&#45;&gt;Node2</title>
<path fill="none" stroke="midnightblue" d="M138.257,-19.5335C146.857,-20.6526 155.452,-21.7712 163.565,-22.8269"/>
<polygon fill="midnightblue" stroke="midnightblue" points="138.557,-16.043 128.189,-18.2232 137.653,-22.9845 138.557,-16.043"/>
</g>
<!-- Node3 -->
<g id="node6" class="node"><title>Node3</title>
<a xlink:href="_forward_dynamics_8h.html#a23609ae4e05df387941c4bbc7bfc26fe" target="_top" xlink:title="ForwardDynamics">
<polygon fill="white" stroke="black" points="296.5,-0.5 296.5,-19.5 391.5,-19.5 391.5,-0.5 296.5,-0.5"/>
<text text-anchor="middle" x="344" y="-7.5" font-family="Helvetica,sans-Serif" font-size="10.00">ForwardDynamics</text>
</a>
</g>
<!-- Node1&#45;&gt;Node3 -->
<g id="edge10" class="edge"><title>Node1&#45;&gt;Node3</title>
<path fill="none" stroke="midnightblue" d="M138.198,-10C188.217,-10 253.013,-10 296.192,-10"/>
<polygon fill="midnightblue" stroke="midnightblue" points="138.083,-6.5001 128.083,-10 138.082,-13.5001 138.083,-6.5001"/>
</g>
<!-- Node2&#45;&gt;Node3 -->
<g id="edge6" class="edge"><title>Node2&#45;&gt;Node3</title>
<path fill="none" stroke="midnightblue" d="M270.385,-20.613C279.079,-19.3423 287.958,-18.0446 296.387,-16.8127"/>
<polygon fill="midnightblue" stroke="midnightblue" points="269.689,-17.1774 260.301,-22.0868 270.702,-24.1038 269.689,-17.1774"/>
</g>
<!-- Node4 -->
<g id="node8" class="node"><title>Node4</title>
<a xlink:href="main_8c.html#a0ddf1224851353fc92bfbff6f499fa97" target="_top" xlink:title="main">
<polygon fill="white" stroke="black" points="428,-0.5 428,-19.5 466,-19.5 466,-0.5 428,-0.5"/>
<text text-anchor="middle" x="447" y="-7.5" font-family="Helvetica,sans-Serif" font-size="10.00">main</text>
</a>
</g>
<!-- Node3&#45;&gt;Node4 -->
<g id="edge8" class="edge"><title>Node3&#45;&gt;Node4</title>
<path fill="none" stroke="midnightblue" d="M401.879,-10C411.25,-10 420.323,-10 427.779,-10"/>
<polygon fill="midnightblue" stroke="midnightblue" points="401.657,-6.5001 391.657,-10 401.657,-13.5001 401.657,-6.5001"/>
</g>
</g>
</svg>
