<?xml version="1.0" encoding="UTF-8" standalone="no"?>
<!DOCTYPE svg PUBLIC "-//W3C//DTD SVG 1.1//EN"
 "http://www.w3.org/Graphics/SVG/1.1/DTD/svg11.dtd">
<!-- Generated by graphviz version 2.28.0 (20110507.0327)
 -->
<!-- Title: G Pages: 1 -->
<svg width="402pt" height="132pt"
 viewBox="0.00 0.00 402.00 132.00" xmlns="http://www.w3.org/2000/svg" xmlns:xlink="http://www.w3.org/1999/xlink">
<g id="graph1" class="graph" transform="scale(1 1) rotate(0) translate(4 128)">
<title>G</title>
<polygon fill="white" stroke="white" points="-4,5 -4,-128 399,-128 399,5 -4,5"/>
<!-- Node1 -->
<g id="node1" class="node"><title>Node1</title>
<polygon fill="#bfbfbf" stroke="black" points="0,-43.5 0,-62.5 80,-62.5 80,-43.5 0,-43.5"/>
<text text-anchor="middle" x="40" y="-50.5" font-family="Helvetica,sans-Serif" font-size="10.00">David_CalcMC</text>
</g>
<!-- Node2 -->
<g id="node3" class="node"><title>Node2</title>
<a xlink:href="_mat_8c.html#ae5dcc36ff446d01426b9ce7fbd5e1f83" target="_top" xlink:title="MatMulf">
<polygon fill="white" stroke="black" points="242.5,-104.5 242.5,-123.5 293.5,-123.5 293.5,-104.5 242.5,-104.5"/>
<text text-anchor="middle" x="268" y="-111.5" font-family="Helvetica,sans-Serif" font-size="10.00">MatMulf</text>
</a>
</g>
<!-- Node1&#45;&gt;Node2 -->
<g id="edge2" class="edge"><title>Node1&#45;&gt;Node2</title>
<path fill="none" stroke="midnightblue" d="M50.0429,-62.7628C63.1071,-76.0942 88.7042,-99.4294 116,-109 154.139,-122.372 201.069,-121.459 232.392,-118.612"/>
<polygon fill="midnightblue" stroke="midnightblue" points="232.789,-122.09 242.381,-117.59 232.076,-115.126 232.789,-122.09"/>
</g>
<!-- Node4 -->
<g id="node7" class="node"><title>Node4</title>
<a xlink:href="_mat_8c.html#aa4b0ec687e717aa5243535ca86cf60c3" target="_top" xlink:title="MatAddf">
<polygon fill="white" stroke="black" points="241.5,-38.5 241.5,-57.5 294.5,-57.5 294.5,-38.5 241.5,-38.5"/>
<text text-anchor="middle" x="268" y="-45.5" font-family="Helvetica,sans-Serif" font-size="10.00">MatAddf</text>
</a>
</g>
<!-- Node1&#45;&gt;Node4 -->
<g id="edge6" class="edge"><title>Node1&#45;&gt;Node4</title>
<path fill="none" stroke="midnightblue" d="M80.1082,-52.1348C122.645,-51.1937 190.056,-49.7023 231.233,-48.7913"/>
<polygon fill="midnightblue" stroke="midnightblue" points="231.436,-52.2878 241.356,-48.5673 231.281,-45.2895 231.436,-52.2878"/>
</g>
<!-- Node5 -->
<g id="node9" class="node"><title>Node5</title>
<a xlink:href="_mat_8c.html#a9f566ce4c8ca2381358f2134cdd4e9e7" target="_top" xlink:title="MatMulScalf">
<polygon fill="white" stroke="black" points="232.5,-0.5 232.5,-19.5 303.5,-19.5 303.5,-0.5 232.5,-0.5"/>
<text text-anchor="middle" x="268" y="-7.5" font-family="Helvetica,sans-Serif" font-size="10.00">MatMulScalf</text>
</a>
</g>
<!-- Node1&#45;&gt;Node5 -->
<g id="edge8" class="edge"><title>Node1&#45;&gt;Node5</title>
<path fill="none" stroke="midnightblue" d="M80.1082,-45.5591C119.791,-38.0089 181.122,-26.3395 222.606,-18.4467"/>
<polygon fill="midnightblue" stroke="midnightblue" points="223.27,-21.8833 232.439,-16.5758 221.961,-15.0066 223.27,-21.8833"/>
</g>
<!-- Node6 -->
<g id="node11" class="node"><title>Node6</title>
<a xlink:href="_david___calc_m_c_8c.html#a5877c51babeda61b69280e4dc6ed28dd" target="_top" xlink:title="David_CalcMC">
<polygon fill="white" stroke="black" points="116,-62.5 116,-81.5 196,-81.5 196,-62.5 116,-62.5"/>
<text text-anchor="middle" x="156" y="-69.5" font-family="Helvetica,sans-Serif" font-size="10.00">David_CalcMC</text>
</a>
</g>
<!-- Node1&#45;&gt;Node6 -->
<g id="edge10" class="edge"><title>Node1&#45;&gt;Node6</title>
<path fill="none" stroke="midnightblue" d="M80.2323,-59.5387C88.4723,-60.9121 97.2628,-62.3771 105.814,-63.8023"/>
<polygon fill="midnightblue" stroke="midnightblue" points="105.256,-67.2575 115.695,-65.4492 106.407,-60.3528 105.256,-67.2575"/>
</g>
<!-- Node3 -->
<g id="node5" class="node"><title>Node3</title>
<a xlink:href="_mat_8c.html#a63a68223bbacc69c068f6a3bdb4b428a" target="_top" xlink:title="MatCpyf">
<polygon fill="white" stroke="black" points="340.5,-104.5 340.5,-123.5 393.5,-123.5 393.5,-104.5 340.5,-104.5"/>
<text text-anchor="middle" x="367" y="-111.5" font-family="Helvetica,sans-Serif" font-size="10.00">MatCpyf</text>
</a>
</g>
<!-- Node2&#45;&gt;Node3 -->
<g id="edge4" class="edge"><title>Node2&#45;&gt;Node3</title>
<path fill="none" stroke="midnightblue" d="M293.728,-114C304.755,-114 317.96,-114 330.048,-114"/>
<polygon fill="midnightblue" stroke="midnightblue" points="330.301,-117.5 340.301,-114 330.301,-110.5 330.301,-117.5"/>
</g>
<!-- Node6&#45;&gt;Node2 -->
<g id="edge12" class="edge"><title>Node6&#45;&gt;Node2</title>
<path fill="none" stroke="midnightblue" d="M181.961,-81.5305C196.869,-87.2226 216.024,-94.5365 232.38,-100.781"/>
<polygon fill="midnightblue" stroke="midnightblue" points="231.547,-104.21 242.138,-104.507 234.044,-97.6704 231.547,-104.21"/>
</g>
<!-- Node6&#45;&gt;Node4 -->
<g id="edge14" class="edge"><title>Node6&#45;&gt;Node4</title>
<path fill="none" stroke="midnightblue" d="M196.092,-63.4709C207.628,-60.954 220.185,-58.2141 231.484,-55.7491"/>
<polygon fill="midnightblue" stroke="midnightblue" points="232.416,-59.1281 241.44,-53.5768 230.923,-52.289 232.416,-59.1281"/>
</g>
<!-- Node6&#45;&gt;Node5 -->
<g id="edge16" class="edge"><title>Node6&#45;&gt;Node5</title>
<path fill="none" stroke="midnightblue" d="M173.324,-62.4953C188.475,-53.7082 211.685,-40.3359 232,-29 234.691,-27.4987 237.505,-25.9443 240.318,-24.4009"/>
<polygon fill="midnightblue" stroke="midnightblue" points="242.046,-27.4456 249.151,-19.5861 238.695,-21.2995 242.046,-27.4456"/>
</g>
<!-- Node6&#45;&gt;Node6 -->
<g id="edge18" class="edge"><title>Node6&#45;&gt;Node6</title>
<path fill="none" stroke="midnightblue" d="M138.738,-81.7571C130.34,-90.5653 136.094,-100 156,-100 168.441,-100 175.355,-96.3146 176.74,-91.4"/>
<polygon fill="midnightblue" stroke="midnightblue" points="179.947,-89.9768 173.262,-81.7571 173.362,-92.3514 179.947,-89.9768"/>
</g>
</g>
</svg>
