<?xml version="1.0" encoding="UTF-8" standalone="no"?>
<!DOCTYPE svg PUBLIC "-//W3C//DTD SVG 1.1//EN"
 "http://www.w3.org/Graphics/SVG/1.1/DTD/svg11.dtd">
<!-- Generated by graphviz version 2.28.0 (20110507.0327)
 -->
<!-- Title: G Pages: 1 -->
<svg width="208pt" height="84pt"
 viewBox="0.00 0.00 208.00 84.00" xmlns="http://www.w3.org/2000/svg" xmlns:xlink="http://www.w3.org/1999/xlink">
<g id="graph1" class="graph" transform="scale(1 1) rotate(0) translate(4 80)">
<title>G</title>
<polygon fill="white" stroke="white" points="-4,5 -4,-80 205,-80 205,5 -4,5"/>
<!-- Node1 -->
<g id="node1" class="node"><title>Node1</title>
<polygon fill="#bfbfbf" stroke="black" points="43,-56.5 43,-75.5 145,-75.5 145,-56.5 43,-56.5"/>
<text text-anchor="middle" x="94" y="-63.5" font-family="Helvetica,sans-Serif" font-size="10.00">David_FindMother.c</text>
</g>
<!-- Node2 -->
<g id="node3" class="node"><title>Node2</title>
<a xlink:href="_david__u_l_i_n_k_8h.html" target="_top" xlink:title="Link initialisation and declarations (used in control loop)">
<polygon fill="white" stroke="black" points="0,-0.5 0,-19.5 80,-19.5 80,-0.5 0,-0.5"/>
<text text-anchor="middle" x="40" y="-7.5" font-family="Helvetica,sans-Serif" font-size="10.00">David_uLINK.h</text>
</a>
</g>
<!-- Node1&#45;&gt;Node2 -->
<g id="edge2" class="edge"><title>Node1&#45;&gt;Node2</title>
<path fill="none" stroke="midnightblue" d="M85.083,-56.083C77.2195,-48.2195 65.5688,-36.5688 56.0813,-27.0813"/>
<polygon fill="midnightblue" stroke="midnightblue" points="58.2971,-24.3473 48.7511,-19.7511 53.3473,-29.2971 58.2971,-24.3473"/>
</g>
<!-- Node3 -->
<g id="node5" class="node"><title>Node3</title>
<a xlink:href="_david___find_mother_8h.html" target="_top" xlink:title="David_FindMother.h">
<polygon fill="white" stroke="black" points="98,-0.5 98,-19.5 200,-19.5 200,-0.5 98,-0.5"/>
<text text-anchor="middle" x="149" y="-7.5" font-family="Helvetica,sans-Serif" font-size="10.00">David_FindMother.h</text>
</a>
</g>
<!-- Node1&#45;&gt;Node3 -->
<g id="edge4" class="edge"><title>Node1&#45;&gt;Node3</title>
<path fill="none" stroke="midnightblue" d="M103.082,-56.083C111.171,-48.1409 123.195,-36.3354 132.91,-26.7973"/>
<polygon fill="midnightblue" stroke="midnightblue" points="135.403,-29.2545 140.087,-19.7511 130.499,-24.2595 135.403,-29.2545"/>
</g>
</g>
</svg>
