<?xml version="1.0" encoding="UTF-8" standalone="no"?>
<!DOCTYPE svg PUBLIC "-//W3C//DTD SVG 1.1//EN"
 "http://www.w3.org/Graphics/SVG/1.1/DTD/svg11.dtd">
<!-- Generated by graphviz version 2.28.0 (20110507.0327)
 -->
<!-- Title: G Pages: 1 -->
<svg width="471pt" height="84pt"
 viewBox="0.00 0.00 471.00 84.00" xmlns="http://www.w3.org/2000/svg" xmlns:xlink="http://www.w3.org/1999/xlink">
<g id="graph1" class="graph" transform="scale(1 1) rotate(0) translate(4 80)">
<title>G</title>
<polygon fill="white" stroke="white" points="-4,5 -4,-80 468,-80 468,5 -4,5"/>
<!-- Node1 -->
<g id="node1" class="node"><title>Node1</title>
<polygon fill="#bfbfbf" stroke="black" points="135.5,-56.5 135.5,-75.5 272.5,-75.5 272.5,-56.5 135.5,-56.5"/>
<text text-anchor="middle" x="204" y="-63.5" font-family="Helvetica,sans-Serif" font-size="10.00">David_ForwardKinematics.c</text>
</g>
<!-- Node2 -->
<g id="node3" class="node"><title>Node2</title>
<a xlink:href="_david__u_l_i_n_k_8h.html" target="_top" xlink:title="Link initialisation and declarations (used in control loop)">
<polygon fill="white" stroke="black" points="0,-0.5 0,-19.5 80,-19.5 80,-0.5 0,-0.5"/>
<text text-anchor="middle" x="40" y="-7.5" font-family="Helvetica,sans-Serif" font-size="10.00">David_uLINK.h</text>
</a>
</g>
<!-- Node1&#45;&gt;Node2 -->
<g id="edge2" class="edge"><title>Node1&#45;&gt;Node2</title>
<path fill="none" stroke="midnightblue" d="M178.014,-56.4435C150.304,-47.3196 106.248,-32.8133 75.3843,-22.6509"/>
<polygon fill="midnightblue" stroke="midnightblue" points="76.4577,-19.3196 65.8647,-19.5164 74.2684,-25.9684 76.4577,-19.3196"/>
</g>
<!-- Node3 -->
<g id="node5" class="node"><title>Node3</title>
<a xlink:href="_david___rodrigues_8h.html" target="_top" xlink:title="David_Rodrigues.h">
<polygon fill="white" stroke="black" points="98.5,-0.5 98.5,-19.5 195.5,-19.5 195.5,-0.5 98.5,-0.5"/>
<text text-anchor="middle" x="147" y="-7.5" font-family="Helvetica,sans-Serif" font-size="10.00">David_Rodrigues.h</text>
</a>
</g>
<!-- Node1&#45;&gt;Node3 -->
<g id="edge4" class="edge"><title>Node1&#45;&gt;Node3</title>
<path fill="none" stroke="midnightblue" d="M194.842,-56.324C186.499,-48.4196 173.968,-36.5482 163.823,-26.9377"/>
<polygon fill="midnightblue" stroke="midnightblue" points="165.991,-24.1705 156.325,-19.8339 161.177,-29.2522 165.991,-24.1705"/>
</g>
<!-- Node4 -->
<g id="node7" class="node"><title>Node4</title>
<polygon fill="white" stroke="#bfbfbf" points="213.5,-0.5 213.5,-19.5 308.5,-19.5 308.5,-0.5 213.5,-0.5"/>
<text text-anchor="middle" x="261" y="-7.5" font-family="Helvetica,sans-Serif" font-size="10.00">d:\Mb\StLib\Mat.h</text>
</g>
<!-- Node1&#45;&gt;Node4 -->
<g id="edge6" class="edge"><title>Node1&#45;&gt;Node4</title>
<path fill="none" stroke="midnightblue" d="M213.158,-56.324C221.501,-48.4196 234.032,-36.5482 244.177,-26.9377"/>
<polygon fill="midnightblue" stroke="midnightblue" points="246.823,-29.2522 251.675,-19.8339 242.009,-24.1705 246.823,-29.2522"/>
</g>
<!-- Node5 -->
<g id="node9" class="node"><title>Node5</title>
<a xlink:href="_david___forward_kinematics_8h.html" target="_top" xlink:title="David_ForwardKinematics.h">
<polygon fill="white" stroke="black" points="326.5,-0.5 326.5,-19.5 463.5,-19.5 463.5,-0.5 326.5,-0.5"/>
<text text-anchor="middle" x="395" y="-7.5" font-family="Helvetica,sans-Serif" font-size="10.00">David_ForwardKinematics.h</text>
</a>
</g>
<!-- Node1&#45;&gt;Node5 -->
<g id="edge8" class="edge"><title>Node1&#45;&gt;Node5</title>
<path fill="none" stroke="midnightblue" d="M234.265,-56.4435C266.955,-47.2011 319.182,-32.4356 355.183,-22.2572"/>
<polygon fill="midnightblue" stroke="midnightblue" points="356.206,-25.6051 364.877,-19.5164 354.302,-18.8691 356.206,-25.6051"/>
</g>
</g>
</svg>
