<?xml version="1.0" encoding="UTF-8" standalone="no"?>
<!DOCTYPE svg PUBLIC "-//W3C//DTD SVG 1.1//EN"
 "http://www.w3.org/Graphics/SVG/1.1/DTD/svg11.dtd">
<!-- Generated by graphviz version 2.28.0 (20110507.0327)
 -->
<!-- Title: G Pages: 1 -->
<svg width="430pt" height="122pt"
 viewBox="0.00 0.00 430.00 122.00" xmlns="http://www.w3.org/2000/svg" xmlns:xlink="http://www.w3.org/1999/xlink">
<g id="graph1" class="graph" transform="scale(1 1) rotate(0) translate(4 118)">
<title>G</title>
<polygon fill="white" stroke="white" points="-4,5 -4,-118 427,-118 427,5 -4,5"/>
<!-- Node1 -->
<g id="node1" class="node"><title>Node1</title>
<polygon fill="#bfbfbf" stroke="black" points="0.5,-38.5 0.5,-57.5 85.5,-57.5 85.5,-38.5 0.5,-38.5"/>
<text text-anchor="middle" x="43" y="-45.5" font-family="Helvetica,sans-Serif" font-size="10.00">David_CalcCoM</text>
</g>
<!-- Node2 -->
<g id="node3" class="node"><title>Node2</title>
<a xlink:href="_david___gravity_8h.html#a1f1e600a0c38ffaf69b85505ea4645d0" target="_top" xlink:title="David_Gravity">
<polygon fill="white" stroke="black" points="131.5,-76.5 131.5,-95.5 206.5,-95.5 206.5,-76.5 131.5,-76.5"/>
<text text-anchor="middle" x="169" y="-83.5" font-family="Helvetica,sans-Serif" font-size="10.00">David_Gravity</text>
</a>
</g>
<!-- Node1&#45;&gt;Node2 -->
<g id="edge2" class="edge"><title>Node1&#45;&gt;Node2</title>
<path fill="none" stroke="midnightblue" d="M84.9047,-60.5353C101.773,-65.7048 121.008,-71.5991 136.72,-76.4141"/>
<polygon fill="midnightblue" stroke="midnightblue" points="85.8771,-57.1727 75.2904,-57.589 83.826,-63.8655 85.8771,-57.1727"/>
</g>
<!-- Node3 -->
<g id="node6" class="node"><title>Node3</title>
<a xlink:href="_forward_dynamics_8h.html#a23609ae4e05df387941c4bbc7bfc26fe" target="_top" xlink:title="ForwardDynamics">
<polygon fill="white" stroke="black" points="252.5,-57.5 252.5,-76.5 347.5,-76.5 347.5,-57.5 252.5,-57.5"/>
<text text-anchor="middle" x="300" y="-64.5" font-family="Helvetica,sans-Serif" font-size="10.00">ForwardDynamics</text>
</a>
</g>
<!-- Node1&#45;&gt;Node3 -->
<g id="edge12" class="edge"><title>Node1&#45;&gt;Node3</title>
<path fill="none" stroke="midnightblue" d="M95.5739,-51.8428C141.449,-55.2609 207.952,-60.216 252.289,-63.5196"/>
<polygon fill="midnightblue" stroke="midnightblue" points="95.7701,-48.3478 85.5377,-51.095 95.2499,-55.3284 95.7701,-48.3478"/>
</g>
<!-- Node5 -->
<g id="node10" class="node"><title>Node5</title>
<a xlink:href="_david___stabilizator_8h.html#a160d145abfa84a49d710ddcb384990ef" target="_top" xlink:title="David_Stabilizator">
<polygon fill="white" stroke="black" points="122,-0.5 122,-19.5 216,-19.5 216,-0.5 122,-0.5"/>
<text text-anchor="middle" x="169" y="-7.5" font-family="Helvetica,sans-Serif" font-size="10.00">David_Stabilizator</text>
</a>
</g>
<!-- Node1&#45;&gt;Node5 -->
<g id="edge10" class="edge"><title>Node1&#45;&gt;Node5</title>
<path fill="none" stroke="midnightblue" d="M84.9047,-35.4647C101.773,-30.2952 121.008,-24.4009 136.72,-19.5859"/>
<polygon fill="midnightblue" stroke="midnightblue" points="83.826,-32.1345 75.2904,-38.411 85.8771,-38.8273 83.826,-32.1345"/>
</g>
<!-- Node2&#45;&gt;Node2 -->
<g id="edge4" class="edge"><title>Node2&#45;&gt;Node2</title>
<path fill="none" stroke="midnightblue" d="M145.563,-105.029C146.841,-110.128 154.654,-114 169,-114 191.395,-114 197.868,-104.565 188.42,-95.7571"/>
<polygon fill="midnightblue" stroke="midnightblue" points="148.816,-106.324 149.58,-95.7571 142.393,-103.541 148.816,-106.324"/>
</g>
<!-- Node2&#45;&gt;Node3 -->
<g id="edge6" class="edge"><title>Node2&#45;&gt;Node3</title>
<path fill="none" stroke="midnightblue" d="M216.54,-79.1452C228.121,-77.4395 240.541,-75.6102 252.137,-73.9023"/>
<polygon fill="midnightblue" stroke="midnightblue" points="216.004,-75.6863 206.621,-80.6062 217.024,-82.6116 216.004,-75.6863"/>
</g>
<!-- Node4 -->
<g id="node8" class="node"><title>Node4</title>
<a xlink:href="main_8c.html#a0ddf1224851353fc92bfbff6f499fa97" target="_top" xlink:title="main">
<polygon fill="white" stroke="black" points="384,-57.5 384,-76.5 422,-76.5 422,-57.5 384,-57.5"/>
<text text-anchor="middle" x="403" y="-64.5" font-family="Helvetica,sans-Serif" font-size="10.00">main</text>
</a>
</g>
<!-- Node3&#45;&gt;Node4 -->
<g id="edge8" class="edge"><title>Node3&#45;&gt;Node4</title>
<path fill="none" stroke="midnightblue" d="M357.879,-67C367.25,-67 376.323,-67 383.779,-67"/>
<polygon fill="midnightblue" stroke="midnightblue" points="357.657,-63.5001 347.657,-67 357.657,-70.5001 357.657,-63.5001"/>
</g>
</g>
</svg>
