<?xml version="1.0" encoding="UTF-8" standalone="no"?>
<!DOCTYPE svg PUBLIC "-//W3C//DTD SVG 1.1//EN"
 "http://www.w3.org/Graphics/SVG/1.1/DTD/svg11.dtd">
<!-- Generated by graphviz version 2.28.0 (20110507.0327)
 -->
<!-- Title: G Pages: 1 -->
<svg width="232pt" height="46pt"
 viewBox="0.00 0.00 232.00 46.00" xmlns="http://www.w3.org/2000/svg" xmlns:xlink="http://www.w3.org/1999/xlink">
<g id="graph1" class="graph" transform="scale(1 1) rotate(0) translate(4 42)">
<title>G</title>
<polygon fill="white" stroke="white" points="-4,5 -4,-42 229,-42 229,5 -4,5"/>
<!-- Node1 -->
<g id="node1" class="node"><title>Node1</title>
<polygon fill="#bfbfbf" stroke="black" points="0,-0.5 0,-19.5 94,-19.5 94,-0.5 0,-0.5"/>
<text text-anchor="middle" x="47" y="-7.5" font-family="Helvetica,sans-Serif" font-size="10.00">David_FindMother</text>
</g>
<!-- Node2 -->
<g id="node3" class="node"><title>Node2</title>
<a xlink:href="_david___find_mother_8c.html#a6a77c2a87c6fa7845d007e4cb968ff0f" target="_top" xlink:title="David_FindMother">
<polygon fill="white" stroke="black" points="130,-0.5 130,-19.5 224,-19.5 224,-0.5 130,-0.5"/>
<text text-anchor="middle" x="177" y="-7.5" font-family="Helvetica,sans-Serif" font-size="10.00">David_FindMother</text>
</a>
</g>
<!-- Node1&#45;&gt;Node2 -->
<g id="edge2" class="edge"><title>Node1&#45;&gt;Node2</title>
<path fill="none" stroke="midnightblue" d="M94.2109,-10C102.458,-10 111.134,-10 119.628,-10"/>
<polygon fill="midnightblue" stroke="midnightblue" points="119.857,-13.5001 129.857,-10 119.857,-6.5001 119.857,-13.5001"/>
</g>
<!-- Node2&#45;&gt;Node2 -->
<g id="edge4" class="edge"><title>Node2&#45;&gt;Node2</title>
<path fill="none" stroke="midnightblue" d="M156.963,-19.7571C147.216,-28.5653 153.895,-38 177,-38 191.802,-38 199.862,-34.128 201.181,-29.0292"/>
<polygon fill="midnightblue" stroke="midnightblue" points="204.313,-27.4582 197.037,-19.7571 197.922,-30.3148 204.313,-27.4582"/>
</g>
</g>
</svg>
