<?xml version="1.0" encoding="UTF-8" standalone="no"?>
<!DOCTYPE svg PUBLIC "-//W3C//DTD SVG 1.1//EN"
 "http://www.w3.org/Graphics/SVG/1.1/DTD/svg11.dtd">
<!-- Generated by graphviz version 2.28.0 (20110507.0327)
 -->
<!-- Title: G Pages: 1 -->
<svg width="460pt" height="256pt"
 viewBox="0.00 0.00 460.00 256.00" xmlns="http://www.w3.org/2000/svg" xmlns:xlink="http://www.w3.org/1999/xlink">
<g id="graph1" class="graph" transform="scale(1 1) rotate(0) translate(4 252)">
<title>G</title>
<polygon fill="white" stroke="white" points="-4,5 -4,-252 457,-252 457,5 -4,5"/>
<!-- Node1 -->
<g id="node1" class="node"><title>Node1</title>
<polygon fill="#bfbfbf" stroke="black" points="0,-95.5 0,-114.5 128,-114.5 128,-95.5 0,-95.5"/>
<text text-anchor="middle" x="64" y="-102.5" font-family="Helvetica,sans-Serif" font-size="10.00">David_ForwardKinematics</text>
</g>
<!-- Node1&#45;&gt;Node1 -->
<g id="edge30" class="edge"><title>Node1&#45;&gt;Node1</title>
<path fill="none" stroke="midnightblue" d="M41.8054,-114.757C31.0081,-123.565 38.4063,-133 64,-133 80.7959,-133 89.7556,-128.937 90.8792,-123.654"/>
<polygon fill="midnightblue" stroke="midnightblue" points="93.9506,-121.975 86.1946,-114.757 87.7567,-125.236 93.9506,-121.975"/>
</g>
<!-- Node2 -->
<g id="node3" class="node"><title>Node2</title>
<a xlink:href="_mat_8c.html#ae5dcc36ff446d01426b9ce7fbd5e1f83" target="_top" xlink:title="MatMulf">
<polygon fill="white" stroke="black" points="300.5,-38.5 300.5,-57.5 351.5,-57.5 351.5,-38.5 300.5,-38.5"/>
<text text-anchor="middle" x="326" y="-45.5" font-family="Helvetica,sans-Serif" font-size="10.00">MatMulf</text>
</a>
</g>
<!-- Node1&#45;&gt;Node2 -->
<g id="edge2" class="edge"><title>Node1&#45;&gt;Node2</title>
<path fill="none" stroke="midnightblue" d="M116.931,-95.4728C155.009,-88.2654 207.888,-77.7943 254,-67 266.012,-64.1882 279.077,-60.7904 290.687,-57.6501"/>
<polygon fill="midnightblue" stroke="midnightblue" points="291.731,-60.9933 300.452,-54.978 289.883,-54.2415 291.731,-60.9933"/>
</g>
<!-- Node4 -->
<g id="node7" class="node"><title>Node4</title>
<a xlink:href="_mat_8c.html#aa4b0ec687e717aa5243535ca86cf60c3" target="_top" xlink:title="MatAddf">
<polygon fill="white" stroke="black" points="299.5,-228.5 299.5,-247.5 352.5,-247.5 352.5,-228.5 299.5,-228.5"/>
<text text-anchor="middle" x="326" y="-235.5" font-family="Helvetica,sans-Serif" font-size="10.00">MatAddf</text>
</a>
</g>
<!-- Node1&#45;&gt;Node4 -->
<g id="edge6" class="edge"><title>Node1&#45;&gt;Node4</title>
<path fill="none" stroke="midnightblue" d="M83.6986,-114.565C128.75,-137.611 243.514,-196.317 296.898,-223.625"/>
<polygon fill="midnightblue" stroke="midnightblue" points="295.625,-226.905 306.122,-228.343 298.813,-220.673 295.625,-226.905"/>
</g>
<!-- Node5 -->
<g id="node9" class="node"><title>Node5</title>
<a xlink:href="_david___rodrigues_8c.html#a60a6dbedf38702ef67715eb17c6efadc" target="_top" xlink:title="David_Rodrigues">
<polygon fill="white" stroke="black" points="164.5,-114.5 164.5,-133.5 253.5,-133.5 253.5,-114.5 164.5,-114.5"/>
<text text-anchor="middle" x="209" y="-121.5" font-family="Helvetica,sans-Serif" font-size="10.00">David_Rodrigues</text>
</a>
</g>
<!-- Node1&#45;&gt;Node5 -->
<g id="edge8" class="edge"><title>Node1&#45;&gt;Node5</title>
<path fill="none" stroke="midnightblue" d="M128.138,-113.389C136.862,-114.548 145.754,-115.729 154.285,-116.863"/>
<polygon fill="midnightblue" stroke="midnightblue" points="154.102,-120.369 164.476,-118.217 155.025,-113.43 154.102,-120.369"/>
</g>
<!-- Node11 -->
<g id="node23" class="node"><title>Node11</title>
<a xlink:href="_mat_8c.html#ae8e0d9d094b36fd7aa5d222e70d93953" target="_top" xlink:title="MatProVectorielf">
<polygon fill="white" stroke="black" points="164.5,-38.5 164.5,-57.5 253.5,-57.5 253.5,-38.5 164.5,-38.5"/>
<text text-anchor="middle" x="209" y="-45.5" font-family="Helvetica,sans-Serif" font-size="10.00">MatProVectorielf</text>
</a>
</g>
<!-- Node1&#45;&gt;Node11 -->
<g id="edge24" class="edge"><title>Node1&#45;&gt;Node11</title>
<path fill="none" stroke="midnightblue" d="M88.935,-95.4595C112.342,-86.1295 148.195,-71.8384 174.443,-61.3758"/>
<polygon fill="midnightblue" stroke="midnightblue" points="175.994,-64.5256 183.987,-57.5716 173.402,-58.0232 175.994,-64.5256"/>
</g>
<!-- Node3 -->
<g id="node5" class="node"><title>Node3</title>
<a xlink:href="_mat_8c.html#a63a68223bbacc69c068f6a3bdb4b428a" target="_top" xlink:title="MatCpyf">
<polygon fill="white" stroke="black" points="398.5,-38.5 398.5,-57.5 451.5,-57.5 451.5,-38.5 398.5,-38.5"/>
<text text-anchor="middle" x="425" y="-45.5" font-family="Helvetica,sans-Serif" font-size="10.00">MatCpyf</text>
</a>
</g>
<!-- Node2&#45;&gt;Node3 -->
<g id="edge4" class="edge"><title>Node2&#45;&gt;Node3</title>
<path fill="none" stroke="midnightblue" d="M351.728,-48C362.755,-48 375.96,-48 388.048,-48"/>
<polygon fill="midnightblue" stroke="midnightblue" points="388.301,-51.5001 398.301,-48 388.301,-44.5001 388.301,-51.5001"/>
</g>
<!-- Node5&#45;&gt;Node2 -->
<g id="edge22" class="edge"><title>Node5&#45;&gt;Node2</title>
<path fill="none" stroke="midnightblue" d="M229.888,-114.461C237.663,-110.401 246.497,-105.364 254,-100 271.657,-87.3772 272.33,-79.6052 290,-67 292.069,-65.5244 294.264,-64.0809 296.508,-62.6907"/>
<polygon fill="midnightblue" stroke="midnightblue" points="298.335,-65.6777 305.235,-57.6378 294.827,-59.6199 298.335,-65.6777"/>
</g>
<!-- Node5&#45;&gt;Node4 -->
<g id="edge20" class="edge"><title>Node5&#45;&gt;Node4</title>
<path fill="none" stroke="midnightblue" d="M216.291,-133.65C228.657,-152.06 257.75,-192.7 290,-219 291.741,-220.42 293.605,-221.786 295.531,-223.088"/>
<polygon fill="midnightblue" stroke="midnightblue" points="293.834,-226.153 304.196,-228.364 297.474,-220.174 293.834,-226.153"/>
</g>
<!-- Node6 -->
<g id="node11" class="node"><title>Node6</title>
<a xlink:href="_mat_8c.html#a8fa4d7a3efd929279b0fbeb2fb7c22e3" target="_top" xlink:title="MatNormf">
<polygon fill="white" stroke="black" points="296.5,-114.5 296.5,-133.5 355.5,-133.5 355.5,-114.5 296.5,-114.5"/>
<text text-anchor="middle" x="326" y="-121.5" font-family="Helvetica,sans-Serif" font-size="10.00">MatNormf</text>
</a>
</g>
<!-- Node5&#45;&gt;Node6 -->
<g id="edge10" class="edge"><title>Node5&#45;&gt;Node6</title>
<path fill="none" stroke="midnightblue" d="M253.805,-124C264.468,-124 275.799,-124 286.212,-124"/>
<polygon fill="midnightblue" stroke="midnightblue" points="286.259,-127.5 296.259,-124 286.259,-120.5 286.259,-127.5"/>
</g>
<!-- Node7 -->
<g id="node13" class="node"><title>Node7</title>
<a xlink:href="_mat_8c.html#a9f566ce4c8ca2381358f2134cdd4e9e7" target="_top" xlink:title="MatMulScalf">
<polygon fill="white" stroke="black" points="290.5,-76.5 290.5,-95.5 361.5,-95.5 361.5,-76.5 290.5,-76.5"/>
<text text-anchor="middle" x="326" y="-83.5" font-family="Helvetica,sans-Serif" font-size="10.00">MatMulScalf</text>
</a>
</g>
<!-- Node5&#45;&gt;Node7 -->
<g id="edge12" class="edge"><title>Node5&#45;&gt;Node7</title>
<path fill="none" stroke="midnightblue" d="M239.019,-114.411C253.32,-109.686 270.765,-103.921 286.195,-98.8226"/>
<polygon fill="midnightblue" stroke="midnightblue" points="287.593,-102.047 295.99,-95.5859 285.397,-95.4002 287.593,-102.047"/>
</g>
<!-- Node8 -->
<g id="node15" class="node"><title>Node8</title>
<a xlink:href="_mat_8c.html#a271708fa4a26745632412df2d7b894d1" target="_top" xlink:title="MatTilde">
<polygon fill="white" stroke="black" points="299.5,-190.5 299.5,-209.5 352.5,-209.5 352.5,-190.5 299.5,-190.5"/>
<text text-anchor="middle" x="326" y="-197.5" font-family="Helvetica,sans-Serif" font-size="10.00">MatTilde</text>
</a>
</g>
<!-- Node5&#45;&gt;Node8 -->
<g id="edge14" class="edge"><title>Node5&#45;&gt;Node8</title>
<path fill="none" stroke="midnightblue" d="M222.421,-133.57C237.88,-145.311 265.265,-165.554 290,-181 292.338,-182.46 294.798,-183.927 297.283,-185.362"/>
<polygon fill="midnightblue" stroke="midnightblue" points="295.794,-188.539 306.232,-190.355 299.205,-182.426 295.794,-188.539"/>
</g>
<!-- Node9 -->
<g id="node17" class="node"><title>Node9</title>
<a xlink:href="_mat_8c.html#a9e1be75d926e81ca29ca09676705a51e" target="_top" xlink:title="MatI">
<polygon fill="white" stroke="black" points="308.5,-152.5 308.5,-171.5 343.5,-171.5 343.5,-152.5 308.5,-152.5"/>
<text text-anchor="middle" x="326" y="-159.5" font-family="Helvetica,sans-Serif" font-size="10.00">MatI</text>
</a>
</g>
<!-- Node5&#45;&gt;Node9 -->
<g id="edge16" class="edge"><title>Node5&#45;&gt;Node9</title>
<path fill="none" stroke="midnightblue" d="M239.019,-133.589C257.375,-139.654 280.91,-147.431 298.716,-153.315"/>
<polygon fill="midnightblue" stroke="midnightblue" points="297.861,-156.718 308.454,-156.533 300.058,-150.072 297.861,-156.718"/>
</g>
<!-- Node10 -->
<g id="node19" class="node"><title>Node10</title>
<a xlink:href="_mat_8c.html#a05baf6927b033792fd0ba2adcfb8df34" target="_top" xlink:title="MatClr">
<polygon fill="white" stroke="black" points="402.5,-152.5 402.5,-171.5 447.5,-171.5 447.5,-152.5 402.5,-152.5"/>
<text text-anchor="middle" x="425" y="-159.5" font-family="Helvetica,sans-Serif" font-size="10.00">MatClr</text>
</a>
</g>
<!-- Node9&#45;&gt;Node10 -->
<g id="edge18" class="edge"><title>Node9&#45;&gt;Node10</title>
<path fill="none" stroke="midnightblue" d="M343.896,-162C357.165,-162 376.024,-162 392.11,-162"/>
<polygon fill="midnightblue" stroke="midnightblue" points="392.194,-165.5 402.194,-162 392.193,-158.5 392.194,-165.5"/>
</g>
<!-- Node11&#45;&gt;Node2 -->
<g id="edge28" class="edge"><title>Node11&#45;&gt;Node2</title>
<path fill="none" stroke="midnightblue" d="M253.805,-48C265.857,-48 278.761,-48 290.229,-48"/>
<polygon fill="midnightblue" stroke="midnightblue" points="290.29,-51.5001 300.29,-48 290.29,-44.5001 290.29,-51.5001"/>
</g>
<!-- Node12 -->
<g id="node25" class="node"><title>Node12</title>
<a xlink:href="_mat_8c.html#a048190ee0aceb657fc3830bf279359b3" target="_top" xlink:title="MatTildef">
<polygon fill="white" stroke="black" points="298,-0.5 298,-19.5 354,-19.5 354,-0.5 298,-0.5"/>
<text text-anchor="middle" x="326" y="-7.5" font-family="Helvetica,sans-Serif" font-size="10.00">MatTildef</text>
</a>
</g>
<!-- Node11&#45;&gt;Node12 -->
<g id="edge26" class="edge"><title>Node11&#45;&gt;Node12</title>
<path fill="none" stroke="midnightblue" d="M239.019,-38.411C254.007,-33.4585 272.449,-27.3647 288.405,-22.0924"/>
<polygon fill="midnightblue" stroke="midnightblue" points="289.568,-25.3942 297.965,-18.9333 287.372,-18.7476 289.568,-25.3942"/>
</g>
</g>
</svg>
