<?xml version="1.0" encoding="UTF-8" standalone="no"?>
<!DOCTYPE svg PUBLIC "-//W3C//DTD SVG 1.1//EN"
 "http://www.w3.org/Graphics/SVG/1.1/DTD/svg11.dtd">
<!-- Generated by graphviz version 2.28.0 (20110507.0327)
 -->
<!-- Title: G Pages: 1 -->
<!--zoomable-->
<svg id="main" version="1.1" xmlns="http://www.w3.org/2000/svg" xmlns:xlink="http://www.w3.org/1999/xlink" xml:space="preserve" onload="init(evt)">
        <defs>
                <circle id="rim" cx="0" cy="0" r="7"/>
                <circle id="rim2" cx="0" cy="0" r="3.5"/>
                <g id="zoomPlus">
                        <use xlink:href="#rim" fill="#404040">
                                <set attributeName="fill" to="#808080" begin="zoomplus.mouseover" end="zoomplus.mouseout"/>
                        </use>
                        <path d="M-4,0h8M0,-4v8" fill="none" stroke="white" stroke-width="1.5" pointer-events="none"/>
                </g>
                <g id="zoomMin">
                        <use xlink:href="#rim" fill="#404040">
                                <set attributeName="fill" to="#808080" begin="zoomminus.mouseover" end="zoomminus.mouseout"/>
                        </use>
                        <path d="M-4,0h8" fill="none" stroke="white" stroke-width="1.5" pointer-events="none"/>
                </g>
                <g id="dirArrow">
                        <path fill="none" stroke="white" stroke-width="1.5" d="M0,-3.0v7 M-2.5,-0.5L0,-3.0L2.5,-0.5"/>
                </g>
               <g id="resetDef">
                       <use xlink:href="#rim2" fill="#404040">
                               <set attributeName="fill" to="#808080" begin="reset.mouseover" end="reset.mouseout"/>
                       </use>
               </g>
        </defs>

<script type="text/javascript">
var viewWidth = 1039;
var viewHeight = 84;
var sectionId = 'dynsection-0';
</script>
<script xlink:href="svgpan.js"/>
<svg id="graph" class="graph">
<g id="viewport">
<title>G</title>
<polygon fill="white" stroke="white" points="-4,5 -4,-80 1036,-80 1036,5 -4,5"/>
<!-- Node1 -->
<g id="node1" class="node"><title>Node1</title>
<polygon fill="#bfbfbf" stroke="black" points="494,-56.5 494,-75.5 574,-75.5 574,-56.5 494,-56.5"/>
<text text-anchor="middle" x="534" y="-63.5" font-family="Helvetica,sans-Serif" font-size="10.00">David_uLINK.h</text>
</g>
<!-- Node2 -->
<g id="node3" class="node"><title>Node2</title>
<a xlink:href="_david___calc_co_m_8c.html" target="_top" xlink:title="David_CalcCoM.c">
<polygon fill="white" stroke="black" points="-0.5,-0.5 -0.5,-19.5 92.5,-19.5 92.5,-0.5 -0.5,-0.5"/>
<text text-anchor="middle" x="46" y="-7.5" font-family="Helvetica,sans-Serif" font-size="10.00">David_CalcCoM.c</text>
</a>
</g>
<!-- Node1&#45;&gt;Node2 -->
<g id="edge2" class="edge"><title>Node1&#45;&gt;Node2</title>
<path fill="none" stroke="midnightblue" d="M483.333,-60.6418C402.523,-53.4842 239.539,-38.2015 102,-20 98.9738,-19.5995 95.8594,-19.1641 92.7224,-18.708"/>
<polygon fill="midnightblue" stroke="midnightblue" points="483.442,-64.1649 493.71,-61.5563 484.056,-57.192 483.442,-64.1649"/>
</g>
<!-- Node3 -->
<g id="node5" class="node"><title>Node3</title>
<a xlink:href="_david___calc_m_c_8c.html" target="_top" xlink:title="David_CalcMC.c">
<polygon fill="white" stroke="black" points="111,-0.5 111,-19.5 199,-19.5 199,-0.5 111,-0.5"/>
<text text-anchor="middle" x="155" y="-7.5" font-family="Helvetica,sans-Serif" font-size="10.00">David_CalcMC.c</text>
</a>
</g>
<!-- Node1&#45;&gt;Node3 -->
<g id="edge4" class="edge"><title>Node1&#45;&gt;Node3</title>
<path fill="none" stroke="midnightblue" d="M483.558,-58.5308C419.434,-50.1934 305.354,-34.9815 208,-20 205.14,-19.5599 202.196,-19.0945 199.23,-18.6163"/>
<polygon fill="midnightblue" stroke="midnightblue" points="483.424,-62.0427 493.792,-59.8581 484.325,-55.1008 483.424,-62.0427"/>
</g>
<!-- Node4 -->
<g id="node7" class="node"><title>Node4</title>
<a xlink:href="_david___find_mother_8c.html" target="_top" xlink:title="David_FindMother.c">
<polygon fill="white" stroke="black" points="217,-0.5 217,-19.5 319,-19.5 319,-0.5 217,-0.5"/>
<text text-anchor="middle" x="268" y="-7.5" font-family="Helvetica,sans-Serif" font-size="10.00">David_FindMother.c</text>
</a>
</g>
<!-- Node1&#45;&gt;Node4 -->
<g id="edge6" class="edge"><title>Node1&#45;&gt;Node4</title>
<path fill="none" stroke="midnightblue" d="M483.91,-54.8314C433.738,-44.6461 357.381,-29.145 310.198,-19.5666"/>
<polygon fill="midnightblue" stroke="midnightblue" points="483.393,-58.2976 493.889,-56.8572 484.785,-51.4376 483.393,-58.2976"/>
</g>
<!-- Node5 -->
<g id="node9" class="node"><title>Node5</title>
<a xlink:href="_david___forward_kinematics_8c.html" target="_top" xlink:title="David_ForwardKinematics.c">
<polygon fill="white" stroke="black" points="337.5,-0.5 337.5,-19.5 474.5,-19.5 474.5,-0.5 337.5,-0.5"/>
<text text-anchor="middle" x="406" y="-7.5" font-family="Helvetica,sans-Serif" font-size="10.00">David_ForwardKinematics.c</text>
</a>
</g>
<!-- Node1&#45;&gt;Node5 -->
<g id="edge8" class="edge"><title>Node1&#45;&gt;Node5</title>
<path fill="none" stroke="midnightblue" d="M504.377,-52.503C480.381,-42.3795 447.216,-28.388 426.187,-19.5164"/>
<polygon fill="midnightblue" stroke="midnightblue" points="503.144,-55.7813 513.718,-56.4435 505.865,-49.3317 503.144,-55.7813"/>
</g>
<!-- Node6 -->
<g id="node11" class="node"><title>Node6</title>
<a xlink:href="_david___gravity_8c.html" target="_top" xlink:title="David_Gravity.c">
<polygon fill="white" stroke="black" points="492.5,-0.5 492.5,-19.5 575.5,-19.5 575.5,-0.5 492.5,-0.5"/>
<text text-anchor="middle" x="534" y="-7.5" font-family="Helvetica,sans-Serif" font-size="10.00">David_Gravity.c</text>
</a>
</g>
<!-- Node1&#45;&gt;Node6 -->
<g id="edge10" class="edge"><title>Node1&#45;&gt;Node6</title>
<path fill="none" stroke="midnightblue" d="M534,-45.8045C534,-36.9102 534,-26.7798 534,-19.7511"/>
<polygon fill="midnightblue" stroke="midnightblue" points="530.5,-46.083 534,-56.083 537.5,-46.083 530.5,-46.083"/>
</g>
<!-- Node7 -->
<g id="node13" class="node"><title>Node7</title>
<a xlink:href="_david___stabilizator_8c.html" target="_top" xlink:title="David_Stabilizator.c">
<polygon fill="white" stroke="black" points="594,-0.5 594,-19.5 696,-19.5 696,-0.5 594,-0.5"/>
<text text-anchor="middle" x="645" y="-7.5" font-family="Helvetica,sans-Serif" font-size="10.00">David_Stabilizator.c</text>
</a>
</g>
<!-- Node1&#45;&gt;Node7 -->
<g id="edge12" class="edge"><title>Node1&#45;&gt;Node7</title>
<path fill="none" stroke="midnightblue" d="M561.005,-51.8622C581.588,-41.8492 609.345,-28.3458 627.21,-19.6545"/>
<polygon fill="midnightblue" stroke="midnightblue" points="559.295,-48.8019 551.834,-56.324 562.358,-55.0966 559.295,-48.8019"/>
</g>
<!-- Node8 -->
<g id="node15" class="node"><title>Node8</title>
<a xlink:href="_david___total_mass_8c.html" target="_top" xlink:title="David_TotalMass.c">
<polygon fill="white" stroke="black" points="714,-0.5 714,-19.5 812,-19.5 812,-0.5 714,-0.5"/>
<text text-anchor="middle" x="763" y="-7.5" font-family="Helvetica,sans-Serif" font-size="10.00">David_TotalMass.c</text>
</a>
</g>
<!-- Node1&#45;&gt;Node8 -->
<g id="edge14" class="edge"><title>Node1&#45;&gt;Node8</title>
<path fill="none" stroke="midnightblue" d="M580.273,-54.0884C623.537,-43.8865 687.255,-28.8612 726.884,-19.5164"/>
<polygon fill="midnightblue" stroke="midnightblue" points="579.215,-50.7418 570.286,-56.4435 580.822,-57.5549 579.215,-50.7418"/>
</g>
<!-- Node9 -->
<g id="node17" class="node"><title>Node9</title>
<a xlink:href="_david__u_l_i_n_k_8c.html" target="_top" xlink:title="David_uLINK.c">
<polygon fill="white" stroke="black" points="830,-0.5 830,-19.5 910,-19.5 910,-0.5 830,-0.5"/>
<text text-anchor="middle" x="870" y="-7.5" font-family="Helvetica,sans-Serif" font-size="10.00">David_uLINK.c</text>
</a>
</g>
<!-- Node1&#45;&gt;Node9 -->
<g id="edge16" class="edge"><title>Node1&#45;&gt;Node9</title>
<path fill="none" stroke="midnightblue" d="M584.351,-57.5123C641.709,-48.888 738.215,-34.0904 821,-20 823.899,-19.5066 826.892,-18.9855 829.904,-18.4527"/>
<polygon fill="midnightblue" stroke="midnightblue" points="583.824,-54.0521 574.454,-58.9975 584.863,-60.9746 583.824,-54.0521"/>
</g>
<!-- Node10 -->
<g id="node19" class="node"><title>Node10</title>
<a xlink:href="_forward_dynamics_8c.html" target="_top" xlink:title="ForwardDynamics.c">
<polygon fill="white" stroke="black" points="928.5,-0.5 928.5,-19.5 1031.5,-19.5 1031.5,-0.5 928.5,-0.5"/>
<text text-anchor="middle" x="980" y="-7.5" font-family="Helvetica,sans-Serif" font-size="10.00">ForwardDynamics.c</text>
</a>
</g>
<!-- Node1&#45;&gt;Node10 -->
<g id="edge18" class="edge"><title>Node1&#45;&gt;Node10</title>
<path fill="none" stroke="midnightblue" d="M584.602,-59.577C658.263,-51.5713 799.296,-35.8226 919,-20 922.078,-19.5932 925.241,-19.1631 928.431,-18.7201"/>
<polygon fill="midnightblue" stroke="midnightblue" points="583.798,-56.1436 574.234,-60.7011 584.553,-63.1028 583.798,-56.1436"/>
</g>
</g>
</svg>
        <g id="navigator" transform="translate(0 0)" fill="#404254">
                <rect fill="#f2f5e9" fill-opacity="0.5" stroke="#606060" stroke-width=".5" x="0" y="0" width="60" height="60"/>
                <use id="zoomplus" xlink:href="#zoomPlus" x="17" y="9" onmousedown="handleZoom(evt,'in')"/>
                <use id="zoomminus" xlink:href="#zoomMin" x="42" y="9" onmousedown="handleZoom(evt,'out')"/>
                <use id="reset" xlink:href="#resetDef" x="30" y="36" onmousedown="handleReset()"/>
                <g id="arrowUp" xlink:href="#dirArrow" transform="translate(30 24)" onmousedown="handlePan(0,-1)">
                  <use xlink:href="#rim" fill="#404040">
                        <set attributeName="fill" to="#808080" begin="arrowUp.mouseover" end="arrowUp.mouseout"/>
                  </use>
                  <path fill="none" stroke="white" stroke-width="1.5" d="M0,-3.0v7 M-2.5,-0.5L0,-3.0L2.5,-0.5"/>
                </g>
                <g id="arrowRight" xlink:href="#dirArrow" transform="rotate(90) translate(36 -43)" onmousedown="handlePan(1,0)">
                  <use xlink:href="#rim" fill="#404040">
                        <set attributeName="fill" to="#808080" begin="arrowRight.mouseover" end="arrowRight.mouseout"/>
                  </use>
                  <path fill="none" stroke="white" stroke-width="1.5" d="M0,-3.0v7 M-2.5,-0.5L0,-3.0L2.5,-0.5"/>
                </g>
                <g id="arrowDown" xlink:href="#dirArrow" transform="rotate(180) translate(-30 -48)" onmousedown="handlePan(0,1)">
                  <use xlink:href="#rim" fill="#404040">
                        <set attributeName="fill" to="#808080" begin="arrowDown.mouseover" end="arrowDown.mouseout"/>
                  </use>
                  <path fill="none" stroke="white" stroke-width="1.5" d="M0,-3.0v7 M-2.5,-0.5L0,-3.0L2.5,-0.5"/>
                </g>
                <g id="arrowLeft" xlink:href="#dirArrow" transform="rotate(270) translate(-36 17)" onmousedown="handlePan(-1,0)">
                  <use xlink:href="#rim" fill="#404040">
                        <set attributeName="fill" to="#808080" begin="arrowLeft.mouseover" end="arrowLeft.mouseout"/>
                  </use>
                  <path fill="none" stroke="white" stroke-width="1.5" d="M0,-3.0v7 M-2.5,-0.5L0,-3.0L2.5,-0.5"/>
                </g>
        </g>
</svg>
