<?xml version="1.0" encoding="UTF-8" standalone="no"?>
<!DOCTYPE svg PUBLIC "-//W3C//DTD SVG 1.1//EN"
 "http://www.w3.org/Graphics/SVG/1.1/DTD/svg11.dtd">
<!-- Generated by graphviz version 2.28.0 (20110507.0327)
 -->
<!-- Title: G Pages: 1 -->
<svg width="477pt" height="84pt"
 viewBox="0.00 0.00 477.00 84.00" xmlns="http://www.w3.org/2000/svg" xmlns:xlink="http://www.w3.org/1999/xlink">
<g id="graph1" class="graph" transform="scale(1 1) rotate(0) translate(4 80)">
<title>G</title>
<polygon fill="white" stroke="white" points="-4,5 -4,-80 474,-80 474,5 -4,5"/>
<!-- Node1 -->
<g id="node1" class="node"><title>Node1</title>
<polygon fill="#bfbfbf" stroke="black" points="219,-56.5 219,-75.5 341,-75.5 341,-56.5 219,-56.5"/>
<text text-anchor="middle" x="280" y="-63.5" font-family="Helvetica,sans-Serif" font-size="10.00">David_StaticTrajectory.c</text>
</g>
<!-- Node2 -->
<g id="node3" class="node"><title>Node2</title>
<a xlink:href="_david___inverse_sherpa_kinematics_8h.html" target="_top" xlink:title="David_InverseSherpaKinematics.h">
<polygon fill="white" stroke="black" points="-0.5,-0.5 -0.5,-19.5 162.5,-19.5 162.5,-0.5 -0.5,-0.5"/>
<text text-anchor="middle" x="81" y="-7.5" font-family="Helvetica,sans-Serif" font-size="10.00">David_InverseSherpaKinematics.h</text>
</a>
</g>
<!-- Node1&#45;&gt;Node2 -->
<g id="edge2" class="edge"><title>Node1&#45;&gt;Node2</title>
<path fill="none" stroke="midnightblue" d="M248.468,-56.4435C214.408,-47.2011 159.994,-32.4356 122.485,-22.2572"/>
<polygon fill="midnightblue" stroke="midnightblue" points="122.952,-18.7575 112.385,-19.5164 121.119,-25.5132 122.952,-18.7575"/>
</g>
<!-- Node3 -->
<g id="node5" class="node"><title>Node3</title>
<a xlink:href="_david___spline_8h.html" target="_top" xlink:title="David_Spline.h">
<polygon fill="white" stroke="black" points="181,-0.5 181,-19.5 261,-19.5 261,-0.5 181,-0.5"/>
<text text-anchor="middle" x="221" y="-7.5" font-family="Helvetica,sans-Serif" font-size="10.00">David_Spline.h</text>
</a>
</g>
<!-- Node1&#45;&gt;Node3 -->
<g id="edge4" class="edge"><title>Node1&#45;&gt;Node3</title>
<path fill="none" stroke="midnightblue" d="M270.521,-56.324C261.799,-48.3414 248.657,-36.3128 238.102,-26.6529"/>
<polygon fill="midnightblue" stroke="midnightblue" points="240.392,-24.0036 230.652,-19.8339 235.666,-29.1674 240.392,-24.0036"/>
</g>
<!-- Node4 -->
<g id="node7" class="node"><title>Node4</title>
<a xlink:href="_david___static_trajectory_8h.html" target="_top" xlink:title="David_StaticTrajectory.h">
<polygon fill="white" stroke="black" points="279,-0.5 279,-19.5 401,-19.5 401,-0.5 279,-0.5"/>
<text text-anchor="middle" x="340" y="-7.5" font-family="Helvetica,sans-Serif" font-size="10.00">David_StaticTrajectory.h</text>
</a>
</g>
<!-- Node1&#45;&gt;Node4 -->
<g id="edge6" class="edge"><title>Node1&#45;&gt;Node4</title>
<path fill="none" stroke="midnightblue" d="M289.64,-56.324C298.51,-48.3414 311.875,-36.3128 322.608,-26.6529"/>
<polygon fill="midnightblue" stroke="midnightblue" points="325.093,-29.1251 330.185,-19.8339 320.41,-23.922 325.093,-29.1251"/>
</g>
<!-- Node5 -->
<g id="node9" class="node"><title>Node5</title>
<a xlink:href="_setup_8h.html" target="_top" xlink:title="Contain setup of simulations.">
<polygon fill="white" stroke="black" points="419,-0.5 419,-19.5 469,-19.5 469,-0.5 419,-0.5"/>
<text text-anchor="middle" x="444" y="-7.5" font-family="Helvetica,sans-Serif" font-size="10.00">Setup.h</text>
</a>
</g>
<!-- Node1&#45;&gt;Node5 -->
<g id="edge8" class="edge"><title>Node1&#45;&gt;Node5</title>
<path fill="none" stroke="midnightblue" d="M305.986,-56.4435C333.941,-47.2391 378.531,-32.5568 409.43,-22.3829"/>
<polygon fill="midnightblue" stroke="midnightblue" points="410.538,-25.7028 418.942,-19.2508 408.349,-19.0539 410.538,-25.7028"/>
</g>
</g>
</svg>
