<?xml version="1.0" encoding="UTF-8" standalone="no"?>
<!DOCTYPE svg PUBLIC "-//W3C//DTD SVG 1.1//EN"
 "http://www.w3.org/Graphics/SVG/1.1/DTD/svg11.dtd">
<!-- Generated by graphviz version 2.28.0 (20110507.0327)
 -->
<!-- Title: G Pages: 1 -->
<svg width="286pt" height="104pt"
 viewBox="0.00 0.00 286.00 104.00" xmlns="http://www.w3.org/2000/svg" xmlns:xlink="http://www.w3.org/1999/xlink">
<g id="graph1" class="graph" transform="scale(1 1) rotate(0) translate(4 100)">
<title>G</title>
<polygon fill="white" stroke="white" points="-4,5 -4,-100 283,-100 283,5 -4,5"/>
<!-- Node1 -->
<g id="node1" class="node"><title>Node1</title>
<polygon fill="#bfbfbf" stroke="black" points="0,-38.5 0,-57.5 80,-57.5 80,-38.5 0,-38.5"/>
<text text-anchor="middle" x="40" y="-45.5" font-family="Helvetica,sans-Serif" font-size="10.00">David_CalcMC</text>
</g>
<!-- Node1&#45;&gt;Node1 -->
<g id="edge10" class="edge"><title>Node1&#45;&gt;Node1</title>
<path fill="none" stroke="midnightblue" d="M22.7375,-57.7571C14.3396,-66.5653 20.0938,-76 40,-76 52.4414,-76 59.3546,-72.3146 60.7397,-67.4"/>
<polygon fill="midnightblue" stroke="midnightblue" points="63.9472,-65.9768 57.2625,-57.7571 57.3622,-68.3514 63.9472,-65.9768"/>
</g>
<!-- Node2 -->
<g id="node3" class="node"><title>Node2</title>
<a xlink:href="_mat_8c.html#ae5dcc36ff446d01426b9ce7fbd5e1f83" target="_top" xlink:title="MatMulf">
<polygon fill="white" stroke="black" points="126.5,-76.5 126.5,-95.5 177.5,-95.5 177.5,-76.5 126.5,-76.5"/>
<text text-anchor="middle" x="152" y="-83.5" font-family="Helvetica,sans-Serif" font-size="10.00">MatMulf</text>
</a>
</g>
<!-- Node1&#45;&gt;Node2 -->
<g id="edge2" class="edge"><title>Node1&#45;&gt;Node2</title>
<path fill="none" stroke="midnightblue" d="M68.7576,-57.589C83.2718,-62.603 101.172,-68.7868 116.563,-74.1036"/>
<polygon fill="midnightblue" stroke="midnightblue" points="115.659,-77.4942 126.254,-77.4513 117.945,-70.8779 115.659,-77.4942"/>
</g>
<!-- Node4 -->
<g id="node7" class="node"><title>Node4</title>
<a xlink:href="_mat_8c.html#aa4b0ec687e717aa5243535ca86cf60c3" target="_top" xlink:title="MatAddf">
<polygon fill="white" stroke="black" points="125.5,-38.5 125.5,-57.5 178.5,-57.5 178.5,-38.5 125.5,-38.5"/>
<text text-anchor="middle" x="152" y="-45.5" font-family="Helvetica,sans-Serif" font-size="10.00">MatAddf</text>
</a>
</g>
<!-- Node1&#45;&gt;Node4 -->
<g id="edge6" class="edge"><title>Node1&#45;&gt;Node4</title>
<path fill="none" stroke="midnightblue" d="M80.0916,-48C91.51,-48 103.929,-48 115.137,-48"/>
<polygon fill="midnightblue" stroke="midnightblue" points="115.44,-51.5001 125.44,-48 115.44,-44.5001 115.44,-51.5001"/>
</g>
<!-- Node5 -->
<g id="node9" class="node"><title>Node5</title>
<a xlink:href="_mat_8c.html#a9f566ce4c8ca2381358f2134cdd4e9e7" target="_top" xlink:title="MatMulScalf">
<polygon fill="white" stroke="black" points="116.5,-0.5 116.5,-19.5 187.5,-19.5 187.5,-0.5 116.5,-0.5"/>
<text text-anchor="middle" x="152" y="-7.5" font-family="Helvetica,sans-Serif" font-size="10.00">MatMulScalf</text>
</a>
</g>
<!-- Node1&#45;&gt;Node5 -->
<g id="edge8" class="edge"><title>Node1&#45;&gt;Node5</title>
<path fill="none" stroke="midnightblue" d="M68.7576,-38.411C82.3062,-33.7306 98.8055,-28.0308 113.46,-22.9685"/>
<polygon fill="midnightblue" stroke="midnightblue" points="114.942,-26.1594 123.251,-19.5859 112.656,-19.543 114.942,-26.1594"/>
</g>
<!-- Node3 -->
<g id="node5" class="node"><title>Node3</title>
<a xlink:href="_mat_8c.html#a63a68223bbacc69c068f6a3bdb4b428a" target="_top" xlink:title="MatCpyf">
<polygon fill="white" stroke="black" points="224.5,-76.5 224.5,-95.5 277.5,-95.5 277.5,-76.5 224.5,-76.5"/>
<text text-anchor="middle" x="251" y="-83.5" font-family="Helvetica,sans-Serif" font-size="10.00">MatCpyf</text>
</a>
</g>
<!-- Node2&#45;&gt;Node3 -->
<g id="edge4" class="edge"><title>Node2&#45;&gt;Node3</title>
<path fill="none" stroke="midnightblue" d="M177.728,-86C188.755,-86 201.96,-86 214.048,-86"/>
<polygon fill="midnightblue" stroke="midnightblue" points="214.301,-89.5001 224.301,-86 214.301,-82.5001 214.301,-89.5001"/>
</g>
</g>
</svg>
