<?xml version="1.0" encoding="UTF-8" standalone="no"?>
<!DOCTYPE svg PUBLIC "-//W3C//DTD SVG 1.1//EN"
 "http://www.w3.org/Graphics/SVG/1.1/DTD/svg11.dtd">
<!-- Generated by graphviz version 2.28.0 (20110507.0327)
 -->
<!-- Title: G Pages: 1 -->
<svg width="437pt" height="84pt"
 viewBox="0.00 0.00 437.00 84.00" xmlns="http://www.w3.org/2000/svg" xmlns:xlink="http://www.w3.org/1999/xlink">
<g id="graph1" class="graph" transform="scale(1 1) rotate(0) translate(4 80)">
<title>G</title>
<polygon fill="white" stroke="white" points="-4,5 -4,-80 434,-80 434,5 -4,5"/>
<!-- Node1 -->
<g id="node1" class="node"><title>Node1</title>
<polygon fill="#bfbfbf" stroke="black" points="164.5,-56.5 164.5,-75.5 265.5,-75.5 265.5,-56.5 164.5,-56.5"/>
<text text-anchor="middle" x="215" y="-63.5" font-family="Helvetica,sans-Serif" font-size="10.00">DrawForceMarker.h</text>
</g>
<!-- Node2 -->
<g id="node3" class="node"><title>Node2</title>
<a xlink:href="_draw_force_marker_8c.html" target="_top" xlink:title="DrawForceMarker.c">
<polygon fill="white" stroke="black" points="-0.5,-0.5 -0.5,-19.5 100.5,-19.5 100.5,-0.5 -0.5,-0.5"/>
<text text-anchor="middle" x="50" y="-7.5" font-family="Helvetica,sans-Serif" font-size="10.00">DrawForceMarker.c</text>
</a>
</g>
<!-- Node1&#45;&gt;Node2 -->
<g id="edge2" class="edge"><title>Node1&#45;&gt;Node2</title>
<path fill="none" stroke="midnightblue" d="M179.264,-53.3044C148.173,-43.1294 103.853,-28.6246 76.0224,-19.5164"/>
<polygon fill="midnightblue" stroke="midnightblue" points="178.263,-56.6595 188.855,-56.4435 180.44,-50.0067 178.263,-56.6595"/>
</g>
<!-- Node3 -->
<g id="node5" class="node"><title>Node3</title>
<a xlink:href="_draw_indicators_8c.html" target="_top" xlink:title="DrawIndicators.c">
<polygon fill="white" stroke="black" points="118.5,-0.5 118.5,-19.5 207.5,-19.5 207.5,-0.5 118.5,-0.5"/>
<text text-anchor="middle" x="163" y="-7.5" font-family="Helvetica,sans-Serif" font-size="10.00">DrawIndicators.c</text>
</a>
</g>
<!-- Node1&#45;&gt;Node3 -->
<g id="edge4" class="edge"><title>Node1&#45;&gt;Node3</title>
<path fill="none" stroke="midnightblue" d="M199.321,-48.7175C190.155,-39.1997 178.947,-27.5608 171.427,-19.7511"/>
<polygon fill="midnightblue" stroke="midnightblue" points="196.956,-51.3075 206.413,-56.083 201.998,-46.452 196.956,-51.3075"/>
</g>
<!-- Node4 -->
<g id="node7" class="node"><title>Node4</title>
<a xlink:href="_draw_polygon_8c.html" target="_top" xlink:title="DrawPolygon.c">
<polygon fill="white" stroke="black" points="226,-0.5 226,-19.5 308,-19.5 308,-0.5 226,-0.5"/>
<text text-anchor="middle" x="267" y="-7.5" font-family="Helvetica,sans-Serif" font-size="10.00">DrawPolygon.c</text>
</a>
</g>
<!-- Node1&#45;&gt;Node4 -->
<g id="edge6" class="edge"><title>Node1&#45;&gt;Node4</title>
<path fill="none" stroke="midnightblue" d="M230.679,-48.7175C239.845,-39.1997 251.053,-27.5608 258.573,-19.7511"/>
<polygon fill="midnightblue" stroke="midnightblue" points="228.002,-46.452 223.587,-56.083 233.044,-51.3075 228.002,-46.452"/>
</g>
<!-- Node5 -->
<g id="node9" class="node"><title>Node5</title>
<a xlink:href="_forward_dynamics_8c.html" target="_top" xlink:title="ForwardDynamics.c">
<polygon fill="white" stroke="black" points="326.5,-0.5 326.5,-19.5 429.5,-19.5 429.5,-0.5 326.5,-0.5"/>
<text text-anchor="middle" x="378" y="-7.5" font-family="Helvetica,sans-Serif" font-size="10.00">ForwardDynamics.c</text>
</a>
</g>
<!-- Node1&#45;&gt;Node5 -->
<g id="edge8" class="edge"><title>Node1&#45;&gt;Node5</title>
<path fill="none" stroke="midnightblue" d="M250.703,-53.172C281.396,-43.0039 324.919,-28.5852 352.293,-19.5164"/>
<polygon fill="midnightblue" stroke="midnightblue" points="249.22,-49.9762 240.828,-56.4435 251.421,-56.6211 249.22,-49.9762"/>
</g>
</g>
</svg>
