<?xml version="1.0" encoding="UTF-8" standalone="no"?>
<!DOCTYPE svg PUBLIC "-//W3C//DTD SVG 1.1//EN"
 "http://www.w3.org/Graphics/SVG/1.1/DTD/svg11.dtd">
<!-- Generated by graphviz version 2.28.0 (20110507.0327)
 -->
<!-- Title: G Pages: 1 -->
<!--zoomable-->
<svg id="main" version="1.1" xmlns="http://www.w3.org/2000/svg" xmlns:xlink="http://www.w3.org/1999/xlink" xml:space="preserve" onload="init(evt)">
        <defs>
                <circle id="rim" cx="0" cy="0" r="7"/>
                <circle id="rim2" cx="0" cy="0" r="3.5"/>
                <g id="zoomPlus">
                        <use xlink:href="#rim" fill="#404040">
                                <set attributeName="fill" to="#808080" begin="zoomplus.mouseover" end="zoomplus.mouseout"/>
                        </use>
                        <path d="M-4,0h8M0,-4v8" fill="none" stroke="white" stroke-width="1.5" pointer-events="none"/>
                </g>
                <g id="zoomMin">
                        <use xlink:href="#rim" fill="#404040">
                                <set attributeName="fill" to="#808080" begin="zoomminus.mouseover" end="zoomminus.mouseout"/>
                        </use>
                        <path d="M-4,0h8" fill="none" stroke="white" stroke-width="1.5" pointer-events="none"/>
                </g>
                <g id="dirArrow">
                        <path fill="none" stroke="white" stroke-width="1.5" d="M0,-3.0v7 M-2.5,-0.5L0,-3.0L2.5,-0.5"/>
                </g>
               <g id="resetDef">
                       <use xlink:href="#rim2" fill="#404040">
                               <set attributeName="fill" to="#808080" begin="reset.mouseover" end="reset.mouseout"/>
                       </use>
               </g>
        </defs>

<script type="text/javascript">
var viewWidth = 938;
var viewHeight = 140;
var sectionId = 'dynsection-0';
</script>
<script xlink:href="svgpan.js"/>
<svg id="graph" class="graph">
<g id="viewport">
<title>G</title>
<polygon fill="white" stroke="white" points="-4,5 -4,-136 934.918,-136 934.918,5 -4,5"/>
<!-- Node1 -->
<g id="node1" class="node"><title>Node1</title>
<polygon fill="#bfbfbf" stroke="black" points="413.418,-112.5 413.418,-131.5 496.418,-131.5 496.418,-112.5 413.418,-112.5"/>
<text text-anchor="middle" x="454.918" y="-119.5" font-family="Helvetica,sans-Serif" font-size="10.00">DrawAllJoints.c</text>
</g>
<!-- Node2 -->
<g id="node3" class="node"><title>Node2</title>
<polygon fill="white" stroke="#bfbfbf" points="134.918,-0.5 134.918,-19.5 218.918,-19.5 218.918,-0.5 134.918,-0.5"/>
<text text-anchor="middle" x="176.918" y="-7.5" font-family="Helvetica,sans-Serif" font-size="10.00">gsl/gsl_vector.h</text>
</g>
<!-- Node1&#45;&gt;Node2 -->
<g id="edge2" class="edge"><title>Node1&#45;&gt;Node2</title>
<path fill="none" stroke="midnightblue" d="M413.215,-119.911C307.552,-116.725 35.7655,-105.693 8.91798,-76 -27.5405,-35.6778 62.9656,-20.1455 124.828,-14.3286"/>
<polygon fill="midnightblue" stroke="midnightblue" points="125.212,-17.8084 134.866,-13.4449 124.598,-10.8354 125.212,-17.8084"/>
</g>
<!-- Node3 -->
<g id="node5" class="node"><title>Node3</title>
<polygon fill="white" stroke="#bfbfbf" points="272.918,-0.5 272.918,-19.5 358.918,-19.5 358.918,-0.5 272.918,-0.5"/>
<text text-anchor="middle" x="315.918" y="-7.5" font-family="Helvetica,sans-Serif" font-size="10.00">gsl/gsl_matrix.h</text>
</g>
<!-- Node1&#45;&gt;Node3 -->
<g id="edge4" class="edge"><title>Node1&#45;&gt;Node3</title>
<path fill="none" stroke="midnightblue" d="M461.123,-112.074C469.645,-98.6035 482.561,-72.8655 469.918,-56 457.623,-39.5978 408.558,-27.1809 369.07,-19.5887"/>
<polygon fill="midnightblue" stroke="midnightblue" points="369.477,-16.1045 359.006,-17.7162 368.197,-22.9864 369.477,-16.1045"/>
</g>
<!-- Node4 -->
<g id="node7" class="node"><title>Node4</title>
<polygon fill="white" stroke="#bfbfbf" points="518.418,-56.5 518.418,-75.5 595.418,-75.5 595.418,-56.5 518.418,-56.5"/>
<text text-anchor="middle" x="556.918" y="-63.5" font-family="Helvetica,sans-Serif" font-size="10.00">gsl/gsl_blas.h</text>
</g>
<!-- Node1&#45;&gt;Node4 -->
<g id="edge6" class="edge"><title>Node1&#45;&gt;Node4</title>
<path fill="none" stroke="midnightblue" d="M471.306,-112.324C487.589,-103.703 512.785,-90.3643 531.634,-80.3855"/>
<polygon fill="midnightblue" stroke="midnightblue" points="533.37,-83.4267 540.571,-75.6545 530.095,-77.2402 533.37,-83.4267"/>
</g>
<!-- Node5 -->
<g id="node9" class="node"><title>Node5</title>
<polygon fill="white" stroke="#bfbfbf" points="613.418,-56.5 613.418,-75.5 694.418,-75.5 694.418,-56.5 613.418,-56.5"/>
<text text-anchor="middle" x="653.918" y="-63.5" font-family="Helvetica,sans-Serif" font-size="10.00">gsl/gsl_linalg.h</text>
</g>
<!-- Node1&#45;&gt;Node5 -->
<g id="edge8" class="edge"><title>Node1&#45;&gt;Node5</title>
<path fill="none" stroke="midnightblue" d="M486.45,-112.444C520.51,-103.201 574.924,-88.4356 612.433,-78.2572"/>
<polygon fill="midnightblue" stroke="midnightblue" points="613.799,-81.5132 622.533,-75.5164 611.966,-74.7575 613.799,-81.5132"/>
</g>
<!-- Node6 -->
<g id="node11" class="node"><title>Node6</title>
<polygon fill="white" stroke="#bfbfbf" points="712.918,-56.5 712.918,-75.5 792.918,-75.5 792.918,-56.5 712.918,-56.5"/>
<text text-anchor="middle" x="752.918" y="-63.5" font-family="Helvetica,sans-Serif" font-size="10.00">gsl/gsl_math.h</text>
</g>
<!-- Node1&#45;&gt;Node6 -->
<g id="edge10" class="edge"><title>Node1&#45;&gt;Node6</title>
<path fill="none" stroke="midnightblue" d="M496.667,-113.435C550.765,-103.632 644.988,-86.5578 702.864,-76.0702"/>
<polygon fill="midnightblue" stroke="midnightblue" points="703.664,-79.4823 712.879,-74.2553 702.416,-72.5945 703.664,-79.4823"/>
</g>
<!-- Node7 -->
<g id="node13" class="node"><title>Node7</title>
<a xlink:href="u_link_8h.html" target="_top" xlink:title="Link initialisation and declarations.">
<polygon fill="white" stroke="black" points="309.418,-56.5 309.418,-75.5 360.418,-75.5 360.418,-56.5 309.418,-56.5"/>
<text text-anchor="middle" x="334.918" y="-63.5" font-family="Helvetica,sans-Serif" font-size="10.00">uLINK.h</text>
</a>
</g>
<!-- Node1&#45;&gt;Node7 -->
<g id="edge12" class="edge"><title>Node1&#45;&gt;Node7</title>
<path fill="none" stroke="midnightblue" d="M435.904,-112.444C416.33,-103.636 385.61,-89.8116 363.189,-79.722"/>
<polygon fill="midnightblue" stroke="midnightblue" points="364.399,-76.4284 353.843,-75.5164 361.526,-82.8119 364.399,-76.4284"/>
</g>
<!-- Node8 -->
<g id="node17" class="node"><title>Node8</title>
<a xlink:href="_draw_all_joints_8h.html" target="_top" xlink:title="DrawAllJoints.h">
<polygon fill="white" stroke="black" points="378.418,-56.5 378.418,-75.5 461.418,-75.5 461.418,-56.5 378.418,-56.5"/>
<text text-anchor="middle" x="419.918" y="-63.5" font-family="Helvetica,sans-Serif" font-size="10.00">DrawAllJoints.h</text>
</a>
</g>
<!-- Node1&#45;&gt;Node8 -->
<g id="edge18" class="edge"><title>Node1&#45;&gt;Node8</title>
<path fill="none" stroke="midnightblue" d="M449.138,-112.083C444.246,-104.534 437.091,-93.4948 431.085,-84.2298"/>
<polygon fill="midnightblue" stroke="midnightblue" points="433.966,-82.239 425.59,-75.7511 428.092,-86.0463 433.966,-82.239"/>
</g>
<!-- Node9 -->
<g id="node21" class="node"><title>Node9</title>
<polygon fill="white" stroke="#bfbfbf" points="810.918,-56.5 810.918,-75.5 858.918,-75.5 858.918,-56.5 810.918,-56.5"/>
<text text-anchor="middle" x="834.918" y="-63.5" font-family="Helvetica,sans-Serif" font-size="10.00">GL/gl.h</text>
</g>
<!-- Node1&#45;&gt;Node9 -->
<g id="edge24" class="edge"><title>Node1&#45;&gt;Node9</title>
<path fill="none" stroke="midnightblue" d="M496.615,-117.458C560.223,-111.649 685.415,-98.6203 800.797,-75.9763"/>
<polygon fill="midnightblue" stroke="midnightblue" points="801.735,-79.3582 810.858,-73.9718 800.367,-72.4931 801.735,-79.3582"/>
</g>
<!-- Node10 -->
<g id="node23" class="node"><title>Node10</title>
<polygon fill="white" stroke="#bfbfbf" points="877.418,-56.5 877.418,-75.5 930.418,-75.5 930.418,-56.5 877.418,-56.5"/>
<text text-anchor="middle" x="903.918" y="-63.5" font-family="Helvetica,sans-Serif" font-size="10.00">GL/glu.h</text>
</g>
<!-- Node1&#45;&gt;Node10 -->
<g id="edge26" class="edge"><title>Node1&#45;&gt;Node10</title>
<path fill="none" stroke="midnightblue" d="M496.512,-118.354C569.534,-113.299 725.65,-100.675 867.111,-75.8976"/>
<polygon fill="midnightblue" stroke="midnightblue" points="868.036,-79.2881 877.269,-74.0926 866.811,-72.3961 868.036,-79.2881"/>
</g>
<!-- Node11 -->
<g id="node25" class="node"><title>Node11</title>
<a xlink:href="_draw_polygon_8h.html" target="_top" xlink:title="DrawPolygon.h">
<polygon fill="white" stroke="black" points="17.918,-56.5 17.918,-75.5 99.918,-75.5 99.918,-56.5 17.918,-56.5"/>
<text text-anchor="middle" x="58.918" y="-63.5" font-family="Helvetica,sans-Serif" font-size="10.00">DrawPolygon.h</text>
</a>
</g>
<!-- Node1&#45;&gt;Node11 -->
<g id="edge28" class="edge"><title>Node1&#45;&gt;Node11</title>
<path fill="none" stroke="midnightblue" d="M413.282,-116.25C350.043,-108.889 225.76,-93.8553 110.175,-76.1319"/>
<polygon fill="midnightblue" stroke="midnightblue" points="110.509,-72.6421 100.092,-74.5754 109.441,-79.5602 110.509,-72.6421"/>
</g>
<!-- Node12 -->
<g id="node29" class="node"><title>Node12</title>
<a xlink:href="_draw_cylinder_8h.html" target="_top" xlink:title="DrawCylinder.h">
<polygon fill="white" stroke="black" points="117.918,-56.5 117.918,-75.5 199.918,-75.5 199.918,-56.5 117.918,-56.5"/>
<text text-anchor="middle" x="158.918" y="-63.5" font-family="Helvetica,sans-Serif" font-size="10.00">DrawCylinder.h</text>
</a>
</g>
<!-- Node1&#45;&gt;Node12 -->
<g id="edge34" class="edge"><title>Node1&#45;&gt;Node12</title>
<path fill="none" stroke="midnightblue" d="M413.136,-113.378C359.768,-103.641 267.452,-86.8002 209.972,-76.3139"/>
<polygon fill="midnightblue" stroke="midnightblue" points="210.477,-72.8483 200.011,-74.4967 209.221,-79.7347 210.477,-72.8483"/>
</g>
<!-- Node13 -->
<g id="node33" class="node"><title>Node13</title>
<a xlink:href="_connect3_d_8h.html" target="_top" xlink:title="Connect3D.h">
<polygon fill="white" stroke="black" points="218.418,-56.5 218.418,-75.5 291.418,-75.5 291.418,-56.5 218.418,-56.5"/>
<text text-anchor="middle" x="254.918" y="-63.5" font-family="Helvetica,sans-Serif" font-size="10.00">Connect3D.h</text>
</a>
</g>
<!-- Node1&#45;&gt;Node13 -->
<g id="edge40" class="edge"><title>Node1&#45;&gt;Node13</title>
<path fill="none" stroke="midnightblue" d="M423.227,-112.444C388.85,-103.162 333.841,-88.3093 296.129,-78.127"/>
<polygon fill="midnightblue" stroke="midnightblue" points="297.027,-74.7442 286.46,-75.5164 295.202,-81.5022 297.027,-74.7442"/>
</g>
<!-- Node7&#45;&gt;Node2 -->
<g id="edge14" class="edge"><title>Node7&#45;&gt;Node2</title>
<path fill="none" stroke="midnightblue" d="M309.882,-56.4435C283.302,-47.3591 241.109,-32.9388 211.395,-22.7831"/>
<polygon fill="midnightblue" stroke="midnightblue" points="212.431,-19.4386 201.836,-19.5164 210.167,-26.0625 212.431,-19.4386"/>
</g>
<!-- Node7&#45;&gt;Node3 -->
<g id="edge16" class="edge"><title>Node7&#45;&gt;Node3</title>
<path fill="none" stroke="midnightblue" d="M331.781,-56.083C329.235,-48.8486 325.562,-38.4087 322.391,-29.3968"/>
<polygon fill="midnightblue" stroke="midnightblue" points="325.618,-28.0225 318.997,-19.7511 319.015,-30.3459 325.618,-28.0225"/>
</g>
<!-- Node8&#45;&gt;Node2 -->
<g id="edge20" class="edge"><title>Node8&#45;&gt;Node2</title>
<path fill="none" stroke="midnightblue" d="M381.414,-56.4435C339.112,-47.0431 271.099,-31.9291 225.245,-21.7393"/>
<polygon fill="midnightblue" stroke="midnightblue" points="225.763,-18.2692 215.242,-19.5164 224.245,-25.1025 225.763,-18.2692"/>
</g>
<!-- Node8&#45;&gt;Node3 -->
<g id="edge22" class="edge"><title>Node8&#45;&gt;Node3</title>
<path fill="none" stroke="midnightblue" d="M403.209,-56.324C386.606,-47.7034 360.916,-34.3643 341.697,-24.3855"/>
<polygon fill="midnightblue" stroke="midnightblue" points="343.074,-21.1565 332.586,-19.6545 339.848,-27.3689 343.074,-21.1565"/>
</g>
<!-- Node11&#45;&gt;Node2 -->
<g id="edge30" class="edge"><title>Node11&#45;&gt;Node2</title>
<path fill="none" stroke="midnightblue" d="M77.6154,-56.4435C96.8624,-47.6356 127.07,-33.8116 149.118,-23.722"/>
<polygon fill="midnightblue" stroke="midnightblue" points="150.671,-26.8603 158.308,-19.5164 147.758,-20.4951 150.671,-26.8603"/>
</g>
<!-- Node11&#45;&gt;Node3 -->
<g id="edge32" class="edge"><title>Node11&#45;&gt;Node3</title>
<path fill="none" stroke="midnightblue" d="M99.6404,-56.4435C144.567,-47.0036 216.916,-31.802 265.417,-21.6111"/>
<polygon fill="midnightblue" stroke="midnightblue" points="266.32,-24.998 275.386,-19.5164 264.88,-18.1476 266.32,-24.998"/>
</g>
<!-- Node12&#45;&gt;Node2 -->
<g id="edge36" class="edge"><title>Node12&#45;&gt;Node2</title>
<path fill="none" stroke="midnightblue" d="M161.89,-56.083C164.302,-48.8486 167.782,-38.4087 170.786,-29.3968"/>
<polygon fill="midnightblue" stroke="midnightblue" points="174.159,-30.3447 174.001,-19.7511 167.518,-28.1311 174.159,-30.3447"/>
</g>
<!-- Node12&#45;&gt;Node3 -->
<g id="edge38" class="edge"><title>Node12&#45;&gt;Node3</title>
<path fill="none" stroke="midnightblue" d="M183.795,-56.4435C210.207,-47.3591 252.133,-32.9388 281.66,-22.7831"/>
<polygon fill="midnightblue" stroke="midnightblue" points="282.839,-26.0787 291.157,-19.5164 280.563,-19.4593 282.839,-26.0787"/>
</g>
<!-- Node13&#45;&gt;Node2 -->
<g id="edge42" class="edge"><title>Node13&#45;&gt;Node2</title>
<path fill="none" stroke="midnightblue" d="M242.386,-56.324C230.332,-47.979 211.891,-35.2122 197.649,-25.3524"/>
<polygon fill="midnightblue" stroke="midnightblue" points="199.633,-22.469 189.419,-19.6545 195.649,-28.2243 199.633,-22.469"/>
</g>
<!-- Node13&#45;&gt;Node3 -->
<g id="edge44" class="edge"><title>Node13&#45;&gt;Node3</title>
<path fill="none" stroke="midnightblue" d="M264.719,-56.324C273.736,-48.3414 287.324,-36.3128 298.236,-26.6529"/>
<polygon fill="midnightblue" stroke="midnightblue" points="300.771,-29.083 305.939,-19.8339 296.131,-23.8416 300.771,-29.083"/>
</g>
</g>
</svg>
        <g id="navigator" transform="translate(0 0)" fill="#404254">
                <rect fill="#f2f5e9" fill-opacity="0.5" stroke="#606060" stroke-width=".5" x="0" y="0" width="60" height="60"/>
                <use id="zoomplus" xlink:href="#zoomPlus" x="17" y="9" onmousedown="handleZoom(evt,'in')"/>
                <use id="zoomminus" xlink:href="#zoomMin" x="42" y="9" onmousedown="handleZoom(evt,'out')"/>
                <use id="reset" xlink:href="#resetDef" x="30" y="36" onmousedown="handleReset()"/>
                <g id="arrowUp" xlink:href="#dirArrow" transform="translate(30 24)" onmousedown="handlePan(0,-1)">
                  <use xlink:href="#rim" fill="#404040">
                        <set attributeName="fill" to="#808080" begin="arrowUp.mouseover" end="arrowUp.mouseout"/>
                  </use>
                  <path fill="none" stroke="white" stroke-width="1.5" d="M0,-3.0v7 M-2.5,-0.5L0,-3.0L2.5,-0.5"/>
                </g>
                <g id="arrowRight" xlink:href="#dirArrow" transform="rotate(90) translate(36 -43)" onmousedown="handlePan(1,0)">
                  <use xlink:href="#rim" fill="#404040">
                        <set attributeName="fill" to="#808080" begin="arrowRight.mouseover" end="arrowRight.mouseout"/>
                  </use>
                  <path fill="none" stroke="white" stroke-width="1.5" d="M0,-3.0v7 M-2.5,-0.5L0,-3.0L2.5,-0.5"/>
                </g>
                <g id="arrowDown" xlink:href="#dirArrow" transform="rotate(180) translate(-30 -48)" onmousedown="handlePan(0,1)">
                  <use xlink:href="#rim" fill="#404040">
                        <set attributeName="fill" to="#808080" begin="arrowDown.mouseover" end="arrowDown.mouseout"/>
                  </use>
                  <path fill="none" stroke="white" stroke-width="1.5" d="M0,-3.0v7 M-2.5,-0.5L0,-3.0L2.5,-0.5"/>
                </g>
                <g id="arrowLeft" xlink:href="#dirArrow" transform="rotate(270) translate(-36 17)" onmousedown="handlePan(-1,0)">
                  <use xlink:href="#rim" fill="#404040">
                        <set attributeName="fill" to="#808080" begin="arrowLeft.mouseover" end="arrowLeft.mouseout"/>
                  </use>
                  <path fill="none" stroke="white" stroke-width="1.5" d="M0,-3.0v7 M-2.5,-0.5L0,-3.0L2.5,-0.5"/>
                </g>
        </g>
</svg>
