<?xml version="1.0" encoding="UTF-8" standalone="no"?>
<!DOCTYPE svg PUBLIC "-//W3C//DTD SVG 1.1//EN"
 "http://www.w3.org/Graphics/SVG/1.1/DTD/svg11.dtd">
<!-- Generated by graphviz version 2.28.0 (20110507.0327)
 -->
<!-- Title: G Pages: 1 -->
<!--zoomable-->
<svg id="main" version="1.1" xmlns="http://www.w3.org/2000/svg" xmlns:xlink="http://www.w3.org/1999/xlink" xml:space="preserve" onload="init(evt)">
        <defs>
                <circle id="rim" cx="0" cy="0" r="7"/>
                <circle id="rim2" cx="0" cy="0" r="3.5"/>
                <g id="zoomPlus">
                        <use xlink:href="#rim" fill="#404040">
                                <set attributeName="fill" to="#808080" begin="zoomplus.mouseover" end="zoomplus.mouseout"/>
                        </use>
                        <path d="M-4,0h8M0,-4v8" fill="none" stroke="white" stroke-width="1.5" pointer-events="none"/>
                </g>
                <g id="zoomMin">
                        <use xlink:href="#rim" fill="#404040">
                                <set attributeName="fill" to="#808080" begin="zoomminus.mouseover" end="zoomminus.mouseout"/>
                        </use>
                        <path d="M-4,0h8" fill="none" stroke="white" stroke-width="1.5" pointer-events="none"/>
                </g>
                <g id="dirArrow">
                        <path fill="none" stroke="white" stroke-width="1.5" d="M0,-3.0v7 M-2.5,-0.5L0,-3.0L2.5,-0.5"/>
                </g>
               <g id="resetDef">
                       <use xlink:href="#rim2" fill="#404040">
                               <set attributeName="fill" to="#808080" begin="reset.mouseover" end="reset.mouseout"/>
                       </use>
               </g>
        </defs>

<script type="text/javascript">
var viewWidth = 642;
var viewHeight = 140;
var sectionId = 'dynsection-0';
</script>
<script xlink:href="svgpan.js"/>
<svg id="graph" class="graph">
<g id="viewport">
<title>G</title>
<polygon fill="white" stroke="white" points="-4,5 -4,-136 638.687,-136 638.687,5 -4,5"/>
<!-- Node1 -->
<g id="node1" class="node"><title>Node1</title>
<polygon fill="#bfbfbf" stroke="black" points="219.687,-112.5 219.687,-131.5 301.687,-131.5 301.687,-112.5 219.687,-112.5"/>
<text text-anchor="middle" x="260.687" y="-119.5" font-family="Helvetica,sans-Serif" font-size="10.00">DrawCylinder.c</text>
</g>
<!-- Node2 -->
<g id="node3" class="node"><title>Node2</title>
<polygon fill="white" stroke="#bfbfbf" points="3.68734,-0.5 3.68734,-19.5 87.6873,-19.5 87.6873,-0.5 3.68734,-0.5"/>
<text text-anchor="middle" x="45.6873" y="-7.5" font-family="Helvetica,sans-Serif" font-size="10.00">gsl/gsl_vector.h</text>
</g>
<!-- Node1&#45;&gt;Node2 -->
<g id="edge2" class="edge"><title>Node1&#45;&gt;Node2</title>
<path fill="none" stroke="midnightblue" d="M219.522,-119.945C154.255,-117.308 31.6355,-108.098 4.68734,-76 -8.53547,-60.2501 9.02671,-39.903 25.097,-26.2039"/>
<polygon fill="midnightblue" stroke="midnightblue" points="27.5856,-28.6945 33.1939,-19.7057 23.2042,-23.2352 27.5856,-28.6945"/>
</g>
<!-- Node3 -->
<g id="node5" class="node"><title>Node3</title>
<polygon fill="white" stroke="#bfbfbf" points="105.687,-0.5 105.687,-19.5 191.687,-19.5 191.687,-0.5 105.687,-0.5"/>
<text text-anchor="middle" x="148.687" y="-7.5" font-family="Helvetica,sans-Serif" font-size="10.00">gsl/gsl_matrix.h</text>
</g>
<!-- Node1&#45;&gt;Node3 -->
<g id="edge4" class="edge"><title>Node1&#45;&gt;Node3</title>
<path fill="none" stroke="midnightblue" d="M251.621,-112.431C242.115,-103.42 226.768,-88.7992 213.687,-76 196.873,-59.5474 177.871,-40.4909 164.776,-27.2841"/>
<polygon fill="midnightblue" stroke="midnightblue" points="166.981,-24.5364 157.458,-19.8925 162.007,-29.4613 166.981,-24.5364"/>
</g>
<!-- Node4 -->
<g id="node7" class="node"><title>Node4</title>
<polygon fill="white" stroke="#bfbfbf" points="222.187,-56.5 222.187,-75.5 299.187,-75.5 299.187,-56.5 222.187,-56.5"/>
<text text-anchor="middle" x="260.687" y="-63.5" font-family="Helvetica,sans-Serif" font-size="10.00">gsl/gsl_blas.h</text>
</g>
<!-- Node1&#45;&gt;Node4 -->
<g id="edge6" class="edge"><title>Node1&#45;&gt;Node4</title>
<path fill="none" stroke="midnightblue" d="M260.687,-112.083C260.687,-105.006 260.687,-94.8611 260.687,-85.9865"/>
<polygon fill="midnightblue" stroke="midnightblue" points="264.187,-85.751 260.687,-75.7511 257.187,-85.7511 264.187,-85.751"/>
</g>
<!-- Node5 -->
<g id="node9" class="node"><title>Node5</title>
<polygon fill="white" stroke="#bfbfbf" points="317.187,-56.5 317.187,-75.5 398.187,-75.5 398.187,-56.5 317.187,-56.5"/>
<text text-anchor="middle" x="357.687" y="-63.5" font-family="Helvetica,sans-Serif" font-size="10.00">gsl/gsl_linalg.h</text>
</g>
<!-- Node1&#45;&gt;Node5 -->
<g id="edge8" class="edge"><title>Node1&#45;&gt;Node5</title>
<path fill="none" stroke="midnightblue" d="M276.272,-112.324C291.686,-103.743 315.5,-90.486 333.397,-80.5224"/>
<polygon fill="midnightblue" stroke="midnightblue" points="335.106,-83.5767 342.141,-75.6545 331.702,-77.4606 335.106,-83.5767"/>
</g>
<!-- Node6 -->
<g id="node11" class="node"><title>Node6</title>
<polygon fill="white" stroke="#bfbfbf" points="416.687,-56.5 416.687,-75.5 496.687,-75.5 496.687,-56.5 416.687,-56.5"/>
<text text-anchor="middle" x="456.687" y="-63.5" font-family="Helvetica,sans-Serif" font-size="10.00">gsl/gsl_math.h</text>
</g>
<!-- Node1&#45;&gt;Node6 -->
<g id="edge10" class="edge"><title>Node1&#45;&gt;Node6</title>
<path fill="none" stroke="midnightblue" d="M291.744,-112.444C325.291,-103.201 378.884,-88.4356 415.828,-78.2572"/>
<polygon fill="midnightblue" stroke="midnightblue" points="417.065,-81.5469 425.776,-75.5164 415.205,-74.7984 417.065,-81.5469"/>
</g>
<!-- Node7 -->
<g id="node13" class="node"><title>Node7</title>
<a xlink:href="u_link_8h.html" target="_top" xlink:title="Link initialisation and declarations.">
<polygon fill="white" stroke="black" points="114.187,-56.5 114.187,-75.5 165.187,-75.5 165.187,-56.5 114.187,-56.5"/>
<text text-anchor="middle" x="139.687" y="-63.5" font-family="Helvetica,sans-Serif" font-size="10.00">uLINK.h</text>
</a>
</g>
<!-- Node1&#45;&gt;Node7 -->
<g id="edge12" class="edge"><title>Node1&#45;&gt;Node7</title>
<path fill="none" stroke="midnightblue" d="M241.515,-112.444C221.778,-103.636 190.802,-89.8116 168.194,-79.722"/>
<polygon fill="midnightblue" stroke="midnightblue" points="169.329,-76.3957 158.77,-75.5164 166.476,-82.788 169.329,-76.3957"/>
</g>
<!-- Node8 -->
<g id="node17" class="node"><title>Node8</title>
<a xlink:href="_draw_cylinder_8h.html" target="_top" xlink:title="DrawCylinder.h">
<polygon fill="white" stroke="black" points="13.6873,-56.5 13.6873,-75.5 95.6873,-75.5 95.6873,-56.5 13.6873,-56.5"/>
<text text-anchor="middle" x="54.6873" y="-63.5" font-family="Helvetica,sans-Serif" font-size="10.00">DrawCylinder.h</text>
</a>
</g>
<!-- Node1&#45;&gt;Node8 -->
<g id="edge18" class="edge"><title>Node1&#45;&gt;Node8</title>
<path fill="none" stroke="midnightblue" d="M228.046,-112.444C192.637,-103.162 135.978,-88.3093 97.1347,-78.127"/>
<polygon fill="midnightblue" stroke="midnightblue" points="97.7366,-74.6666 87.1759,-75.5164 95.9616,-81.4378 97.7366,-74.6666"/>
</g>
<!-- Node9 -->
<g id="node21" class="node"><title>Node9</title>
<polygon fill="white" stroke="#bfbfbf" points="514.687,-56.5 514.687,-75.5 562.687,-75.5 562.687,-56.5 514.687,-56.5"/>
<text text-anchor="middle" x="538.687" y="-63.5" font-family="Helvetica,sans-Serif" font-size="10.00">GL/gl.h</text>
</g>
<!-- Node1&#45;&gt;Node9 -->
<g id="edge24" class="edge"><title>Node1&#45;&gt;Node9</title>
<path fill="none" stroke="midnightblue" d="M302.087,-114.494C348.971,-106.884 427.833,-93.3515 504.741,-76.0621"/>
<polygon fill="midnightblue" stroke="midnightblue" points="505.62,-79.4517 514.596,-73.8232 504.069,-72.6257 505.62,-79.4517"/>
</g>
<!-- Node10 -->
<g id="node23" class="node"><title>Node10</title>
<polygon fill="white" stroke="#bfbfbf" points="581.187,-56.5 581.187,-75.5 634.187,-75.5 634.187,-56.5 581.187,-56.5"/>
<text text-anchor="middle" x="607.687" y="-63.5" font-family="Helvetica,sans-Serif" font-size="10.00">GL/glu.h</text>
</g>
<!-- Node1&#45;&gt;Node10 -->
<g id="edge26" class="edge"><title>Node1&#45;&gt;Node10</title>
<path fill="none" stroke="midnightblue" d="M301.914,-116.383C359.812,-109.605 468.662,-95.784 571.125,-75.9272"/>
<polygon fill="midnightblue" stroke="midnightblue" points="571.879,-79.346 581.019,-73.9867 570.532,-72.4768 571.879,-79.346"/>
</g>
<!-- Node7&#45;&gt;Node2 -->
<g id="edge14" class="edge"><title>Node7&#45;&gt;Node2</title>
<path fill="none" stroke="midnightblue" d="M124.585,-56.324C109.784,-47.8215 86.9931,-34.7288 69.7052,-24.7975"/>
<polygon fill="midnightblue" stroke="midnightblue" points="71.1671,-21.6009 60.7526,-19.6545 67.6802,-27.6707 71.1671,-21.6009"/>
</g>
<!-- Node7&#45;&gt;Node3 -->
<g id="edge16" class="edge"><title>Node7&#45;&gt;Node3</title>
<path fill="none" stroke="midnightblue" d="M141.174,-56.083C142.366,-48.9272 144.081,-38.6353 145.572,-29.6911"/>
<polygon fill="midnightblue" stroke="midnightblue" points="149.037,-30.1904 147.229,-19.7511 142.132,-29.0396 149.037,-30.1904"/>
</g>
<!-- Node8&#45;&gt;Node2 -->
<g id="edge20" class="edge"><title>Node8&#45;&gt;Node2</title>
<path fill="none" stroke="midnightblue" d="M53.2012,-56.083C52.0085,-48.9272 50.2932,-38.6353 48.8025,-29.6911"/>
<polygon fill="midnightblue" stroke="midnightblue" points="52.2423,-29.0396 47.1459,-19.7511 45.3375,-30.1904 52.2423,-29.0396"/>
</g>
<!-- Node8&#45;&gt;Node3 -->
<g id="edge22" class="edge"><title>Node8&#45;&gt;Node3</title>
<path fill="none" stroke="midnightblue" d="M69.7901,-56.324C84.5906,-47.8215 107.382,-34.7288 124.67,-24.7975"/>
<polygon fill="midnightblue" stroke="midnightblue" points="126.694,-27.6707 133.622,-19.6545 123.208,-21.6009 126.694,-27.6707"/>
</g>
</g>
</svg>
        <g id="navigator" transform="translate(0 0)" fill="#404254">
                <rect fill="#f2f5e9" fill-opacity="0.5" stroke="#606060" stroke-width=".5" x="0" y="0" width="60" height="60"/>
                <use id="zoomplus" xlink:href="#zoomPlus" x="17" y="9" onmousedown="handleZoom(evt,'in')"/>
                <use id="zoomminus" xlink:href="#zoomMin" x="42" y="9" onmousedown="handleZoom(evt,'out')"/>
                <use id="reset" xlink:href="#resetDef" x="30" y="36" onmousedown="handleReset()"/>
                <g id="arrowUp" xlink:href="#dirArrow" transform="translate(30 24)" onmousedown="handlePan(0,-1)">
                  <use xlink:href="#rim" fill="#404040">
                        <set attributeName="fill" to="#808080" begin="arrowUp.mouseover" end="arrowUp.mouseout"/>
                  </use>
                  <path fill="none" stroke="white" stroke-width="1.5" d="M0,-3.0v7 M-2.5,-0.5L0,-3.0L2.5,-0.5"/>
                </g>
                <g id="arrowRight" xlink:href="#dirArrow" transform="rotate(90) translate(36 -43)" onmousedown="handlePan(1,0)">
                  <use xlink:href="#rim" fill="#404040">
                        <set attributeName="fill" to="#808080" begin="arrowRight.mouseover" end="arrowRight.mouseout"/>
                  </use>
                  <path fill="none" stroke="white" stroke-width="1.5" d="M0,-3.0v7 M-2.5,-0.5L0,-3.0L2.5,-0.5"/>
                </g>
                <g id="arrowDown" xlink:href="#dirArrow" transform="rotate(180) translate(-30 -48)" onmousedown="handlePan(0,1)">
                  <use xlink:href="#rim" fill="#404040">
                        <set attributeName="fill" to="#808080" begin="arrowDown.mouseover" end="arrowDown.mouseout"/>
                  </use>
                  <path fill="none" stroke="white" stroke-width="1.5" d="M0,-3.0v7 M-2.5,-0.5L0,-3.0L2.5,-0.5"/>
                </g>
                <g id="arrowLeft" xlink:href="#dirArrow" transform="rotate(270) translate(-36 17)" onmousedown="handlePan(-1,0)">
                  <use xlink:href="#rim" fill="#404040">
                        <set attributeName="fill" to="#808080" begin="arrowLeft.mouseover" end="arrowLeft.mouseout"/>
                  </use>
                  <path fill="none" stroke="white" stroke-width="1.5" d="M0,-3.0v7 M-2.5,-0.5L0,-3.0L2.5,-0.5"/>
                </g>
        </g>
</svg>
