<?xml version="1.0" encoding="UTF-8" standalone="no"?>
<!DOCTYPE svg PUBLIC "-//W3C//DTD SVG 1.1//EN"
 "http://www.w3.org/Graphics/SVG/1.1/DTD/svg11.dtd">
<!-- Generated by graphviz version 2.28.0 (20110507.0327)
 -->
<!-- Title: G Pages: 1 -->
<svg width="316pt" height="206pt"
 viewBox="0.00 0.00 316.00 206.00" xmlns="http://www.w3.org/2000/svg" xmlns:xlink="http://www.w3.org/1999/xlink">
<g id="graph1" class="graph" transform="scale(1 1) rotate(0) translate(4 202)">
<title>G</title>
<polygon fill="white" stroke="white" points="-4,5 -4,-202 313,-202 313,5 -4,5"/>
<!-- Node1 -->
<g id="node1" class="node"><title>Node1</title>
<polygon fill="#bfbfbf" stroke="black" points="0,-66.5 0,-85.5 80,-85.5 80,-66.5 0,-66.5"/>
<text text-anchor="middle" x="40" y="-73.5" font-family="Helvetica,sans-Serif" font-size="10.00">DrawIndicators</text>
</g>
<!-- Node2 -->
<g id="node3" class="node"><title>Node2</title>
<a xlink:href="_calc_co_m_8c.html#a02ae60f79cbcfde98d1451065cf394c7" target="_top" xlink:title="CalcCoM">
<polygon fill="white" stroke="black" points="135,-132.5 135,-151.5 191,-151.5 191,-132.5 135,-132.5"/>
<text text-anchor="middle" x="163" y="-139.5" font-family="Helvetica,sans-Serif" font-size="10.00">CalcCoM</text>
</a>
</g>
<!-- Node1&#45;&gt;Node2 -->
<g id="edge2" class="edge"><title>Node1&#45;&gt;Node2</title>
<path fill="none" stroke="midnightblue" d="M54.6871,-85.5597C69.4168,-95.6108 93.7344,-111.528 116,-123 119.612,-124.861 123.45,-126.68 127.308,-128.409"/>
<polygon fill="midnightblue" stroke="midnightblue" points="126.255,-131.765 136.825,-132.494 129.017,-125.333 126.255,-131.765"/>
</g>
<!-- Node5 -->
<g id="node11" class="node"><title>Node5</title>
<a xlink:href="_draw_marker_8c.html#ac137c22ca00d5fe0e3c05fc87e40a437" target="_top" xlink:title="DrawMarker">
<polygon fill="white" stroke="black" points="129,-94.5 129,-113.5 197,-113.5 197,-94.5 129,-94.5"/>
<text text-anchor="middle" x="163" y="-101.5" font-family="Helvetica,sans-Serif" font-size="10.00">DrawMarker</text>
</a>
</g>
<!-- Node1&#45;&gt;Node5 -->
<g id="edge12" class="edge"><title>Node1&#45;&gt;Node5</title>
<path fill="none" stroke="midnightblue" d="M80.2852,-85.0908C92.6999,-87.9636 106.479,-91.1522 119.131,-94.08"/>
<polygon fill="midnightblue" stroke="midnightblue" points="118.457,-97.5164 128.989,-96.361 120.035,-90.6966 118.457,-97.5164"/>
</g>
<!-- Node6 -->
<g id="node13" class="node"><title>Node6</title>
<a xlink:href="_calc_co_p_8c.html#a02921ece8800aa474b3825acaace1800" target="_top" xlink:title="CalcCoP">
<polygon fill="white" stroke="black" points="135.5,-38.5 135.5,-57.5 190.5,-57.5 190.5,-38.5 135.5,-38.5"/>
<text text-anchor="middle" x="163" y="-45.5" font-family="Helvetica,sans-Serif" font-size="10.00">CalcCoP</text>
</a>
</g>
<!-- Node1&#45;&gt;Node6 -->
<g id="edge14" class="edge"><title>Node1&#45;&gt;Node6</title>
<path fill="none" stroke="midnightblue" d="M80.2852,-66.9092C94.7226,-63.5683 111.006,-59.8004 125.215,-56.5122"/>
<polygon fill="midnightblue" stroke="midnightblue" points="126.186,-59.8802 135.139,-54.2157 124.607,-53.0604 126.186,-59.8802"/>
</g>
<!-- Node7 -->
<g id="node16" class="node"><title>Node7</title>
<a xlink:href="_draw_force_marker_8c.html#aa332e9f7e05fea015ad1e917308c62a1" target="_top" xlink:title="DrawForceMarker">
<polygon fill="white" stroke="black" points="116.5,-0.5 116.5,-19.5 209.5,-19.5 209.5,-0.5 116.5,-0.5"/>
<text text-anchor="middle" x="163" y="-7.5" font-family="Helvetica,sans-Serif" font-size="10.00">DrawForceMarker</text>
</a>
</g>
<!-- Node1&#45;&gt;Node7 -->
<g id="edge18" class="edge"><title>Node1&#45;&gt;Node7</title>
<path fill="none" stroke="midnightblue" d="M54.6871,-66.4403C69.4168,-56.3892 93.7344,-40.4717 116,-29 119.612,-27.1388 123.45,-25.3202 127.308,-23.5913"/>
<polygon fill="midnightblue" stroke="midnightblue" points="129.017,-26.6669 136.825,-19.5055 126.255,-20.2346 129.017,-26.6669"/>
</g>
<!-- Node3 -->
<g id="node5" class="node"><title>Node3</title>
<a xlink:href="_total_mass_8c.html#a8b97866743257c18887a3d7adde02637" target="_top" xlink:title="TotalMass">
<polygon fill="white" stroke="black" points="246,-160.5 246,-179.5 308,-179.5 308,-160.5 246,-160.5"/>
<text text-anchor="middle" x="277" y="-167.5" font-family="Helvetica,sans-Serif" font-size="10.00">TotalMass</text>
</a>
</g>
<!-- Node2&#45;&gt;Node3 -->
<g id="edge4" class="edge"><title>Node2&#45;&gt;Node3</title>
<path fill="none" stroke="midnightblue" d="M191.112,-148.778C204.578,-152.144 221.113,-156.278 236,-160"/>
<polygon fill="midnightblue" stroke="midnightblue" points="235.436,-163.467 245.986,-162.497 237.134,-156.676 235.436,-163.467"/>
</g>
<!-- Node4 -->
<g id="node8" class="node"><title>Node4</title>
<a xlink:href="_calc_m_c_8c.html#ae1ac5dd3e92965aa232a169e6639bb37" target="_top" xlink:title="CalcMC">
<polygon fill="white" stroke="black" points="251.5,-104.5 251.5,-123.5 302.5,-123.5 302.5,-104.5 251.5,-104.5"/>
<text text-anchor="middle" x="277" y="-111.5" font-family="Helvetica,sans-Serif" font-size="10.00">CalcMC</text>
</a>
</g>
<!-- Node2&#45;&gt;Node4 -->
<g id="edge8" class="edge"><title>Node2&#45;&gt;Node4</title>
<path fill="none" stroke="midnightblue" d="M191.112,-135.222C206.194,-131.451 225.127,-126.718 241.282,-122.679"/>
<polygon fill="midnightblue" stroke="midnightblue" points="242.577,-125.963 251.43,-120.143 240.879,-119.172 242.577,-125.963"/>
</g>
<!-- Node3&#45;&gt;Node3 -->
<g id="edge6" class="edge"><title>Node3&#45;&gt;Node3</title>
<path fill="none" stroke="midnightblue" d="M259.429,-179.757C250.881,-188.565 256.738,-198 277,-198 289.664,-198 296.7,-194.315 298.11,-189.4"/>
<polygon fill="midnightblue" stroke="midnightblue" points="301.302,-187.939 294.571,-179.757 294.731,-190.351 301.302,-187.939"/>
</g>
<!-- Node4&#45;&gt;Node4 -->
<g id="edge10" class="edge"><title>Node4&#45;&gt;Node4</title>
<path fill="none" stroke="midnightblue" d="M259.429,-123.757C250.881,-132.565 256.738,-142 277,-142 289.664,-142 296.7,-138.315 298.11,-133.4"/>
<polygon fill="midnightblue" stroke="midnightblue" points="301.302,-131.939 294.571,-123.757 294.731,-134.351 301.302,-131.939"/>
</g>
<!-- Node6&#45;&gt;Node6 -->
<g id="edge16" class="edge"><title>Node6&#45;&gt;Node6</title>
<path fill="none" stroke="midnightblue" d="M145.429,-57.7571C136.881,-66.5653 142.738,-76 163,-76 175.664,-76 182.7,-72.3146 184.11,-67.4"/>
<polygon fill="midnightblue" stroke="midnightblue" points="187.302,-65.9387 180.571,-57.7571 180.731,-68.3507 187.302,-65.9387"/>
</g>
</g>
</svg>
