<?xml version="1.0" encoding="UTF-8" standalone="no"?>
<!DOCTYPE svg PUBLIC "-//W3C//DTD SVG 1.1//EN"
 "http://www.w3.org/Graphics/SVG/1.1/DTD/svg11.dtd">
<!-- Generated by graphviz version 2.28.0 (20110507.0327)
 -->
<!-- Title: G Pages: 1 -->
<svg width="268pt" height="46pt"
 viewBox="0.00 0.00 268.00 46.00" xmlns="http://www.w3.org/2000/svg" xmlns:xlink="http://www.w3.org/1999/xlink">
<g id="graph1" class="graph" transform="scale(1 1) rotate(0) translate(4 42)">
<title>G</title>
<polygon fill="white" stroke="white" points="-4,5 -4,-42 265,-42 265,5 -4,5"/>
<!-- Node1 -->
<g id="node1" class="node"><title>Node1</title>
<polygon fill="#bfbfbf" stroke="black" points="0,-0.5 0,-19.5 74,-19.5 74,-0.5 0,-0.5"/>
<text text-anchor="middle" x="37" y="-7.5" font-family="Helvetica,sans-Serif" font-size="10.00">DrawPolygon</text>
</g>
<!-- Node2 -->
<g id="node3" class="node"><title>Node2</title>
<a xlink:href="_draw_all_joints_8h.html#ac2cdd09ad3d4b4006066ed8d55fb9c87" target="_top" xlink:title="DrawAllJoints">
<polygon fill="white" stroke="black" points="110.5,-0.5 110.5,-19.5 185.5,-19.5 185.5,-0.5 110.5,-0.5"/>
<text text-anchor="middle" x="148" y="-7.5" font-family="Helvetica,sans-Serif" font-size="10.00">DrawAllJoints</text>
</a>
</g>
<!-- Node1&#45;&gt;Node2 -->
<g id="edge2" class="edge"><title>Node1&#45;&gt;Node2</title>
<path fill="none" stroke="midnightblue" d="M84.3609,-10C93.0939,-10 102.112,-10 110.491,-10"/>
<polygon fill="midnightblue" stroke="midnightblue" points="84.2955,-6.5001 74.2954,-10 84.2954,-13.5001 84.2955,-6.5001"/>
</g>
<!-- Node2&#45;&gt;Node2 -->
<g id="edge4" class="edge"><title>Node2&#45;&gt;Node2</title>
<path fill="none" stroke="midnightblue" d="M130.964,-29.4C132.102,-34.3146 137.78,-38 148,-38 164.352,-38 169.078,-28.5653 162.18,-19.7571"/>
<polygon fill="midnightblue" stroke="midnightblue" points="134.336,-30.3393 133.82,-19.7571 127.624,-28.3512 134.336,-30.3393"/>
</g>
<!-- Node3 -->
<g id="node6" class="node"><title>Node3</title>
<a xlink:href="main_8c.html#a0ddf1224851353fc92bfbff6f499fa97" target="_top" xlink:title="main">
<polygon fill="white" stroke="black" points="222,-0.5 222,-19.5 260,-19.5 260,-0.5 222,-0.5"/>
<text text-anchor="middle" x="241" y="-7.5" font-family="Helvetica,sans-Serif" font-size="10.00">main</text>
</a>
</g>
<!-- Node2&#45;&gt;Node3 -->
<g id="edge6" class="edge"><title>Node2&#45;&gt;Node3</title>
<path fill="none" stroke="midnightblue" d="M195.775,-10C205.055,-10 214.264,-10 221.856,-10"/>
<polygon fill="midnightblue" stroke="midnightblue" points="195.751,-6.5001 185.751,-10 195.751,-13.5001 195.751,-6.5001"/>
</g>
</g>
</svg>
