<?xml version="1.0" encoding="UTF-8" standalone="no"?>
<!DOCTYPE svg PUBLIC "-//W3C//DTD SVG 1.1//EN"
 "http://www.w3.org/Graphics/SVG/1.1/DTD/svg11.dtd">
<!-- Generated by graphviz version 2.28.0 (20110507.0327)
 -->
<!-- Title: G Pages: 1 -->
<svg width="436pt" height="132pt"
 viewBox="0.00 0.00 436.00 132.00" xmlns="http://www.w3.org/2000/svg" xmlns:xlink="http://www.w3.org/1999/xlink">
<g id="graph1" class="graph" transform="scale(1 1) rotate(0) translate(4 128)">
<title>G</title>
<polygon fill="white" stroke="white" points="-4,5 -4,-128 433,-128 433,5 -4,5"/>
<!-- Node1 -->
<g id="node1" class="node"><title>Node1</title>
<polygon fill="#bfbfbf" stroke="black" points="0.5,-43.5 0.5,-62.5 75.5,-62.5 75.5,-43.5 0.5,-43.5"/>
<text text-anchor="middle" x="38" y="-50.5" font-family="Helvetica,sans-Serif" font-size="10.00">DrawAllJoints</text>
</g>
<!-- Node2 -->
<g id="node3" class="node"><title>Node2</title>
<a xlink:href="_draw_polygon_8c.html#a0b9609ebb13481abf15080f42eafea51" target="_top" xlink:title="DrawPolygon">
<polygon fill="white" stroke="black" points="224,-104.5 224,-123.5 298,-123.5 298,-104.5 224,-104.5"/>
<text text-anchor="middle" x="261" y="-111.5" font-family="Helvetica,sans-Serif" font-size="10.00">DrawPolygon</text>
</a>
</g>
<!-- Node1&#45;&gt;Node2 -->
<g id="edge2" class="edge"><title>Node1&#45;&gt;Node2</title>
<path fill="none" stroke="midnightblue" d="M47.7467,-62.7571C60.397,-76.0819 85.2342,-99.4092 112,-109 144.583,-120.675 183.826,-121.454 213.714,-119.567"/>
<polygon fill="midnightblue" stroke="midnightblue" points="214.16,-123.044 223.869,-118.802 213.634,-116.063 214.16,-123.044"/>
</g>
<!-- Node4 -->
<g id="node7" class="node"><title>Node4</title>
<a xlink:href="_connect3_d_8c.html#a99da334157f58070107563421b6dc2c9" target="_top" xlink:title="Connect3D">
<polygon fill="white" stroke="black" points="228.5,-38.5 228.5,-57.5 293.5,-57.5 293.5,-38.5 228.5,-38.5"/>
<text text-anchor="middle" x="261" y="-45.5" font-family="Helvetica,sans-Serif" font-size="10.00">Connect3D</text>
</a>
</g>
<!-- Node1&#45;&gt;Node4 -->
<g id="edge6" class="edge"><title>Node1&#45;&gt;Node4</title>
<path fill="none" stroke="midnightblue" d="M75.9904,-52.1631C115.215,-51.2757 177.055,-49.8766 218.064,-48.9488"/>
<polygon fill="midnightblue" stroke="midnightblue" points="218.353,-52.4432 228.271,-48.7179 218.194,-45.445 218.353,-52.4432"/>
</g>
<!-- Node5 -->
<g id="node9" class="node"><title>Node5</title>
<a xlink:href="_draw_cylinder_8c.html#acca174422f80abe3bd6e8eb987a22eff" target="_top" xlink:title="DrawCylinder">
<polygon fill="white" stroke="black" points="224,-0.5 224,-19.5 298,-19.5 298,-0.5 224,-0.5"/>
<text text-anchor="middle" x="261" y="-7.5" font-family="Helvetica,sans-Serif" font-size="10.00">DrawCylinder</text>
</a>
</g>
<!-- Node1&#45;&gt;Node5 -->
<g id="edge8" class="edge"><title>Node1&#45;&gt;Node5</title>
<path fill="none" stroke="midnightblue" d="M75.9904,-45.8028C113.938,-38.4192 173.055,-26.9169 213.997,-18.9509"/>
<polygon fill="midnightblue" stroke="midnightblue" points="214.843,-22.352 223.99,-17.0065 213.506,-15.4808 214.843,-22.352"/>
</g>
<!-- Node6 -->
<g id="node11" class="node"><title>Node6</title>
<a xlink:href="_draw_all_joints_8c.html#ac2cdd09ad3d4b4006066ed8d55fb9c87" target="_top" xlink:title="DrawAllJoints">
<polygon fill="white" stroke="black" points="112.5,-62.5 112.5,-81.5 187.5,-81.5 187.5,-62.5 112.5,-62.5"/>
<text text-anchor="middle" x="150" y="-69.5" font-family="Helvetica,sans-Serif" font-size="10.00">DrawAllJoints</text>
</a>
</g>
<!-- Node1&#45;&gt;Node6 -->
<g id="edge10" class="edge"><title>Node1&#45;&gt;Node6</title>
<path fill="none" stroke="midnightblue" d="M75.6284,-59.3267C84.1653,-60.8013 93.3693,-62.3911 102.277,-63.9296"/>
<polygon fill="midnightblue" stroke="midnightblue" points="101.707,-67.3829 112.156,-65.6361 102.898,-60.485 101.707,-67.3829"/>
</g>
<!-- Node3 -->
<g id="node5" class="node"><title>Node3</title>
<a xlink:href="_draw_force_marker_8c.html#aa332e9f7e05fea015ad1e917308c62a1" target="_top" xlink:title="DrawForceMarker">
<polygon fill="white" stroke="black" points="334.5,-104.5 334.5,-123.5 427.5,-123.5 427.5,-104.5 334.5,-104.5"/>
<text text-anchor="middle" x="381" y="-111.5" font-family="Helvetica,sans-Serif" font-size="10.00">DrawForceMarker</text>
</a>
</g>
<!-- Node2&#45;&gt;Node3 -->
<g id="edge4" class="edge"><title>Node2&#45;&gt;Node3</title>
<path fill="none" stroke="midnightblue" d="M298.045,-114C306.229,-114 315.111,-114 323.907,-114"/>
<polygon fill="midnightblue" stroke="midnightblue" points="324.146,-117.5 334.146,-114 324.146,-110.5 324.146,-117.5"/>
</g>
<!-- Node6&#45;&gt;Node2 -->
<g id="edge12" class="edge"><title>Node6&#45;&gt;Node2</title>
<path fill="none" stroke="midnightblue" d="M175.734,-81.5305C190.402,-87.1825 209.221,-94.4336 225.351,-100.649"/>
<polygon fill="midnightblue" stroke="midnightblue" points="224.397,-104.032 234.987,-104.362 226.914,-97.5004 224.397,-104.032"/>
</g>
<!-- Node6&#45;&gt;Node4 -->
<g id="edge14" class="edge"><title>Node6&#45;&gt;Node4</title>
<path fill="none" stroke="midnightblue" d="M187.599,-63.9416C197.525,-61.7559 208.343,-59.3741 218.518,-57.1337"/>
<polygon fill="midnightblue" stroke="midnightblue" points="219.408,-60.5217 228.421,-54.9531 217.903,-53.6854 219.408,-60.5217"/>
</g>
<!-- Node6&#45;&gt;Node5 -->
<g id="edge16" class="edge"><title>Node6&#45;&gt;Node5</title>
<path fill="none" stroke="midnightblue" d="M166.826,-62.3895C181.529,-53.5295 204.091,-40.1094 224,-29 226.75,-27.4654 229.634,-25.8894 232.521,-24.3328"/>
<polygon fill="midnightblue" stroke="midnightblue" points="234.414,-27.29 241.597,-19.5015 231.125,-21.1109 234.414,-27.29"/>
</g>
<!-- Node6&#45;&gt;Node6 -->
<g id="edge18" class="edge"><title>Node6&#45;&gt;Node6</title>
<path fill="none" stroke="midnightblue" d="M133.046,-81.7571C124.798,-90.5653 130.449,-100 150,-100 162.219,-100 169.009,-96.3146 170.369,-91.4"/>
<polygon fill="midnightblue" stroke="midnightblue" points="173.592,-90.0149 166.954,-81.7571 166.993,-92.3518 173.592,-90.0149"/>
</g>
</g>
</svg>
