<?xml version="1.0" encoding="UTF-8" standalone="no"?>
<!DOCTYPE svg PUBLIC "-//W3C//DTD SVG 1.1//EN"
 "http://www.w3.org/Graphics/SVG/1.1/DTD/svg11.dtd">
<!-- Generated by graphviz version 2.28.0 (20110507.0327)
 -->
<!-- Title: G Pages: 1 -->
<svg width="324pt" height="104pt"
 viewBox="0.00 0.00 324.00 104.00" xmlns="http://www.w3.org/2000/svg" xmlns:xlink="http://www.w3.org/1999/xlink">
<g id="graph1" class="graph" transform="scale(1 1) rotate(0) translate(4 100)">
<title>G</title>
<polygon fill="white" stroke="white" points="-4,5 -4,-100 321,-100 321,5 -4,5"/>
<!-- Node1 -->
<g id="node1" class="node"><title>Node1</title>
<polygon fill="#bfbfbf" stroke="black" points="0.5,-38.5 0.5,-57.5 75.5,-57.5 75.5,-38.5 0.5,-38.5"/>
<text text-anchor="middle" x="38" y="-45.5" font-family="Helvetica,sans-Serif" font-size="10.00">DrawAllJoints</text>
</g>
<!-- Node1&#45;&gt;Node1 -->
<g id="edge10" class="edge"><title>Node1&#45;&gt;Node1</title>
<path fill="none" stroke="midnightblue" d="M21.0458,-57.7571C12.7978,-66.5653 18.4492,-76 38,-76 50.2192,-76 57.009,-72.3146 58.3694,-67.4"/>
<polygon fill="midnightblue" stroke="midnightblue" points="61.5919,-66.0149 54.9542,-57.7571 54.9935,-68.3518 61.5919,-66.0149"/>
</g>
<!-- Node2 -->
<g id="node3" class="node"><title>Node2</title>
<a xlink:href="_draw_polygon_8c.html#a0b9609ebb13481abf15080f42eafea51" target="_top" xlink:title="DrawPolygon">
<polygon fill="white" stroke="black" points="112,-76.5 112,-95.5 186,-95.5 186,-76.5 112,-76.5"/>
<text text-anchor="middle" x="149" y="-83.5" font-family="Helvetica,sans-Serif" font-size="10.00">DrawPolygon</text>
</a>
</g>
<!-- Node1&#45;&gt;Node2 -->
<g id="edge2" class="edge"><title>Node1&#45;&gt;Node2</title>
<path fill="none" stroke="midnightblue" d="M66.5053,-57.589C79.9307,-62.2694 96.28,-67.9692 110.801,-73.0315"/>
<polygon fill="midnightblue" stroke="midnightblue" points="109.909,-76.427 120.503,-76.4141 112.213,-69.8172 109.909,-76.427"/>
</g>
<!-- Node4 -->
<g id="node7" class="node"><title>Node4</title>
<a xlink:href="_connect3_d_8c.html#a99da334157f58070107563421b6dc2c9" target="_top" xlink:title="Connect3D">
<polygon fill="white" stroke="black" points="116.5,-38.5 116.5,-57.5 181.5,-57.5 181.5,-38.5 116.5,-38.5"/>
<text text-anchor="middle" x="149" y="-45.5" font-family="Helvetica,sans-Serif" font-size="10.00">Connect3D</text>
</a>
</g>
<!-- Node1&#45;&gt;Node4 -->
<g id="edge6" class="edge"><title>Node1&#45;&gt;Node4</title>
<path fill="none" stroke="midnightblue" d="M75.5986,-48C85.4217,-48 96.1175,-48 106.199,-48"/>
<polygon fill="midnightblue" stroke="midnightblue" points="106.421,-51.5001 116.421,-48 106.421,-44.5001 106.421,-51.5001"/>
</g>
<!-- Node5 -->
<g id="node9" class="node"><title>Node5</title>
<a xlink:href="_draw_cylinder_8c.html#acca174422f80abe3bd6e8eb987a22eff" target="_top" xlink:title="DrawCylinder">
<polygon fill="white" stroke="black" points="112,-0.5 112,-19.5 186,-19.5 186,-0.5 112,-0.5"/>
<text text-anchor="middle" x="149" y="-7.5" font-family="Helvetica,sans-Serif" font-size="10.00">DrawCylinder</text>
</a>
</g>
<!-- Node1&#45;&gt;Node5 -->
<g id="edge8" class="edge"><title>Node1&#45;&gt;Node5</title>
<path fill="none" stroke="midnightblue" d="M66.5053,-38.411C79.9307,-33.7306 96.28,-28.0308 110.801,-22.9685"/>
<polygon fill="midnightblue" stroke="midnightblue" points="112.213,-26.1828 120.503,-19.5859 109.909,-19.573 112.213,-26.1828"/>
</g>
<!-- Node3 -->
<g id="node5" class="node"><title>Node3</title>
<a xlink:href="_draw_force_marker_8c.html#aa332e9f7e05fea015ad1e917308c62a1" target="_top" xlink:title="DrawForceMarker">
<polygon fill="white" stroke="black" points="222.5,-76.5 222.5,-95.5 315.5,-95.5 315.5,-76.5 222.5,-76.5"/>
<text text-anchor="middle" x="269" y="-83.5" font-family="Helvetica,sans-Serif" font-size="10.00">DrawForceMarker</text>
</a>
</g>
<!-- Node2&#45;&gt;Node3 -->
<g id="edge4" class="edge"><title>Node2&#45;&gt;Node3</title>
<path fill="none" stroke="midnightblue" d="M186.045,-86C194.229,-86 203.111,-86 211.907,-86"/>
<polygon fill="midnightblue" stroke="midnightblue" points="212.146,-89.5001 222.146,-86 212.146,-82.5001 212.146,-89.5001"/>
</g>
</g>
</svg>
