<?xml version="1.0" encoding="UTF-8" standalone="no"?>
<!DOCTYPE svg PUBLIC "-//W3C//DTD SVG 1.1//EN"
 "http://www.w3.org/Graphics/SVG/1.1/DTD/svg11.dtd">
<!-- Generated by graphviz version 2.28.0 (20110507.0327)
 -->
<!-- Title: G Pages: 1 -->
<!--zoomable-->
<svg id="main" version="1.1" xmlns="http://www.w3.org/2000/svg" xmlns:xlink="http://www.w3.org/1999/xlink" xml:space="preserve" onload="init(evt)">
        <defs>
                <circle id="rim" cx="0" cy="0" r="7"/>
                <circle id="rim2" cx="0" cy="0" r="3.5"/>
                <g id="zoomPlus">
                        <use xlink:href="#rim" fill="#404040">
                                <set attributeName="fill" to="#808080" begin="zoomplus.mouseover" end="zoomplus.mouseout"/>
                        </use>
                        <path d="M-4,0h8M0,-4v8" fill="none" stroke="white" stroke-width="1.5" pointer-events="none"/>
                </g>
                <g id="zoomMin">
                        <use xlink:href="#rim" fill="#404040">
                                <set attributeName="fill" to="#808080" begin="zoomminus.mouseover" end="zoomminus.mouseout"/>
                        </use>
                        <path d="M-4,0h8" fill="none" stroke="white" stroke-width="1.5" pointer-events="none"/>
                </g>
                <g id="dirArrow">
                        <path fill="none" stroke="white" stroke-width="1.5" d="M0,-3.0v7 M-2.5,-0.5L0,-3.0L2.5,-0.5"/>
                </g>
               <g id="resetDef">
                       <use xlink:href="#rim2" fill="#404040">
                               <set attributeName="fill" to="#808080" begin="reset.mouseover" end="reset.mouseout"/>
                       </use>
               </g>
        </defs>

<script type="text/javascript">
var viewWidth = 836;
var viewHeight = 140;
var sectionId = 'dynsection-0';
</script>
<script xlink:href="svgpan.js"/>
<svg id="graph" class="graph">
<g id="viewport">
<title>G</title>
<polygon fill="white" stroke="white" points="-4,5 -4,-136 832.693,-136 832.693,5 -4,5"/>
<!-- Node1 -->
<g id="node1" class="node"><title>Node1</title>
<polygon fill="#bfbfbf" stroke="black" points="378.193,-112.5 378.193,-131.5 467.193,-131.5 467.193,-112.5 378.193,-112.5"/>
<text text-anchor="middle" x="422.693" y="-119.5" font-family="Helvetica,sans-Serif" font-size="10.00">DrawIndicators.c</text>
</g>
<!-- Node2 -->
<g id="node3" class="node"><title>Node2</title>
<polygon fill="white" stroke="#bfbfbf" points="190.693,-0.5 190.693,-19.5 274.693,-19.5 274.693,-0.5 190.693,-0.5"/>
<text text-anchor="middle" x="232.693" y="-7.5" font-family="Helvetica,sans-Serif" font-size="10.00">gsl/gsl_vector.h</text>
</g>
<!-- Node1&#45;&gt;Node2 -->
<g id="edge2" class="edge"><title>Node1&#45;&gt;Node2</title>
<path fill="none" stroke="midnightblue" d="M377.916,-119.419C276.248,-115.369 34.892,-102.986 10.6933,-76 -39.0215,-20.5595 99.7507,-11.3307 180.044,-10.4558"/>
<polygon fill="midnightblue" stroke="midnightblue" points="180.507,-13.9528 190.483,-10.385 180.459,-6.953 180.507,-13.9528"/>
</g>
<!-- Node3 -->
<g id="node5" class="node"><title>Node3</title>
<polygon fill="white" stroke="#bfbfbf" points="292.693,-0.5 292.693,-19.5 378.693,-19.5 378.693,-0.5 292.693,-0.5"/>
<text text-anchor="middle" x="335.693" y="-7.5" font-family="Helvetica,sans-Serif" font-size="10.00">gsl/gsl_matrix.h</text>
</g>
<!-- Node1&#45;&gt;Node3 -->
<g id="edge4" class="edge"><title>Node1&#45;&gt;Node3</title>
<path fill="none" stroke="midnightblue" d="M467.643,-116.293C519.602,-109.075 594.405,-92.119 564.693,-56 542.916,-29.5265 449.878,-18.3897 389.298,-13.8812"/>
<polygon fill="midnightblue" stroke="midnightblue" points="389.352,-10.3763 379.13,-13.1635 388.859,-17.359 389.352,-10.3763"/>
</g>
<!-- Node4 -->
<g id="node7" class="node"><title>Node4</title>
<polygon fill="white" stroke="#bfbfbf" points="613.193,-56.5 613.193,-75.5 690.193,-75.5 690.193,-56.5 613.193,-56.5"/>
<text text-anchor="middle" x="651.693" y="-63.5" font-family="Helvetica,sans-Serif" font-size="10.00">gsl/gsl_blas.h</text>
</g>
<!-- Node1&#45;&gt;Node4 -->
<g id="edge6" class="edge"><title>Node1&#45;&gt;Node4</title>
<path fill="none" stroke="midnightblue" d="M458.979,-112.444C498.676,-103.083 562.4,-88.0561 605.605,-77.868"/>
<polygon fill="midnightblue" stroke="midnightblue" points="606.648,-81.2182 615.577,-75.5164 605.041,-74.4051 606.648,-81.2182"/>
</g>
<!-- Node5 -->
<g id="node9" class="node"><title>Node5</title>
<polygon fill="white" stroke="#bfbfbf" points="708.693,-56.5 708.693,-75.5 756.693,-75.5 756.693,-56.5 708.693,-56.5"/>
<text text-anchor="middle" x="732.693" y="-63.5" font-family="Helvetica,sans-Serif" font-size="10.00">GL/gl.h</text>
</g>
<!-- Node1&#45;&gt;Node5 -->
<g id="edge8" class="edge"><title>Node1&#45;&gt;Node5</title>
<path fill="none" stroke="midnightblue" d="M467.398,-115.074C522.191,-107.498 617.739,-93.2715 698.693,-76 698.794,-75.9785 698.895,-75.9569 698.996,-75.9352"/>
<polygon fill="midnightblue" stroke="midnightblue" points="699.678,-79.3702 708.617,-73.6825 698.082,-72.5546 699.678,-79.3702"/>
</g>
<!-- Node6 -->
<g id="node11" class="node"><title>Node6</title>
<polygon fill="white" stroke="#bfbfbf" points="775.193,-56.5 775.193,-75.5 828.193,-75.5 828.193,-56.5 775.193,-56.5"/>
<text text-anchor="middle" x="801.693" y="-63.5" font-family="Helvetica,sans-Serif" font-size="10.00">GL/glu.h</text>
</g>
<!-- Node1&#45;&gt;Node6 -->
<g id="edge10" class="edge"><title>Node1&#45;&gt;Node6</title>
<path fill="none" stroke="midnightblue" d="M467.353,-116.791C531.198,-110.412 652.374,-96.964 765.191,-75.8888"/>
<polygon fill="midnightblue" stroke="midnightblue" points="765.857,-79.3248 775.032,-74.0266 764.556,-72.4469 765.857,-79.3248"/>
</g>
<!-- Node7 -->
<g id="node13" class="node"><title>Node7</title>
<a xlink:href="u_link_8h.html" target="_top" xlink:title="Link initialisation and declarations.">
<polygon fill="white" stroke="black" points="303.193,-56.5 303.193,-75.5 354.193,-75.5 354.193,-56.5 303.193,-56.5"/>
<text text-anchor="middle" x="328.693" y="-63.5" font-family="Helvetica,sans-Serif" font-size="10.00">uLINK.h</text>
</a>
</g>
<!-- Node1&#45;&gt;Node7 -->
<g id="edge12" class="edge"><title>Node1&#45;&gt;Node7</title>
<path fill="none" stroke="midnightblue" d="M407.591,-112.324C392.79,-103.822 369.999,-90.7288 352.711,-80.7975"/>
<polygon fill="midnightblue" stroke="midnightblue" points="354.173,-77.6009 343.759,-75.6545 350.686,-83.6707 354.173,-77.6009"/>
</g>
<!-- Node8 -->
<g id="node17" class="node"><title>Node8</title>
<a xlink:href="_draw_force_marker_8h.html" target="_top" xlink:title="DrawForceMarker.h">
<polygon fill="white" stroke="black" points="372.193,-56.5 372.193,-75.5 473.193,-75.5 473.193,-56.5 372.193,-56.5"/>
<text text-anchor="middle" x="422.693" y="-63.5" font-family="Helvetica,sans-Serif" font-size="10.00">DrawForceMarker.h</text>
</a>
</g>
<!-- Node1&#45;&gt;Node8 -->
<g id="edge18" class="edge"><title>Node1&#45;&gt;Node8</title>
<path fill="none" stroke="midnightblue" d="M422.693,-112.083C422.693,-105.006 422.693,-94.8611 422.693,-85.9865"/>
<polygon fill="midnightblue" stroke="midnightblue" points="426.193,-85.751 422.693,-75.7511 419.193,-85.7511 426.193,-85.751"/>
</g>
<!-- Node9 -->
<g id="node21" class="node"><title>Node9</title>
<a xlink:href="_calc_co_m_8h.html" target="_top" xlink:title="CalcCoM.h">
<polygon fill="white" stroke="black" points="491.193,-56.5 491.193,-75.5 556.193,-75.5 556.193,-56.5 491.193,-56.5"/>
<text text-anchor="middle" x="523.693" y="-63.5" font-family="Helvetica,sans-Serif" font-size="10.00">CalcCoM.h</text>
</a>
</g>
<!-- Node1&#45;&gt;Node9 -->
<g id="edge24" class="edge"><title>Node1&#45;&gt;Node9</title>
<path fill="none" stroke="midnightblue" d="M438.921,-112.324C455.044,-103.703 479.993,-90.3643 498.657,-80.3855"/>
<polygon fill="midnightblue" stroke="midnightblue" points="500.338,-83.456 507.506,-75.6545 497.037,-77.283 500.338,-83.456"/>
</g>
<!-- Node10 -->
<g id="node25" class="node"><title>Node10</title>
<a xlink:href="_calc_co_p_8h.html" target="_top" xlink:title="CalcCoP.h">
<polygon fill="white" stroke="black" points="20.1933,-56.5 20.1933,-75.5 83.1933,-75.5 83.1933,-56.5 20.1933,-56.5"/>
<text text-anchor="middle" x="51.6933" y="-63.5" font-family="Helvetica,sans-Serif" font-size="10.00">CalcCoP.h</text>
</a>
</g>
<!-- Node1&#45;&gt;Node10 -->
<g id="edge30" class="edge"><title>Node1&#45;&gt;Node10</title>
<path fill="none" stroke="midnightblue" d="M378.065,-116.17C316.234,-109.207 200.83,-95.231 93.5423,-76.2163"/>
<polygon fill="midnightblue" stroke="midnightblue" points="93.9803,-72.7391 83.5198,-74.4208 92.7458,-79.6294 93.9803,-72.7391"/>
</g>
<!-- Node11 -->
<g id="node29" class="node"><title>Node11</title>
<a xlink:href="_draw_marker_8h.html" target="_top" xlink:title="DrawMarker.h">
<polygon fill="white" stroke="black" points="101.193,-56.5 101.193,-75.5 178.193,-75.5 178.193,-56.5 101.193,-56.5"/>
<text text-anchor="middle" x="139.693" y="-63.5" font-family="Helvetica,sans-Serif" font-size="10.00">DrawMarker.h</text>
</a>
</g>
<!-- Node1&#45;&gt;Node11 -->
<g id="edge36" class="edge"><title>Node1&#45;&gt;Node11</title>
<path fill="none" stroke="midnightblue" d="M377.888,-112.467C332.548,-103.831 260.139,-90.0309 188.519,-76.3479"/>
<polygon fill="midnightblue" stroke="midnightblue" points="188.901,-72.8576 178.422,-74.4185 187.587,-79.7332 188.901,-72.8576"/>
</g>
<!-- Node12 -->
<g id="node33" class="node"><title>Node12</title>
<a xlink:href="_draw_indicators_8h.html" target="_top" xlink:title="DrawIndicators.h">
<polygon fill="white" stroke="black" points="196.193,-56.5 196.193,-75.5 285.193,-75.5 285.193,-56.5 196.193,-56.5"/>
<text text-anchor="middle" x="240.693" y="-63.5" font-family="Helvetica,sans-Serif" font-size="10.00">DrawIndicators.h</text>
</a>
</g>
<!-- Node1&#45;&gt;Node12 -->
<g id="edge42" class="edge"><title>Node1&#45;&gt;Node12</title>
<path fill="none" stroke="midnightblue" d="M393.855,-112.444C362.838,-103.241 313.364,-88.5617 279.075,-78.3879"/>
<polygon fill="midnightblue" stroke="midnightblue" points="279.979,-75.0055 269.397,-75.5164 277.988,-81.7164 279.979,-75.0055"/>
</g>
<!-- Node7&#45;&gt;Node2 -->
<g id="edge14" class="edge"><title>Node7&#45;&gt;Node2</title>
<path fill="none" stroke="midnightblue" d="M313.269,-56.324C298.154,-47.8215 274.878,-34.7288 257.222,-24.7975"/>
<polygon fill="midnightblue" stroke="midnightblue" points="258.511,-21.5066 248.079,-19.6545 255.079,-27.6077 258.511,-21.5066"/>
</g>
<!-- Node7&#45;&gt;Node3 -->
<g id="edge16" class="edge"><title>Node7&#45;&gt;Node3</title>
<path fill="none" stroke="midnightblue" d="M329.849,-56.083C330.777,-48.9272 332.111,-38.6353 333.27,-29.6911"/>
<polygon fill="midnightblue" stroke="midnightblue" points="336.744,-30.1181 334.559,-19.7511 329.802,-29.2181 336.744,-30.1181"/>
</g>
<!-- Node8&#45;&gt;Node2 -->
<g id="edge20" class="edge"><title>Node8&#45;&gt;Node2</title>
<path fill="none" stroke="midnightblue" d="M392.587,-56.4435C360.068,-47.2011 308.115,-32.4356 272.302,-22.2572"/>
<polygon fill="midnightblue" stroke="midnightblue" points="273.234,-18.8837 262.659,-19.5164 271.321,-25.617 273.234,-18.8837"/>
</g>
<!-- Node8&#45;&gt;Node3 -->
<g id="edge22" class="edge"><title>Node8&#45;&gt;Node3</title>
<path fill="none" stroke="midnightblue" d="M408.715,-56.324C395.144,-47.9002 374.313,-34.9709 358.368,-25.0741"/>
<polygon fill="midnightblue" stroke="midnightblue" points="359.979,-21.9544 349.637,-19.6545 356.287,-27.9019 359.979,-21.9544"/>
</g>
<!-- Node9&#45;&gt;Node2 -->
<g id="edge26" class="edge"><title>Node9&#45;&gt;Node2</title>
<path fill="none" stroke="midnightblue" d="M491.155,-57.9191C487.961,-57.2566 484.766,-56.6067 481.693,-56 444.849,-48.7251 346.146,-31.0941 284.65,-20.1858"/>
<polygon fill="midnightblue" stroke="midnightblue" points="285.2,-16.7289 274.743,-18.4295 283.978,-23.6214 285.2,-16.7289"/>
</g>
<!-- Node9&#45;&gt;Node3 -->
<g id="edge28" class="edge"><title>Node9&#45;&gt;Node3</title>
<path fill="none" stroke="midnightblue" d="M493.904,-56.4435C461.864,-47.2406 410.76,-32.5617 375.34,-22.3879"/>
<polygon fill="midnightblue" stroke="midnightblue" points="375.921,-18.9132 365.343,-19.5164 373.988,-25.6412 375.921,-18.9132"/>
</g>
<!-- Node10&#45;&gt;Node2 -->
<g id="edge32" class="edge"><title>Node10&#45;&gt;Node2</title>
<path fill="none" stroke="midnightblue" d="M80.3733,-56.4435C111.22,-47.2406 160.422,-32.5617 194.523,-22.3879"/>
<polygon fill="midnightblue" stroke="midnightblue" points="195.566,-25.7293 204.148,-19.5164 193.564,-19.0215 195.566,-25.7293"/>
</g>
<!-- Node10&#45;&gt;Node3 -->
<g id="edge34" class="edge"><title>Node10&#45;&gt;Node3</title>
<path fill="none" stroke="midnightblue" d="M83.546,-57.7157C86.2988,-57.1218 89.0434,-56.5423 91.6933,-56 127.298,-48.7141 221.974,-31.4824 282.38,-20.5815"/>
<polygon fill="midnightblue" stroke="midnightblue" points="283.282,-23.9755 292.502,-18.7563 282.04,-17.0866 283.282,-23.9755"/>
</g>
<!-- Node11&#45;&gt;Node2 -->
<g id="edge38" class="edge"><title>Node11&#45;&gt;Node2</title>
<path fill="none" stroke="midnightblue" d="M154.635,-56.324C169.278,-47.8215 191.827,-34.7288 208.931,-24.7975"/>
<polygon fill="midnightblue" stroke="midnightblue" points="210.898,-27.7027 217.788,-19.6545 207.383,-21.6491 210.898,-27.7027"/>
</g>
<!-- Node11&#45;&gt;Node3 -->
<g id="edge40" class="edge"><title>Node11&#45;&gt;Node3</title>
<path fill="none" stroke="midnightblue" d="M170.75,-56.4435C204.297,-47.2011 257.89,-32.4356 294.834,-22.2572"/>
<polygon fill="midnightblue" stroke="midnightblue" points="296.071,-25.5469 304.782,-19.5164 294.211,-18.7984 296.071,-25.5469"/>
</g>
<!-- Node12&#45;&gt;Node2 -->
<g id="edge44" class="edge"><title>Node12&#45;&gt;Node2</title>
<path fill="none" stroke="midnightblue" d="M239.372,-56.083C238.312,-48.9272 236.787,-38.6353 235.462,-29.6911"/>
<polygon fill="midnightblue" stroke="midnightblue" points="238.918,-29.1302 233.99,-19.7511 231.993,-30.1561 238.918,-29.1302"/>
</g>
<!-- Node12&#45;&gt;Node3 -->
<g id="edge46" class="edge"><title>Node12&#45;&gt;Node3</title>
<path fill="none" stroke="midnightblue" d="M255.957,-56.324C270.915,-47.8215 293.948,-34.7288 311.42,-24.7975"/>
<polygon fill="midnightblue" stroke="midnightblue" points="313.504,-27.639 320.468,-19.6545 310.045,-21.5534 313.504,-27.639"/>
</g>
</g>
</svg>
        <g id="navigator" transform="translate(0 0)" fill="#404254">
                <rect fill="#f2f5e9" fill-opacity="0.5" stroke="#606060" stroke-width=".5" x="0" y="0" width="60" height="60"/>
                <use id="zoomplus" xlink:href="#zoomPlus" x="17" y="9" onmousedown="handleZoom(evt,'in')"/>
                <use id="zoomminus" xlink:href="#zoomMin" x="42" y="9" onmousedown="handleZoom(evt,'out')"/>
                <use id="reset" xlink:href="#resetDef" x="30" y="36" onmousedown="handleReset()"/>
                <g id="arrowUp" xlink:href="#dirArrow" transform="translate(30 24)" onmousedown="handlePan(0,-1)">
                  <use xlink:href="#rim" fill="#404040">
                        <set attributeName="fill" to="#808080" begin="arrowUp.mouseover" end="arrowUp.mouseout"/>
                  </use>
                  <path fill="none" stroke="white" stroke-width="1.5" d="M0,-3.0v7 M-2.5,-0.5L0,-3.0L2.5,-0.5"/>
                </g>
                <g id="arrowRight" xlink:href="#dirArrow" transform="rotate(90) translate(36 -43)" onmousedown="handlePan(1,0)">
                  <use xlink:href="#rim" fill="#404040">
                        <set attributeName="fill" to="#808080" begin="arrowRight.mouseover" end="arrowRight.mouseout"/>
                  </use>
                  <path fill="none" stroke="white" stroke-width="1.5" d="M0,-3.0v7 M-2.5,-0.5L0,-3.0L2.5,-0.5"/>
                </g>
                <g id="arrowDown" xlink:href="#dirArrow" transform="rotate(180) translate(-30 -48)" onmousedown="handlePan(0,1)">
                  <use xlink:href="#rim" fill="#404040">
                        <set attributeName="fill" to="#808080" begin="arrowDown.mouseover" end="arrowDown.mouseout"/>
                  </use>
                  <path fill="none" stroke="white" stroke-width="1.5" d="M0,-3.0v7 M-2.5,-0.5L0,-3.0L2.5,-0.5"/>
                </g>
                <g id="arrowLeft" xlink:href="#dirArrow" transform="rotate(270) translate(-36 17)" onmousedown="handlePan(-1,0)">
                  <use xlink:href="#rim" fill="#404040">
                        <set attributeName="fill" to="#808080" begin="arrowLeft.mouseover" end="arrowLeft.mouseout"/>
                  </use>
                  <path fill="none" stroke="white" stroke-width="1.5" d="M0,-3.0v7 M-2.5,-0.5L0,-3.0L2.5,-0.5"/>
                </g>
        </g>
</svg>
