<?xml version="1.0" encoding="UTF-8" standalone="no"?>
<!DOCTYPE svg PUBLIC "-//W3C//DTD SVG 1.1//EN"
 "http://www.w3.org/Graphics/SVG/1.1/DTD/svg11.dtd">
<!-- Generated by graphviz version 2.28.0 (20110507.0327)
 -->
<!-- Title: G Pages: 1 -->
<svg width="155pt" height="84pt"
 viewBox="0.00 0.00 155.00 84.00" xmlns="http://www.w3.org/2000/svg" xmlns:xlink="http://www.w3.org/1999/xlink">
<g id="graph1" class="graph" transform="scale(1 1) rotate(0) translate(4 80)">
<title>G</title>
<polygon fill="white" stroke="white" points="-4,5 -4,-80 152,-80 152,5 -4,5"/>
<!-- Node1 -->
<g id="node1" class="node"><title>Node1</title>
<polygon fill="#bfbfbf" stroke="black" points="40.5,-56.5 40.5,-75.5 123.5,-75.5 123.5,-56.5 40.5,-56.5"/>
<text text-anchor="middle" x="82" y="-63.5" font-family="Helvetica,sans-Serif" font-size="10.00">DrawAllJoints.h</text>
</g>
<!-- Node2 -->
<g id="node3" class="node"><title>Node2</title>
<a xlink:href="_draw_all_joints_8c.html" target="_top" xlink:title="DrawAllJoints.c">
<polygon fill="white" stroke="black" points="-0.5,-0.5 -0.5,-19.5 82.5,-19.5 82.5,-0.5 -0.5,-0.5"/>
<text text-anchor="middle" x="41" y="-7.5" font-family="Helvetica,sans-Serif" font-size="10.00">DrawAllJoints.c</text>
</a>
</g>
<!-- Node1&#45;&gt;Node2 -->
<g id="edge2" class="edge"><title>Node1&#45;&gt;Node2</title>
<path fill="none" stroke="midnightblue" d="M68.9828,-47.8554C61.8833,-38.5048 53.396,-27.3265 47.6443,-19.7511"/>
<polygon fill="midnightblue" stroke="midnightblue" points="66.395,-50.235 75.2297,-56.083 71.9701,-46.002 66.395,-50.235"/>
</g>
<!-- Node3 -->
<g id="node5" class="node"><title>Node3</title>
<a xlink:href="main_8c.html" target="_top" xlink:title="This is the multi body simulator.">
<polygon fill="white" stroke="black" points="101,-0.5 101,-19.5 147,-19.5 147,-0.5 101,-0.5"/>
<text text-anchor="middle" x="124" y="-7.5" font-family="Helvetica,sans-Serif" font-size="10.00">main.c</text>
</a>
</g>
<!-- Node1&#45;&gt;Node3 -->
<g id="edge4" class="edge"><title>Node1&#45;&gt;Node3</title>
<path fill="none" stroke="midnightblue" d="M95.1102,-48.144C102.428,-38.7357 111.241,-27.4046 117.194,-19.7511"/>
<polygon fill="midnightblue" stroke="midnightblue" points="92.3122,-46.0406 88.9354,-56.083 97.8376,-50.3383 92.3122,-46.0406"/>
</g>
</g>
</svg>
