<?xml version="1.0" encoding="UTF-8" standalone="no"?>
<!DOCTYPE svg PUBLIC "-//W3C//DTD SVG 1.1//EN"
 "http://www.w3.org/Graphics/SVG/1.1/DTD/svg11.dtd">
<!-- Generated by graphviz version 2.28.0 (20110507.0327)
 -->
<!-- Title: G Pages: 1 -->
<svg width="224pt" height="84pt"
 viewBox="0.00 0.00 224.00 84.00" xmlns="http://www.w3.org/2000/svg" xmlns:xlink="http://www.w3.org/1999/xlink">
<g id="graph1" class="graph" transform="scale(1 1) rotate(0) translate(4 80)">
<title>G</title>
<polygon fill="white" stroke="white" points="-4,5 -4,-80 221,-80 221,5 -4,5"/>
<!-- Node1 -->
<g id="node1" class="node"><title>Node1</title>
<polygon fill="#bfbfbf" stroke="black" points="81.5,-56.5 81.5,-75.5 160.5,-75.5 160.5,-56.5 81.5,-56.5"/>
<text text-anchor="middle" x="121" y="-63.5" font-family="Helvetica,sans-Serif" font-size="10.00">DrawMarkerf.c</text>
</g>
<!-- Node2 -->
<g id="node3" class="node"><title>Node2</title>
<a xlink:href="_draw_markerf_8h.html" target="_top" xlink:title="DrawMarkerf.h">
<polygon fill="white" stroke="black" points="-0.5,-0.5 -0.5,-19.5 78.5,-19.5 78.5,-0.5 -0.5,-0.5"/>
<text text-anchor="middle" x="39" y="-7.5" font-family="Helvetica,sans-Serif" font-size="10.00">DrawMarkerf.h</text>
</a>
</g>
<!-- Node1&#45;&gt;Node2 -->
<g id="edge2" class="edge"><title>Node1&#45;&gt;Node2</title>
<path fill="none" stroke="midnightblue" d="M107.825,-56.324C95.1532,-47.979 75.7666,-35.2122 60.7944,-25.3524"/>
<polygon fill="midnightblue" stroke="midnightblue" points="62.4187,-22.2313 52.142,-19.6545 58.5688,-28.0776 62.4187,-22.2313"/>
</g>
<!-- Node3 -->
<g id="node5" class="node"><title>Node3</title>
<polygon fill="white" stroke="#bfbfbf" points="97,-0.5 97,-19.5 145,-19.5 145,-0.5 97,-0.5"/>
<text text-anchor="middle" x="121" y="-7.5" font-family="Helvetica,sans-Serif" font-size="10.00">GL/gl.h</text>
</g>
<!-- Node1&#45;&gt;Node3 -->
<g id="edge4" class="edge"><title>Node1&#45;&gt;Node3</title>
<path fill="none" stroke="midnightblue" d="M121,-56.083C121,-49.0059 121,-38.8611 121,-29.9865"/>
<polygon fill="midnightblue" stroke="midnightblue" points="124.5,-29.751 121,-19.7511 117.5,-29.7511 124.5,-29.751"/>
</g>
<!-- Node4 -->
<g id="node7" class="node"><title>Node4</title>
<polygon fill="white" stroke="#bfbfbf" points="163.5,-0.5 163.5,-19.5 216.5,-19.5 216.5,-0.5 163.5,-0.5"/>
<text text-anchor="middle" x="190" y="-7.5" font-family="Helvetica,sans-Serif" font-size="10.00">GL/glu.h</text>
</g>
<!-- Node1&#45;&gt;Node4 -->
<g id="edge6" class="edge"><title>Node1&#45;&gt;Node4</title>
<path fill="none" stroke="midnightblue" d="M132.086,-56.324C142.486,-48.1849 158.261,-35.8395 170.722,-26.0874"/>
<polygon fill="midnightblue" stroke="midnightblue" points="172.994,-28.7533 178.712,-19.8339 168.68,-23.2407 172.994,-28.7533"/>
</g>
</g>
</svg>
