<?xml version="1.0" encoding="UTF-8" standalone="no"?>
<!DOCTYPE svg PUBLIC "-//W3C//DTD SVG 1.1//EN"
 "http://www.w3.org/Graphics/SVG/1.1/DTD/svg11.dtd">
<!-- Generated by graphviz version 2.28.0 (20110507.0327)
 -->
<!-- Title: G Pages: 1 -->
<!--zoomable-->
<svg id="main" version="1.1" xmlns="http://www.w3.org/2000/svg" xmlns:xlink="http://www.w3.org/1999/xlink" xml:space="preserve" onload="init(evt)">
        <defs>
                <circle id="rim" cx="0" cy="0" r="7"/>
                <circle id="rim2" cx="0" cy="0" r="3.5"/>
                <g id="zoomPlus">
                        <use xlink:href="#rim" fill="#404040">
                                <set attributeName="fill" to="#808080" begin="zoomplus.mouseover" end="zoomplus.mouseout"/>
                        </use>
                        <path d="M-4,0h8M0,-4v8" fill="none" stroke="white" stroke-width="1.5" pointer-events="none"/>
                </g>
                <g id="zoomMin">
                        <use xlink:href="#rim" fill="#404040">
                                <set attributeName="fill" to="#808080" begin="zoomminus.mouseover" end="zoomminus.mouseout"/>
                        </use>
                        <path d="M-4,0h8" fill="none" stroke="white" stroke-width="1.5" pointer-events="none"/>
                </g>
                <g id="dirArrow">
                        <path fill="none" stroke="white" stroke-width="1.5" d="M0,-3.0v7 M-2.5,-0.5L0,-3.0L2.5,-0.5"/>
                </g>
               <g id="resetDef">
                       <use xlink:href="#rim2" fill="#404040">
                               <set attributeName="fill" to="#808080" begin="reset.mouseover" end="reset.mouseout"/>
                       </use>
               </g>
        </defs>

<script type="text/javascript">
var viewWidth = 762;
var viewHeight = 140;
var sectionId = 'dynsection-0';
</script>
<script xlink:href="svgpan.js"/>
<svg id="graph" class="graph">
<g id="viewport">
<title>G</title>
<polygon fill="white" stroke="white" points="-4,5 -4,-136 759.006,-136 759.006,5 -4,5"/>
<!-- Node1 -->
<g id="node1" class="node"><title>Node1</title>
<polygon fill="#bfbfbf" stroke="black" points="306.006,-112.5 306.006,-131.5 388.006,-131.5 388.006,-112.5 306.006,-112.5"/>
<text text-anchor="middle" x="347.006" y="-119.5" font-family="Helvetica,sans-Serif" font-size="10.00">DrawPolygon.c</text>
</g>
<!-- Node2 -->
<g id="node3" class="node"><title>Node2</title>
<polygon fill="white" stroke="#bfbfbf" points="21.0063,-0.5 21.0063,-19.5 105.006,-19.5 105.006,-0.5 21.0063,-0.5"/>
<text text-anchor="middle" x="63.0063" y="-7.5" font-family="Helvetica,sans-Serif" font-size="10.00">gsl/gsl_vector.h</text>
</g>
<!-- Node1&#45;&gt;Node2 -->
<g id="edge2" class="edge"><title>Node1&#45;&gt;Node2</title>
<path fill="none" stroke="midnightblue" d="M305.962,-118.591C219.43,-113.092 24.6021,-98.3431 5.00635,-76 -10.6827,-58.1114 14.8164,-37.6611 36.8047,-24.5537"/>
<polygon fill="midnightblue" stroke="midnightblue" points="38.6038,-27.5571 45.5764,-19.58 35.1511,-21.4678 38.6038,-27.5571"/>
</g>
<!-- Node3 -->
<g id="node5" class="node"><title>Node3</title>
<polygon fill="white" stroke="#bfbfbf" points="169.006,-0.5 169.006,-19.5 255.006,-19.5 255.006,-0.5 169.006,-0.5"/>
<text text-anchor="middle" x="212.006" y="-7.5" font-family="Helvetica,sans-Serif" font-size="10.00">gsl/gsl_matrix.h</text>
</g>
<!-- Node1&#45;&gt;Node3 -->
<g id="edge4" class="edge"><title>Node1&#45;&gt;Node3</title>
<path fill="none" stroke="midnightblue" d="M341.386,-112.097C332.568,-98.6562 314.371,-72.9566 294.006,-56 278.254,-42.8841 258.1,-31.762 241.715,-23.8562"/>
<polygon fill="midnightblue" stroke="midnightblue" points="243.106,-20.6432 232.564,-19.5823 240.144,-26.9854 243.106,-20.6432"/>
</g>
<!-- Node4 -->
<g id="node7" class="node"><title>Node4</title>
<polygon fill="white" stroke="#bfbfbf" points="342.506,-56.5 342.506,-75.5 419.506,-75.5 419.506,-56.5 342.506,-56.5"/>
<text text-anchor="middle" x="381.006" y="-63.5" font-family="Helvetica,sans-Serif" font-size="10.00">gsl/gsl_blas.h</text>
</g>
<!-- Node1&#45;&gt;Node4 -->
<g id="edge6" class="edge"><title>Node1&#45;&gt;Node4</title>
<path fill="none" stroke="midnightblue" d="M352.621,-112.083C357.374,-104.534 364.324,-93.4948 370.158,-84.2298"/>
<polygon fill="midnightblue" stroke="midnightblue" points="373.13,-86.0783 375.496,-75.7511 367.206,-82.3486 373.13,-86.0783"/>
</g>
<!-- Node5 -->
<g id="node9" class="node"><title>Node5</title>
<polygon fill="white" stroke="#bfbfbf" points="437.506,-56.5 437.506,-75.5 518.506,-75.5 518.506,-56.5 437.506,-56.5"/>
<text text-anchor="middle" x="478.006" y="-63.5" font-family="Helvetica,sans-Serif" font-size="10.00">gsl/gsl_linalg.h</text>
</g>
<!-- Node1&#45;&gt;Node5 -->
<g id="edge8" class="edge"><title>Node1&#45;&gt;Node5</title>
<path fill="none" stroke="midnightblue" d="M367.764,-112.444C389.323,-103.557 423.27,-89.5632 447.8,-79.4514"/>
<polygon fill="midnightblue" stroke="midnightblue" points="449.435,-82.5634 457.346,-75.5164 446.767,-76.0917 449.435,-82.5634"/>
</g>
<!-- Node6 -->
<g id="node11" class="node"><title>Node6</title>
<polygon fill="white" stroke="#bfbfbf" points="537.006,-56.5 537.006,-75.5 617.006,-75.5 617.006,-56.5 537.006,-56.5"/>
<text text-anchor="middle" x="577.006" y="-63.5" font-family="Helvetica,sans-Serif" font-size="10.00">gsl/gsl_math.h</text>
</g>
<!-- Node1&#45;&gt;Node6 -->
<g id="edge10" class="edge"><title>Node1&#45;&gt;Node6</title>
<path fill="none" stroke="midnightblue" d="M383.451,-112.444C423.405,-103.063 487.593,-87.9926 530.991,-77.8036"/>
<polygon fill="midnightblue" stroke="midnightblue" points="531.797,-81.2095 540.733,-75.5164 530.197,-74.3948 531.797,-81.2095"/>
</g>
<!-- Node7 -->
<g id="node13" class="node"><title>Node7</title>
<a xlink:href="u_link_8h.html" target="_top" xlink:title="Link initialisation and declarations.">
<polygon fill="white" stroke="black" points="14.5063,-56.5 14.5063,-75.5 65.5063,-75.5 65.5063,-56.5 14.5063,-56.5"/>
<text text-anchor="middle" x="40.0063" y="-63.5" font-family="Helvetica,sans-Serif" font-size="10.00">uLINK.h</text>
</a>
</g>
<!-- Node1&#45;&gt;Node7 -->
<g id="edge12" class="edge"><title>Node1&#45;&gt;Node7</title>
<path fill="none" stroke="midnightblue" d="M305.785,-115.33C254.247,-107.989 163.149,-94.179 75.4105,-75.919"/>
<polygon fill="midnightblue" stroke="midnightblue" points="76.066,-72.4804 65.5597,-73.8468 74.625,-79.3304 76.066,-72.4804"/>
</g>
<!-- Node8 -->
<g id="node17" class="node"><title>Node8</title>
<a xlink:href="_draw_polygon_8h.html" target="_top" xlink:title="DrawPolygon.h">
<polygon fill="white" stroke="black" points="84.0063,-56.5 84.0063,-75.5 166.006,-75.5 166.006,-56.5 84.0063,-56.5"/>
<text text-anchor="middle" x="125.006" y="-63.5" font-family="Helvetica,sans-Serif" font-size="10.00">DrawPolygon.h</text>
</a>
</g>
<!-- Node1&#45;&gt;Node8 -->
<g id="edge18" class="edge"><title>Node1&#45;&gt;Node8</title>
<path fill="none" stroke="midnightblue" d="M311.83,-112.444C273.427,-103.102 211.831,-88.1194 169.951,-77.9326"/>
<polygon fill="midnightblue" stroke="midnightblue" points="170.562,-74.4792 160.018,-75.5164 168.908,-81.2809 170.562,-74.4792"/>
</g>
<!-- Node9 -->
<g id="node21" class="node"><title>Node9</title>
<a xlink:href="_draw_force_marker_8h.html" target="_top" xlink:title="DrawForceMarker.h">
<polygon fill="white" stroke="black" points="184.506,-56.5 184.506,-75.5 285.506,-75.5 285.506,-56.5 184.506,-56.5"/>
<text text-anchor="middle" x="235.006" y="-63.5" font-family="Helvetica,sans-Serif" font-size="10.00">DrawForceMarker.h</text>
</a>
</g>
<!-- Node1&#45;&gt;Node9 -->
<g id="edge24" class="edge"><title>Node1&#45;&gt;Node9</title>
<path fill="none" stroke="midnightblue" d="M329.012,-112.324C310.969,-103.625 282.959,-90.1202 262.204,-80.113"/>
<polygon fill="midnightblue" stroke="midnightblue" points="263.484,-76.8449 252.956,-75.6545 260.444,-83.1502 263.484,-76.8449"/>
</g>
<!-- Node10 -->
<g id="node25" class="node"><title>Node10</title>
<polygon fill="white" stroke="#bfbfbf" points="635.006,-56.5 635.006,-75.5 683.006,-75.5 683.006,-56.5 635.006,-56.5"/>
<text text-anchor="middle" x="659.006" y="-63.5" font-family="Helvetica,sans-Serif" font-size="10.00">GL/gl.h</text>
</g>
<!-- Node1&#45;&gt;Node10 -->
<g id="edge30" class="edge"><title>Node1&#45;&gt;Node10</title>
<path fill="none" stroke="midnightblue" d="M388.39,-115.727C441.17,-108.693 535.405,-95.1045 625.14,-75.9952"/>
<polygon fill="midnightblue" stroke="midnightblue" points="625.891,-79.4137 634.929,-73.8844 624.415,-72.571 625.891,-79.4137"/>
</g>
<!-- Node11 -->
<g id="node27" class="node"><title>Node11</title>
<polygon fill="white" stroke="#bfbfbf" points="701.506,-56.5 701.506,-75.5 754.506,-75.5 754.506,-56.5 701.506,-56.5"/>
<text text-anchor="middle" x="728.006" y="-63.5" font-family="Helvetica,sans-Serif" font-size="10.00">GL/glu.h</text>
</g>
<!-- Node1&#45;&gt;Node11 -->
<g id="edge32" class="edge"><title>Node1&#45;&gt;Node11</title>
<path fill="none" stroke="midnightblue" d="M388.142,-117.184C451.226,-110.994 575.792,-97.4399 691.273,-75.9299"/>
<polygon fill="midnightblue" stroke="midnightblue" points="692.168,-79.3228 701.346,-74.0288 690.87,-72.4443 692.168,-79.3228"/>
</g>
<!-- Node7&#45;&gt;Node2 -->
<g id="edge14" class="edge"><title>Node7&#45;&gt;Node2</title>
<path fill="none" stroke="midnightblue" d="M43.8043,-56.083C46.9191,-48.77 51.4291,-38.1814 55.2956,-29.1034"/>
<polygon fill="midnightblue" stroke="midnightblue" points="58.5804,-30.3229 59.279,-19.7511 52.1403,-27.5798 58.5804,-30.3229"/>
</g>
<!-- Node7&#45;&gt;Node3 -->
<g id="edge16" class="edge"><title>Node7&#45;&gt;Node3</title>
<path fill="none" stroke="midnightblue" d="M65.7565,-56.9157C94.7174,-47.8233 141.998,-32.9795 174.932,-22.6395"/>
<polygon fill="midnightblue" stroke="midnightblue" points="176.164,-25.9213 184.657,-19.5865 174.067,-19.2427 176.164,-25.9213"/>
</g>
<!-- Node8&#45;&gt;Node2 -->
<g id="edge20" class="edge"><title>Node8&#45;&gt;Node2</title>
<path fill="none" stroke="midnightblue" d="M115.045,-56.324C105.88,-48.3414 92.0691,-36.3128 80.9782,-26.6529"/>
<polygon fill="midnightblue" stroke="midnightblue" points="82.9886,-23.7624 73.149,-19.8339 78.3911,-29.041 82.9886,-23.7624"/>
</g>
<!-- Node8&#45;&gt;Node3 -->
<g id="edge22" class="edge"><title>Node8&#45;&gt;Node3</title>
<path fill="none" stroke="midnightblue" d="M138.984,-56.324C152.556,-47.9002 173.387,-34.9709 189.331,-25.0741"/>
<polygon fill="midnightblue" stroke="midnightblue" points="191.412,-27.9019 198.063,-19.6545 187.721,-21.9544 191.412,-27.9019"/>
</g>
<!-- Node9&#45;&gt;Node2 -->
<g id="edge26" class="edge"><title>Node9&#45;&gt;Node2</title>
<path fill="none" stroke="midnightblue" d="M207.752,-56.4435C178.565,-47.2801 132.085,-32.6876 99.6971,-22.5192"/>
<polygon fill="midnightblue" stroke="midnightblue" points="100.722,-19.1726 90.1327,-19.5164 98.6252,-25.8512 100.722,-19.1726"/>
</g>
<!-- Node9&#45;&gt;Node3 -->
<g id="edge28" class="edge"><title>Node9&#45;&gt;Node3</title>
<path fill="none" stroke="midnightblue" d="M231.208,-56.083C228.094,-48.77 223.584,-38.1814 219.717,-29.1034"/>
<polygon fill="midnightblue" stroke="midnightblue" points="222.872,-27.5798 215.734,-19.7511 216.432,-30.3229 222.872,-27.5798"/>
</g>
</g>
</svg>
        <g id="navigator" transform="translate(0 0)" fill="#404254">
                <rect fill="#f2f5e9" fill-opacity="0.5" stroke="#606060" stroke-width=".5" x="0" y="0" width="60" height="60"/>
                <use id="zoomplus" xlink:href="#zoomPlus" x="17" y="9" onmousedown="handleZoom(evt,'in')"/>
                <use id="zoomminus" xlink:href="#zoomMin" x="42" y="9" onmousedown="handleZoom(evt,'out')"/>
                <use id="reset" xlink:href="#resetDef" x="30" y="36" onmousedown="handleReset()"/>
                <g id="arrowUp" xlink:href="#dirArrow" transform="translate(30 24)" onmousedown="handlePan(0,-1)">
                  <use xlink:href="#rim" fill="#404040">
                        <set attributeName="fill" to="#808080" begin="arrowUp.mouseover" end="arrowUp.mouseout"/>
                  </use>
                  <path fill="none" stroke="white" stroke-width="1.5" d="M0,-3.0v7 M-2.5,-0.5L0,-3.0L2.5,-0.5"/>
                </g>
                <g id="arrowRight" xlink:href="#dirArrow" transform="rotate(90) translate(36 -43)" onmousedown="handlePan(1,0)">
                  <use xlink:href="#rim" fill="#404040">
                        <set attributeName="fill" to="#808080" begin="arrowRight.mouseover" end="arrowRight.mouseout"/>
                  </use>
                  <path fill="none" stroke="white" stroke-width="1.5" d="M0,-3.0v7 M-2.5,-0.5L0,-3.0L2.5,-0.5"/>
                </g>
                <g id="arrowDown" xlink:href="#dirArrow" transform="rotate(180) translate(-30 -48)" onmousedown="handlePan(0,1)">
                  <use xlink:href="#rim" fill="#404040">
                        <set attributeName="fill" to="#808080" begin="arrowDown.mouseover" end="arrowDown.mouseout"/>
                  </use>
                  <path fill="none" stroke="white" stroke-width="1.5" d="M0,-3.0v7 M-2.5,-0.5L0,-3.0L2.5,-0.5"/>
                </g>
                <g id="arrowLeft" xlink:href="#dirArrow" transform="rotate(270) translate(-36 17)" onmousedown="handlePan(-1,0)">
                  <use xlink:href="#rim" fill="#404040">
                        <set attributeName="fill" to="#808080" begin="arrowLeft.mouseover" end="arrowLeft.mouseout"/>
                  </use>
                  <path fill="none" stroke="white" stroke-width="1.5" d="M0,-3.0v7 M-2.5,-0.5L0,-3.0L2.5,-0.5"/>
                </g>
        </g>
</svg>
