<?xml version="1.0" encoding="UTF-8" standalone="no"?>
<!DOCTYPE svg PUBLIC "-//W3C//DTD SVG 1.1//EN"
 "http://www.w3.org/Graphics/SVG/1.1/DTD/svg11.dtd">
<!-- Generated by graphviz version 2.28.0 (20110507.0327)
 -->
<!-- Title: G Pages: 1 -->
<svg width="402pt" height="84pt"
 viewBox="0.00 0.00 402.00 84.00" xmlns="http://www.w3.org/2000/svg" xmlns:xlink="http://www.w3.org/1999/xlink">
<g id="graph1" class="graph" transform="scale(1 1) rotate(0) translate(4 80)">
<title>G</title>
<polygon fill="white" stroke="white" points="-4,5 -4,-80 399,-80 399,5 -4,5"/>
<!-- Node1 -->
<g id="node1" class="node"><title>Node1</title>
<polygon fill="#bfbfbf" stroke="black" points="0.5,-30.5 0.5,-49.5 93.5,-49.5 93.5,-30.5 0.5,-30.5"/>
<text text-anchor="middle" x="47" y="-37.5" font-family="Helvetica,sans-Serif" font-size="10.00">DrawForceMarker</text>
</g>
<!-- Node2 -->
<g id="node3" class="node"><title>Node2</title>
<a xlink:href="_draw_indicators_8h.html#a25c2edda1fcf20ca794ee4556ca2a6e0" target="_top" xlink:title="DrawIndicators">
<polygon fill="white" stroke="black" points="240,-56.5 240,-75.5 320,-75.5 320,-56.5 240,-56.5"/>
<text text-anchor="middle" x="280" y="-63.5" font-family="Helvetica,sans-Serif" font-size="10.00">DrawIndicators</text>
</a>
</g>
<!-- Node1&#45;&gt;Node2 -->
<g id="edge2" class="edge"><title>Node1&#45;&gt;Node2</title>
<path fill="none" stroke="midnightblue" d="M103.74,-46.2738C145.863,-51.0148 202.621,-57.4032 239.983,-61.6085"/>
<polygon fill="midnightblue" stroke="midnightblue" points="103.967,-42.7773 93.6382,-45.1368 103.184,-49.7334 103.967,-42.7773"/>
</g>
<!-- Node4 -->
<g id="node7" class="node"><title>Node4</title>
<a xlink:href="_draw_polygon_8h.html#a0b9609ebb13481abf15080f42eafea51" target="_top" xlink:title="DrawPolygon">
<polygon fill="white" stroke="black" points="130,-9.5 130,-28.5 204,-28.5 204,-9.5 130,-9.5"/>
<text text-anchor="middle" x="167" y="-16.5" font-family="Helvetica,sans-Serif" font-size="10.00">DrawPolygon</text>
</a>
</g>
<!-- Node1&#45;&gt;Node4 -->
<g id="edge6" class="edge"><title>Node1&#45;&gt;Node4</title>
<path fill="none" stroke="midnightblue" d="M103.541,-30.1156C112.403,-28.5384 121.37,-26.9426 129.638,-25.4712"/>
<polygon fill="midnightblue" stroke="midnightblue" points="102.854,-26.6828 93.6219,-31.8809 104.08,-33.5745 102.854,-26.6828"/>
</g>
<!-- Node3 -->
<g id="node5" class="node"><title>Node3</title>
<a xlink:href="main_8c.html#a0ddf1224851353fc92bfbff6f499fa97" target="_top" xlink:title="main">
<polygon fill="white" stroke="black" points="356,-28.5 356,-47.5 394,-47.5 394,-28.5 356,-28.5"/>
<text text-anchor="middle" x="375" y="-35.5" font-family="Helvetica,sans-Serif" font-size="10.00">main</text>
</a>
</g>
<!-- Node2&#45;&gt;Node3 -->
<g id="edge4" class="edge"><title>Node2&#45;&gt;Node3</title>
<path fill="none" stroke="midnightblue" d="M322.443,-53.5225C334.19,-49.9858 346.372,-46.318 355.944,-43.4363"/>
<polygon fill="midnightblue" stroke="midnightblue" points="321.312,-50.2079 312.745,-56.4423 323.33,-56.9107 321.312,-50.2079"/>
</g>
<!-- Node5 -->
<g id="node9" class="node"><title>Node5</title>
<a xlink:href="_draw_all_joints_8h.html#ac2cdd09ad3d4b4006066ed8d55fb9c87" target="_top" xlink:title="DrawAllJoints">
<polygon fill="white" stroke="black" points="242.5,-0.5 242.5,-19.5 317.5,-19.5 317.5,-0.5 242.5,-0.5"/>
<text text-anchor="middle" x="280" y="-7.5" font-family="Helvetica,sans-Serif" font-size="10.00">DrawAllJoints</text>
</a>
</g>
<!-- Node4&#45;&gt;Node5 -->
<g id="edge8" class="edge"><title>Node4&#45;&gt;Node5</title>
<path fill="none" stroke="midnightblue" d="M214.079,-15.2638C223.517,-14.4986 233.33,-13.703 242.382,-12.9691"/>
<polygon fill="midnightblue" stroke="midnightblue" points="213.723,-11.7812 204.039,-16.078 214.289,-18.7583 213.723,-11.7812"/>
</g>
<!-- Node5&#45;&gt;Node3 -->
<g id="edge12" class="edge"><title>Node5&#45;&gt;Node3</title>
<path fill="none" stroke="midnightblue" d="M322.443,-22.4775C334.19,-26.0142 346.372,-29.682 355.944,-32.5637"/>
<polygon fill="midnightblue" stroke="midnightblue" points="323.33,-19.0893 312.745,-19.5577 321.312,-25.7921 323.33,-19.0893"/>
</g>
<!-- Node5&#45;&gt;Node5 -->
<g id="edge10" class="edge"><title>Node5&#45;&gt;Node5</title>
<path fill="none" stroke="midnightblue" d="M262.593,-29.4C263.756,-34.3146 269.558,-38 280,-38 296.707,-38 301.536,-28.5653 294.488,-19.7571"/>
<polygon fill="midnightblue" stroke="midnightblue" points="265.965,-30.3422 265.512,-19.7571 259.265,-28.3144 265.965,-30.3422"/>
</g>
</g>
</svg>
