<?xml version="1.0" encoding="UTF-8" standalone="no"?>
<!DOCTYPE svg PUBLIC "-//W3C//DTD SVG 1.1//EN"
 "http://www.w3.org/Graphics/SVG/1.1/DTD/svg11.dtd">
<!-- Generated by graphviz version 2.28.0 (20110507.0327)
 -->
<!-- Title: G Pages: 1 -->
<svg width="377pt" height="84pt"
 viewBox="0.00 0.00 377.00 84.00" xmlns="http://www.w3.org/2000/svg" xmlns:xlink="http://www.w3.org/1999/xlink">
<g id="graph1" class="graph" transform="scale(1 1) rotate(0) translate(4 80)">
<title>G</title>
<polygon fill="white" stroke="white" points="-4,5 -4,-80 374,-80 374,5 -4,5"/>
<!-- Node1 -->
<g id="node1" class="node"><title>Node1</title>
<polygon fill="#bfbfbf" stroke="black" points="160.5,-56.5 160.5,-75.5 237.5,-75.5 237.5,-56.5 160.5,-56.5"/>
<text text-anchor="middle" x="199" y="-63.5" font-family="Helvetica,sans-Serif" font-size="10.00">DrawMarker.h</text>
</g>
<!-- Node2 -->
<g id="node3" class="node"><title>Node2</title>
<a xlink:href="_draw_indicators_8c.html" target="_top" xlink:title="DrawIndicators.c">
<polygon fill="white" stroke="black" points="-0.5,-0.5 -0.5,-19.5 88.5,-19.5 88.5,-0.5 -0.5,-0.5"/>
<text text-anchor="middle" x="44" y="-7.5" font-family="Helvetica,sans-Serif" font-size="10.00">DrawIndicators.c</text>
</a>
</g>
<!-- Node1&#45;&gt;Node2 -->
<g id="edge2" class="edge"><title>Node1&#45;&gt;Node2</title>
<path fill="none" stroke="midnightblue" d="M164.668,-53.0392C135.503,-42.8786 94.3627,-28.5457 68.4453,-19.5164"/>
<polygon fill="midnightblue" stroke="midnightblue" points="163.845,-56.4587 174.44,-56.4435 166.148,-49.8484 163.845,-56.4587"/>
</g>
<!-- Node3 -->
<g id="node5" class="node"><title>Node3</title>
<a xlink:href="_draw_marker_8c.html" target="_top" xlink:title="DrawMarker.c">
<polygon fill="white" stroke="black" points="106.5,-0.5 106.5,-19.5 183.5,-19.5 183.5,-0.5 106.5,-0.5"/>
<text text-anchor="middle" x="145" y="-7.5" font-family="Helvetica,sans-Serif" font-size="10.00">DrawMarker.c</text>
</a>
</g>
<!-- Node1&#45;&gt;Node3 -->
<g id="edge4" class="edge"><title>Node1&#45;&gt;Node3</title>
<path fill="none" stroke="midnightblue" d="M183.002,-49.0024C173.433,-39.4329 161.639,-27.6389 153.751,-19.7511"/>
<polygon fill="midnightblue" stroke="midnightblue" points="180.537,-51.4868 190.083,-56.083 185.487,-46.537 180.537,-51.4868"/>
</g>
<!-- Node4 -->
<g id="node7" class="node"><title>Node4</title>
<a xlink:href="_forward_dynamics_8c.html" target="_top" xlink:title="ForwardDynamics.c">
<polygon fill="white" stroke="black" points="201.5,-0.5 201.5,-19.5 304.5,-19.5 304.5,-0.5 201.5,-0.5"/>
<text text-anchor="middle" x="253" y="-7.5" font-family="Helvetica,sans-Serif" font-size="10.00">ForwardDynamics.c</text>
</a>
</g>
<!-- Node1&#45;&gt;Node4 -->
<g id="edge6" class="edge"><title>Node1&#45;&gt;Node4</title>
<path fill="none" stroke="midnightblue" d="M214.998,-49.0024C224.567,-39.4329 236.361,-27.6389 244.249,-19.7511"/>
<polygon fill="midnightblue" stroke="midnightblue" points="212.513,-46.537 207.917,-56.083 217.463,-51.4868 212.513,-46.537"/>
</g>
<!-- Node5 -->
<g id="node9" class="node"><title>Node5</title>
<a xlink:href="main_8c.html" target="_top" xlink:title="This is the multi body simulator.">
<polygon fill="white" stroke="black" points="323,-0.5 323,-19.5 369,-19.5 369,-0.5 323,-0.5"/>
<text text-anchor="middle" x="346" y="-7.5" font-family="Helvetica,sans-Serif" font-size="10.00">main.c</text>
</a>
</g>
<!-- Node1&#45;&gt;Node5 -->
<g id="edge8" class="edge"><title>Node1&#45;&gt;Node5</title>
<path fill="none" stroke="midnightblue" d="M231.923,-52.9058C259.56,-42.7536 298.344,-28.5063 322.816,-19.5164"/>
<polygon fill="midnightblue" stroke="midnightblue" points="230.472,-49.71 222.293,-56.4435 232.886,-56.2806 230.472,-49.71"/>
</g>
</g>
</svg>
