<?xml version="1.0" encoding="UTF-8" standalone="no"?>
<!DOCTYPE svg PUBLIC "-//W3C//DTD SVG 1.1//EN"
 "http://www.w3.org/Graphics/SVG/1.1/DTD/svg11.dtd">
<!-- Generated by graphviz version 2.28.0 (20110507.0327)
 -->
<!-- Title: G Pages: 1 -->
<svg width="270pt" height="65pt"
 viewBox="0.00 0.00 270.00 65.00" xmlns="http://www.w3.org/2000/svg" xmlns:xlink="http://www.w3.org/1999/xlink">
<g id="graph1" class="graph" transform="scale(1 1) rotate(0) translate(4 61)">
<title>G</title>
<polygon fill="white" stroke="white" points="-4,5 -4,-61 267,-61 267,5 -4,5"/>
<!-- Node1 -->
<g id="node1" class="node"><title>Node1</title>
<polygon fill="#bfbfbf" stroke="black" points="0.5,-0.5 0.5,-19.5 75.5,-19.5 75.5,-0.5 0.5,-0.5"/>
<text text-anchor="middle" x="38" y="-7.5" font-family="Helvetica,sans-Serif" font-size="10.00">DrawAllJoints</text>
</g>
<!-- Node2 -->
<g id="node3" class="node"><title>Node2</title>
<a xlink:href="_draw_all_joints_8h.html#ac2cdd09ad3d4b4006066ed8d55fb9c87" target="_top" xlink:title="DrawAllJoints">
<polygon fill="white" stroke="black" points="112.5,-19.5 112.5,-38.5 187.5,-38.5 187.5,-19.5 112.5,-19.5"/>
<text text-anchor="middle" x="150" y="-26.5" font-family="Helvetica,sans-Serif" font-size="10.00">DrawAllJoints</text>
</a>
</g>
<!-- Node1&#45;&gt;Node2 -->
<g id="edge2" class="edge"><title>Node1&#45;&gt;Node2</title>
<path fill="none" stroke="midnightblue" d="M85.4989,-18.0316C94.4014,-19.5693 103.608,-21.1596 112.156,-22.6361"/>
<polygon fill="midnightblue" stroke="midnightblue" points="86.0782,-14.5799 75.6284,-16.3267 84.8867,-21.4778 86.0782,-14.5799"/>
</g>
<!-- Node3 -->
<g id="node6" class="node"><title>Node3</title>
<a xlink:href="main_8c.html#a0ddf1224851353fc92bfbff6f499fa97" target="_top" xlink:title="main">
<polygon fill="white" stroke="black" points="224,-0.5 224,-19.5 262,-19.5 262,-0.5 224,-0.5"/>
<text text-anchor="middle" x="243" y="-7.5" font-family="Helvetica,sans-Serif" font-size="10.00">main</text>
</a>
</g>
<!-- Node1&#45;&gt;Node3 -->
<g id="edge8" class="edge"><title>Node1&#45;&gt;Node3</title>
<path fill="none" stroke="midnightblue" d="M85.9337,-10C129.897,-10 193.296,-10 223.993,-10"/>
<polygon fill="midnightblue" stroke="midnightblue" points="85.7618,-6.5001 75.7618,-10 85.7617,-13.5001 85.7618,-6.5001"/>
</g>
<!-- Node2&#45;&gt;Node2 -->
<g id="edge4" class="edge"><title>Node2&#45;&gt;Node2</title>
<path fill="none" stroke="midnightblue" d="M132.964,-48.4C134.102,-53.3146 139.78,-57 150,-57 166.352,-57 171.078,-47.5653 164.18,-38.7571"/>
<polygon fill="midnightblue" stroke="midnightblue" points="136.336,-49.3393 135.82,-38.7571 129.624,-47.3512 136.336,-49.3393"/>
</g>
<!-- Node2&#45;&gt;Node3 -->
<g id="edge6" class="edge"><title>Node2&#45;&gt;Node3</title>
<path fill="none" stroke="midnightblue" d="M197.775,-19.2338C207.055,-17.2963 216.264,-15.3735 223.856,-13.7882"/>
<polygon fill="midnightblue" stroke="midnightblue" points="196.824,-15.8567 187.751,-21.3267 198.255,-22.7089 196.824,-15.8567"/>
</g>
</g>
</svg>
