<?xml version="1.0" encoding="UTF-8" standalone="no"?>
<!DOCTYPE svg PUBLIC "-//W3C//DTD SVG 1.1//EN"
 "http://www.w3.org/Graphics/SVG/1.1/DTD/svg11.dtd">
<!-- Generated by graphviz version 2.28.0 (20110507.0327)
 -->
<!-- Title: G Pages: 1 -->
<!--zoomable-->
<svg id="main" version="1.1" xmlns="http://www.w3.org/2000/svg" xmlns:xlink="http://www.w3.org/1999/xlink" xml:space="preserve" onload="init(evt)">
        <defs>
                <circle id="rim" cx="0" cy="0" r="7"/>
                <circle id="rim2" cx="0" cy="0" r="3.5"/>
                <g id="zoomPlus">
                        <use xlink:href="#rim" fill="#404040">
                                <set attributeName="fill" to="#808080" begin="zoomplus.mouseover" end="zoomplus.mouseout"/>
                        </use>
                        <path d="M-4,0h8M0,-4v8" fill="none" stroke="white" stroke-width="1.5" pointer-events="none"/>
                </g>
                <g id="zoomMin">
                        <use xlink:href="#rim" fill="#404040">
                                <set attributeName="fill" to="#808080" begin="zoomminus.mouseover" end="zoomminus.mouseout"/>
                        </use>
                        <path d="M-4,0h8" fill="none" stroke="white" stroke-width="1.5" pointer-events="none"/>
                </g>
                <g id="dirArrow">
                        <path fill="none" stroke="white" stroke-width="1.5" d="M0,-3.0v7 M-2.5,-0.5L0,-3.0L2.5,-0.5"/>
                </g>
               <g id="resetDef">
                       <use xlink:href="#rim2" fill="#404040">
                               <set attributeName="fill" to="#808080" begin="reset.mouseover" end="reset.mouseout"/>
                       </use>
               </g>
        </defs>

<script type="text/javascript">
var viewWidth = 825;
var viewHeight = 140;
var sectionId = 'dynsection-0';
</script>
<script xlink:href="svgpan.js"/>
<svg id="graph" class="graph">
<g id="viewport">
<title>G</title>
<polygon fill="white" stroke="white" points="-4,5 -4,-136 822.186,-136 822.186,5 -4,5"/>
<!-- Node1 -->
<g id="node1" class="node"><title>Node1</title>
<polygon fill="#bfbfbf" stroke="black" points="337.686,-112.5 337.686,-131.5 428.686,-131.5 428.686,-112.5 337.686,-112.5"/>
<text text-anchor="middle" x="383.186" y="-119.5" font-family="Helvetica,sans-Serif" font-size="10.00">ExternalForces.c</text>
</g>
<!-- Node2 -->
<g id="node3" class="node"><title>Node2</title>
<polygon fill="white" stroke="#bfbfbf" points="120.186,-0.5 120.186,-19.5 204.186,-19.5 204.186,-0.5 120.186,-0.5"/>
<text text-anchor="middle" x="162.186" y="-7.5" font-family="Helvetica,sans-Serif" font-size="10.00">gsl/gsl_vector.h</text>
</g>
<!-- Node1&#45;&gt;Node2 -->
<g id="edge2" class="edge"><title>Node1&#45;&gt;Node2</title>
<path fill="none" stroke="midnightblue" d="M337.478,-118.856C242.273,-113.921 29.7261,-100.28 8.18564,-76 -24.3588,-39.3167 53.1613,-22.7403 109.622,-15.7096"/>
<polygon fill="midnightblue" stroke="midnightblue" points="110.364,-19.1467 119.888,-14.5052 109.548,-12.1943 110.364,-19.1467"/>
</g>
<!-- Node3 -->
<g id="node5" class="node"><title>Node3</title>
<polygon fill="white" stroke="#bfbfbf" points="243.186,-0.5 243.186,-19.5 329.186,-19.5 329.186,-0.5 243.186,-0.5"/>
<text text-anchor="middle" x="286.186" y="-7.5" font-family="Helvetica,sans-Serif" font-size="10.00">gsl/gsl_matrix.h</text>
</g>
<!-- Node1&#45;&gt;Node3 -->
<g id="edge4" class="edge"><title>Node1&#45;&gt;Node3</title>
<path fill="none" stroke="midnightblue" d="M396.343,-112.452C414.024,-99.8951 441.655,-75.8064 427.186,-56 407.235,-28.6904 370.527,-17.5675 339.566,-13.2058"/>
<polygon fill="midnightblue" stroke="midnightblue" points="339.666,-9.69262 329.32,-11.9722 338.83,-16.6424 339.666,-9.69262"/>
</g>
<!-- Node4 -->
<g id="node7" class="node"><title>Node4</title>
<polygon fill="white" stroke="#bfbfbf" points="474.686,-56.5 474.686,-75.5 551.686,-75.5 551.686,-56.5 474.686,-56.5"/>
<text text-anchor="middle" x="513.186" y="-63.5" font-family="Helvetica,sans-Serif" font-size="10.00">gsl/gsl_blas.h</text>
</g>
<!-- Node1&#45;&gt;Node4 -->
<g id="edge6" class="edge"><title>Node1&#45;&gt;Node4</title>
<path fill="none" stroke="midnightblue" d="M403.785,-112.444C425.179,-103.557 458.867,-89.5632 483.21,-79.4514"/>
<polygon fill="midnightblue" stroke="midnightblue" points="484.791,-82.5848 492.683,-75.5164 482.106,-76.1203 484.791,-82.5848"/>
</g>
<!-- Node5 -->
<g id="node9" class="node"><title>Node5</title>
<polygon fill="white" stroke="#bfbfbf" points="569.686,-56.5 569.686,-75.5 650.686,-75.5 650.686,-56.5 569.686,-56.5"/>
<text text-anchor="middle" x="610.186" y="-63.5" font-family="Helvetica,sans-Serif" font-size="10.00">gsl/gsl_linalg.h</text>
</g>
<!-- Node1&#45;&gt;Node5 -->
<g id="edge8" class="edge"><title>Node1&#45;&gt;Node5</title>
<path fill="none" stroke="midnightblue" d="M419.154,-112.444C458.505,-103.083 521.672,-88.0561 564.5,-77.868"/>
<polygon fill="midnightblue" stroke="midnightblue" points="565.467,-81.2358 574.385,-75.5164 563.847,-74.4258 565.467,-81.2358"/>
</g>
<!-- Node6 -->
<g id="node11" class="node"><title>Node6</title>
<polygon fill="white" stroke="#bfbfbf" points="669.186,-56.5 669.186,-75.5 749.186,-75.5 749.186,-56.5 669.186,-56.5"/>
<text text-anchor="middle" x="709.186" y="-63.5" font-family="Helvetica,sans-Serif" font-size="10.00">gsl/gsl_math.h</text>
</g>
<!-- Node1&#45;&gt;Node6 -->
<g id="edge10" class="edge"><title>Node1&#45;&gt;Node6</title>
<path fill="none" stroke="midnightblue" d="M429.129,-113.746C483.938,-105.038 578.318,-89.8696 659.186,-76 659.286,-75.9828 659.387,-75.9655 659.488,-75.9482"/>
<polygon fill="midnightblue" stroke="midnightblue" points="659.827,-79.4418 669.079,-74.2792 658.627,-72.5455 659.827,-79.4418"/>
</g>
<!-- Node7 -->
<g id="node13" class="node"><title>Node7</title>
<a xlink:href="u_link_8h.html" target="_top" xlink:title="Link initialisation and declarations.">
<polygon fill="white" stroke="black" points="126.686,-56.5 126.686,-75.5 177.686,-75.5 177.686,-56.5 126.686,-56.5"/>
<text text-anchor="middle" x="152.186" y="-63.5" font-family="Helvetica,sans-Serif" font-size="10.00">uLINK.h</text>
</a>
</g>
<!-- Node1&#45;&gt;Node7 -->
<g id="edge12" class="edge"><title>Node1&#45;&gt;Node7</title>
<path fill="none" stroke="midnightblue" d="M344.808,-112.499C307.253,-104.111 248.184,-90.7349 187.526,-76.0337"/>
<polygon fill="midnightblue" stroke="midnightblue" points="188.325,-72.6258 177.781,-73.6634 186.67,-79.4276 188.325,-72.6258"/>
</g>
<!-- Node8 -->
<g id="node17" class="node"><title>Node8</title>
<a xlink:href="_cross_8h.html" target="_top" xlink:title="Cross.h">
<polygon fill="white" stroke="black" points="196.186,-56.5 196.186,-75.5 246.186,-75.5 246.186,-56.5 196.186,-56.5"/>
<text text-anchor="middle" x="221.186" y="-63.5" font-family="Helvetica,sans-Serif" font-size="10.00">Cross.h</text>
</a>
</g>
<!-- Node1&#45;&gt;Node8 -->
<g id="edge18" class="edge"><title>Node1&#45;&gt;Node8</title>
<path fill="none" stroke="midnightblue" d="M357.516,-112.444C330.103,-103.306 286.492,-88.7689 255.999,-78.6044"/>
<polygon fill="midnightblue" stroke="midnightblue" points="256.796,-75.1809 246.203,-75.339 254.583,-81.8217 256.796,-75.1809"/>
</g>
<!-- Node9 -->
<g id="node21" class="node"><title>Node9</title>
<a xlink:href="_calc_co_m_8h.html" target="_top" xlink:title="CalcCoM.h">
<polygon fill="white" stroke="black" points="264.686,-56.5 264.686,-75.5 329.686,-75.5 329.686,-56.5 264.686,-56.5"/>
<text text-anchor="middle" x="297.186" y="-63.5" font-family="Helvetica,sans-Serif" font-size="10.00">CalcCoM.h</text>
</a>
</g>
<!-- Node1&#45;&gt;Node9 -->
<g id="edge24" class="edge"><title>Node1&#45;&gt;Node9</title>
<path fill="none" stroke="midnightblue" d="M369.368,-112.324C355.953,-103.9 335.362,-90.9709 319.6,-81.0741"/>
<polygon fill="midnightblue" stroke="midnightblue" points="321.299,-78.0081 310.969,-75.6545 317.576,-83.9364 321.299,-78.0081"/>
</g>
<!-- Node10 -->
<g id="node25" class="node"><title>Node10</title>
<a xlink:href="_total_mass_8h.html" target="_top" xlink:title="TotalMass.h">
<polygon fill="white" stroke="black" points="348.186,-56.5 348.186,-75.5 418.186,-75.5 418.186,-56.5 348.186,-56.5"/>
<text text-anchor="middle" x="383.186" y="-63.5" font-family="Helvetica,sans-Serif" font-size="10.00">TotalMass.h</text>
</a>
</g>
<!-- Node1&#45;&gt;Node10 -->
<g id="edge30" class="edge"><title>Node1&#45;&gt;Node10</title>
<path fill="none" stroke="midnightblue" d="M383.186,-112.083C383.186,-105.006 383.186,-94.8611 383.186,-85.9865"/>
<polygon fill="midnightblue" stroke="midnightblue" points="386.686,-85.751 383.186,-75.7511 379.686,-85.7511 386.686,-85.751"/>
</g>
<!-- Node11 -->
<g id="node29" class="node"><title>Node11</title>
<a xlink:href="_external_forces_8h.html" target="_top" xlink:title="ExternalForces.h">
<polygon fill="white" stroke="black" points="17.6856,-56.5 17.6856,-75.5 108.686,-75.5 108.686,-56.5 17.6856,-56.5"/>
<text text-anchor="middle" x="63.1856" y="-63.5" font-family="Helvetica,sans-Serif" font-size="10.00">ExternalForces.h</text>
</a>
</g>
<!-- Node1&#45;&gt;Node11 -->
<g id="edge36" class="edge"><title>Node1&#45;&gt;Node11</title>
<path fill="none" stroke="midnightblue" d="M337.677,-113.32C280.06,-103.598 180.847,-86.8554 118.799,-76.3848"/>
<polygon fill="midnightblue" stroke="midnightblue" points="119.239,-72.9096 108.796,-74.6967 118.074,-79.812 119.239,-72.9096"/>
</g>
<!-- Node12 -->
<g id="node33" class="node"><title>Node12</title>
<a xlink:href="_setup_8h.html" target="_top" xlink:title="Contain setup of simulations.">
<polygon fill="white" stroke="black" points="767.186,-56.5 767.186,-75.5 817.186,-75.5 817.186,-56.5 767.186,-56.5"/>
<text text-anchor="middle" x="792.186" y="-63.5" font-family="Helvetica,sans-Serif" font-size="10.00">Setup.h</text>
</a>
</g>
<!-- Node1&#45;&gt;Node12 -->
<g id="edge42" class="edge"><title>Node1&#45;&gt;Node12</title>
<path fill="none" stroke="midnightblue" d="M428.814,-117.588C497.86,-111.975 633.116,-99.2213 756.987,-75.9889"/>
<polygon fill="midnightblue" stroke="midnightblue" points="757.855,-79.3866 767.024,-74.0783 756.546,-72.5101 757.855,-79.3866"/>
</g>
<!-- Node7&#45;&gt;Node2 -->
<g id="edge14" class="edge"><title>Node7&#45;&gt;Node2</title>
<path fill="none" stroke="midnightblue" d="M153.837,-56.083C155.162,-48.9272 157.068,-38.6353 158.724,-29.6911"/>
<polygon fill="midnightblue" stroke="midnightblue" points="162.186,-30.2212 160.565,-19.7511 155.303,-28.9466 162.186,-30.2212"/>
</g>
<!-- Node7&#45;&gt;Node3 -->
<g id="edge16" class="edge"><title>Node7&#45;&gt;Node3</title>
<path fill="none" stroke="midnightblue" d="M173.418,-56.4435C195.569,-47.5171 230.504,-33.4387 255.622,-23.3168"/>
<polygon fill="midnightblue" stroke="midnightblue" points="257.085,-26.5006 265.052,-19.5164 254.469,-20.0079 257.085,-26.5006"/>
</g>
<!-- Node8&#45;&gt;Node2 -->
<g id="edge20" class="edge"><title>Node8&#45;&gt;Node2</title>
<path fill="none" stroke="midnightblue" d="M211.706,-56.324C202.985,-48.3414 189.842,-36.3128 179.288,-26.6529"/>
<polygon fill="midnightblue" stroke="midnightblue" points="181.577,-24.0036 171.837,-19.8339 176.851,-29.1674 181.577,-24.0036"/>
</g>
<!-- Node8&#45;&gt;Node3 -->
<g id="edge22" class="edge"><title>Node8&#45;&gt;Node3</title>
<path fill="none" stroke="midnightblue" d="M231.629,-56.324C241.332,-48.2631 256.001,-36.0765 267.685,-26.3695"/>
<polygon fill="midnightblue" stroke="midnightblue" points="270.097,-28.9163 275.552,-19.8339 265.624,-23.532 270.097,-28.9163"/>
</g>
<!-- Node9&#45;&gt;Node2 -->
<g id="edge26" class="edge"><title>Node9&#45;&gt;Node2</title>
<path fill="none" stroke="midnightblue" d="M275.794,-56.4435C253.478,-47.5171 218.282,-33.4387 192.978,-23.3168"/>
<polygon fill="midnightblue" stroke="midnightblue" points="194.061,-19.9807 183.477,-19.5164 191.462,-26.4801 194.061,-19.9807"/>
</g>
<!-- Node9&#45;&gt;Node3 -->
<g id="edge28" class="edge"><title>Node9&#45;&gt;Node3</title>
<path fill="none" stroke="midnightblue" d="M295.369,-56.083C293.912,-48.9272 291.815,-38.6353 289.993,-29.6911"/>
<polygon fill="midnightblue" stroke="midnightblue" points="293.394,-28.8512 287.968,-19.7511 286.535,-30.2485 293.394,-28.8512"/>
</g>
<!-- Node10&#45;&gt;Node2 -->
<g id="edge32" class="edge"><title>Node10&#45;&gt;Node2</title>
<path fill="none" stroke="midnightblue" d="M348.168,-56.4435C309.938,-47.1024 248.619,-32.1194 206.928,-21.9326"/>
<polygon fill="midnightblue" stroke="midnightblue" points="207.585,-18.4901 197.04,-19.5164 205.923,-25.2901 207.585,-18.4901"/>
</g>
<!-- Node10&#45;&gt;Node3 -->
<g id="edge34" class="edge"><title>Node10&#45;&gt;Node3</title>
<path fill="none" stroke="midnightblue" d="M367.601,-56.324C352.187,-47.7428 328.373,-34.486 310.476,-24.5224"/>
<polygon fill="midnightblue" stroke="midnightblue" points="312.171,-21.4606 301.732,-19.6545 308.767,-27.5767 312.171,-21.4606"/>
</g>
<!-- Node11&#45;&gt;Node2 -->
<g id="edge38" class="edge"><title>Node11&#45;&gt;Node2</title>
<path fill="none" stroke="midnightblue" d="M79.0917,-56.324C94.8239,-47.7428 119.128,-34.486 137.395,-24.5224"/>
<polygon fill="midnightblue" stroke="midnightblue" points="139.216,-27.5157 146.319,-19.6545 135.864,-21.3704 139.216,-27.5157"/>
</g>
<!-- Node11&#45;&gt;Node3 -->
<g id="edge40" class="edge"><title>Node11&#45;&gt;Node3</title>
<path fill="none" stroke="midnightblue" d="M98.5207,-56.4435C137.096,-47.1024 198.97,-32.1194 241.038,-21.9326"/>
<polygon fill="midnightblue" stroke="midnightblue" points="242.121,-25.2717 251.016,-19.5164 240.473,-18.4683 242.121,-25.2717"/>
</g>
</g>
</svg>
        <g id="navigator" transform="translate(0 0)" fill="#404254">
                <rect fill="#f2f5e9" fill-opacity="0.5" stroke="#606060" stroke-width=".5" x="0" y="0" width="60" height="60"/>
                <use id="zoomplus" xlink:href="#zoomPlus" x="17" y="9" onmousedown="handleZoom(evt,'in')"/>
                <use id="zoomminus" xlink:href="#zoomMin" x="42" y="9" onmousedown="handleZoom(evt,'out')"/>
                <use id="reset" xlink:href="#resetDef" x="30" y="36" onmousedown="handleReset()"/>
                <g id="arrowUp" xlink:href="#dirArrow" transform="translate(30 24)" onmousedown="handlePan(0,-1)">
                  <use xlink:href="#rim" fill="#404040">
                        <set attributeName="fill" to="#808080" begin="arrowUp.mouseover" end="arrowUp.mouseout"/>
                  </use>
                  <path fill="none" stroke="white" stroke-width="1.5" d="M0,-3.0v7 M-2.5,-0.5L0,-3.0L2.5,-0.5"/>
                </g>
                <g id="arrowRight" xlink:href="#dirArrow" transform="rotate(90) translate(36 -43)" onmousedown="handlePan(1,0)">
                  <use xlink:href="#rim" fill="#404040">
                        <set attributeName="fill" to="#808080" begin="arrowRight.mouseover" end="arrowRight.mouseout"/>
                  </use>
                  <path fill="none" stroke="white" stroke-width="1.5" d="M0,-3.0v7 M-2.5,-0.5L0,-3.0L2.5,-0.5"/>
                </g>
                <g id="arrowDown" xlink:href="#dirArrow" transform="rotate(180) translate(-30 -48)" onmousedown="handlePan(0,1)">
                  <use xlink:href="#rim" fill="#404040">
                        <set attributeName="fill" to="#808080" begin="arrowDown.mouseover" end="arrowDown.mouseout"/>
                  </use>
                  <path fill="none" stroke="white" stroke-width="1.5" d="M0,-3.0v7 M-2.5,-0.5L0,-3.0L2.5,-0.5"/>
                </g>
                <g id="arrowLeft" xlink:href="#dirArrow" transform="rotate(270) translate(-36 17)" onmousedown="handlePan(-1,0)">
                  <use xlink:href="#rim" fill="#404040">
                        <set attributeName="fill" to="#808080" begin="arrowLeft.mouseover" end="arrowLeft.mouseout"/>
                  </use>
                  <path fill="none" stroke="white" stroke-width="1.5" d="M0,-3.0v7 M-2.5,-0.5L0,-3.0L2.5,-0.5"/>
                </g>
        </g>
</svg>
