<?xml version="1.0" encoding="UTF-8" standalone="no"?>
<!DOCTYPE svg PUBLIC "-//W3C//DTD SVG 1.1//EN"
 "http://www.w3.org/Graphics/SVG/1.1/DTD/svg11.dtd">
<!-- Generated by graphviz version 2.28.0 (20110507.0327)
 -->
<!-- Title: G Pages: 1 -->
<svg width="170pt" height="46pt"
 viewBox="0.00 0.00 170.00 46.00" xmlns="http://www.w3.org/2000/svg" xmlns:xlink="http://www.w3.org/1999/xlink">
<g id="graph1" class="graph" transform="scale(1 1) rotate(0) translate(4 42)">
<title>G</title>
<polygon fill="white" stroke="white" points="-4,5 -4,-42 167,-42 167,5 -4,5"/>
<!-- Node1 -->
<g id="node1" class="node"><title>Node1</title>
<polygon fill="#bfbfbf" stroke="black" points="0.5,-0.5 0.5,-19.5 83.5,-19.5 83.5,-0.5 0.5,-0.5"/>
<text text-anchor="middle" x="42" y="-7.5" font-family="Helvetica,sans-Serif" font-size="10.00">ExternalForces</text>
</g>
<!-- Node1&#45;&gt;Node1 -->
<g id="edge4" class="edge"><title>Node1&#45;&gt;Node1</title>
<path fill="none" stroke="midnightblue" d="M26.8954,-19.7571C19.5471,-28.5653 24.582,-38 42,-38 52.8862,-38 58.9353,-34.3146 60.1473,-29.4"/>
<polygon fill="midnightblue" stroke="midnightblue" points="63.4515,-28.2404 57.1046,-19.7571 56.776,-30.3468 63.4515,-28.2404"/>
</g>
<!-- Node2 -->
<g id="node3" class="node"><title>Node2</title>
<a xlink:href="_cross_8c.html#ae694d97c46b1d90555b4e9a1809baeb3" target="_top" xlink:title="Cross">
<polygon fill="white" stroke="black" points="120,-0.5 120,-19.5 162,-19.5 162,-0.5 120,-0.5"/>
<text text-anchor="middle" x="141" y="-7.5" font-family="Helvetica,sans-Serif" font-size="10.00">Cross</text>
</a>
</g>
<!-- Node1&#45;&gt;Node2 -->
<g id="edge2" class="edge"><title>Node1&#45;&gt;Node2</title>
<path fill="none" stroke="midnightblue" d="M83.5747,-10C92.4084,-10 101.603,-10 109.942,-10"/>
<polygon fill="midnightblue" stroke="midnightblue" points="109.957,-13.5001 119.957,-10 109.957,-6.5001 109.957,-13.5001"/>
</g>
</g>
</svg>
