<?xml version="1.0" encoding="UTF-8" standalone="no"?>
<!DOCTYPE svg PUBLIC "-//W3C//DTD SVG 1.1//EN"
 "http://www.w3.org/Graphics/SVG/1.1/DTD/svg11.dtd">
<!-- Generated by graphviz version 2.28.0 (20110507.0327)
 -->
<!-- Title: G Pages: 1 -->
<svg width="290pt" height="57pt"
 viewBox="0.00 0.00 290.00 57.03" xmlns="http://www.w3.org/2000/svg" xmlns:xlink="http://www.w3.org/1999/xlink">
<g id="graph1" class="graph" transform="scale(1 1) rotate(0) translate(4 53.0284)">
<title>G</title>
<polygon fill="white" stroke="white" points="-4,5 -4,-53.0284 287,-53.0284 287,5 -4,5"/>
<!-- Node1 -->
<g id="node1" class="node"><title>Node1</title>
<polygon fill="#bfbfbf" stroke="black" points="0.5,-28.5 0.5,-47.5 83.5,-47.5 83.5,-28.5 0.5,-28.5"/>
<text text-anchor="middle" x="42" y="-35.5" font-family="Helvetica,sans-Serif" font-size="10.00">ExternalForces</text>
</g>
<!-- Node2 -->
<g id="node3" class="node"><title>Node2</title>
<a xlink:href="_cross_8c.html#ae694d97c46b1d90555b4e9a1809baeb3" target="_top" xlink:title="Cross">
<polygon fill="white" stroke="black" points="240,-28.5 240,-47.5 282,-47.5 282,-28.5 240,-28.5"/>
<text text-anchor="middle" x="261" y="-35.5" font-family="Helvetica,sans-Serif" font-size="10.00">Cross</text>
</a>
</g>
<!-- Node1&#45;&gt;Node2 -->
<g id="edge2" class="edge"><title>Node1&#45;&gt;Node2</title>
<path fill="none" stroke="midnightblue" d="M83.683,-43.651C95.3825,-45.0327 108.176,-46.3113 120,-47 157.27,-49.1707 166.785,-49.9714 204,-47 212.42,-46.3277 221.485,-45.0954 229.817,-43.7539"/>
<polygon fill="midnightblue" stroke="midnightblue" points="230.611,-47.1691 239.876,-42.0303 229.428,-40.2696 230.611,-47.1691"/>
</g>
<!-- Node3 -->
<g id="node5" class="node"><title>Node3</title>
<a xlink:href="_external_forces_8c.html#a54d22e224db2a33d86207a6a0d5562fe" target="_top" xlink:title="ExternalForces">
<polygon fill="white" stroke="black" points="120.5,-0.5 120.5,-19.5 203.5,-19.5 203.5,-0.5 120.5,-0.5"/>
<text text-anchor="middle" x="162" y="-7.5" font-family="Helvetica,sans-Serif" font-size="10.00">ExternalForces</text>
</a>
</g>
<!-- Node1&#45;&gt;Node3 -->
<g id="edge4" class="edge"><title>Node1&#45;&gt;Node3</title>
<path fill="none" stroke="midnightblue" d="M83.2789,-28.4423C92.2024,-26.3248 101.763,-24.0561 111.021,-21.8594"/>
<polygon fill="midnightblue" stroke="midnightblue" points="111.981,-25.2289 120.903,-19.5146 110.365,-18.418 111.981,-25.2289"/>
</g>
<!-- Node3&#45;&gt;Node2 -->
<g id="edge6" class="edge"><title>Node3&#45;&gt;Node2</title>
<path fill="none" stroke="midnightblue" d="M196.111,-19.5577C207.091,-22.7272 219.245,-26.2356 229.979,-29.3341"/>
<polygon fill="midnightblue" stroke="midnightblue" points="229.172,-32.7441 239.751,-32.1548 231.113,-26.0186 229.172,-32.7441"/>
</g>
<!-- Node3&#45;&gt;Node3 -->
<g id="edge8" class="edge"><title>Node3&#45;&gt;Node3</title>
<path fill="none" stroke="midnightblue" d="M146.895,-19.7571C139.547,-28.5653 144.582,-38 162,-38 172.886,-38 178.935,-34.3146 180.147,-29.4"/>
<polygon fill="midnightblue" stroke="midnightblue" points="183.452,-28.2404 177.105,-19.7571 176.776,-30.3468 183.452,-28.2404"/>
</g>
</g>
</svg>
