<?xml version="1.0" encoding="UTF-8" standalone="no"?>
<!DOCTYPE svg PUBLIC "-//W3C//DTD SVG 1.1//EN"
 "http://www.w3.org/Graphics/SVG/1.1/DTD/svg11.dtd">
<!-- Generated by graphviz version 2.28.0 (20110507.0327)
 -->
<!-- Title: G Pages: 1 -->
<svg width="418pt" height="65pt"
 viewBox="0.00 0.00 418.00 65.00" xmlns="http://www.w3.org/2000/svg" xmlns:xlink="http://www.w3.org/1999/xlink">
<g id="graph1" class="graph" transform="scale(1 1) rotate(0) translate(4 61)">
<title>G</title>
<polygon fill="white" stroke="white" points="-4,5 -4,-61 415,-61 415,5 -4,5"/>
<!-- Node1 -->
<g id="node1" class="node"><title>Node1</title>
<polygon fill="#bfbfbf" stroke="black" points="0.5,-0.5 0.5,-19.5 83.5,-19.5 83.5,-0.5 0.5,-0.5"/>
<text text-anchor="middle" x="42" y="-7.5" font-family="Helvetica,sans-Serif" font-size="10.00">ExternalForces</text>
</g>
<!-- Node2 -->
<g id="node3" class="node"><title>Node2</title>
<a xlink:href="_external_forces_8h.html#a54d22e224db2a33d86207a6a0d5562fe" target="_top" xlink:title="ExternalForces">
<polygon fill="white" stroke="black" points="120.5,-19.5 120.5,-38.5 203.5,-38.5 203.5,-19.5 120.5,-19.5"/>
<text text-anchor="middle" x="162" y="-26.5" font-family="Helvetica,sans-Serif" font-size="10.00">ExternalForces</text>
</a>
</g>
<!-- Node1&#45;&gt;Node2 -->
<g id="edge2" class="edge"><title>Node1&#45;&gt;Node2</title>
<path fill="none" stroke="midnightblue" d="M93.5456,-18.1387C102.486,-19.5783 111.691,-21.0604 120.316,-22.4492"/>
<polygon fill="midnightblue" stroke="midnightblue" points="94.0382,-14.673 83.6089,-16.5387 92.9253,-21.584 94.0382,-14.673"/>
</g>
<!-- Node3 -->
<g id="node6" class="node"><title>Node3</title>
<a xlink:href="_forward_dynamics_8h.html#a23609ae4e05df387941c4bbc7bfc26fe" target="_top" xlink:title="ForwardDynamics">
<polygon fill="white" stroke="black" points="240.5,-0.5 240.5,-19.5 335.5,-19.5 335.5,-0.5 240.5,-0.5"/>
<text text-anchor="middle" x="288" y="-7.5" font-family="Helvetica,sans-Serif" font-size="10.00">ForwardDynamics</text>
</a>
</g>
<!-- Node1&#45;&gt;Node3 -->
<g id="edge10" class="edge"><title>Node1&#45;&gt;Node3</title>
<path fill="none" stroke="midnightblue" d="M93.8262,-10C136.892,-10 198.155,-10 240.073,-10"/>
<polygon fill="midnightblue" stroke="midnightblue" points="93.5656,-6.5001 83.5655,-10 93.5655,-13.5001 93.5656,-6.5001"/>
</g>
<!-- Node2&#45;&gt;Node2 -->
<g id="edge4" class="edge"><title>Node2&#45;&gt;Node2</title>
<path fill="none" stroke="midnightblue" d="M139.679,-48.0292C140.896,-53.128 148.337,-57 162,-57 183.328,-57 189.493,-47.5653 180.495,-38.7571"/>
<polygon fill="midnightblue" stroke="midnightblue" points="142.926,-49.3361 143.505,-38.7571 136.455,-46.6661 142.926,-49.3361"/>
</g>
<!-- Node2&#45;&gt;Node3 -->
<g id="edge6" class="edge"><title>Node2&#45;&gt;Node3</title>
<path fill="none" stroke="midnightblue" d="M213.727,-21.2273C222.512,-19.8812 231.609,-18.4873 240.281,-17.1585"/>
<polygon fill="midnightblue" stroke="midnightblue" points="212.957,-17.8044 203.602,-22.7787 214.017,-24.7236 212.957,-17.8044"/>
</g>
<!-- Node4 -->
<g id="node8" class="node"><title>Node4</title>
<a xlink:href="main_8c.html#a0ddf1224851353fc92bfbff6f499fa97" target="_top" xlink:title="main">
<polygon fill="white" stroke="black" points="372,-0.5 372,-19.5 410,-19.5 410,-0.5 372,-0.5"/>
<text text-anchor="middle" x="391" y="-7.5" font-family="Helvetica,sans-Serif" font-size="10.00">main</text>
</a>
</g>
<!-- Node3&#45;&gt;Node4 -->
<g id="edge8" class="edge"><title>Node3&#45;&gt;Node4</title>
<path fill="none" stroke="midnightblue" d="M345.879,-10C355.25,-10 364.323,-10 371.779,-10"/>
<polygon fill="midnightblue" stroke="midnightblue" points="345.657,-6.5001 335.657,-10 345.657,-13.5001 345.657,-6.5001"/>
</g>
</g>
</svg>
