<?xml version="1.0" encoding="UTF-8" standalone="no"?>
<!DOCTYPE svg PUBLIC "-//W3C//DTD SVG 1.1//EN"
 "http://www.w3.org/Graphics/SVG/1.1/DTD/svg11.dtd">
<!-- Generated by graphviz version 2.28.0 (20110507.0327)
 -->
<!-- Title: G Pages: 1 -->
<svg width="354pt" height="65pt"
 viewBox="0.00 0.00 354.00 65.00" xmlns="http://www.w3.org/2000/svg" xmlns:xlink="http://www.w3.org/1999/xlink">
<g id="graph1" class="graph" transform="scale(1 1) rotate(0) translate(4 61)">
<title>G</title>
<polygon fill="white" stroke="white" points="-4,5 -4,-61 351,-61 351,5 -4,5"/>
<!-- Node1 -->
<g id="node1" class="node"><title>Node1</title>
<polygon fill="#bfbfbf" stroke="black" points="0.5,-0.5 0.5,-19.5 65.5,-19.5 65.5,-0.5 0.5,-0.5"/>
<text text-anchor="middle" x="33" y="-7.5" font-family="Helvetica,sans-Serif" font-size="10.00">FindMother</text>
</g>
<!-- Node2 -->
<g id="node3" class="node"><title>Node2</title>
<a xlink:href="_find_mother_8h.html#a1d3572a5a830436a015f73c66ba3d086" target="_top" xlink:title="FindMother">
<polygon fill="white" stroke="black" points="102.5,-19.5 102.5,-38.5 167.5,-38.5 167.5,-19.5 102.5,-19.5"/>
<text text-anchor="middle" x="135" y="-26.5" font-family="Helvetica,sans-Serif" font-size="10.00">FindMother</text>
</a>
</g>
<!-- Node1&#45;&gt;Node2 -->
<g id="edge2" class="edge"><title>Node1&#45;&gt;Node2</title>
<path fill="none" stroke="midnightblue" d="M75.5007,-17.8851C84.4301,-19.5817 93.732,-21.3491 102.222,-22.9622"/>
<polygon fill="midnightblue" stroke="midnightblue" points="76.1182,-14.4399 65.6406,-16.0117 74.8115,-21.3169 76.1182,-14.4399"/>
</g>
<!-- Node3 -->
<g id="node6" class="node"><title>Node3</title>
<a xlink:href="u_link_8h.html#ae420e3d1a86aca06b7286b7678b4ecb6" target="_top" xlink:title="Initialize the link structure with the model value.">
<polygon fill="white" stroke="black" points="204,-0.5 204,-19.5 272,-19.5 272,-0.5 204,-0.5"/>
<text text-anchor="middle" x="238" y="-7.5" font-family="Helvetica,sans-Serif" font-size="10.00">SetupRobot</text>
</a>
</g>
<!-- Node1&#45;&gt;Node3 -->
<g id="edge10" class="edge"><title>Node1&#45;&gt;Node3</title>
<path fill="none" stroke="midnightblue" d="M75.9242,-10C113.83,-10 168.896,-10 203.819,-10"/>
<polygon fill="midnightblue" stroke="midnightblue" points="75.7188,-6.5001 65.7188,-10 75.7187,-13.5001 75.7188,-6.5001"/>
</g>
<!-- Node2&#45;&gt;Node2 -->
<g id="edge4" class="edge"><title>Node2&#45;&gt;Node2</title>
<path fill="none" stroke="midnightblue" d="M116.112,-48.4C117.373,-53.3146 123.669,-57 135,-57 153.129,-57 158.369,-47.5653 150.721,-38.7571"/>
<polygon fill="midnightblue" stroke="midnightblue" points="119.484,-49.3499 119.279,-38.7571 112.833,-47.1658 119.484,-49.3499"/>
</g>
<!-- Node2&#45;&gt;Node3 -->
<g id="edge6" class="edge"><title>Node2&#45;&gt;Node3</title>
<path fill="none" stroke="midnightblue" d="M177.638,-21.167C186.317,-19.5344 195.356,-17.8339 203.687,-16.2668"/>
<polygon fill="midnightblue" stroke="midnightblue" points="176.86,-17.7519 167.68,-23.0404 178.155,-24.6312 176.86,-17.7519"/>
</g>
<!-- Node4 -->
<g id="node8" class="node"><title>Node4</title>
<a xlink:href="main_8c.html#a0ddf1224851353fc92bfbff6f499fa97" target="_top" xlink:title="main">
<polygon fill="white" stroke="black" points="308,-0.5 308,-19.5 346,-19.5 346,-0.5 308,-0.5"/>
<text text-anchor="middle" x="327" y="-7.5" font-family="Helvetica,sans-Serif" font-size="10.00">main</text>
</a>
</g>
<!-- Node3&#45;&gt;Node4 -->
<g id="edge8" class="edge"><title>Node3&#45;&gt;Node4</title>
<path fill="none" stroke="midnightblue" d="M282.458,-10C291.452,-10 300.447,-10 307.908,-10"/>
<polygon fill="midnightblue" stroke="midnightblue" points="282.388,-6.5001 272.388,-10 282.388,-13.5001 282.388,-6.5001"/>
</g>
</g>
</svg>
