<?xml version="1.0" encoding="UTF-8" standalone="no"?>
<!DOCTYPE svg PUBLIC "-//W3C//DTD SVG 1.1//EN"
 "http://www.w3.org/Graphics/SVG/1.1/DTD/svg11.dtd">
<!-- Generated by graphviz version 2.28.0 (20110507.0327)
 -->
<!-- Title: G Pages: 1 -->
<svg width="196pt" height="140pt"
 viewBox="0.00 0.00 196.00 140.00" xmlns="http://www.w3.org/2000/svg" xmlns:xlink="http://www.w3.org/1999/xlink">
<g id="graph1" class="graph" transform="scale(1 1) rotate(0) translate(4 136)">
<title>G</title>
<polygon fill="white" stroke="white" points="-4,5 -4,-136 193,-136 193,5 -4,5"/>
<!-- Node1 -->
<g id="node1" class="node"><title>Node1</title>
<polygon fill="#bfbfbf" stroke="black" points="56,-112.5 56,-131.5 130,-131.5 130,-112.5 56,-112.5"/>
<text text-anchor="middle" x="93" y="-119.5" font-family="Helvetica,sans-Serif" font-size="10.00">FindMother.c</text>
</g>
<!-- Node2 -->
<g id="node3" class="node"><title>Node2</title>
<polygon fill="white" stroke="#bfbfbf" points="0,-0.5 0,-19.5 84,-19.5 84,-0.5 0,-0.5"/>
<text text-anchor="middle" x="42" y="-7.5" font-family="Helvetica,sans-Serif" font-size="10.00">gsl/gsl_vector.h</text>
</g>
<!-- Node1&#45;&gt;Node2 -->
<g id="edge2" class="edge"><title>Node1&#45;&gt;Node2</title>
<path fill="none" stroke="midnightblue" d="M65.7181,-112.453C48.7059,-105.548 28.1749,-93.9707 18,-76 9.24862,-60.5434 18.5768,-41.2929 28.04,-27.7671"/>
<polygon fill="midnightblue" stroke="midnightblue" points="30.8279,-29.8832 34.0895,-19.8028 25.2536,-25.649 30.8279,-29.8832"/>
</g>
<!-- Node3 -->
<g id="node5" class="node"><title>Node3</title>
<polygon fill="white" stroke="#bfbfbf" points="102,-0.5 102,-19.5 188,-19.5 188,-0.5 102,-0.5"/>
<text text-anchor="middle" x="145" y="-7.5" font-family="Helvetica,sans-Serif" font-size="10.00">gsl/gsl_matrix.h</text>
</g>
<!-- Node1&#45;&gt;Node3 -->
<g id="edge4" class="edge"><title>Node1&#45;&gt;Node3</title>
<path fill="none" stroke="midnightblue" d="M128.013,-112.445C146.934,-105.844 168.684,-94.5936 180,-76 190.026,-59.5261 176.175,-39.9622 163.051,-26.632"/>
<polygon fill="midnightblue" stroke="midnightblue" points="165.263,-23.9062 155.594,-19.5742 160.451,-28.9902 165.263,-23.9062"/>
</g>
<!-- Node4 -->
<g id="node7" class="node"><title>Node4</title>
<a xlink:href="u_link_8h.html" target="_top" xlink:title="Link initialisation and declarations.">
<polygon fill="white" stroke="black" points="27.5,-56.5 27.5,-75.5 78.5,-75.5 78.5,-56.5 27.5,-56.5"/>
<text text-anchor="middle" x="53" y="-63.5" font-family="Helvetica,sans-Serif" font-size="10.00">uLINK.h</text>
</a>
</g>
<!-- Node1&#45;&gt;Node4 -->
<g id="edge6" class="edge"><title>Node1&#45;&gt;Node4</title>
<path fill="none" stroke="midnightblue" d="M86.3948,-112.083C80.7448,-104.455 72.4552,-93.2645 65.5488,-83.9408"/>
<polygon fill="midnightblue" stroke="midnightblue" points="68.2471,-81.7034 59.4823,-75.7511 62.6221,-85.87 68.2471,-81.7034"/>
</g>
<!-- Node5 -->
<g id="node11" class="node"><title>Node5</title>
<a xlink:href="_find_mother_8h.html" target="_top" xlink:title="FindMother.h">
<polygon fill="white" stroke="black" points="97,-56.5 97,-75.5 171,-75.5 171,-56.5 97,-56.5"/>
<text text-anchor="middle" x="134" y="-63.5" font-family="Helvetica,sans-Serif" font-size="10.00">FindMother.h</text>
</a>
</g>
<!-- Node1&#45;&gt;Node5 -->
<g id="edge12" class="edge"><title>Node1&#45;&gt;Node5</title>
<path fill="none" stroke="midnightblue" d="M99.7703,-112.083C105.562,-104.455 114.058,-93.2645 121.138,-83.9408"/>
<polygon fill="midnightblue" stroke="midnightblue" points="124.096,-85.8321 127.356,-75.7511 118.521,-81.5991 124.096,-85.8321"/>
</g>
<!-- Node4&#45;&gt;Node2 -->
<g id="edge8" class="edge"><title>Node4&#45;&gt;Node2</title>
<path fill="none" stroke="midnightblue" d="M51.1836,-56.083C49.7259,-48.9272 47.6294,-38.6353 45.8075,-29.6911"/>
<polygon fill="midnightblue" stroke="midnightblue" points="49.2083,-28.8512 43.7826,-19.7511 42.3492,-30.2485 49.2083,-28.8512"/>
</g>
<!-- Node4&#45;&gt;Node3 -->
<g id="edge10" class="edge"><title>Node4&#45;&gt;Node3</title>
<path fill="none" stroke="midnightblue" d="M67.7814,-56.324C82.2671,-47.8215 104.573,-34.7288 121.493,-24.7975"/>
<polygon fill="midnightblue" stroke="midnightblue" points="123.403,-27.735 130.255,-19.6545 119.859,-21.6981 123.403,-27.735"/>
</g>
<!-- Node5&#45;&gt;Node2 -->
<g id="edge14" class="edge"><title>Node5&#45;&gt;Node2</title>
<path fill="none" stroke="midnightblue" d="M119.219,-56.324C104.733,-47.8215 82.4269,-34.7288 65.5068,-24.7975"/>
<polygon fill="midnightblue" stroke="midnightblue" points="67.1406,-21.6981 56.7447,-19.6545 63.5972,-27.735 67.1406,-21.6981"/>
</g>
<!-- Node5&#45;&gt;Node3 -->
<g id="edge16" class="edge"><title>Node5&#45;&gt;Node3</title>
<path fill="none" stroke="midnightblue" d="M135.816,-56.083C137.274,-48.9272 139.371,-38.6353 141.193,-29.6911"/>
<polygon fill="midnightblue" stroke="midnightblue" points="144.651,-30.2485 143.217,-19.7511 137.792,-28.8512 144.651,-30.2485"/>
</g>
</g>
</svg>
