<?xml version="1.0" encoding="UTF-8" standalone="no"?>
<!DOCTYPE svg PUBLIC "-//W3C//DTD SVG 1.1//EN"
 "http://www.w3.org/Graphics/SVG/1.1/DTD/svg11.dtd">
<!-- Generated by graphviz version 2.28.0 (20110507.0327)
 -->
<!-- Title: G Pages: 1 -->
<svg width="176pt" height="46pt"
 viewBox="0.00 0.00 176.00 46.00" xmlns="http://www.w3.org/2000/svg" xmlns:xlink="http://www.w3.org/1999/xlink">
<g id="graph1" class="graph" transform="scale(1 1) rotate(0) translate(4 42)">
<title>G</title>
<polygon fill="white" stroke="white" points="-4,5 -4,-42 173,-42 173,5 -4,5"/>
<!-- Node1 -->
<g id="node1" class="node"><title>Node1</title>
<polygon fill="#bfbfbf" stroke="black" points="0.5,-0.5 0.5,-19.5 65.5,-19.5 65.5,-0.5 0.5,-0.5"/>
<text text-anchor="middle" x="33" y="-7.5" font-family="Helvetica,sans-Serif" font-size="10.00">FindMother</text>
</g>
<!-- Node2 -->
<g id="node3" class="node"><title>Node2</title>
<a xlink:href="_find_mother_8c.html#a1d3572a5a830436a015f73c66ba3d086" target="_top" xlink:title="FindMother">
<polygon fill="white" stroke="black" points="102.5,-0.5 102.5,-19.5 167.5,-19.5 167.5,-0.5 102.5,-0.5"/>
<text text-anchor="middle" x="135" y="-7.5" font-family="Helvetica,sans-Serif" font-size="10.00">FindMother</text>
</a>
</g>
<!-- Node1&#45;&gt;Node2 -->
<g id="edge2" class="edge"><title>Node1&#45;&gt;Node2</title>
<path fill="none" stroke="midnightblue" d="M65.6406,-10C74.0306,-10 83.2214,-10 92.0664,-10"/>
<polygon fill="midnightblue" stroke="midnightblue" points="92.222,-13.5001 102.222,-10 92.2219,-6.5001 92.222,-13.5001"/>
</g>
<!-- Node2&#45;&gt;Node2 -->
<g id="edge4" class="edge"><title>Node2&#45;&gt;Node2</title>
<path fill="none" stroke="midnightblue" d="M119.279,-19.7571C111.631,-28.5653 116.871,-38 135,-38 146.331,-38 152.627,-34.3146 153.888,-29.4"/>
<polygon fill="midnightblue" stroke="midnightblue" points="157.167,-28.1658 150.721,-19.7571 150.516,-30.3499 157.167,-28.1658"/>
</g>
</g>
</svg>
