<?xml version="1.0" encoding="UTF-8" standalone="no"?>
<!DOCTYPE svg PUBLIC "-//W3C//DTD SVG 1.1//EN"
 "http://www.w3.org/Graphics/SVG/1.1/DTD/svg11.dtd">
<!-- Generated by graphviz version 2.28.0 (20110507.0327)
 -->
<!-- Title: G Pages: 1 -->
<svg width="387pt" height="140pt"
 viewBox="0.00 0.00 387.42 140.00" xmlns="http://www.w3.org/2000/svg" xmlns:xlink="http://www.w3.org/1999/xlink">
<g id="graph1" class="graph" transform="scale(1 1) rotate(0) translate(4 136)">
<title>G</title>
<polygon fill="white" stroke="white" points="-4,5 -4,-136 384.416,-136 384.416,5 -4,5"/>
<!-- Node1 -->
<g id="node1" class="node"><title>Node1</title>
<polygon fill="#bfbfbf" stroke="black" points="127.916,-112.5 127.916,-131.5 222.916,-131.5 222.916,-112.5 127.916,-112.5"/>
<text text-anchor="middle" x="175.416" y="-119.5" font-family="Helvetica,sans-Serif" font-size="10.00">ForwardVelocity.c</text>
</g>
<!-- Node2 -->
<g id="node3" class="node"><title>Node2</title>
<polygon fill="white" stroke="#bfbfbf" points="17.4164,-0.5 17.4164,-19.5 101.416,-19.5 101.416,-0.5 17.4164,-0.5"/>
<text text-anchor="middle" x="59.4164" y="-7.5" font-family="Helvetica,sans-Serif" font-size="10.00">gsl/gsl_vector.h</text>
</g>
<!-- Node1&#45;&gt;Node2 -->
<g id="edge2" class="edge"><title>Node1&#45;&gt;Node2</title>
<path fill="none" stroke="midnightblue" d="M127.637,-114.967C82.4587,-108.166 19.4103,-95.4501 4.41644,-76 -9.57757,-57.8469 13.5571,-37.8385 33.9778,-24.8817"/>
<polygon fill="midnightblue" stroke="midnightblue" points="35.9653,-27.7708 42.736,-19.6218 32.3612,-21.7699 35.9653,-27.7708"/>
</g>
<!-- Node3 -->
<g id="node5" class="node"><title>Node3</title>
<polygon fill="white" stroke="#bfbfbf" points="158.416,-0.5 158.416,-19.5 244.416,-19.5 244.416,-0.5 158.416,-0.5"/>
<text text-anchor="middle" x="201.416" y="-7.5" font-family="Helvetica,sans-Serif" font-size="10.00">gsl/gsl_matrix.h</text>
</g>
<!-- Node1&#45;&gt;Node3 -->
<g id="edge4" class="edge"><title>Node1&#45;&gt;Node3</title>
<path fill="none" stroke="midnightblue" d="M205.664,-112.488C223.542,-105.726 244.717,-94.2949 255.416,-76 266.67,-56.7585 245.544,-37.4607 226.509,-24.9512"/>
<polygon fill="midnightblue" stroke="midnightblue" points="228.107,-21.8242 217.76,-19.5458 224.428,-27.7794 228.107,-21.8242"/>
</g>
<!-- Node4 -->
<g id="node7" class="node"><title>Node4</title>
<polygon fill="white" stroke="#bfbfbf" points="302.916,-56.5 302.916,-75.5 379.916,-75.5 379.916,-56.5 302.916,-56.5"/>
<text text-anchor="middle" x="341.416" y="-63.5" font-family="Helvetica,sans-Serif" font-size="10.00">gsl/gsl_blas.h</text>
</g>
<!-- Node1&#45;&gt;Node4 -->
<g id="edge6" class="edge"><title>Node1&#45;&gt;Node4</title>
<path fill="none" stroke="midnightblue" d="M201.72,-112.444C229.767,-103.32 274.361,-88.8133 305.601,-78.6509"/>
<polygon fill="midnightblue" stroke="midnightblue" points="306.81,-81.9383 315.236,-75.5164 304.644,-75.2816 306.81,-81.9383"/>
</g>
<!-- Node5 -->
<g id="node9" class="node"><title>Node5</title>
<a xlink:href="u_link_8h.html" target="_top" xlink:title="Link initialisation and declarations.">
<polygon fill="white" stroke="black" points="13.9164,-56.5 13.9164,-75.5 64.9164,-75.5 64.9164,-56.5 13.9164,-56.5"/>
<text text-anchor="middle" x="39.4164" y="-63.5" font-family="Helvetica,sans-Serif" font-size="10.00">uLINK.h</text>
</a>
</g>
<!-- Node1&#45;&gt;Node5 -->
<g id="edge8" class="edge"><title>Node1&#45;&gt;Node5</title>
<path fill="none" stroke="midnightblue" d="M153.867,-112.444C131.385,-103.517 95.9288,-89.4387 70.4366,-79.3168"/>
<polygon fill="midnightblue" stroke="midnightblue" points="71.451,-75.9539 60.8652,-75.5164 68.8678,-82.4598 71.451,-75.9539"/>
</g>
<!-- Node6 -->
<g id="node13" class="node"><title>Node6</title>
<a xlink:href="_forward_velocity_8h.html" target="_top" xlink:title="ForwardVelocity.h">
<polygon fill="white" stroke="black" points="82.9164,-56.5 82.9164,-75.5 177.916,-75.5 177.916,-56.5 82.9164,-56.5"/>
<text text-anchor="middle" x="130.416" y="-63.5" font-family="Helvetica,sans-Serif" font-size="10.00">ForwardVelocity.h</text>
</a>
</g>
<!-- Node1&#45;&gt;Node6 -->
<g id="edge14" class="edge"><title>Node1&#45;&gt;Node6</title>
<path fill="none" stroke="midnightblue" d="M167.986,-112.083C161.564,-104.377 152.111,-93.0333 144.294,-83.6531"/>
<polygon fill="midnightblue" stroke="midnightblue" points="146.8,-81.1927 137.709,-75.7511 141.422,-85.674 146.8,-81.1927"/>
</g>
<!-- Node7 -->
<g id="node17" class="node"><title>Node7</title>
<a xlink:href="_cross_8h.html" target="_top" xlink:title="Cross.h">
<polygon fill="white" stroke="black" points="196.416,-56.5 196.416,-75.5 246.416,-75.5 246.416,-56.5 196.416,-56.5"/>
<text text-anchor="middle" x="221.416" y="-63.5" font-family="Helvetica,sans-Serif" font-size="10.00">Cross.h</text>
</a>
</g>
<!-- Node1&#45;&gt;Node7 -->
<g id="edge20" class="edge"><title>Node1&#45;&gt;Node7</title>
<path fill="none" stroke="midnightblue" d="M183.012,-112.083C189.644,-104.298 199.437,-92.8015 207.475,-83.3665"/>
<polygon fill="midnightblue" stroke="midnightblue" points="210.141,-85.6332 213.962,-75.7511 204.813,-81.0939 210.141,-85.6332"/>
</g>
<!-- Node5&#45;&gt;Node2 -->
<g id="edge10" class="edge"><title>Node5&#45;&gt;Node2</title>
<path fill="none" stroke="midnightblue" d="M42.719,-56.083C45.3984,-48.8486 49.2651,-38.4087 52.6028,-29.3968"/>
<polygon fill="midnightblue" stroke="midnightblue" points="55.9842,-30.3442 56.1753,-19.7511 49.42,-27.9129 55.9842,-30.3442"/>
</g>
<!-- Node5&#45;&gt;Node3 -->
<g id="edge12" class="edge"><title>Node5&#45;&gt;Node3</title>
<path fill="none" stroke="midnightblue" d="M65.0858,-56.4435C92.3391,-47.3591 135.6,-32.9388 166.067,-22.7831"/>
<polygon fill="midnightblue" stroke="midnightblue" points="167.487,-25.9992 175.867,-19.5164 165.274,-19.3584 167.487,-25.9992"/>
</g>
<!-- Node6&#45;&gt;Node2 -->
<g id="edge16" class="edge"><title>Node6&#45;&gt;Node2</title>
<path fill="none" stroke="midnightblue" d="M119.009,-56.324C108.308,-48.1849 92.0758,-35.8395 79.2536,-26.0874"/>
<polygon fill="midnightblue" stroke="midnightblue" points="81.1097,-23.1018 71.0314,-19.8339 76.8721,-28.6734 81.1097,-23.1018"/>
</g>
<!-- Node6&#45;&gt;Node3 -->
<g id="edge18" class="edge"><title>Node6&#45;&gt;Node3</title>
<path fill="none" stroke="midnightblue" d="M141.824,-56.324C152.525,-48.1849 168.757,-35.8395 181.579,-26.0874"/>
<polygon fill="midnightblue" stroke="midnightblue" points="183.961,-28.6734 189.802,-19.8339 179.723,-23.1018 183.961,-28.6734"/>
</g>
<!-- Node7&#45;&gt;Node2 -->
<g id="edge22" class="edge"><title>Node7&#45;&gt;Node2</title>
<path fill="none" stroke="midnightblue" d="M196.104,-56.5625C168.921,-47.5014 125.519,-33.0342 94.9273,-22.837"/>
<polygon fill="midnightblue" stroke="midnightblue" points="95.6795,-19.3984 85.0858,-19.5565 93.4658,-26.0392 95.6795,-19.3984"/>
</g>
<!-- Node7&#45;&gt;Node3 -->
<g id="edge24" class="edge"><title>Node7&#45;&gt;Node3</title>
<path fill="none" stroke="midnightblue" d="M218.114,-56.083C215.434,-48.8486 211.568,-38.4087 208.23,-29.3968"/>
<polygon fill="midnightblue" stroke="midnightblue" points="211.413,-27.9129 204.658,-19.7511 204.849,-30.3442 211.413,-27.9129"/>
</g>
</g>
</svg>
