<?xml version="1.0" encoding="UTF-8" standalone="no"?>
<!DOCTYPE svg PUBLIC "-//W3C//DTD SVG 1.1//EN"
 "http://www.w3.org/Graphics/SVG/1.1/DTD/svg11.dtd">
<!-- Generated by graphviz version 2.28.0 (20110507.0327)
 -->
<!-- Title: G Pages: 1 -->
<svg width="422pt" height="100pt"
 viewBox="0.00 0.00 422.00 99.73" xmlns="http://www.w3.org/2000/svg" xmlns:xlink="http://www.w3.org/1999/xlink">
<g id="graph1" class="graph" transform="scale(1 1) rotate(0) translate(4 95.728)">
<title>G</title>
<polygon fill="white" stroke="white" points="-4,5 -4,-95.728 419,-95.728 419,5 -4,5"/>
<!-- Node1 -->
<g id="node1" class="node"><title>Node1</title>
<polygon fill="#bfbfbf" stroke="black" points="0,-16.228 0,-35.228 100,-35.228 100,-16.228 0,-16.228"/>
<text text-anchor="middle" x="50" y="-23.228" font-family="Helvetica,sans-Serif" font-size="10.00">ForwardKinematics</text>
</g>
<!-- Node2 -->
<g id="node3" class="node"><title>Node2</title>
<a xlink:href="_forward_kinematics_8h.html#a95980f5defd053812a9fbc687b690606" target="_top" xlink:title="ForwardKinematics">
<polygon fill="white" stroke="black" points="136,-54.228 136,-73.228 236,-73.228 236,-54.228 136,-54.228"/>
<text text-anchor="middle" x="186" y="-61.228" font-family="Helvetica,sans-Serif" font-size="10.00">ForwardKinematics</text>
</a>
</g>
<!-- Node1&#45;&gt;Node2 -->
<g id="edge2" class="edge"><title>Node1&#45;&gt;Node2</title>
<path fill="none" stroke="midnightblue" d="M94.4383,-38.0463C112.849,-43.2673 133.98,-49.2596 151.197,-54.1421"/>
<polygon fill="midnightblue" stroke="midnightblue" points="95.3894,-34.6781 84.8139,-35.317 93.4796,-41.4126 95.3894,-34.6781"/>
</g>
<!-- Node3 -->
<g id="node6" class="node"><title>Node3</title>
<a xlink:href="main_8c.html#a0ddf1224851353fc92bfbff6f499fa97" target="_top" xlink:title="main">
<polygon fill="white" stroke="black" points="376,-16.228 376,-35.228 414,-35.228 414,-16.228 376,-16.228"/>
<text text-anchor="middle" x="395" y="-23.228" font-family="Helvetica,sans-Serif" font-size="10.00">main</text>
</a>
</g>
<!-- Node1&#45;&gt;Node3 -->
<g id="edge12" class="edge"><title>Node1&#45;&gt;Node3</title>
<path fill="none" stroke="midnightblue" d="M106.779,-14.3813C165.278,-4.26862 259.695,6.98759 340,-6.72802 352.344,-8.83623 365.618,-13.4719 375.917,-17.6363"/>
<polygon fill="midnightblue" stroke="midnightblue" points="105.873,-10.9874 96.6409,-16.1849 107.099,-17.8792 105.873,-10.9874"/>
</g>
<!-- Node4 -->
<g id="node8" class="node"><title>Node4</title>
<a xlink:href="u_link_8h.html#ae420e3d1a86aca06b7286b7678b4ecb6" target="_top" xlink:title="Initialize the link structure with the model value.">
<polygon fill="white" stroke="black" points="272,-16.228 272,-35.228 340,-35.228 340,-16.228 272,-16.228"/>
<text text-anchor="middle" x="306" y="-23.228" font-family="Helvetica,sans-Serif" font-size="10.00">SetupRobot</text>
</a>
</g>
<!-- Node1&#45;&gt;Node4 -->
<g id="edge14" class="edge"><title>Node1&#45;&gt;Node4</title>
<path fill="none" stroke="midnightblue" d="M110.354,-25.728C160.572,-25.728 230.716,-25.728 271.648,-25.728"/>
<polygon fill="midnightblue" stroke="midnightblue" points="110.275,-22.2281 100.275,-25.728 110.275,-29.2281 110.275,-22.2281"/>
</g>
<!-- Node2&#45;&gt;Node2 -->
<g id="edge4" class="edge"><title>Node2&#45;&gt;Node2</title>
<path fill="none" stroke="midnightblue" d="M163.679,-82.7572C164.896,-87.856 172.337,-91.728 186,-91.728 207.328,-91.728 213.493,-82.2933 204.495,-73.4851"/>
<polygon fill="midnightblue" stroke="midnightblue" points="166.926,-84.0641 167.505,-73.4851 160.455,-81.3941 166.926,-84.0641"/>
</g>
<!-- Node2&#45;&gt;Node3 -->
<g id="edge6" class="edge"><title>Node2&#45;&gt;Node3</title>
<path fill="none" stroke="midnightblue" d="M246.289,-59.3548C274.867,-56.49 309.484,-51.9033 340,-44.728 352.19,-41.8618 365.462,-37.2143 375.798,-33.2333"/>
<polygon fill="midnightblue" stroke="midnightblue" points="245.673,-55.8976 236.052,-60.334 246.339,-62.8658 245.673,-55.8976"/>
</g>
<!-- Node2&#45;&gt;Node4 -->
<g id="edge8" class="edge"><title>Node2&#45;&gt;Node4</title>
<path fill="none" stroke="midnightblue" d="M226.376,-51.0476C242.32,-45.9132 260.421,-40.0839 275.233,-35.314"/>
<polygon fill="midnightblue" stroke="midnightblue" points="225.222,-47.7421 216.776,-54.139 227.368,-54.4051 225.222,-47.7421"/>
</g>
<!-- Node4&#45;&gt;Node3 -->
<g id="edge10" class="edge"><title>Node4&#45;&gt;Node3</title>
<path fill="none" stroke="midnightblue" d="M350.458,-25.728C359.452,-25.728 368.447,-25.728 375.908,-25.728"/>
<polygon fill="midnightblue" stroke="midnightblue" points="350.388,-22.2281 340.388,-25.728 350.388,-29.2281 350.388,-22.2281"/>
</g>
</g>
</svg>
