<?xml version="1.0" encoding="UTF-8" standalone="no"?>
<!DOCTYPE svg PUBLIC "-//W3C//DTD SVG 1.1//EN"
 "http://www.w3.org/Graphics/SVG/1.1/DTD/svg11.dtd">
<!-- Generated by graphviz version 2.28.0 (20110507.0327)
 -->
<!-- Title: G Pages: 1 -->
<svg width="364pt" height="89pt"
 viewBox="0.00 0.00 364.00 89.27" xmlns="http://www.w3.org/2000/svg" xmlns:xlink="http://www.w3.org/1999/xlink">
<g id="graph1" class="graph" transform="scale(1 1) rotate(0) translate(4 85.2738)">
<title>G</title>
<polygon fill="white" stroke="white" points="-4,5 -4,-85.2738 361,-85.2738 361,5 -4,5"/>
<!-- Node1 -->
<g id="node1" class="node"><title>Node1</title>
<polygon fill="#bfbfbf" stroke="black" points="0.5,-28.5 0.5,-47.5 111.5,-47.5 111.5,-28.5 0.5,-28.5"/>
<text text-anchor="middle" x="56" y="-35.5" font-family="Helvetica,sans-Serif" font-size="10.00">ForwardAllKinematics</text>
</g>
<!-- Node2 -->
<g id="node3" class="node"><title>Node2</title>
<a xlink:href="_rodrigues_8c.html#a331402e0b6dc7ab640fe40cce0871e1a" target="_top" xlink:title="Rodrigues">
<polygon fill="white" stroke="black" points="296,-47.5 296,-66.5 356,-66.5 356,-47.5 296,-47.5"/>
<text text-anchor="middle" x="326" y="-54.5" font-family="Helvetica,sans-Serif" font-size="10.00">Rodrigues</text>
</a>
</g>
<!-- Node1&#45;&gt;Node2 -->
<g id="edge2" class="edge"><title>Node1&#45;&gt;Node2</title>
<path fill="none" stroke="midnightblue" d="M74.8315,-47.6695C92.7285,-56.7837 121.387,-69.7965 148,-75 196.853,-84.5519 210.676,-81.7034 260,-75 268.936,-73.7856 278.378,-71.6727 287.213,-69.312"/>
<polygon fill="midnightblue" stroke="midnightblue" points="288.204,-72.6692 296.871,-66.5759 286.296,-65.9342 288.204,-72.6692"/>
</g>
<!-- Node3 -->
<g id="node5" class="node"><title>Node3</title>
<a xlink:href="_cross_8c.html#ae694d97c46b1d90555b4e9a1809baeb3" target="_top" xlink:title="Cross">
<polygon fill="white" stroke="black" points="305,-0.5 305,-19.5 347,-19.5 347,-0.5 305,-0.5"/>
<text text-anchor="middle" x="326" y="-7.5" font-family="Helvetica,sans-Serif" font-size="10.00">Cross</text>
</a>
</g>
<!-- Node1&#45;&gt;Node3 -->
<g id="edge4" class="edge"><title>Node1&#45;&gt;Node3</title>
<path fill="none" stroke="midnightblue" d="M96.1909,-28.4289C112.166,-24.8917 130.873,-21.2099 148,-19 199.162,-12.3987 259.227,-10.5837 294.59,-10.1172"/>
<polygon fill="midnightblue" stroke="midnightblue" points="294.772,-13.6156 304.735,-10.0119 294.699,-6.61601 294.772,-13.6156"/>
</g>
<!-- Node4 -->
<g id="node7" class="node"><title>Node4</title>
<a xlink:href="_forward_all_kinematics_8c.html#a4ce3cc40a8f7cd71ac18ce0111679a00" target="_top" xlink:title="ForwardAllKinematics">
<polygon fill="white" stroke="black" points="148.5,-28.5 148.5,-47.5 259.5,-47.5 259.5,-28.5 148.5,-28.5"/>
<text text-anchor="middle" x="204" y="-35.5" font-family="Helvetica,sans-Serif" font-size="10.00">ForwardAllKinematics</text>
</a>
</g>
<!-- Node1&#45;&gt;Node4 -->
<g id="edge6" class="edge"><title>Node1&#45;&gt;Node4</title>
<path fill="none" stroke="midnightblue" d="M111.78,-38C120.388,-38 129.356,-38 138.164,-38"/>
<polygon fill="midnightblue" stroke="midnightblue" points="138.398,-41.5001 148.398,-38 138.398,-34.5001 138.398,-41.5001"/>
</g>
<!-- Node4&#45;&gt;Node2 -->
<g id="edge8" class="edge"><title>Node4&#45;&gt;Node2</title>
<path fill="none" stroke="midnightblue" d="M259.733,-46.666C268.61,-48.0715 277.642,-49.5016 286.043,-50.8319"/>
<polygon fill="midnightblue" stroke="midnightblue" points="285.502,-54.2897 295.926,-52.3967 286.597,-47.3758 285.502,-54.2897"/>
</g>
<!-- Node4&#45;&gt;Node3 -->
<g id="edge10" class="edge"><title>Node4&#45;&gt;Node3</title>
<path fill="none" stroke="midnightblue" d="M245.962,-28.4423C261.915,-24.7198 279.872,-20.5298 294.634,-17.0855"/>
<polygon fill="midnightblue" stroke="midnightblue" points="295.8,-20.4074 304.743,-14.7266 294.21,-13.5905 295.8,-20.4074"/>
</g>
<!-- Node4&#45;&gt;Node4 -->
<g id="edge12" class="edge"><title>Node4&#45;&gt;Node4</title>
<path fill="none" stroke="midnightblue" d="M185.196,-47.7571C176.048,-56.5653 182.316,-66 204,-66 217.891,-66 225.456,-62.128 226.693,-57.0292"/>
<polygon fill="midnightblue" stroke="midnightblue" points="229.9,-55.6246 222.804,-47.7571 223.445,-58.3325 229.9,-55.6246"/>
</g>
</g>
</svg>
