<?xml version="1.0" encoding="UTF-8" standalone="no"?>
<!DOCTYPE svg PUBLIC "-//W3C//DTD SVG 1.1//EN"
 "http://www.w3.org/Graphics/SVG/1.1/DTD/svg11.dtd">
<!-- Generated by graphviz version 2.28.0 (20110507.0327)
 -->
<!-- Title: G Pages: 1 -->
<svg width="294pt" height="57pt"
 viewBox="0.00 0.00 294.00 57.07" xmlns="http://www.w3.org/2000/svg" xmlns:xlink="http://www.w3.org/1999/xlink">
<g id="graph1" class="graph" transform="scale(1 1) rotate(0) translate(4 53.0696)">
<title>G</title>
<polygon fill="white" stroke="white" points="-4,5 -4,-53.0696 291,-53.0696 291,5 -4,5"/>
<!-- Node1 -->
<g id="node1" class="node"><title>Node1</title>
<polygon fill="#bfbfbf" stroke="black" points="0,-28.5 0,-47.5 86,-47.5 86,-28.5 0,-28.5"/>
<text text-anchor="middle" x="43" y="-35.5" font-family="Helvetica,sans-Serif" font-size="10.00">ForwardVelocity</text>
</g>
<!-- Node2 -->
<g id="node3" class="node"><title>Node2</title>
<a xlink:href="_cross_8c.html#ae694d97c46b1d90555b4e9a1809baeb3" target="_top" xlink:title="Cross">
<polygon fill="white" stroke="black" points="244,-28.5 244,-47.5 286,-47.5 286,-28.5 244,-28.5"/>
<text text-anchor="middle" x="265" y="-35.5" font-family="Helvetica,sans-Serif" font-size="10.00">Cross</text>
</a>
</g>
<!-- Node1&#45;&gt;Node2 -->
<g id="edge2" class="edge"><title>Node1&#45;&gt;Node2</title>
<path fill="none" stroke="midnightblue" d="M86.0231,-43.745C97.6533,-45.0905 110.296,-46.327 122,-47 160.159,-49.1942 169.899,-50.0422 208,-47 216.42,-46.3277 225.485,-45.0954 233.817,-43.7539"/>
<polygon fill="midnightblue" stroke="midnightblue" points="234.611,-47.1691 243.876,-42.0303 233.428,-40.2696 234.611,-47.1691"/>
</g>
<!-- Node3 -->
<g id="node5" class="node"><title>Node3</title>
<a xlink:href="_forward_velocity_8c.html#ad3bfaea752c445b6aa7acf78cf9a6725" target="_top" xlink:title="ForwardVelocity">
<polygon fill="white" stroke="black" points="122,-0.5 122,-19.5 208,-19.5 208,-0.5 122,-0.5"/>
<text text-anchor="middle" x="165" y="-7.5" font-family="Helvetica,sans-Serif" font-size="10.00">ForwardVelocity</text>
</a>
</g>
<!-- Node1&#45;&gt;Node3 -->
<g id="edge4" class="edge"><title>Node1&#45;&gt;Node3</title>
<path fill="none" stroke="midnightblue" d="M84.9616,-28.4423C94.1329,-26.3023 103.966,-24.0079 113.474,-21.7894"/>
<polygon fill="midnightblue" stroke="midnightblue" points="114.28,-25.1954 123.223,-19.5146 112.689,-18.3786 114.28,-25.1954"/>
</g>
<!-- Node3&#45;&gt;Node2 -->
<g id="edge6" class="edge"><title>Node3&#45;&gt;Node2</title>
<path fill="none" stroke="midnightblue" d="M199.452,-19.5577C210.629,-22.7512 223.011,-26.2888 233.916,-29.4044"/>
<polygon fill="midnightblue" stroke="midnightblue" points="233.254,-32.8554 243.831,-32.2374 235.177,-26.1247 233.254,-32.8554"/>
</g>
<!-- Node3&#45;&gt;Node3 -->
<g id="edge8" class="edge"><title>Node3&#45;&gt;Node3</title>
<path fill="none" stroke="midnightblue" d="M149.587,-19.7571C142.089,-28.5653 147.227,-38 165,-38 176.108,-38 182.281,-34.3146 183.518,-29.4"/>
<polygon fill="midnightblue" stroke="midnightblue" points="186.809,-28.2032 180.413,-19.7571 180.146,-30.3485 186.809,-28.2032"/>
</g>
</g>
</svg>
