<?xml version="1.0" encoding="UTF-8" standalone="no"?>
<!DOCTYPE svg PUBLIC "-//W3C//DTD SVG 1.1//EN"
 "http://www.w3.org/Graphics/SVG/1.1/DTD/svg11.dtd">
<!-- Generated by graphviz version 2.28.0 (20110507.0327)
 -->
<!-- Title: G Pages: 1 -->
<svg width="246pt" height="84pt"
 viewBox="0.00 0.00 246.00 84.00" xmlns="http://www.w3.org/2000/svg" xmlns:xlink="http://www.w3.org/1999/xlink">
<g id="graph1" class="graph" transform="scale(1 1) rotate(0) translate(4 80)">
<title>G</title>
<polygon fill="white" stroke="white" points="-4,5 -4,-80 243,-80 243,5 -4,5"/>
<!-- Node1 -->
<g id="node1" class="node"><title>Node1</title>
<polygon fill="#bfbfbf" stroke="black" points="95,-56.5 95,-75.5 203,-75.5 203,-56.5 95,-56.5"/>
<text text-anchor="middle" x="149" y="-63.5" font-family="Helvetica,sans-Serif" font-size="10.00">ForwardKinematics.h</text>
</g>
<!-- Node2 -->
<g id="node3" class="node"><title>Node2</title>
<a xlink:href="_forward_kinematics_8c.html" target="_top" xlink:title="ForwardKinematics.c">
<polygon fill="white" stroke="black" points="0,-0.5 0,-19.5 108,-19.5 108,-0.5 0,-0.5"/>
<text text-anchor="middle" x="54" y="-7.5" font-family="Helvetica,sans-Serif" font-size="10.00">ForwardKinematics.c</text>
</a>
</g>
<!-- Node1&#45;&gt;Node2 -->
<g id="edge2" class="edge"><title>Node1&#45;&gt;Node2</title>
<path fill="none" stroke="midnightblue" d="M124.682,-51.1774C107.201,-41.2407 84.1699,-28.1492 69.2255,-19.6545"/>
<polygon fill="midnightblue" stroke="midnightblue" points="123.313,-54.425 133.737,-56.324 126.773,-48.3395 123.313,-54.425"/>
</g>
<!-- Node3 -->
<g id="node5" class="node"><title>Node3</title>
<a xlink:href="main_8c.html" target="_top" xlink:title="This is the multi body simulator.">
<polygon fill="white" stroke="black" points="126,-0.5 126,-19.5 172,-19.5 172,-0.5 126,-0.5"/>
<text text-anchor="middle" x="149" y="-7.5" font-family="Helvetica,sans-Serif" font-size="10.00">main.c</text>
</a>
</g>
<!-- Node1&#45;&gt;Node3 -->
<g id="edge4" class="edge"><title>Node1&#45;&gt;Node3</title>
<path fill="none" stroke="midnightblue" d="M149,-45.8045C149,-36.9102 149,-26.7798 149,-19.7511"/>
<polygon fill="midnightblue" stroke="midnightblue" points="145.5,-46.083 149,-56.083 152.5,-46.083 145.5,-46.083"/>
</g>
<!-- Node4 -->
<g id="node7" class="node"><title>Node4</title>
<a xlink:href="u_link_8c.html" target="_top" xlink:title="uLink.c">
<polygon fill="white" stroke="black" points="190,-0.5 190,-19.5 238,-19.5 238,-0.5 190,-0.5"/>
<text text-anchor="middle" x="214" y="-7.5" font-family="Helvetica,sans-Serif" font-size="10.00">uLink.c</text>
</a>
</g>
<!-- Node1&#45;&gt;Node4 -->
<g id="edge6" class="edge"><title>Node1&#45;&gt;Node4</title>
<path fill="none" stroke="midnightblue" d="M167.273,-49.8197C178.918,-40.1452 193.599,-27.9481 203.367,-19.8339"/>
<polygon fill="midnightblue" stroke="midnightblue" points="164.899,-47.2416 159.443,-56.324 169.372,-52.6259 164.899,-47.2416"/>
</g>
</g>
</svg>
