<?xml version="1.0" encoding="UTF-8" standalone="no"?>
<!DOCTYPE svg PUBLIC "-//W3C//DTD SVG 1.1//EN"
 "http://www.w3.org/Graphics/SVG/1.1/DTD/svg11.dtd">
<!-- Generated by graphviz version 2.28.0 (20110507.0327)
 -->
<!-- Title: G Pages: 1 -->
<!--zoomable-->
<svg id="main" version="1.1" xmlns="http://www.w3.org/2000/svg" xmlns:xlink="http://www.w3.org/1999/xlink" xml:space="preserve" onload="init(evt)">
        <defs>
                <circle id="rim" cx="0" cy="0" r="7"/>
                <circle id="rim2" cx="0" cy="0" r="3.5"/>
                <g id="zoomPlus">
                        <use xlink:href="#rim" fill="#404040">
                                <set attributeName="fill" to="#808080" begin="zoomplus.mouseover" end="zoomplus.mouseout"/>
                        </use>
                        <path d="M-4,0h8M0,-4v8" fill="none" stroke="white" stroke-width="1.5" pointer-events="none"/>
                </g>
                <g id="zoomMin">
                        <use xlink:href="#rim" fill="#404040">
                                <set attributeName="fill" to="#808080" begin="zoomminus.mouseover" end="zoomminus.mouseout"/>
                        </use>
                        <path d="M-4,0h8" fill="none" stroke="white" stroke-width="1.5" pointer-events="none"/>
                </g>
                <g id="dirArrow">
                        <path fill="none" stroke="white" stroke-width="1.5" d="M0,-3.0v7 M-2.5,-0.5L0,-3.0L2.5,-0.5"/>
                </g>
               <g id="resetDef">
                       <use xlink:href="#rim2" fill="#404040">
                               <set attributeName="fill" to="#808080" begin="reset.mouseover" end="reset.mouseout"/>
                       </use>
               </g>
        </defs>

<script type="text/javascript">
var viewWidth = 752;
var viewHeight = 851;
var sectionId = 'dynsection-1';
</script>
<script xlink:href="svgpan.js"/>
<svg id="graph" class="graph">
<g id="viewport">
<title>G</title>
<polygon fill="white" stroke="white" points="-4,5 -4,-846.998 749,-846.998 749,5 -4,5"/>
<!-- Node1 -->
<g id="node1" class="node"><title>Node1</title>
<polygon fill="#bfbfbf" stroke="black" points="0.5,-366.643 0.5,-385.643 95.5,-385.643 95.5,-366.643 0.5,-366.643"/>
<text text-anchor="middle" x="48" y="-373.643" font-family="Helvetica,sans-Serif" font-size="10.00">ForwardDynamics</text>
</g>
<!-- Node2 -->
<g id="node3" class="node"><title>Node2</title>
<a xlink:href="_david__u_l_i_n_k_8c.html#adaa17668a497d22fe2cd4e7087336a86" target="_top" xlink:title="Initialize the link structure with the model value (used in control loop). See SetupRobot.">
<polygon fill="white" stroke="black" points="132,-667.643 132,-686.643 228,-686.643 228,-667.643 132,-667.643"/>
<text text-anchor="middle" x="180" y="-674.643" font-family="Helvetica,sans-Serif" font-size="10.00">David_SetupRobot</text>
</a>
</g>
<!-- Node1&#45;&gt;Node2 -->
<g id="edge2" class="edge"><title>Node1&#45;&gt;Node2</title>
<path fill="none" stroke="midnightblue" d="M50.3653,-385.688C55.7414,-420.889 77.8681,-545.865 132,-632.143 138.803,-642.987 148.792,-653.047 157.813,-660.894"/>
<polygon fill="midnightblue" stroke="midnightblue" points="155.774,-663.75 165.707,-667.436 160.241,-658.36 155.774,-663.75"/>
</g>
<!-- Node5 -->
<g id="node10" class="node"><title>Node5</title>
<a xlink:href="_david___forward_kinematics_8c.html#ab4a9975fbdb8a88c795a8f0b5bf0bf97" target="_top" xlink:title="David_ForwardKinematics">
<polygon fill="white" stroke="black" points="278,-638.643 278,-657.643 406,-657.643 406,-638.643 278,-638.643"/>
<text text-anchor="middle" x="342" y="-645.643" font-family="Helvetica,sans-Serif" font-size="10.00">David_ForwardKinematics</text>
</a>
</g>
<!-- Node1&#45;&gt;Node5 -->
<g id="edge72" class="edge"><title>Node1&#45;&gt;Node5</title>
<path fill="none" stroke="midnightblue" d="M52.2628,-385.889C61.378,-411.979 89.2778,-484.588 132,-531.143 179.803,-583.236 256.3,-617.742 302.29,-635.044"/>
<polygon fill="midnightblue" stroke="midnightblue" points="301.303,-638.411 311.897,-638.575 303.718,-631.841 301.303,-638.411"/>
</g>
<!-- Node6 -->
<g id="node12" class="node"><title>Node6</title>
<a xlink:href="_mat_8c.html#ae5dcc36ff446d01426b9ce7fbd5e1f83" target="_top" xlink:title="MatMulf">
<polygon fill="white" stroke="black" points="592.5,-511.643 592.5,-530.643 643.5,-530.643 643.5,-511.643 592.5,-511.643"/>
<text text-anchor="middle" x="618" y="-518.643" font-family="Helvetica,sans-Serif" font-size="10.00">MatMulf</text>
</a>
</g>
<!-- Node1&#45;&gt;Node6 -->
<g id="edge74" class="edge"><title>Node1&#45;&gt;Node6</title>
<path fill="none" stroke="midnightblue" d="M86.3676,-366.614C153.847,-350.927 300.164,-323.886 420,-350.143 480.22,-363.338 503.862,-363.144 546,-408.143 576.578,-440.798 552.515,-468.498 582,-502.143 583.128,-503.43 584.365,-504.646 585.679,-505.792"/>
<polygon fill="midnightblue" stroke="midnightblue" points="583.66,-508.651 593.833,-511.609 587.725,-502.952 583.66,-508.651"/>
</g>
<!-- Node8 -->
<g id="node16" class="node"><title>Node8</title>
<a xlink:href="_mat_8c.html#aa4b0ec687e717aa5243535ca86cf60c3" target="_top" xlink:title="MatAddf">
<polygon fill="white" stroke="black" points="591.5,-786.643 591.5,-805.643 644.5,-805.643 644.5,-786.643 591.5,-786.643"/>
<text text-anchor="middle" x="618" y="-793.643" font-family="Helvetica,sans-Serif" font-size="10.00">MatAddf</text>
</a>
</g>
<!-- Node1&#45;&gt;Node8 -->
<g id="edge76" class="edge"><title>Node1&#45;&gt;Node8</title>
<path fill="none" stroke="midnightblue" d="M49.4773,-385.96C52.942,-444.576 79.6811,-748.295 264,-822.143 373.104,-865.857 516.227,-829.737 581.631,-808.675"/>
<polygon fill="midnightblue" stroke="midnightblue" points="583.043,-811.895 591.444,-805.438 580.851,-805.247 583.043,-811.895"/>
</g>
<!-- Node17 -->
<g id="node38" class="node"><title>Node17</title>
<a xlink:href="_inv_dyn_8c.html#a30f653a126a6f95e6c9b01a3c5997ff4" target="_top" xlink:title="InvDyn">
<polygon fill="white" stroke="black" points="157.5,-227.643 157.5,-246.643 202.5,-246.643 202.5,-227.643 157.5,-227.643"/>
<text text-anchor="middle" x="180" y="-234.643" font-family="Helvetica,sans-Serif" font-size="10.00">InvDyn</text>
</a>
</g>
<!-- Node1&#45;&gt;Node17 -->
<g id="edge42" class="edge"><title>Node1&#45;&gt;Node17</title>
<path fill="none" stroke="midnightblue" d="M56.6086,-366.41C70.7611,-348.502 102.39,-309.397 132,-279.143 140.701,-270.254 150.941,-260.978 159.639,-253.411"/>
<polygon fill="midnightblue" stroke="midnightblue" points="162.094,-255.917 167.404,-246.749 157.536,-250.604 162.094,-255.917"/>
</g>
<!-- Node23 -->
<g id="node53" class="node"><title>Node23</title>
<a xlink:href="_gravity_8c.html#ac74a03b55af13dd218455f237a5289dc" target="_top" xlink:title="Gravity">
<polygon fill="white" stroke="black" points="156.5,-100.643 156.5,-119.643 203.5,-119.643 203.5,-100.643 156.5,-100.643"/>
<text text-anchor="middle" x="180" y="-107.643" font-family="Helvetica,sans-Serif" font-size="10.00">Gravity</text>
</a>
</g>
<!-- Node1&#45;&gt;Node23 -->
<g id="edge60" class="edge"><title>Node1&#45;&gt;Node23</title>
<path fill="none" stroke="midnightblue" d="M51.155,-366.294C58.5013,-334.157 84.765,-230.218 132,-157.143 139.365,-145.75 149.877,-134.909 159.093,-126.516"/>
<polygon fill="midnightblue" stroke="midnightblue" points="161.526,-129.038 166.746,-119.818 156.916,-123.77 161.526,-129.038"/>
</g>
<!-- Node24 -->
<g id="node57" class="node"><title>Node24</title>
<a xlink:href="_external_forces_8c.html#a54d22e224db2a33d86207a6a0d5562fe" target="_top" xlink:title="ExternalForces">
<polygon fill="white" stroke="black" points="138.5,-166.643 138.5,-185.643 221.5,-185.643 221.5,-166.643 138.5,-166.643"/>
<text text-anchor="middle" x="180" y="-173.643" font-family="Helvetica,sans-Serif" font-size="10.00">ExternalForces</text>
</a>
</g>
<!-- Node1&#45;&gt;Node24 -->
<g id="edge66" class="edge"><title>Node1&#45;&gt;Node24</title>
<path fill="none" stroke="midnightblue" d="M52.6217,-366.552C62.6281,-340.805 92.5433,-268.71 132,-218.143 139.448,-208.598 149.237,-199.458 157.953,-192.157"/>
<polygon fill="midnightblue" stroke="midnightblue" points="160.286,-194.771 165.868,-185.766 155.889,-189.325 160.286,-194.771"/>
</g>
<!-- Node25 -->
<g id="node64" class="node"><title>Node25</title>
<a xlink:href="_david___calc_co_m_8c.html#a87e4908ddc041180e53e28286d691b80" target="_top" xlink:title="David_CalcCoM">
<polygon fill="white" stroke="black" points="299.5,-549.643 299.5,-568.643 384.5,-568.643 384.5,-549.643 299.5,-549.643"/>
<text text-anchor="middle" x="342" y="-556.643" font-family="Helvetica,sans-Serif" font-size="10.00">David_CalcCoM</text>
</a>
</g>
<!-- Node1&#45;&gt;Node25 -->
<g id="edge78" class="edge"><title>Node1&#45;&gt;Node25</title>
<path fill="none" stroke="midnightblue" d="M52.999,-385.889C62.87,-408.725 90.6309,-466.029 132,-496.143 178.759,-530.181 244.044,-546.026 289.149,-553.272"/>
<polygon fill="midnightblue" stroke="midnightblue" points="288.891,-556.773 299.303,-554.813 289.942,-549.852 288.891,-556.773"/>
</g>
<!-- Node28 -->
<g id="node77" class="node"><title>Node28</title>
<a xlink:href="_david___static_trajectory_8c.html#ae4110335c3e437bb1d38c344f5f2e94e" target="_top" xlink:title="David_OneFoot">
<polygon fill="white" stroke="black" points="138.5,-38.6435 138.5,-57.6435 221.5,-57.6435 221.5,-38.6435 138.5,-38.6435"/>
<text text-anchor="middle" x="180" y="-45.6435" font-family="Helvetica,sans-Serif" font-size="10.00">David_OneFoot</text>
</a>
</g>
<!-- Node1&#45;&gt;Node28 -->
<g id="edge98" class="edge"><title>Node1&#45;&gt;Node28</title>
<path fill="none" stroke="midnightblue" d="M49.909,-366.532C53.8563,-328.697 72.1028,-187.406 132,-91.1435 138.376,-80.8965 147.856,-71.5722 156.636,-64.2458"/>
<polygon fill="midnightblue" stroke="midnightblue" points="159.034,-66.812 164.715,-57.8688 154.697,-61.3175 159.034,-66.812"/>
</g>
<!-- Node32 -->
<g id="node86" class="node"><title>Node32</title>
<a xlink:href="_david___gravity_8c.html#a1f1e600a0c38ffaf69b85505ea4645d0" target="_top" xlink:title="David_Gravity">
<polygon fill="white" stroke="black" points="142.5,-449.643 142.5,-468.643 217.5,-468.643 217.5,-449.643 142.5,-449.643"/>
<text text-anchor="middle" x="180" y="-456.643" font-family="Helvetica,sans-Serif" font-size="10.00">David_Gravity</text>
</a>
</g>
<!-- Node1&#45;&gt;Node32 -->
<g id="edge108" class="edge"><title>Node1&#45;&gt;Node32</title>
<path fill="none" stroke="midnightblue" d="M63.9127,-385.665C86.2251,-399.91 128.517,-426.912 155.151,-443.917"/>
<polygon fill="midnightblue" stroke="midnightblue" points="153.549,-447.046 163.861,-449.478 157.316,-441.146 153.549,-447.046"/>
</g>
<!-- Node3 -->
<g id="node5" class="node"><title>Node3</title>
<a xlink:href="_mat_8c.html#a245892f5cf1ad342b2baa13a352892d3" target="_top" xlink:title="MatClrf">
<polygon fill="white" stroke="black" points="477.5,-681.643 477.5,-700.643 524.5,-700.643 524.5,-681.643 477.5,-681.643"/>
<text text-anchor="middle" x="501" y="-688.643" font-family="Helvetica,sans-Serif" font-size="10.00">MatClrf</text>
</a>
</g>
<!-- Node2&#45;&gt;Node3 -->
<g id="edge4" class="edge"><title>Node2&#45;&gt;Node3</title>
<path fill="none" stroke="midnightblue" d="M228.358,-682.291C240,-683.395 252.44,-684.44 264,-685.143 336.339,-689.544 421.34,-690.728 466.999,-691.039"/>
<polygon fill="midnightblue" stroke="midnightblue" points="467.175,-694.54 477.195,-691.099 467.215,-687.541 467.175,-694.54"/>
</g>
<!-- Node4 -->
<g id="node7" class="node"><title>Node4</title>
<a xlink:href="_david___find_mother_8c.html#a6a77c2a87c6fa7845d007e4cb968ff0f" target="_top" xlink:title="David_FindMother">
<polygon fill="white" stroke="black" points="295,-775.643 295,-794.643 389,-794.643 389,-775.643 295,-775.643"/>
<text text-anchor="middle" x="342" y="-782.643" font-family="Helvetica,sans-Serif" font-size="10.00">David_FindMother</text>
</a>
</g>
<!-- Node2&#45;&gt;Node4 -->
<g id="edge6" class="edge"><title>Node2&#45;&gt;Node4</title>
<path fill="none" stroke="midnightblue" d="M187.866,-686.702C200.812,-704.046 230.551,-740.784 264,-761.143 271.307,-765.591 279.512,-769.283 287.77,-772.326"/>
<polygon fill="midnightblue" stroke="midnightblue" points="286.844,-775.708 297.438,-775.607 289.093,-769.079 286.844,-775.708"/>
</g>
<!-- Node2&#45;&gt;Node5 -->
<g id="edge10" class="edge"><title>Node2&#45;&gt;Node5</title>
<path fill="none" stroke="midnightblue" d="M228.14,-668.599C243.789,-665.763 261.468,-662.559 278.111,-659.542"/>
<polygon fill="midnightblue" stroke="midnightblue" points="279.097,-662.921 288.312,-657.693 277.848,-656.033 279.097,-662.921"/>
</g>
<!-- Node4&#45;&gt;Node4 -->
<g id="edge8" class="edge"><title>Node4&#45;&gt;Node4</title>
<path fill="none" stroke="midnightblue" d="M317.648,-794.901C305.801,-803.709 313.918,-813.143 342,-813.143 360.429,-813.143 370.26,-809.08 371.492,-803.797"/>
<polygon fill="midnightblue" stroke="midnightblue" points="374.386,-801.808 366.352,-794.901 368.324,-805.31 374.386,-801.808"/>
</g>
<!-- Node5&#45;&gt;Node5 -->
<g id="edge40" class="edge"><title>Node5&#45;&gt;Node5</title>
<path fill="none" stroke="midnightblue" d="M317.648,-657.901C305.801,-666.709 313.918,-676.143 342,-676.143 360.429,-676.143 370.26,-672.08 371.492,-666.797"/>
<polygon fill="midnightblue" stroke="midnightblue" points="374.386,-664.808 366.352,-657.901 368.324,-668.31 374.386,-664.808"/>
</g>
<!-- Node5&#45;&gt;Node6 -->
<g id="edge12" class="edge"><title>Node5&#45;&gt;Node6</title>
<path fill="none" stroke="midnightblue" d="M363.595,-638.598C411.497,-616.395 530.582,-561.199 586.757,-535.161"/>
<polygon fill="midnightblue" stroke="midnightblue" points="588.566,-538.181 596.166,-530.8 585.622,-531.83 588.566,-538.181"/>
</g>
<!-- Node5&#45;&gt;Node8 -->
<g id="edge16" class="edge"><title>Node5&#45;&gt;Node8</title>
<path fill="none" stroke="midnightblue" d="M363.589,-657.645C380.103,-665.946 403.216,-679.157 420,-695.143 440.619,-714.783 433.023,-731.323 456,-748.143 493.324,-775.468 546.193,-787.359 581.022,-792.452"/>
<polygon fill="midnightblue" stroke="midnightblue" points="580.837,-795.959 591.215,-793.824 581.771,-789.021 580.837,-795.959"/>
</g>
<!-- Node9 -->
<g id="node18" class="node"><title>Node9</title>
<a xlink:href="_david___rodrigues_8c.html#a60a6dbedf38702ef67715eb17c6efadc" target="_top" xlink:title="David_Rodrigues">
<polygon fill="white" stroke="black" points="456.5,-719.643 456.5,-738.643 545.5,-738.643 545.5,-719.643 456.5,-719.643"/>
<text text-anchor="middle" x="501" y="-726.643" font-family="Helvetica,sans-Serif" font-size="10.00">David_Rodrigues</text>
</a>
</g>
<!-- Node5&#45;&gt;Node9 -->
<g id="edge18" class="edge"><title>Node5&#45;&gt;Node9</title>
<path fill="none" stroke="midnightblue" d="M359.213,-657.671C380.932,-670.287 420.82,-692.944 456,-710.143 459.597,-711.902 463.397,-713.671 467.196,-715.384"/>
<polygon fill="midnightblue" stroke="midnightblue" points="465.959,-718.664 476.522,-719.49 468.78,-712.258 465.959,-718.664"/>
</g>
<!-- Node15 -->
<g id="node32" class="node"><title>Node15</title>
<a xlink:href="_mat_8c.html#ae8e0d9d094b36fd7aa5d222e70d93953" target="_top" xlink:title="MatProVectorielf">
<polygon fill="white" stroke="black" points="456.5,-473.643 456.5,-492.643 545.5,-492.643 545.5,-473.643 456.5,-473.643"/>
<text text-anchor="middle" x="501" y="-480.643" font-family="Helvetica,sans-Serif" font-size="10.00">MatProVectorielf</text>
</a>
</g>
<!-- Node5&#45;&gt;Node15 -->
<g id="edge34" class="edge"><title>Node5&#45;&gt;Node15</title>
<path fill="none" stroke="midnightblue" d="M354.398,-638.619C369.822,-625.546 397.947,-601.05 420,-578.143 444.77,-552.416 470.977,-520.212 486.392,-500.682"/>
<polygon fill="midnightblue" stroke="midnightblue" points="489.258,-502.699 492.671,-492.669 483.748,-498.381 489.258,-502.699"/>
</g>
<!-- Node7 -->
<g id="node14" class="node"><title>Node7</title>
<a xlink:href="_mat_8c.html#a63a68223bbacc69c068f6a3bdb4b428a" target="_top" xlink:title="MatCpyf">
<polygon fill="white" stroke="black" points="690.5,-379.643 690.5,-398.643 743.5,-398.643 743.5,-379.643 690.5,-379.643"/>
<text text-anchor="middle" x="717" y="-386.643" font-family="Helvetica,sans-Serif" font-size="10.00">MatCpyf</text>
</a>
</g>
<!-- Node6&#45;&gt;Node7 -->
<g id="edge14" class="edge"><title>Node6&#45;&gt;Node7</title>
<path fill="none" stroke="midnightblue" d="M641.419,-511.462C645.92,-508.864 650.374,-505.753 654,-502.143 681.49,-474.776 700.179,-432.659 709.381,-408.316"/>
<polygon fill="midnightblue" stroke="midnightblue" points="712.72,-409.377 712.841,-398.782 706.14,-406.989 712.72,-409.377"/>
</g>
<!-- Node9&#45;&gt;Node6 -->
<g id="edge32" class="edge"><title>Node9&#45;&gt;Node6</title>
<path fill="none" stroke="midnightblue" d="M532.926,-719.618C537.74,-717.114 542.326,-713.999 546,-710.143 547.552,-708.514 592.347,-587.758 609.973,-540.143"/>
<polygon fill="midnightblue" stroke="midnightblue" points="613.287,-541.271 613.475,-530.678 606.722,-538.841 613.287,-541.271"/>
</g>
<!-- Node9&#45;&gt;Node8 -->
<g id="edge30" class="edge"><title>Node9&#45;&gt;Node8</title>
<path fill="none" stroke="midnightblue" d="M520.617,-738.827C528.533,-743.065 537.809,-748.192 546,-753.143 562.457,-763.091 565.533,-767.213 582,-777.143 584.498,-778.65 587.123,-780.176 589.765,-781.674"/>
<polygon fill="midnightblue" stroke="midnightblue" points="588.213,-784.815 598.658,-786.591 591.6,-778.689 588.213,-784.815"/>
</g>
<!-- Node10 -->
<g id="node20" class="node"><title>Node10</title>
<a xlink:href="_mat_8c.html#a8fa4d7a3efd929279b0fbeb2fb7c22e3" target="_top" xlink:title="MatNormf">
<polygon fill="white" stroke="black" points="588.5,-710.643 588.5,-729.643 647.5,-729.643 647.5,-710.643 588.5,-710.643"/>
<text text-anchor="middle" x="618" y="-717.643" font-family="Helvetica,sans-Serif" font-size="10.00">MatNormf</text>
</a>
</g>
<!-- Node9&#45;&gt;Node10 -->
<g id="edge20" class="edge"><title>Node9&#45;&gt;Node10</title>
<path fill="none" stroke="midnightblue" d="M545.805,-725.715C556.468,-724.881 567.799,-723.994 578.212,-723.179"/>
<polygon fill="midnightblue" stroke="midnightblue" points="578.562,-726.662 588.259,-722.393 578.016,-719.684 578.562,-726.662"/>
</g>
<!-- Node11 -->
<g id="node22" class="node"><title>Node11</title>
<a xlink:href="_mat_8c.html#a9f566ce4c8ca2381358f2134cdd4e9e7" target="_top" xlink:title="MatMulScalf">
<polygon fill="white" stroke="black" points="582.5,-625.643 582.5,-644.643 653.5,-644.643 653.5,-625.643 582.5,-625.643"/>
<text text-anchor="middle" x="618" y="-632.643" font-family="Helvetica,sans-Serif" font-size="10.00">MatMulScalf</text>
</a>
</g>
<!-- Node9&#45;&gt;Node11 -->
<g id="edge22" class="edge"><title>Node9&#45;&gt;Node11</title>
<path fill="none" stroke="midnightblue" d="M530.195,-719.517C535.729,-716.943 541.276,-713.828 546,-710.143 566.748,-693.961 563.592,-681.944 582,-663.143 586.083,-658.973 590.778,-654.843 595.375,-651.088"/>
<polygon fill="midnightblue" stroke="midnightblue" points="597.681,-653.728 603.393,-644.805 593.363,-648.218 597.681,-653.728"/>
</g>
<!-- Node12 -->
<g id="node24" class="node"><title>Node12</title>
<a xlink:href="_mat_8c.html#a271708fa4a26745632412df2d7b894d1" target="_top" xlink:title="MatTilde">
<polygon fill="white" stroke="black" points="591.5,-672.643 591.5,-691.643 644.5,-691.643 644.5,-672.643 591.5,-672.643"/>
<text text-anchor="middle" x="618" y="-679.643" font-family="Helvetica,sans-Serif" font-size="10.00">MatTilde</text>
</a>
</g>
<!-- Node9&#45;&gt;Node12 -->
<g id="edge24" class="edge"><title>Node9&#45;&gt;Node12</title>
<path fill="none" stroke="midnightblue" d="M525.272,-719.632C542.151,-712.734 565.216,-703.307 583.994,-695.633"/>
<polygon fill="midnightblue" stroke="midnightblue" points="585.435,-698.825 593.368,-691.802 582.787,-692.345 585.435,-698.825"/>
</g>
<!-- Node13 -->
<g id="node26" class="node"><title>Node13</title>
<a xlink:href="_mat_8c.html#a9e1be75d926e81ca29ca09676705a51e" target="_top" xlink:title="MatI">
<polygon fill="white" stroke="black" points="600.5,-748.643 600.5,-767.643 635.5,-767.643 635.5,-748.643 600.5,-748.643"/>
<text text-anchor="middle" x="618" y="-755.643" font-family="Helvetica,sans-Serif" font-size="10.00">MatI</text>
</a>
</g>
<!-- Node9&#45;&gt;Node13 -->
<g id="edge26" class="edge"><title>Node9&#45;&gt;Node13</title>
<path fill="none" stroke="midnightblue" d="M539.974,-738.72C556.399,-742.862 575.237,-747.612 590.172,-751.378"/>
<polygon fill="midnightblue" stroke="midnightblue" points="589.714,-754.872 600.266,-753.924 591.426,-748.085 589.714,-754.872"/>
</g>
<!-- Node14 -->
<g id="node28" class="node"><title>Node14</title>
<a xlink:href="_mat_8c.html#a05baf6927b033792fd0ba2adcfb8df34" target="_top" xlink:title="MatClr">
<polygon fill="white" stroke="black" points="694.5,-748.643 694.5,-767.643 739.5,-767.643 739.5,-748.643 694.5,-748.643"/>
<text text-anchor="middle" x="717" y="-755.643" font-family="Helvetica,sans-Serif" font-size="10.00">MatClr</text>
</a>
</g>
<!-- Node13&#45;&gt;Node14 -->
<g id="edge28" class="edge"><title>Node13&#45;&gt;Node14</title>
<path fill="none" stroke="midnightblue" d="M635.896,-758.143C649.165,-758.143 668.024,-758.143 684.11,-758.143"/>
<polygon fill="midnightblue" stroke="midnightblue" points="684.194,-761.644 694.194,-758.143 684.193,-754.644 684.194,-761.644"/>
</g>
<!-- Node15&#45;&gt;Node6 -->
<g id="edge38" class="edge"><title>Node15&#45;&gt;Node6</title>
<path fill="none" stroke="midnightblue" d="M531.019,-492.732C546.668,-497.903 566.083,-504.319 582.501,-509.744"/>
<polygon fill="midnightblue" stroke="midnightblue" points="581.683,-513.16 592.277,-512.974 583.88,-506.513 581.683,-513.16"/>
</g>
<!-- Node16 -->
<g id="node34" class="node"><title>Node16</title>
<a xlink:href="_mat_8c.html#a048190ee0aceb657fc3830bf279359b3" target="_top" xlink:title="MatTildef">
<polygon fill="white" stroke="black" points="590,-473.643 590,-492.643 646,-492.643 646,-473.643 590,-473.643"/>
<text text-anchor="middle" x="618" y="-480.643" font-family="Helvetica,sans-Serif" font-size="10.00">MatTildef</text>
</a>
</g>
<!-- Node15&#45;&gt;Node16 -->
<g id="edge36" class="edge"><title>Node15&#45;&gt;Node16</title>
<path fill="none" stroke="midnightblue" d="M545.805,-483.143C557.06,-483.143 569.06,-483.143 579.937,-483.143"/>
<polygon fill="midnightblue" stroke="midnightblue" points="579.962,-486.644 589.962,-483.143 579.962,-479.644 579.962,-486.644"/>
</g>
<!-- Node18 -->
<g id="node40" class="node"><title>Node18</title>
<a xlink:href="_forward_all_kinematics_8c.html#a4ce3cc40a8f7cd71ac18ce0111679a00" target="_top" xlink:title="ForwardAllKinematics">
<polygon fill="white" stroke="black" points="286.5,-171.643 286.5,-190.643 397.5,-190.643 397.5,-171.643 286.5,-171.643"/>
<text text-anchor="middle" x="342" y="-178.643" font-family="Helvetica,sans-Serif" font-size="10.00">ForwardAllKinematics</text>
</a>
</g>
<!-- Node17&#45;&gt;Node18 -->
<g id="edge44" class="edge"><title>Node17&#45;&gt;Node18</title>
<path fill="none" stroke="midnightblue" d="M202.578,-229.591C228.517,-220.513 272.472,-205.128 303.893,-194.131"/>
<polygon fill="midnightblue" stroke="midnightblue" points="305.333,-197.335 313.616,-190.728 303.021,-190.728 305.333,-197.335"/>
</g>
<!-- Node21 -->
<g id="node47" class="node"><title>Node21</title>
<a xlink:href="_inverse_dynamics_8c.html#accb6237d3631b28dae6469d0ee9a0c2f" target="_top" xlink:title="InverseDynamics">
<polygon fill="white" stroke="black" points="297,-227.643 297,-246.643 387,-246.643 387,-227.643 297,-227.643"/>
<text text-anchor="middle" x="342" y="-234.643" font-family="Helvetica,sans-Serif" font-size="10.00">InverseDynamics</text>
</a>
</g>
<!-- Node17&#45;&gt;Node21 -->
<g id="edge52" class="edge"><title>Node17&#45;&gt;Node21</title>
<path fill="none" stroke="midnightblue" d="M202.578,-237.143C224.002,-237.143 257.715,-237.143 286.506,-237.143"/>
<polygon fill="midnightblue" stroke="midnightblue" points="286.859,-240.644 296.859,-237.143 286.859,-233.644 286.859,-240.644"/>
</g>
<!-- Node18&#45;&gt;Node18 -->
<g id="edge50" class="edge"><title>Node18&#45;&gt;Node18</title>
<path fill="none" stroke="midnightblue" d="M317.648,-190.901C305.801,-199.709 313.918,-209.143 342,-209.143 360.429,-209.143 370.26,-205.08 371.492,-199.797"/>
<polygon fill="midnightblue" stroke="midnightblue" points="374.386,-197.808 366.352,-190.901 368.324,-201.31 374.386,-197.808"/>
</g>
<!-- Node19 -->
<g id="node42" class="node"><title>Node19</title>
<a xlink:href="_rodrigues_8c.html#a331402e0b6dc7ab640fe40cce0871e1a" target="_top" xlink:title="Rodrigues">
<polygon fill="white" stroke="black" points="471,-171.643 471,-190.643 531,-190.643 531,-171.643 471,-171.643"/>
<text text-anchor="middle" x="501" y="-178.643" font-family="Helvetica,sans-Serif" font-size="10.00">Rodrigues</text>
</a>
</g>
<!-- Node18&#45;&gt;Node19 -->
<g id="edge46" class="edge"><title>Node18&#45;&gt;Node19</title>
<path fill="none" stroke="midnightblue" d="M397.911,-181.143C418.652,-181.143 441.816,-181.143 460.829,-181.143"/>
<polygon fill="midnightblue" stroke="midnightblue" points="460.923,-184.644 470.923,-181.143 460.923,-177.644 460.923,-184.644"/>
</g>
<!-- Node20 -->
<g id="node44" class="node"><title>Node20</title>
<a xlink:href="_cross_8c.html#ae694d97c46b1d90555b4e9a1809baeb3" target="_top" xlink:title="Cross">
<polygon fill="white" stroke="black" points="480,-133.643 480,-152.643 522,-152.643 522,-133.643 480,-133.643"/>
<text text-anchor="middle" x="501" y="-140.643" font-family="Helvetica,sans-Serif" font-size="10.00">Cross</text>
</a>
</g>
<!-- Node18&#45;&gt;Node20 -->
<g id="edge48" class="edge"><title>Node18&#45;&gt;Node20</title>
<path fill="none" stroke="midnightblue" d="M382.618,-171.554C409.643,-165.013 444.893,-156.482 469.685,-150.481"/>
<polygon fill="midnightblue" stroke="midnightblue" points="470.72,-153.832 479.616,-148.077 469.073,-147.028 470.72,-153.832"/>
</g>
<!-- Node21&#45;&gt;Node20 -->
<g id="edge56" class="edge"><title>Node21&#45;&gt;Node20</title>
<path fill="none" stroke="midnightblue" d="M387.026,-232.246C398.517,-229.434 410.367,-225.03 420,-218.143 444.069,-200.935 433.437,-181.285 456,-162.143 460.283,-158.51 465.366,-155.472 470.53,-152.967"/>
<polygon fill="midnightblue" stroke="midnightblue" points="471.938,-156.172 479.757,-149.023 469.186,-149.736 471.938,-156.172"/>
</g>
<!-- Node21&#45;&gt;Node21 -->
<g id="edge58" class="edge"><title>Node21&#45;&gt;Node21</title>
<path fill="none" stroke="midnightblue" d="M317.648,-246.901C305.801,-255.709 313.918,-265.143 342,-265.143 360.429,-265.143 370.26,-261.08 371.492,-255.797"/>
<polygon fill="midnightblue" stroke="midnightblue" points="374.386,-253.808 366.352,-246.901 368.324,-257.31 374.386,-253.808"/>
</g>
<!-- Node22 -->
<g id="node49" class="node"><title>Node22</title>
<a xlink:href="_hat_8c.html#a99b0b25e44a922db29da555aa182bb41" target="_top" xlink:title="Hat">
<polygon fill="white" stroke="black" points="485,-227.643 485,-246.643 517,-246.643 517,-227.643 485,-227.643"/>
<text text-anchor="middle" x="501" y="-234.643" font-family="Helvetica,sans-Serif" font-size="10.00">Hat</text>
</a>
</g>
<!-- Node21&#45;&gt;Node22 -->
<g id="edge54" class="edge"><title>Node21&#45;&gt;Node22</title>
<path fill="none" stroke="midnightblue" d="M387.151,-237.143C415.338,-237.143 450.885,-237.143 474.471,-237.143"/>
<polygon fill="midnightblue" stroke="midnightblue" points="474.701,-240.644 484.701,-237.143 474.701,-233.644 474.701,-240.644"/>
</g>
<!-- Node23&#45;&gt;Node20 -->
<g id="edge62" class="edge"><title>Node23&#45;&gt;Node20</title>
<path fill="none" stroke="midnightblue" d="M203.811,-111.242C246.415,-113.452 340.925,-119.104 420,-129.143 436.433,-131.23 454.632,-134.35 469.515,-137.115"/>
<polygon fill="midnightblue" stroke="midnightblue" points="469.216,-140.621 479.694,-139.046 470.521,-133.744 469.216,-140.621"/>
</g>
<!-- Node23&#45;&gt;Node23 -->
<g id="edge64" class="edge"><title>Node23&#45;&gt;Node23</title>
<path fill="none" stroke="midnightblue" d="M159.655,-119.901C149.757,-128.709 156.539,-138.143 180,-138.143 195.03,-138.143 203.214,-134.271 204.553,-129.173"/>
<polygon fill="midnightblue" stroke="midnightblue" points="207.665,-127.56 200.345,-119.901 201.291,-130.453 207.665,-127.56"/>
</g>
<!-- Node24&#45;&gt;Node20 -->
<g id="edge68" class="edge"><title>Node24&#45;&gt;Node20</title>
<path fill="none" stroke="midnightblue" d="M221.846,-168.529C235.242,-166.226 250.224,-163.857 264,-162.143 337.483,-153.006 424.411,-147.32 469.474,-144.752"/>
<polygon fill="midnightblue" stroke="midnightblue" points="469.946,-148.232 479.736,-144.181 469.556,-141.243 469.946,-148.232"/>
</g>
<!-- Node24&#45;&gt;Node24 -->
<g id="edge70" class="edge"><title>Node24&#45;&gt;Node24</title>
<path fill="none" stroke="midnightblue" d="M159.655,-185.901C149.757,-194.709 156.539,-204.143 180,-204.143 195.03,-204.143 203.214,-200.271 204.553,-195.173"/>
<polygon fill="midnightblue" stroke="midnightblue" points="207.665,-193.56 200.345,-185.901 201.291,-196.453 207.665,-193.56"/>
</g>
<!-- Node25&#45;&gt;Node3 -->
<g id="edge80" class="edge"><title>Node25&#45;&gt;Node3</title>
<path fill="none" stroke="midnightblue" d="M384.837,-566.924C397.354,-570.944 410.31,-577.01 420,-586.143 450.154,-614.563 426.865,-642.68 456,-672.143 459.474,-675.656 463.703,-678.562 468.151,-680.953"/>
<polygon fill="midnightblue" stroke="midnightblue" points="466.862,-684.212 477.414,-685.167 469.761,-677.84 466.862,-684.212"/>
</g>
<!-- Node25&#45;&gt;Node11 -->
<g id="edge96" class="edge"><title>Node25&#45;&gt;Node11</title>
<path fill="none" stroke="midnightblue" d="M377.425,-568.692C426.948,-582.428 518.314,-607.771 572.779,-622.878"/>
<polygon fill="midnightblue" stroke="midnightblue" points="571.929,-626.274 582.5,-625.574 573.8,-619.529 571.929,-626.274"/>
</g>
<!-- Node26 -->
<g id="node67" class="node"><title>Node26</title>
<a xlink:href="_david___total_mass_8c.html#a3d576eef04375cf190383f1440ef5600" target="_top" xlink:title="David_TotalMass">
<polygon fill="white" stroke="black" points="456,-417.643 456,-436.643 546,-436.643 546,-417.643 456,-417.643"/>
<text text-anchor="middle" x="501" y="-424.643" font-family="Helvetica,sans-Serif" font-size="10.00">David_TotalMass</text>
</a>
</g>
<!-- Node25&#45;&gt;Node26 -->
<g id="edge82" class="edge"><title>Node25&#45;&gt;Node26</title>
<path fill="none" stroke="midnightblue" d="M354.545,-549.437C381.197,-527.029 447.264,-471.482 480.397,-443.625"/>
<polygon fill="midnightblue" stroke="midnightblue" points="483.037,-445.978 488.438,-436.864 478.532,-440.62 483.037,-445.978"/>
</g>
<!-- Node27 -->
<g id="node70" class="node"><title>Node27</title>
<a xlink:href="_david___calc_m_c_8c.html#a5877c51babeda61b69280e4dc6ed28dd" target="_top" xlink:title="David_CalcMC">
<polygon fill="white" stroke="black" points="461,-625.643 461,-644.643 541,-644.643 541,-625.643 461,-625.643"/>
<text text-anchor="middle" x="501" y="-632.643" font-family="Helvetica,sans-Serif" font-size="10.00">David_CalcMC</text>
</a>
</g>
<!-- Node25&#45;&gt;Node27 -->
<g id="edge86" class="edge"><title>Node25&#45;&gt;Node27</title>
<path fill="none" stroke="midnightblue" d="M375.077,-568.7C389.139,-573.318 405.668,-579.337 420,-586.143 440.415,-595.84 462.204,-609.421 477.879,-619.827"/>
<polygon fill="midnightblue" stroke="midnightblue" points="476.096,-622.847 486.345,-625.534 480.009,-617.042 476.096,-622.847"/>
</g>
<!-- Node26&#45;&gt;Node26 -->
<g id="edge84" class="edge"><title>Node26&#45;&gt;Node26</title>
<path fill="none" stroke="midnightblue" d="M483.121,-436.901C474.423,-445.709 480.383,-455.143 501,-455.143 513.886,-455.143 521.046,-451.458 522.48,-446.544"/>
<polygon fill="midnightblue" stroke="midnightblue" points="525.657,-445.044 518.879,-436.901 519.099,-447.493 525.657,-445.044"/>
</g>
<!-- Node27&#45;&gt;Node6 -->
<g id="edge88" class="edge"><title>Node27&#45;&gt;Node6</title>
<path fill="none" stroke="midnightblue" d="M523.697,-625.522C531.183,-621.646 539.351,-616.756 546,-611.143 570.962,-590.071 593.102,-559.022 605.777,-539.452"/>
<polygon fill="midnightblue" stroke="midnightblue" points="608.823,-541.184 611.21,-530.861 602.907,-537.442 608.823,-541.184"/>
</g>
<!-- Node27&#45;&gt;Node8 -->
<g id="edge90" class="edge"><title>Node27&#45;&gt;Node8</title>
<path fill="none" stroke="midnightblue" d="M517.302,-644.828C526.737,-651.492 538.438,-661.112 546,-672.143 573.894,-712.834 550.148,-739.471 582,-777.143 582.977,-778.298 584.042,-779.395 585.173,-780.434"/>
<polygon fill="midnightblue" stroke="midnightblue" points="583.244,-783.36 593.368,-786.481 587.4,-777.727 583.244,-783.36"/>
</g>
<!-- Node27&#45;&gt;Node11 -->
<g id="edge92" class="edge"><title>Node27&#45;&gt;Node11</title>
<path fill="none" stroke="midnightblue" d="M541.255,-635.143C551.106,-635.143 561.755,-635.143 571.868,-635.143"/>
<polygon fill="midnightblue" stroke="midnightblue" points="572.157,-638.644 582.157,-635.143 572.157,-631.644 572.157,-638.644"/>
</g>
<!-- Node27&#45;&gt;Node27 -->
<g id="edge94" class="edge"><title>Node27&#45;&gt;Node27</title>
<path fill="none" stroke="midnightblue" d="M483.121,-644.901C474.423,-653.709 480.383,-663.143 501,-663.143 513.886,-663.143 521.046,-659.458 522.48,-654.544"/>
<polygon fill="midnightblue" stroke="midnightblue" points="525.657,-653.044 518.879,-644.901 519.099,-655.493 525.657,-653.044"/>
</g>
<!-- Node29 -->
<g id="node79" class="node"><title>Node29</title>
<a xlink:href="_david___inverse_sherpa_kinematics_8c.html#a6cfabefdd27205999cddc92c5967828d" target="_top" xlink:title="David_InverseSherpaKinematics">
<polygon fill="white" stroke="black" points="264.5,-57.6435 264.5,-76.6435 419.5,-76.6435 419.5,-57.6435 264.5,-57.6435"/>
<text text-anchor="middle" x="342" y="-64.6435" font-family="Helvetica,sans-Serif" font-size="10.00">David_InverseSherpaKinematics</text>
</a>
</g>
<!-- Node28&#45;&gt;Node29 -->
<g id="edge100" class="edge"><title>Node28&#45;&gt;Node29</title>
<path fill="none" stroke="midnightblue" d="M221.789,-52.9871C231.886,-54.1861 243.09,-55.5166 254.471,-56.8682"/>
<polygon fill="midnightblue" stroke="midnightblue" points="254.152,-60.3548 264.495,-58.0585 254.978,-53.4037 254.152,-60.3548"/>
</g>
<!-- Node30 -->
<g id="node81" class="node"><title>Node30</title>
<a xlink:href="_david___spline_8c.html#a4dca050905a794c29d094e3ee708486a" target="_top" xlink:title="David_C2Spline">
<polygon fill="white" stroke="black" points="300,-19.6435 300,-38.6435 384,-38.6435 384,-19.6435 300,-19.6435"/>
<text text-anchor="middle" x="342" y="-26.6435" font-family="Helvetica,sans-Serif" font-size="10.00">David_C2Spline</text>
</a>
</g>
<!-- Node28&#45;&gt;Node30 -->
<g id="edge102" class="edge"><title>Node28&#45;&gt;Node30</title>
<path fill="none" stroke="midnightblue" d="M221.789,-43.2998C242.41,-40.851 267.649,-37.8539 289.587,-35.2488"/>
<polygon fill="midnightblue" stroke="midnightblue" points="290.212,-38.6992 299.729,-34.0444 289.386,-31.7481 290.212,-38.6992"/>
</g>
<!-- Node31 -->
<g id="node83" class="node"><title>Node31</title>
<a xlink:href="_david___spline_8c.html#ae3970b1cd353fd2b3ee3ed2a7249ea26" target="_top" xlink:title="David_Spline">
<polygon fill="white" stroke="black" points="465,-0.643469 465,-19.6435 537,-19.6435 537,-0.643469 465,-0.643469"/>
<text text-anchor="middle" x="501" y="-7.64347" font-family="Helvetica,sans-Serif" font-size="10.00">David_Spline</text>
</a>
</g>
<!-- Node28&#45;&gt;Node31 -->
<g id="edge106" class="edge"><title>Node28&#45;&gt;Node31</title>
<path fill="none" stroke="midnightblue" d="M196.507,-38.5739C212.669,-29.2075 239.07,-15.579 264,-10.1435 329.08,4.04617 406.677,0.213714 454.648,-4.4736"/>
<polygon fill="midnightblue" stroke="midnightblue" points="454.406,-7.96712 464.712,-5.51242 455.124,-1.00411 454.406,-7.96712"/>
</g>
<!-- Node30&#45;&gt;Node31 -->
<g id="edge104" class="edge"><title>Node30&#45;&gt;Node31</title>
<path fill="none" stroke="midnightblue" d="M384.25,-24.1514C405.897,-21.5317 432.464,-18.3167 454.683,-15.6277"/>
<polygon fill="midnightblue" stroke="midnightblue" points="455.369,-19.0703 464.876,-14.3941 454.528,-12.121 455.369,-19.0703"/>
</g>
<!-- Node32&#45;&gt;Node3 -->
<g id="edge110" class="edge"><title>Node32&#45;&gt;Node3</title>
<path fill="none" stroke="midnightblue" d="M185.069,-468.744C195.091,-491.252 223.154,-547.804 264,-578.143 322.558,-621.639 359.586,-588.265 420,-629.143 440.643,-643.111 436.019,-657.245 456,-672.143 459.702,-674.904 463.867,-677.36 468.12,-679.515"/>
<polygon fill="midnightblue" stroke="midnightblue" points="466.875,-682.794 477.426,-683.751 469.774,-676.423 466.875,-682.794"/>
</g>
<!-- Node32&#45;&gt;Node6 -->
<g id="edge112" class="edge"><title>Node32&#45;&gt;Node6</title>
<path fill="none" stroke="midnightblue" d="M206.813,-468.711C223.018,-474.345 244.475,-481.133 264,-485.143 378.941,-508.755 518.267,-517.16 582.055,-519.916"/>
<polygon fill="midnightblue" stroke="midnightblue" points="582.212,-523.425 592.348,-520.339 582.5,-516.431 582.212,-523.425"/>
</g>
<!-- Node32&#45;&gt;Node7 -->
<g id="edge122" class="edge"><title>Node32&#45;&gt;Node7</title>
<path fill="none" stroke="midnightblue" d="M204.957,-449.595C221.337,-443.433 243.678,-435.737 264,-431.143 416.159,-396.751 603.243,-390.434 680.277,-389.338"/>
<polygon fill="midnightblue" stroke="midnightblue" points="680.445,-392.836 690.401,-389.215 680.36,-385.836 680.445,-392.836"/>
</g>
<!-- Node32&#45;&gt;Node8 -->
<g id="edge114" class="edge"><title>Node32&#45;&gt;Node8</title>
<path fill="none" stroke="midnightblue" d="M182.028,-469.052C186.062,-503.258 203.681,-617.965 264,-685.143 279.902,-702.854 433.12,-773.583 456,-780.143 497.906,-792.16 548.176,-795.487 581.266,-796.244"/>
<polygon fill="midnightblue" stroke="midnightblue" points="581.318,-799.745 591.373,-796.407 581.431,-792.746 581.318,-799.745"/>
</g>
<!-- Node32&#45;&gt;Node15 -->
<g id="edge116" class="edge"><title>Node32&#45;&gt;Node15</title>
<path fill="none" stroke="midnightblue" d="M217.593,-461.897C273.75,-466.122 381.482,-474.227 446.435,-479.113"/>
<polygon fill="midnightblue" stroke="midnightblue" points="446.243,-482.609 456.477,-479.869 446.768,-475.629 446.243,-482.609"/>
</g>
<!-- Node32&#45;&gt;Node25 -->
<g id="edge118" class="edge"><title>Node32&#45;&gt;Node25</title>
<path fill="none" stroke="midnightblue" d="M188.936,-468.762C202.638,-484.775 232.326,-516.933 264,-535.143 271.934,-539.705 280.836,-543.502 289.694,-546.627"/>
<polygon fill="midnightblue" stroke="midnightblue" points="288.649,-549.967 299.242,-549.759 290.831,-543.316 288.649,-549.967"/>
</g>
<!-- Node32&#45;&gt;Node26 -->
<g id="edge120" class="edge"><title>Node32&#45;&gt;Node26</title>
<path fill="none" stroke="midnightblue" d="M217.593,-455.473C273.595,-449.855 380.887,-439.092 445.895,-432.571"/>
<polygon fill="midnightblue" stroke="midnightblue" points="446.35,-436.043 455.951,-431.562 445.651,-429.078 446.35,-436.043"/>
</g>
<!-- Node32&#45;&gt;Node32 -->
<g id="edge128" class="edge"><title>Node32&#45;&gt;Node32</title>
<path fill="none" stroke="midnightblue" d="M159.655,-468.901C149.757,-477.709 156.539,-487.143 180,-487.143 195.03,-487.143 203.214,-483.271 204.553,-478.173"/>
<polygon fill="midnightblue" stroke="midnightblue" points="207.665,-476.56 200.345,-468.901 201.291,-479.453 207.665,-476.56"/>
</g>
<!-- Node33 -->
<g id="node95" class="node"><title>Node33</title>
<a xlink:href="_david___cross_8c.html#a575fbbe98ba6d596f8b981a25516710e" target="_top" xlink:title="David_Cross">
<polygon fill="white" stroke="black" points="582.5,-322.643 582.5,-341.643 653.5,-341.643 653.5,-322.643 582.5,-322.643"/>
<text text-anchor="middle" x="618" y="-329.643" font-family="Helvetica,sans-Serif" font-size="10.00">David_Cross</text>
</a>
</g>
<!-- Node32&#45;&gt;Node33 -->
<g id="edge124" class="edge"><title>Node32&#45;&gt;Node33</title>
<path fill="none" stroke="midnightblue" d="M184.849,-449.632C194.395,-427.467 221.505,-372.563 264,-350.143 363.634,-297.578 501.895,-311.145 572.151,-323.029"/>
<polygon fill="midnightblue" stroke="midnightblue" points="571.963,-326.55 582.418,-324.837 573.177,-319.656 571.963,-326.55"/>
</g>
<!-- Node34 -->
<g id="node99" class="node"><title>Node34</title>
<a xlink:href="_mat_8c.html#a6c57f1cba877524ae0db527511183bd6" target="_top" xlink:title="MatProScalf">
<polygon fill="white" stroke="black" points="307,-359.643 307,-378.643 377,-378.643 377,-359.643 307,-359.643"/>
<text text-anchor="middle" x="342" y="-366.643" font-family="Helvetica,sans-Serif" font-size="10.00">MatProScalf</text>
</a>
</g>
<!-- Node32&#45;&gt;Node34 -->
<g id="edge130" class="edge"><title>Node32&#45;&gt;Node34</title>
<path fill="none" stroke="midnightblue" d="M190.859,-449.247C205.577,-434.98 234.714,-408.651 264,-393.143 274.337,-387.67 286.126,-383.213 297.319,-379.693"/>
<polygon fill="midnightblue" stroke="midnightblue" points="298.358,-383.035 306.951,-376.837 296.368,-376.324 298.358,-383.035"/>
</g>
<!-- Node33&#45;&gt;Node7 -->
<g id="edge126" class="edge"><title>Node33&#45;&gt;Node7</title>
<path fill="none" stroke="midnightblue" d="M635.455,-341.813C650.596,-350.71 673.279,-364.04 690.72,-374.288"/>
<polygon fill="midnightblue" stroke="midnightblue" points="689.393,-377.568 699.788,-379.617 692.94,-371.533 689.393,-377.568"/>
</g>
</g>
</svg>
        <g id="navigator" transform="translate(0 0)" fill="#404254">
                <rect fill="#f2f5e9" fill-opacity="0.5" stroke="#606060" stroke-width=".5" x="0" y="0" width="60" height="60"/>
                <use id="zoomplus" xlink:href="#zoomPlus" x="17" y="9" onmousedown="handleZoom(evt,'in')"/>
                <use id="zoomminus" xlink:href="#zoomMin" x="42" y="9" onmousedown="handleZoom(evt,'out')"/>
                <use id="reset" xlink:href="#resetDef" x="30" y="36" onmousedown="handleReset()"/>
                <g id="arrowUp" xlink:href="#dirArrow" transform="translate(30 24)" onmousedown="handlePan(0,-1)">
                  <use xlink:href="#rim" fill="#404040">
                        <set attributeName="fill" to="#808080" begin="arrowUp.mouseover" end="arrowUp.mouseout"/>
                  </use>
                  <path fill="none" stroke="white" stroke-width="1.5" d="M0,-3.0v7 M-2.5,-0.5L0,-3.0L2.5,-0.5"/>
                </g>
                <g id="arrowRight" xlink:href="#dirArrow" transform="rotate(90) translate(36 -43)" onmousedown="handlePan(1,0)">
                  <use xlink:href="#rim" fill="#404040">
                        <set attributeName="fill" to="#808080" begin="arrowRight.mouseover" end="arrowRight.mouseout"/>
                  </use>
                  <path fill="none" stroke="white" stroke-width="1.5" d="M0,-3.0v7 M-2.5,-0.5L0,-3.0L2.5,-0.5"/>
                </g>
                <g id="arrowDown" xlink:href="#dirArrow" transform="rotate(180) translate(-30 -48)" onmousedown="handlePan(0,1)">
                  <use xlink:href="#rim" fill="#404040">
                        <set attributeName="fill" to="#808080" begin="arrowDown.mouseover" end="arrowDown.mouseout"/>
                  </use>
                  <path fill="none" stroke="white" stroke-width="1.5" d="M0,-3.0v7 M-2.5,-0.5L0,-3.0L2.5,-0.5"/>
                </g>
                <g id="arrowLeft" xlink:href="#dirArrow" transform="rotate(270) translate(-36 17)" onmousedown="handlePan(-1,0)">
                  <use xlink:href="#rim" fill="#404040">
                        <set attributeName="fill" to="#808080" begin="arrowLeft.mouseover" end="arrowLeft.mouseout"/>
                  </use>
                  <path fill="none" stroke="white" stroke-width="1.5" d="M0,-3.0v7 M-2.5,-0.5L0,-3.0L2.5,-0.5"/>
                </g>
        </g>
</svg>
