<?xml version="1.0" encoding="UTF-8" standalone="no"?>
<!DOCTYPE svg PUBLIC "-//W3C//DTD SVG 1.1//EN"
 "http://www.w3.org/Graphics/SVG/1.1/DTD/svg11.dtd">
<!-- Generated by graphviz version 2.28.0 (20110507.0327)
 -->
<!-- Title: G Pages: 1 -->
<!--zoomable-->
<svg id="main" version="1.1" xmlns="http://www.w3.org/2000/svg" xmlns:xlink="http://www.w3.org/1999/xlink" xml:space="preserve" onload="init(evt)">
        <defs>
                <circle id="rim" cx="0" cy="0" r="7"/>
                <circle id="rim2" cx="0" cy="0" r="3.5"/>
                <g id="zoomPlus">
                        <use xlink:href="#rim" fill="#404040">
                                <set attributeName="fill" to="#808080" begin="zoomplus.mouseover" end="zoomplus.mouseout"/>
                        </use>
                        <path d="M-4,0h8M0,-4v8" fill="none" stroke="white" stroke-width="1.5" pointer-events="none"/>
                </g>
                <g id="zoomMin">
                        <use xlink:href="#rim" fill="#404040">
                                <set attributeName="fill" to="#808080" begin="zoomminus.mouseover" end="zoomminus.mouseout"/>
                        </use>
                        <path d="M-4,0h8" fill="none" stroke="white" stroke-width="1.5" pointer-events="none"/>
                </g>
                <g id="dirArrow">
                        <path fill="none" stroke="white" stroke-width="1.5" d="M0,-3.0v7 M-2.5,-0.5L0,-3.0L2.5,-0.5"/>
                </g>
               <g id="resetDef">
                       <use xlink:href="#rim2" fill="#404040">
                               <set attributeName="fill" to="#808080" begin="reset.mouseover" end="reset.mouseout"/>
                       </use>
               </g>
        </defs>

<script type="text/javascript">
var viewWidth = 2328;
var viewHeight = 140;
var sectionId = 'dynsection-0';
</script>
<script xlink:href="svgpan.js"/>
<svg id="graph" class="graph">
<g id="viewport">
<title>G</title>
<polygon fill="white" stroke="white" points="-4,5 -4,-136 2324.66,-136 2324.66,5 -4,5"/>
<!-- Node1 -->
<g id="node1" class="node"><title>Node1</title>
<polygon fill="#bfbfbf" stroke="black" points="991.16,-112.5 991.16,-131.5 1094.16,-131.5 1094.16,-112.5 991.16,-112.5"/>
<text text-anchor="middle" x="1042.66" y="-119.5" font-family="Helvetica,sans-Serif" font-size="10.00">ForwardDynamics.c</text>
</g>
<!-- Node2 -->
<g id="node3" class="node"><title>Node2</title>
<polygon fill="white" stroke="#bfbfbf" points="399.66,-0.5 399.66,-19.5 483.66,-19.5 483.66,-0.5 399.66,-0.5"/>
<text text-anchor="middle" x="441.66" y="-7.5" font-family="Helvetica,sans-Serif" font-size="10.00">gsl/gsl_vector.h</text>
</g>
<!-- Node1&#45;&gt;Node2 -->
<g id="edge2" class="edge"><title>Node1&#45;&gt;Node2</title>
<path fill="none" stroke="midnightblue" d="M991.096,-120.716C786.459,-119.342 41.0164,-111.881 6.65994,-76 -47.3382,-19.6055 262.522,-11.8318 389.375,-10.9864"/>
<polygon fill="midnightblue" stroke="midnightblue" points="389.647,-14.4851 399.628,-10.9306 389.609,-7.4852 389.647,-14.4851"/>
</g>
<!-- Node3 -->
<g id="node5" class="node"><title>Node3</title>
<polygon fill="white" stroke="#bfbfbf" points="513.66,-0.5 513.66,-19.5 599.66,-19.5 599.66,-0.5 513.66,-0.5"/>
<text text-anchor="middle" x="556.66" y="-7.5" font-family="Helvetica,sans-Serif" font-size="10.00">gsl/gsl_matrix.h</text>
</g>
<!-- Node1&#45;&gt;Node3 -->
<g id="edge4" class="edge"><title>Node1&#45;&gt;Node3</title>
<path fill="none" stroke="midnightblue" d="M1023.77,-112.459C1004.32,-103.591 973.196,-89.1938 946.66,-76 929.57,-67.5031 926.86,-61.746 908.66,-56 806.257,-23.6696 680.119,-14.5035 610.039,-11.9458"/>
<polygon fill="midnightblue" stroke="midnightblue" points="609.812,-8.43641 599.701,-11.6019 609.579,-15.4325 609.812,-8.43641"/>
</g>
<!-- Node4 -->
<g id="node7" class="node"><title>Node4</title>
<polygon fill="white" stroke="#bfbfbf" points="956.16,-56.5 956.16,-75.5 1033.16,-75.5 1033.16,-56.5 956.16,-56.5"/>
<text text-anchor="middle" x="994.66" y="-63.5" font-family="Helvetica,sans-Serif" font-size="10.00">gsl/gsl_blas.h</text>
</g>
<!-- Node1&#45;&gt;Node4 -->
<g id="edge6" class="edge"><title>Node1&#45;&gt;Node4</title>
<path fill="none" stroke="midnightblue" d="M1034.73,-112.083C1027.81,-104.298 1017.59,-92.8015 1009.21,-83.3665"/>
<polygon fill="midnightblue" stroke="midnightblue" points="1011.7,-80.8999 1002.44,-75.7511 1006.47,-85.5505 1011.7,-80.8999"/>
</g>
<!-- Node5 -->
<g id="node9" class="node"><title>Node5</title>
<polygon fill="white" stroke="#bfbfbf" points="1051.16,-56.5 1051.16,-75.5 1132.16,-75.5 1132.16,-56.5 1051.16,-56.5"/>
<text text-anchor="middle" x="1091.66" y="-63.5" font-family="Helvetica,sans-Serif" font-size="10.00">gsl/gsl_linalg.h</text>
</g>
<!-- Node1&#45;&gt;Node5 -->
<g id="edge8" class="edge"><title>Node1&#45;&gt;Node5</title>
<path fill="none" stroke="midnightblue" d="M1050.75,-112.083C1057.82,-104.298 1068.25,-92.8015 1076.81,-83.3665"/>
<polygon fill="midnightblue" stroke="midnightblue" points="1079.59,-85.5087 1083.72,-75.7511 1074.41,-80.8047 1079.59,-85.5087"/>
</g>
<!-- Node6 -->
<g id="node11" class="node"><title>Node6</title>
<polygon fill="white" stroke="#bfbfbf" points="1150.66,-56.5 1150.66,-75.5 1230.66,-75.5 1230.66,-56.5 1150.66,-56.5"/>
<text text-anchor="middle" x="1190.66" y="-63.5" font-family="Helvetica,sans-Serif" font-size="10.00">gsl/gsl_math.h</text>
</g>
<!-- Node1&#45;&gt;Node6 -->
<g id="edge10" class="edge"><title>Node1&#45;&gt;Node6</title>
<path fill="none" stroke="midnightblue" d="M1066.11,-112.444C1090.79,-103.438 1129.85,-89.1891 1157.64,-79.049"/>
<polygon fill="midnightblue" stroke="midnightblue" points="1159.12,-82.2321 1167.32,-75.5164 1156.72,-75.6561 1159.12,-82.2321"/>
</g>
<!-- Node7 -->
<g id="node13" class="node"><title>Node7</title>
<polygon fill="white" stroke="#bfbfbf" points="1248.66,-56.5 1248.66,-75.5 1296.66,-75.5 1296.66,-56.5 1248.66,-56.5"/>
<text text-anchor="middle" x="1272.66" y="-63.5" font-family="Helvetica,sans-Serif" font-size="10.00">GL/gl.h</text>
</g>
<!-- Node1&#45;&gt;Node7 -->
<g id="edge12" class="edge"><title>Node1&#45;&gt;Node7</title>
<path fill="none" stroke="midnightblue" d="M1082.4,-112.433C1120.16,-104.177 1178.79,-91.0694 1238.55,-76.2017"/>
<polygon fill="midnightblue" stroke="midnightblue" points="1239.69,-79.5253 1248.54,-73.7028 1237.99,-72.7345 1239.69,-79.5253"/>
</g>
<!-- Node8 -->
<g id="node15" class="node"><title>Node8</title>
<polygon fill="white" stroke="#bfbfbf" points="1315.16,-56.5 1315.16,-75.5 1368.16,-75.5 1368.16,-56.5 1315.16,-56.5"/>
<text text-anchor="middle" x="1341.66" y="-63.5" font-family="Helvetica,sans-Serif" font-size="10.00">GL/glu.h</text>
</g>
<!-- Node1&#45;&gt;Node8 -->
<g id="edge14" class="edge"><title>Node1&#45;&gt;Node8</title>
<path fill="none" stroke="midnightblue" d="M1094.28,-113.348C1145.29,-105.522 1225.74,-92.4702 1304.84,-76.0364"/>
<polygon fill="midnightblue" stroke="midnightblue" points="1305.91,-79.3881 1314.98,-73.9094 1304.47,-72.5372 1305.91,-79.3881"/>
</g>
<!-- Node9 -->
<g id="node17" class="node"><title>Node9</title>
<a xlink:href="u_link_8h.html" target="_top" xlink:title="Link initialisation and declarations.">
<polygon fill="white" stroke="black" points="626.16,-56.5 626.16,-75.5 677.16,-75.5 677.16,-56.5 626.16,-56.5"/>
<text text-anchor="middle" x="651.66" y="-63.5" font-family="Helvetica,sans-Serif" font-size="10.00">uLINK.h</text>
</a>
</g>
<!-- Node1&#45;&gt;Node9 -->
<g id="edge16" class="edge"><title>Node1&#45;&gt;Node9</title>
<path fill="none" stroke="midnightblue" d="M990.883,-116.658C923.098,-110.491 800.472,-97.6816 687.084,-76.063"/>
<polygon fill="midnightblue" stroke="midnightblue" points="687.678,-72.613 677.195,-74.1502 686.349,-79.4856 687.678,-72.613"/>
</g>
<!-- Node10 -->
<g id="node21" class="node"><title>Node10</title>
<a xlink:href="_inv_dyn_8h.html" target="_top" xlink:title="InvDyn.h">
<polygon fill="white" stroke="black" points="695.16,-56.5 695.16,-75.5 748.16,-75.5 748.16,-56.5 695.16,-56.5"/>
<text text-anchor="middle" x="721.66" y="-63.5" font-family="Helvetica,sans-Serif" font-size="10.00">InvDyn.h</text>
</a>
</g>
<!-- Node1&#45;&gt;Node10 -->
<g id="edge22" class="edge"><title>Node1&#45;&gt;Node10</title>
<path fill="none" stroke="midnightblue" d="M990.985,-114.384C935.633,-106.96 845.036,-93.837 758.354,-76.2027"/>
<polygon fill="midnightblue" stroke="midnightblue" points="758.852,-72.7319 748.352,-74.1439 757.441,-79.5882 758.852,-72.7319"/>
</g>
<!-- Node11 -->
<g id="node25" class="node"><title>Node11</title>
<a xlink:href="_calc_co_m_8h.html" target="_top" xlink:title="CalcCoM.h">
<polygon fill="white" stroke="black" points="766.16,-56.5 766.16,-75.5 831.16,-75.5 831.16,-56.5 766.16,-56.5"/>
<text text-anchor="middle" x="798.66" y="-63.5" font-family="Helvetica,sans-Serif" font-size="10.00">CalcCoM.h</text>
</a>
</g>
<!-- Node1&#45;&gt;Node11 -->
<g id="edge28" class="edge"><title>Node1&#45;&gt;Node11</title>
<path fill="none" stroke="midnightblue" d="M1004,-112.444C959.648,-102.628 887.153,-86.5844 841.226,-76.4203"/>
<polygon fill="midnightblue" stroke="midnightblue" points="841.805,-72.9639 831.285,-74.2203 840.292,-79.7985 841.805,-72.9639"/>
</g>
<!-- Node12 -->
<g id="node29" class="node"><title>Node12</title>
<a xlink:href="_cross_8h.html" target="_top" xlink:title="Cross.h">
<polygon fill="white" stroke="black" points="849.66,-56.5 849.66,-75.5 899.66,-75.5 899.66,-56.5 849.66,-56.5"/>
<text text-anchor="middle" x="874.66" y="-63.5" font-family="Helvetica,sans-Serif" font-size="10.00">Cross.h</text>
</a>
</g>
<!-- Node1&#45;&gt;Node12 -->
<g id="edge34" class="edge"><title>Node1&#45;&gt;Node12</title>
<path fill="none" stroke="midnightblue" d="M1016.04,-112.444C987.237,-103.185 941.192,-88.3854 909.521,-78.2054"/>
<polygon fill="midnightblue" stroke="midnightblue" points="910.375,-74.8035 899.784,-75.0755 908.233,-81.4677 910.375,-74.8035"/>
</g>
<!-- Node13 -->
<g id="node33" class="node"><title>Node13</title>
<a xlink:href="_draw_marker_8h.html" target="_top" xlink:title="DrawMarker.h">
<polygon fill="white" stroke="black" points="16.1599,-56.5 16.1599,-75.5 93.1599,-75.5 93.1599,-56.5 16.1599,-56.5"/>
<text text-anchor="middle" x="54.6599" y="-63.5" font-family="Helvetica,sans-Serif" font-size="10.00">DrawMarker.h</text>
</a>
</g>
<!-- Node1&#45;&gt;Node13 -->
<g id="edge40" class="edge"><title>Node1&#45;&gt;Node13</title>
<path fill="none" stroke="midnightblue" d="M990.935,-121.088C849.95,-120.78 447.035,-116.257 103.468,-76.0521"/>
<polygon fill="midnightblue" stroke="midnightblue" points="103.663,-72.5508 93.321,-74.8521 102.841,-79.5023 103.663,-72.5508"/>
</g>
<!-- Node14 -->
<g id="node37" class="node"><title>Node14</title>
<a xlink:href="_draw_force_marker_8h.html" target="_top" xlink:title="DrawForceMarker.h">
<polygon fill="white" stroke="black" points="111.16,-56.5 111.16,-75.5 212.16,-75.5 212.16,-56.5 111.16,-56.5"/>
<text text-anchor="middle" x="161.66" y="-63.5" font-family="Helvetica,sans-Serif" font-size="10.00">DrawForceMarker.h</text>
</a>
</g>
<!-- Node1&#45;&gt;Node14 -->
<g id="edge46" class="edge"><title>Node1&#45;&gt;Node14</title>
<path fill="none" stroke="midnightblue" d="M991.134,-119.86C863.005,-116.664 519.544,-105.883 222.461,-75.9738"/>
<polygon fill="midnightblue" stroke="midnightblue" points="222.659,-72.476 212.357,-74.9473 221.952,-79.4402 222.659,-72.476"/>
</g>
<!-- Node15 -->
<g id="node41" class="node"><title>Node15</title>
<a xlink:href="_stabilizator_8h.html" target="_top" xlink:title="Stabilizator.h">
<polygon fill="white" stroke="black" points="230.66,-56.5 230.66,-75.5 304.66,-75.5 304.66,-56.5 230.66,-56.5"/>
<text text-anchor="middle" x="267.66" y="-63.5" font-family="Helvetica,sans-Serif" font-size="10.00">Stabilizator.h</text>
</a>
</g>
<!-- Node1&#45;&gt;Node15 -->
<g id="edge52" class="edge"><title>Node1&#45;&gt;Node15</title>
<path fill="none" stroke="midnightblue" d="M990.732,-120.137C872.457,-117.668 573.863,-108.585 314.725,-75.9615"/>
<polygon fill="midnightblue" stroke="midnightblue" points="315.111,-72.4824 304.749,-74.6913 314.227,-79.4263 315.111,-72.4824"/>
</g>
<!-- Node16 -->
<g id="node45" class="node"><title>Node16</title>
<a xlink:href="_gravity_8h.html" target="_top" xlink:title="Gravity.h">
<polygon fill="white" stroke="black" points="323.16,-56.5 323.16,-75.5 378.16,-75.5 378.16,-56.5 323.16,-56.5"/>
<text text-anchor="middle" x="350.66" y="-63.5" font-family="Helvetica,sans-Serif" font-size="10.00">Gravity.h</text>
</a>
</g>
<!-- Node1&#45;&gt;Node16 -->
<g id="edge58" class="edge"><title>Node1&#45;&gt;Node16</title>
<path fill="none" stroke="midnightblue" d="M990.858,-120.544C881.195,-118.911 617.511,-111.46 388.651,-76.0645"/>
<polygon fill="midnightblue" stroke="midnightblue" points="388.89,-72.5592 378.468,-74.4673 387.805,-79.4747 388.89,-72.5592"/>
</g>
<!-- Node17 -->
<g id="node49" class="node"><title>Node17</title>
<a xlink:href="_external_forces_8h.html" target="_top" xlink:title="ExternalForces.h">
<polygon fill="white" stroke="black" points="396.16,-56.5 396.16,-75.5 487.16,-75.5 487.16,-56.5 396.16,-56.5"/>
<text text-anchor="middle" x="441.66" y="-63.5" font-family="Helvetica,sans-Serif" font-size="10.00">ExternalForces.h</text>
</a>
</g>
<!-- Node1&#45;&gt;Node17 -->
<g id="edge64" class="edge"><title>Node1&#45;&gt;Node17</title>
<path fill="none" stroke="midnightblue" d="M990.852,-118.176C895.269,-112.654 684.554,-99.0189 497.314,-76.1163"/>
<polygon fill="midnightblue" stroke="midnightblue" points="497.64,-72.6301 487.286,-74.878 496.782,-79.5773 497.64,-72.6301"/>
</g>
<!-- Node18 -->
<g id="node53" class="node"><title>Node18</title>
<a xlink:href="_forward_dynamics_8h.html" target="_top" xlink:title="ForwardDynamics.h">
<polygon fill="white" stroke="black" points="505.16,-56.5 505.16,-75.5 608.16,-75.5 608.16,-56.5 505.16,-56.5"/>
<text text-anchor="middle" x="556.66" y="-63.5" font-family="Helvetica,sans-Serif" font-size="10.00">ForwardDynamics.h</text>
</a>
</g>
<!-- Node1&#45;&gt;Node18 -->
<g id="edge70" class="edge"><title>Node1&#45;&gt;Node18</title>
<path fill="none" stroke="midnightblue" d="M991.099,-116.286C912.782,-108.964 758.905,-93.9485 618.44,-76.1837"/>
<polygon fill="midnightblue" stroke="midnightblue" points="618.712,-72.6903 608.351,-74.8999 617.829,-79.6343 618.712,-72.6903"/>
</g>
<!-- Node19 -->
<g id="node57" class="node"><title>Node19</title>
<a xlink:href="_david__u_l_i_n_k_8h.html" target="_top" xlink:title="Link initialisation and declarations (used in control loop)">
<polygon fill="white" stroke="black" points="1386.66,-56.5 1386.66,-75.5 1466.66,-75.5 1466.66,-56.5 1386.66,-56.5"/>
<text text-anchor="middle" x="1426.66" y="-63.5" font-family="Helvetica,sans-Serif" font-size="10.00">David_uLINK.h</text>
</a>
</g>
<!-- Node1&#45;&gt;Node19 -->
<g id="edge76" class="edge"><title>Node1&#45;&gt;Node19</title>
<path fill="none" stroke="midnightblue" d="M1094.26,-114.766C1159.97,-106.662 1276.96,-91.6821 1376.66,-76 1376.76,-75.9842 1376.86,-75.9683 1376.96,-75.9523"/>
<polygon fill="midnightblue" stroke="midnightblue" points="1377.27,-79.4492 1386.57,-74.3771 1376.13,-72.5414 1377.27,-79.4492"/>
</g>
<!-- Node20 -->
<g id="node59" class="node"><title>Node20</title>
<a xlink:href="_david___static_trajectory_8h.html" target="_top" xlink:title="David_StaticTrajectory.h">
<polygon fill="white" stroke="black" points="1484.66,-56.5 1484.66,-75.5 1606.66,-75.5 1606.66,-56.5 1484.66,-56.5"/>
<text text-anchor="middle" x="1545.66" y="-63.5" font-family="Helvetica,sans-Serif" font-size="10.00">David_StaticTrajectory.h</text>
</a>
</g>
<!-- Node1&#45;&gt;Node20 -->
<g id="edge78" class="edge"><title>Node1&#45;&gt;Node20</title>
<path fill="none" stroke="midnightblue" d="M1094.36,-116.037C1173.7,-108.331 1330.52,-92.7429 1474.26,-76.1382"/>
<polygon fill="midnightblue" stroke="midnightblue" points="1475.06,-79.5695 1484.59,-74.941 1474.25,-72.6161 1475.06,-79.5695"/>
</g>
<!-- Node21 -->
<g id="node61" class="node"><title>Node21</title>
<a xlink:href="_david___forward_kinematics_8h.html" target="_top" xlink:title="David_ForwardKinematics.h">
<polygon fill="white" stroke="black" points="1625.16,-56.5 1625.16,-75.5 1762.16,-75.5 1762.16,-56.5 1625.16,-56.5"/>
<text text-anchor="middle" x="1693.66" y="-63.5" font-family="Helvetica,sans-Serif" font-size="10.00">David_ForwardKinematics.h</text>
</a>
</g>
<!-- Node1&#45;&gt;Node21 -->
<g id="edge80" class="edge"><title>Node1&#45;&gt;Node21</title>
<path fill="none" stroke="midnightblue" d="M1094.47,-117.568C1193.37,-110.876 1416.17,-95.1377 1614.74,-76.0561"/>
<polygon fill="midnightblue" stroke="midnightblue" points="1615.15,-79.5321 1624.77,-75.0868 1614.48,-72.5645 1615.15,-79.5321"/>
</g>
<!-- Node22 -->
<g id="node63" class="node"><title>Node22</title>
<a xlink:href="_david___calc_co_m_8h.html" target="_top" xlink:title="David_CalcCoM.h">
<polygon fill="white" stroke="black" points="1780.16,-56.5 1780.16,-75.5 1873.16,-75.5 1873.16,-56.5 1780.16,-56.5"/>
<text text-anchor="middle" x="1826.66" y="-63.5" font-family="Helvetica,sans-Serif" font-size="10.00">David_CalcCoM.h</text>
</a>
</g>
<!-- Node1&#45;&gt;Node22 -->
<g id="edge82" class="edge"><title>Node1&#45;&gt;Node22</title>
<path fill="none" stroke="midnightblue" d="M1094.45,-119.535C1212.41,-115.825 1510.31,-104.341 1769.96,-75.9589"/>
<polygon fill="midnightblue" stroke="midnightblue" points="1770.4,-79.4316 1779.96,-74.8556 1769.63,-72.4738 1770.4,-79.4316"/>
</g>
<!-- Node23 -->
<g id="node65" class="node"><title>Node23</title>
<a xlink:href="_david___gravity_8h.html" target="_top" xlink:title="David_Gravity.h">
<polygon fill="white" stroke="black" points="1891.16,-56.5 1891.16,-75.5 1974.16,-75.5 1974.16,-56.5 1891.16,-56.5"/>
<text text-anchor="middle" x="1932.66" y="-63.5" font-family="Helvetica,sans-Serif" font-size="10.00">David_Gravity.h</text>
</a>
</g>
<!-- Node1&#45;&gt;Node23 -->
<g id="edge84" class="edge"><title>Node1&#45;&gt;Node23</title>
<path fill="none" stroke="midnightblue" d="M1094.4,-120.401C1224.68,-118.427 1576.91,-110.2 1880.64,-75.9574"/>
<polygon fill="midnightblue" stroke="midnightblue" points="1881.43,-79.39 1890.97,-74.7805 1880.64,-72.435 1881.43,-79.39"/>
</g>
<!-- Node24 -->
<g id="node67" class="node"><title>Node24</title>
<a xlink:href="_david___stabilizator_8h.html" target="_top" xlink:title="David_Stabilizator.h">
<polygon fill="white" stroke="black" points="1992.66,-56.5 1992.66,-75.5 2094.66,-75.5 2094.66,-56.5 1992.66,-56.5"/>
<text text-anchor="middle" x="2043.66" y="-63.5" font-family="Helvetica,sans-Serif" font-size="10.00">David_Stabilizator.h</text>
</a>
</g>
<!-- Node1&#45;&gt;Node24 -->
<g id="edge86" class="edge"><title>Node1&#45;&gt;Node24</title>
<path fill="none" stroke="midnightblue" d="M1094.25,-120.316C1234.87,-118.07 1636.88,-109.104 1982.25,-75.9187"/>
<polygon fill="midnightblue" stroke="midnightblue" points="1982.83,-79.3784 1992.45,-74.9298 1982.16,-72.4111 1982.83,-79.3784"/>
</g>
<!-- Node25 -->
<g id="node69" class="node"><title>Node25</title>
<a xlink:href="_draw_markerf_8h.html" target="_top" xlink:title="DrawMarkerf.h">
<polygon fill="white" stroke="black" points="2113.16,-56.5 2113.16,-75.5 2192.16,-75.5 2192.16,-56.5 2113.16,-56.5"/>
<text text-anchor="middle" x="2152.66" y="-63.5" font-family="Helvetica,sans-Serif" font-size="10.00">DrawMarkerf.h</text>
</a>
</g>
<!-- Node1&#45;&gt;Node25 -->
<g id="edge88" class="edge"><title>Node1&#45;&gt;Node25</title>
<path fill="none" stroke="midnightblue" d="M1094.2,-121.35C1246.78,-121.848 1709.54,-119.475 2102.99,-75.8813"/>
<polygon fill="midnightblue" stroke="midnightblue" points="2103.6,-79.3352 2113.15,-74.745 2102.82,-72.3786 2103.6,-79.3352"/>
</g>
<!-- Node26 -->
<g id="node71" class="node"><title>Node26</title>
<a xlink:href="_mat_8h.html" target="_top" xlink:title="Mat.h">
<polygon fill="white" stroke="black" points="2210.16,-56.5 2210.16,-75.5 2251.16,-75.5 2251.16,-56.5 2210.16,-56.5"/>
<text text-anchor="middle" x="2230.66" y="-63.5" font-family="Helvetica,sans-Serif" font-size="10.00">Mat.h</text>
</a>
</g>
<!-- Node1&#45;&gt;Node26 -->
<g id="edge90" class="edge"><title>Node1&#45;&gt;Node26</title>
<path fill="none" stroke="midnightblue" d="M1094.28,-120.724C1286.83,-119.428 1963.68,-112.441 2199.93,-75.5864"/>
<polygon fill="midnightblue" stroke="midnightblue" points="2200.53,-79.0359 2209.84,-73.9798 2199.41,-72.1262 2200.53,-79.0359"/>
</g>
<!-- Node28 -->
<g id="node75" class="node"><title>Node28</title>
<a xlink:href="_setup_8h.html" target="_top" xlink:title="Contain setup of simulations.">
<polygon fill="white" stroke="black" points="2269.66,-56.5 2269.66,-75.5 2319.66,-75.5 2319.66,-56.5 2269.66,-56.5"/>
<text text-anchor="middle" x="2294.66" y="-63.5" font-family="Helvetica,sans-Serif" font-size="10.00">Setup.h</text>
</a>
</g>
<!-- Node1&#45;&gt;Node28 -->
<g id="edge94" class="edge"><title>Node1&#45;&gt;Node28</title>
<path fill="none" stroke="midnightblue" d="M1094.44,-120.565C1296.14,-118.641 2029.51,-109.449 2259.66,-76 2259.76,-75.9853 2259.86,-75.9705 2259.96,-75.9555"/>
<polygon fill="midnightblue" stroke="midnightblue" points="2260.38,-79.4387 2269.56,-74.1429 2259.08,-72.5604 2260.38,-79.4387"/>
</g>
<!-- Node9&#45;&gt;Node2 -->
<g id="edge18" class="edge"><title>Node9&#45;&gt;Node2</title>
<path fill="none" stroke="midnightblue" d="M625.91,-58.3785C590.726,-49.3312 527.159,-32.9854 484.677,-22.0615"/>
<polygon fill="midnightblue" stroke="midnightblue" points="485.448,-18.646 474.892,-19.5453 483.705,-25.4255 485.448,-18.646"/>
</g>
<!-- Node9&#45;&gt;Node3 -->
<g id="edge20" class="edge"><title>Node9&#45;&gt;Node3</title>
<path fill="none" stroke="midnightblue" d="M636.397,-56.324C621.439,-47.8215 598.405,-34.7288 580.933,-24.7975"/>
<polygon fill="midnightblue" stroke="midnightblue" points="582.309,-21.5534 571.885,-19.6545 578.85,-27.639 582.309,-21.5534"/>
</g>
<!-- Node10&#45;&gt;Node2 -->
<g id="edge24" class="edge"><title>Node10&#45;&gt;Node2</title>
<path fill="none" stroke="midnightblue" d="M694.967,-58.1292C691.836,-57.382 688.682,-56.6557 685.66,-56 619.832,-41.7159 543.381,-28.0916 493.847,-19.6508"/>
<polygon fill="midnightblue" stroke="midnightblue" points="494.144,-16.1513 483.7,-17.93 492.974,-23.0527 494.144,-16.1513"/>
</g>
<!-- Node10&#45;&gt;Node3 -->
<g id="edge26" class="edge"><title>Node10&#45;&gt;Node3</title>
<path fill="none" stroke="midnightblue" d="M695.515,-56.4435C667.637,-47.3196 623.312,-32.8133 592.26,-22.6509"/>
<polygon fill="midnightblue" stroke="midnightblue" points="593.275,-19.3005 582.682,-19.5164 591.098,-25.9533 593.275,-19.3005"/>
</g>
<!-- Node11&#45;&gt;Node2 -->
<g id="edge30" class="edge"><title>Node11&#45;&gt;Node2</title>
<path fill="none" stroke="midnightblue" d="M766.144,-57.8001C762.945,-57.1616 759.743,-56.5499 756.66,-56 756.256,-55.928 583.064,-31.1932 493.694,-18.4306"/>
<polygon fill="midnightblue" stroke="midnightblue" points="494.144,-14.9593 483.749,-17.0104 493.154,-21.889 494.144,-14.9593"/>
</g>
<!-- Node11&#45;&gt;Node3 -->
<g id="edge32" class="edge"><title>Node11&#45;&gt;Node3</title>
<path fill="none" stroke="midnightblue" d="M766.023,-57.7173C724.589,-48.4717 652.76,-32.4438 604.97,-21.7798"/>
<polygon fill="midnightblue" stroke="midnightblue" points="605.678,-18.352 595.156,-19.59 604.154,-25.1839 605.678,-18.352"/>
</g>
<!-- Node12&#45;&gt;Node2 -->
<g id="edge36" class="edge"><title>Node12&#45;&gt;Node2</title>
<path fill="none" stroke="midnightblue" d="M849.521,-58.072C846.22,-57.299 842.87,-56.5821 839.66,-56 692.316,-29.2837 653.247,-38.5915 504.66,-20 501.212,-19.5686 497.66,-19.1073 494.082,-18.63"/>
<polygon fill="midnightblue" stroke="midnightblue" points="494.374,-15.1376 483.993,-17.254 493.428,-22.0734 494.374,-15.1376"/>
</g>
<!-- Node12&#45;&gt;Node3 -->
<g id="edge38" class="edge"><title>Node12&#45;&gt;Node3</title>
<path fill="none" stroke="midnightblue" d="M849.491,-58.2265C846.195,-57.4282 842.854,-56.6632 839.66,-56 760.328,-39.5309 667.397,-25.8037 610.278,-17.9952"/>
<polygon fill="midnightblue" stroke="midnightblue" points="610.42,-14.4826 600.04,-16.6068 609.479,-21.4191 610.42,-14.4826"/>
</g>
<!-- Node13&#45;&gt;Node2 -->
<g id="edge42" class="edge"><title>Node13&#45;&gt;Node2</title>
<path fill="none" stroke="midnightblue" d="M93.3573,-57.4068C96.1638,-56.9124 98.9535,-56.4379 101.66,-56 203.065,-39.5944 322.206,-24.8637 389.125,-17.0011"/>
<polygon fill="midnightblue" stroke="midnightblue" points="389.881,-20.4367 399.406,-15.7989 389.068,-13.4841 389.881,-20.4367"/>
</g>
<!-- Node13&#45;&gt;Node3 -->
<g id="edge44" class="edge"><title>Node13&#45;&gt;Node3</title>
<path fill="none" stroke="midnightblue" d="M93.3387,-57.2841C96.1496,-56.8185 98.9453,-56.3839 101.66,-56 274.453,-31.5605 319.315,-40.1567 492.66,-20 496.108,-19.5991 499.657,-19.1636 503.233,-18.7078"/>
<polygon fill="midnightblue" stroke="midnightblue" points="503.86,-22.1555 513.319,-17.3812 502.948,-15.2153 503.86,-22.1555"/>
</g>
<!-- Node14&#45;&gt;Node2 -->
<g id="edge48" class="edge"><title>Node14&#45;&gt;Node2</title>
<path fill="none" stroke="midnightblue" d="M206.027,-56.4435C255.861,-46.8326 336.663,-31.2494 389.485,-21.0623"/>
<polygon fill="midnightblue" stroke="midnightblue" points="390.177,-24.4934 399.334,-19.1629 388.852,-17.62 390.177,-24.4934"/>
</g>
<!-- Node14&#45;&gt;Node3 -->
<g id="edge50" class="edge"><title>Node14&#45;&gt;Node3</title>
<path fill="none" stroke="midnightblue" d="M212.39,-57.3292C215.526,-56.874 218.635,-56.4277 221.66,-56 341.966,-38.9875 372.278,-36.46 492.66,-20 496.263,-19.5074 499.979,-18.9953 503.722,-18.4765"/>
<polygon fill="midnightblue" stroke="midnightblue" points="504.212,-21.9422 513.634,-17.0965 503.246,-15.009 504.212,-21.9422"/>
</g>
<!-- Node15&#45;&gt;Node2 -->
<g id="edge54" class="edge"><title>Node15&#45;&gt;Node2</title>
<path fill="none" stroke="midnightblue" d="M295.231,-56.4435C324.757,-47.2801 371.778,-32.6876 404.543,-22.5192"/>
<polygon fill="midnightblue" stroke="midnightblue" points="405.705,-25.8232 414.218,-19.5164 403.63,-19.1378 405.705,-25.8232"/>
</g>
<!-- Node15&#45;&gt;Node3 -->
<g id="edge56" class="edge"><title>Node15&#45;&gt;Node3</title>
<path fill="none" stroke="midnightblue" d="M304.811,-57.698C307.804,-57.1198 310.782,-56.548 313.66,-56 378.979,-43.5624 454.267,-29.692 503.517,-20.6817"/>
<polygon fill="midnightblue" stroke="midnightblue" points="504.411,-24.0765 513.618,-18.8351 503.152,-17.1906 504.411,-24.0765"/>
</g>
<!-- Node16&#45;&gt;Node2 -->
<g id="edge60" class="edge"><title>Node16&#45;&gt;Node2</title>
<path fill="none" stroke="midnightblue" d="M365.281,-56.324C379.609,-47.8215 401.672,-34.7288 418.409,-24.7975"/>
<polygon fill="midnightblue" stroke="midnightblue" points="420.262,-27.7677 427.075,-19.6545 416.69,-21.7478 420.262,-27.7677"/>
</g>
<!-- Node16&#45;&gt;Node3 -->
<g id="edge62" class="edge"><title>Node16&#45;&gt;Node3</title>
<path fill="none" stroke="midnightblue" d="M378.442,-57.7173C413.27,-48.5878 473.325,-32.8451 513.995,-22.1839"/>
<polygon fill="midnightblue" stroke="midnightblue" points="515.105,-25.5114 523.891,-19.59 513.33,-18.7402 515.105,-25.5114"/>
</g>
<!-- Node17&#45;&gt;Node2 -->
<g id="edge66" class="edge"><title>Node17&#45;&gt;Node2</title>
<path fill="none" stroke="midnightblue" d="M441.66,-56.083C441.66,-49.0059 441.66,-38.8611 441.66,-29.9865"/>
<polygon fill="midnightblue" stroke="midnightblue" points="445.16,-29.751 441.66,-19.7511 438.16,-29.7511 445.16,-29.751"/>
</g>
<!-- Node17&#45;&gt;Node3 -->
<g id="edge68" class="edge"><title>Node17&#45;&gt;Node3</title>
<path fill="none" stroke="midnightblue" d="M459.882,-56.4435C478.556,-47.6751 507.816,-33.9355 529.277,-23.8579"/>
<polygon fill="midnightblue" stroke="midnightblue" points="530.959,-26.935 538.523,-19.5164 527.984,-20.5988 530.959,-26.935"/>
</g>
<!-- Node18&#45;&gt;Node2 -->
<g id="edge72" class="edge"><title>Node18&#45;&gt;Node2</title>
<path fill="none" stroke="midnightblue" d="M538.438,-56.4435C519.764,-47.6751 490.504,-33.9355 469.043,-23.8579"/>
<polygon fill="midnightblue" stroke="midnightblue" points="470.336,-20.5988 459.797,-19.5164 467.361,-26.935 470.336,-20.5988"/>
</g>
<!-- Node18&#45;&gt;Node3 -->
<g id="edge74" class="edge"><title>Node18&#45;&gt;Node3</title>
<path fill="none" stroke="midnightblue" d="M556.66,-56.083C556.66,-49.0059 556.66,-38.8611 556.66,-29.9865"/>
<polygon fill="midnightblue" stroke="midnightblue" points="560.16,-29.751 556.66,-19.7511 553.16,-29.7511 560.16,-29.751"/>
</g>
<!-- Node27 -->
<g id="node73" class="node"><title>Node27</title>
<a xlink:href="_reel_8h.html" target="_top" xlink:title="Reel.h">
<polygon fill="white" stroke="black" points="2208.66,-0.5 2208.66,-19.5 2252.66,-19.5 2252.66,-0.5 2208.66,-0.5"/>
<text text-anchor="middle" x="2230.66" y="-7.5" font-family="Helvetica,sans-Serif" font-size="10.00">Reel.h</text>
</a>
</g>
<!-- Node26&#45;&gt;Node27 -->
<g id="edge92" class="edge"><title>Node26&#45;&gt;Node27</title>
<path fill="none" stroke="midnightblue" d="M2230.66,-56.083C2230.66,-49.0059 2230.66,-38.8611 2230.66,-29.9865"/>
<polygon fill="midnightblue" stroke="midnightblue" points="2234.16,-29.751 2230.66,-19.7511 2227.16,-29.7511 2234.16,-29.751"/>
</g>
</g>
</svg>
        <g id="navigator" transform="translate(0 0)" fill="#404254">
                <rect fill="#f2f5e9" fill-opacity="0.5" stroke="#606060" stroke-width=".5" x="0" y="0" width="60" height="60"/>
                <use id="zoomplus" xlink:href="#zoomPlus" x="17" y="9" onmousedown="handleZoom(evt,'in')"/>
                <use id="zoomminus" xlink:href="#zoomMin" x="42" y="9" onmousedown="handleZoom(evt,'out')"/>
                <use id="reset" xlink:href="#resetDef" x="30" y="36" onmousedown="handleReset()"/>
                <g id="arrowUp" xlink:href="#dirArrow" transform="translate(30 24)" onmousedown="handlePan(0,-1)">
                  <use xlink:href="#rim" fill="#404040">
                        <set attributeName="fill" to="#808080" begin="arrowUp.mouseover" end="arrowUp.mouseout"/>
                  </use>
                  <path fill="none" stroke="white" stroke-width="1.5" d="M0,-3.0v7 M-2.5,-0.5L0,-3.0L2.5,-0.5"/>
                </g>
                <g id="arrowRight" xlink:href="#dirArrow" transform="rotate(90) translate(36 -43)" onmousedown="handlePan(1,0)">
                  <use xlink:href="#rim" fill="#404040">
                        <set attributeName="fill" to="#808080" begin="arrowRight.mouseover" end="arrowRight.mouseout"/>
                  </use>
                  <path fill="none" stroke="white" stroke-width="1.5" d="M0,-3.0v7 M-2.5,-0.5L0,-3.0L2.5,-0.5"/>
                </g>
                <g id="arrowDown" xlink:href="#dirArrow" transform="rotate(180) translate(-30 -48)" onmousedown="handlePan(0,1)">
                  <use xlink:href="#rim" fill="#404040">
                        <set attributeName="fill" to="#808080" begin="arrowDown.mouseover" end="arrowDown.mouseout"/>
                  </use>
                  <path fill="none" stroke="white" stroke-width="1.5" d="M0,-3.0v7 M-2.5,-0.5L0,-3.0L2.5,-0.5"/>
                </g>
                <g id="arrowLeft" xlink:href="#dirArrow" transform="rotate(270) translate(-36 17)" onmousedown="handlePan(-1,0)">
                  <use xlink:href="#rim" fill="#404040">
                        <set attributeName="fill" to="#808080" begin="arrowLeft.mouseover" end="arrowLeft.mouseout"/>
                  </use>
                  <path fill="none" stroke="white" stroke-width="1.5" d="M0,-3.0v7 M-2.5,-0.5L0,-3.0L2.5,-0.5"/>
                </g>
        </g>
</svg>
