<?xml version="1.0" encoding="UTF-8" standalone="no"?>
<!DOCTYPE svg PUBLIC "-//W3C//DTD SVG 1.1//EN"
 "http://www.w3.org/Graphics/SVG/1.1/DTD/svg11.dtd">
<!-- Generated by graphviz version 2.28.0 (20110507.0327)
 -->
<!-- Title: G Pages: 1 -->
<svg width="394pt" height="65pt"
 viewBox="0.00 0.00 394.00 65.00" xmlns="http://www.w3.org/2000/svg" xmlns:xlink="http://www.w3.org/1999/xlink">
<g id="graph1" class="graph" transform="scale(1 1) rotate(0) translate(4 61)">
<title>G</title>
<polygon fill="white" stroke="white" points="-4,5 -4,-61 391,-61 391,5 -4,5"/>
<!-- Node1 -->
<g id="node1" class="node"><title>Node1</title>
<polygon fill="#bfbfbf" stroke="black" points="0,-0.5 0,-19.5 86,-19.5 86,-0.5 0,-0.5"/>
<text text-anchor="middle" x="43" y="-7.5" font-family="Helvetica,sans-Serif" font-size="10.00">ForwardVelocity</text>
</g>
<!-- Node2 -->
<g id="node3" class="node"><title>Node2</title>
<a xlink:href="_forward_velocity_8h.html#ad3bfaea752c445b6aa7acf78cf9a6725" target="_top" xlink:title="ForwardVelocity">
<polygon fill="white" stroke="black" points="122,-19.5 122,-38.5 208,-38.5 208,-19.5 122,-19.5"/>
<text text-anchor="middle" x="165" y="-26.5" font-family="Helvetica,sans-Serif" font-size="10.00">ForwardVelocity</text>
</a>
</g>
<!-- Node1&#45;&gt;Node2 -->
<g id="edge2" class="edge"><title>Node1&#45;&gt;Node2</title>
<path fill="none" stroke="midnightblue" d="M96.447,-18.3041C104.879,-19.6392 113.514,-21.0064 121.67,-22.2978"/>
<polygon fill="midnightblue" stroke="midnightblue" points="96.7319,-14.8057 86.3075,-16.6987 95.6371,-21.7196 96.7319,-14.8057"/>
</g>
<!-- Node3 -->
<g id="node6" class="node"><title>Node3</title>
<a xlink:href="u_link_8h.html#ae420e3d1a86aca06b7286b7678b4ecb6" target="_top" xlink:title="Initialize the link structure with the model value.">
<polygon fill="white" stroke="black" points="244,-0.5 244,-19.5 312,-19.5 312,-0.5 244,-0.5"/>
<text text-anchor="middle" x="278" y="-7.5" font-family="Helvetica,sans-Serif" font-size="10.00">SetupRobot</text>
</a>
</g>
<!-- Node1&#45;&gt;Node3 -->
<g id="edge10" class="edge"><title>Node1&#45;&gt;Node3</title>
<path fill="none" stroke="midnightblue" d="M96.3845,-10C141.532,-10 205.338,-10 243.784,-10"/>
<polygon fill="midnightblue" stroke="midnightblue" points="96.1946,-6.5001 86.1945,-10 96.1945,-13.5001 96.1946,-6.5001"/>
</g>
<!-- Node2&#45;&gt;Node2 -->
<g id="edge4" class="edge"><title>Node2&#45;&gt;Node2</title>
<path fill="none" stroke="midnightblue" d="M144.26,-48.4C145.645,-53.3146 152.559,-57 165,-57 184.906,-57 190.66,-47.5653 182.262,-38.7571"/>
<polygon fill="midnightblue" stroke="midnightblue" points="147.638,-49.3514 147.738,-38.7571 141.053,-46.9768 147.638,-49.3514"/>
</g>
<!-- Node2&#45;&gt;Node3 -->
<g id="edge6" class="edge"><title>Node2&#45;&gt;Node3</title>
<path fill="none" stroke="midnightblue" d="M218.355,-20.0383C227.02,-18.5551 235.788,-17.0544 243.809,-15.6813"/>
<polygon fill="midnightblue" stroke="midnightblue" points="217.547,-16.6256 208.281,-21.7627 218.728,-23.5253 217.547,-16.6256"/>
</g>
<!-- Node4 -->
<g id="node8" class="node"><title>Node4</title>
<a xlink:href="main_8c.html#a0ddf1224851353fc92bfbff6f499fa97" target="_top" xlink:title="main">
<polygon fill="white" stroke="black" points="348,-0.5 348,-19.5 386,-19.5 386,-0.5 348,-0.5"/>
<text text-anchor="middle" x="367" y="-7.5" font-family="Helvetica,sans-Serif" font-size="10.00">main</text>
</a>
</g>
<!-- Node3&#45;&gt;Node4 -->
<g id="edge8" class="edge"><title>Node3&#45;&gt;Node4</title>
<path fill="none" stroke="midnightblue" d="M322.458,-10C331.452,-10 340.447,-10 347.908,-10"/>
<polygon fill="midnightblue" stroke="midnightblue" points="322.388,-6.5001 312.388,-10 322.388,-13.5001 322.388,-6.5001"/>
</g>
</g>
</svg>
