<?xml version="1.0" encoding="UTF-8" standalone="no"?>
<!DOCTYPE svg PUBLIC "-//W3C//DTD SVG 1.1//EN"
 "http://www.w3.org/Graphics/SVG/1.1/DTD/svg11.dtd">
<!-- Generated by graphviz version 2.28.0 (20110507.0327)
 -->
<!-- Title: G Pages: 1 -->
<svg width="204pt" height="46pt"
 viewBox="0.00 0.00 204.00 46.00" xmlns="http://www.w3.org/2000/svg" xmlns:xlink="http://www.w3.org/1999/xlink">
<g id="graph1" class="graph" transform="scale(1 1) rotate(0) translate(4 42)">
<title>G</title>
<polygon fill="white" stroke="white" points="-4,5 -4,-42 201,-42 201,5 -4,5"/>
<!-- Node1 -->
<g id="node1" class="node"><title>Node1</title>
<polygon fill="#bfbfbf" stroke="black" points="0,-0.5 0,-19.5 100,-19.5 100,-0.5 0,-0.5"/>
<text text-anchor="middle" x="50" y="-7.5" font-family="Helvetica,sans-Serif" font-size="10.00">ForwardKinematics</text>
</g>
<!-- Node1&#45;&gt;Node1 -->
<g id="edge4" class="edge"><title>Node1&#45;&gt;Node1</title>
<path fill="none" stroke="midnightblue" d="M32.121,-19.7571C23.4232,-28.5653 29.3828,-38 50,-38 62.8857,-38 70.0459,-34.3146 71.4804,-29.4"/>
<polygon fill="midnightblue" stroke="midnightblue" points="74.6566,-27.9004 67.879,-19.7571 68.099,-30.3496 74.6566,-27.9004"/>
</g>
<!-- Node2 -->
<g id="node3" class="node"><title>Node2</title>
<a xlink:href="_rodrigues_8c.html#a331402e0b6dc7ab640fe40cce0871e1a" target="_top" xlink:title="Rodrigues">
<polygon fill="white" stroke="black" points="136,-0.5 136,-19.5 196,-19.5 196,-0.5 136,-0.5"/>
<text text-anchor="middle" x="166" y="-7.5" font-family="Helvetica,sans-Serif" font-size="10.00">Rodrigues</text>
</a>
</g>
<!-- Node1&#45;&gt;Node2 -->
<g id="edge2" class="edge"><title>Node1&#45;&gt;Node2</title>
<path fill="none" stroke="midnightblue" d="M100.008,-10C108.579,-10 117.396,-10 125.663,-10"/>
<polygon fill="midnightblue" stroke="midnightblue" points="125.781,-13.5001 135.781,-10 125.781,-6.5001 125.781,-13.5001"/>
</g>
</g>
</svg>
