<?xml version="1.0" encoding="UTF-8" standalone="no"?>
<!DOCTYPE svg PUBLIC "-//W3C//DTD SVG 1.1//EN"
 "http://www.w3.org/Graphics/SVG/1.1/DTD/svg11.dtd">
<!-- Generated by graphviz version 2.28.0 (20110507.0327)
 -->
<!-- Title: G Pages: 1 -->
<svg width="216pt" height="66pt"
 viewBox="0.00 0.00 216.00 66.00" xmlns="http://www.w3.org/2000/svg" xmlns:xlink="http://www.w3.org/1999/xlink">
<g id="graph1" class="graph" transform="scale(1 1) rotate(0) translate(4 62)">
<title>G</title>
<polygon fill="white" stroke="white" points="-4,5 -4,-62 213,-62 213,5 -4,5"/>
<!-- Node1 -->
<g id="node1" class="node"><title>Node1</title>
<polygon fill="#bfbfbf" stroke="black" points="0.5,-19.5 0.5,-38.5 111.5,-38.5 111.5,-19.5 0.5,-19.5"/>
<text text-anchor="middle" x="56" y="-26.5" font-family="Helvetica,sans-Serif" font-size="10.00">ForwardAllKinematics</text>
</g>
<!-- Node1&#45;&gt;Node1 -->
<g id="edge6" class="edge"><title>Node1&#45;&gt;Node1</title>
<path fill="none" stroke="midnightblue" d="M37.1963,-38.7571C28.0485,-47.5653 34.3164,-57 56,-57 69.8911,-57 77.4555,-53.128 78.6934,-48.0292"/>
<polygon fill="midnightblue" stroke="midnightblue" points="81.8997,-46.6246 74.8037,-38.7571 75.4447,-49.3325 81.8997,-46.6246"/>
</g>
<!-- Node2 -->
<g id="node3" class="node"><title>Node2</title>
<a xlink:href="_rodrigues_8c.html#a331402e0b6dc7ab640fe40cce0871e1a" target="_top" xlink:title="Rodrigues">
<polygon fill="white" stroke="black" points="148,-38.5 148,-57.5 208,-57.5 208,-38.5 148,-38.5"/>
<text text-anchor="middle" x="178" y="-45.5" font-family="Helvetica,sans-Serif" font-size="10.00">Rodrigues</text>
</a>
</g>
<!-- Node1&#45;&gt;Node2 -->
<g id="edge2" class="edge"><title>Node1&#45;&gt;Node2</title>
<path fill="none" stroke="midnightblue" d="M111.733,-37.666C120.61,-39.0715 129.642,-40.5016 138.043,-41.8319"/>
<polygon fill="midnightblue" stroke="midnightblue" points="137.502,-45.2897 147.926,-43.3967 138.597,-38.3758 137.502,-45.2897"/>
</g>
<!-- Node3 -->
<g id="node5" class="node"><title>Node3</title>
<a xlink:href="_cross_8c.html#ae694d97c46b1d90555b4e9a1809baeb3" target="_top" xlink:title="Cross">
<polygon fill="white" stroke="black" points="157,-0.5 157,-19.5 199,-19.5 199,-0.5 157,-0.5"/>
<text text-anchor="middle" x="178" y="-7.5" font-family="Helvetica,sans-Serif" font-size="10.00">Cross</text>
</a>
</g>
<!-- Node1&#45;&gt;Node3 -->
<g id="edge4" class="edge"><title>Node1&#45;&gt;Node3</title>
<path fill="none" stroke="midnightblue" d="M111.733,-20.334C123.786,-18.4255 136.126,-16.4717 146.785,-14.7841"/>
<polygon fill="midnightblue" stroke="midnightblue" points="147.482,-18.2175 156.811,-13.1966 146.387,-11.3036 147.482,-18.2175"/>
</g>
</g>
</svg>
