<?xml version="1.0" encoding="UTF-8" standalone="no"?>
<!DOCTYPE svg PUBLIC "-//W3C//DTD SVG 1.1//EN"
 "http://www.w3.org/Graphics/SVG/1.1/DTD/svg11.dtd">
<!-- Generated by graphviz version 2.28.0 (20110507.0327)
 -->
<!-- Title: G Pages: 1 -->
<!--zoomable-->
<svg id="main" version="1.1" xmlns="http://www.w3.org/2000/svg" xmlns:xlink="http://www.w3.org/1999/xlink" xml:space="preserve" onload="init(evt)">
        <defs>
                <circle id="rim" cx="0" cy="0" r="7"/>
                <circle id="rim2" cx="0" cy="0" r="3.5"/>
                <g id="zoomPlus">
                        <use xlink:href="#rim" fill="#404040">
                                <set attributeName="fill" to="#808080" begin="zoomplus.mouseover" end="zoomplus.mouseout"/>
                        </use>
                        <path d="M-4,0h8M0,-4v8" fill="none" stroke="white" stroke-width="1.5" pointer-events="none"/>
                </g>
                <g id="zoomMin">
                        <use xlink:href="#rim" fill="#404040">
                                <set attributeName="fill" to="#808080" begin="zoomminus.mouseover" end="zoomminus.mouseout"/>
                        </use>
                        <path d="M-4,0h8" fill="none" stroke="white" stroke-width="1.5" pointer-events="none"/>
                </g>
                <g id="dirArrow">
                        <path fill="none" stroke="white" stroke-width="1.5" d="M0,-3.0v7 M-2.5,-0.5L0,-3.0L2.5,-0.5"/>
                </g>
               <g id="resetDef">
                       <use xlink:href="#rim2" fill="#404040">
                               <set attributeName="fill" to="#808080" begin="reset.mouseover" end="reset.mouseout"/>
                       </use>
               </g>
        </defs>

<script type="text/javascript">
var viewWidth = 501;
var viewHeight = 140;
var sectionId = 'dynsection-0';
</script>
<script xlink:href="svgpan.js"/>
<svg id="graph" class="graph">
<g id="viewport">
<title>G</title>
<polygon fill="white" stroke="white" points="-4,5 -4,-136 497.736,-136 497.736,5 -4,5"/>
<!-- Node1 -->
<g id="node1" class="node"><title>Node1</title>
<polygon fill="#bfbfbf" stroke="black" points="189.236,-112.5 189.236,-131.5 308.236,-131.5 308.236,-112.5 189.236,-112.5"/>
<text text-anchor="middle" x="248.736" y="-119.5" font-family="Helvetica,sans-Serif" font-size="10.00">ForwardAllKinematics.c</text>
</g>
<!-- Node2 -->
<g id="node3" class="node"><title>Node2</title>
<polygon fill="white" stroke="#bfbfbf" points="120.736,-0.5 120.736,-19.5 204.736,-19.5 204.736,-0.5 120.736,-0.5"/>
<text text-anchor="middle" x="162.736" y="-7.5" font-family="Helvetica,sans-Serif" font-size="10.00">gsl/gsl_vector.h</text>
</g>
<!-- Node1&#45;&gt;Node2 -->
<g id="edge2" class="edge"><title>Node1&#45;&gt;Node2</title>
<path fill="none" stroke="midnightblue" d="M188.977,-118.321C125.225,-114.062 30.3417,-103.217 7.73598,-76 -23.7689,-38.0679 53.8541,-21.8913 110.264,-15.2768"/>
<polygon fill="midnightblue" stroke="midnightblue" points="110.961,-18.7213 120.519,-14.1499 110.197,-11.7632 110.961,-18.7213"/>
</g>
<!-- Node3 -->
<g id="node5" class="node"><title>Node3</title>
<polygon fill="white" stroke="#bfbfbf" points="222.736,-0.5 222.736,-19.5 308.736,-19.5 308.736,-0.5 222.736,-0.5"/>
<text text-anchor="middle" x="265.736" y="-7.5" font-family="Helvetica,sans-Serif" font-size="10.00">gsl/gsl_matrix.h</text>
</g>
<!-- Node1&#45;&gt;Node3 -->
<g id="edge4" class="edge"><title>Node1&#45;&gt;Node3</title>
<path fill="none" stroke="midnightblue" d="M308.333,-113.245C331.117,-107.051 354.922,-95.9338 368.736,-76 386.44,-50.4537 349.856,-32.8144 315.489,-22.4241"/>
<polygon fill="midnightblue" stroke="midnightblue" points="316.008,-18.9326 305.431,-19.5585 314.09,-25.6647 316.008,-18.9326"/>
</g>
<!-- Node4 -->
<g id="node7" class="node"><title>Node4</title>
<polygon fill="white" stroke="#bfbfbf" points="416.236,-56.5 416.236,-75.5 493.236,-75.5 493.236,-56.5 416.236,-56.5"/>
<text text-anchor="middle" x="454.736" y="-63.5" font-family="Helvetica,sans-Serif" font-size="10.00">gsl/gsl_blas.h</text>
</g>
<!-- Node1&#45;&gt;Node4 -->
<g id="edge6" class="edge"><title>Node1&#45;&gt;Node4</title>
<path fill="none" stroke="midnightblue" d="M281.377,-112.444C316.786,-103.162 373.445,-88.3093 412.289,-78.127"/>
<polygon fill="midnightblue" stroke="midnightblue" points="413.462,-81.4378 422.247,-75.5164 411.687,-74.6666 413.462,-81.4378"/>
</g>
<!-- Node5 -->
<g id="node9" class="node"><title>Node5</title>
<a xlink:href="u_link_8h.html" target="_top" xlink:title="Link initialisation and declarations.">
<polygon fill="white" stroke="black" points="154.236,-56.5 154.236,-75.5 205.236,-75.5 205.236,-56.5 154.236,-56.5"/>
<text text-anchor="middle" x="179.736" y="-63.5" font-family="Helvetica,sans-Serif" font-size="10.00">uLINK.h</text>
</a>
</g>
<!-- Node1&#45;&gt;Node5 -->
<g id="edge8" class="edge"><title>Node1&#45;&gt;Node5</title>
<path fill="none" stroke="midnightblue" d="M237.65,-112.324C227.25,-104.185 211.475,-91.8395 199.014,-82.0874"/>
<polygon fill="midnightblue" stroke="midnightblue" points="201.056,-79.2407 191.024,-75.8339 196.742,-84.7533 201.056,-79.2407"/>
</g>
<!-- Node6 -->
<g id="node13" class="node"><title>Node6</title>
<a xlink:href="_cross_8h.html" target="_top" xlink:title="Cross.h">
<polygon fill="white" stroke="black" points="223.736,-56.5 223.736,-75.5 273.736,-75.5 273.736,-56.5 223.736,-56.5"/>
<text text-anchor="middle" x="248.736" y="-63.5" font-family="Helvetica,sans-Serif" font-size="10.00">Cross.h</text>
</a>
</g>
<!-- Node1&#45;&gt;Node6 -->
<g id="edge14" class="edge"><title>Node1&#45;&gt;Node6</title>
<path fill="none" stroke="midnightblue" d="M248.736,-112.083C248.736,-105.006 248.736,-94.8611 248.736,-85.9865"/>
<polygon fill="midnightblue" stroke="midnightblue" points="252.236,-85.751 248.736,-75.7511 245.236,-85.7511 252.236,-85.751"/>
</g>
<!-- Node7 -->
<g id="node17" class="node"><title>Node7</title>
<a xlink:href="_rodrigues_8h.html" target="_top" xlink:title="Rodrigues.h">
<polygon fill="white" stroke="black" points="291.736,-56.5 291.736,-75.5 359.736,-75.5 359.736,-56.5 291.736,-56.5"/>
<text text-anchor="middle" x="325.736" y="-63.5" font-family="Helvetica,sans-Serif" font-size="10.00">Rodrigues.h</text>
</a>
</g>
<!-- Node1&#45;&gt;Node7 -->
<g id="edge20" class="edge"><title>Node1&#45;&gt;Node7</title>
<path fill="none" stroke="midnightblue" d="M261.107,-112.324C272.894,-104.058 290.868,-91.4527 304.871,-81.6322"/>
<polygon fill="midnightblue" stroke="midnightblue" points="307.218,-84.2619 313.395,-75.6545 303.198,-78.5307 307.218,-84.2619"/>
</g>
<!-- Node8 -->
<g id="node21" class="node"><title>Node8</title>
<a xlink:href="_forward_all_kinematics_8h.html" target="_top" xlink:title="ForwardAllKinematics.h">
<polygon fill="white" stroke="black" points="17.236,-56.5 17.236,-75.5 136.236,-75.5 136.236,-56.5 17.236,-56.5"/>
<text text-anchor="middle" x="76.736" y="-63.5" font-family="Helvetica,sans-Serif" font-size="10.00">ForwardAllKinematics.h</text>
</a>
</g>
<!-- Node1&#45;&gt;Node8 -->
<g id="edge26" class="edge"><title>Node1&#45;&gt;Node8</title>
<path fill="none" stroke="midnightblue" d="M221.482,-112.444C192.295,-103.28 145.815,-88.6876 113.427,-78.5192"/>
<polygon fill="midnightblue" stroke="midnightblue" points="114.452,-75.1726 103.862,-75.5164 112.355,-81.8512 114.452,-75.1726"/>
</g>
<!-- Node5&#45;&gt;Node2 -->
<g id="edge10" class="edge"><title>Node5&#45;&gt;Node2</title>
<path fill="none" stroke="midnightblue" d="M176.929,-56.083C174.651,-48.8486 171.365,-38.4087 168.528,-29.3968"/>
<polygon fill="midnightblue" stroke="midnightblue" points="171.832,-28.2385 165.491,-19.7511 165.155,-30.3406 171.832,-28.2385"/>
</g>
<!-- Node5&#45;&gt;Node3 -->
<g id="edge12" class="edge"><title>Node5&#45;&gt;Node3</title>
<path fill="none" stroke="midnightblue" d="M193.553,-56.324C206.969,-47.9002 227.56,-34.9709 243.322,-25.0741"/>
<polygon fill="midnightblue" stroke="midnightblue" points="245.345,-27.9364 251.953,-19.6545 241.623,-22.0081 245.345,-27.9364"/>
</g>
<!-- Node6&#45;&gt;Node2 -->
<g id="edge16" class="edge"><title>Node6&#45;&gt;Node2</title>
<path fill="none" stroke="midnightblue" d="M234.919,-56.324C221.503,-47.9002 200.912,-34.9709 185.15,-25.0741"/>
<polygon fill="midnightblue" stroke="midnightblue" points="186.849,-22.0081 176.519,-19.6545 183.127,-27.9364 186.849,-22.0081"/>
</g>
<!-- Node6&#45;&gt;Node3 -->
<g id="edge18" class="edge"><title>Node6&#45;&gt;Node3</title>
<path fill="none" stroke="midnightblue" d="M251.543,-56.083C253.821,-48.8486 257.107,-38.4087 259.944,-29.3968"/>
<polygon fill="midnightblue" stroke="midnightblue" points="263.317,-30.3406 262.981,-19.7511 256.64,-28.2385 263.317,-30.3406"/>
</g>
<!-- Node7&#45;&gt;Node2 -->
<g id="edge22" class="edge"><title>Node7&#45;&gt;Node2</title>
<path fill="none" stroke="midnightblue" d="M299.908,-56.4435C272.487,-47.3591 228.959,-32.9388 198.304,-22.7831"/>
<polygon fill="midnightblue" stroke="midnightblue" points="199.036,-19.3389 188.443,-19.5164 196.835,-25.9837 199.036,-19.3389"/>
</g>
<!-- Node7&#45;&gt;Node3 -->
<g id="edge24" class="edge"><title>Node7&#45;&gt;Node3</title>
<path fill="none" stroke="midnightblue" d="M316.096,-56.324C307.226,-48.3414 293.861,-36.3128 283.128,-26.6529"/>
<polygon fill="midnightblue" stroke="midnightblue" points="285.326,-23.922 275.551,-19.8339 280.643,-29.1251 285.326,-23.922"/>
</g>
<!-- Node8&#45;&gt;Node2 -->
<g id="edge28" class="edge"><title>Node8&#45;&gt;Node2</title>
<path fill="none" stroke="midnightblue" d="M90.5534,-56.324C103.969,-47.9002 124.56,-34.9709 140.322,-25.0741"/>
<polygon fill="midnightblue" stroke="midnightblue" points="142.345,-27.9364 148.953,-19.6545 138.623,-22.0081 142.345,-27.9364"/>
</g>
<!-- Node8&#45;&gt;Node3 -->
<g id="edge30" class="edge"><title>Node8&#45;&gt;Node3</title>
<path fill="none" stroke="midnightblue" d="M106.684,-56.4435C138.894,-47.2406 190.27,-32.5617 225.878,-22.3879"/>
<polygon fill="midnightblue" stroke="midnightblue" points="227.275,-25.629 235.928,-19.5164 225.352,-18.8984 227.275,-25.629"/>
</g>
</g>
</svg>
        <g id="navigator" transform="translate(0 0)" fill="#404254">
                <rect fill="#f2f5e9" fill-opacity="0.5" stroke="#606060" stroke-width=".5" x="0" y="0" width="60" height="60"/>
                <use id="zoomplus" xlink:href="#zoomPlus" x="17" y="9" onmousedown="handleZoom(evt,'in')"/>
                <use id="zoomminus" xlink:href="#zoomMin" x="42" y="9" onmousedown="handleZoom(evt,'out')"/>
                <use id="reset" xlink:href="#resetDef" x="30" y="36" onmousedown="handleReset()"/>
                <g id="arrowUp" xlink:href="#dirArrow" transform="translate(30 24)" onmousedown="handlePan(0,-1)">
                  <use xlink:href="#rim" fill="#404040">
                        <set attributeName="fill" to="#808080" begin="arrowUp.mouseover" end="arrowUp.mouseout"/>
                  </use>
                  <path fill="none" stroke="white" stroke-width="1.5" d="M0,-3.0v7 M-2.5,-0.5L0,-3.0L2.5,-0.5"/>
                </g>
                <g id="arrowRight" xlink:href="#dirArrow" transform="rotate(90) translate(36 -43)" onmousedown="handlePan(1,0)">
                  <use xlink:href="#rim" fill="#404040">
                        <set attributeName="fill" to="#808080" begin="arrowRight.mouseover" end="arrowRight.mouseout"/>
                  </use>
                  <path fill="none" stroke="white" stroke-width="1.5" d="M0,-3.0v7 M-2.5,-0.5L0,-3.0L2.5,-0.5"/>
                </g>
                <g id="arrowDown" xlink:href="#dirArrow" transform="rotate(180) translate(-30 -48)" onmousedown="handlePan(0,1)">
                  <use xlink:href="#rim" fill="#404040">
                        <set attributeName="fill" to="#808080" begin="arrowDown.mouseover" end="arrowDown.mouseout"/>
                  </use>
                  <path fill="none" stroke="white" stroke-width="1.5" d="M0,-3.0v7 M-2.5,-0.5L0,-3.0L2.5,-0.5"/>
                </g>
                <g id="arrowLeft" xlink:href="#dirArrow" transform="rotate(270) translate(-36 17)" onmousedown="handlePan(-1,0)">
                  <use xlink:href="#rim" fill="#404040">
                        <set attributeName="fill" to="#808080" begin="arrowLeft.mouseover" end="arrowLeft.mouseout"/>
                  </use>
                  <path fill="none" stroke="white" stroke-width="1.5" d="M0,-3.0v7 M-2.5,-0.5L0,-3.0L2.5,-0.5"/>
                </g>
        </g>
</svg>
