<?xml version="1.0" encoding="UTF-8" standalone="no"?>
<!DOCTYPE svg PUBLIC "-//W3C//DTD SVG 1.1//EN"
 "http://www.w3.org/Graphics/SVG/1.1/DTD/svg11.dtd">
<!-- Generated by graphviz version 2.28.0 (20110507.0327)
 -->
<!-- Title: G Pages: 1 -->
<!--zoomable-->
<svg id="main" version="1.1" xmlns="http://www.w3.org/2000/svg" xmlns:xlink="http://www.w3.org/1999/xlink" xml:space="preserve" onload="init(evt)">
        <defs>
                <circle id="rim" cx="0" cy="0" r="7"/>
                <circle id="rim2" cx="0" cy="0" r="3.5"/>
                <g id="zoomPlus">
                        <use xlink:href="#rim" fill="#404040">
                                <set attributeName="fill" to="#808080" begin="zoomplus.mouseover" end="zoomplus.mouseout"/>
                        </use>
                        <path d="M-4,0h8M0,-4v8" fill="none" stroke="white" stroke-width="1.5" pointer-events="none"/>
                </g>
                <g id="zoomMin">
                        <use xlink:href="#rim" fill="#404040">
                                <set attributeName="fill" to="#808080" begin="zoomminus.mouseover" end="zoomminus.mouseout"/>
                        </use>
                        <path d="M-4,0h8" fill="none" stroke="white" stroke-width="1.5" pointer-events="none"/>
                </g>
                <g id="dirArrow">
                        <path fill="none" stroke="white" stroke-width="1.5" d="M0,-3.0v7 M-2.5,-0.5L0,-3.0L2.5,-0.5"/>
                </g>
               <g id="resetDef">
                       <use xlink:href="#rim2" fill="#404040">
                               <set attributeName="fill" to="#808080" begin="reset.mouseover" end="reset.mouseout"/>
                       </use>
               </g>
        </defs>

<script type="text/javascript">
var viewWidth = 617;
var viewHeight = 140;
var sectionId = 'dynsection-0';
</script>
<script xlink:href="svgpan.js"/>
<svg id="graph" class="graph">
<g id="viewport">
<title>G</title>
<polygon fill="white" stroke="white" points="-4,5 -4,-136 613.882,-136 613.882,5 -4,5"/>
<!-- Node1 -->
<g id="node1" class="node"><title>Node1</title>
<polygon fill="#bfbfbf" stroke="black" points="220.882,-112.5 220.882,-131.5 328.882,-131.5 328.882,-112.5 220.882,-112.5"/>
<text text-anchor="middle" x="274.882" y="-119.5" font-family="Helvetica,sans-Serif" font-size="10.00">ForwardKinematics.c</text>
</g>
<!-- Node2 -->
<g id="node3" class="node"><title>Node2</title>
<polygon fill="white" stroke="#bfbfbf" points="22.8825,-0.5 22.8825,-19.5 106.882,-19.5 106.882,-0.5 22.8825,-0.5"/>
<text text-anchor="middle" x="64.8825" y="-7.5" font-family="Helvetica,sans-Serif" font-size="10.00">gsl/gsl_vector.h</text>
</g>
<!-- Node1&#45;&gt;Node2 -->
<g id="edge2" class="edge"><title>Node1&#45;&gt;Node2</title>
<path fill="none" stroke="midnightblue" d="M220.782,-119.934C150.062,-117.265 31.99,-107.999 4.88246,-76 -10.6474,-57.6676 15.2115,-37.4667 37.6723,-24.5274"/>
<polygon fill="midnightblue" stroke="midnightblue" points="39.5536,-27.4877 46.6455,-19.6165 36.1929,-21.3472 39.5536,-27.4877"/>
</g>
<!-- Node3 -->
<g id="node5" class="node"><title>Node3</title>
<polygon fill="white" stroke="#bfbfbf" points="174.882,-0.5 174.882,-19.5 260.882,-19.5 260.882,-0.5 174.882,-0.5"/>
<text text-anchor="middle" x="217.882" y="-7.5" font-family="Helvetica,sans-Serif" font-size="10.00">gsl/gsl_matrix.h</text>
</g>
<!-- Node1&#45;&gt;Node3 -->
<g id="edge4" class="edge"><title>Node1&#45;&gt;Node3</title>
<path fill="none" stroke="midnightblue" d="M279.804,-112.45C286.568,-99.4698 296.83,-74.364 286.882,-56 279.134,-41.6958 264.648,-31.2188 250.942,-23.992"/>
<polygon fill="midnightblue" stroke="midnightblue" points="252.196,-20.7104 241.671,-19.501 249.145,-27.0103 252.196,-20.7104"/>
</g>
<!-- Node4 -->
<g id="node7" class="node"><title>Node4</title>
<polygon fill="white" stroke="#bfbfbf" points="334.382,-56.5 334.382,-75.5 411.382,-75.5 411.382,-56.5 334.382,-56.5"/>
<text text-anchor="middle" x="372.882" y="-63.5" font-family="Helvetica,sans-Serif" font-size="10.00">gsl/gsl_blas.h</text>
</g>
<!-- Node1&#45;&gt;Node4 -->
<g id="edge6" class="edge"><title>Node1&#45;&gt;Node4</title>
<path fill="none" stroke="midnightblue" d="M290.628,-112.324C306.201,-103.743 330.26,-90.486 348.342,-80.5224"/>
<polygon fill="midnightblue" stroke="midnightblue" points="350.107,-83.546 357.176,-75.6545 346.729,-77.4152 350.107,-83.546"/>
</g>
<!-- Node5 -->
<g id="node9" class="node"><title>Node5</title>
<polygon fill="white" stroke="#bfbfbf" points="429.382,-56.5 429.382,-75.5 510.382,-75.5 510.382,-56.5 429.382,-56.5"/>
<text text-anchor="middle" x="469.882" y="-63.5" font-family="Helvetica,sans-Serif" font-size="10.00">gsl/gsl_linalg.h</text>
</g>
<!-- Node1&#45;&gt;Node5 -->
<g id="edge8" class="edge"><title>Node1&#45;&gt;Node5</title>
<path fill="none" stroke="midnightblue" d="M305.781,-112.444C339.156,-103.201 392.476,-88.4356 429.231,-78.2572"/>
<polygon fill="midnightblue" stroke="midnightblue" points="430.425,-81.5583 439.129,-75.5164 428.557,-74.8122 430.425,-81.5583"/>
</g>
<!-- Node6 -->
<g id="node11" class="node"><title>Node6</title>
<polygon fill="white" stroke="#bfbfbf" points="528.882,-56.5 528.882,-75.5 608.882,-75.5 608.882,-56.5 528.882,-56.5"/>
<text text-anchor="middle" x="568.882" y="-63.5" font-family="Helvetica,sans-Serif" font-size="10.00">gsl/gsl_math.h</text>
</g>
<!-- Node1&#45;&gt;Node6 -->
<g id="edge10" class="edge"><title>Node1&#45;&gt;Node6</title>
<path fill="none" stroke="midnightblue" d="M321.468,-112.444C375.274,-102.561 463.463,-86.3627 518.735,-76.2108"/>
<polygon fill="midnightblue" stroke="midnightblue" points="519.454,-79.6374 528.657,-74.3884 518.189,-72.7526 519.454,-79.6374"/>
</g>
<!-- Node7 -->
<g id="node13" class="node"><title>Node7</title>
<a xlink:href="u_link_8h.html" target="_top" xlink:title="Link initialisation and declarations.">
<polygon fill="white" stroke="black" points="14.3825,-56.5 14.3825,-75.5 65.3825,-75.5 65.3825,-56.5 14.3825,-56.5"/>
<text text-anchor="middle" x="39.8825" y="-63.5" font-family="Helvetica,sans-Serif" font-size="10.00">uLINK.h</text>
</a>
</g>
<!-- Node1&#45;&gt;Node7 -->
<g id="edge12" class="edge"><title>Node1&#45;&gt;Node7</title>
<path fill="none" stroke="midnightblue" d="M235.334,-112.473C196.981,-104.121 136.905,-90.8211 75.3612,-76.0578"/>
<polygon fill="midnightblue" stroke="midnightblue" points="76.0159,-72.6155 65.4743,-73.6763 74.3766,-79.4208 76.0159,-72.6155"/>
</g>
<!-- Node8 -->
<g id="node17" class="node"><title>Node8</title>
<a xlink:href="_forward_kinematics_8h.html" target="_top" xlink:title="ForwardKinematics.h">
<polygon fill="white" stroke="black" points="83.8825,-56.5 83.8825,-75.5 191.882,-75.5 191.882,-56.5 83.8825,-56.5"/>
<text text-anchor="middle" x="137.882" y="-63.5" font-family="Helvetica,sans-Serif" font-size="10.00">ForwardKinematics.h</text>
</a>
</g>
<!-- Node1&#45;&gt;Node8 -->
<g id="edge18" class="edge"><title>Node1&#45;&gt;Node8</title>
<path fill="none" stroke="midnightblue" d="M253.174,-112.444C230.528,-103.517 194.81,-89.4387 169.131,-79.3168"/>
<polygon fill="midnightblue" stroke="midnightblue" points="170.076,-75.9273 159.489,-75.5164 167.509,-82.4397 170.076,-75.9273"/>
</g>
<!-- Node9 -->
<g id="node21" class="node"><title>Node9</title>
<a xlink:href="_rodrigues_8h.html" target="_top" xlink:title="Rodrigues.h">
<polygon fill="white" stroke="black" points="209.882,-56.5 209.882,-75.5 277.882,-75.5 277.882,-56.5 209.882,-56.5"/>
<text text-anchor="middle" x="243.882" y="-63.5" font-family="Helvetica,sans-Serif" font-size="10.00">Rodrigues.h</text>
</a>
</g>
<!-- Node1&#45;&gt;Node9 -->
<g id="edge24" class="edge"><title>Node1&#45;&gt;Node9</title>
<path fill="none" stroke="midnightblue" d="M269.763,-112.083C265.475,-104.613 259.224,-93.7244 253.94,-84.5199"/>
<polygon fill="midnightblue" stroke="midnightblue" points="256.92,-82.6811 248.906,-75.7511 250.85,-86.1662 256.92,-82.6811"/>
</g>
<!-- Node7&#45;&gt;Node2 -->
<g id="edge14" class="edge"><title>Node7&#45;&gt;Node2</title>
<path fill="none" stroke="midnightblue" d="M44.0107,-56.083C47.3964,-48.77 52.2985,-38.1814 56.5013,-29.1034"/>
<polygon fill="midnightblue" stroke="midnightblue" points="59.8059,-30.2962 60.831,-19.7511 53.4536,-27.3553 59.8059,-30.2962"/>
</g>
<!-- Node7&#45;&gt;Node3 -->
<g id="edge16" class="edge"><title>Node7&#45;&gt;Node3</title>
<path fill="none" stroke="midnightblue" d="M65.3855,-57.2631C95.3957,-48.1589 145.504,-32.9575 180.044,-22.479"/>
<polygon fill="midnightblue" stroke="midnightblue" points="181.23,-25.7767 189.784,-19.5243 179.198,-19.0782 181.23,-25.7767"/>
</g>
<!-- Node8&#45;&gt;Node2 -->
<g id="edge20" class="edge"><title>Node8&#45;&gt;Node2</title>
<path fill="none" stroke="midnightblue" d="M126.154,-56.324C115.045,-48.1066 98.1403,-35.6017 84.8991,-25.8069"/>
<polygon fill="midnightblue" stroke="midnightblue" points="86.9455,-22.9671 76.8246,-19.8339 82.7826,-28.5948 86.9455,-22.9671"/>
</g>
<!-- Node8&#45;&gt;Node3 -->
<g id="edge22" class="edge"><title>Node8&#45;&gt;Node3</title>
<path fill="none" stroke="midnightblue" d="M150.736,-56.324C163.099,-47.979 182.013,-35.2122 196.62,-25.3524"/>
<polygon fill="midnightblue" stroke="midnightblue" points="198.731,-28.1503 205.061,-19.6545 194.814,-22.3483 198.731,-28.1503"/>
</g>
<!-- Node9&#45;&gt;Node2 -->
<g id="edge26" class="edge"><title>Node9&#45;&gt;Node2</title>
<path fill="none" stroke="midnightblue" d="M215.519,-56.4435C185.144,-47.2801 136.773,-32.6876 103.066,-22.5192"/>
<polygon fill="midnightblue" stroke="midnightblue" points="103.698,-19.0538 93.1128,-19.5164 101.676,-25.7555 103.698,-19.0538"/>
</g>
<!-- Node9&#45;&gt;Node3 -->
<g id="edge28" class="edge"><title>Node9&#45;&gt;Node3</title>
<path fill="none" stroke="midnightblue" d="M239.589,-56.083C236.03,-48.6913 230.86,-37.9533 226.458,-28.8111"/>
<polygon fill="midnightblue" stroke="midnightblue" points="229.588,-27.2427 222.096,-19.7511 223.281,-30.2795 229.588,-27.2427"/>
</g>
</g>
</svg>
        <g id="navigator" transform="translate(0 0)" fill="#404254">
                <rect fill="#f2f5e9" fill-opacity="0.5" stroke="#606060" stroke-width=".5" x="0" y="0" width="60" height="60"/>
                <use id="zoomplus" xlink:href="#zoomPlus" x="17" y="9" onmousedown="handleZoom(evt,'in')"/>
                <use id="zoomminus" xlink:href="#zoomMin" x="42" y="9" onmousedown="handleZoom(evt,'out')"/>
                <use id="reset" xlink:href="#resetDef" x="30" y="36" onmousedown="handleReset()"/>
                <g id="arrowUp" xlink:href="#dirArrow" transform="translate(30 24)" onmousedown="handlePan(0,-1)">
                  <use xlink:href="#rim" fill="#404040">
                        <set attributeName="fill" to="#808080" begin="arrowUp.mouseover" end="arrowUp.mouseout"/>
                  </use>
                  <path fill="none" stroke="white" stroke-width="1.5" d="M0,-3.0v7 M-2.5,-0.5L0,-3.0L2.5,-0.5"/>
                </g>
                <g id="arrowRight" xlink:href="#dirArrow" transform="rotate(90) translate(36 -43)" onmousedown="handlePan(1,0)">
                  <use xlink:href="#rim" fill="#404040">
                        <set attributeName="fill" to="#808080" begin="arrowRight.mouseover" end="arrowRight.mouseout"/>
                  </use>
                  <path fill="none" stroke="white" stroke-width="1.5" d="M0,-3.0v7 M-2.5,-0.5L0,-3.0L2.5,-0.5"/>
                </g>
                <g id="arrowDown" xlink:href="#dirArrow" transform="rotate(180) translate(-30 -48)" onmousedown="handlePan(0,1)">
                  <use xlink:href="#rim" fill="#404040">
                        <set attributeName="fill" to="#808080" begin="arrowDown.mouseover" end="arrowDown.mouseout"/>
                  </use>
                  <path fill="none" stroke="white" stroke-width="1.5" d="M0,-3.0v7 M-2.5,-0.5L0,-3.0L2.5,-0.5"/>
                </g>
                <g id="arrowLeft" xlink:href="#dirArrow" transform="rotate(270) translate(-36 17)" onmousedown="handlePan(-1,0)">
                  <use xlink:href="#rim" fill="#404040">
                        <set attributeName="fill" to="#808080" begin="arrowLeft.mouseover" end="arrowLeft.mouseout"/>
                  </use>
                  <path fill="none" stroke="white" stroke-width="1.5" d="M0,-3.0v7 M-2.5,-0.5L0,-3.0L2.5,-0.5"/>
                </g>
        </g>
</svg>
