<?xml version="1.0" encoding="UTF-8" standalone="no"?>
<!DOCTYPE svg PUBLIC "-//W3C//DTD SVG 1.1//EN"
 "http://www.w3.org/Graphics/SVG/1.1/DTD/svg11.dtd">
<!-- Generated by graphviz version 2.28.0 (20110507.0327)
 -->
<!-- Title: G Pages: 1 -->
<svg width="340pt" height="57pt"
 viewBox="0.00 0.00 340.00 57.11" xmlns="http://www.w3.org/2000/svg" xmlns:xlink="http://www.w3.org/1999/xlink">
<g id="graph1" class="graph" transform="scale(1 1) rotate(0) translate(4 53.1133)">
<title>G</title>
<polygon fill="white" stroke="white" points="-4,5 -4,-53.1133 337,-53.1133 337,5 -4,5"/>
<!-- Node1 -->
<g id="node1" class="node"><title>Node1</title>
<polygon fill="#bfbfbf" stroke="black" points="0,-28.5 0,-47.5 100,-47.5 100,-28.5 0,-28.5"/>
<text text-anchor="middle" x="50" y="-35.5" font-family="Helvetica,sans-Serif" font-size="10.00">ForwardKinematics</text>
</g>
<!-- Node2 -->
<g id="node3" class="node"><title>Node2</title>
<a xlink:href="_rodrigues_8c.html#a331402e0b6dc7ab640fe40cce0871e1a" target="_top" xlink:title="Rodrigues">
<polygon fill="white" stroke="black" points="272,-28.5 272,-47.5 332,-47.5 332,-28.5 272,-28.5"/>
<text text-anchor="middle" x="302" y="-35.5" font-family="Helvetica,sans-Serif" font-size="10.00">Rodrigues</text>
</a>
</g>
<!-- Node1&#45;&gt;Node2 -->
<g id="edge2" class="edge"><title>Node1&#45;&gt;Node2</title>
<path fill="none" stroke="midnightblue" d="M100.371,-44.1176C112.035,-45.3159 124.441,-46.3898 136,-47 180.383,-49.3431 191.661,-50.0551 236,-47 244.403,-46.421 253.375,-45.4257 261.885,-44.3029"/>
<polygon fill="midnightblue" stroke="midnightblue" points="262.55,-47.7439 271.968,-42.8894 261.578,-40.8117 262.55,-47.7439"/>
</g>
<!-- Node3 -->
<g id="node5" class="node"><title>Node3</title>
<a xlink:href="_forward_kinematics_8c.html#a95980f5defd053812a9fbc687b690606" target="_top" xlink:title="ForwardKinematics">
<polygon fill="white" stroke="black" points="136,-0.5 136,-19.5 236,-19.5 236,-0.5 136,-0.5"/>
<text text-anchor="middle" x="186" y="-7.5" font-family="Helvetica,sans-Serif" font-size="10.00">ForwardKinematics</text>
</a>
</g>
<!-- Node1&#45;&gt;Node3 -->
<g id="edge4" class="edge"><title>Node1&#45;&gt;Node3</title>
<path fill="none" stroke="midnightblue" d="M96.7404,-28.4423C107.305,-26.2347 118.657,-23.8628 129.584,-21.5794"/>
<polygon fill="midnightblue" stroke="midnightblue" points="130.393,-24.9861 139.466,-19.5146 128.961,-18.1341 130.393,-24.9861"/>
</g>
<!-- Node3&#45;&gt;Node2 -->
<g id="edge6" class="edge"><title>Node3&#45;&gt;Node2</title>
<path fill="none" stroke="midnightblue" d="M225.913,-19.5577C237.587,-22.425 250.39,-25.5695 262.065,-28.4371"/>
<polygon fill="midnightblue" stroke="midnightblue" points="261.432,-31.8855 271.978,-30.8719 263.102,-25.0876 261.432,-31.8855"/>
</g>
<!-- Node3&#45;&gt;Node3 -->
<g id="edge8" class="edge"><title>Node3&#45;&gt;Node3</title>
<path fill="none" stroke="midnightblue" d="M168.121,-19.7571C159.423,-28.5653 165.383,-38 186,-38 198.886,-38 206.046,-34.3146 207.48,-29.4"/>
<polygon fill="midnightblue" stroke="midnightblue" points="210.657,-27.9004 203.879,-19.7571 204.099,-30.3496 210.657,-27.9004"/>
</g>
</g>
</svg>
