<?xml version="1.0" encoding="UTF-8" standalone="no"?>
<!DOCTYPE svg PUBLIC "-//W3C//DTD SVG 1.1//EN"
 "http://www.w3.org/Graphics/SVG/1.1/DTD/svg11.dtd">
<!-- Generated by graphviz version 2.28.0 (20110507.0327)
 -->
<!-- Title: G Pages: 1 -->
<svg width="286pt" height="65pt"
 viewBox="0.00 0.00 286.00 65.00" xmlns="http://www.w3.org/2000/svg" xmlns:xlink="http://www.w3.org/1999/xlink">
<g id="graph1" class="graph" transform="scale(1 1) rotate(0) translate(4 61)">
<title>G</title>
<polygon fill="white" stroke="white" points="-4,5 -4,-61 283,-61 283,5 -4,5"/>
<!-- Node1 -->
<g id="node1" class="node"><title>Node1</title>
<polygon fill="#bfbfbf" stroke="black" points="0,-19.5 0,-38.5 100,-38.5 100,-19.5 0,-19.5"/>
<text text-anchor="middle" x="50" y="-26.5" font-family="Helvetica,sans-Serif" font-size="10.00">ForwardKinematics</text>
</g>
<!-- Node1&#45;&gt;Node1 -->
<g id="edge2" class="edge"><title>Node1&#45;&gt;Node1</title>
<path fill="none" stroke="midnightblue" d="M27.6787,-48.0292C28.8962,-53.128 36.3367,-57 50,-57 71.3281,-57 77.4933,-47.5653 68.4955,-38.7571"/>
<polygon fill="midnightblue" stroke="midnightblue" points="30.9256,-49.3361 31.5045,-38.7571 24.4548,-46.6661 30.9256,-49.3361"/>
</g>
<!-- Node2 -->
<g id="node4" class="node"><title>Node2</title>
<a xlink:href="main_8c.html#a0ddf1224851353fc92bfbff6f499fa97" target="_top" xlink:title="main">
<polygon fill="white" stroke="black" points="240,-19.5 240,-38.5 278,-38.5 278,-19.5 240,-19.5"/>
<text text-anchor="middle" x="259" y="-26.5" font-family="Helvetica,sans-Serif" font-size="10.00">main</text>
</a>
</g>
<!-- Node1&#45;&gt;Node2 -->
<g id="edge4" class="edge"><title>Node1&#45;&gt;Node2</title>
<path fill="none" stroke="midnightblue" d="M110.332,-29C154.192,-29 211.076,-29 239.756,-29"/>
<polygon fill="midnightblue" stroke="midnightblue" points="110.056,-25.5001 100.056,-29 110.056,-32.5001 110.056,-25.5001"/>
</g>
<!-- Node3 -->
<g id="node6" class="node"><title>Node3</title>
<a xlink:href="u_link_8h.html#ae420e3d1a86aca06b7286b7678b4ecb6" target="_top" xlink:title="Initialize the link structure with the model value.">
<polygon fill="white" stroke="black" points="136,-0.5 136,-19.5 204,-19.5 204,-0.5 136,-0.5"/>
<text text-anchor="middle" x="170" y="-7.5" font-family="Helvetica,sans-Serif" font-size="10.00">SetupRobot</text>
</a>
</g>
<!-- Node1&#45;&gt;Node3 -->
<g id="edge6" class="edge"><title>Node1&#45;&gt;Node3</title>
<path fill="none" stroke="midnightblue" d="M109.972,-19.5045C118.827,-18.0787 127.683,-16.6528 135.741,-15.3552"/>
<polygon fill="midnightblue" stroke="midnightblue" points="109.334,-16.0621 100.017,-21.1074 110.447,-22.9731 109.334,-16.0621"/>
</g>
<!-- Node3&#45;&gt;Node2 -->
<g id="edge8" class="edge"><title>Node3&#45;&gt;Node2</title>
<path fill="none" stroke="midnightblue" d="M214.168,-19.4275C223.258,-21.4126 232.367,-23.402 239.908,-25.0488"/>
<polygon fill="midnightblue" stroke="midnightblue" points="214.904,-16.0058 204.388,-17.2916 213.411,-22.8447 214.904,-16.0058"/>
</g>
</g>
</svg>
