<?xml version="1.0" encoding="UTF-8" standalone="no"?>
<!DOCTYPE svg PUBLIC "-//W3C//DTD SVG 1.1//EN"
 "http://www.w3.org/Graphics/SVG/1.1/DTD/svg11.dtd">
<!-- Generated by graphviz version 2.28.0 (20110507.0327)
 -->
<!-- Title: G Pages: 1 -->
<svg width="134pt" height="46pt"
 viewBox="0.00 0.00 134.00 46.00" xmlns="http://www.w3.org/2000/svg" xmlns:xlink="http://www.w3.org/1999/xlink">
<g id="graph1" class="graph" transform="scale(1 1) rotate(0) translate(4 42)">
<title>G</title>
<polygon fill="white" stroke="white" points="-4,5 -4,-42 131,-42 131,5 -4,5"/>
<!-- Node1 -->
<g id="node1" class="node"><title>Node1</title>
<polygon fill="#bfbfbf" stroke="black" points="0.5,-0.5 0.5,-19.5 47.5,-19.5 47.5,-0.5 0.5,-0.5"/>
<text text-anchor="middle" x="24" y="-7.5" font-family="Helvetica,sans-Serif" font-size="10.00">Gravity</text>
</g>
<!-- Node1&#45;&gt;Node1 -->
<g id="edge4" class="edge"><title>Node1&#45;&gt;Node1</title>
<path fill="none" stroke="midnightblue" d="M11.6697,-19.7571C5.67114,-28.5653 9.78125,-38 24,-38 32.6646,-38 37.5754,-34.4965 38.7325,-29.7663"/>
<polygon fill="midnightblue" stroke="midnightblue" points="42.0674,-28.6641 36.3303,-19.7571 35.2607,-30.2978 42.0674,-28.6641"/>
</g>
<!-- Node2 -->
<g id="node3" class="node"><title>Node2</title>
<a xlink:href="_cross_8c.html#ae694d97c46b1d90555b4e9a1809baeb3" target="_top" xlink:title="Cross">
<polygon fill="white" stroke="black" points="84,-0.5 84,-19.5 126,-19.5 126,-0.5 84,-0.5"/>
<text text-anchor="middle" x="105" y="-7.5" font-family="Helvetica,sans-Serif" font-size="10.00">Cross</text>
</a>
</g>
<!-- Node1&#45;&gt;Node2 -->
<g id="edge2" class="edge"><title>Node1&#45;&gt;Node2</title>
<path fill="none" stroke="midnightblue" d="M47.8501,-10C55.9494,-10 65.1919,-10 73.8078,-10"/>
<polygon fill="midnightblue" stroke="midnightblue" points="73.8878,-13.5001 83.8877,-10 73.8877,-6.5001 73.8878,-13.5001"/>
</g>
</g>
</svg>
