<?xml version="1.0" encoding="UTF-8" standalone="no"?>
<!DOCTYPE svg PUBLIC "-//W3C//DTD SVG 1.1//EN"
 "http://www.w3.org/Graphics/SVG/1.1/DTD/svg11.dtd">
<!-- Generated by graphviz version 2.28.0 (20110507.0327)
 -->
<!-- Title: G Pages: 1 -->
<svg width="218pt" height="57pt"
 viewBox="0.00 0.00 218.00 56.70" xmlns="http://www.w3.org/2000/svg" xmlns:xlink="http://www.w3.org/1999/xlink">
<g id="graph1" class="graph" transform="scale(1 1) rotate(0) translate(4 52.698)">
<title>G</title>
<polygon fill="white" stroke="white" points="-4,5 -4,-52.698 215,-52.698 215,5 -4,5"/>
<!-- Node1 -->
<g id="node1" class="node"><title>Node1</title>
<polygon fill="#bfbfbf" stroke="black" points="0.5,-28.5 0.5,-47.5 47.5,-47.5 47.5,-28.5 0.5,-28.5"/>
<text text-anchor="middle" x="24" y="-35.5" font-family="Helvetica,sans-Serif" font-size="10.00">Gravity</text>
</g>
<!-- Node2 -->
<g id="node3" class="node"><title>Node2</title>
<a xlink:href="_cross_8c.html#ae694d97c46b1d90555b4e9a1809baeb3" target="_top" xlink:title="Cross">
<polygon fill="white" stroke="black" points="168,-28.5 168,-47.5 210,-47.5 210,-28.5 168,-28.5"/>
<text text-anchor="middle" x="189" y="-35.5" font-family="Helvetica,sans-Serif" font-size="10.00">Cross</text>
</a>
</g>
<!-- Node1&#45;&gt;Node2 -->
<g id="edge2" class="edge"><title>Node1&#45;&gt;Node2</title>
<path fill="none" stroke="midnightblue" d="M47.6019,-42.2679C58.5491,-44.1246 71.9117,-46.0833 84,-47 105.272,-48.6131 110.734,-48.698 132,-47 140.42,-46.3277 149.485,-45.0954 157.817,-43.7539"/>
<polygon fill="midnightblue" stroke="midnightblue" points="158.611,-47.1691 167.876,-42.0303 157.428,-40.2696 158.611,-47.1691"/>
</g>
<!-- Node3 -->
<g id="node5" class="node"><title>Node3</title>
<a xlink:href="_gravity_8c.html#ac74a03b55af13dd218455f237a5289dc" target="_top" xlink:title="Gravity">
<polygon fill="white" stroke="black" points="84.5,-0.5 84.5,-19.5 131.5,-19.5 131.5,-0.5 84.5,-0.5"/>
<text text-anchor="middle" x="108" y="-7.5" font-family="Helvetica,sans-Serif" font-size="10.00">Gravity</text>
</a>
</g>
<!-- Node1&#45;&gt;Node3 -->
<g id="edge4" class="edge"><title>Node1&#45;&gt;Node3</title>
<path fill="none" stroke="midnightblue" d="M47.8416,-30.2004C56.105,-27.3788 65.6017,-24.136 74.5331,-21.0863"/>
<polygon fill="midnightblue" stroke="midnightblue" points="75.9484,-24.3015 84.2809,-17.7577 73.6864,-17.677 75.9484,-24.3015"/>
</g>
<!-- Node3&#45;&gt;Node2 -->
<g id="edge6" class="edge"><title>Node3&#45;&gt;Node2</title>
<path fill="none" stroke="midnightblue" d="M131.85,-18.0988C140.127,-21.0325 149.599,-24.3894 158.375,-27.5"/>
<polygon fill="midnightblue" stroke="midnightblue" points="157.293,-30.8298 167.888,-30.8716 159.632,-24.2319 157.293,-30.8298"/>
</g>
<!-- Node3&#45;&gt;Node3 -->
<g id="edge8" class="edge"><title>Node3&#45;&gt;Node3</title>
<path fill="none" stroke="midnightblue" d="M95.6697,-19.7571C89.6711,-28.5653 93.7813,-38 108,-38 116.665,-38 121.575,-34.4965 122.732,-29.7663"/>
<polygon fill="midnightblue" stroke="midnightblue" points="126.067,-28.6641 120.33,-19.7571 119.261,-30.2978 126.067,-28.6641"/>
</g>
</g>
</svg>
