<?xml version="1.0" encoding="UTF-8" standalone="no"?>
<!DOCTYPE svg PUBLIC "-//W3C//DTD SVG 1.1//EN"
 "http://www.w3.org/Graphics/SVG/1.1/DTD/svg11.dtd">
<!-- Generated by graphviz version 2.28.0 (20110507.0327)
 -->
<!-- Title: G Pages: 1 -->
<svg width="346pt" height="56pt"
 viewBox="0.00 0.00 346.00 56.09" xmlns="http://www.w3.org/2000/svg" xmlns:xlink="http://www.w3.org/1999/xlink">
<g id="graph1" class="graph" transform="scale(1 1) rotate(0) translate(4 52.0915)">
<title>G</title>
<polygon fill="white" stroke="white" points="-4,5 -4,-52.0915 343,-52.0915 343,5 -4,5"/>
<!-- Node1 -->
<g id="node1" class="node"><title>Node1</title>
<polygon fill="#bfbfbf" stroke="black" points="0.5,-28.5 0.5,-47.5 47.5,-47.5 47.5,-28.5 0.5,-28.5"/>
<text text-anchor="middle" x="24" y="-35.5" font-family="Helvetica,sans-Serif" font-size="10.00">Gravity</text>
</g>
<!-- Node2 -->
<g id="node3" class="node"><title>Node2</title>
<a xlink:href="_forward_dynamics_8h.html#a23609ae4e05df387941c4bbc7bfc26fe" target="_top" xlink:title="ForwardDynamics">
<polygon fill="white" stroke="black" points="168.5,-28.5 168.5,-47.5 263.5,-47.5 263.5,-28.5 168.5,-28.5"/>
<text text-anchor="middle" x="216" y="-35.5" font-family="Helvetica,sans-Serif" font-size="10.00">ForwardDynamics</text>
</a>
</g>
<!-- Node1&#45;&gt;Node2 -->
<g id="edge2" class="edge"><title>Node1&#45;&gt;Node2</title>
<path fill="none" stroke="midnightblue" d="M57.6115,-43.876C66.1679,-45.1699 75.406,-46.3483 84,-47 111.96,-49.1203 143.293,-47.1254 168.304,-44.4804"/>
<polygon fill="midnightblue" stroke="midnightblue" points="58.0305,-40.3985 47.6019,-42.2679 56.9201,-47.3099 58.0305,-40.3985"/>
</g>
<!-- Node4 -->
<g id="node7" class="node"><title>Node4</title>
<a xlink:href="_gravity_8h.html#ac74a03b55af13dd218455f237a5289dc" target="_top" xlink:title="Gravity">
<polygon fill="white" stroke="black" points="84.5,-0.5 84.5,-19.5 131.5,-19.5 131.5,-0.5 84.5,-0.5"/>
<text text-anchor="middle" x="108" y="-7.5" font-family="Helvetica,sans-Serif" font-size="10.00">Gravity</text>
</a>
</g>
<!-- Node1&#45;&gt;Node4 -->
<g id="edge6" class="edge"><title>Node1&#45;&gt;Node4</title>
<path fill="none" stroke="midnightblue" d="M57.3113,-26.9669C66.3321,-23.8866 75.941,-20.6055 84.2809,-17.7577"/>
<polygon fill="midnightblue" stroke="midnightblue" points="56.174,-23.6567 47.8416,-30.2004 58.4361,-30.2812 56.174,-23.6567"/>
</g>
<!-- Node3 -->
<g id="node5" class="node"><title>Node3</title>
<a xlink:href="main_8c.html#a0ddf1224851353fc92bfbff6f499fa97" target="_top" xlink:title="main">
<polygon fill="white" stroke="black" points="300,-28.5 300,-47.5 338,-47.5 338,-28.5 300,-28.5"/>
<text text-anchor="middle" x="319" y="-35.5" font-family="Helvetica,sans-Serif" font-size="10.00">main</text>
</a>
</g>
<!-- Node2&#45;&gt;Node3 -->
<g id="edge4" class="edge"><title>Node2&#45;&gt;Node3</title>
<path fill="none" stroke="midnightblue" d="M273.879,-38C283.25,-38 292.323,-38 299.779,-38"/>
<polygon fill="midnightblue" stroke="midnightblue" points="273.657,-34.5001 263.657,-38 273.657,-41.5001 273.657,-34.5001"/>
</g>
<!-- Node4&#45;&gt;Node2 -->
<g id="edge8" class="edge"><title>Node4&#45;&gt;Node2</title>
<path fill="none" stroke="midnightblue" d="M141.64,-18.6219C153.456,-21.743 166.863,-25.2847 178.955,-28.4787"/>
<polygon fill="midnightblue" stroke="midnightblue" points="142.302,-15.1768 131.74,-16.0067 140.514,-21.9446 142.302,-15.1768"/>
</g>
<!-- Node4&#45;&gt;Node4 -->
<g id="edge10" class="edge"><title>Node4&#45;&gt;Node4</title>
<path fill="none" stroke="midnightblue" d="M92.5309,-29.7663C93.7459,-34.4965 98.9022,-38 108,-38 122.93,-38 127.245,-28.5653 120.947,-19.7571"/>
<polygon fill="midnightblue" stroke="midnightblue" points="96.0034,-30.3092 95.0532,-19.7571 89.2156,-28.5986 96.0034,-30.3092"/>
</g>
</g>
</svg>
