<?xml version="1.0" encoding="UTF-8" standalone="no"?>
<!DOCTYPE svg PUBLIC "-//W3C//DTD SVG 1.1//EN"
 "http://www.w3.org/Graphics/SVG/1.1/DTD/svg11.dtd">
<!-- Generated by graphviz version 2.28.0 (20110507.0327)
 -->
<!-- Title: G Pages: 1 -->
<!--zoomable-->
<svg id="main" version="1.1" xmlns="http://www.w3.org/2000/svg" xmlns:xlink="http://www.w3.org/1999/xlink" xml:space="preserve" onload="init(evt)">
        <defs>
                <circle id="rim" cx="0" cy="0" r="7"/>
                <circle id="rim2" cx="0" cy="0" r="3.5"/>
                <g id="zoomPlus">
                        <use xlink:href="#rim" fill="#404040">
                                <set attributeName="fill" to="#808080" begin="zoomplus.mouseover" end="zoomplus.mouseout"/>
                        </use>
                        <path d="M-4,0h8M0,-4v8" fill="none" stroke="white" stroke-width="1.5" pointer-events="none"/>
                </g>
                <g id="zoomMin">
                        <use xlink:href="#rim" fill="#404040">
                                <set attributeName="fill" to="#808080" begin="zoomminus.mouseover" end="zoomminus.mouseout"/>
                        </use>
                        <path d="M-4,0h8" fill="none" stroke="white" stroke-width="1.5" pointer-events="none"/>
                </g>
                <g id="dirArrow">
                        <path fill="none" stroke="white" stroke-width="1.5" d="M0,-3.0v7 M-2.5,-0.5L0,-3.0L2.5,-0.5"/>
                </g>
               <g id="resetDef">
                       <use xlink:href="#rim2" fill="#404040">
                               <set attributeName="fill" to="#808080" begin="reset.mouseover" end="reset.mouseout"/>
                       </use>
               </g>
        </defs>

<script type="text/javascript">
var viewWidth = 788;
var viewHeight = 140;
var sectionId = 'dynsection-0';
</script>
<script xlink:href="svgpan.js"/>
<svg id="graph" class="graph">
<g id="viewport">
<title>G</title>
<polygon fill="white" stroke="white" points="-4,5 -4,-136 784.608,-136 784.608,5 -4,5"/>
<!-- Node1 -->
<g id="node1" class="node"><title>Node1</title>
<polygon fill="#bfbfbf" stroke="black" points="318.108,-112.5 318.108,-131.5 373.108,-131.5 373.108,-112.5 318.108,-112.5"/>
<text text-anchor="middle" x="345.608" y="-119.5" font-family="Helvetica,sans-Serif" font-size="10.00">Gravity.c</text>
</g>
<!-- Node2 -->
<g id="node3" class="node"><title>Node2</title>
<polygon fill="white" stroke="#bfbfbf" points="82.6078,-0.5 82.6078,-19.5 166.608,-19.5 166.608,-0.5 82.6078,-0.5"/>
<text text-anchor="middle" x="124.608" y="-7.5" font-family="Helvetica,sans-Serif" font-size="10.00">gsl/gsl_vector.h</text>
</g>
<!-- Node1&#45;&gt;Node2 -->
<g id="edge2" class="edge"><title>Node1&#45;&gt;Node2</title>
<path fill="none" stroke="midnightblue" d="M317.868,-119.383C240.573,-114.598 27.0734,-99.3617 6.60781,-76 -17.2196,-48.8007 30.771,-30.7468 72.5244,-20.7124"/>
<polygon fill="midnightblue" stroke="midnightblue" points="73.4376,-24.0941 82.4059,-18.4531 71.8773,-17.2701 73.4376,-24.0941"/>
</g>
<!-- Node3 -->
<g id="node5" class="node"><title>Node3</title>
<polygon fill="white" stroke="#bfbfbf" points="205.608,-0.5 205.608,-19.5 291.608,-19.5 291.608,-0.5 205.608,-0.5"/>
<text text-anchor="middle" x="248.608" y="-7.5" font-family="Helvetica,sans-Serif" font-size="10.00">gsl/gsl_matrix.h</text>
</g>
<!-- Node1&#45;&gt;Node3 -->
<g id="edge4" class="edge"><title>Node1&#45;&gt;Node3</title>
<path fill="none" stroke="midnightblue" d="M358.765,-112.452C376.446,-99.8951 404.077,-75.8064 389.608,-56 369.657,-28.6904 332.949,-17.5675 301.988,-13.2058"/>
<polygon fill="midnightblue" stroke="midnightblue" points="302.088,-9.69262 291.742,-11.9722 301.252,-16.6424 302.088,-9.69262"/>
</g>
<!-- Node4 -->
<g id="node7" class="node"><title>Node4</title>
<polygon fill="white" stroke="#bfbfbf" points="437.108,-56.5 437.108,-75.5 514.108,-75.5 514.108,-56.5 437.108,-56.5"/>
<text text-anchor="middle" x="475.608" y="-63.5" font-family="Helvetica,sans-Serif" font-size="10.00">gsl/gsl_blas.h</text>
</g>
<!-- Node1&#45;&gt;Node4 -->
<g id="edge6" class="edge"><title>Node1&#45;&gt;Node4</title>
<path fill="none" stroke="midnightblue" d="M366.207,-112.444C387.601,-103.557 421.289,-89.5632 445.632,-79.4514"/>
<polygon fill="midnightblue" stroke="midnightblue" points="447.213,-82.5848 455.105,-75.5164 444.528,-76.1203 447.213,-82.5848"/>
</g>
<!-- Node5 -->
<g id="node9" class="node"><title>Node5</title>
<polygon fill="white" stroke="#bfbfbf" points="532.108,-56.5 532.108,-75.5 613.108,-75.5 613.108,-56.5 532.108,-56.5"/>
<text text-anchor="middle" x="572.608" y="-63.5" font-family="Helvetica,sans-Serif" font-size="10.00">gsl/gsl_linalg.h</text>
</g>
<!-- Node1&#45;&gt;Node5 -->
<g id="edge8" class="edge"><title>Node1&#45;&gt;Node5</title>
<path fill="none" stroke="midnightblue" d="M373.442,-114.379C411.635,-105.293 480.768,-88.8474 526.689,-77.9235"/>
<polygon fill="midnightblue" stroke="midnightblue" points="527.767,-81.2646 536.686,-75.5453 526.147,-74.4546 527.767,-81.2646"/>
</g>
<!-- Node6 -->
<g id="node11" class="node"><title>Node6</title>
<polygon fill="white" stroke="#bfbfbf" points="631.608,-56.5 631.608,-75.5 711.608,-75.5 711.608,-56.5 631.608,-56.5"/>
<text text-anchor="middle" x="671.608" y="-63.5" font-family="Helvetica,sans-Serif" font-size="10.00">gsl/gsl_math.h</text>
</g>
<!-- Node1&#45;&gt;Node6 -->
<g id="edge10" class="edge"><title>Node1&#45;&gt;Node6</title>
<path fill="none" stroke="midnightblue" d="M373.448,-116.616C423.265,-108.737 530.931,-91.552 621.608,-76 621.708,-75.9828 621.809,-75.9655 621.91,-75.9482"/>
<polygon fill="midnightblue" stroke="midnightblue" points="622.249,-79.4418 631.501,-74.2792 621.049,-72.5455 622.249,-79.4418"/>
</g>
<!-- Node7 -->
<g id="node13" class="node"><title>Node7</title>
<a xlink:href="u_link_8h.html" target="_top" xlink:title="Link initialisation and declarations.">
<polygon fill="white" stroke="black" points="89.1078,-56.5 89.1078,-75.5 140.108,-75.5 140.108,-56.5 89.1078,-56.5"/>
<text text-anchor="middle" x="114.608" y="-63.5" font-family="Helvetica,sans-Serif" font-size="10.00">uLINK.h</text>
</a>
</g>
<!-- Node1&#45;&gt;Node7 -->
<g id="edge12" class="edge"><title>Node1&#45;&gt;Node7</title>
<path fill="none" stroke="midnightblue" d="M317.964,-114.891C281.745,-106.835 216.019,-92.0405 149.95,-76.0332"/>
<polygon fill="midnightblue" stroke="midnightblue" points="150.747,-72.6251 140.203,-73.6634 149.093,-79.427 150.747,-72.6251"/>
</g>
<!-- Node8 -->
<g id="node17" class="node"><title>Node8</title>
<a xlink:href="_cross_8h.html" target="_top" xlink:title="Cross.h">
<polygon fill="white" stroke="black" points="158.608,-56.5 158.608,-75.5 208.608,-75.5 208.608,-56.5 158.608,-56.5"/>
<text text-anchor="middle" x="183.608" y="-63.5" font-family="Helvetica,sans-Serif" font-size="10.00">Cross.h</text>
</a>
</g>
<!-- Node1&#45;&gt;Node8 -->
<g id="edge18" class="edge"><title>Node1&#45;&gt;Node8</title>
<path fill="none" stroke="midnightblue" d="M319.938,-112.444C292.525,-103.306 248.915,-88.7689 218.421,-78.6044"/>
<polygon fill="midnightblue" stroke="midnightblue" points="219.218,-75.1809 208.625,-75.339 217.005,-81.8217 219.218,-75.1809"/>
</g>
<!-- Node9 -->
<g id="node21" class="node"><title>Node9</title>
<a xlink:href="_calc_co_m_8h.html" target="_top" xlink:title="CalcCoM.h">
<polygon fill="white" stroke="black" points="227.108,-56.5 227.108,-75.5 292.108,-75.5 292.108,-56.5 227.108,-56.5"/>
<text text-anchor="middle" x="259.608" y="-63.5" font-family="Helvetica,sans-Serif" font-size="10.00">CalcCoM.h</text>
</a>
</g>
<!-- Node1&#45;&gt;Node9 -->
<g id="edge24" class="edge"><title>Node1&#45;&gt;Node9</title>
<path fill="none" stroke="midnightblue" d="M331.79,-112.324C318.375,-103.9 297.784,-90.9709 282.022,-81.0741"/>
<polygon fill="midnightblue" stroke="midnightblue" points="283.721,-78.0081 273.391,-75.6545 279.999,-83.9364 283.721,-78.0081"/>
</g>
<!-- Node10 -->
<g id="node25" class="node"><title>Node10</title>
<a xlink:href="_total_mass_8h.html" target="_top" xlink:title="TotalMass.h">
<polygon fill="white" stroke="black" points="310.608,-56.5 310.608,-75.5 380.608,-75.5 380.608,-56.5 310.608,-56.5"/>
<text text-anchor="middle" x="345.608" y="-63.5" font-family="Helvetica,sans-Serif" font-size="10.00">TotalMass.h</text>
</a>
</g>
<!-- Node1&#45;&gt;Node10 -->
<g id="edge30" class="edge"><title>Node1&#45;&gt;Node10</title>
<path fill="none" stroke="midnightblue" d="M345.608,-112.083C345.608,-105.006 345.608,-94.8611 345.608,-85.9865"/>
<polygon fill="midnightblue" stroke="midnightblue" points="349.108,-85.751 345.608,-75.7511 342.108,-85.7511 349.108,-85.751"/>
</g>
<!-- Node11 -->
<g id="node29" class="node"><title>Node11</title>
<a xlink:href="_gravity_8h.html" target="_top" xlink:title="Gravity.h">
<polygon fill="white" stroke="black" points="16.1078,-56.5 16.1078,-75.5 71.1078,-75.5 71.1078,-56.5 16.1078,-56.5"/>
<text text-anchor="middle" x="43.6078" y="-63.5" font-family="Helvetica,sans-Serif" font-size="10.00">Gravity.h</text>
</a>
</g>
<!-- Node1&#45;&gt;Node11 -->
<g id="edge36" class="edge"><title>Node1&#45;&gt;Node11</title>
<path fill="none" stroke="midnightblue" d="M317.904,-117.036C271.103,-110.184 173.224,-95.1869 81.4694,-76.2737"/>
<polygon fill="midnightblue" stroke="midnightblue" points="81.9702,-72.803 71.4667,-74.1909 80.5432,-79.656 81.9702,-72.803"/>
</g>
<!-- Node12 -->
<g id="node33" class="node"><title>Node12</title>
<a xlink:href="_setup_8h.html" target="_top" xlink:title="Contain setup of simulations.">
<polygon fill="white" stroke="black" points="729.608,-56.5 729.608,-75.5 779.608,-75.5 779.608,-56.5 729.608,-56.5"/>
<text text-anchor="middle" x="754.608" y="-63.5" font-family="Helvetica,sans-Serif" font-size="10.00">Setup.h</text>
</a>
</g>
<!-- Node1&#45;&gt;Node12 -->
<g id="edge42" class="edge"><title>Node1&#45;&gt;Node12</title>
<path fill="none" stroke="midnightblue" d="M373.568,-118.985C434.628,-114.3 584.565,-101.248 719.357,-75.997"/>
<polygon fill="midnightblue" stroke="midnightblue" points="720.277,-79.385 729.447,-74.0783 718.969,-72.5082 720.277,-79.385"/>
</g>
<!-- Node7&#45;&gt;Node2 -->
<g id="edge14" class="edge"><title>Node7&#45;&gt;Node2</title>
<path fill="none" stroke="midnightblue" d="M116.259,-56.083C117.584,-48.9272 119.49,-38.6353 121.146,-29.6911"/>
<polygon fill="midnightblue" stroke="midnightblue" points="124.608,-30.2212 122.987,-19.7511 117.725,-28.9466 124.608,-30.2212"/>
</g>
<!-- Node7&#45;&gt;Node3 -->
<g id="edge16" class="edge"><title>Node7&#45;&gt;Node3</title>
<path fill="none" stroke="midnightblue" d="M135.841,-56.4435C157.991,-47.5171 192.927,-33.4387 218.044,-23.3168"/>
<polygon fill="midnightblue" stroke="midnightblue" points="219.507,-26.5006 227.474,-19.5164 216.891,-20.0079 219.507,-26.5006"/>
</g>
<!-- Node8&#45;&gt;Node2 -->
<g id="edge20" class="edge"><title>Node8&#45;&gt;Node2</title>
<path fill="none" stroke="midnightblue" d="M174.128,-56.324C165.407,-48.3414 152.264,-36.3128 141.71,-26.6529"/>
<polygon fill="midnightblue" stroke="midnightblue" points="143.999,-24.0036 134.26,-19.8339 139.273,-29.1674 143.999,-24.0036"/>
</g>
<!-- Node8&#45;&gt;Node3 -->
<g id="edge22" class="edge"><title>Node8&#45;&gt;Node3</title>
<path fill="none" stroke="midnightblue" d="M194.051,-56.324C203.754,-48.2631 218.423,-36.0765 230.108,-26.3695"/>
<polygon fill="midnightblue" stroke="midnightblue" points="232.519,-28.9163 237.974,-19.8339 228.046,-23.532 232.519,-28.9163"/>
</g>
<!-- Node9&#45;&gt;Node2 -->
<g id="edge26" class="edge"><title>Node9&#45;&gt;Node2</title>
<path fill="none" stroke="midnightblue" d="M238.217,-56.4435C215.901,-47.5171 180.705,-33.4387 155.4,-23.3168"/>
<polygon fill="midnightblue" stroke="midnightblue" points="156.484,-19.9807 145.899,-19.5164 153.884,-26.4801 156.484,-19.9807"/>
</g>
<!-- Node9&#45;&gt;Node3 -->
<g id="edge28" class="edge"><title>Node9&#45;&gt;Node3</title>
<path fill="none" stroke="midnightblue" d="M257.791,-56.083C256.334,-48.9272 254.237,-38.6353 252.415,-29.6911"/>
<polygon fill="midnightblue" stroke="midnightblue" points="255.816,-28.8512 250.39,-19.7511 248.957,-30.2485 255.816,-28.8512"/>
</g>
<!-- Node10&#45;&gt;Node2 -->
<g id="edge32" class="edge"><title>Node10&#45;&gt;Node2</title>
<path fill="none" stroke="midnightblue" d="M310.59,-56.4435C272.36,-47.1024 211.041,-32.1194 169.35,-21.9326"/>
<polygon fill="midnightblue" stroke="midnightblue" points="170.007,-18.4901 159.462,-19.5164 168.346,-25.2901 170.007,-18.4901"/>
</g>
<!-- Node10&#45;&gt;Node3 -->
<g id="edge34" class="edge"><title>Node10&#45;&gt;Node3</title>
<path fill="none" stroke="midnightblue" d="M330.023,-56.324C314.609,-47.7428 290.796,-34.486 272.898,-24.5224"/>
<polygon fill="midnightblue" stroke="midnightblue" points="274.594,-21.4606 264.154,-19.6545 271.189,-27.5767 274.594,-21.4606"/>
</g>
<!-- Node11&#45;&gt;Node2 -->
<g id="edge38" class="edge"><title>Node11&#45;&gt;Node2</title>
<path fill="none" stroke="midnightblue" d="M56.6219,-56.324C69.1394,-47.979 88.2895,-35.2122 103.079,-25.3524"/>
<polygon fill="midnightblue" stroke="midnightblue" points="105.247,-28.1137 111.626,-19.6545 101.364,-22.2894 105.247,-28.1137"/>
</g>
<!-- Node11&#45;&gt;Node3 -->
<g id="edge40" class="edge"><title>Node11&#45;&gt;Node3</title>
<path fill="none" stroke="midnightblue" d="M71.255,-57.7173C105.913,-48.5878 165.677,-32.8451 206.15,-22.1839"/>
<polygon fill="midnightblue" stroke="midnightblue" points="207.219,-25.5219 215.998,-19.59 205.436,-18.7528 207.219,-25.5219"/>
</g>
</g>
</svg>
        <g id="navigator" transform="translate(0 0)" fill="#404254">
                <rect fill="#f2f5e9" fill-opacity="0.5" stroke="#606060" stroke-width=".5" x="0" y="0" width="60" height="60"/>
                <use id="zoomplus" xlink:href="#zoomPlus" x="17" y="9" onmousedown="handleZoom(evt,'in')"/>
                <use id="zoomminus" xlink:href="#zoomMin" x="42" y="9" onmousedown="handleZoom(evt,'out')"/>
                <use id="reset" xlink:href="#resetDef" x="30" y="36" onmousedown="handleReset()"/>
                <g id="arrowUp" xlink:href="#dirArrow" transform="translate(30 24)" onmousedown="handlePan(0,-1)">
                  <use xlink:href="#rim" fill="#404040">
                        <set attributeName="fill" to="#808080" begin="arrowUp.mouseover" end="arrowUp.mouseout"/>
                  </use>
                  <path fill="none" stroke="white" stroke-width="1.5" d="M0,-3.0v7 M-2.5,-0.5L0,-3.0L2.5,-0.5"/>
                </g>
                <g id="arrowRight" xlink:href="#dirArrow" transform="rotate(90) translate(36 -43)" onmousedown="handlePan(1,0)">
                  <use xlink:href="#rim" fill="#404040">
                        <set attributeName="fill" to="#808080" begin="arrowRight.mouseover" end="arrowRight.mouseout"/>
                  </use>
                  <path fill="none" stroke="white" stroke-width="1.5" d="M0,-3.0v7 M-2.5,-0.5L0,-3.0L2.5,-0.5"/>
                </g>
                <g id="arrowDown" xlink:href="#dirArrow" transform="rotate(180) translate(-30 -48)" onmousedown="handlePan(0,1)">
                  <use xlink:href="#rim" fill="#404040">
                        <set attributeName="fill" to="#808080" begin="arrowDown.mouseover" end="arrowDown.mouseout"/>
                  </use>
                  <path fill="none" stroke="white" stroke-width="1.5" d="M0,-3.0v7 M-2.5,-0.5L0,-3.0L2.5,-0.5"/>
                </g>
                <g id="arrowLeft" xlink:href="#dirArrow" transform="rotate(270) translate(-36 17)" onmousedown="handlePan(-1,0)">
                  <use xlink:href="#rim" fill="#404040">
                        <set attributeName="fill" to="#808080" begin="arrowLeft.mouseover" end="arrowLeft.mouseout"/>
                  </use>
                  <path fill="none" stroke="white" stroke-width="1.5" d="M0,-3.0v7 M-2.5,-0.5L0,-3.0L2.5,-0.5"/>
                </g>
        </g>
</svg>
