<?xml version="1.0" encoding="UTF-8" standalone="no"?>
<!DOCTYPE svg PUBLIC "-//W3C//DTD SVG 1.1//EN"
 "http://www.w3.org/Graphics/SVG/1.1/DTD/svg11.dtd">
<!-- Generated by graphviz version 2.28.0 (20110507.0327)
 -->
<!-- Title: G Pages: 1 -->
<svg width="460pt" height="98pt"
 viewBox="0.00 0.00 460.00 98.00" xmlns="http://www.w3.org/2000/svg" xmlns:xlink="http://www.w3.org/1999/xlink">
<g id="graph1" class="graph" transform="scale(1 1) rotate(0) translate(4 94)">
<title>G</title>
<polygon fill="white" stroke="white" points="-4,5 -4,-94 457,-94 457,5 -4,5"/>
<!-- Node1 -->
<g id="node1" class="node"><title>Node1</title>
<polygon fill="#bfbfbf" stroke="black" points="0,-31.5 0,-50.5 32,-50.5 32,-31.5 0,-31.5"/>
<text text-anchor="middle" x="16" y="-38.5" font-family="Helvetica,sans-Serif" font-size="10.00">Hat</text>
</g>
<!-- Node2 -->
<g id="node3" class="node"><title>Node2</title>
<a xlink:href="_inverse_dynamics_8h.html#accb6237d3631b28dae6469d0ee9a0c2f" target="_top" xlink:title="InverseDynamics">
<polygon fill="white" stroke="black" points="68,-52.5 68,-71.5 158,-71.5 158,-52.5 68,-52.5"/>
<text text-anchor="middle" x="113" y="-59.5" font-family="Helvetica,sans-Serif" font-size="10.00">InverseDynamics</text>
</a>
</g>
<!-- Node1&#45;&gt;Node2 -->
<g id="edge2" class="edge"><title>Node1&#45;&gt;Node2</title>
<path fill="none" stroke="midnightblue" d="M42.2566,-46.583C50.4441,-48.3929 59.7705,-50.4545 68.8802,-52.4683"/>
<polygon fill="midnightblue" stroke="midnightblue" points="42.7832,-43.115 32.2634,-44.374 41.2722,-49.95 42.7832,-43.115"/>
</g>
<!-- Node6 -->
<g id="node12" class="node"><title>Node6</title>
<a xlink:href="_s_e3exp_8h.html#a4098db0d8f1f1e6a030edb1ff9e9f11f" target="_top" xlink:title="SE3exp">
<polygon fill="white" stroke="black" points="194.5,-1.5 194.5,-20.5 245.5,-20.5 245.5,-1.5 194.5,-1.5"/>
<text text-anchor="middle" x="220" y="-8.5" font-family="Helvetica,sans-Serif" font-size="10.00">SE3exp</text>
</a>
</g>
<!-- Node1&#45;&gt;Node6 -->
<g id="edge12" class="edge"><title>Node1&#45;&gt;Node6</title>
<path fill="none" stroke="midnightblue" d="M42.1864,-37.2594C81.2082,-31.4641 155.796,-20.3867 194.436,-14.6481"/>
<polygon fill="midnightblue" stroke="midnightblue" points="41.5601,-33.814 32.1828,-38.7451 42.5885,-40.738 41.5601,-33.814"/>
</g>
<!-- Node2&#45;&gt;Node2 -->
<g id="edge10" class="edge"><title>Node2&#45;&gt;Node2</title>
<path fill="none" stroke="midnightblue" d="M95.2231,-81.4C96.4103,-86.3146 102.336,-90 113,-90 130.063,-90 134.995,-80.5653 127.796,-71.7571"/>
<polygon fill="midnightblue" stroke="midnightblue" points="98.5944,-82.3447 98.2036,-71.7571 91.9066,-80.2775 98.5944,-82.3447"/>
</g>
<!-- Node3 -->
<g id="node5" class="node"><title>Node3</title>
<a xlink:href="_inv_dyn_8h.html#a30f653a126a6f95e6c9b01a3c5997ff4" target="_top" xlink:title="InvDyn">
<polygon fill="white" stroke="black" points="197.5,-54.5 197.5,-73.5 242.5,-73.5 242.5,-54.5 197.5,-54.5"/>
<text text-anchor="middle" x="220" y="-61.5" font-family="Helvetica,sans-Serif" font-size="10.00">InvDyn</text>
</a>
</g>
<!-- Node2&#45;&gt;Node3 -->
<g id="edge4" class="edge"><title>Node2&#45;&gt;Node3</title>
<path fill="none" stroke="midnightblue" d="M168.481,-63.0377C178.761,-63.2335 188.94,-63.4274 197.438,-63.5893"/>
<polygon fill="midnightblue" stroke="midnightblue" points="168.29,-59.5336 158.225,-62.8424 168.157,-66.5323 168.29,-59.5336"/>
</g>
<!-- Node4 -->
<g id="node7" class="node"><title>Node4</title>
<a xlink:href="_forward_dynamics_8h.html#a23609ae4e05df387941c4bbc7bfc26fe" target="_top" xlink:title="ForwardDynamics">
<polygon fill="white" stroke="black" points="282.5,-56.5 282.5,-75.5 377.5,-75.5 377.5,-56.5 282.5,-56.5"/>
<text text-anchor="middle" x="330" y="-63.5" font-family="Helvetica,sans-Serif" font-size="10.00">ForwardDynamics</text>
</a>
</g>
<!-- Node3&#45;&gt;Node4 -->
<g id="edge6" class="edge"><title>Node3&#45;&gt;Node4</title>
<path fill="none" stroke="midnightblue" d="M252.603,-64.5852C261.944,-64.7582 272.371,-64.9513 282.445,-65.1379"/>
<polygon fill="midnightblue" stroke="midnightblue" points="252.659,-61.0858 242.596,-64.3999 252.529,-68.0846 252.659,-61.0858"/>
</g>
<!-- Node5 -->
<g id="node9" class="node"><title>Node5</title>
<a xlink:href="main_8c.html#a0ddf1224851353fc92bfbff6f499fa97" target="_top" xlink:title="main">
<polygon fill="white" stroke="black" points="414,-28.5 414,-47.5 452,-47.5 452,-28.5 414,-28.5"/>
<text text-anchor="middle" x="433" y="-35.5" font-family="Helvetica,sans-Serif" font-size="10.00">main</text>
</a>
</g>
<!-- Node4&#45;&gt;Node5 -->
<g id="edge8" class="edge"><title>Node4&#45;&gt;Node5</title>
<path fill="none" stroke="midnightblue" d="M375.21,-53.7438C388.807,-49.9744 403.021,-46.0337 413.828,-43.0377"/>
<polygon fill="midnightblue" stroke="midnightblue" points="374.177,-50.3979 365.476,-56.4423 376.048,-57.1435 374.177,-50.3979"/>
</g>
<!-- Node7 -->
<g id="node14" class="node"><title>Node7</title>
<a xlink:href="_integrate_euler_8h.html#a8158bd5a4eacb684aed3dcc88daa8582" target="_top" xlink:title="IntegrateEuler">
<polygon fill="white" stroke="black" points="291.5,-0.5 291.5,-19.5 368.5,-19.5 368.5,-0.5 291.5,-0.5"/>
<text text-anchor="middle" x="330" y="-7.5" font-family="Helvetica,sans-Serif" font-size="10.00">IntegrateEuler</text>
</a>
</g>
<!-- Node6&#45;&gt;Node7 -->
<g id="edge14" class="edge"><title>Node6&#45;&gt;Node7</title>
<path fill="none" stroke="midnightblue" d="M255.566,-10.6799C267.008,-10.574 279.792,-10.4556 291.447,-10.3477"/>
<polygon fill="midnightblue" stroke="midnightblue" points="255.474,-7.18055 245.507,-10.7731 255.539,-14.1802 255.474,-7.18055"/>
</g>
<!-- Node7&#45;&gt;Node5 -->
<g id="edge18" class="edge"><title>Node7&#45;&gt;Node5</title>
<path fill="none" stroke="midnightblue" d="M375.21,-22.2562C388.807,-26.0256 403.021,-29.9663 413.828,-32.9623"/>
<polygon fill="midnightblue" stroke="midnightblue" points="376.048,-18.8565 365.476,-19.5577 374.177,-25.6021 376.048,-18.8565"/>
</g>
<!-- Node7&#45;&gt;Node7 -->
<g id="edge16" class="edge"><title>Node7&#45;&gt;Node7</title>
<path fill="none" stroke="midnightblue" d="M311.112,-29.4C312.373,-34.3146 318.669,-38 330,-38 348.129,-38 353.369,-28.5653 345.721,-19.7571"/>
<polygon fill="midnightblue" stroke="midnightblue" points="314.484,-30.3499 314.279,-19.7571 307.833,-28.1658 314.484,-30.3499"/>
</g>
</g>
</svg>
