<?xml version="1.0" encoding="UTF-8" standalone="no"?>
<!DOCTYPE svg PUBLIC "-//W3C//DTD SVG 1.1//EN"
 "http://www.w3.org/Graphics/SVG/1.1/DTD/svg11.dtd">
<!-- Generated by graphviz version 2.28.0 (20110507.0327)
 -->
<!-- Title: G Pages: 1 -->
<svg width="301pt" height="140pt"
 viewBox="0.00 0.00 301.42 140.00" xmlns="http://www.w3.org/2000/svg" xmlns:xlink="http://www.w3.org/1999/xlink">
<g id="graph1" class="graph" transform="scale(1 1) rotate(0) translate(4 136)">
<title>G</title>
<polygon fill="white" stroke="white" points="-4,5 -4,-136 298.425,-136 298.425,5 -4,5"/>
<!-- Node1 -->
<g id="node1" class="node"><title>Node1</title>
<polygon fill="#bfbfbf" stroke="black" points="123,-112.5 123,-131.5 163,-131.5 163,-112.5 123,-112.5"/>
<text text-anchor="middle" x="143" y="-119.5" font-family="Helvetica,sans-Serif" font-size="10.00">Hat.c</text>
</g>
<!-- Node2 -->
<g id="node3" class="node"><title>Node2</title>
<polygon fill="white" stroke="#bfbfbf" points="0,-0.5 0,-19.5 84,-19.5 84,-0.5 0,-0.5"/>
<text text-anchor="middle" x="42" y="-7.5" font-family="Helvetica,sans-Serif" font-size="10.00">gsl/gsl_vector.h</text>
</g>
<!-- Node1&#45;&gt;Node2 -->
<g id="edge2" class="edge"><title>Node1&#45;&gt;Node2</title>
<path fill="none" stroke="midnightblue" d="M122.818,-118.972C97.7862,-115.253 56.0891,-104.842 37,-76 27.9404,-62.3118 30.7506,-43.2711 34.8892,-29.3358"/>
<polygon fill="midnightblue" stroke="midnightblue" points="38.2097,-30.4424 38.1383,-19.8478 31.5873,-28.1746 38.2097,-30.4424"/>
</g>
<!-- Node3 -->
<g id="node5" class="node"><title>Node3</title>
<polygon fill="white" stroke="#bfbfbf" points="195,-0.5 195,-19.5 281,-19.5 281,-0.5 195,-0.5"/>
<text text-anchor="middle" x="238" y="-7.5" font-family="Helvetica,sans-Serif" font-size="10.00">gsl/gsl_matrix.h</text>
</g>
<!-- Node1&#45;&gt;Node3 -->
<g id="edge4" class="edge"><title>Node1&#45;&gt;Node3</title>
<path fill="none" stroke="midnightblue" d="M163.207,-121.649C195.904,-121.461 259.7,-115.691 289,-76 302.15,-58.187 280.9,-38.2233 261.953,-25.1788"/>
<polygon fill="midnightblue" stroke="midnightblue" points="263.832,-22.2259 253.542,-19.7048 260.014,-28.0929 263.832,-22.2259"/>
</g>
<!-- Node4 -->
<g id="node7" class="node"><title>Node4</title>
<polygon fill="white" stroke="#bfbfbf" points="104.5,-56.5 104.5,-75.5 181.5,-75.5 181.5,-56.5 104.5,-56.5"/>
<text text-anchor="middle" x="143" y="-63.5" font-family="Helvetica,sans-Serif" font-size="10.00">gsl/gsl_blas.h</text>
</g>
<!-- Node1&#45;&gt;Node4 -->
<g id="edge6" class="edge"><title>Node1&#45;&gt;Node4</title>
<path fill="none" stroke="midnightblue" d="M143,-112.083C143,-105.006 143,-94.8611 143,-85.9865"/>
<polygon fill="midnightblue" stroke="midnightblue" points="146.5,-85.751 143,-75.7511 139.5,-85.7511 146.5,-85.751"/>
</g>
<!-- Node5 -->
<g id="node9" class="node"><title>Node5</title>
<polygon fill="white" stroke="#bfbfbf" points="200,-56.5 200,-75.5 280,-75.5 280,-56.5 200,-56.5"/>
<text text-anchor="middle" x="240" y="-63.5" font-family="Helvetica,sans-Serif" font-size="10.00">gsl/gsl_math.h</text>
</g>
<!-- Node1&#45;&gt;Node5 -->
<g id="edge8" class="edge"><title>Node1&#45;&gt;Node5</title>
<path fill="none" stroke="midnightblue" d="M158.585,-112.324C173.999,-103.743 197.812,-90.486 215.71,-80.5224"/>
<polygon fill="midnightblue" stroke="midnightblue" points="217.419,-83.5767 224.454,-75.6545 214.014,-77.4606 217.419,-83.5767"/>
</g>
<!-- Node6 -->
<g id="node11" class="node"><title>Node6</title>
<a xlink:href="_hat_8h.html" target="_top" xlink:title="Hat.h">
<polygon fill="white" stroke="black" points="46,-56.5 46,-75.5 86,-75.5 86,-56.5 46,-56.5"/>
<text text-anchor="middle" x="66" y="-63.5" font-family="Helvetica,sans-Serif" font-size="10.00">Hat.h</text>
</a>
</g>
<!-- Node1&#45;&gt;Node6 -->
<g id="edge10" class="edge"><title>Node1&#45;&gt;Node6</title>
<path fill="none" stroke="midnightblue" d="M130.629,-112.324C118.842,-104.058 100.868,-91.4527 86.8645,-81.6322"/>
<polygon fill="midnightblue" stroke="midnightblue" points="88.5376,-78.5307 78.3407,-75.6545 84.5184,-84.2619 88.5376,-78.5307"/>
</g>
<!-- Node6&#45;&gt;Node2 -->
<g id="edge12" class="edge"><title>Node6&#45;&gt;Node2</title>
<path fill="none" stroke="midnightblue" d="M62.0369,-56.083C58.7867,-48.77 54.0806,-38.1814 50.046,-29.1034"/>
<polygon fill="midnightblue" stroke="midnightblue" points="53.1492,-27.4677 45.8894,-19.7511 46.7525,-30.3107 53.1492,-27.4677"/>
</g>
<!-- Node6&#45;&gt;Node3 -->
<g id="edge14" class="edge"><title>Node6&#45;&gt;Node3</title>
<path fill="none" stroke="midnightblue" d="M86.0672,-58.6998C114.135,-49.8878 165.62,-33.724 200.808,-22.6767"/>
<polygon fill="midnightblue" stroke="midnightblue" points="202.221,-25.9015 210.713,-19.5667 200.124,-19.2229 202.221,-25.9015"/>
</g>
</g>
</svg>
