<?xml version="1.0" encoding="UTF-8" standalone="no"?>
<!DOCTYPE svg PUBLIC "-//W3C//DTD SVG 1.1//EN"
 "http://www.w3.org/Graphics/SVG/1.1/DTD/svg11.dtd">
<!-- Generated by graphviz version 2.28.0 (20110507.0327)
 -->
<!-- Title: G Pages: 1 -->
<svg width="241pt" height="84pt"
 viewBox="0.00 0.00 241.00 84.00" xmlns="http://www.w3.org/2000/svg" xmlns:xlink="http://www.w3.org/1999/xlink">
<g id="graph1" class="graph" transform="scale(1 1) rotate(0) translate(4 80)">
<title>G</title>
<polygon fill="white" stroke="white" points="-4,5 -4,-80 238,-80 238,5 -4,5"/>
<!-- Node1 -->
<g id="node1" class="node"><title>Node1</title>
<polygon fill="#bfbfbf" stroke="black" points="87,-56.5 87,-75.5 127,-75.5 127,-56.5 87,-56.5"/>
<text text-anchor="middle" x="107" y="-63.5" font-family="Helvetica,sans-Serif" font-size="10.00">Hat.h</text>
</g>
<!-- Node2 -->
<g id="node3" class="node"><title>Node2</title>
<a xlink:href="_hat_8c.html" target="_top" xlink:title="Hat.c">
<polygon fill="white" stroke="black" points="0,-0.5 0,-19.5 40,-19.5 40,-0.5 0,-0.5"/>
<text text-anchor="middle" x="20" y="-7.5" font-family="Helvetica,sans-Serif" font-size="10.00">Hat.c</text>
</a>
</g>
<!-- Node1&#45;&gt;Node2 -->
<g id="edge2" class="edge"><title>Node1&#45;&gt;Node2</title>
<path fill="none" stroke="midnightblue" d="M84.2842,-50.9005C68.3311,-40.9986 47.5025,-28.0705 33.9434,-19.6545"/>
<polygon fill="midnightblue" stroke="midnightblue" points="82.6797,-54.024 93.0219,-56.324 86.3713,-48.0765 82.6797,-54.024"/>
</g>
<!-- Node3 -->
<g id="node5" class="node"><title>Node3</title>
<a xlink:href="_inverse_dynamics_8c.html" target="_top" xlink:title="InverseDynamics.c">
<polygon fill="white" stroke="black" points="58,-0.5 58,-19.5 156,-19.5 156,-0.5 58,-0.5"/>
<text text-anchor="middle" x="107" y="-7.5" font-family="Helvetica,sans-Serif" font-size="10.00">InverseDynamics.c</text>
</a>
</g>
<!-- Node1&#45;&gt;Node3 -->
<g id="edge4" class="edge"><title>Node1&#45;&gt;Node3</title>
<path fill="none" stroke="midnightblue" d="M107,-45.8045C107,-36.9102 107,-26.7798 107,-19.7511"/>
<polygon fill="midnightblue" stroke="midnightblue" points="103.5,-46.083 107,-56.083 110.5,-46.083 103.5,-46.083"/>
</g>
<!-- Node4 -->
<g id="node7" class="node"><title>Node4</title>
<a xlink:href="_s_e3exp_8c.html" target="_top" xlink:title="SE3exp.c">
<polygon fill="white" stroke="black" points="174.5,-0.5 174.5,-19.5 233.5,-19.5 233.5,-0.5 174.5,-0.5"/>
<text text-anchor="middle" x="204" y="-7.5" font-family="Helvetica,sans-Serif" font-size="10.00">SE3exp.c</text>
</a>
</g>
<!-- Node1&#45;&gt;Node4 -->
<g id="edge6" class="edge"><title>Node1&#45;&gt;Node4</title>
<path fill="none" stroke="midnightblue" d="M131.335,-51.4526C149.243,-41.4835 173.054,-28.2279 188.454,-19.6545"/>
<polygon fill="midnightblue" stroke="midnightblue" points="129.62,-48.4018 122.585,-56.324 133.025,-54.5179 129.62,-48.4018"/>
</g>
</g>
</svg>
