<?xml version="1.0" encoding="UTF-8" standalone="no"?>
<!DOCTYPE svg PUBLIC "-//W3C//DTD SVG 1.1//EN"
 "http://www.w3.org/Graphics/SVG/1.1/DTD/svg11.dtd">
<!-- Generated by graphviz version 2.28.0 (20110507.0327)
 -->
<!-- Title: G Pages: 1 -->
<svg width="252pt" height="66pt"
 viewBox="0.00 0.00 252.00 66.00" xmlns="http://www.w3.org/2000/svg" xmlns:xlink="http://www.w3.org/1999/xlink">
<g id="graph1" class="graph" transform="scale(1 1) rotate(0) translate(4 62)">
<title>G</title>
<polygon fill="white" stroke="white" points="-4,5 -4,-62 249,-62 249,5 -4,5"/>
<!-- Node1 -->
<g id="node1" class="node"><title>Node1</title>
<polygon fill="#bfbfbf" stroke="black" points="0.5,-19.5 0.5,-38.5 77.5,-38.5 77.5,-19.5 0.5,-19.5"/>
<text text-anchor="middle" x="39" y="-26.5" font-family="Helvetica,sans-Serif" font-size="10.00">IntegrateEuler</text>
</g>
<!-- Node1&#45;&gt;Node1 -->
<g id="edge8" class="edge"><title>Node1&#45;&gt;Node1</title>
<path fill="none" stroke="midnightblue" d="M23.5871,-38.7571C16.0889,-47.5653 21.2266,-57 39,-57 50.1084,-57 56.2809,-53.3146 57.5176,-48.4"/>
<polygon fill="midnightblue" stroke="midnightblue" points="60.8093,-47.2032 54.4129,-38.7571 54.1461,-49.3485 60.8093,-47.2032"/>
</g>
<!-- Node2 -->
<g id="node3" class="node"><title>Node2</title>
<a xlink:href="_s_e3exp_8c.html#a4098db0d8f1f1e6a030edb1ff9e9f11f" target="_top" xlink:title="SE3exp">
<polygon fill="white" stroke="black" points="114.5,-19.5 114.5,-38.5 165.5,-38.5 165.5,-19.5 114.5,-19.5"/>
<text text-anchor="middle" x="140" y="-26.5" font-family="Helvetica,sans-Serif" font-size="10.00">SE3exp</text>
</a>
</g>
<!-- Node1&#45;&gt;Node2 -->
<g id="edge2" class="edge"><title>Node1&#45;&gt;Node2</title>
<path fill="none" stroke="midnightblue" d="M77.7101,-29C86.412,-29 95.6301,-29 104.201,-29"/>
<polygon fill="midnightblue" stroke="midnightblue" points="104.258,-32.5001 114.258,-29 104.258,-25.5001 104.258,-32.5001"/>
</g>
<!-- Node3 -->
<g id="node5" class="node"><title>Node3</title>
<a xlink:href="_hat_8c.html#a99b0b25e44a922db29da555aa182bb41" target="_top" xlink:title="Hat">
<polygon fill="white" stroke="black" points="207,-38.5 207,-57.5 239,-57.5 239,-38.5 207,-38.5"/>
<text text-anchor="middle" x="223" y="-45.5" font-family="Helvetica,sans-Serif" font-size="10.00">Hat</text>
</a>
</g>
<!-- Node2&#45;&gt;Node3 -->
<g id="edge4" class="edge"><title>Node2&#45;&gt;Node3</title>
<path fill="none" stroke="midnightblue" d="M165.743,-34.8039C175.583,-37.112 186.893,-39.765 196.78,-42.0841"/>
<polygon fill="midnightblue" stroke="midnightblue" points="196.277,-45.5611 206.812,-44.4374 197.876,-38.7461 196.277,-45.5611"/>
</g>
<!-- Node4 -->
<g id="node7" class="node"><title>Node4</title>
<a xlink:href="_cross_8c.html#ae694d97c46b1d90555b4e9a1809baeb3" target="_top" xlink:title="Cross">
<polygon fill="white" stroke="black" points="202,-0.5 202,-19.5 244,-19.5 244,-0.5 202,-0.5"/>
<text text-anchor="middle" x="223" y="-7.5" font-family="Helvetica,sans-Serif" font-size="10.00">Cross</text>
</a>
</g>
<!-- Node2&#45;&gt;Node4 -->
<g id="edge6" class="edge"><title>Node2&#45;&gt;Node4</title>
<path fill="none" stroke="midnightblue" d="M165.743,-23.1961C173.946,-21.272 183.17,-19.1082 191.74,-17.098"/>
<polygon fill="midnightblue" stroke="midnightblue" points="192.82,-20.4398 201.756,-14.7485 191.221,-13.6248 192.82,-20.4398"/>
</g>
</g>
</svg>
