<?xml version="1.0" encoding="UTF-8" standalone="no"?>
<!DOCTYPE svg PUBLIC "-//W3C//DTD SVG 1.1//EN"
 "http://www.w3.org/Graphics/SVG/1.1/DTD/svg11.dtd">
<!-- Generated by graphviz version 2.28.0 (20110507.0327)
 -->
<!-- Title: G Pages: 1 -->
<svg width="386pt" height="140pt"
 viewBox="0.00 0.00 386.46 140.00" xmlns="http://www.w3.org/2000/svg" xmlns:xlink="http://www.w3.org/1999/xlink">
<g id="graph1" class="graph" transform="scale(1 1) rotate(0) translate(4 136)">
<title>G</title>
<polygon fill="white" stroke="white" points="-4,5 -4,-136 383.457,-136 383.457,5 -4,5"/>
<!-- Node1 -->
<g id="node1" class="node"><title>Node1</title>
<polygon fill="#bfbfbf" stroke="black" points="114.957,-112.5 114.957,-131.5 199.957,-131.5 199.957,-112.5 114.957,-112.5"/>
<text text-anchor="middle" x="157.457" y="-119.5" font-family="Helvetica,sans-Serif" font-size="10.00">IntegrateEuler.c</text>
</g>
<!-- Node2 -->
<g id="node3" class="node"><title>Node2</title>
<polygon fill="white" stroke="#bfbfbf" points="12.457,-0.5 12.457,-19.5 96.457,-19.5 96.457,-0.5 12.457,-0.5"/>
<text text-anchor="middle" x="54.457" y="-7.5" font-family="Helvetica,sans-Serif" font-size="10.00">gsl/gsl_vector.h</text>
</g>
<!-- Node1&#45;&gt;Node2 -->
<g id="edge2" class="edge"><title>Node1&#45;&gt;Node2</title>
<path fill="none" stroke="midnightblue" d="M114.645,-114.244C74.1752,-106.879 17.7271,-93.735 4.45704,-76 -8.72328,-58.3849 12.2263,-38.3521 30.905,-25.2386"/>
<polygon fill="midnightblue" stroke="midnightblue" points="33.0621,-28.0079 39.464,-19.566 29.1949,-22.1731 33.0621,-28.0079"/>
</g>
<!-- Node3 -->
<g id="node5" class="node"><title>Node3</title>
<polygon fill="white" stroke="#bfbfbf" points="144.457,-0.5 144.457,-19.5 230.457,-19.5 230.457,-0.5 144.457,-0.5"/>
<text text-anchor="middle" x="187.457" y="-7.5" font-family="Helvetica,sans-Serif" font-size="10.00">gsl/gsl_matrix.h</text>
</g>
<!-- Node1&#45;&gt;Node3 -->
<g id="edge4" class="edge"><title>Node1&#45;&gt;Node3</title>
<path fill="none" stroke="midnightblue" d="M198.928,-112.497C219.043,-106.06 241.41,-94.9516 253.457,-76 266.575,-55.3633 240.827,-36.3105 217.754,-24.2402"/>
<polygon fill="midnightblue" stroke="midnightblue" points="218.995,-20.9495 208.478,-19.6629 215.897,-27.2268 218.995,-20.9495"/>
</g>
<!-- Node4 -->
<g id="node7" class="node"><title>Node4</title>
<polygon fill="white" stroke="#bfbfbf" points="301.957,-56.5 301.957,-75.5 378.957,-75.5 378.957,-56.5 301.957,-56.5"/>
<text text-anchor="middle" x="340.457" y="-63.5" font-family="Helvetica,sans-Serif" font-size="10.00">gsl/gsl_blas.h</text>
</g>
<!-- Node1&#45;&gt;Node4 -->
<g id="edge6" class="edge"><title>Node1&#45;&gt;Node4</title>
<path fill="none" stroke="midnightblue" d="M186.454,-112.444C217.642,-103.241 267.387,-88.5617 301.865,-78.3879"/>
<polygon fill="midnightblue" stroke="midnightblue" points="302.995,-81.7036 311.596,-75.5164 301.014,-74.9898 302.995,-81.7036"/>
</g>
<!-- Node5 -->
<g id="node9" class="node"><title>Node5</title>
<a xlink:href="u_link_8h.html" target="_top" xlink:title="Link initialisation and declarations.">
<polygon fill="white" stroke="black" points="13.957,-56.5 13.957,-75.5 64.957,-75.5 64.957,-56.5 13.957,-56.5"/>
<text text-anchor="middle" x="39.457" y="-63.5" font-family="Helvetica,sans-Serif" font-size="10.00">uLINK.h</text>
</a>
</g>
<!-- Node1&#45;&gt;Node5 -->
<g id="edge8" class="edge"><title>Node1&#45;&gt;Node5</title>
<path fill="none" stroke="midnightblue" d="M138.76,-112.444C119.513,-103.636 89.3046,-89.8116 67.2569,-79.722"/>
<polygon fill="midnightblue" stroke="midnightblue" points="68.6166,-76.4951 58.067,-75.5164 65.7036,-82.8603 68.6166,-76.4951"/>
</g>
<!-- Node6 -->
<g id="node13" class="node"><title>Node6</title>
<a xlink:href="_s_e3exp_8h.html" target="_top" xlink:title="SE3exp.h">
<polygon fill="white" stroke="black" points="82.957,-56.5 82.957,-75.5 141.957,-75.5 141.957,-56.5 82.957,-56.5"/>
<text text-anchor="middle" x="112.457" y="-63.5" font-family="Helvetica,sans-Serif" font-size="10.00">SE3exp.h</text>
</a>
</g>
<!-- Node1&#45;&gt;Node6 -->
<g id="edge14" class="edge"><title>Node1&#45;&gt;Node6</title>
<path fill="none" stroke="midnightblue" d="M150.026,-112.083C143.604,-104.377 134.151,-93.0333 126.335,-83.6531"/>
<polygon fill="midnightblue" stroke="midnightblue" points="128.84,-81.1927 119.75,-75.7511 123.463,-85.674 128.84,-81.1927"/>
</g>
<!-- Node7 -->
<g id="node17" class="node"><title>Node7</title>
<a xlink:href="_integrate_euler_8h.html" target="_top" xlink:title="IntegrateEuler.h">
<polygon fill="white" stroke="black" points="159.957,-56.5 159.957,-75.5 244.957,-75.5 244.957,-56.5 159.957,-56.5"/>
<text text-anchor="middle" x="202.457" y="-63.5" font-family="Helvetica,sans-Serif" font-size="10.00">IntegrateEuler.h</text>
</a>
</g>
<!-- Node1&#45;&gt;Node7 -->
<g id="edge20" class="edge"><title>Node1&#45;&gt;Node7</title>
<path fill="none" stroke="midnightblue" d="M164.888,-112.083C171.31,-104.377 180.763,-93.0333 188.579,-83.6531"/>
<polygon fill="midnightblue" stroke="midnightblue" points="191.451,-85.674 195.164,-75.7511 186.074,-81.1927 191.451,-85.674"/>
</g>
<!-- Node5&#45;&gt;Node2 -->
<g id="edge10" class="edge"><title>Node5&#45;&gt;Node2</title>
<path fill="none" stroke="midnightblue" d="M41.934,-56.083C43.9435,-48.8486 46.8435,-38.4087 49.3468,-29.3968"/>
<polygon fill="midnightblue" stroke="midnightblue" points="52.722,-30.323 52.0262,-19.7511 45.9774,-28.4495 52.722,-30.323"/>
</g>
<!-- Node5&#45;&gt;Node3 -->
<g id="edge12" class="edge"><title>Node5&#45;&gt;Node3</title>
<path fill="none" stroke="midnightblue" d="M62.9081,-56.4435C87.5897,-47.4381 126.642,-33.1891 154.434,-23.049"/>
<polygon fill="midnightblue" stroke="midnightblue" points="155.921,-26.2321 164.116,-19.5164 153.522,-19.6561 155.921,-26.2321"/>
</g>
<!-- Node6&#45;&gt;Node2 -->
<g id="edge16" class="edge"><title>Node6&#45;&gt;Node2</title>
<path fill="none" stroke="midnightblue" d="M103.138,-56.324C94.5645,-48.3414 81.6448,-36.3128 71.2694,-26.6529"/>
<polygon fill="midnightblue" stroke="midnightblue" points="73.6492,-24.0865 63.9453,-19.8339 68.8793,-29.2098 73.6492,-24.0865"/>
</g>
<!-- Node6&#45;&gt;Node3 -->
<g id="edge18" class="edge"><title>Node6&#45;&gt;Node3</title>
<path fill="none" stroke="midnightblue" d="M124.507,-56.324C135.92,-48.1066 153.288,-35.6017 166.892,-25.8069"/>
<polygon fill="midnightblue" stroke="midnightblue" points="169.117,-28.5174 175.188,-19.8339 165.027,-22.8366 169.117,-28.5174"/>
</g>
<!-- Node7&#45;&gt;Node2 -->
<g id="edge22" class="edge"><title>Node7&#45;&gt;Node2</title>
<path fill="none" stroke="midnightblue" d="M179.006,-56.4435C154.324,-47.4381 115.272,-33.1891 87.4803,-23.049"/>
<polygon fill="midnightblue" stroke="midnightblue" points="88.3923,-19.6561 77.7984,-19.5164 85.9929,-26.2321 88.3923,-19.6561"/>
</g>
<!-- Node7&#45;&gt;Node3 -->
<g id="edge24" class="edge"><title>Node7&#45;&gt;Node3</title>
<path fill="none" stroke="midnightblue" d="M199.98,-56.083C197.971,-48.8486 195.071,-38.4087 192.567,-29.3968"/>
<polygon fill="midnightblue" stroke="midnightblue" points="195.937,-28.4495 189.888,-19.7511 189.192,-30.323 195.937,-28.4495"/>
</g>
</g>
</svg>
