<?xml version="1.0" encoding="UTF-8" standalone="no"?>
<!DOCTYPE svg PUBLIC "-//W3C//DTD SVG 1.1//EN"
 "http://www.w3.org/Graphics/SVG/1.1/DTD/svg11.dtd">
<!-- Generated by graphviz version 2.28.0 (20110507.0327)
 -->
<!-- Title: G Pages: 1 -->
<svg width="274pt" height="65pt"
 viewBox="0.00 0.00 274.00 65.00" xmlns="http://www.w3.org/2000/svg" xmlns:xlink="http://www.w3.org/1999/xlink">
<g id="graph1" class="graph" transform="scale(1 1) rotate(0) translate(4 61)">
<title>G</title>
<polygon fill="white" stroke="white" points="-4,5 -4,-61 271,-61 271,5 -4,5"/>
<!-- Node1 -->
<g id="node1" class="node"><title>Node1</title>
<polygon fill="#bfbfbf" stroke="black" points="0.5,-0.5 0.5,-19.5 77.5,-19.5 77.5,-0.5 0.5,-0.5"/>
<text text-anchor="middle" x="39" y="-7.5" font-family="Helvetica,sans-Serif" font-size="10.00">IntegrateEuler</text>
</g>
<!-- Node2 -->
<g id="node3" class="node"><title>Node2</title>
<a xlink:href="_integrate_euler_8h.html#a8158bd5a4eacb684aed3dcc88daa8582" target="_top" xlink:title="IntegrateEuler">
<polygon fill="white" stroke="black" points="114.5,-19.5 114.5,-38.5 191.5,-38.5 191.5,-19.5 114.5,-19.5"/>
<text text-anchor="middle" x="153" y="-26.5" font-family="Helvetica,sans-Serif" font-size="10.00">IntegrateEuler</text>
</a>
</g>
<!-- Node1&#45;&gt;Node2 -->
<g id="edge2" class="edge"><title>Node1&#45;&gt;Node2</title>
<path fill="none" stroke="midnightblue" d="M87.5279,-18.0628C96.4714,-19.58 105.71,-21.1472 114.303,-22.6049"/>
<polygon fill="midnightblue" stroke="midnightblue" points="88.0505,-14.6015 77.6059,-16.3796 86.8797,-21.5029 88.0505,-14.6015"/>
</g>
<!-- Node3 -->
<g id="node6" class="node"><title>Node3</title>
<a xlink:href="main_8c.html#a0ddf1224851353fc92bfbff6f499fa97" target="_top" xlink:title="main">
<polygon fill="white" stroke="black" points="228,-0.5 228,-19.5 266,-19.5 266,-0.5 228,-0.5"/>
<text text-anchor="middle" x="247" y="-7.5" font-family="Helvetica,sans-Serif" font-size="10.00">main</text>
</a>
</g>
<!-- Node1&#45;&gt;Node3 -->
<g id="edge8" class="edge"><title>Node1&#45;&gt;Node3</title>
<path fill="none" stroke="midnightblue" d="M87.8352,-10C132.484,-10 196.75,-10 227.818,-10"/>
<polygon fill="midnightblue" stroke="midnightblue" points="87.7836,-6.5001 77.7836,-10 87.7835,-13.5001 87.7836,-6.5001"/>
</g>
<!-- Node2&#45;&gt;Node2 -->
<g id="edge4" class="edge"><title>Node2&#45;&gt;Node2</title>
<path fill="none" stroke="midnightblue" d="M135.593,-48.4C136.756,-53.3146 142.558,-57 153,-57 169.707,-57 174.536,-47.5653 167.488,-38.7571"/>
<polygon fill="midnightblue" stroke="midnightblue" points="138.965,-49.3422 138.512,-38.7571 132.265,-47.3144 138.965,-49.3422"/>
</g>
<!-- Node2&#45;&gt;Node3 -->
<g id="edge6" class="edge"><title>Node2&#45;&gt;Node3</title>
<path fill="none" stroke="midnightblue" d="M201.757,-19.1371C211.071,-17.2135 220.289,-15.3098 227.88,-13.7421"/>
<polygon fill="midnightblue" stroke="midnightblue" points="200.771,-15.7669 191.685,-21.2172 202.187,-22.6222 200.771,-15.7669"/>
</g>
</g>
</svg>
