<?xml version="1.0" encoding="UTF-8" standalone="no"?>
<!DOCTYPE svg PUBLIC "-//W3C//DTD SVG 1.1//EN"
 "http://www.w3.org/Graphics/SVG/1.1/DTD/svg11.dtd">
<!-- Generated by graphviz version 2.28.0 (20110507.0327)
 -->
<!-- Title: G Pages: 1 -->
<svg width="157pt" height="84pt"
 viewBox="0.00 0.00 157.00 84.00" xmlns="http://www.w3.org/2000/svg" xmlns:xlink="http://www.w3.org/1999/xlink">
<g id="graph1" class="graph" transform="scale(1 1) rotate(0) translate(4 80)">
<title>G</title>
<polygon fill="white" stroke="white" points="-4,5 -4,-80 154,-80 154,5 -4,5"/>
<!-- Node1 -->
<g id="node1" class="node"><title>Node1</title>
<polygon fill="#bfbfbf" stroke="black" points="41.5,-56.5 41.5,-75.5 126.5,-75.5 126.5,-56.5 41.5,-56.5"/>
<text text-anchor="middle" x="84" y="-63.5" font-family="Helvetica,sans-Serif" font-size="10.00">IntegrateEuler.h</text>
</g>
<!-- Node2 -->
<g id="node3" class="node"><title>Node2</title>
<a xlink:href="_integrate_euler_8c.html" target="_top" xlink:title="IntegrateEuler.c">
<polygon fill="white" stroke="black" points="-0.5,-0.5 -0.5,-19.5 84.5,-19.5 84.5,-0.5 -0.5,-0.5"/>
<text text-anchor="middle" x="42" y="-7.5" font-family="Helvetica,sans-Serif" font-size="10.00">IntegrateEuler.c</text>
</a>
</g>
<!-- Node1&#45;&gt;Node2 -->
<g id="edge2" class="edge"><title>Node1&#45;&gt;Node2</title>
<path fill="none" stroke="midnightblue" d="M70.8898,-48.144C63.5722,-38.7357 54.7591,-27.4046 48.8064,-19.7511"/>
<polygon fill="midnightblue" stroke="midnightblue" points="68.1624,-50.3383 77.0646,-56.083 73.6878,-46.0406 68.1624,-50.3383"/>
</g>
<!-- Node3 -->
<g id="node5" class="node"><title>Node3</title>
<a xlink:href="main_8c.html" target="_top" xlink:title="This is the multi body simulator.">
<polygon fill="white" stroke="black" points="103,-0.5 103,-19.5 149,-19.5 149,-0.5 103,-0.5"/>
<text text-anchor="middle" x="126" y="-7.5" font-family="Helvetica,sans-Serif" font-size="10.00">main.c</text>
</a>
</g>
<!-- Node1&#45;&gt;Node3 -->
<g id="edge4" class="edge"><title>Node1&#45;&gt;Node3</title>
<path fill="none" stroke="midnightblue" d="M97.1102,-48.144C104.428,-38.7357 113.241,-27.4046 119.194,-19.7511"/>
<polygon fill="midnightblue" stroke="midnightblue" points="94.3122,-46.0406 90.9354,-56.083 99.8376,-50.3383 94.3122,-46.0406"/>
</g>
</g>
</svg>
