<?xml version="1.0" encoding="UTF-8" standalone="no"?>
<!DOCTYPE svg PUBLIC "-//W3C//DTD SVG 1.1//EN"
 "http://www.w3.org/Graphics/SVG/1.1/DTD/svg11.dtd">
<!-- Generated by graphviz version 2.28.0 (20110507.0327)
 -->
<!-- Title: G Pages: 1 -->
<svg width="366pt" height="75pt"
 viewBox="0.00 0.00 366.00 75.00" xmlns="http://www.w3.org/2000/svg" xmlns:xlink="http://www.w3.org/1999/xlink">
<g id="graph1" class="graph" transform="scale(1 1) rotate(0) translate(4 71)">
<title>G</title>
<polygon fill="white" stroke="white" points="-4,5 -4,-71 363,-71 363,5 -4,5"/>
<!-- Node1 -->
<g id="node1" class="node"><title>Node1</title>
<polygon fill="#bfbfbf" stroke="black" points="0.5,-28.5 0.5,-47.5 77.5,-47.5 77.5,-28.5 0.5,-28.5"/>
<text text-anchor="middle" x="39" y="-35.5" font-family="Helvetica,sans-Serif" font-size="10.00">IntegrateEuler</text>
</g>
<!-- Node2 -->
<g id="node3" class="node"><title>Node2</title>
<a xlink:href="_s_e3exp_8c.html#a4098db0d8f1f1e6a030edb1ff9e9f11f" target="_top" xlink:title="SE3exp">
<polygon fill="white" stroke="black" points="228.5,-28.5 228.5,-47.5 279.5,-47.5 279.5,-28.5 228.5,-28.5"/>
<text text-anchor="middle" x="254" y="-35.5" font-family="Helvetica,sans-Serif" font-size="10.00">SE3exp</text>
</a>
</g>
<!-- Node1&#45;&gt;Node2 -->
<g id="edge2" class="edge"><title>Node1&#45;&gt;Node2</title>
<path fill="none" stroke="midnightblue" d="M77.5653,-43.4618C89.2155,-44.9151 102.115,-46.2799 114,-47 148.603,-49.0965 157.426,-49.5368 192,-47 200.577,-46.3707 209.778,-45.25 218.367,-44.0084"/>
<polygon fill="midnightblue" stroke="midnightblue" points="219.103,-47.4364 228.456,-42.4588 218.041,-40.5175 219.103,-47.4364"/>
</g>
<!-- Node5 -->
<g id="node9" class="node"><title>Node5</title>
<a xlink:href="_integrate_euler_8c.html#a8158bd5a4eacb684aed3dcc88daa8582" target="_top" xlink:title="IntegrateEuler">
<polygon fill="white" stroke="black" points="114.5,-0.5 114.5,-19.5 191.5,-19.5 191.5,-0.5 114.5,-0.5"/>
<text text-anchor="middle" x="153" y="-7.5" font-family="Helvetica,sans-Serif" font-size="10.00">IntegrateEuler</text>
</a>
</g>
<!-- Node1&#45;&gt;Node5 -->
<g id="edge8" class="edge"><title>Node1&#45;&gt;Node5</title>
<path fill="none" stroke="midnightblue" d="M77.6059,-28.5985C86.194,-26.4515 95.4314,-24.1422 104.377,-21.9058"/>
<polygon fill="midnightblue" stroke="midnightblue" points="105.45,-25.2453 114.303,-19.4243 103.752,-18.4543 105.45,-25.2453"/>
</g>
<!-- Node3 -->
<g id="node5" class="node"><title>Node3</title>
<a xlink:href="_hat_8c.html#a99b0b25e44a922db29da555aa182bb41" target="_top" xlink:title="Hat">
<polygon fill="white" stroke="black" points="321,-47.5 321,-66.5 353,-66.5 353,-47.5 321,-47.5"/>
<text text-anchor="middle" x="337" y="-54.5" font-family="Helvetica,sans-Serif" font-size="10.00">Hat</text>
</a>
</g>
<!-- Node2&#45;&gt;Node3 -->
<g id="edge4" class="edge"><title>Node2&#45;&gt;Node3</title>
<path fill="none" stroke="midnightblue" d="M279.743,-43.8039C289.583,-46.112 300.893,-48.765 310.78,-51.0841"/>
<polygon fill="midnightblue" stroke="midnightblue" points="310.277,-54.5611 320.812,-53.4374 311.876,-47.7461 310.277,-54.5611"/>
</g>
<!-- Node4 -->
<g id="node7" class="node"><title>Node4</title>
<a xlink:href="_cross_8c.html#ae694d97c46b1d90555b4e9a1809baeb3" target="_top" xlink:title="Cross">
<polygon fill="white" stroke="black" points="316,-9.5 316,-28.5 358,-28.5 358,-9.5 316,-9.5"/>
<text text-anchor="middle" x="337" y="-16.5" font-family="Helvetica,sans-Serif" font-size="10.00">Cross</text>
</a>
</g>
<!-- Node2&#45;&gt;Node4 -->
<g id="edge6" class="edge"><title>Node2&#45;&gt;Node4</title>
<path fill="none" stroke="midnightblue" d="M279.743,-32.1961C287.946,-30.272 297.17,-28.1082 305.74,-26.098"/>
<polygon fill="midnightblue" stroke="midnightblue" points="306.82,-29.4398 315.756,-23.7485 305.221,-22.6248 306.82,-29.4398"/>
</g>
<!-- Node5&#45;&gt;Node2 -->
<g id="edge10" class="edge"><title>Node5&#45;&gt;Node2</title>
<path fill="none" stroke="midnightblue" d="M187.793,-19.5577C197.792,-22.3856 208.744,-25.4833 218.77,-28.3189"/>
<polygon fill="midnightblue" stroke="midnightblue" points="217.843,-31.6937 228.418,-31.0475 219.748,-24.958 217.843,-31.6937"/>
</g>
<!-- Node5&#45;&gt;Node5 -->
<g id="edge12" class="edge"><title>Node5&#45;&gt;Node5</title>
<path fill="none" stroke="midnightblue" d="M137.587,-19.7571C130.089,-28.5653 135.227,-38 153,-38 164.108,-38 170.281,-34.3146 171.518,-29.4"/>
<polygon fill="midnightblue" stroke="midnightblue" points="174.809,-28.2032 168.413,-19.7571 168.146,-30.3485 174.809,-28.2032"/>
</g>
</g>
</svg>
