<?xml version="1.0" encoding="UTF-8" standalone="no"?>
<!DOCTYPE svg PUBLIC "-//W3C//DTD SVG 1.1//EN"
 "http://www.w3.org/Graphics/SVG/1.1/DTD/svg11.dtd">
<!-- Generated by graphviz version 2.28.0 (20110507.0327)
 -->
<!-- Title: G Pages: 1 -->
<svg width="298pt" height="112pt"
 viewBox="0.00 0.00 298.00 112.00" xmlns="http://www.w3.org/2000/svg" xmlns:xlink="http://www.w3.org/1999/xlink">
<g id="graph1" class="graph" transform="scale(1 1) rotate(0) translate(4 108)">
<title>G</title>
<polygon fill="white" stroke="white" points="-4,5 -4,-108 295,-108 295,5 -4,5"/>
<!-- Node1 -->
<g id="node1" class="node"><title>Node1</title>
<polygon fill="#bfbfbf" stroke="black" points="0.5,-38.5 0.5,-57.5 45.5,-57.5 45.5,-38.5 0.5,-38.5"/>
<text text-anchor="middle" x="23" y="-45.5" font-family="Helvetica,sans-Serif" font-size="10.00">InvDyn</text>
</g>
<!-- Node2 -->
<g id="node3" class="node"><title>Node2</title>
<a xlink:href="_forward_all_kinematics_8c.html#a4ce3cc40a8f7cd71ac18ce0111679a00" target="_top" xlink:title="ForwardAllKinematics">
<polygon fill="white" stroke="black" points="82.5,-66.5 82.5,-85.5 193.5,-85.5 193.5,-66.5 82.5,-66.5"/>
<text text-anchor="middle" x="138" y="-73.5" font-family="Helvetica,sans-Serif" font-size="10.00">ForwardAllKinematics</text>
</a>
</g>
<!-- Node1&#45;&gt;Node2 -->
<g id="edge2" class="edge"><title>Node1&#45;&gt;Node2</title>
<path fill="none" stroke="midnightblue" d="M45.5204,-53.3325C57.8121,-56.3782 73.7453,-60.3263 88.8619,-64.072"/>
<polygon fill="midnightblue" stroke="midnightblue" points="88.083,-67.4847 98.6313,-66.4927 89.7666,-60.6902 88.083,-67.4847"/>
</g>
<!-- Node5 -->
<g id="node10" class="node"><title>Node5</title>
<a xlink:href="_inverse_dynamics_8c.html#accb6237d3631b28dae6469d0ee9a0c2f" target="_top" xlink:title="InverseDynamics">
<polygon fill="white" stroke="black" points="93,-10.5 93,-29.5 183,-29.5 183,-10.5 93,-10.5"/>
<text text-anchor="middle" x="138" y="-17.5" font-family="Helvetica,sans-Serif" font-size="10.00">InverseDynamics</text>
</a>
</g>
<!-- Node1&#45;&gt;Node5 -->
<g id="edge10" class="edge"><title>Node1&#45;&gt;Node5</title>
<path fill="none" stroke="midnightblue" d="M45.5204,-42.6675C57.8121,-39.6218 73.7453,-35.6737 88.8619,-31.928"/>
<polygon fill="midnightblue" stroke="midnightblue" points="89.7666,-35.3098 98.6313,-29.5073 88.083,-28.5153 89.7666,-35.3098"/>
</g>
<!-- Node2&#45;&gt;Node2 -->
<g id="edge8" class="edge"><title>Node2&#45;&gt;Node2</title>
<path fill="none" stroke="midnightblue" d="M120.429,-85.7571C111.881,-94.5653 117.738,-104 138,-104 150.664,-104 157.7,-100.315 159.11,-95.4"/>
<polygon fill="midnightblue" stroke="midnightblue" points="162.302,-93.9387 155.571,-85.7571 155.731,-96.3507 162.302,-93.9387"/>
</g>
<!-- Node3 -->
<g id="node5" class="node"><title>Node3</title>
<a xlink:href="_rodrigues_8c.html#a331402e0b6dc7ab640fe40cce0871e1a" target="_top" xlink:title="Rodrigues">
<polygon fill="white" stroke="black" points="230,-76.5 230,-95.5 290,-95.5 290,-76.5 230,-76.5"/>
<text text-anchor="middle" x="260" y="-83.5" font-family="Helvetica,sans-Serif" font-size="10.00">Rodrigues</text>
</a>
</g>
<!-- Node2&#45;&gt;Node3 -->
<g id="edge4" class="edge"><title>Node2&#45;&gt;Node3</title>
<path fill="none" stroke="midnightblue" d="M193.733,-80.561C202.512,-81.2927 211.443,-82.0369 219.766,-82.7305"/>
<polygon fill="midnightblue" stroke="midnightblue" points="219.67,-86.2346 229.926,-83.5772 220.251,-79.2587 219.67,-86.2346"/>
</g>
<!-- Node4 -->
<g id="node7" class="node"><title>Node4</title>
<a xlink:href="_cross_8c.html#ae694d97c46b1d90555b4e9a1809baeb3" target="_top" xlink:title="Cross">
<polygon fill="white" stroke="black" points="239,-38.5 239,-57.5 281,-57.5 281,-38.5 239,-38.5"/>
<text text-anchor="middle" x="260" y="-45.5" font-family="Helvetica,sans-Serif" font-size="10.00">Cross</text>
</a>
</g>
<!-- Node2&#45;&gt;Node4 -->
<g id="edge6" class="edge"><title>Node2&#45;&gt;Node4</title>
<path fill="none" stroke="midnightblue" d="M179.962,-66.4423C195.915,-62.7198 213.872,-58.5298 228.634,-55.0855"/>
<polygon fill="midnightblue" stroke="midnightblue" points="229.8,-58.4074 238.743,-52.7266 228.21,-51.5905 229.8,-58.4074"/>
</g>
<!-- Node5&#45;&gt;Node4 -->
<g id="edge14" class="edge"><title>Node5&#45;&gt;Node4</title>
<path fill="none" stroke="midnightblue" d="M179.962,-29.5577C195.915,-33.2802 213.872,-37.4702 228.634,-40.9145"/>
<polygon fill="midnightblue" stroke="midnightblue" points="228.21,-44.4095 238.743,-43.2734 229.8,-37.5926 228.21,-44.4095"/>
</g>
<!-- Node5&#45;&gt;Node5 -->
<g id="edge16" class="edge"><title>Node5&#45;&gt;Node5</title>
<path fill="none" stroke="midnightblue" d="M120.429,-29.7571C111.881,-38.5653 117.738,-48 138,-48 150.664,-48 157.7,-44.3146 159.11,-39.4"/>
<polygon fill="midnightblue" stroke="midnightblue" points="162.302,-37.9387 155.571,-29.7571 155.731,-40.3507 162.302,-37.9387"/>
</g>
<!-- Node6 -->
<g id="node12" class="node"><title>Node6</title>
<a xlink:href="_hat_8c.html#a99b0b25e44a922db29da555aa182bb41" target="_top" xlink:title="Hat">
<polygon fill="white" stroke="black" points="244,-0.5 244,-19.5 276,-19.5 276,-0.5 244,-0.5"/>
<text text-anchor="middle" x="260" y="-7.5" font-family="Helvetica,sans-Serif" font-size="10.00">Hat</text>
</a>
</g>
<!-- Node5&#45;&gt;Node6 -->
<g id="edge12" class="edge"><title>Node5&#45;&gt;Node6</title>
<path fill="none" stroke="midnightblue" d="M183.002,-16.3332C200.059,-14.9117 218.977,-13.3352 233.671,-12.1107"/>
<polygon fill="midnightblue" stroke="midnightblue" points="234.309,-15.5698 243.984,-11.2513 233.728,-8.59396 234.309,-15.5698"/>
</g>
</g>
</svg>
