<?xml version="1.0" encoding="UTF-8" standalone="no"?>
<!DOCTYPE svg PUBLIC "-//W3C//DTD SVG 1.1//EN"
 "http://www.w3.org/Graphics/SVG/1.1/DTD/svg11.dtd">
<!-- Generated by graphviz version 2.28.0 (20110507.0327)
 -->
<!-- Title: G Pages: 1 -->
<svg width="349pt" height="140pt"
 viewBox="0.00 0.00 349.36 140.00" xmlns="http://www.w3.org/2000/svg" xmlns:xlink="http://www.w3.org/1999/xlink">
<g id="graph1" class="graph" transform="scale(1 1) rotate(0) translate(4 136)">
<title>G</title>
<polygon fill="white" stroke="white" points="-4,5 -4,-136 346.357,-136 346.357,5 -4,5"/>
<!-- Node1 -->
<g id="node1" class="node"><title>Node1</title>
<polygon fill="#bfbfbf" stroke="black" points="139,-112.5 139,-131.5 243,-131.5 243,-112.5 139,-112.5"/>
<text text-anchor="middle" x="191" y="-119.5" font-family="Helvetica,sans-Serif" font-size="10.00">InverseKinematics.c</text>
</g>
<!-- Node2 -->
<g id="node3" class="node"><title>Node2</title>
<polygon fill="white" stroke="#bfbfbf" points="0,-0.5 0,-19.5 84,-19.5 84,-0.5 0,-0.5"/>
<text text-anchor="middle" x="42" y="-7.5" font-family="Helvetica,sans-Serif" font-size="10.00">gsl/gsl_vector.h</text>
</g>
<!-- Node1&#45;&gt;Node2 -->
<g id="edge2" class="edge"><title>Node1&#45;&gt;Node2</title>
<path fill="none" stroke="midnightblue" d="M138.804,-114.201C94.3268,-107.21 35.3858,-94.6893 21,-76 10.2005,-61.9699 19.1397,-42.197 28.4678,-28.1514"/>
<polygon fill="midnightblue" stroke="midnightblue" points="31.4336,-30.0227 34.4502,-19.8664 25.7584,-25.9247 31.4336,-30.0227"/>
</g>
<!-- Node3 -->
<g id="node5" class="node"><title>Node3</title>
<polygon fill="white" stroke="#bfbfbf" points="227,-0.5 227,-19.5 313,-19.5 313,-0.5 227,-0.5"/>
<text text-anchor="middle" x="270" y="-7.5" font-family="Helvetica,sans-Serif" font-size="10.00">gsl/gsl_matrix.h</text>
</g>
<!-- Node1&#45;&gt;Node3 -->
<g id="edge4" class="edge"><title>Node1&#45;&gt;Node3</title>
<path fill="none" stroke="midnightblue" d="M243.043,-119.737C275.71,-115.908 315.576,-105.022 337,-76 351.87,-55.8564 324.391,-36.3529 300.262,-24.0531"/>
<polygon fill="midnightblue" stroke="midnightblue" points="301.464,-20.7469 290.937,-19.5511 298.421,-27.0507 301.464,-20.7469"/>
</g>
<!-- Node4 -->
<g id="node7" class="node"><title>Node4</title>
<polygon fill="white" stroke="#bfbfbf" points="152.5,-56.5 152.5,-75.5 229.5,-75.5 229.5,-56.5 152.5,-56.5"/>
<text text-anchor="middle" x="191" y="-63.5" font-family="Helvetica,sans-Serif" font-size="10.00">gsl/gsl_blas.h</text>
</g>
<!-- Node1&#45;&gt;Node4 -->
<g id="edge6" class="edge"><title>Node1&#45;&gt;Node4</title>
<path fill="none" stroke="midnightblue" d="M191,-112.083C191,-105.006 191,-94.8611 191,-85.9865"/>
<polygon fill="midnightblue" stroke="midnightblue" points="194.5,-85.751 191,-75.7511 187.5,-85.7511 194.5,-85.751"/>
</g>
<!-- Node5 -->
<g id="node9" class="node"><title>Node5</title>
<polygon fill="white" stroke="#bfbfbf" points="248,-56.5 248,-75.5 328,-75.5 328,-56.5 248,-56.5"/>
<text text-anchor="middle" x="288" y="-63.5" font-family="Helvetica,sans-Serif" font-size="10.00">gsl/gsl_math.h</text>
</g>
<!-- Node1&#45;&gt;Node5 -->
<g id="edge8" class="edge"><title>Node1&#45;&gt;Node5</title>
<path fill="none" stroke="midnightblue" d="M206.585,-112.324C221.999,-103.743 245.812,-90.486 263.71,-80.5224"/>
<polygon fill="midnightblue" stroke="midnightblue" points="265.419,-83.5767 272.454,-75.6545 262.014,-77.4606 265.419,-83.5767"/>
</g>
<!-- Node6 -->
<g id="node11" class="node"><title>Node6</title>
<a xlink:href="_inverse_kinematics_8h.html" target="_top" xlink:title="InverseKinematics.h">
<polygon fill="white" stroke="black" points="30,-56.5 30,-75.5 134,-75.5 134,-56.5 30,-56.5"/>
<text text-anchor="middle" x="82" y="-63.5" font-family="Helvetica,sans-Serif" font-size="10.00">InverseKinematics.h</text>
</a>
</g>
<!-- Node1&#45;&gt;Node6 -->
<g id="edge10" class="edge"><title>Node1&#45;&gt;Node6</title>
<path fill="none" stroke="midnightblue" d="M173.487,-112.324C155.928,-103.625 128.669,-90.1202 108.469,-80.113"/>
<polygon fill="midnightblue" stroke="midnightblue" points="109.984,-76.9575 99.4693,-75.6545 106.876,-83.23 109.984,-76.9575"/>
</g>
<!-- Node6&#45;&gt;Node2 -->
<g id="edge12" class="edge"><title>Node6&#45;&gt;Node2</title>
<path fill="none" stroke="midnightblue" d="M75.3948,-56.083C69.7448,-48.4554 61.4552,-37.2645 54.5488,-27.9408"/>
<polygon fill="midnightblue" stroke="midnightblue" points="57.2471,-25.7034 48.4823,-19.7511 51.6221,-29.87 57.2471,-25.7034"/>
</g>
<!-- Node6&#45;&gt;Node3 -->
<g id="edge14" class="edge"><title>Node6&#45;&gt;Node3</title>
<path fill="none" stroke="midnightblue" d="M111.789,-56.4435C143.829,-47.2406 194.933,-32.5617 230.353,-22.3879"/>
<polygon fill="midnightblue" stroke="midnightblue" points="231.705,-25.6412 240.35,-19.5164 229.773,-18.9132 231.705,-25.6412"/>
</g>
</g>
</svg>
