<?xml version="1.0" encoding="UTF-8" standalone="no"?>
<!DOCTYPE svg PUBLIC "-//W3C//DTD SVG 1.1//EN"
 "http://www.w3.org/Graphics/SVG/1.1/DTD/svg11.dtd">
<!-- Generated by graphviz version 2.28.0 (20110507.0327)
 -->
<!-- Title: G Pages: 1 -->
<svg width="302pt" height="89pt"
 viewBox="0.00 0.00 302.00 88.85" xmlns="http://www.w3.org/2000/svg" xmlns:xlink="http://www.w3.org/1999/xlink">
<g id="graph1" class="graph" transform="scale(1 1) rotate(0) translate(4 84.8469)">
<title>G</title>
<polygon fill="white" stroke="white" points="-4,5 -4,-84.8469 299,-84.8469 299,5 -4,5"/>
<!-- Node1 -->
<g id="node1" class="node"><title>Node1</title>
<polygon fill="#bfbfbf" stroke="black" points="0,-28.5 0,-47.5 90,-47.5 90,-28.5 0,-28.5"/>
<text text-anchor="middle" x="45" y="-35.5" font-family="Helvetica,sans-Serif" font-size="10.00">InverseDynamics</text>
</g>
<!-- Node2 -->
<g id="node3" class="node"><title>Node2</title>
<a xlink:href="_hat_8c.html#a99b0b25e44a922db29da555aa182bb41" target="_top" xlink:title="Hat">
<polygon fill="white" stroke="black" points="257,-47.5 257,-66.5 289,-66.5 289,-47.5 257,-47.5"/>
<text text-anchor="middle" x="273" y="-54.5" font-family="Helvetica,sans-Serif" font-size="10.00">Hat</text>
</a>
</g>
<!-- Node1&#45;&gt;Node2 -->
<g id="edge2" class="edge"><title>Node1&#45;&gt;Node2</title>
<path fill="none" stroke="midnightblue" d="M61.5182,-47.6585C77.132,-56.7644 102.238,-69.771 126,-75 165.065,-83.5964 176.483,-81.1949 216,-75 226.373,-73.3739 237.446,-70.1507 246.984,-66.8755"/>
<polygon fill="midnightblue" stroke="midnightblue" points="248.421,-70.0774 256.626,-63.3742 246.032,-63.4977 248.421,-70.0774"/>
</g>
<!-- Node3 -->
<g id="node5" class="node"><title>Node3</title>
<a xlink:href="_cross_8c.html#ae694d97c46b1d90555b4e9a1809baeb3" target="_top" xlink:title="Cross">
<polygon fill="white" stroke="black" points="252,-0.5 252,-19.5 294,-19.5 294,-0.5 252,-0.5"/>
<text text-anchor="middle" x="273" y="-7.5" font-family="Helvetica,sans-Serif" font-size="10.00">Cross</text>
</a>
</g>
<!-- Node1&#45;&gt;Node3 -->
<g id="edge4" class="edge"><title>Node1&#45;&gt;Node3</title>
<path fill="none" stroke="midnightblue" d="M80.4005,-28.4625C94.4364,-24.9301 110.891,-21.2429 126,-19 165.599,-13.1215 211.791,-11.0701 241.441,-10.3615"/>
<polygon fill="midnightblue" stroke="midnightblue" points="241.646,-13.8581 251.573,-10.1566 241.504,-6.85957 241.646,-13.8581"/>
</g>
<!-- Node4 -->
<g id="node7" class="node"><title>Node4</title>
<a xlink:href="_inverse_dynamics_8c.html#accb6237d3631b28dae6469d0ee9a0c2f" target="_top" xlink:title="InverseDynamics">
<polygon fill="white" stroke="black" points="126,-28.5 126,-47.5 216,-47.5 216,-28.5 126,-28.5"/>
<text text-anchor="middle" x="171" y="-35.5" font-family="Helvetica,sans-Serif" font-size="10.00">InverseDynamics</text>
</a>
</g>
<!-- Node1&#45;&gt;Node4 -->
<g id="edge6" class="edge"><title>Node1&#45;&gt;Node4</title>
<path fill="none" stroke="midnightblue" d="M90.0669,-38C98.2822,-38 106.957,-38 115.443,-38"/>
<polygon fill="midnightblue" stroke="midnightblue" points="115.657,-41.5001 125.657,-38 115.657,-34.5001 115.657,-41.5001"/>
</g>
<!-- Node4&#45;&gt;Node2 -->
<g id="edge8" class="edge"><title>Node4&#45;&gt;Node2</title>
<path fill="none" stroke="midnightblue" d="M216.153,-46.389C226.532,-48.361 237.252,-50.3979 246.491,-52.1532"/>
<polygon fill="midnightblue" stroke="midnightblue" points="246.069,-55.6356 256.546,-54.0638 247.375,-48.7586 246.069,-55.6356"/>
</g>
<!-- Node4&#45;&gt;Node3 -->
<g id="edge10" class="edge"><title>Node4&#45;&gt;Node3</title>
<path fill="none" stroke="midnightblue" d="M206.135,-28.4423C217.744,-25.1916 230.627,-21.5844 241.898,-18.4286"/>
<polygon fill="midnightblue" stroke="midnightblue" points="243.027,-21.7472 251.713,-15.6804 241.139,-15.0064 243.027,-21.7472"/>
</g>
<!-- Node4&#45;&gt;Node4 -->
<g id="edge12" class="edge"><title>Node4&#45;&gt;Node4</title>
<path fill="none" stroke="midnightblue" d="M155.279,-47.7571C147.631,-56.5653 152.871,-66 171,-66 182.331,-66 188.627,-62.3146 189.888,-57.4"/>
<polygon fill="midnightblue" stroke="midnightblue" points="193.167,-56.1658 186.721,-47.7571 186.516,-58.3499 193.167,-56.1658"/>
</g>
</g>
</svg>
