<?xml version="1.0" encoding="UTF-8" standalone="no"?>
<!DOCTYPE svg PUBLIC "-//W3C//DTD SVG 1.1//EN"
 "http://www.w3.org/Graphics/SVG/1.1/DTD/svg11.dtd">
<!-- Generated by graphviz version 2.28.0 (20110507.0327)
 -->
<!-- Title: G Pages: 1 -->
<svg width="372pt" height="140pt"
 viewBox="0.00 0.00 372.48 140.00" xmlns="http://www.w3.org/2000/svg" xmlns:xlink="http://www.w3.org/1999/xlink">
<g id="graph1" class="graph" transform="scale(1 1) rotate(0) translate(4 136)">
<title>G</title>
<polygon fill="white" stroke="white" points="-4,5 -4,-136 369.478,-136 369.478,5 -4,5"/>
<!-- Node1 -->
<g id="node1" class="node"><title>Node1</title>
<polygon fill="#bfbfbf" stroke="black" points="147,-112.5 147,-131.5 281,-131.5 281,-112.5 147,-112.5"/>
<text text-anchor="middle" x="214" y="-119.5" font-family="Helvetica,sans-Serif" font-size="10.00">InverseSherpaKinematics.c</text>
</g>
<!-- Node2 -->
<g id="node3" class="node"><title>Node2</title>
<polygon fill="white" stroke="#bfbfbf" points="0,-0.5 0,-19.5 84,-19.5 84,-0.5 0,-0.5"/>
<text text-anchor="middle" x="42" y="-7.5" font-family="Helvetica,sans-Serif" font-size="10.00">gsl/gsl_vector.h</text>
</g>
<!-- Node1&#45;&gt;Node2 -->
<g id="edge2" class="edge"><title>Node1&#45;&gt;Node2</title>
<path fill="none" stroke="midnightblue" d="M146.81,-114.807C95.3801,-108.512 30.5358,-96.6698 14,-76 2.4312,-61.539 14.1899,-41.5753 25.8182,-27.6008"/>
<polygon fill="midnightblue" stroke="midnightblue" points="28.7634,-29.5589 32.8319,-19.7764 23.5509,-24.8866 28.7634,-29.5589"/>
</g>
<!-- Node3 -->
<g id="node5" class="node"><title>Node3</title>
<polygon fill="white" stroke="#bfbfbf" points="242,-0.5 242,-19.5 328,-19.5 328,-0.5 242,-0.5"/>
<text text-anchor="middle" x="285" y="-7.5" font-family="Helvetica,sans-Serif" font-size="10.00">gsl/gsl_matrix.h</text>
</g>
<!-- Node1&#45;&gt;Node3 -->
<g id="edge4" class="edge"><title>Node1&#45;&gt;Node3</title>
<path fill="none" stroke="midnightblue" d="M281.218,-117.486C310.31,-112.214 341.806,-100.647 360,-76 375.836,-54.5473 345.119,-35.2784 318.345,-23.3924"/>
<polygon fill="midnightblue" stroke="midnightblue" points="319.697,-20.1638 309.122,-19.5046 316.977,-26.6142 319.697,-20.1638"/>
</g>
<!-- Node4 -->
<g id="node7" class="node"><title>Node4</title>
<polygon fill="white" stroke="#bfbfbf" points="175.5,-56.5 175.5,-75.5 252.5,-75.5 252.5,-56.5 175.5,-56.5"/>
<text text-anchor="middle" x="214" y="-63.5" font-family="Helvetica,sans-Serif" font-size="10.00">gsl/gsl_blas.h</text>
</g>
<!-- Node1&#45;&gt;Node4 -->
<g id="edge6" class="edge"><title>Node1&#45;&gt;Node4</title>
<path fill="none" stroke="midnightblue" d="M214,-112.083C214,-105.006 214,-94.8611 214,-85.9865"/>
<polygon fill="midnightblue" stroke="midnightblue" points="217.5,-85.751 214,-75.7511 210.5,-85.7511 217.5,-85.751"/>
</g>
<!-- Node5 -->
<g id="node9" class="node"><title>Node5</title>
<polygon fill="white" stroke="#bfbfbf" points="271,-56.5 271,-75.5 351,-75.5 351,-56.5 271,-56.5"/>
<text text-anchor="middle" x="311" y="-63.5" font-family="Helvetica,sans-Serif" font-size="10.00">gsl/gsl_math.h</text>
</g>
<!-- Node1&#45;&gt;Node5 -->
<g id="edge8" class="edge"><title>Node1&#45;&gt;Node5</title>
<path fill="none" stroke="midnightblue" d="M229.585,-112.324C244.999,-103.743 268.812,-90.486 286.71,-80.5224"/>
<polygon fill="midnightblue" stroke="midnightblue" points="288.419,-83.5767 295.454,-75.6545 285.014,-77.4606 288.419,-83.5767"/>
</g>
<!-- Node6 -->
<g id="node11" class="node"><title>Node6</title>
<a xlink:href="_inverse_sherpa_kinematics_8h.html" target="_top" xlink:title="Inverse kinematics computations for Sherpa robot.">
<polygon fill="white" stroke="black" points="23,-56.5 23,-75.5 157,-75.5 157,-56.5 23,-56.5"/>
<text text-anchor="middle" x="90" y="-63.5" font-family="Helvetica,sans-Serif" font-size="10.00">InverseSherpaKinematics.h</text>
</a>
</g>
<!-- Node1&#45;&gt;Node6 -->
<g id="edge10" class="edge"><title>Node1&#45;&gt;Node6</title>
<path fill="none" stroke="midnightblue" d="M194.352,-112.444C174.035,-103.596 142.097,-89.6875 118.902,-79.5865"/>
<polygon fill="midnightblue" stroke="midnightblue" points="120.122,-76.3002 109.556,-75.5164 117.327,-82.7181 120.122,-76.3002"/>
</g>
<!-- Node6&#45;&gt;Node2 -->
<g id="edge12" class="edge"><title>Node6&#45;&gt;Node2</title>
<path fill="none" stroke="midnightblue" d="M82.0738,-56.083C75.1539,-48.2982 64.9346,-36.8015 56.548,-27.3665"/>
<polygon fill="midnightblue" stroke="midnightblue" points="59.0383,-24.8999 49.7787,-19.7511 53.8065,-29.5505 59.0383,-24.8999"/>
</g>
<!-- Node6&#45;&gt;Node3 -->
<g id="edge14" class="edge"><title>Node6&#45;&gt;Node3</title>
<path fill="none" stroke="midnightblue" d="M120.898,-56.4435C154.274,-47.2011 207.594,-32.4356 244.349,-22.2572"/>
<polygon fill="midnightblue" stroke="midnightblue" points="245.543,-25.5583 254.246,-19.5164 243.675,-18.8122 245.543,-25.5583"/>
</g>
</g>
</svg>
