<?xml version="1.0" encoding="UTF-8" standalone="no"?>
<!DOCTYPE svg PUBLIC "-//W3C//DTD SVG 1.1//EN"
 "http://www.w3.org/Graphics/SVG/1.1/DTD/svg11.dtd">
<!-- Generated by graphviz version 2.28.0 (20110507.0327)
 -->
<!-- Title: G Pages: 1 -->
<!--zoomable-->
<svg id="main" version="1.1" xmlns="http://www.w3.org/2000/svg" xmlns:xlink="http://www.w3.org/1999/xlink" xml:space="preserve" onload="init(evt)">
        <defs>
                <circle id="rim" cx="0" cy="0" r="7"/>
                <circle id="rim2" cx="0" cy="0" r="3.5"/>
                <g id="zoomPlus">
                        <use xlink:href="#rim" fill="#404040">
                                <set attributeName="fill" to="#808080" begin="zoomplus.mouseover" end="zoomplus.mouseout"/>
                        </use>
                        <path d="M-4,0h8M0,-4v8" fill="none" stroke="white" stroke-width="1.5" pointer-events="none"/>
                </g>
                <g id="zoomMin">
                        <use xlink:href="#rim" fill="#404040">
                                <set attributeName="fill" to="#808080" begin="zoomminus.mouseover" end="zoomminus.mouseout"/>
                        </use>
                        <path d="M-4,0h8" fill="none" stroke="white" stroke-width="1.5" pointer-events="none"/>
                </g>
                <g id="dirArrow">
                        <path fill="none" stroke="white" stroke-width="1.5" d="M0,-3.0v7 M-2.5,-0.5L0,-3.0L2.5,-0.5"/>
                </g>
               <g id="resetDef">
                       <use xlink:href="#rim2" fill="#404040">
                               <set attributeName="fill" to="#808080" begin="reset.mouseover" end="reset.mouseout"/>
                       </use>
               </g>
        </defs>

<script type="text/javascript">
var viewWidth = 602;
var viewHeight = 140;
var sectionId = 'dynsection-0';
</script>
<script xlink:href="svgpan.js"/>
<svg id="graph" class="graph">
<g id="viewport">
<title>G</title>
<polygon fill="white" stroke="white" points="-4,5 -4,-136 599.109,-136 599.109,5 -4,5"/>
<!-- Node1 -->
<g id="node1" class="node"><title>Node1</title>
<polygon fill="#bfbfbf" stroke="black" points="253.609,-112.5 253.609,-131.5 306.609,-131.5 306.609,-112.5 253.609,-112.5"/>
<text text-anchor="middle" x="280.109" y="-119.5" font-family="Helvetica,sans-Serif" font-size="10.00">InvDyn.c</text>
</g>
<!-- Node2 -->
<g id="node3" class="node"><title>Node2</title>
<polygon fill="white" stroke="#bfbfbf" points="100.109,-0.5 100.109,-19.5 184.109,-19.5 184.109,-0.5 100.109,-0.5"/>
<text text-anchor="middle" x="142.109" y="-7.5" font-family="Helvetica,sans-Serif" font-size="10.00">gsl/gsl_vector.h</text>
</g>
<!-- Node1&#45;&gt;Node2 -->
<g id="edge2" class="edge"><title>Node1&#45;&gt;Node2</title>
<path fill="none" stroke="midnightblue" d="M253.447,-120.784C191.08,-119.656 38.5792,-113.082 7.10912,-76 -20.1545,-43.8744 41.1294,-26.3799 89.8227,-17.8628"/>
<polygon fill="midnightblue" stroke="midnightblue" points="90.6921,-21.2666 99.9858,-16.1796 89.5483,-14.3607 90.6921,-21.2666"/>
</g>
<!-- Node3 -->
<g id="node5" class="node"><title>Node3</title>
<polygon fill="white" stroke="#bfbfbf" points="202.109,-0.5 202.109,-19.5 288.109,-19.5 288.109,-0.5 202.109,-0.5"/>
<text text-anchor="middle" x="245.109" y="-7.5" font-family="Helvetica,sans-Serif" font-size="10.00">gsl/gsl_matrix.h</text>
</g>
<!-- Node1&#45;&gt;Node3 -->
<g id="edge4" class="edge"><title>Node1&#45;&gt;Node3</title>
<path fill="none" stroke="midnightblue" d="M306.673,-117.217C349.602,-109.977 426.857,-91.6182 400.109,-56 387.7,-39.4754 338.134,-27.054 298.349,-19.4932"/>
<polygon fill="midnightblue" stroke="midnightblue" points="298.941,-16.0436 288.473,-17.6762 297.675,-22.928 298.941,-16.0436"/>
</g>
<!-- Node4 -->
<g id="node7" class="node"><title>Node4</title>
<polygon fill="white" stroke="#bfbfbf" points="448.609,-56.5 448.609,-75.5 525.609,-75.5 525.609,-56.5 448.609,-56.5"/>
<text text-anchor="middle" x="487.109" y="-63.5" font-family="Helvetica,sans-Serif" font-size="10.00">gsl/gsl_blas.h</text>
</g>
<!-- Node1&#45;&gt;Node4 -->
<g id="edge6" class="edge"><title>Node1&#45;&gt;Node4</title>
<path fill="none" stroke="midnightblue" d="M306.747,-114.051C341.65,-104.946 403.27,-88.871 444.645,-78.0777"/>
<polygon fill="midnightblue" stroke="midnightblue" points="445.647,-81.4334 454.44,-75.5225 443.88,-74.6601 445.647,-81.4334"/>
</g>
<!-- Node5 -->
<g id="node9" class="node"><title>Node5</title>
<a xlink:href="u_link_8h.html" target="_top" xlink:title="Link initialisation and declarations.">
<polygon fill="white" stroke="black" points="203.609,-56.5 203.609,-75.5 254.609,-75.5 254.609,-56.5 203.609,-56.5"/>
<text text-anchor="middle" x="229.109" y="-63.5" font-family="Helvetica,sans-Serif" font-size="10.00">uLINK.h</text>
</a>
</g>
<!-- Node1&#45;&gt;Node5 -->
<g id="edge8" class="edge"><title>Node1&#45;&gt;Node5</title>
<path fill="none" stroke="midnightblue" d="M271.688,-112.083C264.261,-104.22 253.257,-92.5688 244.297,-83.0813"/>
<polygon fill="midnightblue" stroke="midnightblue" points="246.785,-80.618 237.374,-75.7511 241.696,-85.4244 246.785,-80.618"/>
</g>
<!-- Node6 -->
<g id="node13" class="node"><title>Node6</title>
<a xlink:href="_forward_all_kinematics_8h.html" target="_top" xlink:title="ForwardAllKinematics.h">
<polygon fill="white" stroke="black" points="272.609,-56.5 272.609,-75.5 391.609,-75.5 391.609,-56.5 272.609,-56.5"/>
<text text-anchor="middle" x="332.109" y="-63.5" font-family="Helvetica,sans-Serif" font-size="10.00">ForwardAllKinematics.h</text>
</a>
</g>
<!-- Node1&#45;&gt;Node6 -->
<g id="edge14" class="edge"><title>Node1&#45;&gt;Node6</title>
<path fill="none" stroke="midnightblue" d="M288.696,-112.083C296.268,-104.22 307.487,-92.5688 316.623,-83.0813"/>
<polygon fill="midnightblue" stroke="midnightblue" points="319.267,-85.3821 323.682,-75.7511 314.225,-80.5266 319.267,-85.3821"/>
</g>
<!-- Node7 -->
<g id="node17" class="node"><title>Node7</title>
<a xlink:href="_inverse_dynamics_8h.html" target="_top" xlink:title="InverseDynamics.h">
<polygon fill="white" stroke="black" points="16.1091,-56.5 16.1091,-75.5 114.109,-75.5 114.109,-56.5 16.1091,-56.5"/>
<text text-anchor="middle" x="65.1091" y="-63.5" font-family="Helvetica,sans-Serif" font-size="10.00">InverseDynamics.h</text>
</a>
</g>
<!-- Node1&#45;&gt;Node7 -->
<g id="edge20" class="edge"><title>Node1&#45;&gt;Node7</title>
<path fill="none" stroke="midnightblue" d="M253.314,-114.27C217.076,-105.168 152.004,-88.8246 108.683,-77.9441"/>
<polygon fill="midnightblue" stroke="midnightblue" points="109.531,-74.5484 98.9792,-75.5069 107.825,-81.3375 109.531,-74.5484"/>
</g>
<!-- Node8 -->
<g id="node21" class="node"><title>Node8</title>
<a xlink:href="_inv_dyn_8h.html" target="_top" xlink:title="InvDyn.h">
<polygon fill="white" stroke="black" points="132.609,-56.5 132.609,-75.5 185.609,-75.5 185.609,-56.5 132.609,-56.5"/>
<text text-anchor="middle" x="159.109" y="-63.5" font-family="Helvetica,sans-Serif" font-size="10.00">InvDyn.h</text>
</a>
</g>
<!-- Node1&#45;&gt;Node8 -->
<g id="edge26" class="edge"><title>Node1&#45;&gt;Node8</title>
<path fill="none" stroke="midnightblue" d="M260.936,-112.444C241.2,-103.636 210.224,-89.8116 187.616,-79.722"/>
<polygon fill="midnightblue" stroke="midnightblue" points="188.751,-76.3957 178.192,-75.5164 185.898,-82.788 188.751,-76.3957"/>
</g>
<!-- Node9 -->
<g id="node25" class="node"><title>Node9</title>
<a xlink:href="_setup_8h.html" target="_top" xlink:title="Contain setup of simulations.">
<polygon fill="white" stroke="black" points="544.109,-56.5 544.109,-75.5 594.109,-75.5 594.109,-56.5 544.109,-56.5"/>
<text text-anchor="middle" x="569.109" y="-63.5" font-family="Helvetica,sans-Serif" font-size="10.00">Setup.h</text>
</a>
</g>
<!-- Node1&#45;&gt;Node9 -->
<g id="edge32" class="edge"><title>Node1&#45;&gt;Node9</title>
<path fill="none" stroke="midnightblue" d="M306.936,-116.938C353.413,-109.747 451.827,-93.8406 534.109,-76 534.209,-75.9784 534.309,-75.9567 534.408,-75.9349"/>
<polygon fill="midnightblue" stroke="midnightblue" points="534.982,-79.395 543.929,-73.7198 533.396,-72.5771 534.982,-79.395"/>
</g>
<!-- Node5&#45;&gt;Node2 -->
<g id="edge10" class="edge"><title>Node5&#45;&gt;Node2</title>
<path fill="none" stroke="midnightblue" d="M215.131,-56.324C201.559,-47.9002 180.729,-34.9709 164.784,-25.0741"/>
<polygon fill="midnightblue" stroke="midnightblue" points="166.395,-21.9544 156.052,-19.6545 162.703,-27.9019 166.395,-21.9544"/>
</g>
<!-- Node5&#45;&gt;Node3 -->
<g id="edge12" class="edge"><title>Node5&#45;&gt;Node3</title>
<path fill="none" stroke="midnightblue" d="M231.751,-56.083C233.895,-48.8486 236.988,-38.4087 239.658,-29.3968"/>
<polygon fill="midnightblue" stroke="midnightblue" points="243.031,-30.3334 242.516,-19.7511 236.319,-28.3447 243.031,-30.3334"/>
</g>
<!-- Node6&#45;&gt;Node2 -->
<g id="edge16" class="edge"><title>Node6&#45;&gt;Node2</title>
<path fill="none" stroke="midnightblue" d="M302.003,-56.4435C269.483,-47.2011 217.531,-32.4356 181.718,-22.2572"/>
<polygon fill="midnightblue" stroke="midnightblue" points="182.65,-18.8837 172.074,-19.5164 180.737,-25.617 182.65,-18.8837"/>
</g>
<!-- Node6&#45;&gt;Node3 -->
<g id="edge18" class="edge"><title>Node6&#45;&gt;Node3</title>
<path fill="none" stroke="midnightblue" d="M318.131,-56.324C304.559,-47.9002 283.729,-34.9709 267.784,-25.0741"/>
<polygon fill="midnightblue" stroke="midnightblue" points="269.395,-21.9544 259.052,-19.6545 265.703,-27.9019 269.395,-21.9544"/>
</g>
<!-- Node7&#45;&gt;Node2 -->
<g id="edge22" class="edge"><title>Node7&#45;&gt;Node2</title>
<path fill="none" stroke="midnightblue" d="M77.4805,-56.324C89.2676,-48.0577 107.241,-35.4527 121.245,-25.6322"/>
<polygon fill="midnightblue" stroke="midnightblue" points="123.591,-28.2619 129.768,-19.6545 119.571,-22.5307 123.591,-28.2619"/>
</g>
<!-- Node7&#45;&gt;Node3 -->
<g id="edge24" class="edge"><title>Node7&#45;&gt;Node3</title>
<path fill="none" stroke="midnightblue" d="M93.6307,-56.4435C124.175,-47.2801 172.817,-32.6876 206.712,-22.5192"/>
<polygon fill="midnightblue" stroke="midnightblue" points="208.148,-25.7424 216.721,-19.5164 206.137,-19.0376 208.148,-25.7424"/>
</g>
<!-- Node8&#45;&gt;Node2 -->
<g id="edge28" class="edge"><title>Node8&#45;&gt;Node2</title>
<path fill="none" stroke="midnightblue" d="M156.302,-56.083C154.024,-48.8486 150.738,-38.4087 147.901,-29.3968"/>
<polygon fill="midnightblue" stroke="midnightblue" points="151.205,-28.2385 144.864,-19.7511 144.529,-30.3406 151.205,-28.2385"/>
</g>
<!-- Node8&#45;&gt;Node3 -->
<g id="edge30" class="edge"><title>Node8&#45;&gt;Node3</title>
<path fill="none" stroke="midnightblue" d="M172.927,-56.324C186.342,-47.9002 206.933,-34.9709 222.695,-25.0741"/>
<polygon fill="midnightblue" stroke="midnightblue" points="224.718,-27.9364 231.326,-19.6545 220.996,-22.0081 224.718,-27.9364"/>
</g>
</g>
</svg>
        <g id="navigator" transform="translate(0 0)" fill="#404254">
                <rect fill="#f2f5e9" fill-opacity="0.5" stroke="#606060" stroke-width=".5" x="0" y="0" width="60" height="60"/>
                <use id="zoomplus" xlink:href="#zoomPlus" x="17" y="9" onmousedown="handleZoom(evt,'in')"/>
                <use id="zoomminus" xlink:href="#zoomMin" x="42" y="9" onmousedown="handleZoom(evt,'out')"/>
                <use id="reset" xlink:href="#resetDef" x="30" y="36" onmousedown="handleReset()"/>
                <g id="arrowUp" xlink:href="#dirArrow" transform="translate(30 24)" onmousedown="handlePan(0,-1)">
                  <use xlink:href="#rim" fill="#404040">
                        <set attributeName="fill" to="#808080" begin="arrowUp.mouseover" end="arrowUp.mouseout"/>
                  </use>
                  <path fill="none" stroke="white" stroke-width="1.5" d="M0,-3.0v7 M-2.5,-0.5L0,-3.0L2.5,-0.5"/>
                </g>
                <g id="arrowRight" xlink:href="#dirArrow" transform="rotate(90) translate(36 -43)" onmousedown="handlePan(1,0)">
                  <use xlink:href="#rim" fill="#404040">
                        <set attributeName="fill" to="#808080" begin="arrowRight.mouseover" end="arrowRight.mouseout"/>
                  </use>
                  <path fill="none" stroke="white" stroke-width="1.5" d="M0,-3.0v7 M-2.5,-0.5L0,-3.0L2.5,-0.5"/>
                </g>
                <g id="arrowDown" xlink:href="#dirArrow" transform="rotate(180) translate(-30 -48)" onmousedown="handlePan(0,1)">
                  <use xlink:href="#rim" fill="#404040">
                        <set attributeName="fill" to="#808080" begin="arrowDown.mouseover" end="arrowDown.mouseout"/>
                  </use>
                  <path fill="none" stroke="white" stroke-width="1.5" d="M0,-3.0v7 M-2.5,-0.5L0,-3.0L2.5,-0.5"/>
                </g>
                <g id="arrowLeft" xlink:href="#dirArrow" transform="rotate(270) translate(-36 17)" onmousedown="handlePan(-1,0)">
                  <use xlink:href="#rim" fill="#404040">
                        <set attributeName="fill" to="#808080" begin="arrowLeft.mouseover" end="arrowLeft.mouseout"/>
                  </use>
                  <path fill="none" stroke="white" stroke-width="1.5" d="M0,-3.0v7 M-2.5,-0.5L0,-3.0L2.5,-0.5"/>
                </g>
        </g>
</svg>
