<?xml version="1.0" encoding="UTF-8" standalone="no"?>
<!DOCTYPE svg PUBLIC "-//W3C//DTD SVG 1.1//EN"
 "http://www.w3.org/Graphics/SVG/1.1/DTD/svg11.dtd">
<!-- Generated by graphviz version 2.28.0 (20110507.0327)
 -->
<!-- Title: G Pages: 1 -->
<svg width="386pt" height="46pt"
 viewBox="0.00 0.00 386.00 46.00" xmlns="http://www.w3.org/2000/svg" xmlns:xlink="http://www.w3.org/1999/xlink">
<g id="graph1" class="graph" transform="scale(1 1) rotate(0) translate(4 42)">
<title>G</title>
<polygon fill="white" stroke="white" points="-4,5 -4,-42 383,-42 383,5 -4,5"/>
<!-- Node1 -->
<g id="node1" class="node"><title>Node1</title>
<polygon fill="#bfbfbf" stroke="black" points="0,-0.5 0,-19.5 90,-19.5 90,-0.5 0,-0.5"/>
<text text-anchor="middle" x="45" y="-7.5" font-family="Helvetica,sans-Serif" font-size="10.00">InverseDynamics</text>
</g>
<!-- Node1&#45;&gt;Node1 -->
<g id="edge8" class="edge"><title>Node1&#45;&gt;Node1</title>
<path fill="none" stroke="midnightblue" d="M25.7417,-29.4C27.0278,-34.3146 33.4473,-38 45,-38 63.4844,-38 68.8275,-28.5653 61.0294,-19.7571"/>
<polygon fill="midnightblue" stroke="midnightblue" points="29.1142,-30.3509 28.9706,-19.7571 22.4765,-28.1283 29.1142,-30.3509"/>
</g>
<!-- Node2 -->
<g id="node3" class="node"><title>Node2</title>
<a xlink:href="_inv_dyn_8h.html#a30f653a126a6f95e6c9b01a3c5997ff4" target="_top" xlink:title="InvDyn">
<polygon fill="white" stroke="black" points="126.5,-0.5 126.5,-19.5 171.5,-19.5 171.5,-0.5 126.5,-0.5"/>
<text text-anchor="middle" x="149" y="-7.5" font-family="Helvetica,sans-Serif" font-size="10.00">InvDyn</text>
</a>
</g>
<!-- Node1&#45;&gt;Node2 -->
<g id="edge2" class="edge"><title>Node1&#45;&gt;Node2</title>
<path fill="none" stroke="midnightblue" d="M100.246,-10C109.557,-10 118.723,-10 126.496,-10"/>
<polygon fill="midnightblue" stroke="midnightblue" points="100.145,-6.5001 90.1454,-10 100.145,-13.5001 100.145,-6.5001"/>
</g>
<!-- Node3 -->
<g id="node5" class="node"><title>Node3</title>
<a xlink:href="_forward_dynamics_8h.html#a23609ae4e05df387941c4bbc7bfc26fe" target="_top" xlink:title="ForwardDynamics">
<polygon fill="white" stroke="black" points="208.5,-0.5 208.5,-19.5 303.5,-19.5 303.5,-0.5 208.5,-0.5"/>
<text text-anchor="middle" x="256" y="-7.5" font-family="Helvetica,sans-Serif" font-size="10.00">ForwardDynamics</text>
</a>
</g>
<!-- Node2&#45;&gt;Node3 -->
<g id="edge4" class="edge"><title>Node2&#45;&gt;Node3</title>
<path fill="none" stroke="midnightblue" d="M181.636,-10C190.063,-10 199.347,-10 208.395,-10"/>
<polygon fill="midnightblue" stroke="midnightblue" points="181.502,-6.5001 171.502,-10 181.502,-13.5001 181.502,-6.5001"/>
</g>
<!-- Node4 -->
<g id="node7" class="node"><title>Node4</title>
<a xlink:href="main_8c.html#a0ddf1224851353fc92bfbff6f499fa97" target="_top" xlink:title="main">
<polygon fill="white" stroke="black" points="340,-0.5 340,-19.5 378,-19.5 378,-0.5 340,-0.5"/>
<text text-anchor="middle" x="359" y="-7.5" font-family="Helvetica,sans-Serif" font-size="10.00">main</text>
</a>
</g>
<!-- Node3&#45;&gt;Node4 -->
<g id="edge6" class="edge"><title>Node3&#45;&gt;Node4</title>
<path fill="none" stroke="midnightblue" d="M313.879,-10C323.25,-10 332.323,-10 339.779,-10"/>
<polygon fill="midnightblue" stroke="midnightblue" points="313.657,-6.5001 303.657,-10 313.657,-13.5001 313.657,-6.5001"/>
</g>
</g>
</svg>
