<?xml version="1.0" encoding="UTF-8" standalone="no"?>
<!DOCTYPE svg PUBLIC "-//W3C//DTD SVG 1.1//EN"
 "http://www.w3.org/Graphics/SVG/1.1/DTD/svg11.dtd">
<!-- Generated by graphviz version 2.28.0 (20110507.0327)
 -->
<!-- Title: G Pages: 1 -->
<svg width="451pt" height="140pt"
 viewBox="0.00 0.00 450.67 140.00" xmlns="http://www.w3.org/2000/svg" xmlns:xlink="http://www.w3.org/1999/xlink">
<g id="graph1" class="graph" transform="scale(1 1) rotate(0) translate(4 136)">
<title>G</title>
<polygon fill="white" stroke="white" points="-4,5 -4,-136 447.673,-136 447.673,5 -4,5"/>
<!-- Node1 -->
<g id="node1" class="node"><title>Node1</title>
<polygon fill="#bfbfbf" stroke="black" points="172.673,-112.5 172.673,-131.5 270.673,-131.5 270.673,-112.5 172.673,-112.5"/>
<text text-anchor="middle" x="221.673" y="-119.5" font-family="Helvetica,sans-Serif" font-size="10.00">InverseDynamics.c</text>
</g>
<!-- Node2 -->
<g id="node3" class="node"><title>Node2</title>
<polygon fill="white" stroke="#bfbfbf" points="95.6734,-0.5 95.6734,-19.5 179.673,-19.5 179.673,-0.5 95.6734,-0.5"/>
<text text-anchor="middle" x="137.673" y="-7.5" font-family="Helvetica,sans-Serif" font-size="10.00">gsl/gsl_vector.h</text>
</g>
<!-- Node1&#45;&gt;Node2 -->
<g id="edge2" class="edge"><title>Node1&#45;&gt;Node2</title>
<path fill="none" stroke="midnightblue" d="M172.606,-117.738C115.735,-112.816 27.1722,-101.233 6.67344,-76 -18.9042,-44.5146 38.4744,-27.0113 85.2223,-18.3014"/>
<polygon fill="midnightblue" stroke="midnightblue" points="86.0636,-21.7072 95.304,-16.5242 84.8482,-14.8135 86.0636,-21.7072"/>
</g>
<!-- Node3 -->
<g id="node5" class="node"><title>Node3</title>
<polygon fill="white" stroke="#bfbfbf" points="197.673,-0.5 197.673,-19.5 283.673,-19.5 283.673,-0.5 197.673,-0.5"/>
<text text-anchor="middle" x="240.673" y="-7.5" font-family="Helvetica,sans-Serif" font-size="10.00">gsl/gsl_matrix.h</text>
</g>
<!-- Node1&#45;&gt;Node3 -->
<g id="edge4" class="edge"><title>Node1&#45;&gt;Node3</title>
<path fill="none" stroke="midnightblue" d="M264.063,-112.451C284.254,-106.022 306.586,-94.933 318.673,-76 333.098,-53.4063 302.862,-34.7188 275.935,-23.2693"/>
<polygon fill="midnightblue" stroke="midnightblue" points="277.21,-20.0099 266.627,-19.5267 274.599,-26.5046 277.21,-20.0099"/>
</g>
<!-- Node4 -->
<g id="node7" class="node"><title>Node4</title>
<polygon fill="white" stroke="#bfbfbf" points="366.173,-56.5 366.173,-75.5 443.173,-75.5 443.173,-56.5 366.173,-56.5"/>
<text text-anchor="middle" x="404.673" y="-63.5" font-family="Helvetica,sans-Serif" font-size="10.00">gsl/gsl_blas.h</text>
</g>
<!-- Node1&#45;&gt;Node4 -->
<g id="edge6" class="edge"><title>Node1&#45;&gt;Node4</title>
<path fill="none" stroke="midnightblue" d="M250.67,-112.444C281.858,-103.241 331.603,-88.5617 366.081,-78.3879"/>
<polygon fill="midnightblue" stroke="midnightblue" points="367.212,-81.7036 375.812,-75.5164 365.23,-74.9898 367.212,-81.7036"/>
</g>
<!-- Node5 -->
<g id="node9" class="node"><title>Node5</title>
<a xlink:href="u_link_8h.html" target="_top" xlink:title="Link initialisation and declarations.">
<polygon fill="white" stroke="black" points="132.173,-56.5 132.173,-75.5 183.173,-75.5 183.173,-56.5 132.173,-56.5"/>
<text text-anchor="middle" x="157.673" y="-63.5" font-family="Helvetica,sans-Serif" font-size="10.00">uLINK.h</text>
</a>
</g>
<!-- Node1&#45;&gt;Node5 -->
<g id="edge8" class="edge"><title>Node1&#45;&gt;Node5</title>
<path fill="none" stroke="midnightblue" d="M211.391,-112.324C201.837,-104.263 187.394,-92.0765 175.889,-82.3695"/>
<polygon fill="midnightblue" stroke="midnightblue" points="178.043,-79.6076 168.143,-75.8339 173.529,-84.9577 178.043,-79.6076"/>
</g>
<!-- Node6 -->
<g id="node13" class="node"><title>Node6</title>
<a xlink:href="_hat_8h.html" target="_top" xlink:title="Hat.h">
<polygon fill="white" stroke="black" points="201.673,-56.5 201.673,-75.5 241.673,-75.5 241.673,-56.5 201.673,-56.5"/>
<text text-anchor="middle" x="221.673" y="-63.5" font-family="Helvetica,sans-Serif" font-size="10.00">Hat.h</text>
</a>
</g>
<!-- Node1&#45;&gt;Node6 -->
<g id="edge14" class="edge"><title>Node1&#45;&gt;Node6</title>
<path fill="none" stroke="midnightblue" d="M221.673,-112.083C221.673,-105.006 221.673,-94.8611 221.673,-85.9865"/>
<polygon fill="midnightblue" stroke="midnightblue" points="225.174,-85.751 221.673,-75.7511 218.174,-85.7511 225.174,-85.751"/>
</g>
<!-- Node7 -->
<g id="node17" class="node"><title>Node7</title>
<a xlink:href="_cross_8h.html" target="_top" xlink:title="Cross.h">
<polygon fill="white" stroke="black" points="259.673,-56.5 259.673,-75.5 309.673,-75.5 309.673,-56.5 259.673,-56.5"/>
<text text-anchor="middle" x="284.673" y="-63.5" font-family="Helvetica,sans-Serif" font-size="10.00">Cross.h</text>
</a>
</g>
<!-- Node1&#45;&gt;Node7 -->
<g id="edge20" class="edge"><title>Node1&#45;&gt;Node7</title>
<path fill="none" stroke="midnightblue" d="M231.795,-112.324C241.2,-104.263 255.418,-92.0765 266.742,-82.3695"/>
<polygon fill="midnightblue" stroke="midnightblue" points="269.052,-84.9993 274.367,-75.8339 264.497,-79.6844 269.052,-84.9993"/>
</g>
<!-- Node8 -->
<g id="node21" class="node"><title>Node8</title>
<a xlink:href="_inverse_dynamics_8h.html" target="_top" xlink:title="InverseDynamics.h">
<polygon fill="white" stroke="black" points="15.6734,-56.5 15.6734,-75.5 113.673,-75.5 113.673,-56.5 15.6734,-56.5"/>
<text text-anchor="middle" x="64.6734" y="-63.5" font-family="Helvetica,sans-Serif" font-size="10.00">InverseDynamics.h</text>
</a>
</g>
<!-- Node1&#45;&gt;Node8 -->
<g id="edge26" class="edge"><title>Node1&#45;&gt;Node8</title>
<path fill="none" stroke="midnightblue" d="M196.796,-112.444C170.384,-103.359 128.458,-88.9388 98.9318,-78.7831"/>
<polygon fill="midnightblue" stroke="midnightblue" points="100.029,-75.4593 89.4342,-75.5164 97.7521,-82.0787 100.029,-75.4593"/>
</g>
<!-- Node5&#45;&gt;Node2 -->
<g id="edge10" class="edge"><title>Node5&#45;&gt;Node2</title>
<path fill="none" stroke="midnightblue" d="M154.371,-56.083C151.691,-48.8486 147.825,-38.4087 144.487,-29.3968"/>
<polygon fill="midnightblue" stroke="midnightblue" points="147.67,-27.9129 140.915,-19.7511 141.106,-30.3442 147.67,-27.9129"/>
</g>
<!-- Node5&#45;&gt;Node3 -->
<g id="edge12" class="edge"><title>Node5&#45;&gt;Node3</title>
<path fill="none" stroke="midnightblue" d="M171.009,-56.324C183.835,-47.979 203.458,-35.2122 218.613,-25.3524"/>
<polygon fill="midnightblue" stroke="midnightblue" points="220.898,-28.0417 227.371,-19.6545 217.08,-22.1742 220.898,-28.0417"/>
</g>
<!-- Node6&#45;&gt;Node2 -->
<g id="edge16" class="edge"><title>Node6&#45;&gt;Node2</title>
<path fill="none" stroke="midnightblue" d="M208.177,-56.324C195.074,-47.9002 174.962,-34.9709 159.567,-25.0741"/>
<polygon fill="midnightblue" stroke="midnightblue" points="161.44,-22.118 151.136,-19.6545 157.655,-28.0063 161.44,-22.118"/>
</g>
<!-- Node6&#45;&gt;Node3 -->
<g id="edge18" class="edge"><title>Node6&#45;&gt;Node3</title>
<path fill="none" stroke="midnightblue" d="M224.811,-56.083C227.356,-48.8486 231.03,-38.4087 234.201,-29.3968"/>
<polygon fill="midnightblue" stroke="midnightblue" points="237.577,-30.3459 237.594,-19.7511 230.974,-28.0225 237.577,-30.3459"/>
</g>
<!-- Node7&#45;&gt;Node2 -->
<g id="edge22" class="edge"><title>Node7&#45;&gt;Node2</title>
<path fill="none" stroke="midnightblue" d="M261.381,-56.4435C236.866,-47.4381 198.077,-33.1891 170.474,-23.049"/>
<polygon fill="midnightblue" stroke="midnightblue" points="171.451,-19.6793 160.857,-19.5164 169.037,-26.25 171.451,-19.6793"/>
</g>
<!-- Node7&#45;&gt;Node3 -->
<g id="edge24" class="edge"><title>Node7&#45;&gt;Node3</title>
<path fill="none" stroke="midnightblue" d="M277.408,-56.083C271.129,-48.3768 261.886,-37.0333 254.243,-27.6531"/>
<polygon fill="midnightblue" stroke="midnightblue" points="256.834,-25.2926 247.804,-19.7511 251.407,-29.7143 256.834,-25.2926"/>
</g>
<!-- Node8&#45;&gt;Node2 -->
<g id="edge28" class="edge"><title>Node8&#45;&gt;Node2</title>
<path fill="none" stroke="midnightblue" d="M76.4022,-56.324C87.5108,-48.1066 104.416,-35.6017 117.657,-25.8069"/>
<polygon fill="midnightblue" stroke="midnightblue" points="119.773,-28.5948 125.731,-19.8339 115.61,-22.9671 119.773,-28.5948"/>
</g>
<!-- Node8&#45;&gt;Node3 -->
<g id="edge30" class="edge"><title>Node8&#45;&gt;Node3</title>
<path fill="none" stroke="midnightblue" d="M92.5612,-56.4435C122.427,-47.2801 169.988,-32.6876 203.129,-22.5192"/>
<polygon fill="midnightblue" stroke="midnightblue" points="204.383,-25.7958 212.916,-19.5164 202.329,-19.1037 204.383,-25.7958"/>
</g>
</g>
</svg>
