<?xml version="1.0" encoding="UTF-8" standalone="no"?>
<!DOCTYPE svg PUBLIC "-//W3C//DTD SVG 1.1//EN"
 "http://www.w3.org/Graphics/SVG/1.1/DTD/svg11.dtd">
<!-- Generated by graphviz version 2.28.0 (20110507.0327)
 -->
<!-- Title: G Pages: 1 -->
<svg width="268pt" height="180pt"
 viewBox="0.00 0.00 268.00 180.00" xmlns="http://www.w3.org/2000/svg" xmlns:xlink="http://www.w3.org/1999/xlink">
<g id="graph1" class="graph" transform="scale(1 1) rotate(0) translate(4 176)">
<title>G</title>
<polygon fill="white" stroke="white" points="-4,5 -4,-176 265,-176 265,5 -4,5"/>
<!-- Node1 -->
<g id="node1" class="node"><title>Node1</title>
<polygon fill="#bfbfbf" stroke="black" points="0,-76.5 0,-95.5 126,-95.5 126,-76.5 0,-76.5"/>
<text text-anchor="middle" x="63" y="-83.5" font-family="Helvetica,sans-Serif" font-size="10.00">InverseSherpaKinematics</text>
</g>
<!-- Node2 -->
<g id="node3" class="node"><title>Node2</title>
<a xlink:href="main_8c.html#a0ddf1224851353fc92bfbff6f499fa97" target="_top" xlink:title="main">
<polygon fill="white" stroke="black" points="192,-152.5 192,-171.5 230,-171.5 230,-152.5 192,-152.5"/>
<text text-anchor="middle" x="211" y="-159.5" font-family="Helvetica,sans-Serif" font-size="10.00">main</text>
</a>
</g>
<!-- Node1&#45;&gt;Node2 -->
<g id="edge2" class="edge"><title>Node1&#45;&gt;Node2</title>
<path fill="none" stroke="midnightblue" d="M87.4252,-100.964C106.946,-113.105 135.708,-130.239 162,-143 171.676,-147.696 182.827,-152.164 191.945,-155.587"/>
<polygon fill="midnightblue" stroke="midnightblue" points="89.2228,-97.9605 78.8922,-95.609 85.5017,-103.889 89.2228,-97.9605"/>
</g>
<!-- Node3 -->
<g id="node5" class="node"><title>Node3</title>
<a xlink:href="_one_foot_trajectory_8h.html#ad00ff70b10b43f9cd34fbf351c5efa97" target="_top" xlink:title="OneFootTrajectory">
<polygon fill="white" stroke="black" points="162.5,-114.5 162.5,-133.5 259.5,-133.5 259.5,-114.5 162.5,-114.5"/>
<text text-anchor="middle" x="211" y="-121.5" font-family="Helvetica,sans-Serif" font-size="10.00">OneFootTrajectory</text>
</a>
</g>
<!-- Node1&#45;&gt;Node3 -->
<g id="edge4" class="edge"><title>Node1&#45;&gt;Node3</title>
<path fill="none" stroke="midnightblue" d="M110.536,-98.1121C130.87,-103.404 154.371,-109.521 173.423,-114.48"/>
<polygon fill="midnightblue" stroke="midnightblue" points="111.401,-94.7207 100.842,-95.589 109.638,-101.495 111.401,-94.7207"/>
</g>
<!-- Node4 -->
<g id="node7" class="node"><title>Node4</title>
<a xlink:href="_static_trajectory_8h.html#a294e520eccee504f360b4cb4f3ffcdb2" target="_top" xlink:title="PDStaticTrajectory">
<polygon fill="white" stroke="black" points="162,-76.5 162,-95.5 260,-95.5 260,-76.5 162,-76.5"/>
<text text-anchor="middle" x="211" y="-83.5" font-family="Helvetica,sans-Serif" font-size="10.00">PDStaticTrajectory</text>
</a>
</g>
<!-- Node1&#45;&gt;Node4 -->
<g id="edge6" class="edge"><title>Node1&#45;&gt;Node4</title>
<path fill="none" stroke="midnightblue" d="M136.474,-86C145.136,-86 153.807,-86 162,-86"/>
<polygon fill="midnightblue" stroke="midnightblue" points="136.341,-82.5001 126.341,-86 136.341,-89.5001 136.341,-82.5001"/>
</g>
<!-- Node5 -->
<g id="node9" class="node"><title>Node5</title>
<a xlink:href="_static_trajectory_8h.html#aa7d2b8af0fe7e8bf25dab47d2494c807" target="_top" xlink:title="PStaticTrajectory">
<polygon fill="white" stroke="black" points="165,-38.5 165,-57.5 257,-57.5 257,-38.5 165,-38.5"/>
<text text-anchor="middle" x="211" y="-45.5" font-family="Helvetica,sans-Serif" font-size="10.00">PStaticTrajectory</text>
</a>
</g>
<!-- Node1&#45;&gt;Node5 -->
<g id="edge8" class="edge"><title>Node1&#45;&gt;Node5</title>
<path fill="none" stroke="midnightblue" d="M110.536,-73.8879C130.87,-68.5956 154.371,-62.4787 173.423,-57.5201"/>
<polygon fill="midnightblue" stroke="midnightblue" points="109.638,-70.5049 100.842,-76.411 111.401,-77.2793 109.638,-70.5049"/>
</g>
<!-- Node6 -->
<g id="node11" class="node"><title>Node6</title>
<a xlink:href="_trajectory_8h.html#a181868475ae7b87eeb53f62df1a8272e" target="_top" xlink:title="Trajectory">
<polygon fill="white" stroke="black" points="181.5,-0.5 181.5,-19.5 240.5,-19.5 240.5,-0.5 181.5,-0.5"/>
<text text-anchor="middle" x="211" y="-7.5" font-family="Helvetica,sans-Serif" font-size="10.00">Trajectory</text>
</a>
</g>
<!-- Node1&#45;&gt;Node6 -->
<g id="edge10" class="edge"><title>Node1&#45;&gt;Node6</title>
<path fill="none" stroke="midnightblue" d="M87.4252,-71.0356C106.946,-58.8946 135.708,-41.7609 162,-29 168.934,-25.6345 176.626,-22.386 183.785,-19.5557"/>
<polygon fill="midnightblue" stroke="midnightblue" points="85.5017,-68.1105 78.8922,-76.391 89.2228,-74.0395 85.5017,-68.1105"/>
</g>
</g>
</svg>
