<?xml version="1.0" encoding="UTF-8" standalone="no"?>
<!DOCTYPE svg PUBLIC "-//W3C//DTD SVG 1.1//EN"
 "http://www.w3.org/Graphics/SVG/1.1/DTD/svg11.dtd">
<!-- Generated by graphviz version 2.28.0 (20110507.0327)
 -->
<!-- Title: G Pages: 1 -->
<svg width="176pt" height="66pt"
 viewBox="0.00 0.00 176.00 66.00" xmlns="http://www.w3.org/2000/svg" xmlns:xlink="http://www.w3.org/1999/xlink">
<g id="graph1" class="graph" transform="scale(1 1) rotate(0) translate(4 62)">
<title>G</title>
<polygon fill="white" stroke="white" points="-4,5 -4,-62 173,-62 173,5 -4,5"/>
<!-- Node1 -->
<g id="node1" class="node"><title>Node1</title>
<polygon fill="#bfbfbf" stroke="black" points="0,-19.5 0,-38.5 90,-38.5 90,-19.5 0,-19.5"/>
<text text-anchor="middle" x="45" y="-26.5" font-family="Helvetica,sans-Serif" font-size="10.00">InverseDynamics</text>
</g>
<!-- Node1&#45;&gt;Node1 -->
<g id="edge6" class="edge"><title>Node1&#45;&gt;Node1</title>
<path fill="none" stroke="midnightblue" d="M29.2788,-38.7571C21.6307,-47.5653 26.8711,-57 45,-57 56.3306,-57 62.6266,-53.3146 63.888,-48.4"/>
<polygon fill="midnightblue" stroke="midnightblue" points="67.1666,-47.1658 60.7212,-38.7571 60.5161,-49.3499 67.1666,-47.1658"/>
</g>
<!-- Node2 -->
<g id="node3" class="node"><title>Node2</title>
<a xlink:href="_hat_8c.html#a99b0b25e44a922db29da555aa182bb41" target="_top" xlink:title="Hat">
<polygon fill="white" stroke="black" points="131,-38.5 131,-57.5 163,-57.5 163,-38.5 131,-38.5"/>
<text text-anchor="middle" x="147" y="-45.5" font-family="Helvetica,sans-Serif" font-size="10.00">Hat</text>
</a>
</g>
<!-- Node1&#45;&gt;Node2 -->
<g id="edge2" class="edge"><title>Node1&#45;&gt;Node2</title>
<path fill="none" stroke="midnightblue" d="M90.1525,-37.389C100.532,-39.361 111.252,-41.3979 120.491,-43.1532"/>
<polygon fill="midnightblue" stroke="midnightblue" points="120.069,-46.6356 130.546,-45.0638 121.375,-39.7586 120.069,-46.6356"/>
</g>
<!-- Node3 -->
<g id="node5" class="node"><title>Node3</title>
<a xlink:href="_cross_8c.html#ae694d97c46b1d90555b4e9a1809baeb3" target="_top" xlink:title="Cross">
<polygon fill="white" stroke="black" points="126,-0.5 126,-19.5 168,-19.5 168,-0.5 126,-0.5"/>
<text text-anchor="middle" x="147" y="-7.5" font-family="Helvetica,sans-Serif" font-size="10.00">Cross</text>
</a>
</g>
<!-- Node1&#45;&gt;Node3 -->
<g id="edge4" class="edge"><title>Node1&#45;&gt;Node3</title>
<path fill="none" stroke="midnightblue" d="M90.1525,-20.611C98.8109,-18.9659 107.706,-17.2758 115.781,-15.7415"/>
<polygon fill="midnightblue" stroke="midnightblue" points="116.664,-19.1365 125.835,-13.8314 115.357,-12.2596 116.664,-19.1365"/>
</g>
</g>
</svg>
