<?xml version="1.0" encoding="UTF-8" standalone="no"?>
<!DOCTYPE svg PUBLIC "-//W3C//DTD SVG 1.1//EN"
 "http://www.w3.org/Graphics/SVG/1.1/DTD/svg11.dtd">
<!-- Generated by graphviz version 2.28.0 (20110507.0327)
 -->
<!-- Title: G Pages: 1 -->
<svg width="276pt" height="218pt"
 viewBox="0.00 0.00 276.00 218.00" xmlns="http://www.w3.org/2000/svg" xmlns:xlink="http://www.w3.org/1999/xlink">
<g id="graph1" class="graph" transform="scale(1 1) rotate(0) translate(4 214)">
<title>G</title>
<polygon fill="white" stroke="white" points="-4,5 -4,-214 273,-214 273,5 -4,5"/>
<!-- Node1 -->
<g id="node1" class="node"><title>Node1</title>
<polygon fill="#bfbfbf" stroke="black" points="0.5,-95.5 0.5,-114.5 77.5,-114.5 77.5,-95.5 0.5,-95.5"/>
<text text-anchor="middle" x="39" y="-102.5" font-family="Helvetica,sans-Serif" font-size="10.00">MatPseudoInv</text>
</g>
<!-- Node2 -->
<g id="node3" class="node"><title>Node2</title>
<a xlink:href="_mat_8c.html#ad6300385b22dac30b83c64ea70952e08" target="_top" xlink:title="MatTrans">
<polygon fill="white" stroke="black" points="119.5,-190.5 119.5,-209.5 176.5,-209.5 176.5,-190.5 119.5,-190.5"/>
<text text-anchor="middle" x="148" y="-197.5" font-family="Helvetica,sans-Serif" font-size="10.00">MatTrans</text>
</a>
</g>
<!-- Node1&#45;&gt;Node2 -->
<g id="edge2" class="edge"><title>Node1&#45;&gt;Node2</title>
<path fill="none" stroke="midnightblue" d="M47.9183,-114.72C60.7205,-130.043 87.2427,-160.209 114,-181 115.781,-182.384 117.674,-183.737 119.617,-185.042"/>
<polygon fill="midnightblue" stroke="midnightblue" points="117.923,-188.11 128.266,-190.409 121.614,-182.162 117.923,-188.11"/>
</g>
<!-- Node3 -->
<g id="node5" class="node"><title>Node3</title>
<a xlink:href="_mat_8c.html#a5a0ecff7fea2f4450c318b4f3ffcad1d" target="_top" xlink:title="MatMulScal">
<polygon fill="white" stroke="black" points="114,-152.5 114,-171.5 182,-171.5 182,-152.5 114,-152.5"/>
<text text-anchor="middle" x="148" y="-159.5" font-family="Helvetica,sans-Serif" font-size="10.00">MatMulScal</text>
</a>
</g>
<!-- Node1&#45;&gt;Node3 -->
<g id="edge4" class="edge"><title>Node1&#45;&gt;Node3</title>
<path fill="none" stroke="midnightblue" d="M58.1511,-114.669C75.1626,-123.731 100.805,-137.391 120.176,-147.711"/>
<polygon fill="midnightblue" stroke="midnightblue" points="118.646,-150.861 129.117,-152.474 121.937,-144.683 118.646,-150.861"/>
</g>
<!-- Node4 -->
<g id="node7" class="node"><title>Node4</title>
<a xlink:href="_mat_8c.html#a05baf6927b033792fd0ba2adcfb8df34" target="_top" xlink:title="MatClr">
<polygon fill="white" stroke="black" points="125.5,-114.5 125.5,-133.5 170.5,-133.5 170.5,-114.5 125.5,-114.5"/>
<text text-anchor="middle" x="148" y="-121.5" font-family="Helvetica,sans-Serif" font-size="10.00">MatClr</text>
</a>
</g>
<!-- Node1&#45;&gt;Node4 -->
<g id="edge6" class="edge"><title>Node1&#45;&gt;Node4</title>
<path fill="none" stroke="midnightblue" d="M77.7242,-111.699C90.1028,-113.897 103.719,-116.315 115.579,-118.421"/>
<polygon fill="midnightblue" stroke="midnightblue" points="115.017,-121.875 125.475,-120.178 116.241,-114.983 115.017,-121.875"/>
</g>
<!-- Node5 -->
<g id="node9" class="node"><title>Node5</title>
<a xlink:href="_mat_8c.html#a49a1a5a782995fa6df6e0669883f0fd6" target="_top" xlink:title="MatPrint">
<polygon fill="white" stroke="black" points="121.5,-76.5 121.5,-95.5 174.5,-95.5 174.5,-76.5 121.5,-76.5"/>
<text text-anchor="middle" x="148" y="-83.5" font-family="Helvetica,sans-Serif" font-size="10.00">MatPrint</text>
</a>
</g>
<!-- Node1&#45;&gt;Node5 -->
<g id="edge8" class="edge"><title>Node1&#45;&gt;Node5</title>
<path fill="none" stroke="midnightblue" d="M77.7242,-98.3013C88.6672,-96.3582 100.577,-94.2433 111.387,-92.3239"/>
<polygon fill="midnightblue" stroke="midnightblue" points="112.111,-95.75 121.345,-90.5555 110.887,-88.8578 112.111,-95.75"/>
</g>
<!-- Node6 -->
<g id="node11" class="node"><title>Node6</title>
<a xlink:href="_mat_8c.html#acc421a6e03e48657b74bcaa1fb2dd578" target="_top" xlink:title="MatMul">
<polygon fill="white" stroke="black" points="123.5,-38.5 123.5,-57.5 172.5,-57.5 172.5,-38.5 123.5,-38.5"/>
<text text-anchor="middle" x="148" y="-45.5" font-family="Helvetica,sans-Serif" font-size="10.00">MatMul</text>
</a>
</g>
<!-- Node1&#45;&gt;Node6 -->
<g id="edge10" class="edge"><title>Node1&#45;&gt;Node6</title>
<path fill="none" stroke="midnightblue" d="M58.1511,-95.3307C75.1626,-86.2685 100.805,-72.6086 120.176,-62.2892"/>
<polygon fill="midnightblue" stroke="midnightblue" points="121.937,-65.3172 129.117,-57.5265 118.646,-59.1391 121.937,-65.3172"/>
</g>
<!-- Node8 -->
<g id="node15" class="node"><title>Node8</title>
<a xlink:href="_mat_8c.html#a67b3a2b32d5fa1d6667967e2e32d0e53" target="_top" xlink:title="MatSub">
<polygon fill="white" stroke="black" points="123,-0.5 123,-19.5 173,-19.5 173,-0.5 123,-0.5"/>
<text text-anchor="middle" x="148" y="-7.5" font-family="Helvetica,sans-Serif" font-size="10.00">MatSub</text>
</a>
</g>
<!-- Node1&#45;&gt;Node8 -->
<g id="edge14" class="edge"><title>Node1&#45;&gt;Node8</title>
<path fill="none" stroke="midnightblue" d="M47.9183,-95.2802C60.7205,-79.9565 87.2427,-49.7908 114,-29 115.781,-27.6158 117.674,-26.263 119.617,-24.9579"/>
<polygon fill="midnightblue" stroke="midnightblue" points="121.614,-27.8379 128.266,-19.5913 117.923,-21.89 121.614,-27.8379"/>
</g>
<!-- Node7 -->
<g id="node13" class="node"><title>Node7</title>
<a xlink:href="_mat_8c.html#af8d2fa33b5e306753bc588565f8ac12b" target="_top" xlink:title="MatCpy">
<polygon fill="white" stroke="black" points="218,-38.5 218,-57.5 268,-57.5 268,-38.5 218,-38.5"/>
<text text-anchor="middle" x="243" y="-45.5" font-family="Helvetica,sans-Serif" font-size="10.00">MatCpy</text>
</a>
</g>
<!-- Node6&#45;&gt;Node7 -->
<g id="edge12" class="edge"><title>Node6&#45;&gt;Node7</title>
<path fill="none" stroke="midnightblue" d="M172.95,-48C183.498,-48 196.09,-48 207.614,-48"/>
<polygon fill="midnightblue" stroke="midnightblue" points="207.808,-51.5001 217.808,-48 207.808,-44.5001 207.808,-51.5001"/>
</g>
</g>
</svg>
