<?xml version="1.0" encoding="UTF-8" standalone="no"?>
<!DOCTYPE svg PUBLIC "-//W3C//DTD SVG 1.1//EN"
 "http://www.w3.org/Graphics/SVG/1.1/DTD/svg11.dtd">
<!-- Generated by graphviz version 2.28.0 (20110507.0327)
 -->
<!-- Title: G Pages: 1 -->
<!--zoomable-->
<svg id="main" version="1.1" xmlns="http://www.w3.org/2000/svg" xmlns:xlink="http://www.w3.org/1999/xlink" xml:space="preserve" onload="init(evt)">
        <defs>
                <circle id="rim" cx="0" cy="0" r="7"/>
                <circle id="rim2" cx="0" cy="0" r="3.5"/>
                <g id="zoomPlus">
                        <use xlink:href="#rim" fill="#404040">
                                <set attributeName="fill" to="#808080" begin="zoomplus.mouseover" end="zoomplus.mouseout"/>
                        </use>
                        <path d="M-4,0h8M0,-4v8" fill="none" stroke="white" stroke-width="1.5" pointer-events="none"/>
                </g>
                <g id="zoomMin">
                        <use xlink:href="#rim" fill="#404040">
                                <set attributeName="fill" to="#808080" begin="zoomminus.mouseover" end="zoomminus.mouseout"/>
                        </use>
                        <path d="M-4,0h8" fill="none" stroke="white" stroke-width="1.5" pointer-events="none"/>
                </g>
                <g id="dirArrow">
                        <path fill="none" stroke="white" stroke-width="1.5" d="M0,-3.0v7 M-2.5,-0.5L0,-3.0L2.5,-0.5"/>
                </g>
               <g id="resetDef">
                       <use xlink:href="#rim2" fill="#404040">
                               <set attributeName="fill" to="#808080" begin="reset.mouseover" end="reset.mouseout"/>
                       </use>
               </g>
        </defs>

<script type="text/javascript">
var viewWidth = 690;
var viewHeight = 236;
var sectionId = 'dynsection-3';
</script>
<script xlink:href="svgpan.js"/>
<svg id="graph" class="graph">
<g id="viewport">
<title>G</title>
<polygon fill="white" stroke="white" points="-4,5 -4,-232 687,-232 687,5 -4,5"/>
<!-- Node1 -->
<g id="node1" class="node"><title>Node1</title>
<polygon fill="#bfbfbf" stroke="black" points="0.5,-76.5 0.5,-95.5 53.5,-95.5 53.5,-76.5 0.5,-76.5"/>
<text text-anchor="middle" x="27" y="-83.5" font-family="Helvetica,sans-Serif" font-size="10.00">MatAddf</text>
</g>
<!-- Node2 -->
<g id="node3" class="node"><title>Node2</title>
<a xlink:href="_david___calc_m_c_8h.html#a5877c51babeda61b69280e4dc6ed28dd" target="_top" xlink:title="David_CalcMC">
<polygon fill="white" stroke="black" points="95,-114.5 95,-133.5 175,-133.5 175,-114.5 95,-114.5"/>
<text text-anchor="middle" x="135" y="-121.5" font-family="Helvetica,sans-Serif" font-size="10.00">David_CalcMC</text>
</a>
</g>
<!-- Node1&#45;&gt;Node2 -->
<g id="edge2" class="edge"><title>Node1&#45;&gt;Node2</title>
<path fill="none" stroke="midnightblue" d="M63.2668,-98.6428C77.6898,-103.813 94.093,-109.694 107.47,-114.489"/>
<polygon fill="midnightblue" stroke="midnightblue" points="64.2542,-95.2787 53.6596,-95.1987 61.8919,-101.868 64.2542,-95.2787"/>
</g>
<!-- Node4 -->
<g id="node7" class="node"><title>Node4</title>
<a xlink:href="_david___gravity_8h.html#a1f1e600a0c38ffaf69b85505ea4645d0" target="_top" xlink:title="David_Gravity">
<polygon fill="white" stroke="black" points="390.5,-190.5 390.5,-209.5 465.5,-209.5 465.5,-190.5 390.5,-190.5"/>
<text text-anchor="middle" x="428" y="-197.5" font-family="Helvetica,sans-Serif" font-size="10.00">David_Gravity</text>
</a>
</g>
<!-- Node1&#45;&gt;Node4 -->
<g id="edge30" class="edge"><title>Node1&#45;&gt;Node4</title>
<path fill="none" stroke="midnightblue" d="M37.7003,-104.464C48.0886,-122.199 66.3267,-148.141 90,-161 188.075,-214.275 325.611,-210.048 390.448,-204.257"/>
<polygon fill="midnightblue" stroke="midnightblue" points="40.6793,-102.62 32.752,-95.5909 34.5657,-106.029 40.6793,-102.62"/>
</g>
<!-- Node5 -->
<g id="node10" class="node"><title>Node5</title>
<a xlink:href="_forward_dynamics_8h.html#a23609ae4e05df387941c4bbc7bfc26fe" target="_top" xlink:title="ForwardDynamics">
<polygon fill="white" stroke="black" points="512.5,-76.5 512.5,-95.5 607.5,-95.5 607.5,-76.5 512.5,-76.5"/>
<text text-anchor="middle" x="560" y="-83.5" font-family="Helvetica,sans-Serif" font-size="10.00">ForwardDynamics</text>
</a>
</g>
<!-- Node1&#45;&gt;Node5 -->
<g id="edge36" class="edge"><title>Node1&#45;&gt;Node5</title>
<path fill="none" stroke="midnightblue" d="M63.6658,-86C156.852,-86 407.616,-86 512.197,-86"/>
<polygon fill="midnightblue" stroke="midnightblue" points="63.6113,-82.5001 53.6112,-86 63.6112,-89.5001 63.6113,-82.5001"/>
</g>
<!-- Node8 -->
<g id="node18" class="node"><title>Node8</title>
<a xlink:href="_david___forward_kinematics_8h.html#ab4a9975fbdb8a88c795a8f0b5bf0bf97" target="_top" xlink:title="David_ForwardKinematics">
<polygon fill="white" stroke="black" points="216,-10.5 216,-29.5 344,-29.5 344,-10.5 216,-10.5"/>
<text text-anchor="middle" x="280" y="-17.5" font-family="Helvetica,sans-Serif" font-size="10.00">David_ForwardKinematics</text>
</a>
</g>
<!-- Node1&#45;&gt;Node8 -->
<g id="edge20" class="edge"><title>Node1&#45;&gt;Node8</title>
<path fill="none" stroke="midnightblue" d="M63.7766,-76.5926C111.345,-64.0845 194.959,-42.0986 242.76,-29.5292"/>
<polygon fill="midnightblue" stroke="midnightblue" points="62.6972,-73.2574 53.916,-79.1854 64.4774,-80.0273 62.6972,-73.2574"/>
</g>
<!-- Node10 -->
<g id="node26" class="node"><title>Node10</title>
<a xlink:href="_david___rodrigues_8h.html#a60a6dbedf38702ef67715eb17c6efadc" target="_top" xlink:title="David_Rodrigues">
<polygon fill="white" stroke="black" points="90.5,-0.5 90.5,-19.5 179.5,-19.5 179.5,-0.5 90.5,-0.5"/>
<text text-anchor="middle" x="135" y="-7.5" font-family="Helvetica,sans-Serif" font-size="10.00">David_Rodrigues</text>
</a>
</g>
<!-- Node1&#45;&gt;Node10 -->
<g id="edge32" class="edge"><title>Node1&#45;&gt;Node10</title>
<path fill="none" stroke="midnightblue" d="M45.9922,-69.2636C57.9778,-58.5378 74.3468,-44.6773 90,-34 97.6196,-28.8025 106.473,-23.7945 114.232,-19.7101"/>
<polygon fill="midnightblue" stroke="midnightblue" points="43.5044,-66.7951 38.4575,-76.1106 48.2121,-71.9756 43.5044,-66.7951"/>
</g>
<!-- Node2&#45;&gt;Node2 -->
<g id="edge18" class="edge"><title>Node2&#45;&gt;Node2</title>
<path fill="none" stroke="midnightblue" d="M115.001,-143.4C116.337,-148.315 123.003,-152 135,-152 154.195,-152 159.744,-142.565 151.646,-133.757"/>
<polygon fill="midnightblue" stroke="midnightblue" points="118.376,-144.352 118.354,-133.757 111.764,-142.053 118.376,-144.352"/>
</g>
<!-- Node3 -->
<g id="node5" class="node"><title>Node3</title>
<a xlink:href="_david___calc_co_m_8h.html#a87e4908ddc041180e53e28286d691b80" target="_top" xlink:title="David_CalcCoM">
<polygon fill="white" stroke="black" points="237.5,-128.5 237.5,-147.5 322.5,-147.5 322.5,-128.5 237.5,-128.5"/>
<text text-anchor="middle" x="280" y="-135.5" font-family="Helvetica,sans-Serif" font-size="10.00">David_CalcCoM</text>
</a>
</g>
<!-- Node2&#45;&gt;Node3 -->
<g id="edge4" class="edge"><title>Node2&#45;&gt;Node3</title>
<path fill="none" stroke="midnightblue" d="M185.37,-128.833C202.35,-130.496 221.178,-132.339 237.47,-133.934"/>
<polygon fill="midnightblue" stroke="midnightblue" points="185.369,-125.317 175.075,-127.826 184.687,-132.283 185.369,-125.317"/>
</g>
<!-- Node3&#45;&gt;Node4 -->
<g id="edge6" class="edge"><title>Node3&#45;&gt;Node4</title>
<path fill="none" stroke="midnightblue" d="M312.724,-151.472C340.329,-163.195 379.663,-179.898 404.241,-190.335"/>
<polygon fill="midnightblue" stroke="midnightblue" points="314.065,-148.239 303.493,-147.552 311.329,-154.682 314.065,-148.239"/>
</g>
<!-- Node3&#45;&gt;Node5 -->
<g id="edge16" class="edge"><title>Node3&#45;&gt;Node5</title>
<path fill="none" stroke="midnightblue" d="M332.832,-148.226C372.858,-154.022 429.138,-157.542 476,-143 506.051,-133.675 534.877,-109.283 549.344,-95.6226"/>
<polygon fill="midnightblue" stroke="midnightblue" points="333.183,-144.739 322.766,-146.672 332.114,-151.657 333.183,-144.739"/>
</g>
<!-- Node7 -->
<g id="node14" class="node"><title>Node7</title>
<a xlink:href="_david___stabilizator_8h.html#a160d145abfa84a49d710ddcb384990ef" target="_top" xlink:title="David_Stabilizator">
<polygon fill="white" stroke="black" points="381,-114.5 381,-133.5 475,-133.5 475,-114.5 381,-114.5"/>
<text text-anchor="middle" x="428" y="-121.5" font-family="Helvetica,sans-Serif" font-size="10.00">David_Stabilizator</text>
</a>
</g>
<!-- Node3&#45;&gt;Node7 -->
<g id="edge14" class="edge"><title>Node3&#45;&gt;Node7</title>
<path fill="none" stroke="midnightblue" d="M332.875,-133.026C348.511,-131.526 365.562,-129.891 380.802,-128.43"/>
<polygon fill="midnightblue" stroke="midnightblue" points="332.458,-129.55 322.838,-133.988 333.126,-136.518 332.458,-129.55"/>
</g>
<!-- Node4&#45;&gt;Node4 -->
<g id="edge8" class="edge"><title>Node4&#45;&gt;Node4</title>
<path fill="none" stroke="midnightblue" d="M403.447,-219.029C404.786,-224.128 412.97,-228 428,-228 451.461,-228 458.243,-218.565 448.345,-209.757"/>
<polygon fill="midnightblue" stroke="midnightblue" points="406.709,-220.31 407.655,-209.757 400.335,-217.416 406.709,-220.31"/>
</g>
<!-- Node4&#45;&gt;Node5 -->
<g id="edge10" class="edge"><title>Node4&#45;&gt;Node5</title>
<path fill="none" stroke="midnightblue" d="M461.144,-185.525C466.302,-182.662 471.438,-179.461 476,-176 508.344,-151.464 538.627,-113.441 551.92,-95.7147"/>
<polygon fill="midnightblue" stroke="midnightblue" points="459.219,-182.58 451.956,-190.294 462.444,-188.793 459.219,-182.58"/>
</g>
<!-- Node6 -->
<g id="node12" class="node"><title>Node6</title>
<a xlink:href="main_8c.html#a0ddf1224851353fc92bfbff6f499fa97" target="_top" xlink:title="main">
<polygon fill="white" stroke="black" points="644,-76.5 644,-95.5 682,-95.5 682,-76.5 644,-76.5"/>
<text text-anchor="middle" x="663" y="-83.5" font-family="Helvetica,sans-Serif" font-size="10.00">main</text>
</a>
</g>
<!-- Node5&#45;&gt;Node6 -->
<g id="edge12" class="edge"><title>Node5&#45;&gt;Node6</title>
<path fill="none" stroke="midnightblue" d="M617.879,-86C627.25,-86 636.323,-86 643.779,-86"/>
<polygon fill="midnightblue" stroke="midnightblue" points="617.657,-82.5001 607.657,-86 617.657,-89.5001 617.657,-82.5001"/>
</g>
<!-- Node8&#45;&gt;Node5 -->
<g id="edge28" class="edge"><title>Node8&#45;&gt;Node5</title>
<path fill="none" stroke="midnightblue" d="M331.129,-31.9012C384.926,-44.6731 469.309,-64.7064 518.885,-76.4764"/>
<polygon fill="midnightblue" stroke="midnightblue" points="331.665,-28.4311 321.127,-29.5265 330.048,-35.2418 331.665,-28.4311"/>
</g>
<!-- Node8&#45;&gt;Node8 -->
<g id="edge22" class="edge"><title>Node8&#45;&gt;Node8</title>
<path fill="none" stroke="midnightblue" d="M253.121,-38.6539C254.244,-43.9368 263.204,-48 280,-48 305.594,-48 312.992,-38.5653 302.195,-29.7571"/>
<polygon fill="midnightblue" stroke="midnightblue" points="256.243,-40.2361 257.805,-29.7571 250.049,-36.9747 256.243,-40.2361"/>
</g>
<!-- Node9 -->
<g id="node21" class="node"><title>Node9</title>
<a xlink:href="_david__u_l_i_n_k_8h.html#adaa17668a497d22fe2cd4e7087336a86" target="_top" xlink:title="Initialize the link structure with the model value (used in control loop). See SetupRobot.">
<polygon fill="white" stroke="black" points="380,-0.5 380,-19.5 476,-19.5 476,-0.5 380,-0.5"/>
<text text-anchor="middle" x="428" y="-7.5" font-family="Helvetica,sans-Serif" font-size="10.00">David_SetupRobot</text>
</a>
</g>
<!-- Node8&#45;&gt;Node9 -->
<g id="edge24" class="edge"><title>Node8&#45;&gt;Node9</title>
<path fill="none" stroke="midnightblue" d="M354.257,-14.9824C362.857,-14.3933 371.452,-13.8047 379.565,-13.249"/>
<polygon fill="midnightblue" stroke="midnightblue" points="353.926,-11.4968 344.189,-15.672 354.404,-18.4804 353.926,-11.4968"/>
</g>
<!-- Node9&#45;&gt;Node5 -->
<g id="edge26" class="edge"><title>Node9&#45;&gt;Node5</title>
<path fill="none" stroke="midnightblue" d="M457.998,-24.3049C464.001,-27.4063 470.247,-30.7373 476,-34 500.553,-47.9249 528.163,-65.6554 544.542,-76.4012"/>
<polygon fill="midnightblue" stroke="midnightblue" points="459.37,-21.0762 448.87,-19.6633 456.198,-27.3158 459.37,-21.0762"/>
</g>
<!-- Node10&#45;&gt;Node8 -->
<g id="edge34" class="edge"><title>Node10&#45;&gt;Node8</title>
<path fill="none" stroke="midnightblue" d="M189.828,-13.7642C198.32,-14.358 207.166,-14.9766 215.846,-15.5836"/>
<polygon fill="midnightblue" stroke="midnightblue" points="189.902,-10.2609 179.682,-13.0547 189.413,-17.2438 189.902,-10.2609"/>
</g>
</g>
</svg>
        <g id="navigator" transform="translate(0 0)" fill="#404254">
                <rect fill="#f2f5e9" fill-opacity="0.5" stroke="#606060" stroke-width=".5" x="0" y="0" width="60" height="60"/>
                <use id="zoomplus" xlink:href="#zoomPlus" x="17" y="9" onmousedown="handleZoom(evt,'in')"/>
                <use id="zoomminus" xlink:href="#zoomMin" x="42" y="9" onmousedown="handleZoom(evt,'out')"/>
                <use id="reset" xlink:href="#resetDef" x="30" y="36" onmousedown="handleReset()"/>
                <g id="arrowUp" xlink:href="#dirArrow" transform="translate(30 24)" onmousedown="handlePan(0,-1)">
                  <use xlink:href="#rim" fill="#404040">
                        <set attributeName="fill" to="#808080" begin="arrowUp.mouseover" end="arrowUp.mouseout"/>
                  </use>
                  <path fill="none" stroke="white" stroke-width="1.5" d="M0,-3.0v7 M-2.5,-0.5L0,-3.0L2.5,-0.5"/>
                </g>
                <g id="arrowRight" xlink:href="#dirArrow" transform="rotate(90) translate(36 -43)" onmousedown="handlePan(1,0)">
                  <use xlink:href="#rim" fill="#404040">
                        <set attributeName="fill" to="#808080" begin="arrowRight.mouseover" end="arrowRight.mouseout"/>
                  </use>
                  <path fill="none" stroke="white" stroke-width="1.5" d="M0,-3.0v7 M-2.5,-0.5L0,-3.0L2.5,-0.5"/>
                </g>
                <g id="arrowDown" xlink:href="#dirArrow" transform="rotate(180) translate(-30 -48)" onmousedown="handlePan(0,1)">
                  <use xlink:href="#rim" fill="#404040">
                        <set attributeName="fill" to="#808080" begin="arrowDown.mouseover" end="arrowDown.mouseout"/>
                  </use>
                  <path fill="none" stroke="white" stroke-width="1.5" d="M0,-3.0v7 M-2.5,-0.5L0,-3.0L2.5,-0.5"/>
                </g>
                <g id="arrowLeft" xlink:href="#dirArrow" transform="rotate(270) translate(-36 17)" onmousedown="handlePan(-1,0)">
                  <use xlink:href="#rim" fill="#404040">
                        <set attributeName="fill" to="#808080" begin="arrowLeft.mouseover" end="arrowLeft.mouseout"/>
                  </use>
                  <path fill="none" stroke="white" stroke-width="1.5" d="M0,-3.0v7 M-2.5,-0.5L0,-3.0L2.5,-0.5"/>
                </g>
        </g>
</svg>
