<?xml version="1.0" encoding="UTF-8" standalone="no"?>
<!DOCTYPE svg PUBLIC "-//W3C//DTD SVG 1.1//EN"
 "http://www.w3.org/Graphics/SVG/1.1/DTD/svg11.dtd">
<!-- Generated by graphviz version 2.28.0 (20110507.0327)
 -->
<!-- Title: G Pages: 1 -->
<svg width="364pt" height="294pt"
 viewBox="0.00 0.00 364.00 294.00" xmlns="http://www.w3.org/2000/svg" xmlns:xlink="http://www.w3.org/1999/xlink">
<g id="graph1" class="graph" transform="scale(1 1) rotate(0) translate(4 290)">
<title>G</title>
<polygon fill="white" stroke="white" points="-4,5 -4,-290 361,-290 361,5 -4,5"/>
<!-- Node1 -->
<g id="node1" class="node"><title>Node1</title>
<polygon fill="#bfbfbf" stroke="black" points="0,-114.5 0,-133.5 52,-133.5 52,-114.5 0,-114.5"/>
<text text-anchor="middle" x="26" y="-121.5" font-family="Helvetica,sans-Serif" font-size="10.00">MatTest</text>
</g>
<!-- Node2 -->
<g id="node3" class="node"><title>Node2</title>
<a xlink:href="_mat_8c.html#a05baf6927b033792fd0ba2adcfb8df34" target="_top" xlink:title="MatClr">
<polygon fill="white" stroke="black" points="213.5,-266.5 213.5,-285.5 258.5,-285.5 258.5,-266.5 213.5,-266.5"/>
<text text-anchor="middle" x="236" y="-273.5" font-family="Helvetica,sans-Serif" font-size="10.00">MatClr</text>
</a>
</g>
<!-- Node1&#45;&gt;Node2 -->
<g id="edge2" class="edge"><title>Node1&#45;&gt;Node2</title>
<path fill="none" stroke="midnightblue" d="M31.3192,-133.627C39.7886,-151.527 60.2023,-190.178 88,-213 122.565,-241.378 171.827,-258.986 203.608,-268.142"/>
<polygon fill="midnightblue" stroke="midnightblue" points="202.701,-271.523 213.272,-270.821 204.571,-264.777 202.701,-271.523"/>
</g>
<!-- Node3 -->
<g id="node5" class="node"><title>Node3</title>
<a xlink:href="_mat_8c.html#af8d2fa33b5e306753bc588565f8ac12b" target="_top" xlink:title="MatCpy">
<polygon fill="white" stroke="black" points="306,-57.5 306,-76.5 356,-76.5 356,-57.5 306,-57.5"/>
<text text-anchor="middle" x="331" y="-64.5" font-family="Helvetica,sans-Serif" font-size="10.00">MatCpy</text>
</a>
</g>
<!-- Node1&#45;&gt;Node3 -->
<g id="edge4" class="edge"><title>Node1&#45;&gt;Node3</title>
<path fill="none" stroke="midnightblue" d="M44.742,-114.386C56.7008,-108.203 72.9777,-100.353 88,-95 137.146,-77.4873 150.205,-73.2676 202,-67 233.605,-63.1755 269.923,-63.6315 295.78,-64.7748"/>
<polygon fill="midnightblue" stroke="midnightblue" points="295.671,-68.2736 305.833,-65.2772 296.02,-61.2824 295.671,-68.2736"/>
</g>
<!-- Node4 -->
<g id="node7" class="node"><title>Node4</title>
<a xlink:href="_mat_8c.html#a49a1a5a782995fa6df6e0669883f0fd6" target="_top" xlink:title="MatPrint">
<polygon fill="white" stroke="black" points="209.5,-228.5 209.5,-247.5 262.5,-247.5 262.5,-228.5 209.5,-228.5"/>
<text text-anchor="middle" x="236" y="-235.5" font-family="Helvetica,sans-Serif" font-size="10.00">MatPrint</text>
</a>
</g>
<!-- Node1&#45;&gt;Node4 -->
<g id="edge6" class="edge"><title>Node1&#45;&gt;Node4</title>
<path fill="none" stroke="midnightblue" d="M35.1923,-133.67C46.1369,-146.076 66.6418,-167.588 88,-181 123.301,-203.167 168.621,-219.131 199.549,-228.429"/>
<polygon fill="midnightblue" stroke="midnightblue" points="198.87,-231.877 209.45,-231.325 200.836,-225.158 198.87,-231.877"/>
</g>
<!-- Node5 -->
<g id="node9" class="node"><title>Node5</title>
<a xlink:href="_mat_8c.html#ad69af94eeacc496b61d9ae223568d40e" target="_top" xlink:title="MatPseudoInv">
<polygon fill="white" stroke="black" points="88.5,-152.5 88.5,-171.5 165.5,-171.5 165.5,-152.5 88.5,-152.5"/>
<text text-anchor="middle" x="127" y="-159.5" font-family="Helvetica,sans-Serif" font-size="10.00">MatPseudoInv</text>
</a>
</g>
<!-- Node1&#45;&gt;Node5 -->
<g id="edge8" class="edge"><title>Node1&#45;&gt;Node5</title>
<path fill="none" stroke="midnightblue" d="M51.9819,-133.589C63.9411,-138.179 78.4548,-143.75 91.451,-148.739"/>
<polygon fill="midnightblue" stroke="midnightblue" points="90.436,-152.098 101.026,-152.414 92.9445,-145.563 90.436,-152.098"/>
</g>
<!-- Node7 -->
<g id="node13" class="node"><title>Node7</title>
<a xlink:href="_mat_8c.html#a5a0ecff7fea2f4450c318b4f3ffcad1d" target="_top" xlink:title="MatMulScal">
<polygon fill="white" stroke="black" points="202,-114.5 202,-133.5 270,-133.5 270,-114.5 202,-114.5"/>
<text text-anchor="middle" x="236" y="-121.5" font-family="Helvetica,sans-Serif" font-size="10.00">MatMulScal</text>
</a>
</g>
<!-- Node1&#45;&gt;Node7 -->
<g id="edge26" class="edge"><title>Node1&#45;&gt;Node7</title>
<path fill="none" stroke="midnightblue" d="M52.0897,-124C86.6539,-124 149.428,-124 191.669,-124"/>
<polygon fill="midnightblue" stroke="midnightblue" points="191.937,-127.5 201.937,-124 191.937,-120.5 191.937,-127.5"/>
</g>
<!-- Node8 -->
<g id="node17" class="node"><title>Node8</title>
<a xlink:href="_mat_8c.html#acc421a6e03e48657b74bcaa1fb2dd578" target="_top" xlink:title="MatMul">
<polygon fill="white" stroke="black" points="211.5,-76.5 211.5,-95.5 260.5,-95.5 260.5,-76.5 211.5,-76.5"/>
<text text-anchor="middle" x="236" y="-83.5" font-family="Helvetica,sans-Serif" font-size="10.00">MatMul</text>
</a>
</g>
<!-- Node1&#45;&gt;Node8 -->
<g id="edge24" class="edge"><title>Node1&#45;&gt;Node8</title>
<path fill="none" stroke="midnightblue" d="M52.0897,-119.416C89.4429,-112.592 159.742,-99.749 201.468,-92.126"/>
<polygon fill="midnightblue" stroke="midnightblue" points="202.215,-95.5475 211.424,-90.3072 200.957,-88.6615 202.215,-95.5475"/>
</g>
<!-- Node10 -->
<g id="node24" class="node"><title>Node10</title>
<a xlink:href="_mat_8c.html#a298c0cd2515831e39ff6a7424fbc3667" target="_top" xlink:title="MatAdd">
<polygon fill="white" stroke="black" points="102,-0.5 102,-19.5 152,-19.5 152,-0.5 102,-0.5"/>
<text text-anchor="middle" x="127" y="-7.5" font-family="Helvetica,sans-Serif" font-size="10.00">MatAdd</text>
</a>
</g>
<!-- Node1&#45;&gt;Node10 -->
<g id="edge28" class="edge"><title>Node1&#45;&gt;Node10</title>
<path fill="none" stroke="midnightblue" d="M31.7911,-114.39C40.8906,-96.8337 62.098,-59.0776 88,-34 91.3058,-30.7995 95.1048,-27.8 98.9946,-25.0787"/>
<polygon fill="midnightblue" stroke="midnightblue" points="100.99,-27.9564 107.498,-19.5958 97.1971,-22.0732 100.99,-27.9564"/>
</g>
<!-- Node5&#45;&gt;Node2 -->
<g id="edge14" class="edge"><title>Node5&#45;&gt;Node2</title>
<path fill="none" stroke="midnightblue" d="M133.707,-171.618C144.954,-189.974 171.552,-230.525 202,-257 203.497,-258.301 205.096,-259.559 206.753,-260.764"/>
<polygon fill="midnightblue" stroke="midnightblue" points="205.021,-263.813 215.313,-266.327 208.835,-257.944 205.021,-263.813"/>
</g>
<!-- Node5&#45;&gt;Node4 -->
<g id="edge16" class="edge"><title>Node5&#45;&gt;Node4</title>
<path fill="none" stroke="midnightblue" d="M139.684,-171.788C153.97,-183.569 179.083,-203.676 202,-219 204.116,-220.415 206.342,-221.834 208.596,-223.224"/>
<polygon fill="midnightblue" stroke="midnightblue" points="206.88,-226.275 217.266,-228.37 210.453,-220.255 206.88,-226.275"/>
</g>
<!-- Node6 -->
<g id="node11" class="node"><title>Node6</title>
<a xlink:href="_mat_8c.html#ad6300385b22dac30b83c64ea70952e08" target="_top" xlink:title="MatTrans">
<polygon fill="white" stroke="black" points="207.5,-152.5 207.5,-171.5 264.5,-171.5 264.5,-152.5 207.5,-152.5"/>
<text text-anchor="middle" x="236" y="-159.5" font-family="Helvetica,sans-Serif" font-size="10.00">MatTrans</text>
</a>
</g>
<!-- Node5&#45;&gt;Node6 -->
<g id="edge10" class="edge"><title>Node5&#45;&gt;Node6</title>
<path fill="none" stroke="midnightblue" d="M165.724,-162C175.906,-162 186.924,-162 197.115,-162"/>
<polygon fill="midnightblue" stroke="midnightblue" points="197.364,-165.5 207.364,-162 197.364,-158.5 197.364,-165.5"/>
</g>
<!-- Node5&#45;&gt;Node7 -->
<g id="edge12" class="edge"><title>Node5&#45;&gt;Node7</title>
<path fill="none" stroke="midnightblue" d="M155.001,-152.411C168.18,-147.731 184.229,-142.031 198.484,-136.968"/>
<polygon fill="midnightblue" stroke="midnightblue" points="199.756,-140.231 208.008,-133.586 197.413,-133.634 199.756,-140.231"/>
</g>
<!-- Node5&#45;&gt;Node8 -->
<g id="edge18" class="edge"><title>Node5&#45;&gt;Node8</title>
<path fill="none" stroke="midnightblue" d="M139.684,-152.212C153.97,-140.431 179.083,-120.324 202,-105 204.116,-103.585 206.342,-102.166 208.596,-100.776"/>
<polygon fill="midnightblue" stroke="midnightblue" points="210.453,-103.745 217.266,-95.6303 206.88,-97.7252 210.453,-103.745"/>
</g>
<!-- Node9 -->
<g id="node20" class="node"><title>Node9</title>
<a xlink:href="_mat_8c.html#a67b3a2b32d5fa1d6667967e2e32d0e53" target="_top" xlink:title="MatSub">
<polygon fill="white" stroke="black" points="211,-190.5 211,-209.5 261,-209.5 261,-190.5 211,-190.5"/>
<text text-anchor="middle" x="236" y="-197.5" font-family="Helvetica,sans-Serif" font-size="10.00">MatSub</text>
</a>
</g>
<!-- Node5&#45;&gt;Node9 -->
<g id="edge22" class="edge"><title>Node5&#45;&gt;Node9</title>
<path fill="none" stroke="midnightblue" d="M155.001,-171.589C169.119,-176.603 186.531,-182.787 201.502,-188.104"/>
<polygon fill="midnightblue" stroke="midnightblue" points="200.334,-191.403 210.929,-191.451 202.677,-184.806 200.334,-191.403"/>
</g>
<!-- Node8&#45;&gt;Node3 -->
<g id="edge20" class="edge"><title>Node8&#45;&gt;Node3</title>
<path fill="none" stroke="midnightblue" d="M260.95,-81.107C271.606,-78.93 284.347,-76.327 295.966,-73.9531"/>
<polygon fill="midnightblue" stroke="midnightblue" points="296.711,-77.3733 305.808,-71.9424 295.31,-70.515 296.711,-77.3733"/>
</g>
</g>
</svg>
