<?xml version="1.0" encoding="UTF-8" standalone="no"?>
<!DOCTYPE svg PUBLIC "-//W3C//DTD SVG 1.1//EN"
 "http://www.w3.org/Graphics/SVG/1.1/DTD/svg11.dtd">
<!-- Generated by graphviz version 2.28.0 (20110507.0327)
 -->
<!-- Title: G Pages: 1 -->
<!--zoomable-->
<svg id="main" version="1.1" xmlns="http://www.w3.org/2000/svg" xmlns:xlink="http://www.w3.org/1999/xlink" xml:space="preserve" onload="init(evt)">
        <defs>
                <circle id="rim" cx="0" cy="0" r="7"/>
                <circle id="rim2" cx="0" cy="0" r="3.5"/>
                <g id="zoomPlus">
                        <use xlink:href="#rim" fill="#404040">
                                <set attributeName="fill" to="#808080" begin="zoomplus.mouseover" end="zoomplus.mouseout"/>
                        </use>
                        <path d="M-4,0h8M0,-4v8" fill="none" stroke="white" stroke-width="1.5" pointer-events="none"/>
                </g>
                <g id="zoomMin">
                        <use xlink:href="#rim" fill="#404040">
                                <set attributeName="fill" to="#808080" begin="zoomminus.mouseover" end="zoomminus.mouseout"/>
                        </use>
                        <path d="M-4,0h8" fill="none" stroke="white" stroke-width="1.5" pointer-events="none"/>
                </g>
                <g id="dirArrow">
                        <path fill="none" stroke="white" stroke-width="1.5" d="M0,-3.0v7 M-2.5,-0.5L0,-3.0L2.5,-0.5"/>
                </g>
               <g id="resetDef">
                       <use xlink:href="#rim2" fill="#404040">
                               <set attributeName="fill" to="#808080" begin="reset.mouseover" end="reset.mouseout"/>
                       </use>
               </g>
        </defs>

<script type="text/javascript">
var viewWidth = 516;
var viewHeight = 274;
var sectionId = 'dynsection-4';
</script>
<script xlink:href="svgpan.js"/>
<svg id="graph" class="graph">
<g id="viewport">
<title>G</title>
<polygon fill="white" stroke="white" points="-4,5 -4,-270 513,-270 513,5 -4,5"/>
<!-- Node1 -->
<g id="node1" class="node"><title>Node1</title>
<polygon fill="#bfbfbf" stroke="black" points="0.5,-114.5 0.5,-133.5 47.5,-133.5 47.5,-114.5 0.5,-114.5"/>
<text text-anchor="middle" x="24" y="-121.5" font-family="Helvetica,sans-Serif" font-size="10.00">MatClrf</text>
</g>
<!-- Node2 -->
<g id="node3" class="node"><title>Node2</title>
<a xlink:href="_david___calc_co_m_8h.html#a87e4908ddc041180e53e28286d691b80" target="_top" xlink:title="David_CalcCoM">
<polygon fill="white" stroke="black" points="84.5,-190.5 84.5,-209.5 169.5,-209.5 169.5,-190.5 84.5,-190.5"/>
<text text-anchor="middle" x="127" y="-197.5" font-family="Helvetica,sans-Serif" font-size="10.00">David_CalcCoM</text>
</a>
</g>
<!-- Node1&#45;&gt;Node2 -->
<g id="edge2" class="edge"><title>Node1&#45;&gt;Node2</title>
<path fill="none" stroke="midnightblue" d="M42.3949,-141.023C53.7475,-151.696 69.1646,-165.391 84,-176 91.2412,-181.178 99.6865,-186.183 107.097,-190.27"/>
<polygon fill="midnightblue" stroke="midnightblue" points="44.5611,-138.252 34.9133,-133.874 39.7248,-143.313 44.5611,-138.252"/>
</g>
<!-- Node3 -->
<g id="node5" class="node"><title>Node3</title>
<a xlink:href="_david___gravity_8h.html#a1f1e600a0c38ffaf69b85505ea4645d0" target="_top" xlink:title="David_Gravity">
<polygon fill="white" stroke="black" points="216.5,-228.5 216.5,-247.5 291.5,-247.5 291.5,-228.5 216.5,-228.5"/>
<text text-anchor="middle" x="254" y="-235.5" font-family="Helvetica,sans-Serif" font-size="10.00">David_Gravity</text>
</a>
</g>
<!-- Node1&#45;&gt;Node3 -->
<g id="edge16" class="edge"><title>Node1&#45;&gt;Node3</title>
<path fill="none" stroke="midnightblue" d="M31.1568,-143.268C39.3749,-165.56 56.2129,-201.443 84,-219 123.936,-244.233 179.968,-245.347 216.376,-242.634"/>
<polygon fill="midnightblue" stroke="midnightblue" points="34.3759,-141.867 27.8046,-133.557 27.759,-144.151 34.3759,-141.867"/>
</g>
<!-- Node6 -->
<g id="node12" class="node"><title>Node6</title>
<a xlink:href="_david___stabilizator_8h.html#a160d145abfa84a49d710ddcb384990ef" target="_top" xlink:title="David_Stabilizator">
<polygon fill="white" stroke="black" points="207,-152.5 207,-171.5 301,-171.5 301,-152.5 207,-152.5"/>
<text text-anchor="middle" x="254" y="-159.5" font-family="Helvetica,sans-Serif" font-size="10.00">David_Stabilizator</text>
</a>
</g>
<!-- Node1&#45;&gt;Node6 -->
<g id="edge18" class="edge"><title>Node1&#45;&gt;Node6</title>
<path fill="none" stroke="midnightblue" d="M57.316,-132.234C65.9512,-134.279 75.3014,-136.354 84,-138 125.347,-145.824 172.823,-152.353 206.906,-156.616"/>
<polygon fill="midnightblue" stroke="midnightblue" points="58.1327,-128.83 47.5895,-129.875 56.4827,-135.633 58.1327,-128.83"/>
</g>
<!-- Node7 -->
<g id="node17" class="node"><title>Node7</title>
<a xlink:href="_david__u_l_i_n_k_8h.html#adaa17668a497d22fe2cd4e7087336a86" target="_top" xlink:title="Initialize the link structure with the model value (used in control loop). See SetupRobot.">
<polygon fill="white" stroke="black" points="206,-114.5 206,-133.5 302,-133.5 302,-114.5 206,-114.5"/>
<text text-anchor="middle" x="254" y="-121.5" font-family="Helvetica,sans-Serif" font-size="10.00">David_SetupRobot</text>
</a>
</g>
<!-- Node1&#45;&gt;Node7 -->
<g id="edge20" class="edge"><title>Node1&#45;&gt;Node7</title>
<path fill="none" stroke="midnightblue" d="M57.931,-124C96.8109,-124 161.761,-124 205.94,-124"/>
<polygon fill="midnightblue" stroke="midnightblue" points="57.6951,-120.5 47.6951,-124 57.695,-127.5 57.6951,-120.5"/>
</g>
<!-- Node8 -->
<g id="node20" class="node"><title>Node8</title>
<a xlink:href="_mat_8h.html#a4f98bb027c14220a649c24928cf90cc4" target="_top" xlink:title="MatIf">
<polygon fill="white" stroke="black" points="108,-76.5 108,-95.5 146,-95.5 146,-76.5 108,-76.5"/>
<text text-anchor="middle" x="127" y="-83.5" font-family="Helvetica,sans-Serif" font-size="10.00">MatIf</text>
</a>
</g>
<!-- Node1&#45;&gt;Node8 -->
<g id="edge24" class="edge"><title>Node1&#45;&gt;Node8</title>
<path fill="none" stroke="midnightblue" d="M57.0934,-111.925C73.8321,-105.628 93.6965,-98.1538 107.786,-92.8526"/>
<polygon fill="midnightblue" stroke="midnightblue" points="55.7933,-108.675 47.6664,-115.472 58.2584,-115.226 55.7933,-108.675"/>
</g>
<!-- Node9 -->
<g id="node22" class="node"><title>Node9</title>
<a xlink:href="_mat_8h.html#a36041502ba33fb13a8c5b4f9112243b0" target="_top" xlink:title="MatPseudoInvf">
<polygon fill="white" stroke="black" points="87,-38.5 87,-57.5 167,-57.5 167,-38.5 87,-38.5"/>
<text text-anchor="middle" x="127" y="-45.5" font-family="Helvetica,sans-Serif" font-size="10.00">MatPseudoInvf</text>
</a>
</g>
<!-- Node1&#45;&gt;Node9 -->
<g id="edge26" class="edge"><title>Node1&#45;&gt;Node9</title>
<path fill="none" stroke="midnightblue" d="M39.874,-106.754C51.089,-94.5126 67.3419,-78.3109 84,-67 89.1644,-63.4934 95.0808,-60.3597 100.811,-57.6973"/>
<polygon fill="midnightblue" stroke="midnightblue" points="37.0195,-104.696 32.9716,-114.487 42.2418,-109.357 37.0195,-104.696"/>
</g>
<!-- Node10 -->
<g id="node24" class="node"><title>Node10</title>
<a xlink:href="_sherpa_8c.html#ad3548e136b9b35dcfb6c4023ce282125" target="_top" xlink:title="Asserv">
<polygon fill="white" stroke="black" points="104,-0.5 104,-19.5 150,-19.5 150,-0.5 104,-0.5"/>
<text text-anchor="middle" x="127" y="-7.5" font-family="Helvetica,sans-Serif" font-size="10.00">Asserv</text>
</a>
</g>
<!-- Node1&#45;&gt;Node10 -->
<g id="edge28" class="edge"><title>Node1&#45;&gt;Node10</title>
<path fill="none" stroke="midnightblue" d="M32.7712,-104.895C42.1629,-83.8701 59.7745,-50.2447 84,-29 89.6561,-24.0399 96.8212,-20.1606 103.625,-17.2373"/>
<polygon fill="midnightblue" stroke="midnightblue" points="29.4406,-103.782 28.7226,-114.352 35.8758,-106.537 29.4406,-103.782"/>
</g>
<!-- Node2&#45;&gt;Node3 -->
<g id="edge4" class="edge"><title>Node2&#45;&gt;Node3</title>
<path fill="none" stroke="midnightblue" d="M169.235,-212.535C186.239,-217.705 205.629,-223.599 221.467,-228.414"/>
<polygon fill="midnightblue" stroke="midnightblue" points="170.128,-209.149 159.543,-209.589 168.092,-215.846 170.128,-209.149"/>
</g>
<!-- Node4 -->
<g id="node8" class="node"><title>Node4</title>
<a xlink:href="_forward_dynamics_8h.html#a23609ae4e05df387941c4bbc7bfc26fe" target="_top" xlink:title="ForwardDynamics">
<polygon fill="white" stroke="black" points="338.5,-190.5 338.5,-209.5 433.5,-209.5 433.5,-190.5 338.5,-190.5"/>
<text text-anchor="middle" x="386" y="-197.5" font-family="Helvetica,sans-Serif" font-size="10.00">ForwardDynamics</text>
</a>
</g>
<!-- Node2&#45;&gt;Node4 -->
<g id="edge14" class="edge"><title>Node2&#45;&gt;Node4</title>
<path fill="none" stroke="midnightblue" d="M179.715,-200C226.074,-200 293.489,-200 338.258,-200"/>
<polygon fill="midnightblue" stroke="midnightblue" points="179.577,-196.5 169.577,-200 179.577,-203.5 179.577,-196.5"/>
</g>
<!-- Node2&#45;&gt;Node6 -->
<g id="edge12" class="edge"><title>Node2&#45;&gt;Node6</title>
<path fill="none" stroke="midnightblue" d="M169.235,-187.465C186.239,-182.295 205.629,-176.401 221.467,-171.586"/>
<polygon fill="midnightblue" stroke="midnightblue" points="168.092,-184.154 159.543,-190.411 170.128,-190.851 168.092,-184.154"/>
</g>
<!-- Node3&#45;&gt;Node3 -->
<g id="edge6" class="edge"><title>Node3&#45;&gt;Node3</title>
<path fill="none" stroke="midnightblue" d="M230.563,-257.029C231.841,-262.128 239.654,-266 254,-266 276.395,-266 282.868,-256.565 273.42,-247.757"/>
<polygon fill="midnightblue" stroke="midnightblue" points="233.816,-258.324 234.58,-247.757 227.393,-255.541 233.816,-258.324"/>
</g>
<!-- Node3&#45;&gt;Node4 -->
<g id="edge8" class="edge"><title>Node3&#45;&gt;Node4</title>
<path fill="none" stroke="midnightblue" d="M297.884,-225.465C315.569,-220.295 335.734,-214.401 352.206,-209.586"/>
<polygon fill="midnightblue" stroke="midnightblue" points="296.421,-222.246 287.804,-228.411 298.385,-228.965 296.421,-222.246"/>
</g>
<!-- Node5 -->
<g id="node10" class="node"><title>Node5</title>
<a xlink:href="main_8c.html#a0ddf1224851353fc92bfbff6f499fa97" target="_top" xlink:title="main">
<polygon fill="white" stroke="black" points="470,-190.5 470,-209.5 508,-209.5 508,-190.5 470,-190.5"/>
<text text-anchor="middle" x="489" y="-197.5" font-family="Helvetica,sans-Serif" font-size="10.00">main</text>
</a>
</g>
<!-- Node4&#45;&gt;Node5 -->
<g id="edge10" class="edge"><title>Node4&#45;&gt;Node5</title>
<path fill="none" stroke="midnightblue" d="M443.879,-200C453.25,-200 462.323,-200 469.779,-200"/>
<polygon fill="midnightblue" stroke="midnightblue" points="443.657,-196.5 433.657,-200 443.657,-203.5 443.657,-196.5"/>
</g>
<!-- Node7&#45;&gt;Node4 -->
<g id="edge22" class="edge"><title>Node7&#45;&gt;Node4</title>
<path fill="none" stroke="midnightblue" d="M291.082,-137.643C294.822,-139.336 298.523,-141.132 302,-143 328.64,-157.312 357.179,-178.311 372.884,-190.423"/>
<polygon fill="midnightblue" stroke="midnightblue" points="292.381,-134.392 281.811,-133.667 289.622,-140.825 292.381,-134.392"/>
</g>
<!-- Node11 -->
<g id="node26" class="node"><title>Node11</title>
<a xlink:href="_sherpa_8c.html#ae66f6b31b5ad750f1fe042a706a4e3d4" target="_top" xlink:title="main">
<polygon fill="white" stroke="black" points="235,-0.5 235,-19.5 273,-19.5 273,-0.5 235,-0.5"/>
<text text-anchor="middle" x="254" y="-7.5" font-family="Helvetica,sans-Serif" font-size="10.00">main</text>
</a>
</g>
<!-- Node10&#45;&gt;Node11 -->
<g id="edge30" class="edge"><title>Node10&#45;&gt;Node11</title>
<path fill="none" stroke="midnightblue" d="M160.341,-10C184.035,-10 215.334,-10 234.811,-10"/>
<polygon fill="midnightblue" stroke="midnightblue" points="160.06,-6.5001 150.06,-10 160.06,-13.5001 160.06,-6.5001"/>
</g>
</g>
</svg>
        <g id="navigator" transform="translate(0 0)" fill="#404254">
                <rect fill="#f2f5e9" fill-opacity="0.5" stroke="#606060" stroke-width=".5" x="0" y="0" width="60" height="60"/>
                <use id="zoomplus" xlink:href="#zoomPlus" x="17" y="9" onmousedown="handleZoom(evt,'in')"/>
                <use id="zoomminus" xlink:href="#zoomMin" x="42" y="9" onmousedown="handleZoom(evt,'out')"/>
                <use id="reset" xlink:href="#resetDef" x="30" y="36" onmousedown="handleReset()"/>
                <g id="arrowUp" xlink:href="#dirArrow" transform="translate(30 24)" onmousedown="handlePan(0,-1)">
                  <use xlink:href="#rim" fill="#404040">
                        <set attributeName="fill" to="#808080" begin="arrowUp.mouseover" end="arrowUp.mouseout"/>
                  </use>
                  <path fill="none" stroke="white" stroke-width="1.5" d="M0,-3.0v7 M-2.5,-0.5L0,-3.0L2.5,-0.5"/>
                </g>
                <g id="arrowRight" xlink:href="#dirArrow" transform="rotate(90) translate(36 -43)" onmousedown="handlePan(1,0)">
                  <use xlink:href="#rim" fill="#404040">
                        <set attributeName="fill" to="#808080" begin="arrowRight.mouseover" end="arrowRight.mouseout"/>
                  </use>
                  <path fill="none" stroke="white" stroke-width="1.5" d="M0,-3.0v7 M-2.5,-0.5L0,-3.0L2.5,-0.5"/>
                </g>
                <g id="arrowDown" xlink:href="#dirArrow" transform="rotate(180) translate(-30 -48)" onmousedown="handlePan(0,1)">
                  <use xlink:href="#rim" fill="#404040">
                        <set attributeName="fill" to="#808080" begin="arrowDown.mouseover" end="arrowDown.mouseout"/>
                  </use>
                  <path fill="none" stroke="white" stroke-width="1.5" d="M0,-3.0v7 M-2.5,-0.5L0,-3.0L2.5,-0.5"/>
                </g>
                <g id="arrowLeft" xlink:href="#dirArrow" transform="rotate(270) translate(-36 17)" onmousedown="handlePan(-1,0)">
                  <use xlink:href="#rim" fill="#404040">
                        <set attributeName="fill" to="#808080" begin="arrowLeft.mouseover" end="arrowLeft.mouseout"/>
                  </use>
                  <path fill="none" stroke="white" stroke-width="1.5" d="M0,-3.0v7 M-2.5,-0.5L0,-3.0L2.5,-0.5"/>
                </g>
        </g>
</svg>
