<?xml version="1.0" encoding="UTF-8" standalone="no"?>
<!DOCTYPE svg PUBLIC "-//W3C//DTD SVG 1.1//EN"
 "http://www.w3.org/Graphics/SVG/1.1/DTD/svg11.dtd">
<!-- Generated by graphviz version 2.28.0 (20110507.0327)
 -->
<!-- Title: G Pages: 1 -->
<!--zoomable-->
<svg id="main" version="1.1" xmlns="http://www.w3.org/2000/svg" xmlns:xlink="http://www.w3.org/1999/xlink" xml:space="preserve" onload="init(evt)">
        <defs>
                <circle id="rim" cx="0" cy="0" r="7"/>
                <circle id="rim2" cx="0" cy="0" r="3.5"/>
                <g id="zoomPlus">
                        <use xlink:href="#rim" fill="#404040">
                                <set attributeName="fill" to="#808080" begin="zoomplus.mouseover" end="zoomplus.mouseout"/>
                        </use>
                        <path d="M-4,0h8M0,-4v8" fill="none" stroke="white" stroke-width="1.5" pointer-events="none"/>
                </g>
                <g id="zoomMin">
                        <use xlink:href="#rim" fill="#404040">
                                <set attributeName="fill" to="#808080" begin="zoomminus.mouseover" end="zoomminus.mouseout"/>
                        </use>
                        <path d="M-4,0h8" fill="none" stroke="white" stroke-width="1.5" pointer-events="none"/>
                </g>
                <g id="dirArrow">
                        <path fill="none" stroke="white" stroke-width="1.5" d="M0,-3.0v7 M-2.5,-0.5L0,-3.0L2.5,-0.5"/>
                </g>
               <g id="resetDef">
                       <use xlink:href="#rim2" fill="#404040">
                               <set attributeName="fill" to="#808080" begin="reset.mouseover" end="reset.mouseout"/>
                       </use>
               </g>
        </defs>

<script type="text/javascript">
var viewWidth = 796;
var viewHeight = 85;
var sectionId = 'dynsection-3';
</script>
<script xlink:href="svgpan.js"/>
<svg id="graph" class="graph">
<g id="viewport">
<title>G</title>
<polygon fill="white" stroke="white" points="-4,5 -4,-81 793,-81 793,5 -4,5"/>
<!-- Node1 -->
<g id="node1" class="node"><title>Node1</title>
<polygon fill="#bfbfbf" stroke="black" points="0.5,-38.5 0.5,-57.5 45.5,-57.5 45.5,-38.5 0.5,-38.5"/>
<text text-anchor="middle" x="23" y="-45.5" font-family="Helvetica,sans-Serif" font-size="10.00">MatClr</text>
</g>
<!-- Node2 -->
<g id="node3" class="node"><title>Node2</title>
<a xlink:href="_mat_8h.html#a7d98c425d8fbed9f89fc28dd4dee8acb" target="_top" xlink:title="MatTest">
<polygon fill="white" stroke="black" points="215,-57.5 215,-76.5 267,-76.5 267,-57.5 215,-57.5"/>
<text text-anchor="middle" x="241" y="-64.5" font-family="Helvetica,sans-Serif" font-size="10.00">MatTest</text>
</a>
</g>
<!-- Node1&#45;&gt;Node2 -->
<g id="edge2" class="edge"><title>Node1&#45;&gt;Node2</title>
<path fill="none" stroke="midnightblue" d="M55.2152,-60.2253C63.7654,-63.0201 73.1256,-65.5835 82,-67 128.455,-74.4152 183.577,-71.8952 214.905,-69.4237"/>
<polygon fill="midnightblue" stroke="midnightblue" points="56.2227,-56.8701 45.6279,-56.8929 53.9245,-63.4821 56.2227,-56.8701"/>
</g>
<!-- Node3 -->
<g id="node5" class="node"><title>Node3</title>
<a xlink:href="_mat_8h.html#a9e1be75d926e81ca29ca09676705a51e" target="_top" xlink:title="MatI">
<polygon fill="white" stroke="black" points="103.5,-0.5 103.5,-19.5 138.5,-19.5 138.5,-0.5 103.5,-0.5"/>
<text text-anchor="middle" x="121" y="-7.5" font-family="Helvetica,sans-Serif" font-size="10.00">MatI</text>
</a>
</g>
<!-- Node1&#45;&gt;Node3 -->
<g id="edge4" class="edge"><title>Node1&#45;&gt;Node3</title>
<path fill="none" stroke="midnightblue" d="M55.315,-35.6045C71.3316,-29.2646 90.1791,-21.8041 103.384,-16.5771"/>
<polygon fill="midnightblue" stroke="midnightblue" points="53.7938,-32.4423 45.7839,-39.3772 56.3702,-38.951 53.7938,-32.4423"/>
</g>
<!-- Node9 -->
<g id="node19" class="node"><title>Node9</title>
<a xlink:href="_mat_8h.html#ad69af94eeacc496b61d9ae223568d40e" target="_top" xlink:title="MatPseudoInv">
<polygon fill="white" stroke="black" points="82.5,-38.5 82.5,-57.5 159.5,-57.5 159.5,-38.5 82.5,-38.5"/>
<text text-anchor="middle" x="121" y="-45.5" font-family="Helvetica,sans-Serif" font-size="10.00">MatPseudoInv</text>
</a>
</g>
<!-- Node1&#45;&gt;Node9 -->
<g id="edge20" class="edge"><title>Node1&#45;&gt;Node9</title>
<path fill="none" stroke="midnightblue" d="M56.0283,-48C64.5063,-48 73.7347,-48 82.4757,-48"/>
<polygon fill="midnightblue" stroke="midnightblue" points="55.7839,-44.5001 45.7839,-48 55.7839,-51.5001 55.7839,-44.5001"/>
</g>
<!-- Node4 -->
<g id="node7" class="node"><title>Node4</title>
<a xlink:href="_david___rodrigues_8h.html#a60a6dbedf38702ef67715eb17c6efadc" target="_top" xlink:title="David_Rodrigues">
<polygon fill="white" stroke="black" points="196.5,-0.5 196.5,-19.5 285.5,-19.5 285.5,-0.5 196.5,-0.5"/>
<text text-anchor="middle" x="241" y="-7.5" font-family="Helvetica,sans-Serif" font-size="10.00">David_Rodrigues</text>
</a>
</g>
<!-- Node3&#45;&gt;Node4 -->
<g id="edge6" class="edge"><title>Node3&#45;&gt;Node4</title>
<path fill="none" stroke="midnightblue" d="M148.661,-10C162.766,-10 180.439,-10 196.472,-10"/>
<polygon fill="midnightblue" stroke="midnightblue" points="148.656,-6.5001 138.656,-10 148.656,-13.5001 148.656,-6.5001"/>
</g>
<!-- Node5 -->
<g id="node9" class="node"><title>Node5</title>
<a xlink:href="_david___forward_kinematics_8h.html#ab4a9975fbdb8a88c795a8f0b5bf0bf97" target="_top" xlink:title="David_ForwardKinematics">
<polygon fill="white" stroke="black" points="322,-0.5 322,-19.5 450,-19.5 450,-0.5 322,-0.5"/>
<text text-anchor="middle" x="386" y="-7.5" font-family="Helvetica,sans-Serif" font-size="10.00">David_ForwardKinematics</text>
</a>
</g>
<!-- Node4&#45;&gt;Node5 -->
<g id="edge8" class="edge"><title>Node4&#45;&gt;Node5</title>
<path fill="none" stroke="midnightblue" d="M295.828,-10C304.32,-10 313.166,-10 321.846,-10"/>
<polygon fill="midnightblue" stroke="midnightblue" points="295.682,-6.5001 285.682,-10 295.682,-13.5001 295.682,-6.5001"/>
</g>
<!-- Node5&#45;&gt;Node5 -->
<g id="edge10" class="edge"><title>Node5&#45;&gt;Node5</title>
<path fill="none" stroke="midnightblue" d="M359.121,-28.6539C360.244,-33.9368 369.204,-38 386,-38 411.594,-38 418.992,-28.5653 408.195,-19.7571"/>
<polygon fill="midnightblue" stroke="midnightblue" points="362.243,-30.2361 363.805,-19.7571 356.049,-26.9747 362.243,-30.2361"/>
</g>
<!-- Node6 -->
<g id="node12" class="node"><title>Node6</title>
<a xlink:href="_david__u_l_i_n_k_8h.html#adaa17668a497d22fe2cd4e7087336a86" target="_top" xlink:title="Initialize the link structure with the model value (used in control loop). See SetupRobot.">
<polygon fill="white" stroke="black" points="486,-19.5 486,-38.5 582,-38.5 582,-19.5 486,-19.5"/>
<text text-anchor="middle" x="534" y="-26.5" font-family="Helvetica,sans-Serif" font-size="10.00">David_SetupRobot</text>
</a>
</g>
<!-- Node5&#45;&gt;Node6 -->
<g id="edge12" class="edge"><title>Node5&#45;&gt;Node6</title>
<path fill="none" stroke="midnightblue" d="M460.257,-19.5335C468.857,-20.6526 477.452,-21.7712 485.565,-22.8269"/>
<polygon fill="midnightblue" stroke="midnightblue" points="460.557,-16.043 450.189,-18.2232 459.653,-22.9845 460.557,-16.043"/>
</g>
<!-- Node7 -->
<g id="node14" class="node"><title>Node7</title>
<a xlink:href="_forward_dynamics_8h.html#a23609ae4e05df387941c4bbc7bfc26fe" target="_top" xlink:title="ForwardDynamics">
<polygon fill="white" stroke="black" points="618.5,-0.5 618.5,-19.5 713.5,-19.5 713.5,-0.5 618.5,-0.5"/>
<text text-anchor="middle" x="666" y="-7.5" font-family="Helvetica,sans-Serif" font-size="10.00">ForwardDynamics</text>
</a>
</g>
<!-- Node5&#45;&gt;Node7 -->
<g id="edge18" class="edge"><title>Node5&#45;&gt;Node7</title>
<path fill="none" stroke="midnightblue" d="M460.198,-10C510.217,-10 575.013,-10 618.192,-10"/>
<polygon fill="midnightblue" stroke="midnightblue" points="460.083,-6.5001 450.083,-10 460.082,-13.5001 460.083,-6.5001"/>
</g>
<!-- Node6&#45;&gt;Node7 -->
<g id="edge14" class="edge"><title>Node6&#45;&gt;Node7</title>
<path fill="none" stroke="midnightblue" d="M592.385,-20.613C601.079,-19.3423 609.958,-18.0446 618.387,-16.8127"/>
<polygon fill="midnightblue" stroke="midnightblue" points="591.689,-17.1774 582.301,-22.0868 592.702,-24.1038 591.689,-17.1774"/>
</g>
<!-- Node8 -->
<g id="node16" class="node"><title>Node8</title>
<a xlink:href="main_8c.html#a0ddf1224851353fc92bfbff6f499fa97" target="_top" xlink:title="main">
<polygon fill="white" stroke="black" points="750,-0.5 750,-19.5 788,-19.5 788,-0.5 750,-0.5"/>
<text text-anchor="middle" x="769" y="-7.5" font-family="Helvetica,sans-Serif" font-size="10.00">main</text>
</a>
</g>
<!-- Node7&#45;&gt;Node8 -->
<g id="edge16" class="edge"><title>Node7&#45;&gt;Node8</title>
<path fill="none" stroke="midnightblue" d="M723.879,-10C733.25,-10 742.323,-10 749.779,-10"/>
<polygon fill="midnightblue" stroke="midnightblue" points="723.657,-6.5001 713.657,-10 723.657,-13.5001 723.657,-6.5001"/>
</g>
<!-- Node9&#45;&gt;Node2 -->
<g id="edge22" class="edge"><title>Node9&#45;&gt;Node2</title>
<path fill="none" stroke="midnightblue" d="M169.656,-55.6735C185.178,-58.1727 201.788,-60.8473 214.968,-62.9695"/>
<polygon fill="midnightblue" stroke="midnightblue" points="170.09,-52.1982 159.66,-54.064 168.977,-59.1092 170.09,-52.1982"/>
</g>
</g>
</svg>
        <g id="navigator" transform="translate(0 0)" fill="#404254">
                <rect fill="#f2f5e9" fill-opacity="0.5" stroke="#606060" stroke-width=".5" x="0" y="0" width="60" height="60"/>
                <use id="zoomplus" xlink:href="#zoomPlus" x="17" y="9" onmousedown="handleZoom(evt,'in')"/>
                <use id="zoomminus" xlink:href="#zoomMin" x="42" y="9" onmousedown="handleZoom(evt,'out')"/>
                <use id="reset" xlink:href="#resetDef" x="30" y="36" onmousedown="handleReset()"/>
                <g id="arrowUp" xlink:href="#dirArrow" transform="translate(30 24)" onmousedown="handlePan(0,-1)">
                  <use xlink:href="#rim" fill="#404040">
                        <set attributeName="fill" to="#808080" begin="arrowUp.mouseover" end="arrowUp.mouseout"/>
                  </use>
                  <path fill="none" stroke="white" stroke-width="1.5" d="M0,-3.0v7 M-2.5,-0.5L0,-3.0L2.5,-0.5"/>
                </g>
                <g id="arrowRight" xlink:href="#dirArrow" transform="rotate(90) translate(36 -43)" onmousedown="handlePan(1,0)">
                  <use xlink:href="#rim" fill="#404040">
                        <set attributeName="fill" to="#808080" begin="arrowRight.mouseover" end="arrowRight.mouseout"/>
                  </use>
                  <path fill="none" stroke="white" stroke-width="1.5" d="M0,-3.0v7 M-2.5,-0.5L0,-3.0L2.5,-0.5"/>
                </g>
                <g id="arrowDown" xlink:href="#dirArrow" transform="rotate(180) translate(-30 -48)" onmousedown="handlePan(0,1)">
                  <use xlink:href="#rim" fill="#404040">
                        <set attributeName="fill" to="#808080" begin="arrowDown.mouseover" end="arrowDown.mouseout"/>
                  </use>
                  <path fill="none" stroke="white" stroke-width="1.5" d="M0,-3.0v7 M-2.5,-0.5L0,-3.0L2.5,-0.5"/>
                </g>
                <g id="arrowLeft" xlink:href="#dirArrow" transform="rotate(270) translate(-36 17)" onmousedown="handlePan(-1,0)">
                  <use xlink:href="#rim" fill="#404040">
                        <set attributeName="fill" to="#808080" begin="arrowLeft.mouseover" end="arrowLeft.mouseout"/>
                  </use>
                  <path fill="none" stroke="white" stroke-width="1.5" d="M0,-3.0v7 M-2.5,-0.5L0,-3.0L2.5,-0.5"/>
                </g>
        </g>
</svg>
