<?xml version="1.0" encoding="UTF-8" standalone="no"?>
<!DOCTYPE svg PUBLIC "-//W3C//DTD SVG 1.1//EN"
 "http://www.w3.org/Graphics/SVG/1.1/DTD/svg11.dtd">
<!-- Generated by graphviz version 2.28.0 (20110507.0327)
 -->
<!-- Title: G Pages: 1 -->
<svg width="268pt" height="28pt"
 viewBox="0.00 0.00 268.00 28.00" xmlns="http://www.w3.org/2000/svg" xmlns:xlink="http://www.w3.org/1999/xlink">
<g id="graph1" class="graph" transform="scale(1 1) rotate(0) translate(4 24)">
<title>G</title>
<polygon fill="white" stroke="white" points="-4,5 -4,-24 265,-24 265,5 -4,5"/>
<!-- Node1 -->
<g id="node1" class="node"><title>Node1</title>
<polygon fill="#bfbfbf" stroke="black" points="0.5,-0.5 0.5,-19.5 57.5,-19.5 57.5,-0.5 0.5,-0.5"/>
<text text-anchor="middle" x="29" y="-7.5" font-family="Helvetica,sans-Serif" font-size="10.00">MatTrans</text>
</g>
<!-- Node2 -->
<g id="node3" class="node"><title>Node2</title>
<a xlink:href="_mat_8h.html#ad69af94eeacc496b61d9ae223568d40e" target="_top" xlink:title="MatPseudoInv">
<polygon fill="white" stroke="black" points="94.5,-0.5 94.5,-19.5 171.5,-19.5 171.5,-0.5 94.5,-0.5"/>
<text text-anchor="middle" x="133" y="-7.5" font-family="Helvetica,sans-Serif" font-size="10.00">MatPseudoInv</text>
</a>
</g>
<!-- Node1&#45;&gt;Node2 -->
<g id="edge2" class="edge"><title>Node1&#45;&gt;Node2</title>
<path fill="none" stroke="midnightblue" d="M67.8449,-10C76.5242,-10 85.7491,-10 94.4173,-10"/>
<polygon fill="midnightblue" stroke="midnightblue" points="67.6027,-6.5001 57.6027,-10 67.6026,-13.5001 67.6027,-6.5001"/>
</g>
<!-- Node3 -->
<g id="node5" class="node"><title>Node3</title>
<a xlink:href="_mat_8h.html#a7d98c425d8fbed9f89fc28dd4dee8acb" target="_top" xlink:title="MatTest">
<polygon fill="white" stroke="black" points="208,-0.5 208,-19.5 260,-19.5 260,-0.5 208,-0.5"/>
<text text-anchor="middle" x="234" y="-7.5" font-family="Helvetica,sans-Serif" font-size="10.00">MatTest</text>
</a>
</g>
<!-- Node2&#45;&gt;Node3 -->
<g id="edge4" class="edge"><title>Node2&#45;&gt;Node3</title>
<path fill="none" stroke="midnightblue" d="M181.822,-10C190.863,-10 199.979,-10 207.961,-10"/>
<polygon fill="midnightblue" stroke="midnightblue" points="181.71,-6.5001 171.71,-10 181.71,-13.5001 181.71,-6.5001"/>
</g>
</g>
</svg>
