<?xml version="1.0" encoding="UTF-8" standalone="no"?>
<!DOCTYPE svg PUBLIC "-//W3C//DTD SVG 1.1//EN"
 "http://www.w3.org/Graphics/SVG/1.1/DTD/svg11.dtd">
<!-- Generated by graphviz version 2.28.0 (20110507.0327)
 -->
<!-- Title: G Pages: 1 -->
<svg width="270pt" height="66pt"
 viewBox="0.00 0.00 270.00 66.00" xmlns="http://www.w3.org/2000/svg" xmlns:xlink="http://www.w3.org/1999/xlink">
<g id="graph1" class="graph" transform="scale(1 1) rotate(0) translate(4 62)">
<title>G</title>
<polygon fill="white" stroke="white" points="-4,5 -4,-62 267,-62 267,5 -4,5"/>
<!-- Node1 -->
<g id="node1" class="node"><title>Node1</title>
<polygon fill="#bfbfbf" stroke="black" points="0,-19.5 0,-38.5 86,-38.5 86,-19.5 0,-19.5"/>
<text text-anchor="middle" x="43" y="-26.5" font-family="Helvetica,sans-Serif" font-size="10.00">MatProVectoriel</text>
</g>
<!-- Node2 -->
<g id="node3" class="node"><title>Node2</title>
<a xlink:href="_mat_8c.html#a271708fa4a26745632412df2d7b894d1" target="_top" xlink:title="MatTilde">
<polygon fill="white" stroke="black" points="122.5,-38.5 122.5,-57.5 175.5,-57.5 175.5,-38.5 122.5,-38.5"/>
<text text-anchor="middle" x="149" y="-45.5" font-family="Helvetica,sans-Serif" font-size="10.00">MatTilde</text>
</a>
</g>
<!-- Node1&#45;&gt;Node2 -->
<g id="edge2" class="edge"><title>Node1&#45;&gt;Node2</title>
<path fill="none" stroke="midnightblue" d="M86.001,-36.6733C94.7382,-38.2695 103.867,-39.9372 112.349,-41.4869"/>
<polygon fill="midnightblue" stroke="midnightblue" points="111.839,-44.9516 122.306,-43.3058 113.098,-38.0656 111.839,-44.9516"/>
</g>
<!-- Node3 -->
<g id="node5" class="node"><title>Node3</title>
<a xlink:href="_mat_8c.html#acc421a6e03e48657b74bcaa1fb2dd578" target="_top" xlink:title="MatMul">
<polygon fill="white" stroke="black" points="124.5,-0.5 124.5,-19.5 173.5,-19.5 173.5,-0.5 124.5,-0.5"/>
<text text-anchor="middle" x="149" y="-7.5" font-family="Helvetica,sans-Serif" font-size="10.00">MatMul</text>
</a>
</g>
<!-- Node1&#45;&gt;Node3 -->
<g id="edge4" class="edge"><title>Node1&#45;&gt;Node3</title>
<path fill="none" stroke="midnightblue" d="M86.001,-21.3267C95.4015,-19.6093 105.255,-17.8092 114.269,-16.1623"/>
<polygon fill="midnightblue" stroke="midnightblue" points="115.18,-19.5539 124.389,-14.3136 113.922,-12.6679 115.18,-19.5539"/>
</g>
<!-- Node4 -->
<g id="node7" class="node"><title>Node4</title>
<a xlink:href="_mat_8c.html#af8d2fa33b5e306753bc588565f8ac12b" target="_top" xlink:title="MatCpy">
<polygon fill="white" stroke="black" points="212,-0.5 212,-19.5 262,-19.5 262,-0.5 212,-0.5"/>
<text text-anchor="middle" x="237" y="-7.5" font-family="Helvetica,sans-Serif" font-size="10.00">MatCpy</text>
</a>
</g>
<!-- Node3&#45;&gt;Node4 -->
<g id="edge6" class="edge"><title>Node3&#45;&gt;Node4</title>
<path fill="none" stroke="midnightblue" d="M173.956,-10C182.55,-10 192.416,-10 201.715,-10"/>
<polygon fill="midnightblue" stroke="midnightblue" points="201.874,-13.5001 211.874,-10 201.874,-6.5001 201.874,-13.5001"/>
</g>
</g>
</svg>
