<?xml version="1.0" encoding="UTF-8" standalone="no"?>
<!DOCTYPE svg PUBLIC "-//W3C//DTD SVG 1.1//EN"
 "http://www.w3.org/Graphics/SVG/1.1/DTD/svg11.dtd">
<!-- Generated by graphviz version 2.28.0 (20110507.0327)
 -->
<!-- Title: G Pages: 1 -->
<!--zoomable-->
<svg id="main" version="1.1" xmlns="http://www.w3.org/2000/svg" xmlns:xlink="http://www.w3.org/1999/xlink" xml:space="preserve" onload="init(evt)">
        <defs>
                <circle id="rim" cx="0" cy="0" r="7"/>
                <circle id="rim2" cx="0" cy="0" r="3.5"/>
                <g id="zoomPlus">
                        <use xlink:href="#rim" fill="#404040">
                                <set attributeName="fill" to="#808080" begin="zoomplus.mouseover" end="zoomplus.mouseout"/>
                        </use>
                        <path d="M-4,0h8M0,-4v8" fill="none" stroke="white" stroke-width="1.5" pointer-events="none"/>
                </g>
                <g id="zoomMin">
                        <use xlink:href="#rim" fill="#404040">
                                <set attributeName="fill" to="#808080" begin="zoomminus.mouseover" end="zoomminus.mouseout"/>
                        </use>
                        <path d="M-4,0h8" fill="none" stroke="white" stroke-width="1.5" pointer-events="none"/>
                </g>
                <g id="dirArrow">
                        <path fill="none" stroke="white" stroke-width="1.5" d="M0,-3.0v7 M-2.5,-0.5L0,-3.0L2.5,-0.5"/>
                </g>
               <g id="resetDef">
                       <use xlink:href="#rim2" fill="#404040">
                               <set attributeName="fill" to="#808080" begin="reset.mouseover" end="reset.mouseout"/>
                       </use>
               </g>
        </defs>

<script type="text/javascript">
var viewWidth = 708;
var viewHeight = 283;
var sectionId = 'dynsection-16';
</script>
<script xlink:href="svgpan.js"/>
<svg id="graph" class="graph">
<g id="viewport">
<title>G</title>
<polygon fill="white" stroke="white" points="-4,5 -4,-279 705,-279 705,5 -4,5"/>
<!-- Node1 -->
<g id="node1" class="node"><title>Node1</title>
<polygon fill="#bfbfbf" stroke="black" points="0.5,-95.5 0.5,-114.5 71.5,-114.5 71.5,-95.5 0.5,-95.5"/>
<text text-anchor="middle" x="36" y="-102.5" font-family="Helvetica,sans-Serif" font-size="10.00">MatMulScalf</text>
</g>
<!-- Node2 -->
<g id="node3" class="node"><title>Node2</title>
<a xlink:href="_david___calc_co_m_8h.html#a87e4908ddc041180e53e28286d691b80" target="_top" xlink:title="David_CalcCoM">
<polygon fill="white" stroke="black" points="255.5,-199.5 255.5,-218.5 340.5,-218.5 340.5,-199.5 255.5,-199.5"/>
<text text-anchor="middle" x="298" y="-206.5" font-family="Helvetica,sans-Serif" font-size="10.00">David_CalcCoM</text>
</a>
</g>
<!-- Node1&#45;&gt;Node2 -->
<g id="edge2" class="edge"><title>Node1&#45;&gt;Node2</title>
<path fill="none" stroke="midnightblue" d="M45.1009,-123.845C55.8533,-146.232 77.146,-182.607 108,-199 153.847,-223.359 215.096,-221.459 255.27,-216.435"/>
<polygon fill="midnightblue" stroke="midnightblue" points="48.2457,-122.306 40.9059,-114.665 41.879,-125.215 48.2457,-122.306"/>
</g>
<!-- Node7 -->
<g id="node15" class="node"><title>Node7</title>
<a xlink:href="_david___calc_m_c_8h.html#a5877c51babeda61b69280e4dc6ed28dd" target="_top" xlink:title="David_CalcMC">
<polygon fill="white" stroke="black" points="113,-152.5 113,-171.5 193,-171.5 193,-152.5 113,-152.5"/>
<text text-anchor="middle" x="153" y="-159.5" font-family="Helvetica,sans-Serif" font-size="10.00">David_CalcMC</text>
</a>
</g>
<!-- Node1&#45;&gt;Node7 -->
<g id="edge16" class="edge"><title>Node1&#45;&gt;Node7</title>
<path fill="none" stroke="midnightblue" d="M63.0641,-119.625C76.3728,-126.919 92.9025,-135.716 108,-143 114.745,-146.254 122.185,-149.568 128.999,-152.499"/>
<polygon fill="midnightblue" stroke="midnightblue" points="64.4546,-116.395 54.0091,-114.622 61.0694,-122.522 64.4546,-116.395"/>
</g>
<!-- Node8 -->
<g id="node19" class="node"><title>Node8</title>
<a xlink:href="_david___rodrigues_8h.html#a60a6dbedf38702ef67715eb17c6efadc" target="_top" xlink:title="David_Rodrigues">
<polygon fill="white" stroke="black" points="108.5,-114.5 108.5,-133.5 197.5,-133.5 197.5,-114.5 108.5,-114.5"/>
<text text-anchor="middle" x="153" y="-121.5" font-family="Helvetica,sans-Serif" font-size="10.00">David_Rodrigues</text>
</a>
</g>
<!-- Node1&#45;&gt;Node8 -->
<g id="edge22" class="edge"><title>Node1&#45;&gt;Node8</title>
<path fill="none" stroke="midnightblue" d="M81.5145,-112.355C90.2514,-113.798 99.4104,-115.311 108.126,-116.751"/>
<polygon fill="midnightblue" stroke="midnightblue" points="81.9406,-108.878 71.5038,-110.701 80.7995,-115.784 81.9406,-108.878"/>
</g>
<!-- Node11 -->
<g id="node28" class="node"><title>Node11</title>
<a xlink:href="_mat_8h.html#a36041502ba33fb13a8c5b4f9112243b0" target="_top" xlink:title="MatPseudoInvf">
<polygon fill="white" stroke="black" points="113,-76.5 113,-95.5 193,-95.5 193,-76.5 113,-76.5"/>
<text text-anchor="middle" x="153" y="-83.5" font-family="Helvetica,sans-Serif" font-size="10.00">MatPseudoInvf</text>
</a>
</g>
<!-- Node1&#45;&gt;Node11 -->
<g id="edge34" class="edge"><title>Node1&#45;&gt;Node11</title>
<path fill="none" stroke="midnightblue" d="M81.5276,-97.6433C91.7976,-95.9465 102.65,-94.1535 112.68,-92.4964"/>
<polygon fill="midnightblue" stroke="midnightblue" points="80.7995,-94.216 71.5038,-99.2994 81.9406,-101.122 80.7995,-94.216"/>
</g>
<!-- Node12 -->
<g id="node30" class="node"><title>Node12</title>
<a xlink:href="_sherpa_8c.html#a7629767cc0bbef801b5565542b55a270" target="_top" xlink:title="MC">
<polygon fill="white" stroke="black" points="137,-0.5 137,-19.5 169,-19.5 169,-0.5 137,-0.5"/>
<text text-anchor="middle" x="153" y="-7.5" font-family="Helvetica,sans-Serif" font-size="10.00">MC</text>
</a>
</g>
<!-- Node1&#45;&gt;Node12 -->
<g id="edge36" class="edge"><title>Node1&#45;&gt;Node12</title>
<path fill="none" stroke="midnightblue" d="M51.7114,-87.6966C65.2994,-72.3821 86.5665,-50.0374 108,-34 116.918,-27.3274 127.918,-21.3274 136.688,-16.9956"/>
<polygon fill="midnightblue" stroke="midnightblue" points="48.9321,-85.5584 45.0002,-95.3967 54.2091,-90.1577 48.9321,-85.5584"/>
</g>
<!-- Node13 -->
<g id="node32" class="node"><title>Node13</title>
<a xlink:href="_sherpa_8c.html#ad3548e136b9b35dcfb6c4023ce282125" target="_top" xlink:title="Asserv">
<polygon fill="white" stroke="black" points="275,-38.5 275,-57.5 321,-57.5 321,-38.5 275,-38.5"/>
<text text-anchor="middle" x="298" y="-45.5" font-family="Helvetica,sans-Serif" font-size="10.00">Asserv</text>
</a>
</g>
<!-- Node1&#45;&gt;Node13 -->
<g id="edge44" class="edge"><title>Node1&#45;&gt;Node13</title>
<path fill="none" stroke="midnightblue" d="M59.5431,-89.9845C73.0278,-81.7724 90.8316,-72.232 108,-67 166.359,-49.2152 239.073,-47.2126 274.917,-47.4698"/>
<polygon fill="midnightblue" stroke="midnightblue" points="57.5568,-87.0991 50.9584,-95.3884 61.2859,-93.0231 57.5568,-87.0991"/>
</g>
<!-- Node3 -->
<g id="node5" class="node"><title>Node3</title>
<a xlink:href="_david___gravity_8h.html#a1f1e600a0c38ffaf69b85505ea4645d0" target="_top" xlink:title="David_Gravity">
<polygon fill="white" stroke="black" points="408.5,-237.5 408.5,-256.5 483.5,-256.5 483.5,-237.5 408.5,-237.5"/>
<text text-anchor="middle" x="446" y="-244.5" font-family="Helvetica,sans-Serif" font-size="10.00">David_Gravity</text>
</a>
</g>
<!-- Node2&#45;&gt;Node3 -->
<g id="edge4" class="edge"><title>Node2&#45;&gt;Node3</title>
<path fill="none" stroke="midnightblue" d="M345.536,-221.112C365.87,-226.404 389.371,-232.521 408.423,-237.48"/>
<polygon fill="midnightblue" stroke="midnightblue" points="346.401,-217.721 335.842,-218.589 344.638,-224.495 346.401,-217.721"/>
</g>
<!-- Node4 -->
<g id="node8" class="node"><title>Node4</title>
<a xlink:href="_forward_dynamics_8h.html#a23609ae4e05df387941c4bbc7bfc26fe" target="_top" xlink:title="ForwardDynamics">
<polygon fill="white" stroke="black" points="530.5,-161.5 530.5,-180.5 625.5,-180.5 625.5,-161.5 530.5,-161.5"/>
<text text-anchor="middle" x="578" y="-168.5" font-family="Helvetica,sans-Serif" font-size="10.00">ForwardDynamics</text>
</a>
</g>
<!-- Node2&#45;&gt;Node4 -->
<g id="edge14" class="edge"><title>Node2&#45;&gt;Node4</title>
<path fill="none" stroke="midnightblue" d="M350.83,-205.763C390.259,-202.862 445.767,-197.838 494,-190 509.175,-187.534 525.718,-183.936 540.014,-180.533"/>
<polygon fill="midnightblue" stroke="midnightblue" points="350.387,-202.285 340.662,-206.49 350.886,-209.267 350.387,-202.285"/>
</g>
<!-- Node6 -->
<g id="node12" class="node"><title>Node6</title>
<a xlink:href="_david___stabilizator_8h.html#a160d145abfa84a49d710ddcb384990ef" target="_top" xlink:title="David_Stabilizator">
<polygon fill="white" stroke="black" points="399,-161.5 399,-180.5 493,-180.5 493,-161.5 399,-161.5"/>
<text text-anchor="middle" x="446" y="-168.5" font-family="Helvetica,sans-Serif" font-size="10.00">David_Stabilizator</text>
</a>
</g>
<!-- Node2&#45;&gt;Node6 -->
<g id="edge12" class="edge"><title>Node2&#45;&gt;Node6</title>
<path fill="none" stroke="midnightblue" d="M345.536,-196.888C365.87,-191.596 389.371,-185.479 408.423,-180.52"/>
<polygon fill="midnightblue" stroke="midnightblue" points="344.638,-193.505 335.842,-199.411 346.401,-200.279 344.638,-193.505"/>
</g>
<!-- Node3&#45;&gt;Node3 -->
<g id="edge6" class="edge"><title>Node3&#45;&gt;Node3</title>
<path fill="none" stroke="midnightblue" d="M421.447,-266.029C422.786,-271.128 430.97,-275 446,-275 469.461,-275 476.243,-265.565 466.345,-256.757"/>
<polygon fill="midnightblue" stroke="midnightblue" points="424.709,-267.31 425.655,-256.757 418.335,-264.416 424.709,-267.31"/>
</g>
<!-- Node3&#45;&gt;Node4 -->
<g id="edge8" class="edge"><title>Node3&#45;&gt;Node4</title>
<path fill="none" stroke="midnightblue" d="M475.998,-232.695C482.001,-229.594 488.247,-226.263 494,-223 518.553,-209.075 546.163,-191.345 562.542,-180.599"/>
<polygon fill="midnightblue" stroke="midnightblue" points="474.198,-229.684 466.87,-237.337 477.37,-235.924 474.198,-229.684"/>
</g>
<!-- Node5 -->
<g id="node10" class="node"><title>Node5</title>
<a xlink:href="main_8c.html#a0ddf1224851353fc92bfbff6f499fa97" target="_top" xlink:title="main">
<polygon fill="white" stroke="black" points="662,-161.5 662,-180.5 700,-180.5 700,-161.5 662,-161.5"/>
<text text-anchor="middle" x="681" y="-168.5" font-family="Helvetica,sans-Serif" font-size="10.00">main</text>
</a>
</g>
<!-- Node4&#45;&gt;Node5 -->
<g id="edge10" class="edge"><title>Node4&#45;&gt;Node5</title>
<path fill="none" stroke="midnightblue" d="M635.879,-171C645.25,-171 654.323,-171 661.779,-171"/>
<polygon fill="midnightblue" stroke="midnightblue" points="635.657,-167.5 625.657,-171 635.657,-174.5 635.657,-167.5"/>
</g>
<!-- Node7&#45;&gt;Node2 -->
<g id="edge18" class="edge"><title>Node7&#45;&gt;Node2</title>
<path fill="none" stroke="midnightblue" d="M192.637,-174.699C216.235,-182.455 245.937,-192.217 267.614,-199.342"/>
<polygon fill="midnightblue" stroke="midnightblue" points="193.531,-171.309 182.938,-171.511 191.345,-177.959 193.531,-171.309"/>
</g>
<!-- Node7&#45;&gt;Node7 -->
<g id="edge20" class="edge"><title>Node7&#45;&gt;Node7</title>
<path fill="none" stroke="midnightblue" d="M131.52,-181.4C132.954,-186.315 140.114,-190 153,-190 173.617,-190 179.577,-180.565 170.879,-171.757"/>
<polygon fill="midnightblue" stroke="midnightblue" points="134.901,-182.35 135.121,-171.757 128.343,-179.9 134.901,-182.35"/>
</g>
<!-- Node9 -->
<g id="node21" class="node"><title>Node9</title>
<a xlink:href="_david___forward_kinematics_8h.html#ab4a9975fbdb8a88c795a8f0b5bf0bf97" target="_top" xlink:title="David_ForwardKinematics">
<polygon fill="white" stroke="black" points="234,-114.5 234,-133.5 362,-133.5 362,-114.5 234,-114.5"/>
<text text-anchor="middle" x="298" y="-121.5" font-family="Helvetica,sans-Serif" font-size="10.00">David_ForwardKinematics</text>
</a>
</g>
<!-- Node8&#45;&gt;Node9 -->
<g id="edge24" class="edge"><title>Node8&#45;&gt;Node9</title>
<path fill="none" stroke="midnightblue" d="M207.828,-124C216.32,-124 225.166,-124 233.846,-124"/>
<polygon fill="midnightblue" stroke="midnightblue" points="207.682,-120.5 197.682,-124 207.682,-127.5 207.682,-120.5"/>
</g>
<!-- Node9&#45;&gt;Node4 -->
<g id="edge32" class="edge"><title>Node9&#45;&gt;Node4</title>
<path fill="none" stroke="midnightblue" d="M372.124,-133.047C408.822,-137.956 453.89,-144.543 494,-152 508.533,-154.702 524.377,-158.192 538.29,-161.443"/>
<polygon fill="midnightblue" stroke="midnightblue" points="372.379,-129.55 362.006,-131.708 371.461,-136.49 372.379,-129.55"/>
</g>
<!-- Node9&#45;&gt;Node9 -->
<g id="edge26" class="edge"><title>Node9&#45;&gt;Node9</title>
<path fill="none" stroke="midnightblue" d="M271.121,-142.654C272.244,-147.937 281.204,-152 298,-152 323.594,-152 330.992,-142.565 320.195,-133.757"/>
<polygon fill="midnightblue" stroke="midnightblue" points="274.243,-144.236 275.805,-133.757 268.049,-140.975 274.243,-144.236"/>
</g>
<!-- Node10 -->
<g id="node24" class="node"><title>Node10</title>
<a xlink:href="_david__u_l_i_n_k_8h.html#adaa17668a497d22fe2cd4e7087336a86" target="_top" xlink:title="Initialize the link structure with the model value (used in control loop). See SetupRobot.">
<polygon fill="white" stroke="black" points="398,-85.5 398,-104.5 494,-104.5 494,-85.5 398,-85.5"/>
<text text-anchor="middle" x="446" y="-92.5" font-family="Helvetica,sans-Serif" font-size="10.00">David_SetupRobot</text>
</a>
</g>
<!-- Node9&#45;&gt;Node10 -->
<g id="edge28" class="edge"><title>Node9&#45;&gt;Node10</title>
<path fill="none" stroke="midnightblue" d="M357.33,-112.414C370.782,-109.742 384.927,-106.932 397.834,-104.369"/>
<polygon fill="midnightblue" stroke="midnightblue" points="356.337,-109.043 347.21,-114.424 357.701,-115.909 356.337,-109.043"/>
</g>
<!-- Node10&#45;&gt;Node4 -->
<g id="edge30" class="edge"><title>Node10&#45;&gt;Node4</title>
<path fill="none" stroke="midnightblue" d="M475.998,-109.305C482.001,-112.406 488.247,-115.737 494,-119 518.553,-132.925 546.163,-150.655 562.542,-161.401"/>
<polygon fill="midnightblue" stroke="midnightblue" points="477.37,-106.076 466.87,-104.663 474.198,-112.316 477.37,-106.076"/>
</g>
<!-- Node12&#45;&gt;Node13 -->
<g id="edge38" class="edge"><title>Node12&#45;&gt;Node13</title>
<path fill="none" stroke="midnightblue" d="M178.893,-16.6149C205.936,-23.801 248.741,-35.176 274.715,-42.0781"/>
<polygon fill="midnightblue" stroke="midnightblue" points="179.597,-13.1805 169.033,-13.9948 177.799,-19.9457 179.597,-13.1805"/>
</g>
<!-- Node14 -->
<g id="node34" class="node"><title>Node14</title>
<a xlink:href="_sherpa_8c.html#ae66f6b31b5ad750f1fe042a706a4e3d4" target="_top" xlink:title="main">
<polygon fill="white" stroke="black" points="427,-19.5 427,-38.5 465,-38.5 465,-19.5 427,-19.5"/>
<text text-anchor="middle" x="446" y="-26.5" font-family="Helvetica,sans-Serif" font-size="10.00">main</text>
</a>
</g>
<!-- Node12&#45;&gt;Node14 -->
<g id="edge42" class="edge"><title>Node12&#45;&gt;Node14</title>
<path fill="none" stroke="midnightblue" d="M179.293,-11.6514C236.833,-15.4084 376.422,-24.5224 426.629,-27.8005"/>
<polygon fill="midnightblue" stroke="midnightblue" points="179.443,-8.15383 169.236,-10.9948 178.986,-15.139 179.443,-8.15383"/>
</g>
<!-- Node13&#45;&gt;Node14 -->
<g id="edge40" class="edge"><title>Node13&#45;&gt;Node14</title>
<path fill="none" stroke="midnightblue" d="M331.348,-43.7904C360.699,-39.9706 402.924,-34.4757 426.779,-31.3712"/>
<polygon fill="midnightblue" stroke="midnightblue" points="330.639,-40.353 321.174,-45.1143 331.542,-47.2945 330.639,-40.353"/>
</g>
</g>
</svg>
        <g id="navigator" transform="translate(0 0)" fill="#404254">
                <rect fill="#f2f5e9" fill-opacity="0.5" stroke="#606060" stroke-width=".5" x="0" y="0" width="60" height="60"/>
                <use id="zoomplus" xlink:href="#zoomPlus" x="17" y="9" onmousedown="handleZoom(evt,'in')"/>
                <use id="zoomminus" xlink:href="#zoomMin" x="42" y="9" onmousedown="handleZoom(evt,'out')"/>
                <use id="reset" xlink:href="#resetDef" x="30" y="36" onmousedown="handleReset()"/>
                <g id="arrowUp" xlink:href="#dirArrow" transform="translate(30 24)" onmousedown="handlePan(0,-1)">
                  <use xlink:href="#rim" fill="#404040">
                        <set attributeName="fill" to="#808080" begin="arrowUp.mouseover" end="arrowUp.mouseout"/>
                  </use>
                  <path fill="none" stroke="white" stroke-width="1.5" d="M0,-3.0v7 M-2.5,-0.5L0,-3.0L2.5,-0.5"/>
                </g>
                <g id="arrowRight" xlink:href="#dirArrow" transform="rotate(90) translate(36 -43)" onmousedown="handlePan(1,0)">
                  <use xlink:href="#rim" fill="#404040">
                        <set attributeName="fill" to="#808080" begin="arrowRight.mouseover" end="arrowRight.mouseout"/>
                  </use>
                  <path fill="none" stroke="white" stroke-width="1.5" d="M0,-3.0v7 M-2.5,-0.5L0,-3.0L2.5,-0.5"/>
                </g>
                <g id="arrowDown" xlink:href="#dirArrow" transform="rotate(180) translate(-30 -48)" onmousedown="handlePan(0,1)">
                  <use xlink:href="#rim" fill="#404040">
                        <set attributeName="fill" to="#808080" begin="arrowDown.mouseover" end="arrowDown.mouseout"/>
                  </use>
                  <path fill="none" stroke="white" stroke-width="1.5" d="M0,-3.0v7 M-2.5,-0.5L0,-3.0L2.5,-0.5"/>
                </g>
                <g id="arrowLeft" xlink:href="#dirArrow" transform="rotate(270) translate(-36 17)" onmousedown="handlePan(-1,0)">
                  <use xlink:href="#rim" fill="#404040">
                        <set attributeName="fill" to="#808080" begin="arrowLeft.mouseover" end="arrowLeft.mouseout"/>
                  </use>
                  <path fill="none" stroke="white" stroke-width="1.5" d="M0,-3.0v7 M-2.5,-0.5L0,-3.0L2.5,-0.5"/>
                </g>
        </g>
</svg>
