<?xml version="1.0" encoding="UTF-8" standalone="no"?>
<!DOCTYPE svg PUBLIC "-//W3C//DTD SVG 1.1//EN"
 "http://www.w3.org/Graphics/SVG/1.1/DTD/svg11.dtd">
<!-- Generated by graphviz version 2.28.0 (20110507.0327)
 -->
<!-- Title: G Pages: 1 -->
<svg width="282pt" height="47pt"
 viewBox="0.00 0.00 282.00 47.00" xmlns="http://www.w3.org/2000/svg" xmlns:xlink="http://www.w3.org/1999/xlink">
<g id="graph1" class="graph" transform="scale(1 1) rotate(0) translate(4 43)">
<title>G</title>
<polygon fill="white" stroke="white" points="-4,5 -4,-43 279,-43 279,5 -4,5"/>
<!-- Node1 -->
<g id="node1" class="node"><title>Node1</title>
<polygon fill="#bfbfbf" stroke="black" points="0,-0.5 0,-19.5 50,-19.5 50,-0.5 0,-0.5"/>
<text text-anchor="middle" x="25" y="-7.5" font-family="Helvetica,sans-Serif" font-size="10.00">MatSetf</text>
</g>
<!-- Node2 -->
<g id="node3" class="node"><title>Node2</title>
<a xlink:href="_sherpa_8c.html#a7629767cc0bbef801b5565542b55a270" target="_top" xlink:title="MC">
<polygon fill="white" stroke="black" points="86,-0.5 86,-19.5 118,-19.5 118,-0.5 86,-0.5"/>
<text text-anchor="middle" x="102" y="-7.5" font-family="Helvetica,sans-Serif" font-size="10.00">MC</text>
</a>
</g>
<!-- Node1&#45;&gt;Node2 -->
<g id="edge2" class="edge"><title>Node1&#45;&gt;Node2</title>
<path fill="none" stroke="midnightblue" d="M60.3204,-10C69.1852,-10 78.2888,-10 85.6303,-10"/>
<polygon fill="midnightblue" stroke="midnightblue" points="60.1433,-6.5001 50.1433,-10 60.1433,-13.5001 60.1433,-6.5001"/>
</g>
<!-- Node3 -->
<g id="node5" class="node"><title>Node3</title>
<a xlink:href="_sherpa_8c.html#ad3548e136b9b35dcfb6c4023ce282125" target="_top" xlink:title="Asserv">
<polygon fill="white" stroke="black" points="154,-19.5 154,-38.5 200,-38.5 200,-19.5 154,-19.5"/>
<text text-anchor="middle" x="177" y="-26.5" font-family="Helvetica,sans-Serif" font-size="10.00">Asserv</text>
</a>
</g>
<!-- Node2&#45;&gt;Node3 -->
<g id="edge4" class="edge"><title>Node2&#45;&gt;Node3</title>
<path fill="none" stroke="midnightblue" d="M127.854,-16.4689C136.326,-18.6739 145.733,-21.1223 153.968,-23.2655"/>
<polygon fill="midnightblue" stroke="midnightblue" points="128.685,-13.0686 118.126,-13.9368 126.922,-19.8429 128.685,-13.0686"/>
</g>
<!-- Node4 -->
<g id="node7" class="node"><title>Node4</title>
<a xlink:href="_sherpa_8c.html#ae66f6b31b5ad750f1fe042a706a4e3d4" target="_top" xlink:title="main">
<polygon fill="white" stroke="black" points="236,-0.5 236,-19.5 274,-19.5 274,-0.5 236,-0.5"/>
<text text-anchor="middle" x="255" y="-7.5" font-family="Helvetica,sans-Serif" font-size="10.00">main</text>
</a>
</g>
<!-- Node2&#45;&gt;Node4 -->
<g id="edge8" class="edge"><title>Node2&#45;&gt;Node4</title>
<path fill="none" stroke="midnightblue" d="M128.246,-10C158.634,-10 208.919,-10 235.772,-10"/>
<polygon fill="midnightblue" stroke="midnightblue" points="128.031,-6.5001 118.031,-10 128.03,-13.5001 128.031,-6.5001"/>
</g>
<!-- Node3&#45;&gt;Node4 -->
<g id="edge6" class="edge"><title>Node3&#45;&gt;Node4</title>
<path fill="none" stroke="midnightblue" d="M210.258,-20.9354C218.918,-18.7706 227.984,-16.504 235.603,-14.5994"/>
<polygon fill="midnightblue" stroke="midnightblue" points="209.244,-17.5812 200.391,-23.4021 210.942,-24.3722 209.244,-17.5812"/>
</g>
</g>
</svg>
