<?xml version="1.0" encoding="UTF-8" standalone="no"?>
<!DOCTYPE svg PUBLIC "-//W3C//DTD SVG 1.1//EN"
 "http://www.w3.org/Graphics/SVG/1.1/DTD/svg11.dtd">
<!-- Generated by graphviz version 2.28.0 (20110507.0327)
 -->
<!-- Title: G Pages: 1 -->
<svg width="286pt" height="218pt"
 viewBox="0.00 0.00 286.00 218.00" xmlns="http://www.w3.org/2000/svg" xmlns:xlink="http://www.w3.org/1999/xlink">
<g id="graph1" class="graph" transform="scale(1 1) rotate(0) translate(4 214)">
<title>G</title>
<polygon fill="white" stroke="white" points="-4,5 -4,-214 283,-214 283,5 -4,5"/>
<!-- Node1 -->
<g id="node1" class="node"><title>Node1</title>
<polygon fill="#bfbfbf" stroke="black" points="0,-95.5 0,-114.5 80,-114.5 80,-95.5 0,-95.5"/>
<text text-anchor="middle" x="40" y="-102.5" font-family="Helvetica,sans-Serif" font-size="10.00">MatPseudoInvf</text>
</g>
<!-- Node2 -->
<g id="node3" class="node"><title>Node2</title>
<a xlink:href="_mat_8c.html#a15d878c4ab8a9c77615961d10ed1ad37" target="_top" xlink:title="MatTransf">
<polygon fill="white" stroke="black" points="122.5,-190.5 122.5,-209.5 181.5,-209.5 181.5,-190.5 122.5,-190.5"/>
<text text-anchor="middle" x="152" y="-197.5" font-family="Helvetica,sans-Serif" font-size="10.00">MatTransf</text>
</a>
</g>
<!-- Node1&#45;&gt;Node2 -->
<g id="edge2" class="edge"><title>Node1&#45;&gt;Node2</title>
<path fill="none" stroke="midnightblue" d="M48.9911,-114.789C61.9195,-130.208 88.7371,-160.503 116,-181 117.841,-182.384 119.795,-183.73 121.803,-185.023"/>
<polygon fill="midnightblue" stroke="midnightblue" points="120.365,-188.239 130.753,-190.321 123.93,-182.216 120.365,-188.239"/>
</g>
<!-- Node3 -->
<g id="node5" class="node"><title>Node3</title>
<a xlink:href="_mat_8c.html#a9f566ce4c8ca2381358f2134cdd4e9e7" target="_top" xlink:title="MatMulScalf">
<polygon fill="white" stroke="black" points="116.5,-152.5 116.5,-171.5 187.5,-171.5 187.5,-152.5 116.5,-152.5"/>
<text text-anchor="middle" x="152" y="-159.5" font-family="Helvetica,sans-Serif" font-size="10.00">MatMulScalf</text>
</a>
</g>
<!-- Node1&#45;&gt;Node3 -->
<g id="edge4" class="edge"><title>Node1&#45;&gt;Node3</title>
<path fill="none" stroke="midnightblue" d="M59.66,-114.669C77.228,-123.773 103.75,-137.516 123.695,-147.851"/>
<polygon fill="midnightblue" stroke="midnightblue" points="122.126,-150.98 132.616,-152.474 125.347,-144.765 122.126,-150.98"/>
</g>
<!-- Node4 -->
<g id="node7" class="node"><title>Node4</title>
<a xlink:href="_mat_8c.html#a245892f5cf1ad342b2baa13a352892d3" target="_top" xlink:title="MatClrf">
<polygon fill="white" stroke="black" points="128.5,-114.5 128.5,-133.5 175.5,-133.5 175.5,-114.5 128.5,-114.5"/>
<text text-anchor="middle" x="152" y="-121.5" font-family="Helvetica,sans-Serif" font-size="10.00">MatClrf</text>
</a>
</g>
<!-- Node1&#45;&gt;Node4 -->
<g id="edge6" class="edge"><title>Node1&#45;&gt;Node4</title>
<path fill="none" stroke="midnightblue" d="M80.0916,-111.752C92.6051,-113.914 106.321,-116.283 118.327,-118.356"/>
<polygon fill="midnightblue" stroke="midnightblue" points="117.914,-121.837 128.364,-120.09 119.106,-114.939 117.914,-121.837"/>
</g>
<!-- Node5 -->
<g id="node9" class="node"><title>Node5</title>
<a xlink:href="_mat_8c.html#aed8a63d7324dbe49d893b057e892a2fe" target="_top" xlink:title="MatPrintf">
<polygon fill="white" stroke="black" points="124,-76.5 124,-95.5 180,-95.5 180,-76.5 124,-76.5"/>
<text text-anchor="middle" x="152" y="-83.5" font-family="Helvetica,sans-Serif" font-size="10.00">MatPrintf</text>
</a>
</g>
<!-- Node1&#45;&gt;Node5 -->
<g id="edge8" class="edge"><title>Node1&#45;&gt;Node5</title>
<path fill="none" stroke="midnightblue" d="M80.0916,-98.2478C91.042,-96.3564 102.913,-94.3059 113.753,-92.4335"/>
<polygon fill="midnightblue" stroke="midnightblue" points="114.509,-95.855 123.767,-90.7039 113.317,-88.9571 114.509,-95.855"/>
</g>
<!-- Node6 -->
<g id="node11" class="node"><title>Node6</title>
<a xlink:href="_mat_8c.html#ae5dcc36ff446d01426b9ce7fbd5e1f83" target="_top" xlink:title="MatMulf">
<polygon fill="white" stroke="black" points="126.5,-38.5 126.5,-57.5 177.5,-57.5 177.5,-38.5 126.5,-38.5"/>
<text text-anchor="middle" x="152" y="-45.5" font-family="Helvetica,sans-Serif" font-size="10.00">MatMulf</text>
</a>
</g>
<!-- Node1&#45;&gt;Node6 -->
<g id="edge10" class="edge"><title>Node1&#45;&gt;Node6</title>
<path fill="none" stroke="midnightblue" d="M59.66,-95.3307C77.228,-86.2273 103.75,-72.4843 123.695,-62.1487"/>
<polygon fill="midnightblue" stroke="midnightblue" points="125.347,-65.2349 132.616,-57.5265 122.126,-59.0198 125.347,-65.2349"/>
</g>
<!-- Node8 -->
<g id="node15" class="node"><title>Node8</title>
<a xlink:href="_mat_8c.html#aadc8eae1b41be6aedf842df38abb4c2b" target="_top" xlink:title="MatSubf">
<polygon fill="white" stroke="black" points="125.5,-0.5 125.5,-19.5 178.5,-19.5 178.5,-0.5 125.5,-0.5"/>
<text text-anchor="middle" x="152" y="-7.5" font-family="Helvetica,sans-Serif" font-size="10.00">MatSubf</text>
</a>
</g>
<!-- Node1&#45;&gt;Node8 -->
<g id="edge14" class="edge"><title>Node1&#45;&gt;Node8</title>
<path fill="none" stroke="midnightblue" d="M48.9911,-95.2106C61.9195,-79.7916 88.7371,-49.4975 116,-29 117.841,-27.6159 119.795,-26.2703 121.803,-24.9766"/>
<polygon fill="midnightblue" stroke="midnightblue" points="123.93,-27.7845 130.753,-19.6787 120.365,-21.7606 123.93,-27.7845"/>
</g>
<!-- Node7 -->
<g id="node13" class="node"><title>Node7</title>
<a xlink:href="_mat_8c.html#a63a68223bbacc69c068f6a3bdb4b428a" target="_top" xlink:title="MatCpyf">
<polygon fill="white" stroke="black" points="224.5,-38.5 224.5,-57.5 277.5,-57.5 277.5,-38.5 224.5,-38.5"/>
<text text-anchor="middle" x="251" y="-45.5" font-family="Helvetica,sans-Serif" font-size="10.00">MatCpyf</text>
</a>
</g>
<!-- Node6&#45;&gt;Node7 -->
<g id="edge12" class="edge"><title>Node6&#45;&gt;Node7</title>
<path fill="none" stroke="midnightblue" d="M177.728,-48C188.755,-48 201.96,-48 214.048,-48"/>
<polygon fill="midnightblue" stroke="midnightblue" points="214.301,-51.5001 224.301,-48 214.301,-44.5001 214.301,-51.5001"/>
</g>
</g>
</svg>
