<?xml version="1.0" encoding="UTF-8" standalone="no"?>
<!DOCTYPE svg PUBLIC "-//W3C//DTD SVG 1.1//EN"
 "http://www.w3.org/Graphics/SVG/1.1/DTD/svg11.dtd">
<!-- Generated by graphviz version 2.28.0 (20110507.0327)
 -->
<!-- Title: G Pages: 1 -->
<svg width="268pt" height="85pt"
 viewBox="0.00 0.00 268.00 85.00" xmlns="http://www.w3.org/2000/svg" xmlns:xlink="http://www.w3.org/1999/xlink">
<g id="graph1" class="graph" transform="scale(1 1) rotate(0) translate(4 81)">
<title>G</title>
<polygon fill="white" stroke="white" points="-4,5 -4,-81 265,-81 265,5 -4,5"/>
<!-- Node1 -->
<g id="node1" class="node"><title>Node1</title>
<polygon fill="#bfbfbf" stroke="black" points="0.5,-38.5 0.5,-57.5 49.5,-57.5 49.5,-38.5 0.5,-38.5"/>
<text text-anchor="middle" x="25" y="-45.5" font-family="Helvetica,sans-Serif" font-size="10.00">MatMul</text>
</g>
<!-- Node2 -->
<g id="node3" class="node"><title>Node2</title>
<a xlink:href="_mat_8h.html#a7d98c425d8fbed9f89fc28dd4dee8acb" target="_top" xlink:title="MatTest">
<polygon fill="white" stroke="black" points="208,-57.5 208,-76.5 260,-76.5 260,-57.5 208,-57.5"/>
<text text-anchor="middle" x="234" y="-64.5" font-family="Helvetica,sans-Serif" font-size="10.00">MatTest</text>
</a>
</g>
<!-- Node1&#45;&gt;Node2 -->
<g id="edge2" class="edge"><title>Node1&#45;&gt;Node2</title>
<path fill="none" stroke="midnightblue" d="M59.2236,-60.5102C67.8215,-63.194 77.1522,-65.6326 86,-67 128.372,-73.5486 178.438,-71.5022 207.852,-69.3214"/>
<polygon fill="midnightblue" stroke="midnightblue" points="60.1331,-57.1243 49.5397,-57.2963 57.9282,-63.768 60.1331,-57.1243"/>
</g>
<!-- Node3 -->
<g id="node5" class="node"><title>Node3</title>
<a xlink:href="_mat_8h.html#ad69af94eeacc496b61d9ae223568d40e" target="_top" xlink:title="MatPseudoInv">
<polygon fill="white" stroke="black" points="90.5,-38.5 90.5,-57.5 167.5,-57.5 167.5,-38.5 90.5,-38.5"/>
<text text-anchor="middle" x="129" y="-45.5" font-family="Helvetica,sans-Serif" font-size="10.00">MatPseudoInv</text>
</a>
</g>
<!-- Node1&#45;&gt;Node3 -->
<g id="edge4" class="edge"><title>Node1&#45;&gt;Node3</title>
<path fill="none" stroke="midnightblue" d="M59.8566,-48C69.6778,-48 80.4588,-48 90.4897,-48"/>
<polygon fill="midnightblue" stroke="midnightblue" points="59.6573,-44.5001 49.6572,-48 59.6572,-51.5001 59.6573,-44.5001"/>
</g>
<!-- Node4 -->
<g id="node8" class="node"><title>Node4</title>
<a xlink:href="_mat_8h.html#a03973d8ebcfdc7ea43918f23bec41fd4" target="_top" xlink:title="MatProVectoriel">
<polygon fill="white" stroke="black" points="86,-0.5 86,-19.5 172,-19.5 172,-0.5 86,-0.5"/>
<text text-anchor="middle" x="129" y="-7.5" font-family="Helvetica,sans-Serif" font-size="10.00">MatProVectoriel</text>
</a>
</g>
<!-- Node1&#45;&gt;Node4 -->
<g id="edge8" class="edge"><title>Node1&#45;&gt;Node4</title>
<path fill="none" stroke="midnightblue" d="M59.3948,-35.5588C73.3516,-30.3592 89.3135,-24.4126 102.327,-19.5645"/>
<polygon fill="midnightblue" stroke="midnightblue" points="57.8062,-32.4156 49.6572,-39.1865 60.25,-38.9752 57.8062,-32.4156"/>
</g>
<!-- Node3&#45;&gt;Node2 -->
<g id="edge6" class="edge"><title>Node3&#45;&gt;Node2</title>
<path fill="none" stroke="midnightblue" d="M177.623,-56.7849C188.028,-58.7042 198.645,-60.6626 207.762,-62.3445"/>
<polygon fill="midnightblue" stroke="midnightblue" points="178.238,-53.3392 167.769,-54.967 176.968,-60.2231 178.238,-53.3392"/>
</g>
</g>
</svg>
