<?xml version="1.0" encoding="UTF-8" standalone="no"?>
<!DOCTYPE svg PUBLIC "-//W3C//DTD SVG 1.1//EN"
 "http://www.w3.org/Graphics/SVG/1.1/DTD/svg11.dtd">
<!-- Generated by graphviz version 2.28.0 (20110507.0327)
 -->
<!-- Title: G Pages: 1 -->
<svg width="260pt" height="28pt"
 viewBox="0.00 0.00 260.00 28.00" xmlns="http://www.w3.org/2000/svg" xmlns:xlink="http://www.w3.org/1999/xlink">
<g id="graph1" class="graph" transform="scale(1 1) rotate(0) translate(4 24)">
<title>G</title>
<polygon fill="white" stroke="white" points="-4,5 -4,-24 257,-24 257,5 -4,5"/>
<!-- Node1 -->
<g id="node1" class="node"><title>Node1</title>
<polygon fill="#bfbfbf" stroke="black" points="0,-0.5 0,-19.5 50,-19.5 50,-0.5 0,-0.5"/>
<text text-anchor="middle" x="25" y="-7.5" font-family="Helvetica,sans-Serif" font-size="10.00">MatSub</text>
</g>
<!-- Node2 -->
<g id="node3" class="node"><title>Node2</title>
<a xlink:href="_mat_8h.html#ad69af94eeacc496b61d9ae223568d40e" target="_top" xlink:title="MatPseudoInv">
<polygon fill="white" stroke="black" points="86.5,-0.5 86.5,-19.5 163.5,-19.5 163.5,-0.5 86.5,-0.5"/>
<text text-anchor="middle" x="125" y="-7.5" font-family="Helvetica,sans-Serif" font-size="10.00">MatPseudoInv</text>
</a>
</g>
<!-- Node1&#45;&gt;Node2 -->
<g id="edge2" class="edge"><title>Node1&#45;&gt;Node2</title>
<path fill="none" stroke="midnightblue" d="M60.4187,-10C68.7967,-10 77.8003,-10 86.3209,-10"/>
<polygon fill="midnightblue" stroke="midnightblue" points="60.2248,-6.5001 50.2247,-10 60.2247,-13.5001 60.2248,-6.5001"/>
</g>
<!-- Node3 -->
<g id="node5" class="node"><title>Node3</title>
<a xlink:href="_mat_8h.html#a7d98c425d8fbed9f89fc28dd4dee8acb" target="_top" xlink:title="MatTest">
<polygon fill="white" stroke="black" points="200,-0.5 200,-19.5 252,-19.5 252,-0.5 200,-0.5"/>
<text text-anchor="middle" x="226" y="-7.5" font-family="Helvetica,sans-Serif" font-size="10.00">MatTest</text>
</a>
</g>
<!-- Node2&#45;&gt;Node3 -->
<g id="edge4" class="edge"><title>Node2&#45;&gt;Node3</title>
<path fill="none" stroke="midnightblue" d="M173.822,-10C182.863,-10 191.979,-10 199.961,-10"/>
<polygon fill="midnightblue" stroke="midnightblue" points="173.71,-6.5001 163.71,-10 173.71,-13.5001 173.71,-6.5001"/>
</g>
</g>
</svg>
