<?xml version="1.0" encoding="UTF-8" standalone="no"?>
<!DOCTYPE svg PUBLIC "-//W3C//DTD SVG 1.1//EN"
 "http://www.w3.org/Graphics/SVG/1.1/DTD/svg11.dtd">
<!-- Generated by graphviz version 2.28.0 (20110507.0327)
 -->
<!-- Title: G Pages: 1 -->
<svg width="247pt" height="140pt"
 viewBox="0.00 0.00 247.00 140.00" xmlns="http://www.w3.org/2000/svg" xmlns:xlink="http://www.w3.org/1999/xlink">
<g id="graph1" class="graph" transform="scale(1 1) rotate(0) translate(4 136)">
<title>G</title>
<polygon fill="white" stroke="white" points="-4,5 -4,-136 244,-136 244,5 -4,5"/>
<!-- Node1 -->
<g id="node1" class="node"><title>Node1</title>
<polygon fill="#bfbfbf" stroke="black" points="96.5,-112.5 96.5,-131.5 137.5,-131.5 137.5,-112.5 96.5,-112.5"/>
<text text-anchor="middle" x="117" y="-119.5" font-family="Helvetica,sans-Serif" font-size="10.00">Mat.c</text>
</g>
<!-- Node2 -->
<g id="node3" class="node"><title>Node2</title>
<a xlink:href="_mat_8h.html" target="_top" xlink:title="Mat.h">
<polygon fill="white" stroke="black" points="1.5,-56.5 1.5,-75.5 42.5,-75.5 42.5,-56.5 1.5,-56.5"/>
<text text-anchor="middle" x="22" y="-63.5" font-family="Helvetica,sans-Serif" font-size="10.00">Mat.h</text>
</a>
</g>
<!-- Node1&#45;&gt;Node2 -->
<g id="edge2" class="edge"><title>Node1&#45;&gt;Node2</title>
<path fill="none" stroke="midnightblue" d="M101.737,-112.324C86.7786,-103.822 63.7452,-90.7288 46.2733,-80.7975"/>
<polygon fill="midnightblue" stroke="midnightblue" points="47.6488,-77.5534 37.2255,-75.6545 44.1896,-83.639 47.6488,-77.5534"/>
</g>
<!-- Node4 -->
<g id="node7" class="node"><title>Node4</title>
<polygon fill="white" stroke="#bfbfbf" points="61,-56.5 61,-75.5 107,-75.5 107,-56.5 61,-56.5"/>
<text text-anchor="middle" x="84" y="-63.5" font-family="Helvetica,sans-Serif" font-size="10.00">stdio.h</text>
</g>
<!-- Node1&#45;&gt;Node4 -->
<g id="edge6" class="edge"><title>Node1&#45;&gt;Node4</title>
<path fill="none" stroke="midnightblue" d="M111.551,-112.083C106.986,-104.613 100.332,-93.7244 94.7066,-84.5199"/>
<polygon fill="midnightblue" stroke="midnightblue" points="97.5489,-82.4588 89.3479,-75.7511 91.5759,-86.109 97.5489,-82.4588"/>
</g>
<!-- Node5 -->
<g id="node9" class="node"><title>Node5</title>
<polygon fill="white" stroke="#bfbfbf" points="125.5,-56.5 125.5,-75.5 174.5,-75.5 174.5,-56.5 125.5,-56.5"/>
<text text-anchor="middle" x="150" y="-63.5" font-family="Helvetica,sans-Serif" font-size="10.00">string.h</text>
</g>
<!-- Node1&#45;&gt;Node5 -->
<g id="edge8" class="edge"><title>Node1&#45;&gt;Node5</title>
<path fill="none" stroke="midnightblue" d="M122.449,-112.083C127.014,-104.613 133.668,-93.7244 139.293,-84.5199"/>
<polygon fill="midnightblue" stroke="midnightblue" points="142.424,-86.109 144.652,-75.7511 136.451,-82.4588 142.424,-86.109"/>
</g>
<!-- Node6 -->
<g id="node11" class="node"><title>Node6</title>
<polygon fill="white" stroke="#bfbfbf" points="192.5,-56.5 192.5,-75.5 239.5,-75.5 239.5,-56.5 192.5,-56.5"/>
<text text-anchor="middle" x="216" y="-63.5" font-family="Helvetica,sans-Serif" font-size="10.00">Math.h</text>
</g>
<!-- Node1&#45;&gt;Node6 -->
<g id="edge10" class="edge"><title>Node1&#45;&gt;Node6</title>
<path fill="none" stroke="midnightblue" d="M132.906,-112.324C148.638,-103.743 172.942,-90.486 191.209,-80.5224"/>
<polygon fill="midnightblue" stroke="midnightblue" points="193.03,-83.5157 200.133,-75.6545 189.678,-77.3704 193.03,-83.5157"/>
</g>
<!-- Node3 -->
<g id="node5" class="node"><title>Node3</title>
<a xlink:href="_reel_8h.html" target="_top" xlink:title="Reel.h">
<polygon fill="white" stroke="black" points="0,-0.5 0,-19.5 44,-19.5 44,-0.5 0,-0.5"/>
<text text-anchor="middle" x="22" y="-7.5" font-family="Helvetica,sans-Serif" font-size="10.00">Reel.h</text>
</a>
</g>
<!-- Node2&#45;&gt;Node3 -->
<g id="edge4" class="edge"><title>Node2&#45;&gt;Node3</title>
<path fill="none" stroke="midnightblue" d="M22,-56.083C22,-49.0059 22,-38.8611 22,-29.9865"/>
<polygon fill="midnightblue" stroke="midnightblue" points="25.5001,-29.751 22,-19.7511 18.5001,-29.7511 25.5001,-29.751"/>
</g>
</g>
</svg>
