<?xml version="1.0" encoding="UTF-8" standalone="no"?>
<!DOCTYPE svg PUBLIC "-//W3C//DTD SVG 1.1//EN"
 "http://www.w3.org/Graphics/SVG/1.1/DTD/svg11.dtd">
<!-- Generated by graphviz version 2.28.0 (20110507.0327)
 -->
<!-- Title: G Pages: 1 -->
<svg width="354pt" height="142pt"
 viewBox="0.00 0.00 354.00 142.00" xmlns="http://www.w3.org/2000/svg" xmlns:xlink="http://www.w3.org/1999/xlink">
<g id="graph1" class="graph" transform="scale(1 1) rotate(0) translate(4 138)">
<title>G</title>
<polygon fill="white" stroke="white" points="-4,5 -4,-138 351,-138 351,5 -4,5"/>
<!-- Node1 -->
<g id="node1" class="node"><title>Node1</title>
<polygon fill="#bfbfbf" stroke="black" points="0,-76.5 0,-95.5 50,-95.5 50,-76.5 0,-76.5"/>
<text text-anchor="middle" x="25" y="-83.5" font-family="Helvetica,sans-Serif" font-size="10.00">MatCpy</text>
</g>
<!-- Node2 -->
<g id="node3" class="node"><title>Node2</title>
<a xlink:href="_mat_8h.html#a7d98c425d8fbed9f89fc28dd4dee8acb" target="_top" xlink:title="MatTest">
<polygon fill="white" stroke="black" points="294,-114.5 294,-133.5 346,-133.5 346,-114.5 294,-114.5"/>
<text text-anchor="middle" x="320" y="-121.5" font-family="Helvetica,sans-Serif" font-size="10.00">MatTest</text>
</a>
</g>
<!-- Node1&#45;&gt;Node2 -->
<g id="edge2" class="edge"><title>Node1&#45;&gt;Node2</title>
<path fill="none" stroke="midnightblue" d="M59.746,-97.195C68.2743,-99.8836 77.4415,-102.654 86,-105 123.846,-115.376 133.014,-120.526 172,-125 209.973,-129.357 219.779,-125.313 258,-125 269.756,-124.904 282.786,-124.703 293.774,-124.506"/>
<polygon fill="midnightblue" stroke="midnightblue" points="60.694,-93.8235 50.1029,-94.1064 58.5587,-100.49 60.694,-93.8235"/>
</g>
<!-- Node3 -->
<g id="node5" class="node"><title>Node3</title>
<a xlink:href="_mat_8h.html#acc421a6e03e48657b74bcaa1fb2dd578" target="_top" xlink:title="MatMul">
<polygon fill="white" stroke="black" points="86.5,-76.5 86.5,-95.5 135.5,-95.5 135.5,-76.5 86.5,-76.5"/>
<text text-anchor="middle" x="111" y="-83.5" font-family="Helvetica,sans-Serif" font-size="10.00">MatMul</text>
</a>
</g>
<!-- Node1&#45;&gt;Node3 -->
<g id="edge4" class="edge"><title>Node1&#45;&gt;Node3</title>
<path fill="none" stroke="midnightblue" d="M60.5531,-86C69.2247,-86 78.3339,-86 86.3375,-86"/>
<polygon fill="midnightblue" stroke="midnightblue" points="60.2963,-82.5001 50.2963,-86 60.2962,-89.5001 60.2963,-82.5001"/>
</g>
<!-- Node6 -->
<g id="node13" class="node"><title>Node6</title>
<a xlink:href="_sherpa_8c.html#ad3548e136b9b35dcfb6c4023ce282125" target="_top" xlink:title="Asserv">
<polygon fill="white" stroke="black" points="88,-19.5 88,-38.5 134,-38.5 134,-19.5 88,-19.5"/>
<text text-anchor="middle" x="111" y="-26.5" font-family="Helvetica,sans-Serif" font-size="10.00">Asserv</text>
</a>
</g>
<!-- Node1&#45;&gt;Node6 -->
<g id="edge14" class="edge"><title>Node1&#45;&gt;Node6</title>
<path fill="none" stroke="midnightblue" d="M48.5576,-70.6931C63.6499,-60.4518 83.0401,-47.2942 95.961,-38.5265"/>
<polygon fill="midnightblue" stroke="midnightblue" points="46.559,-67.8195 40.2495,-76.3307 50.4895,-73.6118 46.559,-67.8195"/>
</g>
<!-- Node3&#45;&gt;Node2 -->
<g id="edge6" class="edge"><title>Node3&#45;&gt;Node2</title>
<path fill="none" stroke="midnightblue" d="M145.371,-97.7259C153.966,-100.425 163.258,-103.067 172,-105 214.212,-114.333 264.328,-119.599 293.795,-122.117"/>
<polygon fill="midnightblue" stroke="midnightblue" points="146.268,-94.3374 135.676,-94.5701 144.101,-100.994 146.268,-94.3374"/>
</g>
<!-- Node4 -->
<g id="node8" class="node"><title>Node4</title>
<a xlink:href="_mat_8h.html#ad69af94eeacc496b61d9ae223568d40e" target="_top" xlink:title="MatPseudoInv">
<polygon fill="white" stroke="black" points="176.5,-76.5 176.5,-95.5 253.5,-95.5 253.5,-76.5 176.5,-76.5"/>
<text text-anchor="middle" x="215" y="-83.5" font-family="Helvetica,sans-Serif" font-size="10.00">MatPseudoInv</text>
</a>
</g>
<!-- Node3&#45;&gt;Node4 -->
<g id="edge8" class="edge"><title>Node3&#45;&gt;Node4</title>
<path fill="none" stroke="midnightblue" d="M145.857,-86C155.678,-86 166.459,-86 176.49,-86"/>
<polygon fill="midnightblue" stroke="midnightblue" points="145.657,-82.5001 135.657,-86 145.657,-89.5001 145.657,-82.5001"/>
</g>
<!-- Node5 -->
<g id="node11" class="node"><title>Node5</title>
<a xlink:href="_mat_8h.html#a03973d8ebcfdc7ea43918f23bec41fd4" target="_top" xlink:title="MatProVectoriel">
<polygon fill="white" stroke="black" points="172,-38.5 172,-57.5 258,-57.5 258,-38.5 172,-38.5"/>
<text text-anchor="middle" x="215" y="-45.5" font-family="Helvetica,sans-Serif" font-size="10.00">MatProVectoriel</text>
</a>
</g>
<!-- Node3&#45;&gt;Node5 -->
<g id="edge12" class="edge"><title>Node3&#45;&gt;Node5</title>
<path fill="none" stroke="midnightblue" d="M145.395,-73.5588C159.352,-68.3592 175.314,-62.4126 188.327,-57.5645"/>
<polygon fill="midnightblue" stroke="midnightblue" points="143.806,-70.4156 135.657,-77.1865 146.25,-76.9752 143.806,-70.4156"/>
</g>
<!-- Node4&#45;&gt;Node2 -->
<g id="edge10" class="edge"><title>Node4&#45;&gt;Node2</title>
<path fill="none" stroke="midnightblue" d="M251.708,-99.1739C265.552,-104.281 281.08,-110.01 293.729,-114.677"/>
<polygon fill="midnightblue" stroke="midnightblue" points="252.585,-95.7667 241.991,-95.589 250.162,-102.334 252.585,-95.7667"/>
</g>
<!-- Node7 -->
<g id="node15" class="node"><title>Node7</title>
<a xlink:href="_sherpa_8c.html#ae66f6b31b5ad750f1fe042a706a4e3d4" target="_top" xlink:title="main">
<polygon fill="white" stroke="black" points="196,-0.5 196,-19.5 234,-19.5 234,-0.5 196,-0.5"/>
<text text-anchor="middle" x="215" y="-7.5" font-family="Helvetica,sans-Serif" font-size="10.00">main</text>
</a>
</g>
<!-- Node6&#45;&gt;Node7 -->
<g id="edge16" class="edge"><title>Node6&#45;&gt;Node7</title>
<path fill="none" stroke="midnightblue" d="M144.267,-22.9895C161.353,-19.8068 181.697,-16.0172 195.988,-13.3551"/>
<polygon fill="midnightblue" stroke="midnightblue" points="143.322,-19.6051 134.132,-24.8773 144.604,-26.4868 143.322,-19.6051"/>
</g>
</g>
</svg>
