<?xml version="1.0" encoding="UTF-8" standalone="no"?>
<!DOCTYPE svg PUBLIC "-//W3C//DTD SVG 1.1//EN"
 "http://www.w3.org/Graphics/SVG/1.1/DTD/svg11.dtd">
<!-- Generated by graphviz version 2.28.0 (20110507.0327)
 -->
<!-- Title: G Pages: 1 -->
<!--zoomable-->
<svg id="main" version="1.1" xmlns="http://www.w3.org/2000/svg" xmlns:xlink="http://www.w3.org/1999/xlink" xml:space="preserve" onload="init(evt)">
        <defs>
                <circle id="rim" cx="0" cy="0" r="7"/>
                <circle id="rim2" cx="0" cy="0" r="3.5"/>
                <g id="zoomPlus">
                        <use xlink:href="#rim" fill="#404040">
                                <set attributeName="fill" to="#808080" begin="zoomplus.mouseover" end="zoomplus.mouseout"/>
                        </use>
                        <path d="M-4,0h8M0,-4v8" fill="none" stroke="white" stroke-width="1.5" pointer-events="none"/>
                </g>
                <g id="zoomMin">
                        <use xlink:href="#rim" fill="#404040">
                                <set attributeName="fill" to="#808080" begin="zoomminus.mouseover" end="zoomminus.mouseout"/>
                        </use>
                        <path d="M-4,0h8" fill="none" stroke="white" stroke-width="1.5" pointer-events="none"/>
                </g>
                <g id="dirArrow">
                        <path fill="none" stroke="white" stroke-width="1.5" d="M0,-3.0v7 M-2.5,-0.5L0,-3.0L2.5,-0.5"/>
                </g>
               <g id="resetDef">
                       <use xlink:href="#rim2" fill="#404040">
                               <set attributeName="fill" to="#808080" begin="reset.mouseover" end="reset.mouseout"/>
                       </use>
               </g>
        </defs>

<script type="text/javascript">
var viewWidth = 780;
var viewHeight = 461;
var sectionId = 'dynsection-7';
</script>
<script xlink:href="svgpan.js"/>
<svg id="graph" class="graph">
<g id="viewport">
<title>G</title>
<polygon fill="white" stroke="white" points="-4,5 -4,-456.553 777,-456.553 777,5 -4,5"/>
<!-- Node1 -->
<g id="node1" class="node"><title>Node1</title>
<polygon fill="#bfbfbf" stroke="black" points="0.5,-142.5 0.5,-161.5 53.5,-161.5 53.5,-142.5 0.5,-142.5"/>
<text text-anchor="middle" x="27" y="-149.5" font-family="Helvetica,sans-Serif" font-size="10.00">MatCpyf</text>
</g>
<!-- Node2 -->
<g id="node3" class="node"><title>Node2</title>
<a xlink:href="_david___cross_8h.html#a575fbbe98ba6d596f8b981a25516710e" target="_top" xlink:title="David_Cross">
<polygon fill="white" stroke="black" points="334.5,-398.5 334.5,-417.5 405.5,-417.5 405.5,-398.5 334.5,-398.5"/>
<text text-anchor="middle" x="370" y="-405.5" font-family="Helvetica,sans-Serif" font-size="10.00">David_Cross</text>
</a>
</g>
<!-- Node1&#45;&gt;Node2 -->
<g id="edge2" class="edge"><title>Node1&#45;&gt;Node2</title>
<path fill="none" stroke="midnightblue" d="M34.6461,-171.408C51.2046,-216.538 98.9057,-328.599 180,-380 227.208,-409.923 294.152,-412.585 334.399,-410.91"/>
<polygon fill="midnightblue" stroke="midnightblue" points="37.9155,-170.155 31.2629,-161.91 31.3214,-172.504 37.9155,-170.155"/>
</g>
<!-- Node3 -->
<g id="node5" class="node"><title>Node3</title>
<a xlink:href="_david___gravity_8h.html#a1f1e600a0c38ffaf69b85505ea4645d0" target="_top" xlink:title="David_Gravity">
<polygon fill="white" stroke="black" points="480.5,-336.5 480.5,-355.5 555.5,-355.5 555.5,-336.5 480.5,-336.5"/>
<text text-anchor="middle" x="518" y="-343.5" font-family="Helvetica,sans-Serif" font-size="10.00">David_Gravity</text>
</a>
</g>
<!-- Node1&#45;&gt;Node3 -->
<g id="edge12" class="edge"><title>Node1&#45;&gt;Node3</title>
<path fill="none" stroke="midnightblue" d="M31.358,-171.992C37.9415,-206.803 55.0531,-279.727 90,-331 119.648,-374.499 132.122,-386.118 180,-408 282.961,-455.057 329.151,-469.683 434,-427 469.991,-412.348 498.89,-373.75 510.933,-355.64"/>
<polygon fill="midnightblue" stroke="midnightblue" points="34.7286,-170.959 29.5184,-161.734 27.8385,-172.194 34.7286,-170.959"/>
</g>
<!-- Node6 -->
<g id="node13" class="node"><title>Node6</title>
<a xlink:href="_david___stabilizator_8h.html#a160d145abfa84a49d710ddcb384990ef" target="_top" xlink:title="David_Stabilizator">
<polygon fill="white" stroke="black" points="471,-152.5 471,-171.5 565,-171.5 565,-152.5 471,-152.5"/>
<text text-anchor="middle" x="518" y="-159.5" font-family="Helvetica,sans-Serif" font-size="10.00">David_Stabilizator</text>
</a>
</g>
<!-- Node1&#45;&gt;Node6 -->
<g id="edge14" class="edge"><title>Node1&#45;&gt;Node6</title>
<path fill="none" stroke="midnightblue" d="M63.7656,-149.284C94.5511,-147.089 140.172,-144.178 180,-143 219.983,-141.817 230.029,-141.465 270,-143 340.052,-145.69 421.034,-152.658 470.627,-157.365"/>
<polygon fill="midnightblue" stroke="midnightblue" points="63.2495,-145.812 53.5289,-150.026 63.7559,-152.793 63.2495,-145.812"/>
</g>
<!-- Node7 -->
<g id="node15" class="node"><title>Node7</title>
<a xlink:href="_mat_8h.html#ae5dcc36ff446d01426b9ce7fbd5e1f83" target="_top" xlink:title="MatMulf">
<polygon fill="white" stroke="black" points="91.5,-209.5 91.5,-228.5 142.5,-228.5 142.5,-209.5 91.5,-209.5"/>
<text text-anchor="middle" x="117" y="-216.5" font-family="Helvetica,sans-Serif" font-size="10.00">MatMulf</text>
</a>
</g>
<!-- Node1&#45;&gt;Node7 -->
<g id="edge16" class="edge"><title>Node1&#45;&gt;Node7</title>
<path fill="none" stroke="midnightblue" d="M48.8101,-167.844C65.775,-180.761 89.1796,-198.58 103.415,-209.418"/>
<polygon fill="midnightblue" stroke="midnightblue" points="50.6849,-164.872 40.6083,-161.599 46.4445,-170.442 50.6849,-164.872"/>
</g>
<!-- Node15 -->
<g id="node43" class="node"><title>Node15</title>
<a xlink:href="_sherpa_8c.html#afb136a30db64a353779981a7ae99acad" target="_top" xlink:title="Mesures">
<polygon fill="white" stroke="black" points="90,-38.5 90,-57.5 144,-57.5 144,-38.5 90,-38.5"/>
<text text-anchor="middle" x="117" y="-45.5" font-family="Helvetica,sans-Serif" font-size="10.00">Mesures</text>
</a>
</g>
<!-- Node1&#45;&gt;Node15 -->
<g id="edge56" class="edge"><title>Node1&#45;&gt;Node15</title>
<path fill="none" stroke="midnightblue" d="M40.6811,-133.921C52.6822,-117.245 71.5583,-92.1022 90,-72 94.568,-67.0206 100.011,-61.8893 104.733,-57.6559"/>
<polygon fill="midnightblue" stroke="midnightblue" points="37.7151,-132.052 34.7675,-142.229 43.4179,-136.112 37.7151,-132.052"/>
</g>
<!-- Node18 -->
<g id="node49" class="node"><title>Node18</title>
<a xlink:href="_sherpa_8c.html#a7629767cc0bbef801b5565542b55a270" target="_top" xlink:title="MC">
<polygon fill="white" stroke="black" points="101,-0.5 101,-19.5 133,-19.5 133,-0.5 101,-0.5"/>
<text text-anchor="middle" x="117" y="-7.5" font-family="Helvetica,sans-Serif" font-size="10.00">MC</text>
</a>
</g>
<!-- Node1&#45;&gt;Node18 -->
<g id="edge62" class="edge"><title>Node1&#45;&gt;Node18</title>
<path fill="none" stroke="midnightblue" d="M34.425,-132.822C43.7099,-107.134 62.7992,-61.0781 90,-29 93.1095,-25.3329 97.0641,-21.9854 100.945,-19.1566"/>
<polygon fill="midnightblue" stroke="midnightblue" points="31.0436,-131.889 31.051,-142.484 37.6523,-134.197 31.0436,-131.889"/>
</g>
<!-- Node2&#45;&gt;Node3 -->
<g id="edge4" class="edge"><title>Node2&#45;&gt;Node3</title>
<path fill="none" stroke="midnightblue" d="M406.641,-394.888C415.617,-391.458 425.2,-387.686 434,-384 455.78,-374.877 480.324,-363.501 497.036,-355.585"/>
<polygon fill="midnightblue" stroke="midnightblue" points="405.322,-391.644 397.205,-398.454 407.797,-398.192 405.322,-391.644"/>
</g>
<!-- Node3&#45;&gt;Node3 -->
<g id="edge6" class="edge"><title>Node3&#45;&gt;Node3</title>
<path fill="none" stroke="midnightblue" d="M493.447,-365.029C494.786,-370.128 502.97,-374 518,-374 541.461,-374 548.243,-364.565 538.345,-355.757"/>
<polygon fill="midnightblue" stroke="midnightblue" points="496.709,-366.31 497.655,-355.757 490.335,-363.416 496.709,-366.31"/>
</g>
<!-- Node4 -->
<g id="node8" class="node"><title>Node4</title>
<a xlink:href="_forward_dynamics_8h.html#a23609ae4e05df387941c4bbc7bfc26fe" target="_top" xlink:title="ForwardDynamics">
<polygon fill="white" stroke="black" points="602.5,-228.5 602.5,-247.5 697.5,-247.5 697.5,-228.5 602.5,-228.5"/>
<text text-anchor="middle" x="650" y="-235.5" font-family="Helvetica,sans-Serif" font-size="10.00">ForwardDynamics</text>
</a>
</g>
<!-- Node3&#45;&gt;Node4 -->
<g id="edge8" class="edge"><title>Node3&#45;&gt;Node4</title>
<path fill="none" stroke="midnightblue" d="M538.268,-329.992C565.621,-307.269 614.873,-266.352 637.302,-247.718"/>
<polygon fill="midnightblue" stroke="midnightblue" points="535.992,-327.333 530.537,-336.416 540.465,-332.718 535.992,-327.333"/>
</g>
<!-- Node5 -->
<g id="node10" class="node"><title>Node5</title>
<a xlink:href="main_8c.html#a0ddf1224851353fc92bfbff6f499fa97" target="_top" xlink:title="main">
<polygon fill="white" stroke="black" points="734,-228.5 734,-247.5 772,-247.5 772,-228.5 734,-228.5"/>
<text text-anchor="middle" x="753" y="-235.5" font-family="Helvetica,sans-Serif" font-size="10.00">main</text>
</a>
</g>
<!-- Node4&#45;&gt;Node5 -->
<g id="edge10" class="edge"><title>Node4&#45;&gt;Node5</title>
<path fill="none" stroke="midnightblue" d="M707.879,-238C717.25,-238 726.323,-238 733.779,-238"/>
<polygon fill="midnightblue" stroke="midnightblue" points="707.657,-234.5 697.657,-238 707.657,-241.5 707.657,-234.5"/>
</g>
<!-- Node7&#45;&gt;Node3 -->
<g id="edge40" class="edge"><title>Node7&#45;&gt;Node3</title>
<path fill="none" stroke="midnightblue" d="M120.661,-238.746C125.923,-269.039 140.771,-326.085 180,-351 278.787,-413.741 428.908,-375.398 489.858,-355.62"/>
<polygon fill="midnightblue" stroke="midnightblue" points="124.074,-237.914 119.082,-228.568 117.156,-238.987 124.074,-237.914"/>
</g>
<!-- Node7&#45;&gt;Node4 -->
<g id="edge46" class="edge"><title>Node7&#45;&gt;Node4</title>
<path fill="none" stroke="midnightblue" d="M126.878,-200.536C136.894,-182.09 155.095,-154.824 180,-143 334.977,-69.4235 409.802,-72.0522 566,-143 605.482,-160.934 633.541,-207.956 644.229,-228.342"/>
<polygon fill="midnightblue" stroke="midnightblue" points="123.736,-198.993 122.279,-209.487 129.962,-202.192 123.736,-198.993"/>
</g>
<!-- Node8 -->
<g id="node17" class="node"><title>Node8</title>
<a xlink:href="_david___calc_m_c_8h.html#a5877c51babeda61b69280e4dc6ed28dd" target="_top" xlink:title="David_CalcMC">
<polygon fill="white" stroke="black" points="185,-266.5 185,-285.5 265,-285.5 265,-266.5 185,-266.5"/>
<text text-anchor="middle" x="225" y="-273.5" font-family="Helvetica,sans-Serif" font-size="10.00">David_CalcMC</text>
</a>
</g>
<!-- Node7&#45;&gt;Node8 -->
<g id="edge18" class="edge"><title>Node7&#45;&gt;Node8</title>
<path fill="none" stroke="midnightblue" d="M140.994,-234.173C152.485,-241.475 166.737,-250.116 180,-257 186.351,-260.296 193.401,-263.522 199.963,-266.353"/>
<polygon fill="midnightblue" stroke="midnightblue" points="142.743,-231.137 132.441,-228.663 138.952,-237.021 142.743,-231.137"/>
</g>
<!-- Node10 -->
<g id="node25" class="node"><title>Node10</title>
<a xlink:href="_david___forward_kinematics_8h.html#ab4a9975fbdb8a88c795a8f0b5bf0bf97" target="_top" xlink:title="David_ForwardKinematics">
<polygon fill="white" stroke="black" points="306,-190.5 306,-209.5 434,-209.5 434,-190.5 306,-190.5"/>
<text text-anchor="middle" x="370" y="-197.5" font-family="Helvetica,sans-Serif" font-size="10.00">David_ForwardKinematics</text>
</a>
</g>
<!-- Node7&#45;&gt;Node10 -->
<g id="edge30" class="edge"><title>Node7&#45;&gt;Node10</title>
<path fill="none" stroke="midnightblue" d="M152.687,-216.374C192.114,-213.39 257.283,-208.457 305.804,-204.784"/>
<polygon fill="midnightblue" stroke="midnightblue" points="152.231,-212.899 142.524,-217.144 152.76,-219.879 152.231,-212.899"/>
</g>
<!-- Node12 -->
<g id="node33" class="node"><title>Node12</title>
<a xlink:href="_david___rodrigues_8h.html#a60a6dbedf38702ef67715eb17c6efadc" target="_top" xlink:title="David_Rodrigues">
<polygon fill="white" stroke="black" points="180.5,-152.5 180.5,-171.5 269.5,-171.5 269.5,-152.5 180.5,-152.5"/>
<text text-anchor="middle" x="225" y="-159.5" font-family="Helvetica,sans-Serif" font-size="10.00">David_Rodrigues</text>
</a>
</g>
<!-- Node7&#45;&gt;Node12 -->
<g id="edge42" class="edge"><title>Node7&#45;&gt;Node12</title>
<path fill="none" stroke="midnightblue" d="M144.877,-204.547C164.132,-194.193 189.522,-180.54 206.284,-171.526"/>
<polygon fill="midnightblue" stroke="midnightblue" points="143.131,-201.512 135.981,-209.331 146.446,-207.677 143.131,-201.512"/>
</g>
<!-- Node13 -->
<g id="node37" class="node"><title>Node13</title>
<a xlink:href="_mat_8h.html#a36041502ba33fb13a8c5b4f9112243b0" target="_top" xlink:title="MatPseudoInvf">
<polygon fill="white" stroke="black" points="185,-322.5 185,-341.5 265,-341.5 265,-322.5 185,-322.5"/>
<text text-anchor="middle" x="225" y="-329.5" font-family="Helvetica,sans-Serif" font-size="10.00">MatPseudoInvf</text>
</a>
</g>
<!-- Node7&#45;&gt;Node13 -->
<g id="edge48" class="edge"><title>Node7&#45;&gt;Node13</title>
<path fill="none" stroke="midnightblue" d="M126.249,-237.684C136.283,-258.528 155.023,-292.061 180,-313 184.464,-316.742 189.776,-319.858 195.139,-322.411"/>
<polygon fill="midnightblue" stroke="midnightblue" points="129.412,-236.186 122.034,-228.583 123.061,-239.128 129.412,-236.186"/>
</g>
<!-- Node14 -->
<g id="node39" class="node"><title>Node14</title>
<a xlink:href="_mat_8h.html#ae8e0d9d094b36fd7aa5d222e70d93953" target="_top" xlink:title="MatProVectorielf">
<polygon fill="white" stroke="black" points="180.5,-228.5 180.5,-247.5 269.5,-247.5 269.5,-228.5 180.5,-228.5"/>
<text text-anchor="middle" x="225" y="-235.5" font-family="Helvetica,sans-Serif" font-size="10.00">MatProVectorielf</text>
</a>
</g>
<!-- Node7&#45;&gt;Node14 -->
<g id="edge50" class="edge"><title>Node7&#45;&gt;Node14</title>
<path fill="none" stroke="midnightblue" d="M152.585,-225.199C161.472,-226.792 171.149,-228.527 180.427,-230.19"/>
<polygon fill="midnightblue" stroke="midnightblue" points="153.046,-221.726 142.585,-223.407 151.811,-228.616 153.046,-221.726"/>
</g>
<!-- Node8&#45;&gt;Node8 -->
<g id="edge28" class="edge"><title>Node8&#45;&gt;Node8</title>
<path fill="none" stroke="midnightblue" d="M205.001,-295.4C206.337,-300.315 213.003,-304 225,-304 244.195,-304 249.744,-294.565 241.646,-285.757"/>
<polygon fill="midnightblue" stroke="midnightblue" points="208.376,-296.352 208.354,-285.757 201.764,-294.053 208.376,-296.352"/>
</g>
<!-- Node9 -->
<g id="node19" class="node"><title>Node9</title>
<a xlink:href="_david___calc_co_m_8h.html#a87e4908ddc041180e53e28286d691b80" target="_top" xlink:title="David_CalcCoM">
<polygon fill="white" stroke="black" points="327.5,-266.5 327.5,-285.5 412.5,-285.5 412.5,-266.5 327.5,-266.5"/>
<text text-anchor="middle" x="370" y="-273.5" font-family="Helvetica,sans-Serif" font-size="10.00">David_CalcCoM</text>
</a>
</g>
<!-- Node8&#45;&gt;Node9 -->
<g id="edge20" class="edge"><title>Node8&#45;&gt;Node9</title>
<path fill="none" stroke="midnightblue" d="M275.37,-276C292.35,-276 311.178,-276 327.47,-276"/>
<polygon fill="midnightblue" stroke="midnightblue" points="275.075,-272.5 265.075,-276 275.075,-279.5 275.075,-272.5"/>
</g>
<!-- Node9&#45;&gt;Node3 -->
<g id="edge22" class="edge"><title>Node9&#45;&gt;Node3</title>
<path fill="none" stroke="midnightblue" d="M400.108,-289.956C428.737,-303.682 471.691,-324.277 496.778,-336.305"/>
<polygon fill="midnightblue" stroke="midnightblue" points="401.525,-286.754 390.995,-285.586 398.499,-293.066 401.525,-286.754"/>
</g>
<!-- Node9&#45;&gt;Node4 -->
<g id="edge26" class="edge"><title>Node9&#45;&gt;Node4</title>
<path fill="none" stroke="midnightblue" d="M422.682,-270.276C462.033,-265.763 517.51,-259.07 566,-252 577.713,-250.292 590.323,-248.264 602.09,-246.288"/>
<polygon fill="midnightblue" stroke="midnightblue" points="422.075,-266.822 412.535,-271.432 422.867,-273.777 422.075,-266.822"/>
</g>
<!-- Node9&#45;&gt;Node6 -->
<g id="edge24" class="edge"><title>Node9&#45;&gt;Node6</title>
<path fill="none" stroke="midnightblue" d="M400.108,-261.608C411.495,-255.095 424.156,-246.678 434,-237 455.099,-216.257 447.214,-199.875 470,-181 474.609,-177.182 480.085,-174.052 485.644,-171.513"/>
<polygon fill="midnightblue" stroke="midnightblue" points="398.421,-258.541 391.327,-266.41 401.78,-264.682 398.421,-258.541"/>
</g>
<!-- Node10&#45;&gt;Node4 -->
<g id="edge38" class="edge"><title>Node10&#45;&gt;Node4</title>
<path fill="none" stroke="midnightblue" d="M426.321,-211.466C440.518,-214.175 455.792,-216.886 470,-219 514.666,-225.645 565.939,-230.842 602.129,-234.108"/>
<polygon fill="midnightblue" stroke="midnightblue" points="426.689,-207.972 416.206,-209.503 425.356,-214.844 426.689,-207.972"/>
</g>
<!-- Node10&#45;&gt;Node10 -->
<g id="edge32" class="edge"><title>Node10&#45;&gt;Node10</title>
<path fill="none" stroke="midnightblue" d="M343.121,-218.654C344.244,-223.937 353.204,-228 370,-228 395.594,-228 402.992,-218.565 392.195,-209.757"/>
<polygon fill="midnightblue" stroke="midnightblue" points="346.243,-220.236 347.805,-209.757 340.049,-216.975 346.243,-220.236"/>
</g>
<!-- Node11 -->
<g id="node28" class="node"><title>Node11</title>
<a xlink:href="_david__u_l_i_n_k_8h.html#adaa17668a497d22fe2cd4e7087336a86" target="_top" xlink:title="Initialize the link structure with the model value (used in control loop). See SetupRobot.">
<polygon fill="white" stroke="black" points="470,-190.5 470,-209.5 566,-209.5 566,-190.5 470,-190.5"/>
<text text-anchor="middle" x="518" y="-197.5" font-family="Helvetica,sans-Serif" font-size="10.00">David_SetupRobot</text>
</a>
</g>
<!-- Node10&#45;&gt;Node11 -->
<g id="edge34" class="edge"><title>Node10&#45;&gt;Node11</title>
<path fill="none" stroke="midnightblue" d="M444.257,-200C452.857,-200 461.452,-200 469.565,-200"/>
<polygon fill="midnightblue" stroke="midnightblue" points="444.189,-196.5 434.189,-200 444.189,-203.5 444.189,-196.5"/>
</g>
<!-- Node11&#45;&gt;Node4 -->
<g id="edge36" class="edge"><title>Node11&#45;&gt;Node4</title>
<path fill="none" stroke="midnightblue" d="M561.884,-212.535C579.569,-217.705 599.734,-223.599 616.206,-228.414"/>
<polygon fill="midnightblue" stroke="midnightblue" points="562.385,-209.035 551.804,-209.589 560.421,-215.754 562.385,-209.035"/>
</g>
<!-- Node12&#45;&gt;Node10 -->
<g id="edge44" class="edge"><title>Node12&#45;&gt;Node10</title>
<path fill="none" stroke="midnightblue" d="M271.813,-174.174C291.587,-179.429 314.384,-185.487 332.927,-190.414"/>
<polygon fill="midnightblue" stroke="midnightblue" points="272.648,-170.775 262.085,-171.589 270.851,-177.54 272.648,-170.775"/>
</g>
<!-- Node14&#45;&gt;Node3 -->
<g id="edge54" class="edge"><title>Node14&#45;&gt;Node3</title>
<path fill="none" stroke="midnightblue" d="M262.011,-252.075C264.791,-253.602 267.489,-255.245 270,-257 289.068,-270.328 285.866,-283.344 306,-295 361.446,-327.1 436.299,-339.057 480.334,-343.468"/>
<polygon fill="midnightblue" stroke="midnightblue" points="263.495,-248.905 252.981,-247.597 260.385,-255.176 263.495,-248.905"/>
</g>
<!-- Node14&#45;&gt;Node10 -->
<g id="edge52" class="edge"><title>Node14&#45;&gt;Node10</title>
<path fill="none" stroke="midnightblue" d="M271.813,-225.826C291.587,-220.571 314.384,-214.513 332.927,-209.586"/>
<polygon fill="midnightblue" stroke="midnightblue" points="270.851,-222.46 262.085,-228.411 272.648,-229.225 270.851,-222.46"/>
</g>
<!-- Node16 -->
<g id="node45" class="node"><title>Node16</title>
<a xlink:href="_sherpa_8c.html#ad3548e136b9b35dcfb6c4023ce282125" target="_top" xlink:title="Asserv">
<polygon fill="white" stroke="black" points="202,-38.5 202,-57.5 248,-57.5 248,-38.5 202,-38.5"/>
<text text-anchor="middle" x="225" y="-45.5" font-family="Helvetica,sans-Serif" font-size="10.00">Asserv</text>
</a>
</g>
<!-- Node15&#45;&gt;Node16 -->
<g id="edge58" class="edge"><title>Node15&#45;&gt;Node16</title>
<path fill="none" stroke="midnightblue" d="M154.625,-48C170.279,-48 188.047,-48 201.682,-48"/>
<polygon fill="midnightblue" stroke="midnightblue" points="154.202,-44.5001 144.202,-48 154.202,-51.5001 154.202,-44.5001"/>
</g>
<!-- Node17 -->
<g id="node47" class="node"><title>Node17</title>
<a xlink:href="_sherpa_8c.html#ae66f6b31b5ad750f1fe042a706a4e3d4" target="_top" xlink:title="main">
<polygon fill="white" stroke="black" points="351,-19.5 351,-38.5 389,-38.5 389,-19.5 351,-19.5"/>
<text text-anchor="middle" x="370" y="-26.5" font-family="Helvetica,sans-Serif" font-size="10.00">main</text>
</a>
</g>
<!-- Node16&#45;&gt;Node17 -->
<g id="edge60" class="edge"><title>Node16&#45;&gt;Node17</title>
<path fill="none" stroke="midnightblue" d="M257.952,-43.7546C286.546,-39.9554 327.45,-34.5206 350.803,-31.4178"/>
<polygon fill="midnightblue" stroke="midnightblue" points="257.482,-40.2862 248.03,-45.0729 258.404,-47.2252 257.482,-40.2862"/>
</g>
<!-- Node18&#45;&gt;Node16 -->
<g id="edge64" class="edge"><title>Node18&#45;&gt;Node16</title>
<path fill="none" stroke="midnightblue" d="M142.667,-18.8428C160.555,-25.2555 184.542,-33.8546 201.825,-40.0506"/>
<polygon fill="midnightblue" stroke="midnightblue" points="143.782,-15.5245 133.187,-15.4445 141.419,-22.1138 143.782,-15.5245"/>
</g>
<!-- Node18&#45;&gt;Node17 -->
<g id="edge66" class="edge"><title>Node18&#45;&gt;Node17</title>
<path fill="none" stroke="midnightblue" d="M143.442,-11.9259C194.192,-15.7675 306.899,-24.2991 350.904,-27.6302"/>
<polygon fill="midnightblue" stroke="midnightblue" points="143.559,-8.42482 133.323,-11.1599 143.031,-15.4049 143.559,-8.42482"/>
</g>
</g>
</svg>
        <g id="navigator" transform="translate(0 0)" fill="#404254">
                <rect fill="#f2f5e9" fill-opacity="0.5" stroke="#606060" stroke-width=".5" x="0" y="0" width="60" height="60"/>
                <use id="zoomplus" xlink:href="#zoomPlus" x="17" y="9" onmousedown="handleZoom(evt,'in')"/>
                <use id="zoomminus" xlink:href="#zoomMin" x="42" y="9" onmousedown="handleZoom(evt,'out')"/>
                <use id="reset" xlink:href="#resetDef" x="30" y="36" onmousedown="handleReset()"/>
                <g id="arrowUp" xlink:href="#dirArrow" transform="translate(30 24)" onmousedown="handlePan(0,-1)">
                  <use xlink:href="#rim" fill="#404040">
                        <set attributeName="fill" to="#808080" begin="arrowUp.mouseover" end="arrowUp.mouseout"/>
                  </use>
                  <path fill="none" stroke="white" stroke-width="1.5" d="M0,-3.0v7 M-2.5,-0.5L0,-3.0L2.5,-0.5"/>
                </g>
                <g id="arrowRight" xlink:href="#dirArrow" transform="rotate(90) translate(36 -43)" onmousedown="handlePan(1,0)">
                  <use xlink:href="#rim" fill="#404040">
                        <set attributeName="fill" to="#808080" begin="arrowRight.mouseover" end="arrowRight.mouseout"/>
                  </use>
                  <path fill="none" stroke="white" stroke-width="1.5" d="M0,-3.0v7 M-2.5,-0.5L0,-3.0L2.5,-0.5"/>
                </g>
                <g id="arrowDown" xlink:href="#dirArrow" transform="rotate(180) translate(-30 -48)" onmousedown="handlePan(0,1)">
                  <use xlink:href="#rim" fill="#404040">
                        <set attributeName="fill" to="#808080" begin="arrowDown.mouseover" end="arrowDown.mouseout"/>
                  </use>
                  <path fill="none" stroke="white" stroke-width="1.5" d="M0,-3.0v7 M-2.5,-0.5L0,-3.0L2.5,-0.5"/>
                </g>
                <g id="arrowLeft" xlink:href="#dirArrow" transform="rotate(270) translate(-36 17)" onmousedown="handlePan(-1,0)">
                  <use xlink:href="#rim" fill="#404040">
                        <set attributeName="fill" to="#808080" begin="arrowLeft.mouseover" end="arrowLeft.mouseout"/>
                  </use>
                  <path fill="none" stroke="white" stroke-width="1.5" d="M0,-3.0v7 M-2.5,-0.5L0,-3.0L2.5,-0.5"/>
                </g>
        </g>
</svg>
