<?xml version="1.0" encoding="UTF-8" standalone="no"?>
<!DOCTYPE svg PUBLIC "-//W3C//DTD SVG 1.1//EN"
 "http://www.w3.org/Graphics/SVG/1.1/DTD/svg11.dtd">
<!-- Generated by graphviz version 2.28.0 (20110507.0327)
 -->
<!-- Title: G Pages: 1 -->
<!--zoomable-->
<svg id="main" version="1.1" xmlns="http://www.w3.org/2000/svg" xmlns:xlink="http://www.w3.org/1999/xlink" xml:space="preserve" onload="init(evt)">
        <defs>
                <circle id="rim" cx="0" cy="0" r="7"/>
                <circle id="rim2" cx="0" cy="0" r="3.5"/>
                <g id="zoomPlus">
                        <use xlink:href="#rim" fill="#404040">
                                <set attributeName="fill" to="#808080" begin="zoomplus.mouseover" end="zoomplus.mouseout"/>
                        </use>
                        <path d="M-4,0h8M0,-4v8" fill="none" stroke="white" stroke-width="1.5" pointer-events="none"/>
                </g>
                <g id="zoomMin">
                        <use xlink:href="#rim" fill="#404040">
                                <set attributeName="fill" to="#808080" begin="zoomminus.mouseover" end="zoomminus.mouseout"/>
                        </use>
                        <path d="M-4,0h8" fill="none" stroke="white" stroke-width="1.5" pointer-events="none"/>
                </g>
                <g id="dirArrow">
                        <path fill="none" stroke="white" stroke-width="1.5" d="M0,-3.0v7 M-2.5,-0.5L0,-3.0L2.5,-0.5"/>
                </g>
               <g id="resetDef">
                       <use xlink:href="#rim2" fill="#404040">
                               <set attributeName="fill" to="#808080" begin="reset.mouseover" end="reset.mouseout"/>
                       </use>
               </g>
        </defs>

<script type="text/javascript">
var viewWidth = 688;
var viewHeight = 292;
var sectionId = 'dynsection-14';
</script>
<script xlink:href="svgpan.js"/>
<svg id="graph" class="graph">
<g id="viewport">
<title>G</title>
<polygon fill="white" stroke="white" points="-4,5 -4,-287.523 685,-287.523 685,5 -4,5"/>
<!-- Node1 -->
<g id="node1" class="node"><title>Node1</title>
<polygon fill="#bfbfbf" stroke="black" points="0.5,-114.5 0.5,-133.5 51.5,-133.5 51.5,-114.5 0.5,-114.5"/>
<text text-anchor="middle" x="26" y="-121.5" font-family="Helvetica,sans-Serif" font-size="10.00">MatMulf</text>
</g>
<!-- Node2 -->
<g id="node3" class="node"><title>Node2</title>
<a xlink:href="_david___calc_m_c_8h.html#a5877c51babeda61b69280e4dc6ed28dd" target="_top" xlink:title="David_CalcMC">
<polygon fill="white" stroke="black" points="93,-190.5 93,-209.5 173,-209.5 173,-190.5 93,-190.5"/>
<text text-anchor="middle" x="133" y="-197.5" font-family="Helvetica,sans-Serif" font-size="10.00">David_CalcMC</text>
</a>
</g>
<!-- Node1&#45;&gt;Node2 -->
<g id="edge2" class="edge"><title>Node1&#45;&gt;Node2</title>
<path fill="none" stroke="midnightblue" d="M44.2365,-140.376C56.0473,-151.164 72.3508,-165.233 88,-176 95.5987,-181.228 104.448,-186.241 112.21,-190.321"/>
<polygon fill="midnightblue" stroke="midnightblue" points="46.5514,-137.749 36.8408,-133.512 41.7895,-142.88 46.5514,-137.749"/>
</g>
<!-- Node4 -->
<g id="node7" class="node"><title>Node4</title>
<a xlink:href="_david___gravity_8h.html#a1f1e600a0c38ffaf69b85505ea4645d0" target="_top" xlink:title="David_Gravity">
<polygon fill="white" stroke="black" points="388.5,-124.5 388.5,-143.5 463.5,-143.5 463.5,-124.5 388.5,-124.5"/>
<text text-anchor="middle" x="426" y="-131.5" font-family="Helvetica,sans-Serif" font-size="10.00">David_Gravity</text>
</a>
</g>
<!-- Node1&#45;&gt;Node4 -->
<g id="edge30" class="edge"><title>Node1&#45;&gt;Node4</title>
<path fill="none" stroke="midnightblue" d="M61.252,-136.652C69.8648,-139.28 79.1724,-141.657 88,-143 199.605,-159.979 229.276,-149.094 342,-143 357.197,-142.178 373.89,-140.517 388.296,-138.842"/>
<polygon fill="midnightblue" stroke="midnightblue" points="62.1228,-133.255 51.5308,-133.498 59.9629,-139.913 62.1228,-133.255"/>
</g>
<!-- Node5 -->
<g id="node10" class="node"><title>Node5</title>
<a xlink:href="_forward_dynamics_8h.html#a23609ae4e05df387941c4bbc7bfc26fe" target="_top" xlink:title="ForwardDynamics">
<polygon fill="white" stroke="black" points="510.5,-124.5 510.5,-143.5 605.5,-143.5 605.5,-124.5 510.5,-124.5"/>
<text text-anchor="middle" x="558" y="-131.5" font-family="Helvetica,sans-Serif" font-size="10.00">ForwardDynamics</text>
</a>
</g>
<!-- Node1&#45;&gt;Node5 -->
<g id="edge36" class="edge"><title>Node1&#45;&gt;Node5</title>
<path fill="none" stroke="midnightblue" d="M31.0891,-143.584C37.81,-170.176 53.9923,-216.712 88,-237 144.403,-270.649 266.316,-325.502 474,-228 512.823,-209.774 541.046,-163.934 551.993,-143.773"/>
<polygon fill="midnightblue" stroke="midnightblue" points="34.4297,-142.496 28.7635,-133.543 27.6102,-144.075 34.4297,-142.496"/>
</g>
<!-- Node8 -->
<g id="node18" class="node"><title>Node8</title>
<a xlink:href="_david___forward_kinematics_8h.html#ab4a9975fbdb8a88c795a8f0b5bf0bf97" target="_top" xlink:title="David_ForwardKinematics">
<polygon fill="white" stroke="black" points="214,-58.5 214,-77.5 342,-77.5 342,-58.5 214,-58.5"/>
<text text-anchor="middle" x="278" y="-65.5" font-family="Helvetica,sans-Serif" font-size="10.00">David_ForwardKinematics</text>
</a>
</g>
<!-- Node1&#45;&gt;Node8 -->
<g id="edge20" class="edge"><title>Node1&#45;&gt;Node8</title>
<path fill="none" stroke="midnightblue" d="M61.4928,-112.54C70.099,-109.88 79.3432,-107.189 88,-105 131.761,-93.9361 181.927,-84.2518 219.573,-77.5688"/>
<polygon fill="midnightblue" stroke="midnightblue" points="60.2363,-109.267 51.7564,-115.618 62.3463,-115.941 60.2363,-109.267"/>
</g>
<!-- Node10 -->
<g id="node26" class="node"><title>Node10</title>
<a xlink:href="_david___rodrigues_8h.html#a60a6dbedf38702ef67715eb17c6efadc" target="_top" xlink:title="David_Rodrigues">
<polygon fill="white" stroke="black" points="88.5,-38.5 88.5,-57.5 177.5,-57.5 177.5,-38.5 88.5,-38.5"/>
<text text-anchor="middle" x="133" y="-45.5" font-family="Helvetica,sans-Serif" font-size="10.00">David_Rodrigues</text>
</a>
</g>
<!-- Node1&#45;&gt;Node10 -->
<g id="edge32" class="edge"><title>Node1&#45;&gt;Node10</title>
<path fill="none" stroke="midnightblue" d="M44.2365,-107.624C56.0473,-96.8357 72.3508,-82.7668 88,-72 95.5987,-66.772 104.448,-61.7587 112.21,-57.6786"/>
<polygon fill="midnightblue" stroke="midnightblue" points="41.7895,-105.12 36.8408,-114.488 46.5514,-110.251 41.7895,-105.12"/>
</g>
<!-- Node11 -->
<g id="node30" class="node"><title>Node11</title>
<a xlink:href="_mat_8h.html#a36041502ba33fb13a8c5b4f9112243b0" target="_top" xlink:title="MatPseudoInvf">
<polygon fill="white" stroke="black" points="93,-0.5 93,-19.5 173,-19.5 173,-0.5 93,-0.5"/>
<text text-anchor="middle" x="133" y="-7.5" font-family="Helvetica,sans-Serif" font-size="10.00">MatPseudoInvf</text>
</a>
</g>
<!-- Node1&#45;&gt;Node11 -->
<g id="edge38" class="edge"><title>Node1&#45;&gt;Node11</title>
<path fill="none" stroke="midnightblue" d="M34.9928,-105.111C44.7518,-84.0413 63.0873,-50.1465 88,-29 92.4405,-25.2308 97.7423,-22.1023 103.103,-19.5459"/>
<polygon fill="midnightblue" stroke="midnightblue" points="31.7663,-103.753 30.8997,-114.312 38.162,-106.598 31.7663,-103.753"/>
</g>
<!-- Node12 -->
<g id="node32" class="node"><title>Node12</title>
<a xlink:href="_mat_8h.html#ae8e0d9d094b36fd7aa5d222e70d93953" target="_top" xlink:title="MatProVectorielf">
<polygon fill="white" stroke="black" points="88.5,-114.5 88.5,-133.5 177.5,-133.5 177.5,-114.5 88.5,-114.5"/>
<text text-anchor="middle" x="133" y="-121.5" font-family="Helvetica,sans-Serif" font-size="10.00">MatProVectorielf</text>
</a>
</g>
<!-- Node1&#45;&gt;Node12 -->
<g id="edge40" class="edge"><title>Node1&#45;&gt;Node12</title>
<path fill="none" stroke="midnightblue" d="M61.8567,-124C70.291,-124 79.4127,-124 88.2,-124"/>
<polygon fill="midnightblue" stroke="midnightblue" points="61.6179,-120.5 51.6178,-124 61.6178,-127.5 61.6179,-120.5"/>
</g>
<!-- Node2&#45;&gt;Node2 -->
<g id="edge18" class="edge"><title>Node2&#45;&gt;Node2</title>
<path fill="none" stroke="midnightblue" d="M113.371,-219.4C114.682,-224.315 121.225,-228 133,-228 151.84,-228 157.286,-218.565 149.338,-209.757"/>
<polygon fill="midnightblue" stroke="midnightblue" points="116.745,-220.352 116.662,-209.757 110.12,-218.091 116.745,-220.352"/>
</g>
<!-- Node3 -->
<g id="node5" class="node"><title>Node3</title>
<a xlink:href="_david___calc_co_m_8h.html#a87e4908ddc041180e53e28286d691b80" target="_top" xlink:title="David_CalcCoM">
<polygon fill="white" stroke="black" points="235.5,-190.5 235.5,-209.5 320.5,-209.5 320.5,-190.5 235.5,-190.5"/>
<text text-anchor="middle" x="278" y="-197.5" font-family="Helvetica,sans-Serif" font-size="10.00">David_CalcCoM</text>
</a>
</g>
<!-- Node2&#45;&gt;Node3 -->
<g id="edge4" class="edge"><title>Node2&#45;&gt;Node3</title>
<path fill="none" stroke="midnightblue" d="M183.37,-200C200.35,-200 219.178,-200 235.47,-200"/>
<polygon fill="midnightblue" stroke="midnightblue" points="183.075,-196.5 173.075,-200 183.075,-203.5 183.075,-196.5"/>
</g>
<!-- Node3&#45;&gt;Node4 -->
<g id="edge6" class="edge"><title>Node3&#45;&gt;Node4</title>
<path fill="none" stroke="midnightblue" d="M315.511,-186.832C324.26,-183.473 333.522,-179.748 342,-176 365.042,-165.814 390.823,-152.446 407.448,-143.557"/>
<polygon fill="midnightblue" stroke="midnightblue" points="314.041,-183.646 305.92,-190.45 316.512,-190.195 314.041,-183.646"/>
</g>
<!-- Node3&#45;&gt;Node5 -->
<g id="edge16" class="edge"><title>Node3&#45;&gt;Node5</title>
<path fill="none" stroke="midnightblue" d="M322.591,-211.774C363.202,-220.513 424.724,-227.965 474,-209 508.438,-195.746 537.477,-160.853 550.161,-143.742"/>
<polygon fill="midnightblue" stroke="midnightblue" points="323.263,-208.338 312.736,-209.54 321.715,-215.165 323.263,-208.338"/>
</g>
<!-- Node7 -->
<g id="node14" class="node"><title>Node7</title>
<a xlink:href="_david___stabilizator_8h.html#a160d145abfa84a49d710ddcb384990ef" target="_top" xlink:title="David_Stabilizator">
<polygon fill="white" stroke="black" points="379,-180.5 379,-199.5 473,-199.5 473,-180.5 379,-180.5"/>
<text text-anchor="middle" x="426" y="-187.5" font-family="Helvetica,sans-Serif" font-size="10.00">David_Stabilizator</text>
</a>
</g>
<!-- Node3&#45;&gt;Node7 -->
<g id="edge14" class="edge"><title>Node3&#45;&gt;Node7</title>
<path fill="none" stroke="midnightblue" d="M330.875,-196.447C346.511,-195.376 363.562,-194.208 378.802,-193.164"/>
<polygon fill="midnightblue" stroke="midnightblue" points="330.575,-192.959 320.838,-197.134 331.054,-199.943 330.575,-192.959"/>
</g>
<!-- Node4&#45;&gt;Node4 -->
<g id="edge8" class="edge"><title>Node4&#45;&gt;Node4</title>
<path fill="none" stroke="midnightblue" d="M401.447,-153.029C402.786,-158.128 410.97,-162 426,-162 449.461,-162 456.243,-152.565 446.345,-143.757"/>
<polygon fill="midnightblue" stroke="midnightblue" points="404.709,-154.31 405.655,-143.757 398.335,-151.416 404.709,-154.31"/>
</g>
<!-- Node4&#45;&gt;Node5 -->
<g id="edge10" class="edge"><title>Node4&#45;&gt;Node5</title>
<path fill="none" stroke="midnightblue" d="M473.781,-134C485.727,-134 498.567,-134 510.499,-134"/>
<polygon fill="midnightblue" stroke="midnightblue" points="473.558,-130.5 463.558,-134 473.558,-137.5 473.558,-130.5"/>
</g>
<!-- Node6 -->
<g id="node12" class="node"><title>Node6</title>
<a xlink:href="main_8c.html#a0ddf1224851353fc92bfbff6f499fa97" target="_top" xlink:title="main">
<polygon fill="white" stroke="black" points="642,-124.5 642,-143.5 680,-143.5 680,-124.5 642,-124.5"/>
<text text-anchor="middle" x="661" y="-131.5" font-family="Helvetica,sans-Serif" font-size="10.00">main</text>
</a>
</g>
<!-- Node5&#45;&gt;Node6 -->
<g id="edge12" class="edge"><title>Node5&#45;&gt;Node6</title>
<path fill="none" stroke="midnightblue" d="M615.879,-134C625.25,-134 634.323,-134 641.779,-134"/>
<polygon fill="midnightblue" stroke="midnightblue" points="615.657,-130.5 605.657,-134 615.657,-137.5 615.657,-130.5"/>
</g>
<!-- Node8&#45;&gt;Node5 -->
<g id="edge28" class="edge"><title>Node8&#45;&gt;Node5</title>
<path fill="none" stroke="midnightblue" d="M329.129,-79.9012C382.926,-92.6731 467.309,-112.706 516.885,-124.476"/>
<polygon fill="midnightblue" stroke="midnightblue" points="329.665,-76.4311 319.127,-77.5265 328.048,-83.2418 329.665,-76.4311"/>
</g>
<!-- Node8&#45;&gt;Node8 -->
<g id="edge22" class="edge"><title>Node8&#45;&gt;Node8</title>
<path fill="none" stroke="midnightblue" d="M251.121,-86.6539C252.244,-91.9368 261.204,-96 278,-96 303.594,-96 310.992,-86.5653 300.195,-77.7571"/>
<polygon fill="midnightblue" stroke="midnightblue" points="254.243,-88.2361 255.805,-77.7571 248.049,-84.9747 254.243,-88.2361"/>
</g>
<!-- Node9 -->
<g id="node21" class="node"><title>Node9</title>
<a xlink:href="_david__u_l_i_n_k_8h.html#adaa17668a497d22fe2cd4e7087336a86" target="_top" xlink:title="Initialize the link structure with the model value (used in control loop). See SetupRobot.">
<polygon fill="white" stroke="black" points="378,-48.5 378,-67.5 474,-67.5 474,-48.5 378,-48.5"/>
<text text-anchor="middle" x="426" y="-55.5" font-family="Helvetica,sans-Serif" font-size="10.00">David_SetupRobot</text>
</a>
</g>
<!-- Node8&#45;&gt;Node9 -->
<g id="edge24" class="edge"><title>Node8&#45;&gt;Node9</title>
<path fill="none" stroke="midnightblue" d="M352.257,-62.9824C360.857,-62.3933 369.452,-61.8047 377.565,-61.249"/>
<polygon fill="midnightblue" stroke="midnightblue" points="351.926,-59.4968 342.189,-63.672 352.404,-66.4804 351.926,-59.4968"/>
</g>
<!-- Node9&#45;&gt;Node5 -->
<g id="edge26" class="edge"><title>Node9&#45;&gt;Node5</title>
<path fill="none" stroke="midnightblue" d="M455.998,-72.3049C462.001,-75.4063 468.247,-78.7373 474,-82 498.553,-95.9249 526.163,-113.655 542.542,-124.401"/>
<polygon fill="midnightblue" stroke="midnightblue" points="457.37,-69.0762 446.87,-67.6633 454.198,-75.3158 457.37,-69.0762"/>
</g>
<!-- Node10&#45;&gt;Node8 -->
<g id="edge34" class="edge"><title>Node10&#45;&gt;Node8</title>
<path fill="none" stroke="midnightblue" d="M187.828,-55.5284C196.32,-56.716 205.166,-57.9533 213.846,-59.1672"/>
<polygon fill="midnightblue" stroke="midnightblue" points="188.07,-52.0283 177.682,-54.1093 187.101,-58.9608 188.07,-52.0283"/>
</g>
<!-- Node12&#45;&gt;Node4 -->
<g id="edge44" class="edge"><title>Node12&#45;&gt;Node4</title>
<path fill="none" stroke="midnightblue" d="M187.683,-125.845C245.932,-127.846 337.379,-130.989 388.065,-132.731"/>
<polygon fill="midnightblue" stroke="midnightblue" points="187.68,-122.343 177.566,-125.497 187.44,-129.339 187.68,-122.343"/>
</g>
<!-- Node12&#45;&gt;Node8 -->
<g id="edge42" class="edge"><title>Node12&#45;&gt;Node8</title>
<path fill="none" stroke="midnightblue" d="M168.08,-110.654C194.157,-100.442 229.481,-86.6086 252.738,-77.5011"/>
<polygon fill="midnightblue" stroke="midnightblue" points="166.618,-107.468 158.583,-114.373 169.17,-113.986 166.618,-107.468"/>
</g>
</g>
</svg>
        <g id="navigator" transform="translate(0 0)" fill="#404254">
                <rect fill="#f2f5e9" fill-opacity="0.5" stroke="#606060" stroke-width=".5" x="0" y="0" width="60" height="60"/>
                <use id="zoomplus" xlink:href="#zoomPlus" x="17" y="9" onmousedown="handleZoom(evt,'in')"/>
                <use id="zoomminus" xlink:href="#zoomMin" x="42" y="9" onmousedown="handleZoom(evt,'out')"/>
                <use id="reset" xlink:href="#resetDef" x="30" y="36" onmousedown="handleReset()"/>
                <g id="arrowUp" xlink:href="#dirArrow" transform="translate(30 24)" onmousedown="handlePan(0,-1)">
                  <use xlink:href="#rim" fill="#404040">
                        <set attributeName="fill" to="#808080" begin="arrowUp.mouseover" end="arrowUp.mouseout"/>
                  </use>
                  <path fill="none" stroke="white" stroke-width="1.5" d="M0,-3.0v7 M-2.5,-0.5L0,-3.0L2.5,-0.5"/>
                </g>
                <g id="arrowRight" xlink:href="#dirArrow" transform="rotate(90) translate(36 -43)" onmousedown="handlePan(1,0)">
                  <use xlink:href="#rim" fill="#404040">
                        <set attributeName="fill" to="#808080" begin="arrowRight.mouseover" end="arrowRight.mouseout"/>
                  </use>
                  <path fill="none" stroke="white" stroke-width="1.5" d="M0,-3.0v7 M-2.5,-0.5L0,-3.0L2.5,-0.5"/>
                </g>
                <g id="arrowDown" xlink:href="#dirArrow" transform="rotate(180) translate(-30 -48)" onmousedown="handlePan(0,1)">
                  <use xlink:href="#rim" fill="#404040">
                        <set attributeName="fill" to="#808080" begin="arrowDown.mouseover" end="arrowDown.mouseout"/>
                  </use>
                  <path fill="none" stroke="white" stroke-width="1.5" d="M0,-3.0v7 M-2.5,-0.5L0,-3.0L2.5,-0.5"/>
                </g>
                <g id="arrowLeft" xlink:href="#dirArrow" transform="rotate(270) translate(-36 17)" onmousedown="handlePan(-1,0)">
                  <use xlink:href="#rim" fill="#404040">
                        <set attributeName="fill" to="#808080" begin="arrowLeft.mouseover" end="arrowLeft.mouseout"/>
                  </use>
                  <path fill="none" stroke="white" stroke-width="1.5" d="M0,-3.0v7 M-2.5,-0.5L0,-3.0L2.5,-0.5"/>
                </g>
        </g>
</svg>
