<?xml version="1.0" encoding="UTF-8" standalone="no"?>
<!DOCTYPE svg PUBLIC "-//W3C//DTD SVG 1.1//EN"
 "http://www.w3.org/Graphics/SVG/1.1/DTD/svg11.dtd">
<!-- Generated by graphviz version 2.28.0 (20110507.0327)
 -->
<!-- Title: G Pages: 1 -->
<svg width="433pt" height="140pt"
 viewBox="0.00 0.00 433.00 140.00" xmlns="http://www.w3.org/2000/svg" xmlns:xlink="http://www.w3.org/1999/xlink">
<g id="graph1" class="graph" transform="scale(1 1) rotate(0) translate(4 136)">
<title>G</title>
<polygon fill="white" stroke="white" points="-4,5 -4,-136 430,-136 430,5 -4,5"/>
<!-- Node1 -->
<g id="node1" class="node"><title>Node1</title>
<polygon fill="#bfbfbf" stroke="black" points="153,-112.5 153,-131.5 221,-131.5 221,-112.5 153,-112.5"/>
<text text-anchor="middle" x="187" y="-119.5" font-family="Helvetica,sans-Serif" font-size="10.00">PrintState.c</text>
</g>
<!-- Node2 -->
<g id="node3" class="node"><title>Node2</title>
<polygon fill="white" stroke="#bfbfbf" points="0,-0.5 0,-19.5 84,-19.5 84,-0.5 0,-0.5"/>
<text text-anchor="middle" x="42" y="-7.5" font-family="Helvetica,sans-Serif" font-size="10.00">gsl/gsl_vector.h</text>
</g>
<!-- Node1&#45;&gt;Node2 -->
<g id="edge2" class="edge"><title>Node1&#45;&gt;Node2</title>
<path fill="none" stroke="midnightblue" d="M152.926,-117.158C107.031,-111.201 29.1081,-98.0639 12,-76 0.41322,-61.0568 13.1942,-40.9176 25.4718,-27.0362"/>
<polygon fill="midnightblue" stroke="midnightblue" points="28.1132,-29.3373 32.4545,-19.6727 23.0339,-24.5206 28.1132,-29.3373"/>
</g>
<!-- Node3 -->
<g id="node5" class="node"><title>Node3</title>
<polygon fill="white" stroke="#bfbfbf" points="102,-0.5 102,-19.5 188,-19.5 188,-0.5 102,-0.5"/>
<text text-anchor="middle" x="145" y="-7.5" font-family="Helvetica,sans-Serif" font-size="10.00">gsl/gsl_matrix.h</text>
</g>
<!-- Node1&#45;&gt;Node3 -->
<g id="edge4" class="edge"><title>Node1&#45;&gt;Node3</title>
<path fill="none" stroke="midnightblue" d="M184.825,-112.441C181.528,-99.8692 174.816,-75.7629 167,-56 163.362,-46.8014 158.614,-36.8927 154.46,-28.7212"/>
<polygon fill="midnightblue" stroke="midnightblue" points="157.526,-27.0319 149.802,-19.7797 151.318,-30.2656 157.526,-27.0319"/>
</g>
<!-- Node4 -->
<g id="node7" class="node"><title>Node4</title>
<polygon fill="white" stroke="#bfbfbf" points="215.5,-56.5 215.5,-75.5 292.5,-75.5 292.5,-56.5 215.5,-56.5"/>
<text text-anchor="middle" x="254" y="-63.5" font-family="Helvetica,sans-Serif" font-size="10.00">gsl/gsl_blas.h</text>
</g>
<!-- Node1&#45;&gt;Node4 -->
<g id="edge6" class="edge"><title>Node1&#45;&gt;Node4</title>
<path fill="none" stroke="midnightblue" d="M197.765,-112.324C207.766,-104.263 222.887,-92.0765 234.93,-82.3695"/>
<polygon fill="midnightblue" stroke="midnightblue" points="237.45,-84.8343 243.039,-75.8339 233.057,-79.3841 237.45,-84.8343"/>
</g>
<!-- Node5 -->
<g id="node9" class="node"><title>Node5</title>
<polygon fill="white" stroke="#bfbfbf" points="311,-56.5 311,-75.5 357,-75.5 357,-56.5 311,-56.5"/>
<text text-anchor="middle" x="334" y="-63.5" font-family="Helvetica,sans-Serif" font-size="10.00">stdio.h</text>
</g>
<!-- Node1&#45;&gt;Node5 -->
<g id="edge8" class="edge"><title>Node1&#45;&gt;Node5</title>
<path fill="none" stroke="midnightblue" d="M210.293,-112.444C234.807,-103.438 273.596,-89.1891 301.2,-79.049"/>
<polygon fill="midnightblue" stroke="midnightblue" points="302.637,-82.25 310.816,-75.5164 300.223,-75.6793 302.637,-82.25"/>
</g>
<!-- Node6 -->
<g id="node11" class="node"><title>Node6</title>
<a xlink:href="u_link_8h.html" target="_top" xlink:title="Link initialisation and declarations.">
<polygon fill="white" stroke="black" points="107.5,-56.5 107.5,-75.5 158.5,-75.5 158.5,-56.5 107.5,-56.5"/>
<text text-anchor="middle" x="133" y="-63.5" font-family="Helvetica,sans-Serif" font-size="10.00">uLINK.h</text>
</a>
</g>
<!-- Node1&#45;&gt;Node6 -->
<g id="edge10" class="edge"><title>Node1&#45;&gt;Node6</title>
<path fill="none" stroke="midnightblue" d="M178.083,-112.083C170.22,-104.22 158.569,-92.5688 149.081,-83.0813"/>
<polygon fill="midnightblue" stroke="midnightblue" points="151.297,-80.3473 141.751,-75.7511 146.347,-85.2971 151.297,-80.3473"/>
</g>
<!-- Node7 -->
<g id="node15" class="node"><title>Node7</title>
<a xlink:href="_setup_8h.html" target="_top" xlink:title="Contain setup of simulations.">
<polygon fill="white" stroke="black" points="375,-56.5 375,-75.5 425,-75.5 425,-56.5 375,-56.5"/>
<text text-anchor="middle" x="400" y="-63.5" font-family="Helvetica,sans-Serif" font-size="10.00">Setup.h</text>
</a>
</g>
<!-- Node1&#45;&gt;Node7 -->
<g id="edge16" class="edge"><title>Node1&#45;&gt;Node7</title>
<path fill="none" stroke="midnightblue" d="M221.015,-112.583C255.076,-104.125 309.246,-90.5928 365.059,-76.221"/>
<polygon fill="midnightblue" stroke="midnightblue" points="365.949,-79.6059 374.758,-73.7191 364.201,-72.8278 365.949,-79.6059"/>
</g>
<!-- Node8 -->
<g id="node17" class="node"><title>Node8</title>
<a xlink:href="_print_state_8h.html" target="_top" xlink:title="Save and load states.">
<polygon fill="white" stroke="black" points="21,-56.5 21,-75.5 89,-75.5 89,-56.5 21,-56.5"/>
<text text-anchor="middle" x="55" y="-63.5" font-family="Helvetica,sans-Serif" font-size="10.00">PrintState.h</text>
</a>
</g>
<!-- Node1&#45;&gt;Node8 -->
<g id="edge18" class="edge"><title>Node1&#45;&gt;Node8</title>
<path fill="none" stroke="midnightblue" d="M166.084,-112.444C144.264,-103.517 109.85,-89.4387 85.1078,-79.3168"/>
<polygon fill="midnightblue" stroke="midnightblue" points="86.3987,-76.0634 75.8179,-75.5164 83.7482,-82.5422 86.3987,-76.0634"/>
</g>
<!-- Node6&#45;&gt;Node2 -->
<g id="edge12" class="edge"><title>Node6&#45;&gt;Node2</title>
<path fill="none" stroke="midnightblue" d="M118.379,-56.324C104.051,-47.8215 81.9875,-34.7288 65.2513,-24.7975"/>
<polygon fill="midnightblue" stroke="midnightblue" points="66.9704,-21.7478 56.5844,-19.6545 63.3982,-27.7677 66.9704,-21.7478"/>
</g>
<!-- Node6&#45;&gt;Node3 -->
<g id="edge14" class="edge"><title>Node6&#45;&gt;Node3</title>
<path fill="none" stroke="midnightblue" d="M134.982,-56.083C136.572,-48.9272 138.859,-38.6353 140.846,-29.6911"/>
<polygon fill="midnightblue" stroke="midnightblue" points="144.303,-30.2722 143.055,-19.7511 137.469,-28.7537 144.303,-30.2722"/>
</g>
<!-- Node8&#45;&gt;Node2 -->
<g id="edge20" class="edge"><title>Node8&#45;&gt;Node2</title>
<path fill="none" stroke="midnightblue" d="M52.8533,-56.083C51.1306,-48.9272 48.6529,-38.6353 46.4997,-29.6911"/>
<polygon fill="midnightblue" stroke="midnightblue" points="49.8501,-28.6541 44.1067,-19.7511 43.0446,-30.2925 49.8501,-28.6541"/>
</g>
<!-- Node8&#45;&gt;Node3 -->
<g id="edge22" class="edge"><title>Node8&#45;&gt;Node3</title>
<path fill="none" stroke="midnightblue" d="M69.4601,-56.324C83.4996,-47.9002 105.048,-34.9709 121.543,-25.0741"/>
<polygon fill="midnightblue" stroke="midnightblue" points="123.802,-27.8007 130.576,-19.6545 120.2,-21.7983 123.802,-27.8007"/>
</g>
</g>
</svg>
