<?xml version="1.0" encoding="UTF-8" standalone="no"?>
<!DOCTYPE svg PUBLIC "-//W3C//DTD SVG 1.1//EN"
 "http://www.w3.org/Graphics/SVG/1.1/DTD/svg11.dtd">
<!-- Generated by graphviz version 2.28.0 (20110507.0327)
 -->
<!-- Title: G Pages: 1 -->
<svg width="140pt" height="84pt"
 viewBox="0.00 0.00 140.00 84.00" xmlns="http://www.w3.org/2000/svg" xmlns:xlink="http://www.w3.org/1999/xlink">
<g id="graph1" class="graph" transform="scale(1 1) rotate(0) translate(4 80)">
<title>G</title>
<polygon fill="white" stroke="white" points="-4,5 -4,-80 137,-80 137,5 -4,5"/>
<!-- Node1 -->
<g id="node1" class="node"><title>Node1</title>
<polygon fill="#bfbfbf" stroke="black" points="26,-56.5 26,-75.5 94,-75.5 94,-56.5 26,-56.5"/>
<text text-anchor="middle" x="60" y="-63.5" font-family="Helvetica,sans-Serif" font-size="10.00">PrintState.h</text>
</g>
<!-- Node2 -->
<g id="node3" class="node"><title>Node2</title>
<a xlink:href="main_8c.html" target="_top" xlink:title="This is the multi body simulator.">
<polygon fill="white" stroke="black" points="0,-0.5 0,-19.5 46,-19.5 46,-0.5 0,-0.5"/>
<text text-anchor="middle" x="23" y="-7.5" font-family="Helvetica,sans-Serif" font-size="10.00">main.c</text>
</a>
</g>
<!-- Node1&#45;&gt;Node2 -->
<g id="edge2" class="edge"><title>Node1&#45;&gt;Node2</title>
<path fill="none" stroke="midnightblue" d="M48.0542,-47.5656C41.6883,-38.2747 34.1332,-27.2484 28.9961,-19.7511"/>
<polygon fill="midnightblue" stroke="midnightblue" points="45.3506,-49.812 53.8902,-56.083 51.1251,-45.8553 45.3506,-49.812"/>
</g>
<!-- Node3 -->
<g id="node5" class="node"><title>Node3</title>
<a xlink:href="_print_state_8c.html" target="_top" xlink:title="PrintState.c">
<polygon fill="white" stroke="black" points="64,-0.5 64,-19.5 132,-19.5 132,-0.5 64,-0.5"/>
<text text-anchor="middle" x="98" y="-7.5" font-family="Helvetica,sans-Serif" font-size="10.00">PrintState.c</text>
</a>
</g>
<!-- Node1&#45;&gt;Node3 -->
<g id="edge4" class="edge"><title>Node1&#45;&gt;Node3</title>
<path fill="none" stroke="midnightblue" d="M72.0647,-47.8554C78.6447,-38.5048 86.511,-27.3265 91.8418,-19.7511"/>
<polygon fill="midnightblue" stroke="midnightblue" points="69.1676,-45.8907 66.2749,-56.083 74.8922,-49.9192 69.1676,-45.8907"/>
</g>
</g>
</svg>
