<?xml version="1.0" encoding="UTF-8" standalone="no"?>
<!DOCTYPE svg PUBLIC "-//W3C//DTD SVG 1.1//EN"
 "http://www.w3.org/Graphics/SVG/1.1/DTD/svg11.dtd">
<!-- Generated by graphviz version 2.28.0 (20110507.0327)
 -->
<!-- Title: G Pages: 1 -->
<svg width="423pt" height="140pt"
 viewBox="0.00 0.00 422.68 140.00" xmlns="http://www.w3.org/2000/svg" xmlns:xlink="http://www.w3.org/1999/xlink">
<g id="graph1" class="graph" transform="scale(1 1) rotate(0) translate(4 136)">
<title>G</title>
<polygon fill="white" stroke="white" points="-4,5 -4,-136 419.678,-136 419.678,5 -4,5"/>
<!-- Node1 -->
<g id="node1" class="node"><title>Node1</title>
<polygon fill="#bfbfbf" stroke="black" points="178,-112.5 178,-131.5 246,-131.5 246,-112.5 178,-112.5"/>
<text text-anchor="middle" x="212" y="-119.5" font-family="Helvetica,sans-Serif" font-size="10.00">Rodrigues.c</text>
</g>
<!-- Node2 -->
<g id="node3" class="node"><title>Node2</title>
<polygon fill="white" stroke="#bfbfbf" points="0,-0.5 0,-19.5 84,-19.5 84,-0.5 0,-0.5"/>
<text text-anchor="middle" x="42" y="-7.5" font-family="Helvetica,sans-Serif" font-size="10.00">gsl/gsl_vector.h</text>
</g>
<!-- Node1&#45;&gt;Node2 -->
<g id="edge2" class="edge"><title>Node1&#45;&gt;Node2</title>
<path fill="none" stroke="midnightblue" d="M177.781,-117.509C130.241,-111.871 48.0075,-99.0022 30,-76 19.5263,-62.6213 25.1821,-42.9751 31.8133,-28.7865"/>
<polygon fill="midnightblue" stroke="midnightblue" points="35.0887,-30.0741 36.5976,-19.5872 28.8783,-26.8442 35.0887,-30.0741"/>
</g>
<!-- Node3 -->
<g id="node5" class="node"><title>Node3</title>
<polygon fill="white" stroke="#bfbfbf" points="259,-0.5 259,-19.5 345,-19.5 345,-0.5 259,-0.5"/>
<text text-anchor="middle" x="302" y="-7.5" font-family="Helvetica,sans-Serif" font-size="10.00">gsl/gsl_matrix.h</text>
</g>
<!-- Node1&#45;&gt;Node3 -->
<g id="edge4" class="edge"><title>Node1&#45;&gt;Node3</title>
<path fill="none" stroke="midnightblue" d="M246.039,-118.232C296.92,-113.309 388.988,-101.099 409,-76 429.275,-50.5712 389.295,-32.6623 352.57,-22.17"/>
<polygon fill="midnightblue" stroke="midnightblue" points="353.416,-18.7728 342.848,-19.5347 351.584,-25.5291 353.416,-18.7728"/>
</g>
<!-- Node4 -->
<g id="node7" class="node"><title>Node4</title>
<polygon fill="white" stroke="#bfbfbf" points="125.5,-56.5 125.5,-75.5 202.5,-75.5 202.5,-56.5 125.5,-56.5"/>
<text text-anchor="middle" x="164" y="-63.5" font-family="Helvetica,sans-Serif" font-size="10.00">gsl/gsl_blas.h</text>
</g>
<!-- Node1&#45;&gt;Node4 -->
<g id="edge6" class="edge"><title>Node1&#45;&gt;Node4</title>
<path fill="none" stroke="midnightblue" d="M204.074,-112.083C197.154,-104.298 186.935,-92.8015 178.548,-83.3665"/>
<polygon fill="midnightblue" stroke="midnightblue" points="181.038,-80.8999 171.779,-75.7511 175.806,-85.5505 181.038,-80.8999"/>
</g>
<!-- Node5 -->
<g id="node9" class="node"><title>Node5</title>
<polygon fill="white" stroke="#bfbfbf" points="220.5,-56.5 220.5,-75.5 301.5,-75.5 301.5,-56.5 220.5,-56.5"/>
<text text-anchor="middle" x="261" y="-63.5" font-family="Helvetica,sans-Serif" font-size="10.00">gsl/gsl_linalg.h</text>
</g>
<!-- Node1&#45;&gt;Node5 -->
<g id="edge8" class="edge"><title>Node1&#45;&gt;Node5</title>
<path fill="none" stroke="midnightblue" d="M220.091,-112.083C227.155,-104.298 237.588,-92.8015 246.149,-83.3665"/>
<polygon fill="midnightblue" stroke="midnightblue" points="248.931,-85.5087 253.059,-75.7511 243.747,-80.8047 248.931,-85.5087"/>
</g>
<!-- Node6 -->
<g id="node11" class="node"><title>Node6</title>
<polygon fill="white" stroke="#bfbfbf" points="320,-56.5 320,-75.5 400,-75.5 400,-56.5 320,-56.5"/>
<text text-anchor="middle" x="360" y="-63.5" font-family="Helvetica,sans-Serif" font-size="10.00">gsl/gsl_math.h</text>
</g>
<!-- Node1&#45;&gt;Node6 -->
<g id="edge10" class="edge"><title>Node1&#45;&gt;Node6</title>
<path fill="none" stroke="midnightblue" d="M235.451,-112.444C260.133,-103.438 299.185,-89.1891 326.977,-79.049"/>
<polygon fill="midnightblue" stroke="midnightblue" points="328.464,-82.2321 336.659,-75.5164 326.065,-75.6561 328.464,-82.2321"/>
</g>
<!-- Node7 -->
<g id="node13" class="node"><title>Node7</title>
<a xlink:href="_rodrigues_8h.html" target="_top" xlink:title="Rodrigues.h">
<polygon fill="white" stroke="black" points="39,-56.5 39,-75.5 107,-75.5 107,-56.5 39,-56.5"/>
<text text-anchor="middle" x="73" y="-63.5" font-family="Helvetica,sans-Serif" font-size="10.00">Rodrigues.h</text>
</a>
</g>
<!-- Node1&#45;&gt;Node7 -->
<g id="edge12" class="edge"><title>Node1&#45;&gt;Node7</title>
<path fill="none" stroke="midnightblue" d="M189.975,-112.444C166.896,-103.478 130.438,-89.314 104.359,-79.1827"/>
<polygon fill="midnightblue" stroke="midnightblue" points="105.511,-75.8753 94.9219,-75.5164 102.976,-82.4002 105.511,-75.8753"/>
</g>
<!-- Node7&#45;&gt;Node2 -->
<g id="edge14" class="edge"><title>Node7&#45;&gt;Node2</title>
<path fill="none" stroke="midnightblue" d="M67.881,-56.083C63.5925,-48.6127 57.3418,-37.7244 52.0577,-28.5199"/>
<polygon fill="midnightblue" stroke="midnightblue" points="55.0379,-26.6811 47.0238,-19.7511 48.9671,-30.1662 55.0379,-26.6811"/>
</g>
<!-- Node7&#45;&gt;Node3 -->
<g id="edge16" class="edge"><title>Node7&#45;&gt;Node3</title>
<path fill="none" stroke="midnightblue" d="M107.284,-56.9157C146.756,-47.6077 211.789,-32.2725 255.726,-21.9119"/>
<polygon fill="midnightblue" stroke="midnightblue" points="256.657,-25.2883 265.587,-19.5865 255.05,-18.4752 256.657,-25.2883"/>
</g>
</g>
</svg>
