<?xml version="1.0" encoding="UTF-8" standalone="no"?>
<!DOCTYPE svg PUBLIC "-//W3C//DTD SVG 1.1//EN"
 "http://www.w3.org/Graphics/SVG/1.1/DTD/svg11.dtd">
<!-- Generated by graphviz version 2.28.0 (20110507.0327)
 -->
<!-- Title: G Pages: 1 -->
<!--zoomable-->
<svg id="main" version="1.1" xmlns="http://www.w3.org/2000/svg" xmlns:xlink="http://www.w3.org/1999/xlink" xml:space="preserve" onload="init(evt)">
        <defs>
                <circle id="rim" cx="0" cy="0" r="7"/>
                <circle id="rim2" cx="0" cy="0" r="3.5"/>
                <g id="zoomPlus">
                        <use xlink:href="#rim" fill="#404040">
                                <set attributeName="fill" to="#808080" begin="zoomplus.mouseover" end="zoomplus.mouseout"/>
                        </use>
                        <path d="M-4,0h8M0,-4v8" fill="none" stroke="white" stroke-width="1.5" pointer-events="none"/>
                </g>
                <g id="zoomMin">
                        <use xlink:href="#rim" fill="#404040">
                                <set attributeName="fill" to="#808080" begin="zoomminus.mouseover" end="zoomminus.mouseout"/>
                        </use>
                        <path d="M-4,0h8" fill="none" stroke="white" stroke-width="1.5" pointer-events="none"/>
                </g>
                <g id="dirArrow">
                        <path fill="none" stroke="white" stroke-width="1.5" d="M0,-3.0v7 M-2.5,-0.5L0,-3.0L2.5,-0.5"/>
                </g>
               <g id="resetDef">
                       <use xlink:href="#rim2" fill="#404040">
                               <set attributeName="fill" to="#808080" begin="reset.mouseover" end="reset.mouseout"/>
                       </use>
               </g>
        </defs>

<script type="text/javascript">
var viewWidth = 509;
var viewHeight = 140;
var sectionId = 'dynsection-0';
</script>
<script xlink:href="svgpan.js"/>
<svg id="graph" class="graph">
<g id="viewport">
<title>G</title>
<polygon fill="white" stroke="white" points="-4,5 -4,-136 506.033,-136 506.033,5 -4,5"/>
<!-- Node1 -->
<g id="node1" class="node"><title>Node1</title>
<polygon fill="#bfbfbf" stroke="black" points="179.533,-112.5 179.533,-131.5 238.533,-131.5 238.533,-112.5 179.533,-112.5"/>
<text text-anchor="middle" x="209.033" y="-119.5" font-family="Helvetica,sans-Serif" font-size="10.00">SE3exp.c</text>
</g>
<!-- Node2 -->
<g id="node3" class="node"><title>Node2</title>
<polygon fill="white" stroke="#bfbfbf" points="45.0329,-0.5 45.0329,-19.5 129.033,-19.5 129.033,-0.5 45.0329,-0.5"/>
<text text-anchor="middle" x="87.0329" y="-7.5" font-family="Helvetica,sans-Serif" font-size="10.00">gsl/gsl_vector.h</text>
</g>
<!-- Node1&#45;&gt;Node2 -->
<g id="edge2" class="edge"><title>Node1&#45;&gt;Node2</title>
<path fill="none" stroke="midnightblue" d="M179.245,-118.891C127.996,-114.575 26.5563,-102.789 5.03292,-76 -12.5499,-54.116 20.9737,-34.9674 50.3109,-23.2259"/>
<polygon fill="midnightblue" stroke="midnightblue" points="51.9162,-26.36 60.0197,-19.5347 49.4286,-19.817 51.9162,-26.36"/>
</g>
<!-- Node3 -->
<g id="node5" class="node"><title>Node3</title>
<polygon fill="white" stroke="#bfbfbf" points="147.033,-0.5 147.033,-19.5 233.033,-19.5 233.033,-0.5 147.033,-0.5"/>
<text text-anchor="middle" x="190.033" y="-7.5" font-family="Helvetica,sans-Serif" font-size="10.00">gsl/gsl_matrix.h</text>
</g>
<!-- Node1&#45;&gt;Node3 -->
<g id="edge4" class="edge"><title>Node1&#45;&gt;Node3</title>
<path fill="none" stroke="midnightblue" d="M231.216,-112.397C256.58,-101.188 292.806,-80.1462 278.033,-56 268.526,-40.4604 251.77,-30.0704 235.412,-23.2314"/>
<polygon fill="midnightblue" stroke="midnightblue" points="236.476,-19.8913 225.885,-19.6029 233.984,-26.4329 236.476,-19.8913"/>
</g>
<!-- Node4 -->
<g id="node7" class="node"><title>Node4</title>
<polygon fill="white" stroke="#bfbfbf" points="325.533,-56.5 325.533,-75.5 402.533,-75.5 402.533,-56.5 325.533,-56.5"/>
<text text-anchor="middle" x="364.033" y="-63.5" font-family="Helvetica,sans-Serif" font-size="10.00">gsl/gsl_blas.h</text>
</g>
<!-- Node1&#45;&gt;Node4 -->
<g id="edge6" class="edge"><title>Node1&#45;&gt;Node4</title>
<path fill="none" stroke="midnightblue" d="M233.593,-112.444C259.555,-103.399 300.701,-89.064 329.83,-78.9158"/>
<polygon fill="midnightblue" stroke="midnightblue" points="331.296,-82.1116 339.588,-75.5164 328.993,-75.5013 331.296,-82.1116"/>
</g>
<!-- Node5 -->
<g id="node9" class="node"><title>Node5</title>
<polygon fill="white" stroke="#bfbfbf" points="421.033,-56.5 421.033,-75.5 501.033,-75.5 501.033,-56.5 421.033,-56.5"/>
<text text-anchor="middle" x="461.033" y="-63.5" font-family="Helvetica,sans-Serif" font-size="10.00">gsl/gsl_math.h</text>
</g>
<!-- Node1&#45;&gt;Node5 -->
<g id="edge8" class="edge"><title>Node1&#45;&gt;Node5</title>
<path fill="none" stroke="midnightblue" d="M238.93,-114.593C281.465,-105.479 359.974,-88.6555 411.34,-77.6484"/>
<polygon fill="midnightblue" stroke="midnightblue" points="412.188,-81.0462 421.233,-75.5285 410.722,-74.2016 412.188,-81.0462"/>
</g>
<!-- Node6 -->
<g id="node11" class="node"><title>Node6</title>
<a xlink:href="u_link_8h.html" target="_top" xlink:title="Link initialisation and declarations.">
<polygon fill="white" stroke="black" points="149.533,-56.5 149.533,-75.5 200.533,-75.5 200.533,-56.5 149.533,-56.5"/>
<text text-anchor="middle" x="175.033" y="-63.5" font-family="Helvetica,sans-Serif" font-size="10.00">uLINK.h</text>
</a>
</g>
<!-- Node1&#45;&gt;Node6 -->
<g id="edge10" class="edge"><title>Node1&#45;&gt;Node6</title>
<path fill="none" stroke="midnightblue" d="M203.419,-112.083C198.665,-104.534 191.715,-93.4948 185.881,-84.2298"/>
<polygon fill="midnightblue" stroke="midnightblue" points="188.833,-82.3486 180.543,-75.7511 182.909,-86.0783 188.833,-82.3486"/>
</g>
<!-- Node7 -->
<g id="node15" class="node"><title>Node7</title>
<a xlink:href="_cross_8h.html" target="_top" xlink:title="Cross.h">
<polygon fill="white" stroke="black" points="219.033,-56.5 219.033,-75.5 269.033,-75.5 269.033,-56.5 219.033,-56.5"/>
<text text-anchor="middle" x="244.033" y="-63.5" font-family="Helvetica,sans-Serif" font-size="10.00">Cross.h</text>
</a>
</g>
<!-- Node1&#45;&gt;Node7 -->
<g id="edge16" class="edge"><title>Node1&#45;&gt;Node7</title>
<path fill="none" stroke="midnightblue" d="M214.812,-112.083C219.705,-104.534 226.86,-93.4948 232.865,-84.2298"/>
<polygon fill="midnightblue" stroke="midnightblue" points="235.859,-86.0463 238.361,-75.7511 229.985,-82.239 235.859,-86.0463"/>
</g>
<!-- Node8 -->
<g id="node19" class="node"><title>Node8</title>
<a xlink:href="_hat_8h.html" target="_top" xlink:title="Hat.h">
<polygon fill="white" stroke="black" points="14.0329,-56.5 14.0329,-75.5 54.0329,-75.5 54.0329,-56.5 14.0329,-56.5"/>
<text text-anchor="middle" x="34.0329" y="-63.5" font-family="Helvetica,sans-Serif" font-size="10.00">Hat.h</text>
</a>
</g>
<!-- Node1&#45;&gt;Node8 -->
<g id="edge22" class="edge"><title>Node1&#45;&gt;Node8</title>
<path fill="none" stroke="midnightblue" d="M181.31,-112.473C153.832,-104.017 110.286,-90.6066 63.9295,-76.2735"/>
<polygon fill="midnightblue" stroke="midnightblue" points="64.9005,-72.9103 54.3128,-73.2993 62.8322,-79.5977 64.9005,-72.9103"/>
</g>
<!-- Node9 -->
<g id="node23" class="node"><title>Node9</title>
<a xlink:href="_s_e3exp_8h.html" target="_top" xlink:title="SE3exp.h">
<polygon fill="white" stroke="black" points="72.5329,-56.5 72.5329,-75.5 131.533,-75.5 131.533,-56.5 72.5329,-56.5"/>
<text text-anchor="middle" x="102.033" y="-63.5" font-family="Helvetica,sans-Serif" font-size="10.00">SE3exp.h</text>
</a>
</g>
<!-- Node1&#45;&gt;Node9 -->
<g id="edge28" class="edge"><title>Node1&#45;&gt;Node9</title>
<path fill="none" stroke="midnightblue" d="M191.842,-112.324C174.682,-103.664 148.087,-90.2424 128.286,-80.249"/>
<polygon fill="midnightblue" stroke="midnightblue" points="129.686,-77.0354 119.182,-75.6545 126.532,-83.2847 129.686,-77.0354"/>
</g>
<!-- Node6&#45;&gt;Node2 -->
<g id="edge12" class="edge"><title>Node6&#45;&gt;Node2</title>
<path fill="none" stroke="midnightblue" d="M160.894,-56.324C147.167,-47.9002 126.097,-34.9709 109.969,-25.0741"/>
<polygon fill="midnightblue" stroke="midnightblue" points="111.49,-21.9016 101.137,-19.6545 107.829,-27.8678 111.49,-21.9016"/>
</g>
<!-- Node6&#45;&gt;Node3 -->
<g id="edge14" class="edge"><title>Node6&#45;&gt;Node3</title>
<path fill="none" stroke="midnightblue" d="M177.51,-56.083C179.519,-48.8486 182.419,-38.4087 184.923,-29.3968"/>
<polygon fill="midnightblue" stroke="midnightblue" points="188.298,-30.323 187.602,-19.7511 181.553,-28.4495 188.298,-30.323"/>
</g>
<!-- Node7&#45;&gt;Node2 -->
<g id="edge18" class="edge"><title>Node7&#45;&gt;Node2</title>
<path fill="none" stroke="midnightblue" d="M219.156,-56.4435C192.744,-47.3591 150.818,-32.9388 121.291,-22.7831"/>
<polygon fill="midnightblue" stroke="midnightblue" points="122.388,-19.4593 111.794,-19.5164 120.112,-26.0787 122.388,-19.4593"/>
</g>
<!-- Node7&#45;&gt;Node3 -->
<g id="edge20" class="edge"><title>Node7&#45;&gt;Node3</title>
<path fill="none" stroke="midnightblue" d="M235.116,-56.083C227.252,-48.2195 215.602,-36.5688 206.114,-27.0813"/>
<polygon fill="midnightblue" stroke="midnightblue" points="208.33,-24.3473 198.784,-19.7511 203.38,-29.2971 208.33,-24.3473"/>
</g>
<!-- Node8&#45;&gt;Node2 -->
<g id="edge24" class="edge"><title>Node8&#45;&gt;Node2</title>
<path fill="none" stroke="midnightblue" d="M42.7848,-56.083C50.5026,-48.2195 61.9376,-36.5688 71.2495,-27.0813"/>
<polygon fill="midnightblue" stroke="midnightblue" points="73.9371,-29.3396 78.4439,-19.7511 68.9413,-24.4363 73.9371,-29.3396"/>
</g>
<!-- Node8&#45;&gt;Node3 -->
<g id="edge26" class="edge"><title>Node8&#45;&gt;Node3</title>
<path fill="none" stroke="midnightblue" d="M54.1078,-58.051C79.8001,-49.1575 124.701,-33.6149 155.831,-22.8391"/>
<polygon fill="midnightblue" stroke="midnightblue" points="157.107,-26.1011 165.412,-19.5225 154.818,-19.4862 157.107,-26.1011"/>
</g>
<!-- Node9&#45;&gt;Node2 -->
<g id="edge30" class="edge"><title>Node9&#45;&gt;Node2</title>
<path fill="none" stroke="midnightblue" d="M99.556,-56.083C97.5464,-48.8486 94.6465,-38.4087 92.1431,-29.3968"/>
<polygon fill="midnightblue" stroke="midnightblue" points="95.5126,-28.4495 89.4638,-19.7511 88.768,-30.323 95.5126,-28.4495"/>
</g>
<!-- Node9&#45;&gt;Node3 -->
<g id="edge32" class="edge"><title>Node9&#45;&gt;Node3</title>
<path fill="none" stroke="midnightblue" d="M116.172,-56.324C129.899,-47.9002 150.969,-34.9709 167.097,-25.0741"/>
<polygon fill="midnightblue" stroke="midnightblue" points="169.237,-27.8678 175.929,-19.6545 165.575,-21.9016 169.237,-27.8678"/>
</g>
</g>
</svg>
        <g id="navigator" transform="translate(0 0)" fill="#404254">
                <rect fill="#f2f5e9" fill-opacity="0.5" stroke="#606060" stroke-width=".5" x="0" y="0" width="60" height="60"/>
                <use id="zoomplus" xlink:href="#zoomPlus" x="17" y="9" onmousedown="handleZoom(evt,'in')"/>
                <use id="zoomminus" xlink:href="#zoomMin" x="42" y="9" onmousedown="handleZoom(evt,'out')"/>
                <use id="reset" xlink:href="#resetDef" x="30" y="36" onmousedown="handleReset()"/>
                <g id="arrowUp" xlink:href="#dirArrow" transform="translate(30 24)" onmousedown="handlePan(0,-1)">
                  <use xlink:href="#rim" fill="#404040">
                        <set attributeName="fill" to="#808080" begin="arrowUp.mouseover" end="arrowUp.mouseout"/>
                  </use>
                  <path fill="none" stroke="white" stroke-width="1.5" d="M0,-3.0v7 M-2.5,-0.5L0,-3.0L2.5,-0.5"/>
                </g>
                <g id="arrowRight" xlink:href="#dirArrow" transform="rotate(90) translate(36 -43)" onmousedown="handlePan(1,0)">
                  <use xlink:href="#rim" fill="#404040">
                        <set attributeName="fill" to="#808080" begin="arrowRight.mouseover" end="arrowRight.mouseout"/>
                  </use>
                  <path fill="none" stroke="white" stroke-width="1.5" d="M0,-3.0v7 M-2.5,-0.5L0,-3.0L2.5,-0.5"/>
                </g>
                <g id="arrowDown" xlink:href="#dirArrow" transform="rotate(180) translate(-30 -48)" onmousedown="handlePan(0,1)">
                  <use xlink:href="#rim" fill="#404040">
                        <set attributeName="fill" to="#808080" begin="arrowDown.mouseover" end="arrowDown.mouseout"/>
                  </use>
                  <path fill="none" stroke="white" stroke-width="1.5" d="M0,-3.0v7 M-2.5,-0.5L0,-3.0L2.5,-0.5"/>
                </g>
                <g id="arrowLeft" xlink:href="#dirArrow" transform="rotate(270) translate(-36 17)" onmousedown="handlePan(-1,0)">
                  <use xlink:href="#rim" fill="#404040">
                        <set attributeName="fill" to="#808080" begin="arrowLeft.mouseover" end="arrowLeft.mouseout"/>
                  </use>
                  <path fill="none" stroke="white" stroke-width="1.5" d="M0,-3.0v7 M-2.5,-0.5L0,-3.0L2.5,-0.5"/>
                </g>
        </g>
</svg>
