<?xml version="1.0" encoding="UTF-8" standalone="no"?>
<!DOCTYPE svg PUBLIC "-//W3C//DTD SVG 1.1//EN"
 "http://www.w3.org/Graphics/SVG/1.1/DTD/svg11.dtd">
<!-- Generated by graphviz version 2.28.0 (20110507.0327)
 -->
<!-- Title: G Pages: 1 -->
<svg width="138pt" height="66pt"
 viewBox="0.00 0.00 138.00 66.00" xmlns="http://www.w3.org/2000/svg" xmlns:xlink="http://www.w3.org/1999/xlink">
<g id="graph1" class="graph" transform="scale(1 1) rotate(0) translate(4 62)">
<title>G</title>
<polygon fill="white" stroke="white" points="-4,5 -4,-62 135,-62 135,5 -4,5"/>
<!-- Node1 -->
<g id="node1" class="node"><title>Node1</title>
<polygon fill="#bfbfbf" stroke="black" points="0.5,-19.5 0.5,-38.5 51.5,-38.5 51.5,-19.5 0.5,-19.5"/>
<text text-anchor="middle" x="26" y="-26.5" font-family="Helvetica,sans-Serif" font-size="10.00">SE3exp</text>
</g>
<!-- Node2 -->
<g id="node3" class="node"><title>Node2</title>
<a xlink:href="_hat_8c.html#a99b0b25e44a922db29da555aa182bb41" target="_top" xlink:title="Hat">
<polygon fill="white" stroke="black" points="93,-38.5 93,-57.5 125,-57.5 125,-38.5 93,-38.5"/>
<text text-anchor="middle" x="109" y="-45.5" font-family="Helvetica,sans-Serif" font-size="10.00">Hat</text>
</a>
</g>
<!-- Node1&#45;&gt;Node2 -->
<g id="edge2" class="edge"><title>Node1&#45;&gt;Node2</title>
<path fill="none" stroke="midnightblue" d="M51.7428,-34.8039C61.5828,-37.112 72.893,-39.765 82.7796,-42.0841"/>
<polygon fill="midnightblue" stroke="midnightblue" points="82.277,-45.5611 92.8121,-44.4374 83.8756,-38.7461 82.277,-45.5611"/>
</g>
<!-- Node3 -->
<g id="node5" class="node"><title>Node3</title>
<a xlink:href="_cross_8c.html#ae694d97c46b1d90555b4e9a1809baeb3" target="_top" xlink:title="Cross">
<polygon fill="white" stroke="black" points="88,-0.5 88,-19.5 130,-19.5 130,-0.5 88,-0.5"/>
<text text-anchor="middle" x="109" y="-7.5" font-family="Helvetica,sans-Serif" font-size="10.00">Cross</text>
</a>
</g>
<!-- Node1&#45;&gt;Node3 -->
<g id="edge4" class="edge"><title>Node1&#45;&gt;Node3</title>
<path fill="none" stroke="midnightblue" d="M51.7428,-23.1961C59.9457,-21.272 69.1703,-19.1082 77.7402,-17.098"/>
<polygon fill="midnightblue" stroke="midnightblue" points="78.8198,-20.4398 87.7562,-14.7485 77.2211,-13.6248 78.8198,-20.4398"/>
</g>
</g>
</svg>
