<?xml version="1.0" encoding="UTF-8" standalone="no"?>
<!DOCTYPE svg PUBLIC "-//W3C//DTD SVG 1.1//EN"
 "http://www.w3.org/Graphics/SVG/1.1/DTD/svg11.dtd">
<!-- Generated by graphviz version 2.28.0 (20110507.0327)
 -->
<!-- Title: G Pages: 1 -->
<svg width="169pt" height="84pt"
 viewBox="0.00 0.00 169.00 84.00" xmlns="http://www.w3.org/2000/svg" xmlns:xlink="http://www.w3.org/1999/xlink">
<g id="graph1" class="graph" transform="scale(1 1) rotate(0) translate(4 80)">
<title>G</title>
<polygon fill="white" stroke="white" points="-4,5 -4,-80 166,-80 166,5 -4,5"/>
<!-- Node1 -->
<g id="node1" class="node"><title>Node1</title>
<polygon fill="#bfbfbf" stroke="black" points="57.5,-56.5 57.5,-75.5 116.5,-75.5 116.5,-56.5 57.5,-56.5"/>
<text text-anchor="middle" x="87" y="-63.5" font-family="Helvetica,sans-Serif" font-size="10.00">SE3exp.h</text>
</g>
<!-- Node2 -->
<g id="node3" class="node"><title>Node2</title>
<a xlink:href="_integrate_euler_8c.html" target="_top" xlink:title="IntegrateEuler.c">
<polygon fill="white" stroke="black" points="-0.5,-0.5 -0.5,-19.5 84.5,-19.5 84.5,-0.5 -0.5,-0.5"/>
<text text-anchor="middle" x="42" y="-7.5" font-family="Helvetica,sans-Serif" font-size="10.00">IntegrateEuler.c</text>
</a>
</g>
<!-- Node1&#45;&gt;Node2 -->
<g id="edge2" class="edge"><title>Node1&#45;&gt;Node2</title>
<path fill="none" stroke="midnightblue" d="M72.9533,-48.144C65.1131,-38.7357 55.6705,-27.4046 49.2926,-19.7511"/>
<polygon fill="midnightblue" stroke="midnightblue" points="70.4785,-50.6414 79.5692,-56.083 75.8561,-46.1601 70.4785,-50.6414"/>
</g>
<!-- Node3 -->
<g id="node5" class="node"><title>Node3</title>
<a xlink:href="_s_e3exp_8c.html" target="_top" xlink:title="SE3exp.c">
<polygon fill="white" stroke="black" points="102.5,-0.5 102.5,-19.5 161.5,-19.5 161.5,-0.5 102.5,-0.5"/>
<text text-anchor="middle" x="132" y="-7.5" font-family="Helvetica,sans-Serif" font-size="10.00">SE3exp.c</text>
</a>
</g>
<!-- Node1&#45;&gt;Node3 -->
<g id="edge4" class="edge"><title>Node1&#45;&gt;Node3</title>
<path fill="none" stroke="midnightblue" d="M101.047,-48.144C108.887,-38.7357 118.329,-27.4046 124.707,-19.7511"/>
<polygon fill="midnightblue" stroke="midnightblue" points="98.1439,-46.1601 94.4308,-56.083 103.521,-50.6414 98.1439,-46.1601"/>
</g>
</g>
</svg>
