<?xml version="1.0" encoding="UTF-8" standalone="no"?>
<!DOCTYPE svg PUBLIC "-//W3C//DTD SVG 1.1//EN"
 "http://www.w3.org/Graphics/SVG/1.1/DTD/svg11.dtd">
<!-- Generated by graphviz version 2.28.0 (20110507.0327)
 -->
<!-- Title: G Pages: 1 -->
<svg width="248pt" height="46pt"
 viewBox="0.00 0.00 248.00 46.00" xmlns="http://www.w3.org/2000/svg" xmlns:xlink="http://www.w3.org/1999/xlink">
<g id="graph1" class="graph" transform="scale(1 1) rotate(0) translate(4 42)">
<title>G</title>
<polygon fill="white" stroke="white" points="-4,5 -4,-42 245,-42 245,5 -4,5"/>
<!-- Node1 -->
<g id="node1" class="node"><title>Node1</title>
<polygon fill="#bfbfbf" stroke="black" points="0.5,-0.5 0.5,-19.5 51.5,-19.5 51.5,-0.5 0.5,-0.5"/>
<text text-anchor="middle" x="26" y="-7.5" font-family="Helvetica,sans-Serif" font-size="10.00">SE3exp</text>
</g>
<!-- Node2 -->
<g id="node3" class="node"><title>Node2</title>
<a xlink:href="_integrate_euler_8h.html#a8158bd5a4eacb684aed3dcc88daa8582" target="_top" xlink:title="IntegrateEuler">
<polygon fill="white" stroke="black" points="88.5,-0.5 88.5,-19.5 165.5,-19.5 165.5,-0.5 88.5,-0.5"/>
<text text-anchor="middle" x="127" y="-7.5" font-family="Helvetica,sans-Serif" font-size="10.00">IntegrateEuler</text>
</a>
</g>
<!-- Node1&#45;&gt;Node2 -->
<g id="edge2" class="edge"><title>Node1&#45;&gt;Node2</title>
<path fill="none" stroke="midnightblue" d="M61.8444,-10C70.4698,-10 79.7477,-10 88.4941,-10"/>
<polygon fill="midnightblue" stroke="midnightblue" points="61.7265,-6.5001 51.7265,-10 61.7265,-13.5001 61.7265,-6.5001"/>
</g>
<!-- Node2&#45;&gt;Node2 -->
<g id="edge4" class="edge"><title>Node2&#45;&gt;Node2</title>
<path fill="none" stroke="midnightblue" d="M109.593,-29.4C110.756,-34.3146 116.558,-38 127,-38 143.707,-38 148.536,-28.5653 141.488,-19.7571"/>
<polygon fill="midnightblue" stroke="midnightblue" points="112.965,-30.3422 112.512,-19.7571 106.265,-28.3144 112.965,-30.3422"/>
</g>
<!-- Node3 -->
<g id="node6" class="node"><title>Node3</title>
<a xlink:href="main_8c.html#a0ddf1224851353fc92bfbff6f499fa97" target="_top" xlink:title="main">
<polygon fill="white" stroke="black" points="202,-0.5 202,-19.5 240,-19.5 240,-0.5 202,-0.5"/>
<text text-anchor="middle" x="221" y="-7.5" font-family="Helvetica,sans-Serif" font-size="10.00">main</text>
</a>
</g>
<!-- Node2&#45;&gt;Node3 -->
<g id="edge6" class="edge"><title>Node2&#45;&gt;Node3</title>
<path fill="none" stroke="midnightblue" d="M175.757,-10C185.071,-10 194.289,-10 201.88,-10"/>
<polygon fill="midnightblue" stroke="midnightblue" points="175.685,-6.5001 165.685,-10 175.685,-13.5001 175.685,-6.5001"/>
</g>
</g>
</svg>
