<?xml version="1.0" encoding="UTF-8" standalone="no"?>
<!DOCTYPE svg PUBLIC "-//W3C//DTD SVG 1.1//EN"
 "http://www.w3.org/Graphics/SVG/1.1/DTD/svg11.dtd">
<!-- Generated by graphviz version 2.28.0 (20110507.0327)
 -->
<!-- Title: G Pages: 1 -->
<!--zoomable-->
<svg id="main" version="1.1" xmlns="http://www.w3.org/2000/svg" xmlns:xlink="http://www.w3.org/1999/xlink" xml:space="preserve" onload="init(evt)">
        <defs>
                <circle id="rim" cx="0" cy="0" r="7"/>
                <circle id="rim2" cx="0" cy="0" r="3.5"/>
                <g id="zoomPlus">
                        <use xlink:href="#rim" fill="#404040">
                                <set attributeName="fill" to="#808080" begin="zoomplus.mouseover" end="zoomplus.mouseout"/>
                        </use>
                        <path d="M-4,0h8M0,-4v8" fill="none" stroke="white" stroke-width="1.5" pointer-events="none"/>
                </g>
                <g id="zoomMin">
                        <use xlink:href="#rim" fill="#404040">
                                <set attributeName="fill" to="#808080" begin="zoomminus.mouseover" end="zoomminus.mouseout"/>
                        </use>
                        <path d="M-4,0h8" fill="none" stroke="white" stroke-width="1.5" pointer-events="none"/>
                </g>
                <g id="dirArrow">
                        <path fill="none" stroke="white" stroke-width="1.5" d="M0,-3.0v7 M-2.5,-0.5L0,-3.0L2.5,-0.5"/>
                </g>
               <g id="resetDef">
                       <use xlink:href="#rim2" fill="#404040">
                               <set attributeName="fill" to="#808080" begin="reset.mouseover" end="reset.mouseout"/>
                       </use>
               </g>
        </defs>

<script type="text/javascript">
var viewWidth = 1040;
var viewHeight = 84;
var sectionId = 'dynsection-0';
</script>
<script xlink:href="svgpan.js"/>
<svg id="graph" class="graph">
<g id="viewport">
<title>G</title>
<polygon fill="white" stroke="white" points="-4,5 -4,-80 1037,-80 1037,5 -4,5"/>
<!-- Node1 -->
<g id="node1" class="node"><title>Node1</title>
<polygon fill="#bfbfbf" stroke="black" points="595,-56.5 595,-75.5 645,-75.5 645,-56.5 595,-56.5"/>
<text text-anchor="middle" x="620" y="-63.5" font-family="Helvetica,sans-Serif" font-size="10.00">Setup.h</text>
</g>
<!-- Node2 -->
<g id="node3" class="node"><title>Node2</title>
<a xlink:href="_david___gravity_8c.html" target="_top" xlink:title="David_Gravity.c">
<polygon fill="white" stroke="black" points="-0.5,-0.5 -0.5,-19.5 82.5,-19.5 82.5,-0.5 -0.5,-0.5"/>
<text text-anchor="middle" x="41" y="-7.5" font-family="Helvetica,sans-Serif" font-size="10.00">David_Gravity.c</text>
</a>
</g>
<!-- Node1&#45;&gt;Node2 -->
<g id="edge2" class="edge"><title>Node1&#45;&gt;Node2</title>
<path fill="none" stroke="midnightblue" d="M584.77,-63.0921C499.772,-58.251 276.808,-44.1325 92,-20 88.9688,-19.6042 85.8432,-19.1547 82.7017,-18.6729"/>
<polygon fill="midnightblue" stroke="midnightblue" points="584.724,-66.595 594.905,-63.6624 585.117,-59.606 584.724,-66.595"/>
</g>
<!-- Node3 -->
<g id="node5" class="node"><title>Node3</title>
<a xlink:href="_david___stabilizator_8c.html" target="_top" xlink:title="David_Stabilizator.c">
<polygon fill="white" stroke="black" points="101,-0.5 101,-19.5 203,-19.5 203,-0.5 101,-0.5"/>
<text text-anchor="middle" x="152" y="-7.5" font-family="Helvetica,sans-Serif" font-size="10.00">David_Stabilizator.c</text>
</a>
</g>
<!-- Node1&#45;&gt;Node3 -->
<g id="edge4" class="edge"><title>Node1&#45;&gt;Node3</title>
<path fill="none" stroke="midnightblue" d="M584.487,-61.5542C513.58,-54.57 349.458,-37.8829 212,-20 209.075,-19.6195 206.073,-19.2146 203.044,-18.7951"/>
<polygon fill="midnightblue" stroke="midnightblue" points="584.36,-65.0584 594.654,-62.5519 585.043,-58.0919 584.36,-65.0584"/>
</g>
<!-- Node4 -->
<g id="node7" class="node"><title>Node4</title>
<a xlink:href="_david___static_trajectory_8c.html" target="_top" xlink:title="David_StaticTrajectory.c">
<polygon fill="white" stroke="black" points="221,-0.5 221,-19.5 343,-19.5 343,-0.5 221,-0.5"/>
<text text-anchor="middle" x="282" y="-7.5" font-family="Helvetica,sans-Serif" font-size="10.00">David_StaticTrajectory.c</text>
</a>
</g>
<!-- Node1&#45;&gt;Node4 -->
<g id="edge6" class="edge"><title>Node1&#45;&gt;Node4</title>
<path fill="none" stroke="midnightblue" d="M584.869,-59.3873C525.536,-49.9081 405.133,-30.6722 335.333,-19.5207"/>
<polygon fill="midnightblue" stroke="midnightblue" points="584.444,-62.8638 594.871,-60.9853 585.549,-55.9515 584.444,-62.8638"/>
</g>
<!-- Node5 -->
<g id="node9" class="node"><title>Node5</title>
<a xlink:href="_david__u_l_i_n_k_8c.html" target="_top" xlink:title="David_uLINK.c">
<polygon fill="white" stroke="black" points="361,-0.5 361,-19.5 441,-19.5 441,-0.5 361,-0.5"/>
<text text-anchor="middle" x="401" y="-7.5" font-family="Helvetica,sans-Serif" font-size="10.00">David_uLINK.c</text>
</a>
</g>
<!-- Node1&#45;&gt;Node5 -->
<g id="edge8" class="edge"><title>Node1&#45;&gt;Node5</title>
<path fill="none" stroke="midnightblue" d="M585.05,-56.3821C544.01,-46.2627 476.367,-29.5837 435.516,-19.5108"/>
<polygon fill="midnightblue" stroke="midnightblue" points="584.331,-59.8096 594.878,-58.8055 586.007,-53.0132 584.331,-59.8096"/>
</g>
<!-- Node6 -->
<g id="node11" class="node"><title>Node6</title>
<a xlink:href="_external_forces_8c.html" target="_top" xlink:title="ExternalForces.c">
<polygon fill="white" stroke="black" points="459.5,-0.5 459.5,-19.5 550.5,-19.5 550.5,-0.5 459.5,-0.5"/>
<text text-anchor="middle" x="505" y="-7.5" font-family="Helvetica,sans-Serif" font-size="10.00">ExternalForces.c</text>
</a>
</g>
<!-- Node1&#45;&gt;Node6 -->
<g id="edge10" class="edge"><title>Node1&#45;&gt;Node6</title>
<path fill="none" stroke="midnightblue" d="M592.519,-52.096C571.034,-42.0073 541.778,-28.2697 523.137,-19.5164"/>
<polygon fill="midnightblue" stroke="midnightblue" points="591.238,-55.3612 601.778,-56.4435 594.214,-49.025 591.238,-55.3612"/>
</g>
<!-- Node7 -->
<g id="node13" class="node"><title>Node7</title>
<a xlink:href="_forward_dynamics_8c.html" target="_top" xlink:title="ForwardDynamics.c">
<polygon fill="white" stroke="black" points="568.5,-0.5 568.5,-19.5 671.5,-19.5 671.5,-0.5 568.5,-0.5"/>
<text text-anchor="middle" x="620" y="-7.5" font-family="Helvetica,sans-Serif" font-size="10.00">ForwardDynamics.c</text>
</a>
</g>
<!-- Node1&#45;&gt;Node7 -->
<g id="edge12" class="edge"><title>Node1&#45;&gt;Node7</title>
<path fill="none" stroke="midnightblue" d="M620,-45.8045C620,-36.9102 620,-26.7798 620,-19.7511"/>
<polygon fill="midnightblue" stroke="midnightblue" points="616.5,-46.083 620,-56.083 623.5,-46.083 616.5,-46.083"/>
</g>
<!-- Node8 -->
<g id="node15" class="node"><title>Node8</title>
<a xlink:href="_gravity_8c.html" target="_top" xlink:title="Gravity.c">
<polygon fill="white" stroke="black" points="689.5,-0.5 689.5,-19.5 744.5,-19.5 744.5,-0.5 689.5,-0.5"/>
<text text-anchor="middle" x="717" y="-7.5" font-family="Helvetica,sans-Serif" font-size="10.00">Gravity.c</text>
</a>
</g>
<!-- Node1&#45;&gt;Node8 -->
<g id="edge14" class="edge"><title>Node1&#45;&gt;Node8</title>
<path fill="none" stroke="midnightblue" d="M644.335,-51.4526C662.243,-41.4835 686.054,-28.2279 701.454,-19.6545"/>
<polygon fill="midnightblue" stroke="midnightblue" points="642.62,-48.4018 635.585,-56.324 646.025,-54.5179 642.62,-48.4018"/>
</g>
<!-- Node9 -->
<g id="node17" class="node"><title>Node9</title>
<a xlink:href="_inv_dyn_8c.html" target="_top" xlink:title="InvDyn.c">
<polygon fill="white" stroke="black" points="762.5,-0.5 762.5,-19.5 815.5,-19.5 815.5,-0.5 762.5,-0.5"/>
<text text-anchor="middle" x="789" y="-7.5" font-family="Helvetica,sans-Serif" font-size="10.00">InvDyn.c</text>
</a>
</g>
<!-- Node1&#45;&gt;Node9 -->
<g id="edge16" class="edge"><title>Node1&#45;&gt;Node9</title>
<path fill="none" stroke="midnightblue" d="M655.117,-53.7791C687.044,-43.5775 733.462,-28.7458 762.409,-19.4964"/>
<polygon fill="midnightblue" stroke="midnightblue" points="653.761,-50.538 645.301,-56.9157 655.892,-57.2059 653.761,-50.538"/>
</g>
<!-- Node10 -->
<g id="node19" class="node"><title>Node10</title>
<a xlink:href="main_8c.html" target="_top" xlink:title="This is the multi body simulator.">
<polygon fill="white" stroke="black" points="834,-0.5 834,-19.5 880,-19.5 880,-0.5 834,-0.5"/>
<text text-anchor="middle" x="857" y="-7.5" font-family="Helvetica,sans-Serif" font-size="10.00">main.c</text>
</a>
</g>
<!-- Node1&#45;&gt;Node10 -->
<g id="edge18" class="edge"><title>Node1&#45;&gt;Node10</title>
<path fill="none" stroke="midnightblue" d="M655.191,-57.786C695.946,-49.3043 765.043,-34.533 824,-20 827.229,-19.2041 830.624,-18.3257 833.959,-17.4391"/>
<polygon fill="midnightblue" stroke="midnightblue" points="654.298,-54.3965 645.217,-59.8537 655.719,-61.2507 654.298,-54.3965"/>
</g>
<!-- Node11 -->
<g id="node21" class="node"><title>Node11</title>
<a xlink:href="_print_state_8c.html" target="_top" xlink:title="PrintState.c">
<polygon fill="white" stroke="black" points="898,-0.5 898,-19.5 966,-19.5 966,-0.5 898,-0.5"/>
<text text-anchor="middle" x="932" y="-7.5" font-family="Helvetica,sans-Serif" font-size="10.00">PrintState.c</text>
</a>
</g>
<!-- Node1&#45;&gt;Node11 -->
<g id="edge20" class="edge"><title>Node1&#45;&gt;Node11</title>
<path fill="none" stroke="midnightblue" d="M655.223,-59.5747C706.69,-51.5417 805.415,-35.732 889,-20 891.848,-19.4639 894.798,-18.8887 897.757,-18.2977"/>
<polygon fill="midnightblue" stroke="midnightblue" points="654.622,-56.126 645.279,-61.1217 655.698,-63.0428 654.622,-56.126"/>
</g>
<!-- Node12 -->
<g id="node23" class="node"><title>Node12</title>
<a xlink:href="u_link_8c.html" target="_top" xlink:title="uLink.c">
<polygon fill="white" stroke="black" points="984,-0.5 984,-19.5 1032,-19.5 1032,-0.5 984,-0.5"/>
<text text-anchor="middle" x="1008" y="-7.5" font-family="Helvetica,sans-Serif" font-size="10.00">uLink.c</text>
</a>
</g>
<!-- Node1&#45;&gt;Node12 -->
<g id="edge22" class="edge"><title>Node1&#45;&gt;Node12</title>
<path fill="none" stroke="midnightblue" d="M655.131,-62.1916C719.167,-56.7085 858.982,-43.0557 975,-20 977.912,-19.4213 980.946,-18.7253 983.942,-17.9799"/>
<polygon fill="midnightblue" stroke="midnightblue" points="654.828,-58.7045 645.157,-63.0315 655.416,-65.6798 654.828,-58.7045"/>
</g>
</g>
</svg>
        <g id="navigator" transform="translate(0 0)" fill="#404254">
                <rect fill="#f2f5e9" fill-opacity="0.5" stroke="#606060" stroke-width=".5" x="0" y="0" width="60" height="60"/>
                <use id="zoomplus" xlink:href="#zoomPlus" x="17" y="9" onmousedown="handleZoom(evt,'in')"/>
                <use id="zoomminus" xlink:href="#zoomMin" x="42" y="9" onmousedown="handleZoom(evt,'out')"/>
                <use id="reset" xlink:href="#resetDef" x="30" y="36" onmousedown="handleReset()"/>
                <g id="arrowUp" xlink:href="#dirArrow" transform="translate(30 24)" onmousedown="handlePan(0,-1)">
                  <use xlink:href="#rim" fill="#404040">
                        <set attributeName="fill" to="#808080" begin="arrowUp.mouseover" end="arrowUp.mouseout"/>
                  </use>
                  <path fill="none" stroke="white" stroke-width="1.5" d="M0,-3.0v7 M-2.5,-0.5L0,-3.0L2.5,-0.5"/>
                </g>
                <g id="arrowRight" xlink:href="#dirArrow" transform="rotate(90) translate(36 -43)" onmousedown="handlePan(1,0)">
                  <use xlink:href="#rim" fill="#404040">
                        <set attributeName="fill" to="#808080" begin="arrowRight.mouseover" end="arrowRight.mouseout"/>
                  </use>
                  <path fill="none" stroke="white" stroke-width="1.5" d="M0,-3.0v7 M-2.5,-0.5L0,-3.0L2.5,-0.5"/>
                </g>
                <g id="arrowDown" xlink:href="#dirArrow" transform="rotate(180) translate(-30 -48)" onmousedown="handlePan(0,1)">
                  <use xlink:href="#rim" fill="#404040">
                        <set attributeName="fill" to="#808080" begin="arrowDown.mouseover" end="arrowDown.mouseout"/>
                  </use>
                  <path fill="none" stroke="white" stroke-width="1.5" d="M0,-3.0v7 M-2.5,-0.5L0,-3.0L2.5,-0.5"/>
                </g>
                <g id="arrowLeft" xlink:href="#dirArrow" transform="rotate(270) translate(-36 17)" onmousedown="handlePan(-1,0)">
                  <use xlink:href="#rim" fill="#404040">
                        <set attributeName="fill" to="#808080" begin="arrowLeft.mouseover" end="arrowLeft.mouseout"/>
                  </use>
                  <path fill="none" stroke="white" stroke-width="1.5" d="M0,-3.0v7 M-2.5,-0.5L0,-3.0L2.5,-0.5"/>
                </g>
        </g>
</svg>
