<?xml version="1.0" encoding="UTF-8" standalone="no"?>
<!DOCTYPE svg PUBLIC "-//W3C//DTD SVG 1.1//EN"
 "http://www.w3.org/Graphics/SVG/1.1/DTD/svg11.dtd">
<!-- Generated by graphviz version 2.28.0 (20110507.0327)
 -->
<!-- Title: G Pages: 1 -->
<svg width="207pt" height="140pt"
 viewBox="0.00 0.00 206.94 140.00" xmlns="http://www.w3.org/2000/svg" xmlns:xlink="http://www.w3.org/1999/xlink">
<g id="graph1" class="graph" transform="scale(1 1) rotate(0) translate(4 136)">
<title>G</title>
<polygon fill="white" stroke="white" points="-4,5 -4,-136 203.942,-136 203.942,5 -4,5"/>
<!-- Node1 -->
<g id="node1" class="node"><title>Node1</title>
<polygon fill="#bfbfbf" stroke="black" points="45.5,-112.5 45.5,-131.5 140.5,-131.5 140.5,-112.5 45.5,-112.5"/>
<text text-anchor="middle" x="93" y="-119.5" font-family="Helvetica,sans-Serif" font-size="10.00">SetupRigidBody.c</text>
</g>
<!-- Node2 -->
<g id="node3" class="node"><title>Node2</title>
<polygon fill="white" stroke="#bfbfbf" points="0,-0.5 0,-19.5 84,-19.5 84,-0.5 0,-0.5"/>
<text text-anchor="middle" x="42" y="-7.5" font-family="Helvetica,sans-Serif" font-size="10.00">gsl/gsl_vector.h</text>
</g>
<!-- Node1&#45;&gt;Node2 -->
<g id="edge2" class="edge"><title>Node1&#45;&gt;Node2</title>
<path fill="none" stroke="midnightblue" d="M62.7527,-112.488C44.8748,-105.726 23.6997,-94.2949 13,-76 3.70098,-60.1001 15.0634,-40.6785 26.1788,-27.2272"/>
<polygon fill="midnightblue" stroke="midnightblue" points="28.8396,-29.5022 32.8808,-19.7083 23.6142,-24.8444 28.8396,-29.5022"/>
</g>
<!-- Node3 -->
<g id="node5" class="node"><title>Node3</title>
<polygon fill="white" stroke="#bfbfbf" points="102,-0.5 102,-19.5 188,-19.5 188,-0.5 102,-0.5"/>
<text text-anchor="middle" x="145" y="-7.5" font-family="Helvetica,sans-Serif" font-size="10.00">gsl/gsl_matrix.h</text>
</g>
<!-- Node1&#45;&gt;Node3 -->
<g id="edge4" class="edge"><title>Node1&#45;&gt;Node3</title>
<path fill="none" stroke="midnightblue" d="M139.357,-112.467C160.075,-106.095 182.581,-95.0523 195,-76 206.892,-57.7552 186.72,-38.1061 168.557,-25.2452"/>
<polygon fill="midnightblue" stroke="midnightblue" points="170.214,-22.1436 159.951,-19.5129 166.333,-27.9696 170.214,-22.1436"/>
</g>
<!-- Node4 -->
<g id="node7" class="node"><title>Node4</title>
<a xlink:href="u_link_8h.html" target="_top" xlink:title="Link initialisation and declarations.">
<polygon fill="white" stroke="black" points="22.5,-56.5 22.5,-75.5 73.5,-75.5 73.5,-56.5 22.5,-56.5"/>
<text text-anchor="middle" x="48" y="-63.5" font-family="Helvetica,sans-Serif" font-size="10.00">uLINK.h</text>
</a>
</g>
<!-- Node1&#45;&gt;Node4 -->
<g id="edge6" class="edge"><title>Node1&#45;&gt;Node4</title>
<path fill="none" stroke="midnightblue" d="M85.5692,-112.083C79.1473,-104.377 69.6944,-93.0333 61.8775,-83.6531"/>
<polygon fill="midnightblue" stroke="midnightblue" points="64.3832,-81.1927 55.2926,-75.7511 59.0057,-85.674 64.3832,-81.1927"/>
</g>
<!-- Node5 -->
<g id="node11" class="node"><title>Node5</title>
<a xlink:href="_setup_rigid_body_8h.html" target="_top" xlink:title="SetupRigidBody.h">
<polygon fill="white" stroke="black" points="91.5,-56.5 91.5,-75.5 186.5,-75.5 186.5,-56.5 91.5,-56.5"/>
<text text-anchor="middle" x="139" y="-63.5" font-family="Helvetica,sans-Serif" font-size="10.00">SetupRigidBody.h</text>
</a>
</g>
<!-- Node1&#45;&gt;Node5 -->
<g id="edge12" class="edge"><title>Node1&#45;&gt;Node5</title>
<path fill="none" stroke="midnightblue" d="M100.596,-112.083C107.227,-104.298 117.021,-92.8015 125.058,-83.3665"/>
<polygon fill="midnightblue" stroke="midnightblue" points="127.725,-85.6332 131.545,-75.7511 122.396,-81.0939 127.725,-85.6332"/>
</g>
<!-- Node4&#45;&gt;Node2 -->
<g id="edge8" class="edge"><title>Node4&#45;&gt;Node2</title>
<path fill="none" stroke="midnightblue" d="M47.0092,-56.083C46.2141,-48.9272 45.0706,-38.6353 44.0768,-29.6911"/>
<polygon fill="midnightblue" stroke="midnightblue" points="47.5553,-29.3034 42.9723,-19.7511 40.5982,-30.0765 47.5553,-29.3034"/>
</g>
<!-- Node4&#45;&gt;Node3 -->
<g id="edge10" class="edge"><title>Node4&#45;&gt;Node3</title>
<path fill="none" stroke="midnightblue" d="M63.5847,-56.324C78.9991,-47.7428 102.812,-34.486 120.71,-24.5224"/>
<polygon fill="midnightblue" stroke="midnightblue" points="122.419,-27.5767 129.454,-19.6545 119.014,-21.4606 122.419,-27.5767"/>
</g>
<!-- Node5&#45;&gt;Node2 -->
<g id="edge14" class="edge"><title>Node5&#45;&gt;Node2</title>
<path fill="none" stroke="midnightblue" d="M123.415,-56.324C108.001,-47.7428 84.1878,-34.486 66.2903,-24.5224"/>
<polygon fill="midnightblue" stroke="midnightblue" points="67.9858,-21.4606 57.5461,-19.6545 64.5809,-27.5767 67.9858,-21.4606"/>
</g>
<!-- Node5&#45;&gt;Node3 -->
<g id="edge16" class="edge"><title>Node5&#45;&gt;Node3</title>
<path fill="none" stroke="midnightblue" d="M139.991,-56.083C140.786,-48.9272 141.929,-38.6353 142.923,-29.6911"/>
<polygon fill="midnightblue" stroke="midnightblue" points="146.402,-30.0765 144.028,-19.7511 139.445,-29.3034 146.402,-30.0765"/>
</g>
</g>
</svg>
