<?xml version="1.0" encoding="UTF-8" standalone="no"?>
<!DOCTYPE svg PUBLIC "-//W3C//DTD SVG 1.1//EN"
 "http://www.w3.org/Graphics/SVG/1.1/DTD/svg11.dtd">
<!-- Generated by graphviz version 2.28.0 (20110507.0327)
 -->
<!-- Title: G Pages: 1 -->
<svg width="148pt" height="142pt"
 viewBox="0.00 0.00 148.00 142.00" xmlns="http://www.w3.org/2000/svg" xmlns:xlink="http://www.w3.org/1999/xlink">
<g id="graph1" class="graph" transform="scale(1 1) rotate(0) translate(4 138)">
<title>G</title>
<polygon fill="white" stroke="white" points="-4,5 -4,-138 145,-138 145,5 -4,5"/>
<!-- Node1 -->
<g id="node1" class="node"><title>Node1</title>
<polygon fill="#bfbfbf" stroke="black" points="0,-57.5 0,-76.5 32,-76.5 32,-57.5 0,-57.5"/>
<text text-anchor="middle" x="16" y="-64.5" font-family="Helvetica,sans-Serif" font-size="10.00">MC</text>
</g>
<!-- Node2 -->
<g id="node3" class="node"><title>Node2</title>
<a xlink:href="_mat_8c.html#a06edbabb9980a6bbbf2e2b21dc831b4d" target="_top" xlink:title="MatSetf">
<polygon fill="white" stroke="black" points="79,-114.5 79,-133.5 129,-133.5 129,-114.5 79,-114.5"/>
<text text-anchor="middle" x="104" y="-121.5" font-family="Helvetica,sans-Serif" font-size="10.00">MatSetf</text>
</a>
</g>
<!-- Node1&#45;&gt;Node2 -->
<g id="edge2" class="edge"><title>Node1&#45;&gt;Node2</title>
<path fill="none" stroke="midnightblue" d="M28.8132,-76.561C38.9346,-84.5655 54.0457,-96.0783 68,-105 70.3228,-106.485 72.7711,-107.968 75.2496,-109.415"/>
<polygon fill="midnightblue" stroke="midnightblue" points="73.7527,-112.588 84.1869,-114.426 77.1764,-106.482 73.7527,-112.588"/>
</g>
<!-- Node3 -->
<g id="node5" class="node"><title>Node3</title>
<a xlink:href="_mat_8c.html#a63a68223bbacc69c068f6a3bdb4b428a" target="_top" xlink:title="MatCpyf">
<polygon fill="white" stroke="black" points="77.5,-76.5 77.5,-95.5 130.5,-95.5 130.5,-76.5 77.5,-76.5"/>
<text text-anchor="middle" x="104" y="-83.5" font-family="Helvetica,sans-Serif" font-size="10.00">MatCpyf</text>
</a>
</g>
<!-- Node1&#45;&gt;Node3 -->
<g id="edge4" class="edge"><title>Node1&#45;&gt;Node3</title>
<path fill="none" stroke="midnightblue" d="M32.3751,-70.3968C42.1133,-72.5483 55.1297,-75.424 67.3339,-78.1203"/>
<polygon fill="midnightblue" stroke="midnightblue" points="66.7849,-81.5833 77.3046,-80.3231 68.2951,-74.7482 66.7849,-81.5833"/>
</g>
<!-- Node4 -->
<g id="node7" class="node"><title>Node4</title>
<a xlink:href="_mat_8c.html#a9f566ce4c8ca2381358f2134cdd4e9e7" target="_top" xlink:title="MatMulScalf">
<polygon fill="white" stroke="black" points="68.5,-38.5 68.5,-57.5 139.5,-57.5 139.5,-38.5 68.5,-38.5"/>
<text text-anchor="middle" x="104" y="-45.5" font-family="Helvetica,sans-Serif" font-size="10.00">MatMulScalf</text>
</a>
</g>
<!-- Node1&#45;&gt;Node4 -->
<g id="edge6" class="edge"><title>Node1&#45;&gt;Node4</title>
<path fill="none" stroke="midnightblue" d="M32.3751,-63.6032C39.684,-61.9884 48.8396,-59.9657 58.1125,-57.917"/>
<polygon fill="midnightblue" stroke="midnightblue" points="59.1292,-61.2769 68.1387,-55.7019 57.6191,-54.4417 59.1292,-61.2769"/>
</g>
<!-- Node5 -->
<g id="node9" class="node"><title>Node5</title>
<a xlink:href="_sherpa_8c.html#a655faa6790b7b75d8f92e165355131b2" target="_top" xlink:title="QToPoulies">
<polygon fill="white" stroke="black" points="70.5,-0.5 70.5,-19.5 137.5,-19.5 137.5,-0.5 70.5,-0.5"/>
<text text-anchor="middle" x="104" y="-7.5" font-family="Helvetica,sans-Serif" font-size="10.00">QToPoulies</text>
</a>
</g>
<!-- Node1&#45;&gt;Node5 -->
<g id="edge8" class="edge"><title>Node1&#45;&gt;Node5</title>
<path fill="none" stroke="midnightblue" d="M28.8132,-57.439C38.9346,-49.4345 54.0457,-37.9217 68,-29 70.3228,-27.5149 72.7711,-26.0315 75.2496,-24.5853"/>
<polygon fill="midnightblue" stroke="midnightblue" points="77.1764,-27.5176 84.1869,-19.5738 73.7527,-21.412 77.1764,-27.5176"/>
</g>
</g>
</svg>
