<?xml version="1.0" encoding="UTF-8" standalone="no"?>
<!DOCTYPE svg PUBLIC "-//W3C//DTD SVG 1.1//EN"
 "http://www.w3.org/Graphics/SVG/1.1/DTD/svg11.dtd">
<!-- Generated by graphviz version 2.28.0 (20110507.0327)
 -->
<!-- Title: G Pages: 1 -->
<svg width="322pt" height="104pt"
 viewBox="0.00 0.00 322.00 104.00" xmlns="http://www.w3.org/2000/svg" xmlns:xlink="http://www.w3.org/1999/xlink">
<g id="graph1" class="graph" transform="scale(1 1) rotate(0) translate(4 100)">
<title>G</title>
<polygon fill="white" stroke="white" points="-4,5 -4,-100 319,-100 319,5 -4,5"/>
<!-- Node1 -->
<g id="node1" class="node"><title>Node1</title>
<polygon fill="#bfbfbf" stroke="black" points="0.5,-38.5 0.5,-57.5 67.5,-57.5 67.5,-38.5 0.5,-38.5"/>
<text text-anchor="middle" x="34" y="-45.5" font-family="Helvetica,sans-Serif" font-size="10.00">QToPoulies</text>
</g>
<!-- Node2 -->
<g id="node3" class="node"><title>Node2</title>
<a xlink:href="_sherpa_8c.html#afb136a30db64a353779981a7ae99acad" target="_top" xlink:title="Mesures">
<polygon fill="white" stroke="black" points="104,-76.5 104,-95.5 158,-95.5 158,-76.5 104,-76.5"/>
<text text-anchor="middle" x="131" y="-83.5" font-family="Helvetica,sans-Serif" font-size="10.00">Mesures</text>
</a>
</g>
<!-- Node1&#45;&gt;Node2 -->
<g id="edge2" class="edge"><title>Node1&#45;&gt;Node2</title>
<path fill="none" stroke="midnightblue" d="M68.5286,-61.4114C80.906,-66.3624 94.6727,-71.8691 106.035,-76.4141"/>
<polygon fill="midnightblue" stroke="midnightblue" points="69.5572,-58.0533 58.9725,-57.589 66.9574,-64.5526 69.5572,-58.0533"/>
</g>
<!-- Node3 -->
<g id="node5" class="node"><title>Node3</title>
<a xlink:href="_sherpa_8c.html#ad3548e136b9b35dcfb6c4023ce282125" target="_top" xlink:title="Asserv">
<polygon fill="white" stroke="black" points="194,-38.5 194,-57.5 240,-57.5 240,-38.5 194,-38.5"/>
<text text-anchor="middle" x="217" y="-45.5" font-family="Helvetica,sans-Serif" font-size="10.00">Asserv</text>
</a>
</g>
<!-- Node1&#45;&gt;Node3 -->
<g id="edge14" class="edge"><title>Node1&#45;&gt;Node3</title>
<path fill="none" stroke="midnightblue" d="M78.0928,-48C114.446,-48 165.019,-48 193.736,-48"/>
<polygon fill="midnightblue" stroke="midnightblue" points="77.7778,-44.5001 67.7777,-48 77.7777,-51.5001 77.7778,-44.5001"/>
</g>
<!-- Node5 -->
<g id="node9" class="node"><title>Node5</title>
<a xlink:href="_sherpa_8c.html#a7629767cc0bbef801b5565542b55a270" target="_top" xlink:title="MC">
<polygon fill="white" stroke="black" points="115,-0.5 115,-19.5 147,-19.5 147,-0.5 115,-0.5"/>
<text text-anchor="middle" x="131" y="-7.5" font-family="Helvetica,sans-Serif" font-size="10.00">MC</text>
</a>
</g>
<!-- Node1&#45;&gt;Node5 -->
<g id="edge8" class="edge"><title>Node1&#45;&gt;Node5</title>
<path fill="none" stroke="midnightblue" d="M68.4809,-34.6076C84.3422,-28.2631 102.494,-21.0023 114.947,-16.0212"/>
<polygon fill="midnightblue" stroke="midnightblue" points="66.9574,-31.4474 58.9725,-38.411 69.5572,-37.9467 66.9574,-31.4474"/>
</g>
<!-- Node2&#45;&gt;Node3 -->
<g id="edge4" class="edge"><title>Node2&#45;&gt;Node3</title>
<path fill="none" stroke="midnightblue" d="M162.625,-72.1459C173.312,-67.3113 185.062,-61.9959 194.81,-57.5859"/>
<polygon fill="midnightblue" stroke="midnightblue" points="160.865,-69.1004 153.197,-76.411 163.75,-75.4781 160.865,-69.1004"/>
</g>
<!-- Node4 -->
<g id="node7" class="node"><title>Node4</title>
<a xlink:href="_sherpa_8c.html#ae66f6b31b5ad750f1fe042a706a4e3d4" target="_top" xlink:title="main">
<polygon fill="white" stroke="black" points="276,-19.5 276,-38.5 314,-38.5 314,-19.5 276,-19.5"/>
<text text-anchor="middle" x="295" y="-26.5" font-family="Helvetica,sans-Serif" font-size="10.00">main</text>
</a>
</g>
<!-- Node3&#45;&gt;Node4 -->
<g id="edge6" class="edge"><title>Node3&#45;&gt;Node4</title>
<path fill="none" stroke="midnightblue" d="M250.258,-39.9354C258.918,-37.7706 267.984,-35.504 275.603,-33.5994"/>
<polygon fill="midnightblue" stroke="midnightblue" points="249.244,-36.5812 240.391,-42.4021 250.942,-43.3722 249.244,-36.5812"/>
</g>
<!-- Node5&#45;&gt;Node3 -->
<g id="edge10" class="edge"><title>Node5&#45;&gt;Node3</title>
<path fill="none" stroke="midnightblue" d="M156.173,-20.9352C168.375,-26.4555 183.043,-33.0911 194.802,-38.4102"/>
<polygon fill="midnightblue" stroke="midnightblue" points="157.571,-17.7265 147.018,-16.7936 154.686,-24.1043 157.571,-17.7265"/>
</g>
<!-- Node5&#45;&gt;Node4 -->
<g id="edge12" class="edge"><title>Node5&#45;&gt;Node4</title>
<path fill="none" stroke="midnightblue" d="M157.442,-12.984C190.425,-16.8523 247.127,-23.5025 275.988,-26.8874"/>
<polygon fill="midnightblue" stroke="midnightblue" points="157.58,-9.47624 147.241,-11.7875 156.765,-16.4286 157.58,-9.47624"/>
</g>
</g>
</svg>
