<?xml version="1.0" encoding="UTF-8" standalone="no"?>
<!DOCTYPE svg PUBLIC "-//W3C//DTD SVG 1.1//EN"
 "http://www.w3.org/Graphics/SVG/1.1/DTD/svg11.dtd">
<!-- Generated by graphviz version 2.28.0 (20110507.0327)
 -->
<!-- Title: G Pages: 1 -->
<svg width="252pt" height="256pt"
 viewBox="0.00 0.00 252.00 256.00" xmlns="http://www.w3.org/2000/svg" xmlns:xlink="http://www.w3.org/1999/xlink">
<g id="graph1" class="graph" transform="scale(1 1) rotate(0) translate(4 252)">
<title>G</title>
<polygon fill="white" stroke="white" points="-4,5 -4,-252 249,-252 249,5 -4,5"/>
<!-- Node1 -->
<g id="node1" class="node"><title>Node1</title>
<polygon fill="#bfbfbf" stroke="black" points="0,-114.5 0,-133.5 46,-133.5 46,-114.5 0,-114.5"/>
<text text-anchor="middle" x="23" y="-121.5" font-family="Helvetica,sans-Serif" font-size="10.00">Asserv</text>
</g>
<!-- Node2 -->
<g id="node3" class="node"><title>Node2</title>
<a xlink:href="_sherpa_8c.html#afb136a30db64a353779981a7ae99acad" target="_top" xlink:title="Mesures">
<polygon fill="white" stroke="black" points="82,-190.5 82,-209.5 136,-209.5 136,-190.5 82,-190.5"/>
<text text-anchor="middle" x="109" y="-197.5" font-family="Helvetica,sans-Serif" font-size="10.00">Mesures</text>
</a>
</g>
<!-- Node1&#45;&gt;Node2 -->
<g id="edge2" class="edge"><title>Node1&#45;&gt;Node2</title>
<path fill="none" stroke="midnightblue" d="M33.0443,-133.717C44.1302,-145.428 63.7035,-165.467 82,-181 83.172,-181.995 84.3923,-182.996 85.6369,-183.989"/>
<polygon fill="midnightblue" stroke="midnightblue" points="83.8705,-187.042 93.9503,-190.306 88.1055,-181.469 83.8705,-187.042"/>
</g>
<!-- Node4 -->
<g id="node7" class="node"><title>Node4</title>
<a xlink:href="_sherpa_8c.html#a655faa6790b7b75d8f92e165355131b2" target="_top" xlink:title="QToPoulies">
<polygon fill="white" stroke="black" points="174.5,-228.5 174.5,-247.5 241.5,-247.5 241.5,-228.5 174.5,-228.5"/>
<text text-anchor="middle" x="208" y="-235.5" font-family="Helvetica,sans-Serif" font-size="10.00">QToPoulies</text>
</a>
</g>
<!-- Node1&#45;&gt;Node4 -->
<g id="edge22" class="edge"><title>Node1&#45;&gt;Node4</title>
<path fill="none" stroke="midnightblue" d="M26.867,-133.754C33.2171,-153.483 50.4601,-198.03 82,-219 106.018,-234.969 138.311,-239.551 164.057,-240.228"/>
<polygon fill="midnightblue" stroke="midnightblue" points="164.261,-243.729 174.288,-240.305 164.314,-236.729 164.261,-243.729"/>
</g>
<!-- Node5 -->
<g id="node9" class="node"><title>Node5</title>
<a xlink:href="_sherpa_8c.html#a7629767cc0bbef801b5565542b55a270" target="_top" xlink:title="MC">
<polygon fill="white" stroke="black" points="93,-152.5 93,-171.5 125,-171.5 125,-152.5 93,-152.5"/>
<text text-anchor="middle" x="109" y="-159.5" font-family="Helvetica,sans-Serif" font-size="10.00">MC</text>
</a>
</g>
<!-- Node1&#45;&gt;Node5 -->
<g id="edge8" class="edge"><title>Node1&#45;&gt;Node5</title>
<path fill="none" stroke="midnightblue" d="M45.1967,-133.589C56.9319,-138.898 71.5659,-145.518 83.7547,-151.032"/>
<polygon fill="midnightblue" stroke="midnightblue" points="82.35,-154.238 92.9037,-155.171 85.2352,-147.86 82.35,-154.238"/>
</g>
<!-- Node7 -->
<g id="node14" class="node"><title>Node7</title>
<a xlink:href="_mat_8c.html#a9f566ce4c8ca2381358f2134cdd4e9e7" target="_top" xlink:title="MatMulScalf">
<polygon fill="white" stroke="black" points="172.5,-114.5 172.5,-133.5 243.5,-133.5 243.5,-114.5 172.5,-114.5"/>
<text text-anchor="middle" x="208" y="-121.5" font-family="Helvetica,sans-Serif" font-size="10.00">MatMulScalf</text>
</a>
</g>
<!-- Node1&#45;&gt;Node7 -->
<g id="edge24" class="edge"><title>Node1&#45;&gt;Node7</title>
<path fill="none" stroke="midnightblue" d="M46.0741,-124C74.6265,-124 125.059,-124 161.875,-124"/>
<polygon fill="midnightblue" stroke="midnightblue" points="162.345,-127.5 172.345,-124 162.345,-120.5 162.345,-127.5"/>
</g>
<!-- Node8 -->
<g id="node17" class="node"><title>Node8</title>
<a xlink:href="_mat_8c.html#aadc8eae1b41be6aedf842df38abb4c2b" target="_top" xlink:title="MatSubf">
<polygon fill="white" stroke="black" points="82.5,-76.5 82.5,-95.5 135.5,-95.5 135.5,-76.5 82.5,-76.5"/>
<text text-anchor="middle" x="109" y="-83.5" font-family="Helvetica,sans-Serif" font-size="10.00">MatSubf</text>
</a>
</g>
<!-- Node1&#45;&gt;Node8 -->
<g id="edge18" class="edge"><title>Node1&#45;&gt;Node8</title>
<path fill="none" stroke="midnightblue" d="M45.1967,-114.411C54.946,-110.001 66.6961,-104.685 77.3827,-99.8507"/>
<polygon fill="midnightblue" stroke="midnightblue" points="79.1416,-102.897 86.81,-95.5859 76.2563,-96.5188 79.1416,-102.897"/>
</g>
<!-- Node9 -->
<g id="node19" class="node"><title>Node9</title>
<a xlink:href="_mat_8c.html#a245892f5cf1ad342b2baa13a352892d3" target="_top" xlink:title="MatClrf">
<polygon fill="white" stroke="black" points="85.5,-38.5 85.5,-57.5 132.5,-57.5 132.5,-38.5 85.5,-38.5"/>
<text text-anchor="middle" x="109" y="-45.5" font-family="Helvetica,sans-Serif" font-size="10.00">MatClrf</text>
</a>
</g>
<!-- Node1&#45;&gt;Node9 -->
<g id="edge20" class="edge"><title>Node1&#45;&gt;Node9</title>
<path fill="none" stroke="midnightblue" d="M33.0443,-114.283C44.1302,-102.572 63.7035,-82.533 82,-67 83.172,-66.005 84.3923,-65.0045 85.6369,-64.0112"/>
<polygon fill="midnightblue" stroke="midnightblue" points="88.1055,-66.5312 93.9503,-57.6944 83.8705,-60.9576 88.1055,-66.5312"/>
</g>
<!-- Node10 -->
<g id="node23" class="node"><title>Node10</title>
<a xlink:href="_mat_8c.html#af8d2fa33b5e306753bc588565f8ac12b" target="_top" xlink:title="MatCpy">
<polygon fill="white" stroke="black" points="84,-0.5 84,-19.5 134,-19.5 134,-0.5 84,-0.5"/>
<text text-anchor="middle" x="109" y="-7.5" font-family="Helvetica,sans-Serif" font-size="10.00">MatCpy</text>
</a>
</g>
<!-- Node1&#45;&gt;Node10 -->
<g id="edge26" class="edge"><title>Node1&#45;&gt;Node10</title>
<path fill="none" stroke="midnightblue" d="M28.3516,-114.275C36.8127,-96.0877 56.8754,-56.3003 82,-29 82.8944,-28.0281 83.8452,-27.0738 84.8343,-26.1421"/>
<polygon fill="midnightblue" stroke="midnightblue" points="87.3737,-28.5849 92.8676,-19.5258 82.9235,-23.1816 87.3737,-28.5849"/>
</g>
<!-- Node3 -->
<g id="node5" class="node"><title>Node3</title>
<a xlink:href="_mat_8c.html#a63a68223bbacc69c068f6a3bdb4b428a" target="_top" xlink:title="MatCpyf">
<polygon fill="white" stroke="black" points="181.5,-190.5 181.5,-209.5 234.5,-209.5 234.5,-190.5 181.5,-190.5"/>
<text text-anchor="middle" x="208" y="-197.5" font-family="Helvetica,sans-Serif" font-size="10.00">MatCpyf</text>
</a>
</g>
<!-- Node2&#45;&gt;Node3 -->
<g id="edge4" class="edge"><title>Node2&#45;&gt;Node3</title>
<path fill="none" stroke="midnightblue" d="M136.25,-200C146.989,-200 159.586,-200 171.152,-200"/>
<polygon fill="midnightblue" stroke="midnightblue" points="171.4,-203.5 181.4,-200 171.4,-196.5 171.4,-203.5"/>
</g>
<!-- Node2&#45;&gt;Node4 -->
<g id="edge6" class="edge"><title>Node2&#45;&gt;Node4</title>
<path fill="none" stroke="midnightblue" d="M134.477,-209.589C146.195,-214.179 160.415,-219.75 173.149,-224.739"/>
<polygon fill="midnightblue" stroke="midnightblue" points="171.943,-228.025 182.531,-228.414 174.496,-221.508 171.943,-228.025"/>
</g>
<!-- Node5&#45;&gt;Node3 -->
<g id="edge12" class="edge"><title>Node5&#45;&gt;Node3</title>
<path fill="none" stroke="midnightblue" d="M125.156,-167.938C137.864,-172.916 156.492,-180.213 172.767,-186.589"/>
<polygon fill="midnightblue" stroke="midnightblue" points="171.935,-190.022 182.523,-190.411 174.488,-183.504 171.935,-190.022"/>
</g>
<!-- Node5&#45;&gt;Node4 -->
<g id="edge16" class="edge"><title>Node5&#45;&gt;Node4</title>
<path fill="none" stroke="midnightblue" d="M124.124,-171.609C128.081,-174.489 132.307,-177.749 136,-181 153.463,-196.371 153.548,-204.83 172,-219 173.827,-220.403 175.771,-221.762 177.77,-223.066"/>
<polygon fill="midnightblue" stroke="midnightblue" points="176.322,-226.277 186.704,-228.385 179.903,-220.262 176.322,-226.277"/>
</g>
<!-- Node6 -->
<g id="node11" class="node"><title>Node6</title>
<a xlink:href="_mat_8c.html#a06edbabb9980a6bbbf2e2b21dc831b4d" target="_top" xlink:title="MatSetf">
<polygon fill="white" stroke="black" points="183,-152.5 183,-171.5 233,-171.5 233,-152.5 183,-152.5"/>
<text text-anchor="middle" x="208" y="-159.5" font-family="Helvetica,sans-Serif" font-size="10.00">MatSetf</text>
</a>
</g>
<!-- Node5&#45;&gt;Node6 -->
<g id="edge10" class="edge"><title>Node5&#45;&gt;Node6</title>
<path fill="none" stroke="midnightblue" d="M125.156,-162C137.832,-162 156.397,-162 172.643,-162"/>
<polygon fill="midnightblue" stroke="midnightblue" points="172.898,-165.5 182.898,-162 172.898,-158.5 172.898,-165.5"/>
</g>
<!-- Node5&#45;&gt;Node7 -->
<g id="edge14" class="edge"><title>Node5&#45;&gt;Node7</title>
<path fill="none" stroke="midnightblue" d="M125.156,-156.063C137.864,-151.084 156.492,-143.787 172.767,-137.411"/>
<polygon fill="midnightblue" stroke="midnightblue" points="174.488,-140.496 182.523,-133.589 171.935,-133.978 174.488,-140.496"/>
</g>
</g>
</svg>
