<?xml version="1.0" encoding="UTF-8" standalone="no"?>
<!DOCTYPE svg PUBLIC "-//W3C//DTD SVG 1.1//EN"
 "http://www.w3.org/Graphics/SVG/1.1/DTD/svg11.dtd">
<!-- Generated by graphviz version 2.28.0 (20110507.0327)
 -->
<!-- Title: G Pages: 1 -->
<svg width="326pt" height="236pt"
 viewBox="0.00 0.00 326.00 236.45" xmlns="http://www.w3.org/2000/svg" xmlns:xlink="http://www.w3.org/1999/xlink">
<g id="graph1" class="graph" transform="scale(1 1) rotate(0) translate(4 232.453)">
<title>G</title>
<polygon fill="white" stroke="white" points="-4,5 -4,-232.453 323,-232.453 323,5 -4,5"/>
<!-- Node1 -->
<g id="node1" class="node"><title>Node1</title>
<polygon fill="#bfbfbf" stroke="black" points="0,-131.953 0,-150.953 38,-150.953 38,-131.953 0,-131.953"/>
<text text-anchor="middle" x="19" y="-138.953" font-family="Helvetica,sans-Serif" font-size="10.00">main</text>
</g>
<!-- Node2 -->
<g id="node3" class="node"><title>Node2</title>
<a xlink:href="_sherpa_8c.html#a7629767cc0bbef801b5565542b55a270" target="_top" xlink:title="MC">
<polygon fill="white" stroke="black" points="167,-170.953 167,-189.953 199,-189.953 199,-170.953 167,-170.953"/>
<text text-anchor="middle" x="183" y="-177.953" font-family="Helvetica,sans-Serif" font-size="10.00">MC</text>
</a>
</g>
<!-- Node1&#45;&gt;Node2 -->
<g id="edge2" class="edge"><title>Node1&#45;&gt;Node2</title>
<path fill="none" stroke="midnightblue" d="M38.2686,-145.851C67.3888,-152.861 124.381,-166.582 157.173,-174.476"/>
<polygon fill="midnightblue" stroke="midnightblue" points="156.362,-177.881 166.904,-176.819 158.001,-171.075 156.362,-177.881"/>
</g>
<!-- Node7 -->
<g id="node13" class="node"><title>Node7</title>
<a xlink:href="_sherpa_8c.html#ad3548e136b9b35dcfb6c4023ce282125" target="_top" xlink:title="Asserv">
<polygon fill="white" stroke="black" points="74,-103.953 74,-122.953 120,-122.953 120,-103.953 74,-103.953"/>
<text text-anchor="middle" x="97" y="-110.953" font-family="Helvetica,sans-Serif" font-size="10.00">Asserv</text>
</a>
</g>
<!-- Node1&#45;&gt;Node7 -->
<g id="edge12" class="edge"><title>Node1&#45;&gt;Node7</title>
<path fill="none" stroke="midnightblue" d="M38.0109,-134.817C45.8764,-131.919 55.3391,-128.433 64.3176,-125.125"/>
<polygon fill="midnightblue" stroke="midnightblue" points="65.5983,-128.383 73.7718,-121.642 63.1784,-121.815 65.5983,-128.383"/>
</g>
<!-- Node3 -->
<g id="node5" class="node"><title>Node3</title>
<a xlink:href="_mat_8c.html#a06edbabb9980a6bbbf2e2b21dc831b4d" target="_top" xlink:title="MatSetf">
<polygon fill="white" stroke="black" points="257,-170.953 257,-189.953 307,-189.953 307,-170.953 257,-170.953"/>
<text text-anchor="middle" x="282" y="-177.953" font-family="Helvetica,sans-Serif" font-size="10.00">MatSetf</text>
</a>
</g>
<!-- Node2&#45;&gt;Node3 -->
<g id="edge4" class="edge"><title>Node2&#45;&gt;Node3</title>
<path fill="none" stroke="midnightblue" d="M199.156,-180.453C211.832,-180.453 230.397,-180.453 246.643,-180.453"/>
<polygon fill="midnightblue" stroke="midnightblue" points="246.898,-183.953 256.898,-180.453 246.898,-176.953 246.898,-183.953"/>
</g>
<!-- Node4 -->
<g id="node7" class="node"><title>Node4</title>
<a xlink:href="_mat_8c.html#a63a68223bbacc69c068f6a3bdb4b428a" target="_top" xlink:title="MatCpyf">
<polygon fill="white" stroke="black" points="255.5,-94.9528 255.5,-113.953 308.5,-113.953 308.5,-94.9528 255.5,-94.9528"/>
<text text-anchor="middle" x="282" y="-101.953" font-family="Helvetica,sans-Serif" font-size="10.00">MatCpyf</text>
</a>
</g>
<!-- Node2&#45;&gt;Node4 -->
<g id="edge6" class="edge"><title>Node2&#45;&gt;Node4</title>
<path fill="none" stroke="midnightblue" d="M197.313,-170.902C201.411,-167.915 205.917,-164.581 210,-161.453 227.457,-148.078 246.909,-132.406 261.032,-120.883"/>
<polygon fill="midnightblue" stroke="midnightblue" points="263.55,-123.345 269.072,-114.303 259.116,-117.928 263.55,-123.345"/>
</g>
<!-- Node5 -->
<g id="node9" class="node"><title>Node5</title>
<a xlink:href="_mat_8c.html#a9f566ce4c8ca2381358f2134cdd4e9e7" target="_top" xlink:title="MatMulScalf">
<polygon fill="white" stroke="black" points="246.5,-208.953 246.5,-227.953 317.5,-227.953 317.5,-208.953 246.5,-208.953"/>
<text text-anchor="middle" x="282" y="-215.953" font-family="Helvetica,sans-Serif" font-size="10.00">MatMulScalf</text>
</a>
</g>
<!-- Node2&#45;&gt;Node5 -->
<g id="edge8" class="edge"><title>Node2&#45;&gt;Node5</title>
<path fill="none" stroke="midnightblue" d="M199.156,-186.39C211.864,-191.369 230.492,-198.666 246.767,-205.042"/>
<polygon fill="midnightblue" stroke="midnightblue" points="245.935,-208.475 256.523,-208.864 248.488,-201.957 245.935,-208.475"/>
</g>
<!-- Node6 -->
<g id="node11" class="node"><title>Node6</title>
<a xlink:href="_sherpa_8c.html#a655faa6790b7b75d8f92e165355131b2" target="_top" xlink:title="QToPoulies">
<polygon fill="white" stroke="black" points="248.5,-18.9528 248.5,-37.9528 315.5,-37.9528 315.5,-18.9528 248.5,-18.9528"/>
<text text-anchor="middle" x="282" y="-25.9528" font-family="Helvetica,sans-Serif" font-size="10.00">QToPoulies</text>
</a>
</g>
<!-- Node2&#45;&gt;Node6 -->
<g id="edge10" class="edge"><title>Node2&#45;&gt;Node6</title>
<path fill="none" stroke="midnightblue" d="M199.115,-171.346C202.996,-168.518 206.936,-165.158 210,-161.453 233.821,-132.652 228.195,-118.315 246,-85.4528 253.102,-72.3438 261.884,-58.0467 268.874,-47.0505"/>
<polygon fill="midnightblue" stroke="midnightblue" points="272.005,-48.654 274.469,-38.3498 266.117,-44.8681 272.005,-48.654"/>
</g>
<!-- Node7&#45;&gt;Node2 -->
<g id="edge20" class="edge"><title>Node7&#45;&gt;Node2</title>
<path fill="none" stroke="midnightblue" d="M109.388,-123.223C120.965,-133.071 139.495,-148.611 156,-161.453 157.395,-162.539 158.843,-163.646 160.308,-164.753"/>
<polygon fill="midnightblue" stroke="midnightblue" points="158.54,-167.799 168.658,-170.939 162.707,-162.174 158.54,-167.799"/>
</g>
<!-- Node7&#45;&gt;Node5 -->
<g id="edge28" class="edge"><title>Node7&#45;&gt;Node5</title>
<path fill="none" stroke="midnightblue" d="M101.473,-123.138C108.578,-141.426 126.629,-180.868 156,-199.453 179.721,-214.462 210.935,-219.217 236.237,-220.217"/>
<polygon fill="midnightblue" stroke="midnightblue" points="236.25,-223.718 246.323,-220.434 236.4,-216.72 236.25,-223.718"/>
</g>
<!-- Node7&#45;&gt;Node6 -->
<g id="edge26" class="edge"><title>Node7&#45;&gt;Node6</title>
<path fill="none" stroke="midnightblue" d="M99.9938,-103.706C105.001,-82.0903 120.347,-30.392 156,-9.45279 186.175,8.26911 227.243,-3.44966 253.936,-14.8139"/>
<polygon fill="midnightblue" stroke="midnightblue" points="252.517,-18.0136 263.072,-18.9295 255.392,-11.6312 252.517,-18.0136"/>
</g>
<!-- Node8 -->
<g id="node15" class="node"><title>Node8</title>
<a xlink:href="_sherpa_8c.html#afb136a30db64a353779981a7ae99acad" target="_top" xlink:title="Mesures">
<polygon fill="white" stroke="black" points="156,-18.9528 156,-37.9528 210,-37.9528 210,-18.9528 156,-18.9528"/>
<text text-anchor="middle" x="183" y="-25.9528" font-family="Helvetica,sans-Serif" font-size="10.00">Mesures</text>
</a>
</g>
<!-- Node7&#45;&gt;Node8 -->
<g id="edge14" class="edge"><title>Node7&#45;&gt;Node8</title>
<path fill="none" stroke="midnightblue" d="M105.29,-103.907C115.746,-90.5233 135.957,-65.7703 156,-47.4528 157.135,-46.4156 158.326,-45.382 159.548,-44.3632"/>
<polygon fill="midnightblue" stroke="midnightblue" points="162.035,-46.864 167.797,-37.9728 157.748,-41.3304 162.035,-46.864"/>
</g>
<!-- Node9 -->
<g id="node20" class="node"><title>Node9</title>
<a xlink:href="_mat_8c.html#aadc8eae1b41be6aedf842df38abb4c2b" target="_top" xlink:title="MatSubf">
<polygon fill="white" stroke="black" points="156.5,-132.953 156.5,-151.953 209.5,-151.953 209.5,-132.953 156.5,-132.953"/>
<text text-anchor="middle" x="183" y="-139.953" font-family="Helvetica,sans-Serif" font-size="10.00">MatSubf</text>
</a>
</g>
<!-- Node7&#45;&gt;Node9 -->
<g id="edge22" class="edge"><title>Node7&#45;&gt;Node9</title>
<path fill="none" stroke="midnightblue" d="M120.07,-121.072C128.209,-123.882 137.648,-127.141 146.666,-130.254"/>
<polygon fill="midnightblue" stroke="midnightblue" points="145.61,-133.592 156.205,-133.547 147.895,-126.976 145.61,-133.592"/>
</g>
<!-- Node10 -->
<g id="node22" class="node"><title>Node10</title>
<a xlink:href="_mat_8c.html#a245892f5cf1ad342b2baa13a352892d3" target="_top" xlink:title="MatClrf">
<polygon fill="white" stroke="black" points="159.5,-94.9528 159.5,-113.953 206.5,-113.953 206.5,-94.9528 159.5,-94.9528"/>
<text text-anchor="middle" x="183" y="-101.953" font-family="Helvetica,sans-Serif" font-size="10.00">MatClrf</text>
</a>
</g>
<!-- Node7&#45;&gt;Node10 -->
<g id="edge24" class="edge"><title>Node7&#45;&gt;Node10</title>
<path fill="none" stroke="midnightblue" d="M120.07,-111.088C128.994,-110.132 139.481,-109.008 149.263,-107.96"/>
<polygon fill="midnightblue" stroke="midnightblue" points="149.923,-111.41 159.493,-106.864 149.177,-104.45 149.923,-111.41"/>
</g>
<!-- Node11 -->
<g id="node26" class="node"><title>Node11</title>
<a xlink:href="_mat_8c.html#af8d2fa33b5e306753bc588565f8ac12b" target="_top" xlink:title="MatCpy">
<polygon fill="white" stroke="black" points="158,-56.9528 158,-75.9528 208,-75.9528 208,-56.9528 158,-56.9528"/>
<text text-anchor="middle" x="183" y="-63.9528" font-family="Helvetica,sans-Serif" font-size="10.00">MatCpy</text>
</a>
</g>
<!-- Node7&#45;&gt;Node11 -->
<g id="edge30" class="edge"><title>Node7&#45;&gt;Node11</title>
<path fill="none" stroke="midnightblue" d="M114.999,-103.942C126.762,-97.3599 142.639,-88.4763 155.985,-81.0089"/>
<polygon fill="midnightblue" stroke="midnightblue" points="157.72,-84.0484 164.738,-76.1111 154.302,-77.9396 157.72,-84.0484"/>
</g>
<!-- Node8&#45;&gt;Node4 -->
<g id="edge16" class="edge"><title>Node8&#45;&gt;Node4</title>
<path fill="none" stroke="midnightblue" d="M197.313,-38.0035C201.411,-40.991 205.917,-44.3246 210,-47.4528 227.457,-60.8278 246.909,-76.5 261.032,-88.0223"/>
<polygon fill="midnightblue" stroke="midnightblue" points="259.116,-90.9771 269.072,-94.6027 263.55,-85.5603 259.116,-90.9771"/>
</g>
<!-- Node8&#45;&gt;Node6 -->
<g id="edge18" class="edge"><title>Node8&#45;&gt;Node6</title>
<path fill="none" stroke="midnightblue" d="M210.25,-28.4528C218.902,-28.4528 228.762,-28.4528 238.315,-28.4528"/>
<polygon fill="midnightblue" stroke="midnightblue" points="238.491,-31.9529 248.491,-28.4528 238.491,-24.9529 238.491,-31.9529"/>
</g>
</g>
</svg>
