<?xml version="1.0" encoding="UTF-8" standalone="no"?>
<!DOCTYPE svg PUBLIC "-//W3C//DTD SVG 1.1//EN"
 "http://www.w3.org/Graphics/SVG/1.1/DTD/svg11.dtd">
<!-- Generated by graphviz version 2.28.0 (20110507.0327)
 -->
<!-- Title: G Pages: 1 -->
<svg width="282pt" height="170pt"
 viewBox="0.00 0.00 282.00 170.00" xmlns="http://www.w3.org/2000/svg" xmlns:xlink="http://www.w3.org/1999/xlink">
<g id="graph1" class="graph" transform="scale(1 1) rotate(0) translate(4 166)">
<title>G</title>
<polygon fill="white" stroke="white" points="-4,5 -4,-166 279,-166 279,5 -4,5"/>
<!-- Node1 -->
<g id="node1" class="node"><title>Node1</title>
<polygon fill="#bfbfbf" stroke="black" points="0,-76.5 0,-95.5 44,-95.5 44,-76.5 0,-76.5"/>
<text text-anchor="middle" x="22" y="-83.5" font-family="Helvetica,sans-Serif" font-size="10.00">Spline</text>
</g>
<!-- Node2 -->
<g id="node3" class="node"><title>Node2</title>
<a xlink:href="_one_foot_trajectory_8h.html#ad00ff70b10b43f9cd34fbf351c5efa97" target="_top" xlink:title="OneFootTrajectory">
<polygon fill="white" stroke="black" points="176.5,-142.5 176.5,-161.5 273.5,-161.5 273.5,-142.5 176.5,-142.5"/>
<text text-anchor="middle" x="225" y="-149.5" font-family="Helvetica,sans-Serif" font-size="10.00">OneFootTrajectory</text>
</a>
</g>
<!-- Node1&#45;&gt;Node2 -->
<g id="edge2" class="edge"><title>Node1&#45;&gt;Node2</title>
<path fill="none" stroke="midnightblue" d="M44.763,-101.219C55.0504,-107.816 67.7426,-115.129 80,-120 110.939,-132.295 147.59,-140.355 176.172,-145.31"/>
<polygon fill="midnightblue" stroke="midnightblue" points="46.682,-98.2922 36.4129,-95.6854 42.815,-104.127 46.682,-98.2922"/>
</g>
<!-- Node3 -->
<g id="node5" class="node"><title>Node3</title>
<a xlink:href="_spline_8h.html#a372554d028622066dd8615192a857077" target="_top" xlink:title="C2Spline">
<polygon fill="white" stroke="black" points="82,-76.5 82,-95.5 138,-95.5 138,-76.5 82,-76.5"/>
<text text-anchor="middle" x="110" y="-83.5" font-family="Helvetica,sans-Serif" font-size="10.00">C2Spline</text>
</a>
</g>
<!-- Node1&#45;&gt;Node3 -->
<g id="edge4" class="edge"><title>Node1&#45;&gt;Node3</title>
<path fill="none" stroke="midnightblue" d="M54.3727,-86C63.3644,-86 73.0895,-86 81.8075,-86"/>
<polygon fill="midnightblue" stroke="midnightblue" points="54.2585,-82.5001 44.2584,-86 54.2584,-89.5001 54.2585,-82.5001"/>
</g>
<!-- Node4 -->
<g id="node8" class="node"><title>Node4</title>
<a xlink:href="_static_trajectory_8h.html#a294e520eccee504f360b4cb4f3ffcdb2" target="_top" xlink:title="PDStaticTrajectory">
<polygon fill="white" stroke="black" points="176,-85.5 176,-104.5 274,-104.5 274,-85.5 176,-85.5"/>
<text text-anchor="middle" x="225" y="-92.5" font-family="Helvetica,sans-Serif" font-size="10.00">PDStaticTrajectory</text>
</a>
</g>
<!-- Node1&#45;&gt;Node4 -->
<g id="edge12" class="edge"><title>Node1&#45;&gt;Node4</title>
<path fill="none" stroke="midnightblue" d="M53.9362,-98.3156C62.2647,-101.075 71.3623,-103.598 80,-105 111.663,-110.138 147.663,-107.638 175.747,-103.854"/>
<polygon fill="midnightblue" stroke="midnightblue" points="54.8361,-94.9216 44.2413,-94.8922 52.5053,-101.522 54.8361,-94.9216"/>
</g>
<!-- Node5 -->
<g id="node10" class="node"><title>Node5</title>
<a xlink:href="_static_trajectory_8h.html#aa7d2b8af0fe7e8bf25dab47d2494c807" target="_top" xlink:title="PStaticTrajectory">
<polygon fill="white" stroke="black" points="179,-47.5 179,-66.5 271,-66.5 271,-47.5 179,-47.5"/>
<text text-anchor="middle" x="225" y="-54.5" font-family="Helvetica,sans-Serif" font-size="10.00">PStaticTrajectory</text>
</a>
</g>
<!-- Node1&#45;&gt;Node5 -->
<g id="edge14" class="edge"><title>Node1&#45;&gt;Node5</title>
<path fill="none" stroke="midnightblue" d="M53.5214,-74.2515C61.9817,-71.4296 71.2482,-68.7335 80,-67 112.695,-60.524 150.285,-58.0779 178.859,-57.2222"/>
<polygon fill="midnightblue" stroke="midnightblue" points="52.3205,-70.9636 44.0392,-77.5719 54.634,-77.5702 52.3205,-70.9636"/>
</g>
<!-- Node6 -->
<g id="node14" class="node"><title>Node6</title>
<a xlink:href="_trajectory_8h.html#a181868475ae7b87eeb53f62df1a8272e" target="_top" xlink:title="Trajectory">
<polygon fill="white" stroke="black" points="80.5,-0.5 80.5,-19.5 139.5,-19.5 139.5,-0.5 80.5,-0.5"/>
<text text-anchor="middle" x="110" y="-7.5" font-family="Helvetica,sans-Serif" font-size="10.00">Trajectory</text>
</a>
</g>
<!-- Node1&#45;&gt;Node6 -->
<g id="edge16" class="edge"><title>Node1&#45;&gt;Node6</title>
<path fill="none" stroke="midnightblue" d="M40.7787,-69.3746C51.9235,-59.0547 66.6572,-45.5955 80,-34 85.5247,-29.1987 91.7661,-24.0048 97.0396,-19.6808"/>
<polygon fill="midnightblue" stroke="midnightblue" points="38.3102,-66.8906 33.3691,-76.2627 43.0763,-72.0175 38.3102,-66.8906"/>
</g>
<!-- Node3&#45;&gt;Node2 -->
<g id="edge6" class="edge"><title>Node3&#45;&gt;Node2</title>
<path fill="none" stroke="midnightblue" d="M136.403,-100.837C158.195,-113.565 188.952,-131.529 207.625,-142.436"/>
<polygon fill="midnightblue" stroke="midnightblue" points="138.074,-97.7598 127.674,-95.7385 134.543,-103.804 138.074,-97.7598"/>
</g>
<!-- Node3&#45;&gt;Node4 -->
<g id="edge8" class="edge"><title>Node3&#45;&gt;Node4</title>
<path fill="none" stroke="midnightblue" d="M148.112,-88.9559C157.009,-89.6644 166.635,-90.4311 175.949,-91.1729"/>
<polygon fill="midnightblue" stroke="midnightblue" points="148.313,-85.4608 138.066,-88.1557 147.757,-92.4387 148.313,-85.4608"/>
</g>
<!-- Node3&#45;&gt;Node5 -->
<g id="edge10" class="edge"><title>Node3&#45;&gt;Node5</title>
<path fill="none" stroke="midnightblue" d="M147.753,-76.5679C160.298,-73.3483 174.329,-69.7473 186.902,-66.5208"/>
<polygon fill="midnightblue" stroke="midnightblue" points="146.882,-73.1777 138.066,-79.0538 148.622,-79.958 146.882,-73.1777"/>
</g>
</g>
</svg>
