<?xml version="1.0" encoding="UTF-8" standalone="no"?>
<!DOCTYPE svg PUBLIC "-//W3C//DTD SVG 1.1//EN"
 "http://www.w3.org/Graphics/SVG/1.1/DTD/svg11.dtd">
<!-- Generated by graphviz version 2.28.0 (20110507.0327)
 -->
<!-- Title: G Pages: 1 -->
<svg width="381pt" height="84pt"
 viewBox="0.00 0.00 381.00 84.00" xmlns="http://www.w3.org/2000/svg" xmlns:xlink="http://www.w3.org/1999/xlink">
<g id="graph1" class="graph" transform="scale(1 1) rotate(0) translate(4 80)">
<title>G</title>
<polygon fill="white" stroke="white" points="-4,5 -4,-80 378,-80 378,5 -4,5"/>
<!-- Node1 -->
<g id="node1" class="node"><title>Node1</title>
<polygon fill="#bfbfbf" stroke="black" points="168,-56.5 168,-75.5 220,-75.5 220,-56.5 168,-56.5"/>
<text text-anchor="middle" x="194" y="-63.5" font-family="Helvetica,sans-Serif" font-size="10.00">Spline.h</text>
</g>
<!-- Node2 -->
<g id="node3" class="node"><title>Node2</title>
<a xlink:href="_one_foot_trajectory_8c.html" target="_top" xlink:title="OneFootTrajectory.c">
<polygon fill="white" stroke="black" points="-0.5,-0.5 -0.5,-19.5 104.5,-19.5 104.5,-0.5 -0.5,-0.5"/>
<text text-anchor="middle" x="52" y="-7.5" font-family="Helvetica,sans-Serif" font-size="10.00">OneFootTrajectory.c</text>
</a>
</g>
<!-- Node1&#45;&gt;Node2 -->
<g id="edge2" class="edge"><title>Node1&#45;&gt;Node2</title>
<path fill="none" stroke="midnightblue" d="M161.845,-52.772C135.172,-42.6287 97.9314,-28.4669 74.3951,-19.5164"/>
<polygon fill="midnightblue" stroke="midnightblue" points="160.909,-56.1604 171.5,-56.4435 163.397,-49.6176 160.909,-56.1604"/>
</g>
<!-- Node3 -->
<g id="node5" class="node"><title>Node3</title>
<a xlink:href="_spline_8c.html" target="_top" xlink:title="Spline.c">
<polygon fill="white" stroke="black" points="123,-0.5 123,-19.5 175,-19.5 175,-0.5 123,-0.5"/>
<text text-anchor="middle" x="149" y="-7.5" font-family="Helvetica,sans-Serif" font-size="10.00">Spline.c</text>
</a>
</g>
<!-- Node1&#45;&gt;Node3 -->
<g id="edge4" class="edge"><title>Node1&#45;&gt;Node3</title>
<path fill="none" stroke="midnightblue" d="M179.953,-48.144C172.113,-38.7357 162.671,-27.4046 156.293,-19.7511"/>
<polygon fill="midnightblue" stroke="midnightblue" points="177.479,-50.6414 186.569,-56.083 182.856,-46.1601 177.479,-50.6414"/>
</g>
<!-- Node4 -->
<g id="node7" class="node"><title>Node4</title>
<a xlink:href="_static_trajectory_8c.html" target="_top" xlink:title="StaticTrajectory.c">
<polygon fill="white" stroke="black" points="193.5,-0.5 193.5,-19.5 286.5,-19.5 286.5,-0.5 193.5,-0.5"/>
<text text-anchor="middle" x="240" y="-7.5" font-family="Helvetica,sans-Serif" font-size="10.00">StaticTrajectory.c</text>
</a>
</g>
<!-- Node1&#45;&gt;Node4 -->
<g id="edge6" class="edge"><title>Node1&#45;&gt;Node4</title>
<path fill="none" stroke="midnightblue" d="M208.114,-48.4314C216.176,-38.9673 225.959,-27.4827 232.545,-19.7511"/>
<polygon fill="midnightblue" stroke="midnightblue" points="205.416,-46.2009 201.596,-56.083 210.745,-50.7402 205.416,-46.2009"/>
</g>
<!-- Node5 -->
<g id="node9" class="node"><title>Node5</title>
<a xlink:href="_trajectory_8c.html" target="_top" xlink:title="Trajectory.c">
<polygon fill="white" stroke="black" points="305,-0.5 305,-19.5 373,-19.5 373,-0.5 305,-0.5"/>
<text text-anchor="middle" x="339" y="-7.5" font-family="Helvetica,sans-Serif" font-size="10.00">Trajectory.c</text>
</a>
</g>
<!-- Node1&#45;&gt;Node5 -->
<g id="edge8" class="edge"><title>Node1&#45;&gt;Node5</title>
<path fill="none" stroke="midnightblue" d="M226.475,-52.9058C253.736,-42.7536 291.992,-28.5063 316.132,-19.5164"/>
<polygon fill="midnightblue" stroke="midnightblue" points="225.125,-49.6736 216.976,-56.4435 227.568,-56.2334 225.125,-49.6736"/>
</g>
</g>
</svg>
