<?xml version="1.0" encoding="UTF-8" standalone="no"?>
<!DOCTYPE svg PUBLIC "-//W3C//DTD SVG 1.1//EN"
 "http://www.w3.org/Graphics/SVG/1.1/DTD/svg11.dtd">
<!-- Generated by graphviz version 2.28.0 (20110507.0327)
 -->
<!-- Title: G Pages: 1 -->
<svg width="198pt" height="104pt"
 viewBox="0.00 0.00 198.00 104.00" xmlns="http://www.w3.org/2000/svg" xmlns:xlink="http://www.w3.org/1999/xlink">
<g id="graph1" class="graph" transform="scale(1 1) rotate(0) translate(4 100)">
<title>G</title>
<polygon fill="white" stroke="white" points="-4,5 -4,-100 195,-100 195,5 -4,5"/>
<!-- Node1 -->
<g id="node1" class="node"><title>Node1</title>
<polygon fill="#bfbfbf" stroke="black" points="0,-38.5 0,-57.5 56,-57.5 56,-38.5 0,-38.5"/>
<text text-anchor="middle" x="28" y="-45.5" font-family="Helvetica,sans-Serif" font-size="10.00">C2Spline</text>
</g>
<!-- Node2 -->
<g id="node3" class="node"><title>Node2</title>
<a xlink:href="_one_foot_trajectory_8h.html#ad00ff70b10b43f9cd34fbf351c5efa97" target="_top" xlink:title="OneFootTrajectory">
<polygon fill="white" stroke="black" points="92.5,-76.5 92.5,-95.5 189.5,-95.5 189.5,-76.5 92.5,-76.5"/>
<text text-anchor="middle" x="141" y="-83.5" font-family="Helvetica,sans-Serif" font-size="10.00">OneFootTrajectory</text>
</a>
</g>
<!-- Node1&#45;&gt;Node2 -->
<g id="edge2" class="edge"><title>Node1&#45;&gt;Node2</title>
<path fill="none" stroke="midnightblue" d="M65.6994,-60.5638C80.7684,-65.7225 97.9344,-71.5992 111.968,-76.4033"/>
<polygon fill="midnightblue" stroke="midnightblue" points="66.7482,-57.2235 56.1537,-57.2958 64.481,-63.8461 66.7482,-57.2235"/>
</g>
<!-- Node3 -->
<g id="node5" class="node"><title>Node3</title>
<a xlink:href="_static_trajectory_8h.html#a294e520eccee504f360b4cb4f3ffcdb2" target="_top" xlink:title="PDStaticTrajectory">
<polygon fill="white" stroke="black" points="92,-38.5 92,-57.5 190,-57.5 190,-38.5 92,-38.5"/>
<text text-anchor="middle" x="141" y="-45.5" font-family="Helvetica,sans-Serif" font-size="10.00">PDStaticTrajectory</text>
</a>
</g>
<!-- Node1&#45;&gt;Node3 -->
<g id="edge4" class="edge"><title>Node1&#45;&gt;Node3</title>
<path fill="none" stroke="midnightblue" d="M66.209,-48C74.4539,-48 83.3051,-48 91.914,-48"/>
<polygon fill="midnightblue" stroke="midnightblue" points="66.1537,-44.5001 56.1537,-48 66.1536,-51.5001 66.1537,-44.5001"/>
</g>
<!-- Node4 -->
<g id="node7" class="node"><title>Node4</title>
<a xlink:href="_static_trajectory_8h.html#aa7d2b8af0fe7e8bf25dab47d2494c807" target="_top" xlink:title="PStaticTrajectory">
<polygon fill="white" stroke="black" points="95,-0.5 95,-19.5 187,-19.5 187,-0.5 95,-0.5"/>
<text text-anchor="middle" x="141" y="-7.5" font-family="Helvetica,sans-Serif" font-size="10.00">PStaticTrajectory</text>
</a>
</g>
<!-- Node1&#45;&gt;Node4 -->
<g id="edge6" class="edge"><title>Node1&#45;&gt;Node4</title>
<path fill="none" stroke="midnightblue" d="M65.6994,-35.4362C80.7684,-30.2775 97.9344,-24.4008 111.968,-19.5967"/>
<polygon fill="midnightblue" stroke="midnightblue" points="64.481,-32.1539 56.1537,-38.7042 66.7482,-38.7765 64.481,-32.1539"/>
</g>
</g>
</svg>
