<?xml version="1.0" encoding="UTF-8" standalone="no"?>
<!DOCTYPE svg PUBLIC "-//W3C//DTD SVG 1.1//EN"
 "http://www.w3.org/Graphics/SVG/1.1/DTD/svg11.dtd">
<!-- Generated by graphviz version 2.28.0 (20110507.0327)
 -->
<!-- Title: G Pages: 1 -->
<svg width="310pt" height="140pt"
 viewBox="0.00 0.00 310.49 140.00" xmlns="http://www.w3.org/2000/svg" xmlns:xlink="http://www.w3.org/1999/xlink">
<g id="graph1" class="graph" transform="scale(1 1) rotate(0) translate(4 136)">
<title>G</title>
<polygon fill="white" stroke="white" points="-4,5 -4,-136 307.494,-136 307.494,5 -4,5"/>
<!-- Node1 -->
<g id="node1" class="node"><title>Node1</title>
<polygon fill="#bfbfbf" stroke="black" points="126,-112.5 126,-131.5 178,-131.5 178,-112.5 126,-112.5"/>
<text text-anchor="middle" x="152" y="-119.5" font-family="Helvetica,sans-Serif" font-size="10.00">Spline.c</text>
</g>
<!-- Node2 -->
<g id="node3" class="node"><title>Node2</title>
<polygon fill="white" stroke="#bfbfbf" points="0,-0.5 0,-19.5 84,-19.5 84,-0.5 0,-0.5"/>
<text text-anchor="middle" x="42" y="-7.5" font-family="Helvetica,sans-Serif" font-size="10.00">gsl/gsl_vector.h</text>
</g>
<!-- Node1&#45;&gt;Node2 -->
<g id="edge2" class="edge"><title>Node1&#45;&gt;Node2</title>
<path fill="none" stroke="midnightblue" d="M125.904,-119.308C97.8717,-115.935 54.5855,-105.882 34,-76 24.6452,-62.4205 28.4575,-43.3653 33.5204,-29.3971"/>
<polygon fill="midnightblue" stroke="midnightblue" points="36.8672,-30.4615 37.4384,-19.882 30.3944,-27.7962 36.8672,-30.4615"/>
</g>
<!-- Node3 -->
<g id="node5" class="node"><title>Node3</title>
<polygon fill="white" stroke="#bfbfbf" points="201,-0.5 201,-19.5 287,-19.5 287,-0.5 201,-0.5"/>
<text text-anchor="middle" x="244" y="-7.5" font-family="Helvetica,sans-Serif" font-size="10.00">gsl/gsl_matrix.h</text>
</g>
<!-- Node1&#45;&gt;Node3 -->
<g id="edge4" class="edge"><title>Node1&#45;&gt;Node3</title>
<path fill="none" stroke="midnightblue" d="M178.03,-121.559C211.997,-120.702 270.354,-113.451 298,-76 311.51,-57.6985 288.845,-37.7215 268.869,-24.8125"/>
<polygon fill="midnightblue" stroke="midnightblue" points="270.661,-21.8057 260.304,-19.5743 267.009,-27.7775 270.661,-21.8057"/>
</g>
<!-- Node4 -->
<g id="node7" class="node"><title>Node4</title>
<polygon fill="white" stroke="#bfbfbf" points="113.5,-56.5 113.5,-75.5 190.5,-75.5 190.5,-56.5 113.5,-56.5"/>
<text text-anchor="middle" x="152" y="-63.5" font-family="Helvetica,sans-Serif" font-size="10.00">gsl/gsl_blas.h</text>
</g>
<!-- Node1&#45;&gt;Node4 -->
<g id="edge6" class="edge"><title>Node1&#45;&gt;Node4</title>
<path fill="none" stroke="midnightblue" d="M152,-112.083C152,-105.006 152,-94.8611 152,-85.9865"/>
<polygon fill="midnightblue" stroke="midnightblue" points="155.5,-85.751 152,-75.7511 148.5,-85.7511 155.5,-85.751"/>
</g>
<!-- Node5 -->
<g id="node9" class="node"><title>Node5</title>
<polygon fill="white" stroke="#bfbfbf" points="209,-56.5 209,-75.5 289,-75.5 289,-56.5 209,-56.5"/>
<text text-anchor="middle" x="249" y="-63.5" font-family="Helvetica,sans-Serif" font-size="10.00">gsl/gsl_math.h</text>
</g>
<!-- Node1&#45;&gt;Node5 -->
<g id="edge8" class="edge"><title>Node1&#45;&gt;Node5</title>
<path fill="none" stroke="midnightblue" d="M167.585,-112.324C182.999,-103.743 206.812,-90.486 224.71,-80.5224"/>
<polygon fill="midnightblue" stroke="midnightblue" points="226.419,-83.5767 233.454,-75.6545 223.014,-77.4606 226.419,-83.5767"/>
</g>
<!-- Node6 -->
<g id="node11" class="node"><title>Node6</title>
<a xlink:href="_spline_8h.html" target="_top" xlink:title="Spline.h">
<polygon fill="white" stroke="black" points="43,-56.5 43,-75.5 95,-75.5 95,-56.5 43,-56.5"/>
<text text-anchor="middle" x="69" y="-63.5" font-family="Helvetica,sans-Serif" font-size="10.00">Spline.h</text>
</a>
</g>
<!-- Node1&#45;&gt;Node6 -->
<g id="edge10" class="edge"><title>Node1&#45;&gt;Node6</title>
<path fill="none" stroke="midnightblue" d="M138.665,-112.324C125.838,-103.979 106.215,-91.2122 91.0602,-81.3524"/>
<polygon fill="midnightblue" stroke="midnightblue" points="92.5932,-78.1742 82.3023,-75.6545 88.7757,-84.0417 92.5932,-78.1742"/>
</g>
<!-- Node6&#45;&gt;Node2 -->
<g id="edge12" class="edge"><title>Node6&#45;&gt;Node2</title>
<path fill="none" stroke="midnightblue" d="M64.5415,-56.083C60.8457,-48.6913 55.4766,-37.9533 50.9055,-28.8111"/>
<polygon fill="midnightblue" stroke="midnightblue" points="53.9782,-27.1301 46.3755,-19.7511 47.7172,-30.2606 53.9782,-27.1301"/>
</g>
<!-- Node6&#45;&gt;Node3 -->
<g id="edge14" class="edge"><title>Node6&#45;&gt;Node3</title>
<path fill="none" stroke="midnightblue" d="M95.1993,-56.9157C124.665,-47.8233 172.77,-32.9795 206.279,-22.6395"/>
<polygon fill="midnightblue" stroke="midnightblue" points="207.65,-25.8795 216.173,-19.5865 205.586,-19.1907 207.65,-25.8795"/>
</g>
</g>
</svg>
