<?xml version="1.0" encoding="UTF-8" standalone="no"?>
<!DOCTYPE svg PUBLIC "-//W3C//DTD SVG 1.1//EN"
 "http://www.w3.org/Graphics/SVG/1.1/DTD/svg11.dtd">
<!-- Generated by graphviz version 2.28.0 (20110507.0327)
 -->
<!-- Title: G Pages: 1 -->
<!--zoomable-->
<svg id="main" version="1.1" xmlns="http://www.w3.org/2000/svg" xmlns:xlink="http://www.w3.org/1999/xlink" xml:space="preserve" onload="init(evt)">
        <defs>
                <circle id="rim" cx="0" cy="0" r="7"/>
                <circle id="rim2" cx="0" cy="0" r="3.5"/>
                <g id="zoomPlus">
                        <use xlink:href="#rim" fill="#404040">
                                <set attributeName="fill" to="#808080" begin="zoomplus.mouseover" end="zoomplus.mouseout"/>
                        </use>
                        <path d="M-4,0h8M0,-4v8" fill="none" stroke="white" stroke-width="1.5" pointer-events="none"/>
                </g>
                <g id="zoomMin">
                        <use xlink:href="#rim" fill="#404040">
                                <set attributeName="fill" to="#808080" begin="zoomminus.mouseover" end="zoomminus.mouseout"/>
                        </use>
                        <path d="M-4,0h8" fill="none" stroke="white" stroke-width="1.5" pointer-events="none"/>
                </g>
                <g id="dirArrow">
                        <path fill="none" stroke="white" stroke-width="1.5" d="M0,-3.0v7 M-2.5,-0.5L0,-3.0L2.5,-0.5"/>
                </g>
               <g id="resetDef">
                       <use xlink:href="#rim2" fill="#404040">
                               <set attributeName="fill" to="#808080" begin="reset.mouseover" end="reset.mouseout"/>
                       </use>
               </g>
        </defs>

<script type="text/javascript">
var viewWidth = 580;
var viewHeight = 140;
var sectionId = 'dynsection-0';
</script>
<script xlink:href="svgpan.js"/>
<svg id="graph" class="graph">
<g id="viewport">
<title>G</title>
<polygon fill="white" stroke="white" points="-4,5 -4,-136 576.827,-136 576.827,5 -4,5"/>
<!-- Node1 -->
<g id="node1" class="node"><title>Node1</title>
<polygon fill="#bfbfbf" stroke="black" points="198.827,-112.5 198.827,-131.5 272.827,-131.5 272.827,-112.5 198.827,-112.5"/>
<text text-anchor="middle" x="235.827" y="-119.5" font-family="Helvetica,sans-Serif" font-size="10.00">Stabilizator.c</text>
</g>
<!-- Node2 -->
<g id="node3" class="node"><title>Node2</title>
<polygon fill="white" stroke="#bfbfbf" points="12.8272,-0.5 12.8272,-19.5 96.8272,-19.5 96.8272,-0.5 12.8272,-0.5"/>
<text text-anchor="middle" x="54.8272" y="-7.5" font-family="Helvetica,sans-Serif" font-size="10.00">gsl/gsl_vector.h</text>
</g>
<!-- Node1&#45;&gt;Node2 -->
<g id="edge2" class="edge"><title>Node1&#45;&gt;Node2</title>
<path fill="none" stroke="midnightblue" d="M198.402,-119.295C139.389,-115.736 28.9259,-105.246 4.82718,-76 -9.30509,-58.849 12.3859,-38.4474 31.4685,-25.1357"/>
<polygon fill="midnightblue" stroke="midnightblue" points="33.5004,-27.9882 39.9146,-19.5555 29.6417,-22.1477 33.5004,-27.9882"/>
</g>
<!-- Node3 -->
<g id="node5" class="node"><title>Node3</title>
<polygon fill="white" stroke="#bfbfbf" points="144.827,-0.5 144.827,-19.5 230.827,-19.5 230.827,-0.5 144.827,-0.5"/>
<text text-anchor="middle" x="187.827" y="-7.5" font-family="Helvetica,sans-Serif" font-size="10.00">gsl/gsl_matrix.h</text>
</g>
<!-- Node1&#45;&gt;Node3 -->
<g id="edge4" class="edge"><title>Node1&#45;&gt;Node3</title>
<path fill="none" stroke="midnightblue" d="M241.292,-112.11C248.509,-99.1261 259.265,-74.5113 249.827,-56 242.827,-42.2698 229.461,-31.7496 216.927,-24.3465"/>
<polygon fill="midnightblue" stroke="midnightblue" points="218.505,-21.2204 208.05,-19.5055 215.153,-27.366 218.505,-21.2204"/>
</g>
<!-- Node4 -->
<g id="node7" class="node"><title>Node4</title>
<polygon fill="white" stroke="#bfbfbf" points="297.327,-56.5 297.327,-75.5 374.327,-75.5 374.327,-56.5 297.327,-56.5"/>
<text text-anchor="middle" x="335.827" y="-63.5" font-family="Helvetica,sans-Serif" font-size="10.00">gsl/gsl_blas.h</text>
</g>
<!-- Node1&#45;&gt;Node4 -->
<g id="edge6" class="edge"><title>Node1&#45;&gt;Node4</title>
<path fill="none" stroke="midnightblue" d="M251.894,-112.324C267.785,-103.743 292.335,-90.486 310.786,-80.5224"/>
<polygon fill="midnightblue" stroke="midnightblue" points="312.664,-83.4857 319.8,-75.6545 309.338,-77.3264 312.664,-83.4857"/>
</g>
<!-- Node5 -->
<g id="node9" class="node"><title>Node5</title>
<polygon fill="white" stroke="#bfbfbf" points="392.327,-56.5 392.327,-75.5 473.327,-75.5 473.327,-56.5 392.327,-56.5"/>
<text text-anchor="middle" x="432.827" y="-63.5" font-family="Helvetica,sans-Serif" font-size="10.00">gsl/gsl_linalg.h</text>
</g>
<!-- Node1&#45;&gt;Node5 -->
<g id="edge8" class="edge"><title>Node1&#45;&gt;Node5</title>
<path fill="none" stroke="midnightblue" d="M267.042,-112.444C300.76,-103.201 354.627,-88.4356 391.759,-78.2572"/>
<polygon fill="midnightblue" stroke="midnightblue" points="393.039,-81.5356 401.758,-75.5164 391.188,-74.7846 393.039,-81.5356"/>
</g>
<!-- Node6 -->
<g id="node11" class="node"><title>Node6</title>
<polygon fill="white" stroke="#bfbfbf" points="491.827,-56.5 491.827,-75.5 571.827,-75.5 571.827,-56.5 491.827,-56.5"/>
<text text-anchor="middle" x="531.827" y="-63.5" font-family="Helvetica,sans-Serif" font-size="10.00">gsl/gsl_math.h</text>
</g>
<!-- Node1&#45;&gt;Node6 -->
<g id="edge10" class="edge"><title>Node1&#45;&gt;Node6</title>
<path fill="none" stroke="midnightblue" d="M273.016,-114.216C325.857,-104.576 422.794,-86.8911 481.864,-76.1149"/>
<polygon fill="midnightblue" stroke="midnightblue" points="482.51,-79.5549 491.72,-74.3169 481.254,-72.6685 482.51,-79.5549"/>
</g>
<!-- Node7 -->
<g id="node13" class="node"><title>Node7</title>
<a xlink:href="u_link_8h.html" target="_top" xlink:title="Link initialisation and declarations.">
<polygon fill="white" stroke="black" points="14.3272,-56.5 14.3272,-75.5 65.3272,-75.5 65.3272,-56.5 14.3272,-56.5"/>
<text text-anchor="middle" x="39.8272" y="-63.5" font-family="Helvetica,sans-Serif" font-size="10.00">uLINK.h</text>
</a>
</g>
<!-- Node1&#45;&gt;Node7 -->
<g id="edge12" class="edge"><title>Node1&#45;&gt;Node7</title>
<path fill="none" stroke="midnightblue" d="M204.77,-112.444C169.546,-102.739 112.221,-86.9452 75.2746,-76.7661"/>
<polygon fill="midnightblue" stroke="midnightblue" points="76,-73.3356 65.4295,-74.0537 74.1407,-80.0842 76,-73.3356"/>
</g>
<!-- Node8 -->
<g id="node17" class="node"><title>Node8</title>
<a xlink:href="_calc_co_m_8h.html" target="_top" xlink:title="CalcCoM.h">
<polygon fill="white" stroke="black" points="83.3272,-56.5 83.3272,-75.5 148.327,-75.5 148.327,-56.5 83.3272,-56.5"/>
<text text-anchor="middle" x="115.827" y="-63.5" font-family="Helvetica,sans-Serif" font-size="10.00">CalcCoM.h</text>
</a>
</g>
<!-- Node1&#45;&gt;Node8 -->
<g id="edge18" class="edge"><title>Node1&#45;&gt;Node8</title>
<path fill="none" stroke="midnightblue" d="M216.813,-112.444C197.24,-103.636 166.52,-89.8116 144.098,-79.722"/>
<polygon fill="midnightblue" stroke="midnightblue" points="145.308,-76.4284 134.753,-75.5164 142.436,-82.8119 145.308,-76.4284"/>
</g>
<!-- Node9 -->
<g id="node21" class="node"><title>Node9</title>
<a xlink:href="_stabilizator_8h.html" target="_top" xlink:title="Stabilizator.h">
<polygon fill="white" stroke="black" points="166.827,-56.5 166.827,-75.5 240.827,-75.5 240.827,-56.5 166.827,-56.5"/>
<text text-anchor="middle" x="203.827" y="-63.5" font-family="Helvetica,sans-Serif" font-size="10.00">Stabilizator.h</text>
</a>
</g>
<!-- Node1&#45;&gt;Node9 -->
<g id="edge24" class="edge"><title>Node1&#45;&gt;Node9</title>
<path fill="none" stroke="midnightblue" d="M230.543,-112.083C226.116,-104.613 219.664,-93.7244 214.209,-84.5199"/>
<polygon fill="midnightblue" stroke="midnightblue" points="217.122,-82.5697 209.013,-75.7511 211.1,-86.1383 217.122,-82.5697"/>
</g>
<!-- Node7&#45;&gt;Node2 -->
<g id="edge14" class="edge"><title>Node7&#45;&gt;Node2</title>
<path fill="none" stroke="midnightblue" d="M42.3041,-56.083C44.3137,-48.8486 47.2137,-38.4087 49.717,-29.3968"/>
<polygon fill="midnightblue" stroke="midnightblue" points="53.0921,-30.323 52.3963,-19.7511 46.3475,-28.4495 53.0921,-30.323"/>
</g>
<!-- Node7&#45;&gt;Node3 -->
<g id="edge16" class="edge"><title>Node7&#45;&gt;Node3</title>
<path fill="none" stroke="midnightblue" d="M63.2782,-56.4435C87.9598,-47.4381 127.013,-33.1891 154.804,-23.049"/>
<polygon fill="midnightblue" stroke="midnightblue" points="156.291,-26.2321 164.486,-19.5164 153.892,-19.6561 156.291,-26.2321"/>
</g>
<!-- Node8&#45;&gt;Node2 -->
<g id="edge20" class="edge"><title>Node8&#45;&gt;Node2</title>
<path fill="none" stroke="midnightblue" d="M106.026,-56.324C97.0091,-48.3414 83.4212,-36.3128 72.5091,-26.6529"/>
<polygon fill="midnightblue" stroke="midnightblue" points="74.6138,-23.8416 64.8062,-19.8339 69.9739,-29.083 74.6138,-23.8416"/>
</g>
<!-- Node8&#45;&gt;Node3 -->
<g id="edge22" class="edge"><title>Node8&#45;&gt;Node3</title>
<path fill="none" stroke="midnightblue" d="M127.395,-56.324C138.247,-48.1849 154.708,-35.8395 167.711,-26.0874"/>
<polygon fill="midnightblue" stroke="midnightblue" points="170.149,-28.6339 176.049,-19.8339 165.949,-23.0339 170.149,-28.6339"/>
</g>
<!-- Node9&#45;&gt;Node2 -->
<g id="edge26" class="edge"><title>Node9&#45;&gt;Node2</title>
<path fill="none" stroke="midnightblue" d="M180.218,-56.4435C155.369,-47.4381 116.053,-33.1891 88.0736,-23.049"/>
<polygon fill="midnightblue" stroke="midnightblue" points="88.9204,-19.6332 78.3262,-19.5164 86.5353,-26.2144 88.9204,-19.6332"/>
</g>
<!-- Node9&#45;&gt;Node3 -->
<g id="edge28" class="edge"><title>Node9&#45;&gt;Node3</title>
<path fill="none" stroke="midnightblue" d="M201.185,-56.083C199.042,-48.8486 195.948,-38.4087 193.278,-29.3968"/>
<polygon fill="midnightblue" stroke="midnightblue" points="196.617,-28.3447 190.42,-19.7511 189.905,-30.3334 196.617,-28.3447"/>
</g>
</g>
</svg>
        <g id="navigator" transform="translate(0 0)" fill="#404254">
                <rect fill="#f2f5e9" fill-opacity="0.5" stroke="#606060" stroke-width=".5" x="0" y="0" width="60" height="60"/>
                <use id="zoomplus" xlink:href="#zoomPlus" x="17" y="9" onmousedown="handleZoom(evt,'in')"/>
                <use id="zoomminus" xlink:href="#zoomMin" x="42" y="9" onmousedown="handleZoom(evt,'out')"/>
                <use id="reset" xlink:href="#resetDef" x="30" y="36" onmousedown="handleReset()"/>
                <g id="arrowUp" xlink:href="#dirArrow" transform="translate(30 24)" onmousedown="handlePan(0,-1)">
                  <use xlink:href="#rim" fill="#404040">
                        <set attributeName="fill" to="#808080" begin="arrowUp.mouseover" end="arrowUp.mouseout"/>
                  </use>
                  <path fill="none" stroke="white" stroke-width="1.5" d="M0,-3.0v7 M-2.5,-0.5L0,-3.0L2.5,-0.5"/>
                </g>
                <g id="arrowRight" xlink:href="#dirArrow" transform="rotate(90) translate(36 -43)" onmousedown="handlePan(1,0)">
                  <use xlink:href="#rim" fill="#404040">
                        <set attributeName="fill" to="#808080" begin="arrowRight.mouseover" end="arrowRight.mouseout"/>
                  </use>
                  <path fill="none" stroke="white" stroke-width="1.5" d="M0,-3.0v7 M-2.5,-0.5L0,-3.0L2.5,-0.5"/>
                </g>
                <g id="arrowDown" xlink:href="#dirArrow" transform="rotate(180) translate(-30 -48)" onmousedown="handlePan(0,1)">
                  <use xlink:href="#rim" fill="#404040">
                        <set attributeName="fill" to="#808080" begin="arrowDown.mouseover" end="arrowDown.mouseout"/>
                  </use>
                  <path fill="none" stroke="white" stroke-width="1.5" d="M0,-3.0v7 M-2.5,-0.5L0,-3.0L2.5,-0.5"/>
                </g>
                <g id="arrowLeft" xlink:href="#dirArrow" transform="rotate(270) translate(-36 17)" onmousedown="handlePan(-1,0)">
                  <use xlink:href="#rim" fill="#404040">
                        <set attributeName="fill" to="#808080" begin="arrowLeft.mouseover" end="arrowLeft.mouseout"/>
                  </use>
                  <path fill="none" stroke="white" stroke-width="1.5" d="M0,-3.0v7 M-2.5,-0.5L0,-3.0L2.5,-0.5"/>
                </g>
        </g>
</svg>
