<?xml version="1.0" encoding="UTF-8" standalone="no"?>
<!DOCTYPE svg PUBLIC "-//W3C//DTD SVG 1.1//EN"
 "http://www.w3.org/Graphics/SVG/1.1/DTD/svg11.dtd">
<!-- Generated by graphviz version 2.28.0 (20110507.0327)
 -->
<!-- Title: G Pages: 1 -->
<svg width="203pt" height="84pt"
 viewBox="0.00 0.00 203.00 84.00" xmlns="http://www.w3.org/2000/svg" xmlns:xlink="http://www.w3.org/1999/xlink">
<g id="graph1" class="graph" transform="scale(1 1) rotate(0) translate(4 80)">
<title>G</title>
<polygon fill="white" stroke="white" points="-4,5 -4,-80 200,-80 200,5 -4,5"/>
<!-- Node1 -->
<g id="node1" class="node"><title>Node1</title>
<polygon fill="#bfbfbf" stroke="black" points="67,-56.5 67,-75.5 141,-75.5 141,-56.5 67,-56.5"/>
<text text-anchor="middle" x="104" y="-63.5" font-family="Helvetica,sans-Serif" font-size="10.00">Stabilizator.h</text>
</g>
<!-- Node2 -->
<g id="node3" class="node"><title>Node2</title>
<a xlink:href="_forward_dynamics_8c.html" target="_top" xlink:title="ForwardDynamics.c">
<polygon fill="white" stroke="black" points="-0.5,-0.5 -0.5,-19.5 102.5,-19.5 102.5,-0.5 -0.5,-0.5"/>
<text text-anchor="middle" x="51" y="-7.5" font-family="Helvetica,sans-Serif" font-size="10.00">ForwardDynamics.c</text>
</a>
</g>
<!-- Node1&#45;&gt;Node2 -->
<g id="edge2" class="edge"><title>Node1&#45;&gt;Node2</title>
<path fill="none" stroke="midnightblue" d="M88.0191,-48.7175C78.6775,-39.1997 67.2541,-27.5608 59.589,-19.7511"/>
<polygon fill="midnightblue" stroke="midnightblue" points="85.7455,-51.3978 95.2481,-56.083 90.7413,-46.4945 85.7455,-51.3978"/>
</g>
<!-- Node3 -->
<g id="node5" class="node"><title>Node3</title>
<a xlink:href="_stabilizator_8c.html" target="_top" xlink:title="Stabilizator.c">
<polygon fill="white" stroke="black" points="121,-0.5 121,-19.5 195,-19.5 195,-0.5 121,-0.5"/>
<text text-anchor="middle" x="158" y="-7.5" font-family="Helvetica,sans-Serif" font-size="10.00">Stabilizator.c</text>
</a>
</g>
<!-- Node1&#45;&gt;Node3 -->
<g id="edge4" class="edge"><title>Node1&#45;&gt;Node3</title>
<path fill="none" stroke="midnightblue" d="M119.998,-49.0024C129.567,-39.4329 141.361,-27.6389 149.249,-19.7511"/>
<polygon fill="midnightblue" stroke="midnightblue" points="117.513,-46.537 112.917,-56.083 122.463,-51.4868 117.513,-46.537"/>
</g>
</g>
</svg>
