<?xml version="1.0" encoding="UTF-8" standalone="no"?>
<!DOCTYPE svg PUBLIC "-//W3C//DTD SVG 1.1//EN"
 "http://www.w3.org/Graphics/SVG/1.1/DTD/svg11.dtd">
<!-- Generated by graphviz version 2.28.0 (20110507.0327)
 -->
<!-- Title: G Pages: 1 -->
<!--zoomable-->
<svg id="main" version="1.1" xmlns="http://www.w3.org/2000/svg" xmlns:xlink="http://www.w3.org/1999/xlink" xml:space="preserve" onload="init(evt)">
        <defs>
                <circle id="rim" cx="0" cy="0" r="7"/>
                <circle id="rim2" cx="0" cy="0" r="3.5"/>
                <g id="zoomPlus">
                        <use xlink:href="#rim" fill="#404040">
                                <set attributeName="fill" to="#808080" begin="zoomplus.mouseover" end="zoomplus.mouseout"/>
                        </use>
                        <path d="M-4,0h8M0,-4v8" fill="none" stroke="white" stroke-width="1.5" pointer-events="none"/>
                </g>
                <g id="zoomMin">
                        <use xlink:href="#rim" fill="#404040">
                                <set attributeName="fill" to="#808080" begin="zoomminus.mouseover" end="zoomminus.mouseout"/>
                        </use>
                        <path d="M-4,0h8" fill="none" stroke="white" stroke-width="1.5" pointer-events="none"/>
                </g>
                <g id="dirArrow">
                        <path fill="none" stroke="white" stroke-width="1.5" d="M0,-3.0v7 M-2.5,-0.5L0,-3.0L2.5,-0.5"/>
                </g>
               <g id="resetDef">
                       <use xlink:href="#rim2" fill="#404040">
                               <set attributeName="fill" to="#808080" begin="reset.mouseover" end="reset.mouseout"/>
                       </use>
               </g>
        </defs>

<script type="text/javascript">
var viewWidth = 726;
var viewHeight = 140;
var sectionId = 'dynsection-0';
</script>
<script xlink:href="svgpan.js"/>
<svg id="graph" class="graph">
<g id="viewport">
<title>G</title>
<polygon fill="white" stroke="white" points="-4,5 -4,-136 722.896,-136 722.896,5 -4,5"/>
<!-- Node1 -->
<g id="node1" class="node"><title>Node1</title>
<polygon fill="#bfbfbf" stroke="black" points="288.396,-112.5 288.396,-131.5 381.396,-131.5 381.396,-112.5 288.396,-112.5"/>
<text text-anchor="middle" x="334.896" y="-119.5" font-family="Helvetica,sans-Serif" font-size="10.00">StaticTrajectory.c</text>
</g>
<!-- Node2 -->
<g id="node3" class="node"><title>Node2</title>
<polygon fill="white" stroke="#bfbfbf" points="115.896,-0.5 115.896,-19.5 199.896,-19.5 199.896,-0.5 115.896,-0.5"/>
<text text-anchor="middle" x="157.896" y="-7.5" font-family="Helvetica,sans-Serif" font-size="10.00">gsl/gsl_vector.h</text>
</g>
<!-- Node1&#45;&gt;Node2 -->
<g id="edge2" class="edge"><title>Node1&#45;&gt;Node2</title>
<path fill="none" stroke="midnightblue" d="M288.354,-121.751C206.897,-121.96 43.7186,-117.09 7.89636,-76 -23.4445,-40.0508 50.9907,-23.2896 105.841,-16.0156"/>
<polygon fill="midnightblue" stroke="midnightblue" points="106.337,-19.4809 115.825,-14.7653 105.467,-12.5351 106.337,-19.4809"/>
</g>
<!-- Node3 -->
<g id="node5" class="node"><title>Node3</title>
<polygon fill="white" stroke="#bfbfbf" points="266.896,-0.5 266.896,-19.5 352.896,-19.5 352.896,-0.5 266.896,-0.5"/>
<text text-anchor="middle" x="309.896" y="-7.5" font-family="Helvetica,sans-Serif" font-size="10.00">gsl/gsl_matrix.h</text>
</g>
<!-- Node1&#45;&gt;Node3 -->
<g id="edge4" class="edge"><title>Node1&#45;&gt;Node3</title>
<path fill="none" stroke="midnightblue" d="M381.761,-117.973C439.493,-112.44 526.211,-97.1698 493.896,-56 477.878,-35.5923 411.713,-23.2467 363.298,-16.7774"/>
<polygon fill="midnightblue" stroke="midnightblue" points="363.625,-13.2908 353.26,-15.4854 362.732,-20.2335 363.625,-13.2908"/>
</g>
<!-- Node4 -->
<g id="node7" class="node"><title>Node4</title>
<polygon fill="white" stroke="#bfbfbf" points="542.396,-56.5 542.396,-75.5 619.396,-75.5 619.396,-56.5 542.396,-56.5"/>
<text text-anchor="middle" x="580.896" y="-63.5" font-family="Helvetica,sans-Serif" font-size="10.00">gsl/gsl_blas.h</text>
</g>
<!-- Node1&#45;&gt;Node4 -->
<g id="edge6" class="edge"><title>Node1&#45;&gt;Node4</title>
<path fill="none" stroke="midnightblue" d="M373.876,-112.444C416.79,-103.023 485.842,-87.8656 532.265,-77.6752"/>
<polygon fill="midnightblue" stroke="midnightblue" points="533.082,-81.0792 542.099,-75.5164 531.581,-74.242 533.082,-81.0792"/>
</g>
<!-- Node5 -->
<g id="node9" class="node"><title>Node5</title>
<polygon fill="white" stroke="#bfbfbf" points="637.896,-56.5 637.896,-75.5 717.896,-75.5 717.896,-56.5 637.896,-56.5"/>
<text text-anchor="middle" x="677.896" y="-63.5" font-family="Helvetica,sans-Serif" font-size="10.00">gsl/gsl_math.h</text>
</g>
<!-- Node1&#45;&gt;Node5 -->
<g id="edge8" class="edge"><title>Node1&#45;&gt;Node5</title>
<path fill="none" stroke="midnightblue" d="M381.642,-114.199C439.521,-105.691 541.091,-90.476 627.896,-76 627.997,-75.9832 628.098,-75.9664 628.198,-75.9496"/>
<polygon fill="midnightblue" stroke="midnightblue" points="628.526,-79.4443 637.795,-74.3118 627.349,-72.5441 628.526,-79.4443"/>
</g>
<!-- Node6 -->
<g id="node11" class="node"><title>Node6</title>
<a xlink:href="u_link_8h.html" target="_top" xlink:title="Link initialisation and declarations.">
<polygon fill="white" stroke="black" points="198.396,-56.5 198.396,-75.5 249.396,-75.5 249.396,-56.5 198.396,-56.5"/>
<text text-anchor="middle" x="223.896" y="-63.5" font-family="Helvetica,sans-Serif" font-size="10.00">uLINK.h</text>
</a>
</g>
<!-- Node1&#45;&gt;Node6 -->
<g id="edge10" class="edge"><title>Node1&#45;&gt;Node6</title>
<path fill="none" stroke="midnightblue" d="M317.062,-112.324C299.18,-103.625 271.421,-90.1202 250.851,-80.113"/>
<polygon fill="midnightblue" stroke="midnightblue" points="252.21,-76.8819 241.686,-75.6545 249.147,-83.1765 252.21,-76.8819"/>
</g>
<!-- Node7 -->
<g id="node15" class="node"><title>Node7</title>
<a xlink:href="_inverse_sherpa_kinematics_8h.html" target="_top" xlink:title="Inverse kinematics computations for Sherpa robot.">
<polygon fill="white" stroke="black" points="267.896,-56.5 267.896,-75.5 401.896,-75.5 401.896,-56.5 267.896,-56.5"/>
<text text-anchor="middle" x="334.896" y="-63.5" font-family="Helvetica,sans-Serif" font-size="10.00">InverseSherpaKinematics.h</text>
</a>
</g>
<!-- Node1&#45;&gt;Node7 -->
<g id="edge16" class="edge"><title>Node1&#45;&gt;Node7</title>
<path fill="none" stroke="midnightblue" d="M334.896,-112.083C334.896,-105.006 334.896,-94.8611 334.896,-85.9865"/>
<polygon fill="midnightblue" stroke="midnightblue" points="338.396,-85.751 334.896,-75.7511 331.396,-85.7511 338.396,-85.751"/>
</g>
<!-- Node8 -->
<g id="node19" class="node"><title>Node8</title>
<a xlink:href="_calc_co_m_8h.html" target="_top" xlink:title="CalcCoM.h">
<polygon fill="white" stroke="black" points="420.396,-56.5 420.396,-75.5 485.396,-75.5 485.396,-56.5 420.396,-56.5"/>
<text text-anchor="middle" x="452.896" y="-63.5" font-family="Helvetica,sans-Serif" font-size="10.00">CalcCoM.h</text>
</a>
</g>
<!-- Node1&#45;&gt;Node8 -->
<g id="edge22" class="edge"><title>Node1&#45;&gt;Node8</title>
<path fill="none" stroke="midnightblue" d="M353.594,-112.444C372.841,-103.636 403.049,-89.8116 425.096,-79.722"/>
<polygon fill="midnightblue" stroke="midnightblue" points="426.65,-82.8603 434.286,-75.5164 423.737,-76.4951 426.65,-82.8603"/>
</g>
<!-- Node9 -->
<g id="node23" class="node"><title>Node9</title>
<a xlink:href="_spline_8h.html" target="_top" xlink:title="Spline.h">
<polygon fill="white" stroke="black" points="16.8964,-56.5 16.8964,-75.5 68.8964,-75.5 68.8964,-56.5 16.8964,-56.5"/>
<text text-anchor="middle" x="42.8964" y="-63.5" font-family="Helvetica,sans-Serif" font-size="10.00">Spline.h</text>
</a>
</g>
<!-- Node1&#45;&gt;Node9 -->
<g id="edge28" class="edge"><title>Node1&#45;&gt;Node9</title>
<path fill="none" stroke="midnightblue" d="M288.256,-113.96C238.718,-106.232 157.923,-92.9135 79.2918,-76.1707"/>
<polygon fill="midnightblue" stroke="midnightblue" points="79.7295,-72.6849 69.2171,-74.0038 78.2576,-79.5284 79.7295,-72.6849"/>
</g>
<!-- Node10 -->
<g id="node27" class="node"><title>Node10</title>
<a xlink:href="_static_trajectory_8h.html" target="_top" xlink:title="StaticTrajectory.h">
<polygon fill="white" stroke="black" points="87.3964,-56.5 87.3964,-75.5 180.396,-75.5 180.396,-56.5 87.3964,-56.5"/>
<text text-anchor="middle" x="133.896" y="-63.5" font-family="Helvetica,sans-Serif" font-size="10.00">StaticTrajectory.h</text>
</a>
</g>
<!-- Node1&#45;&gt;Node10 -->
<g id="edge34" class="edge"><title>Node1&#45;&gt;Node10</title>
<path fill="none" stroke="midnightblue" d="M303.047,-112.444C268.498,-103.162 213.214,-88.3093 175.313,-78.127"/>
<polygon fill="midnightblue" stroke="midnightblue" points="176.162,-74.7309 165.596,-75.5164 174.346,-81.4912 176.162,-74.7309"/>
</g>
<!-- Node6&#45;&gt;Node2 -->
<g id="edge12" class="edge"><title>Node6&#45;&gt;Node2</title>
<path fill="none" stroke="midnightblue" d="M213.292,-56.324C203.44,-48.2631 188.545,-36.0765 176.681,-26.3695"/>
<polygon fill="midnightblue" stroke="midnightblue" points="178.649,-23.4575 168.693,-19.8339 174.217,-28.8752 178.649,-23.4575"/>
</g>
<!-- Node6&#45;&gt;Node3 -->
<g id="edge14" class="edge"><title>Node6&#45;&gt;Node3</title>
<path fill="none" stroke="midnightblue" d="M237.714,-56.324C251.129,-47.9002 271.72,-34.9709 287.482,-25.0741"/>
<polygon fill="midnightblue" stroke="midnightblue" points="289.506,-27.9364 296.113,-19.6545 285.783,-22.0081 289.506,-27.9364"/>
</g>
<!-- Node7&#45;&gt;Node2 -->
<g id="edge18" class="edge"><title>Node7&#45;&gt;Node2</title>
<path fill="none" stroke="midnightblue" d="M306.85,-56.4435C276.814,-47.2801 228.983,-32.6876 195.654,-22.5192"/>
<polygon fill="midnightblue" stroke="midnightblue" points="196.397,-19.0869 185.811,-19.5164 194.355,-25.7822 196.397,-19.0869"/>
</g>
<!-- Node7&#45;&gt;Node3 -->
<g id="edge20" class="edge"><title>Node7&#45;&gt;Node3</title>
<path fill="none" stroke="midnightblue" d="M330.768,-56.083C327.382,-48.77 322.48,-38.1814 318.278,-29.1034"/>
<polygon fill="midnightblue" stroke="midnightblue" points="321.325,-27.3553 313.948,-19.7511 314.973,-30.2962 321.325,-27.3553"/>
</g>
<!-- Node8&#45;&gt;Node2 -->
<g id="edge24" class="edge"><title>Node8&#45;&gt;Node2</title>
<path fill="none" stroke="midnightblue" d="M420.36,-57.9102C417.165,-57.2495 413.97,-56.6025 410.896,-56 341.677,-42.4321 261.455,-28.4587 210.223,-19.7561"/>
<polygon fill="midnightblue" stroke="midnightblue" points="210.504,-16.2539 200.06,-18.0343 209.335,-23.1556 210.504,-16.2539"/>
</g>
<!-- Node8&#45;&gt;Node3 -->
<g id="edge26" class="edge"><title>Node8&#45;&gt;Node3</title>
<path fill="none" stroke="midnightblue" d="M430.238,-56.4435C406.494,-47.4776 368.987,-33.314 342.158,-23.1827"/>
<polygon fill="midnightblue" stroke="midnightblue" points="343.041,-19.7749 332.449,-19.5164 340.568,-26.3235 343.041,-19.7749"/>
</g>
<!-- Node9&#45;&gt;Node2 -->
<g id="edge30" class="edge"><title>Node9&#45;&gt;Node2</title>
<path fill="none" stroke="midnightblue" d="M61.1184,-56.4435C79.792,-47.6751 109.052,-33.9355 130.514,-23.8579"/>
<polygon fill="midnightblue" stroke="midnightblue" points="132.195,-26.935 139.76,-19.5164 129.22,-20.5988 132.195,-26.935"/>
</g>
<!-- Node9&#45;&gt;Node3 -->
<g id="edge32" class="edge"><title>Node9&#45;&gt;Node3</title>
<path fill="none" stroke="midnightblue" d="M69.2286,-58.0481C72.1472,-57.3315 75.0809,-56.6344 77.8964,-56 138.864,-42.2617 209.415,-28.9405 256.561,-20.404"/>
<polygon fill="midnightblue" stroke="midnightblue" points="257.328,-23.8223 266.548,-18.6039 256.086,-16.9333 257.328,-23.8223"/>
</g>
<!-- Node10&#45;&gt;Node2 -->
<g id="edge36" class="edge"><title>Node10&#45;&gt;Node2</title>
<path fill="none" stroke="midnightblue" d="M137.859,-56.083C141.11,-48.77 145.816,-38.1814 149.85,-29.1034"/>
<polygon fill="midnightblue" stroke="midnightblue" points="153.144,-30.3107 154.007,-19.7511 146.747,-27.4677 153.144,-30.3107"/>
</g>
<!-- Node10&#45;&gt;Node3 -->
<g id="edge38" class="edge"><title>Node10&#45;&gt;Node3</title>
<path fill="none" stroke="midnightblue" d="M161.784,-56.4435C191.65,-47.2801 239.211,-32.6876 272.352,-22.5192"/>
<polygon fill="midnightblue" stroke="midnightblue" points="273.606,-25.7958 282.139,-19.5164 271.552,-19.1037 273.606,-25.7958"/>
</g>
</g>
</svg>
        <g id="navigator" transform="translate(0 0)" fill="#404254">
                <rect fill="#f2f5e9" fill-opacity="0.5" stroke="#606060" stroke-width=".5" x="0" y="0" width="60" height="60"/>
                <use id="zoomplus" xlink:href="#zoomPlus" x="17" y="9" onmousedown="handleZoom(evt,'in')"/>
                <use id="zoomminus" xlink:href="#zoomMin" x="42" y="9" onmousedown="handleZoom(evt,'out')"/>
                <use id="reset" xlink:href="#resetDef" x="30" y="36" onmousedown="handleReset()"/>
                <g id="arrowUp" xlink:href="#dirArrow" transform="translate(30 24)" onmousedown="handlePan(0,-1)">
                  <use xlink:href="#rim" fill="#404040">
                        <set attributeName="fill" to="#808080" begin="arrowUp.mouseover" end="arrowUp.mouseout"/>
                  </use>
                  <path fill="none" stroke="white" stroke-width="1.5" d="M0,-3.0v7 M-2.5,-0.5L0,-3.0L2.5,-0.5"/>
                </g>
                <g id="arrowRight" xlink:href="#dirArrow" transform="rotate(90) translate(36 -43)" onmousedown="handlePan(1,0)">
                  <use xlink:href="#rim" fill="#404040">
                        <set attributeName="fill" to="#808080" begin="arrowRight.mouseover" end="arrowRight.mouseout"/>
                  </use>
                  <path fill="none" stroke="white" stroke-width="1.5" d="M0,-3.0v7 M-2.5,-0.5L0,-3.0L2.5,-0.5"/>
                </g>
                <g id="arrowDown" xlink:href="#dirArrow" transform="rotate(180) translate(-30 -48)" onmousedown="handlePan(0,1)">
                  <use xlink:href="#rim" fill="#404040">
                        <set attributeName="fill" to="#808080" begin="arrowDown.mouseover" end="arrowDown.mouseout"/>
                  </use>
                  <path fill="none" stroke="white" stroke-width="1.5" d="M0,-3.0v7 M-2.5,-0.5L0,-3.0L2.5,-0.5"/>
                </g>
                <g id="arrowLeft" xlink:href="#dirArrow" transform="rotate(270) translate(-36 17)" onmousedown="handlePan(-1,0)">
                  <use xlink:href="#rim" fill="#404040">
                        <set attributeName="fill" to="#808080" begin="arrowLeft.mouseover" end="arrowLeft.mouseout"/>
                  </use>
                  <path fill="none" stroke="white" stroke-width="1.5" d="M0,-3.0v7 M-2.5,-0.5L0,-3.0L2.5,-0.5"/>
                </g>
        </g>
</svg>
