<?xml version="1.0" encoding="UTF-8" standalone="no"?>
<!DOCTYPE svg PUBLIC "-//W3C//DTD SVG 1.1//EN"
 "http://www.w3.org/Graphics/SVG/1.1/DTD/svg11.dtd">
<!-- Generated by graphviz version 2.28.0 (20110507.0327)
 -->
<!-- Title: G Pages: 1 -->
<svg width="264pt" height="102pt"
 viewBox="0.00 0.00 264.00 102.00" xmlns="http://www.w3.org/2000/svg" xmlns:xlink="http://www.w3.org/1999/xlink">
<g id="graph1" class="graph" transform="scale(1 1) rotate(0) translate(4 98)">
<title>G</title>
<polygon fill="white" stroke="white" points="-4,5 -4,-98 261,-98 261,5 -4,5"/>
<!-- Node1 -->
<g id="node1" class="node"><title>Node1</title>
<polygon fill="#bfbfbf" stroke="black" points="0.5,-28.5 0.5,-47.5 65.5,-47.5 65.5,-28.5 0.5,-28.5"/>
<text text-anchor="middle" x="33" y="-35.5" font-family="Helvetica,sans-Serif" font-size="10.00">Stabilizator</text>
</g>
<!-- Node2 -->
<g id="node3" class="node"><title>Node2</title>
<a xlink:href="_calc_co_m_8c.html#a02ae60f79cbcfde98d1451065cf394c7" target="_top" xlink:title="CalcCoM">
<polygon fill="white" stroke="black" points="102,-28.5 102,-47.5 158,-47.5 158,-28.5 102,-28.5"/>
<text text-anchor="middle" x="130" y="-35.5" font-family="Helvetica,sans-Serif" font-size="10.00">CalcCoM</text>
</a>
</g>
<!-- Node1&#45;&gt;Node2 -->
<g id="edge2" class="edge"><title>Node1&#45;&gt;Node2</title>
<path fill="none" stroke="midnightblue" d="M65.6336,-38C73.999,-38 83.1062,-38 91.7395,-38"/>
<polygon fill="midnightblue" stroke="midnightblue" points="91.9536,-41.5001 101.954,-38 91.9535,-34.5001 91.9536,-41.5001"/>
</g>
<!-- Node3 -->
<g id="node5" class="node"><title>Node3</title>
<a xlink:href="_total_mass_8c.html#a8b97866743257c18887a3d7adde02637" target="_top" xlink:title="TotalMass">
<polygon fill="white" stroke="black" points="194,-56.5 194,-75.5 256,-75.5 256,-56.5 194,-56.5"/>
<text text-anchor="middle" x="225" y="-63.5" font-family="Helvetica,sans-Serif" font-size="10.00">TotalMass</text>
</a>
</g>
<!-- Node2&#45;&gt;Node3 -->
<g id="edge4" class="edge"><title>Node2&#45;&gt;Node3</title>
<path fill="none" stroke="midnightblue" d="M158.4,-46.2495C166.497,-48.6873 175.53,-51.4068 184.24,-54.0292"/>
<polygon fill="midnightblue" stroke="midnightblue" points="183.285,-57.3969 193.87,-56.9285 185.303,-50.6941 183.285,-57.3969"/>
</g>
<!-- Node4 -->
<g id="node8" class="node"><title>Node4</title>
<a xlink:href="_calc_m_c_8c.html#ae1ac5dd3e92965aa232a169e6639bb37" target="_top" xlink:title="CalcMC">
<polygon fill="white" stroke="black" points="199.5,-0.5 199.5,-19.5 250.5,-19.5 250.5,-0.5 199.5,-0.5"/>
<text text-anchor="middle" x="225" y="-7.5" font-family="Helvetica,sans-Serif" font-size="10.00">CalcMC</text>
</a>
</g>
<!-- Node2&#45;&gt;Node4 -->
<g id="edge8" class="edge"><title>Node2&#45;&gt;Node4</title>
<path fill="none" stroke="midnightblue" d="M158.4,-29.7505C168.125,-26.8227 179.198,-23.4887 189.443,-20.4044"/>
<polygon fill="midnightblue" stroke="midnightblue" points="190.763,-23.6621 199.329,-17.4277 188.745,-16.9593 190.763,-23.6621"/>
</g>
<!-- Node3&#45;&gt;Node3 -->
<g id="edge6" class="edge"><title>Node3&#45;&gt;Node3</title>
<path fill="none" stroke="midnightblue" d="M210.512,-75.7571C203.464,-84.5653 208.293,-94 225,-94 235.442,-94 241.244,-90.3146 242.407,-85.4"/>
<polygon fill="midnightblue" stroke="midnightblue" points="245.735,-84.3144 239.488,-75.7571 239.035,-86.3422 245.735,-84.3144"/>
</g>
<!-- Node4&#45;&gt;Node4 -->
<g id="edge10" class="edge"><title>Node4&#45;&gt;Node4</title>
<path fill="none" stroke="midnightblue" d="M210.512,-19.7571C203.464,-28.5653 208.293,-38 225,-38 235.442,-38 241.244,-34.3146 242.407,-29.4"/>
<polygon fill="midnightblue" stroke="midnightblue" points="245.735,-28.3144 239.488,-19.7571 239.035,-30.3422 245.735,-28.3144"/>
</g>
</g>
</svg>
