<?xml version="1.0" encoding="UTF-8" standalone="no"?>
<!DOCTYPE svg PUBLIC "-//W3C//DTD SVG 1.1//EN"
 "http://www.w3.org/Graphics/SVG/1.1/DTD/svg11.dtd">
<!-- Generated by graphviz version 2.28.0 (20110507.0327)
 -->
<!-- Title: G Pages: 1 -->
<svg width="450pt" height="194pt"
 viewBox="0.00 0.00 450.00 194.47" xmlns="http://www.w3.org/2000/svg" xmlns:xlink="http://www.w3.org/1999/xlink">
<g id="graph1" class="graph" transform="scale(1 1) rotate(0) translate(4 190.471)">
<title>G</title>
<polygon fill="white" stroke="white" points="-4,5 -4,-190.471 447,-190.471 447,5 -4,5"/>
<!-- Node1 -->
<g id="node1" class="node"><title>Node1</title>
<polygon fill="#bfbfbf" stroke="black" points="0,-110.656 0,-129.656 62,-129.656 62,-110.656 0,-110.656"/>
<text text-anchor="middle" x="31" y="-117.656" font-family="Helvetica,sans-Serif" font-size="10.00">TotalMass</text>
</g>
<!-- Node2 -->
<g id="node3" class="node"><title>Node2</title>
<a xlink:href="_calc_co_m_8h.html#a02ae60f79cbcfde98d1451065cf394c7" target="_top" xlink:title="CalcCoM">
<polygon fill="white" stroke="black" points="196,-82.6561 196,-101.656 252,-101.656 252,-82.6561 196,-82.6561"/>
<text text-anchor="middle" x="224" y="-89.6561" font-family="Helvetica,sans-Serif" font-size="10.00">CalcCoM</text>
</a>
</g>
<!-- Node1&#45;&gt;Node2 -->
<g id="edge2" class="edge"><title>Node1&#45;&gt;Node2</title>
<path fill="none" stroke="midnightblue" d="M72.2727,-114.252C109.473,-108.799 163.707,-100.848 195.965,-96.1193"/>
<polygon fill="midnightblue" stroke="midnightblue" points="71.6511,-110.806 62.2645,-115.719 72.6665,-117.732 71.6511,-110.806"/>
</g>
<!-- Node4 -->
<g id="node7" class="node"><title>Node4</title>
<a xlink:href="main_8c.html#a0ddf1224851353fc92bfbff6f499fa97" target="_top" xlink:title="main">
<polygon fill="white" stroke="black" points="404,-101.656 404,-120.656 442,-120.656 442,-101.656 404,-101.656"/>
<text text-anchor="middle" x="423" y="-108.656" font-family="Helvetica,sans-Serif" font-size="10.00">main</text>
</a>
</g>
<!-- Node1&#45;&gt;Node4 -->
<g id="edge16" class="edge"><title>Node1&#45;&gt;Node4</title>
<path fill="none" stroke="midnightblue" d="M60.2938,-133.926C119.83,-160.857 261.346,-214.031 368,-168.156 390.54,-158.461 408.08,-134.22 416.508,-120.681"/>
<polygon fill="midnightblue" stroke="midnightblue" points="61.6789,-130.71 51.1329,-129.694 58.7431,-137.065 61.6789,-130.71"/>
</g>
<!-- Node7 -->
<g id="node16" class="node"><title>Node7</title>
<a xlink:href="_total_mass_8h.html#a8b97866743257c18887a3d7adde02637" target="_top" xlink:title="TotalMass">
<polygon fill="white" stroke="black" points="98,-54.6561 98,-73.6561 160,-73.6561 160,-54.6561 98,-54.6561"/>
<text text-anchor="middle" x="129" y="-61.6561" font-family="Helvetica,sans-Serif" font-size="10.00">TotalMass</text>
</a>
</g>
<!-- Node1&#45;&gt;Node7 -->
<g id="edge18" class="edge"><title>Node1&#45;&gt;Node7</title>
<path fill="none" stroke="midnightblue" d="M57.6346,-105.203C74.7159,-95.2384 96.664,-82.4354 111.47,-73.7987"/>
<polygon fill="midnightblue" stroke="midnightblue" points="55.5962,-102.34 48.7219,-110.402 59.1233,-108.386 55.5962,-102.34"/>
</g>
<!-- Node3 -->
<g id="node5" class="node"><title>Node3</title>
<a xlink:href="_draw_indicators_8h.html#a25c2edda1fcf20ca794ee4556ca2a6e0" target="_top" xlink:title="DrawIndicators">
<polygon fill="white" stroke="black" points="288,-101.656 288,-120.656 368,-120.656 368,-101.656 288,-101.656"/>
<text text-anchor="middle" x="328" y="-108.656" font-family="Helvetica,sans-Serif" font-size="10.00">DrawIndicators</text>
</a>
</g>
<!-- Node2&#45;&gt;Node3 -->
<g id="edge4" class="edge"><title>Node2&#45;&gt;Node3</title>
<path fill="none" stroke="midnightblue" d="M261.997,-99.0477C270.419,-100.617 279.394,-102.288 287.9,-103.873"/>
<polygon fill="midnightblue" stroke="midnightblue" points="262.538,-95.5883 252.066,-97.1978 261.256,-102.47 262.538,-95.5883"/>
</g>
<!-- Node2&#45;&gt;Node4 -->
<g id="edge8" class="edge"><title>Node2&#45;&gt;Node4</title>
<path fill="none" stroke="midnightblue" d="M262.223,-88.7444C291.254,-86.9024 332.474,-86.0884 368,-92.1561 380.344,-94.2643 393.618,-98.8999 403.917,-103.064"/>
<polygon fill="midnightblue" stroke="midnightblue" points="261.84,-85.2626 252.112,-89.4587 262.334,-92.2452 261.84,-85.2626"/>
</g>
<!-- Node5 -->
<g id="node10" class="node"><title>Node5</title>
<a xlink:href="_stabilizator_8h.html#ab7d621a4109213b04e8479e729268e23" target="_top" xlink:title="Stabilizator">
<polygon fill="white" stroke="black" points="295.5,-25.6561 295.5,-44.6561 360.5,-44.6561 360.5,-25.6561 295.5,-25.6561"/>
<text text-anchor="middle" x="328" y="-32.6561" font-family="Helvetica,sans-Serif" font-size="10.00">Stabilizator</text>
</a>
</g>
<!-- Node2&#45;&gt;Node5 -->
<g id="edge10" class="edge"><title>Node2&#45;&gt;Node5</title>
<path fill="none" stroke="midnightblue" d="M251.115,-77.5621C269.613,-67.2251 293.896,-53.6551 309.953,-44.6825"/>
<polygon fill="midnightblue" stroke="midnightblue" points="249.325,-74.5532 242.303,-82.4868 252.74,-80.6638 249.325,-74.5532"/>
</g>
<!-- Node6 -->
<g id="node12" class="node"><title>Node6</title>
<a xlink:href="u_link_8h.html#ae420e3d1a86aca06b7286b7678b4ecb6" target="_top" xlink:title="Initialize the link structure with the model value.">
<polygon fill="white" stroke="black" points="294,-139.656 294,-158.656 362,-158.656 362,-139.656 294,-139.656"/>
<text text-anchor="middle" x="328" y="-146.656" font-family="Helvetica,sans-Serif" font-size="10.00">SetupRobot</text>
</a>
</g>
<!-- Node2&#45;&gt;Node6 -->
<g id="edge12" class="edge"><title>Node2&#45;&gt;Node6</title>
<path fill="none" stroke="midnightblue" d="M248.769,-107.18C260.444,-114.383 274.807,-122.982 288,-130.156 293.955,-133.394 300.543,-136.704 306.583,-139.634"/>
<polygon fill="midnightblue" stroke="midnightblue" points="250.394,-104.07 240.055,-101.757 246.696,-110.013 250.394,-104.07"/>
</g>
<!-- Node3&#45;&gt;Node4 -->
<g id="edge6" class="edge"><title>Node3&#45;&gt;Node4</title>
<path fill="none" stroke="midnightblue" d="M378.354,-111.156C387.385,-111.156 396.271,-111.156 403.644,-111.156"/>
<polygon fill="midnightblue" stroke="midnightblue" points="378.171,-107.656 368.171,-111.156 378.171,-114.656 378.171,-107.656"/>
</g>
<!-- Node6&#45;&gt;Node4 -->
<g id="edge14" class="edge"><title>Node6&#45;&gt;Node4</title>
<path fill="none" stroke="midnightblue" d="M361.864,-135.728C375.963,-129.967 391.898,-123.456 403.82,-118.584"/>
<polygon fill="midnightblue" stroke="midnightblue" points="360.401,-132.545 352.468,-139.567 363.049,-139.025 360.401,-132.545"/>
</g>
<!-- Node7&#45;&gt;Node2 -->
<g id="edge20" class="edge"><title>Node7&#45;&gt;Node2</title>
<path fill="none" stroke="midnightblue" d="M169.863,-76.158C178.608,-78.7907 187.672,-81.5196 195.784,-83.962"/>
<polygon fill="midnightblue" stroke="midnightblue" points="170.779,-72.7785 160.194,-73.2469 168.761,-79.4813 170.779,-72.7785"/>
</g>
<!-- Node7&#45;&gt;Node4 -->
<g id="edge22" class="edge"><title>Node7&#45;&gt;Node4</title>
<path fill="none" stroke="midnightblue" d="M153.52,-49.3461C198.338,-23.1954 297.762,24.7115 368,-16.1561 400.467,-35.0469 415.015,-81.5455 419.94,-101.646"/>
<polygon fill="midnightblue" stroke="midnightblue" points="151.598,-46.4173 144.815,-54.5563 155.193,-52.4236 151.598,-46.4173"/>
</g>
<!-- Node7&#45;&gt;Node7 -->
<g id="edge24" class="edge"><title>Node7&#45;&gt;Node7</title>
<path fill="none" stroke="midnightblue" d="M111.593,-83.5561C112.756,-88.4706 118.558,-92.1561 129,-92.1561 145.707,-92.1561 150.536,-82.7213 143.488,-73.9131"/>
<polygon fill="midnightblue" stroke="midnightblue" points="114.965,-84.4983 114.512,-73.9131 108.265,-82.4705 114.965,-84.4983"/>
</g>
</g>
</svg>
