<?xml version="1.0" encoding="UTF-8" standalone="no"?>
<!DOCTYPE svg PUBLIC "-//W3C//DTD SVG 1.1//EN"
 "http://www.w3.org/Graphics/SVG/1.1/DTD/svg11.dtd">
<!-- Generated by graphviz version 2.28.0 (20110507.0327)
 -->
<!-- Title: G Pages: 1 -->
<svg width="196pt" height="140pt"
 viewBox="0.00 0.00 196.00 140.00" xmlns="http://www.w3.org/2000/svg" xmlns:xlink="http://www.w3.org/1999/xlink">
<g id="graph1" class="graph" transform="scale(1 1) rotate(0) translate(4 136)">
<title>G</title>
<polygon fill="white" stroke="white" points="-4,5 -4,-136 193,-136 193,5 -4,5"/>
<!-- Node1 -->
<g id="node1" class="node"><title>Node1</title>
<polygon fill="#bfbfbf" stroke="black" points="58,-112.5 58,-131.5 128,-131.5 128,-112.5 58,-112.5"/>
<text text-anchor="middle" x="93" y="-119.5" font-family="Helvetica,sans-Serif" font-size="10.00">TotalMass.c</text>
</g>
<!-- Node2 -->
<g id="node3" class="node"><title>Node2</title>
<polygon fill="white" stroke="#bfbfbf" points="0,-0.5 0,-19.5 84,-19.5 84,-0.5 0,-0.5"/>
<text text-anchor="middle" x="42" y="-7.5" font-family="Helvetica,sans-Serif" font-size="10.00">gsl/gsl_vector.h</text>
</g>
<!-- Node1&#45;&gt;Node2 -->
<g id="edge2" class="edge"><title>Node1&#45;&gt;Node2</title>
<path fill="none" stroke="midnightblue" d="M66.0708,-112.356C49.2808,-105.411 29.0224,-93.8247 19,-76 10.4198,-60.7402 19.1497,-41.7018 28.2119,-28.1825"/>
<polygon fill="midnightblue" stroke="midnightblue" points="31.2507,-29.9564 34.3301,-19.819 25.601,-25.8234 31.2507,-29.9564"/>
</g>
<!-- Node3 -->
<g id="node5" class="node"><title>Node3</title>
<polygon fill="white" stroke="#bfbfbf" points="102,-0.5 102,-19.5 188,-19.5 188,-0.5 102,-0.5"/>
<text text-anchor="middle" x="145" y="-7.5" font-family="Helvetica,sans-Serif" font-size="10.00">gsl/gsl_matrix.h</text>
</g>
<!-- Node1&#45;&gt;Node3 -->
<g id="edge4" class="edge"><title>Node1&#45;&gt;Node3</title>
<path fill="none" stroke="midnightblue" d="M125.986,-112.438C144.463,-105.769 165.952,-94.4527 177,-76 186.632,-59.9137 174.197,-40.5228 162.128,-27.1297"/>
<polygon fill="midnightblue" stroke="midnightblue" points="164.34,-24.3831 154.862,-19.6488 159.319,-29.2605 164.34,-24.3831"/>
</g>
<!-- Node4 -->
<g id="node7" class="node"><title>Node4</title>
<a xlink:href="u_link_8h.html" target="_top" xlink:title="Link initialisation and declarations.">
<polygon fill="white" stroke="black" points="28.5,-56.5 28.5,-75.5 79.5,-75.5 79.5,-56.5 28.5,-56.5"/>
<text text-anchor="middle" x="54" y="-63.5" font-family="Helvetica,sans-Serif" font-size="10.00">uLINK.h</text>
</a>
</g>
<!-- Node1&#45;&gt;Node4 -->
<g id="edge6" class="edge"><title>Node1&#45;&gt;Node4</title>
<path fill="none" stroke="midnightblue" d="M86.5599,-112.083C81.0511,-104.455 72.9688,-93.2645 66.235,-83.9408"/>
<polygon fill="midnightblue" stroke="midnightblue" points="69.0126,-81.8087 60.3202,-75.7511 63.3378,-85.9071 69.0126,-81.8087"/>
</g>
<!-- Node5 -->
<g id="node11" class="node"><title>Node5</title>
<a xlink:href="_total_mass_8h.html" target="_top" xlink:title="TotalMass.h">
<polygon fill="white" stroke="black" points="98,-56.5 98,-75.5 168,-75.5 168,-56.5 98,-56.5"/>
<text text-anchor="middle" x="133" y="-63.5" font-family="Helvetica,sans-Serif" font-size="10.00">TotalMass.h</text>
</a>
</g>
<!-- Node1&#45;&gt;Node5 -->
<g id="edge12" class="edge"><title>Node1&#45;&gt;Node5</title>
<path fill="none" stroke="midnightblue" d="M99.6052,-112.083C105.255,-104.455 113.545,-93.2645 120.451,-83.9408"/>
<polygon fill="midnightblue" stroke="midnightblue" points="123.378,-85.87 126.518,-75.7511 117.753,-81.7034 123.378,-85.87"/>
</g>
<!-- Node4&#45;&gt;Node2 -->
<g id="edge8" class="edge"><title>Node4&#45;&gt;Node2</title>
<path fill="none" stroke="midnightblue" d="M52.0184,-56.083C50.4283,-48.9272 48.1412,-38.6353 46.1536,-29.6911"/>
<polygon fill="midnightblue" stroke="midnightblue" points="49.5307,-28.7537 43.9447,-19.7511 42.6974,-30.2722 49.5307,-28.7537"/>
</g>
<!-- Node4&#45;&gt;Node3 -->
<g id="edge10" class="edge"><title>Node4&#45;&gt;Node3</title>
<path fill="none" stroke="midnightblue" d="M68.6207,-56.324C82.9489,-47.8215 105.013,-34.7288 121.749,-24.7975"/>
<polygon fill="midnightblue" stroke="midnightblue" points="123.602,-27.7677 130.416,-19.6545 120.03,-21.7478 123.602,-27.7677"/>
</g>
<!-- Node5&#45;&gt;Node2 -->
<g id="edge14" class="edge"><title>Node5&#45;&gt;Node2</title>
<path fill="none" stroke="midnightblue" d="M118.379,-56.324C104.051,-47.8215 81.9875,-34.7288 65.2513,-24.7975"/>
<polygon fill="midnightblue" stroke="midnightblue" points="66.9704,-21.7478 56.5844,-19.6545 63.3982,-27.7677 66.9704,-21.7478"/>
</g>
<!-- Node5&#45;&gt;Node3 -->
<g id="edge16" class="edge"><title>Node5&#45;&gt;Node3</title>
<path fill="none" stroke="midnightblue" d="M134.982,-56.083C136.572,-48.9272 138.859,-38.6353 140.846,-29.6911"/>
<polygon fill="midnightblue" stroke="midnightblue" points="144.303,-30.2722 143.055,-19.7511 137.469,-28.7537 144.303,-30.2722"/>
</g>
</g>
</svg>
