<?xml version="1.0" encoding="UTF-8" standalone="no"?>
<!DOCTYPE svg PUBLIC "-//W3C//DTD SVG 1.1//EN"
 "http://www.w3.org/Graphics/SVG/1.1/DTD/svg11.dtd">
<!-- Generated by graphviz version 2.28.0 (20110507.0327)
 -->
<!-- Title: G Pages: 1 -->
<svg width="352pt" height="166pt"
 viewBox="0.00 0.00 352.00 166.31" xmlns="http://www.w3.org/2000/svg" xmlns:xlink="http://www.w3.org/1999/xlink">
<g id="graph1" class="graph" transform="scale(1 1) rotate(0) translate(4 162.305)">
<title>G</title>
<polygon fill="white" stroke="white" points="-4,5 -4,-162.305 349,-162.305 349,5 -4,5"/>
<!-- Node1 -->
<g id="node1" class="node"><title>Node1</title>
<polygon fill="#bfbfbf" stroke="black" points="0,-24.8054 0,-43.8054 62,-43.8054 62,-24.8054 0,-24.8054"/>
<text text-anchor="middle" x="31" y="-31.8054" font-family="Helvetica,sans-Serif" font-size="10.00">TotalMass</text>
</g>
<!-- Node1&#45;&gt;Node1 -->
<g id="edge18" class="edge"><title>Node1&#45;&gt;Node1</title>
<path fill="none" stroke="midnightblue" d="M13.5934,-53.7054C14.7559,-58.62 20.5581,-62.3054 31,-62.3054 47.707,-62.3054 52.5364,-52.8707 45.4881,-44.0625"/>
<polygon fill="midnightblue" stroke="midnightblue" points="16.965,-54.6476 16.5119,-44.0625 10.2651,-52.6199 16.965,-54.6476"/>
</g>
<!-- Node2 -->
<g id="node3" class="node"><title>Node2</title>
<a xlink:href="_calc_co_m_8h.html#a02ae60f79cbcfde98d1451065cf394c7" target="_top" xlink:title="CalcCoM">
<polygon fill="white" stroke="black" points="98,-62.8054 98,-81.8054 154,-81.8054 154,-62.8054 98,-62.8054"/>
<text text-anchor="middle" x="126" y="-69.8054" font-family="Helvetica,sans-Serif" font-size="10.00">CalcCoM</text>
</a>
</g>
<!-- Node1&#45;&gt;Node2 -->
<g id="edge2" class="edge"><title>Node1&#45;&gt;Node2</title>
<path fill="none" stroke="midnightblue" d="M64.8228,-47.7169C76.9396,-52.6678 90.4165,-58.1745 101.54,-62.7195"/>
<polygon fill="midnightblue" stroke="midnightblue" points="66.0488,-44.437 55.4678,-43.8944 63.401,-50.9169 66.0488,-44.437"/>
</g>
<!-- Node4 -->
<g id="node7" class="node"><title>Node4</title>
<a xlink:href="main_8c.html#a0ddf1224851353fc92bfbff6f499fa97" target="_top" xlink:title="main">
<polygon fill="white" stroke="black" points="306,-62.8054 306,-81.8054 344,-81.8054 344,-62.8054 306,-62.8054"/>
<text text-anchor="middle" x="325" y="-69.8054" font-family="Helvetica,sans-Serif" font-size="10.00">main</text>
</a>
</g>
<!-- Node1&#45;&gt;Node4 -->
<g id="edge16" class="edge"><title>Node1&#45;&gt;Node4</title>
<path fill="none" stroke="midnightblue" d="M67.1991,-21.5697C115.176,-6.37088 202.812,13.5943 270,-15.3054 292.54,-25.0006 310.08,-49.2419 318.508,-62.7806"/>
<polygon fill="midnightblue" stroke="midnightblue" points="65.9971,-18.2804 57.5849,-24.7213 68.1777,-24.9321 65.9971,-18.2804"/>
</g>
<!-- Node3 -->
<g id="node5" class="node"><title>Node3</title>
<a xlink:href="_draw_indicators_8h.html#a25c2edda1fcf20ca794ee4556ca2a6e0" target="_top" xlink:title="DrawIndicators">
<polygon fill="white" stroke="black" points="190,-138.805 190,-157.805 270,-157.805 270,-138.805 190,-138.805"/>
<text text-anchor="middle" x="230" y="-145.805" font-family="Helvetica,sans-Serif" font-size="10.00">DrawIndicators</text>
</a>
</g>
<!-- Node2&#45;&gt;Node3 -->
<g id="edge4" class="edge"><title>Node2&#45;&gt;Node3</title>
<path fill="none" stroke="midnightblue" d="M145.516,-88.7397C157.79,-99.3419 174.442,-113.178 190,-124.305 197.113,-129.393 205.314,-134.539 212.355,-138.755"/>
<polygon fill="midnightblue" stroke="midnightblue" points="147.619,-85.9301 137.785,-81.9895 143.015,-91.2031 147.619,-85.9301"/>
</g>
<!-- Node2&#45;&gt;Node4 -->
<g id="edge8" class="edge"><title>Node2&#45;&gt;Node4</title>
<path fill="none" stroke="midnightblue" d="M162.353,-84.944C171.261,-87.5778 180.885,-89.9609 190,-91.3054 225.175,-96.4942 234.952,-97.2914 270,-91.3054 282.344,-89.1972 295.618,-84.5615 305.917,-80.3971"/>
<polygon fill="midnightblue" stroke="midnightblue" points="163.254,-81.5586 152.665,-81.9058 161.159,-88.2378 163.254,-81.5586"/>
</g>
<!-- Node5 -->
<g id="node10" class="node"><title>Node5</title>
<a xlink:href="_stabilizator_8h.html#ab7d621a4109213b04e8479e729268e23" target="_top" xlink:title="Stabilizator">
<polygon fill="white" stroke="black" points="197.5,-62.8054 197.5,-81.8054 262.5,-81.8054 262.5,-62.8054 197.5,-62.8054"/>
<text text-anchor="middle" x="230" y="-69.8054" font-family="Helvetica,sans-Serif" font-size="10.00">Stabilizator</text>
</a>
</g>
<!-- Node2&#45;&gt;Node5 -->
<g id="edge10" class="edge"><title>Node2&#45;&gt;Node5</title>
<path fill="none" stroke="midnightblue" d="M164.182,-72.3054C175.101,-72.3054 186.933,-72.3054 197.463,-72.3054"/>
<polygon fill="midnightblue" stroke="midnightblue" points="164.066,-68.8055 154.066,-72.3054 164.066,-75.8055 164.066,-68.8055"/>
</g>
<!-- Node6 -->
<g id="node12" class="node"><title>Node6</title>
<a xlink:href="u_link_8h.html#ae420e3d1a86aca06b7286b7678b4ecb6" target="_top" xlink:title="Initialize the link structure with the model value.">
<polygon fill="white" stroke="black" points="196,-24.8054 196,-43.8054 264,-43.8054 264,-24.8054 196,-24.8054"/>
<text text-anchor="middle" x="230" y="-31.8054" font-family="Helvetica,sans-Serif" font-size="10.00">SetupRobot</text>
</a>
</g>
<!-- Node2&#45;&gt;Node6 -->
<g id="edge12" class="edge"><title>Node2&#45;&gt;Node6</title>
<path fill="none" stroke="midnightblue" d="M162.211,-59.1874C175.702,-54.1615 190.828,-48.5263 203.269,-43.8914"/>
<polygon fill="midnightblue" stroke="midnightblue" points="160.888,-55.9455 152.739,-62.7164 163.332,-62.505 160.888,-55.9455"/>
</g>
<!-- Node3&#45;&gt;Node4 -->
<g id="edge6" class="edge"><title>Node3&#45;&gt;Node4</title>
<path fill="none" stroke="midnightblue" d="M257.093,-133.33C261.512,-130.491 265.97,-127.427 270,-124.305 287.08,-111.075 304.715,-93.1379 315.003,-82.1616"/>
<polygon fill="midnightblue" stroke="midnightblue" points="254.908,-130.565 248.227,-138.788 258.578,-136.526 254.908,-130.565"/>
</g>
<!-- Node6&#45;&gt;Node4 -->
<g id="edge14" class="edge"><title>Node6&#45;&gt;Node4</title>
<path fill="none" stroke="midnightblue" d="M263.864,-47.7337C277.963,-53.4948 293.898,-60.0056 305.82,-64.8771"/>
<polygon fill="midnightblue" stroke="midnightblue" points="265.049,-44.437 254.468,-43.8944 262.401,-50.9169 265.049,-44.437"/>
</g>
</g>
</svg>
