<?xml version="1.0" encoding="UTF-8" standalone="no"?>
<!DOCTYPE svg PUBLIC "-//W3C//DTD SVG 1.1//EN"
 "http://www.w3.org/Graphics/SVG/1.1/DTD/svg11.dtd">
<!-- Generated by graphviz version 2.28.0 (20110507.0327)
 -->
<!-- Title: G Pages: 1 -->
<svg width="230pt" height="66pt"
 viewBox="0.00 0.00 230.00 66.00" xmlns="http://www.w3.org/2000/svg" xmlns:xlink="http://www.w3.org/1999/xlink">
<g id="graph1" class="graph" transform="scale(1 1) rotate(0) translate(4 62)">
<title>G</title>
<polygon fill="white" stroke="white" points="-4,5 -4,-62 227,-62 227,5 -4,5"/>
<!-- Node1 -->
<g id="node1" class="node"><title>Node1</title>
<polygon fill="#bfbfbf" stroke="black" points="0.5,-19.5 0.5,-38.5 59.5,-38.5 59.5,-19.5 0.5,-19.5"/>
<text text-anchor="middle" x="30" y="-26.5" font-family="Helvetica,sans-Serif" font-size="10.00">Trajectory</text>
</g>
<!-- Node2 -->
<g id="node3" class="node"><title>Node2</title>
<a xlink:href="_inverse_sherpa_kinematics_8c.html#aea296db01c18fac73a9d10c962252749" target="_top" xlink:title="Compute the inverse kinematics for the legs of Sherpa robot.">
<polygon fill="white" stroke="black" points="96,-38.5 96,-57.5 222,-57.5 222,-38.5 96,-38.5"/>
<text text-anchor="middle" x="159" y="-45.5" font-family="Helvetica,sans-Serif" font-size="10.00">InverseSherpaKinematics</text>
</a>
</g>
<!-- Node1&#45;&gt;Node2 -->
<g id="edge2" class="edge"><title>Node1&#45;&gt;Node2</title>
<path fill="none" stroke="midnightblue" d="M59.5013,-33.264C67.4499,-34.4531 76.4624,-35.8015 85.7291,-37.1878"/>
<polygon fill="midnightblue" stroke="midnightblue" points="85.4379,-40.6831 95.8458,-38.7013 86.4737,-33.7602 85.4379,-40.6831"/>
</g>
<!-- Node3 -->
<g id="node5" class="node"><title>Node3</title>
<a xlink:href="_spline_8c.html#a632145d706cba9b664d0f9da26620f92" target="_top" xlink:title="Spline">
<polygon fill="white" stroke="black" points="137,-0.5 137,-19.5 181,-19.5 181,-0.5 137,-0.5"/>
<text text-anchor="middle" x="159" y="-7.5" font-family="Helvetica,sans-Serif" font-size="10.00">Spline</text>
</a>
</g>
<!-- Node1&#45;&gt;Node3 -->
<g id="edge4" class="edge"><title>Node1&#45;&gt;Node3</title>
<path fill="none" stroke="midnightblue" d="M59.5013,-24.736C79.4299,-21.7546 106.047,-17.7725 126.587,-14.6995"/>
<polygon fill="midnightblue" stroke="midnightblue" points="127.335,-18.1267 136.707,-13.1855 126.299,-11.2037 127.335,-18.1267"/>
</g>
</g>
</svg>
