<?xml version="1.0" encoding="UTF-8" standalone="no"?>
<!DOCTYPE svg PUBLIC "-//W3C//DTD SVG 1.1//EN"
 "http://www.w3.org/Graphics/SVG/1.1/DTD/svg11.dtd">
<!-- Generated by graphviz version 2.28.0 (20110507.0327)
 -->
<!-- Title: G Pages: 1 -->
<!--zoomable-->
<svg id="main" version="1.1" xmlns="http://www.w3.org/2000/svg" xmlns:xlink="http://www.w3.org/1999/xlink" xml:space="preserve" onload="init(evt)">
        <defs>
                <circle id="rim" cx="0" cy="0" r="7"/>
                <circle id="rim2" cx="0" cy="0" r="3.5"/>
                <g id="zoomPlus">
                        <use xlink:href="#rim" fill="#404040">
                                <set attributeName="fill" to="#808080" begin="zoomplus.mouseover" end="zoomplus.mouseout"/>
                        </use>
                        <path d="M-4,0h8M0,-4v8" fill="none" stroke="white" stroke-width="1.5" pointer-events="none"/>
                </g>
                <g id="zoomMin">
                        <use xlink:href="#rim" fill="#404040">
                                <set attributeName="fill" to="#808080" begin="zoomminus.mouseover" end="zoomminus.mouseout"/>
                        </use>
                        <path d="M-4,0h8" fill="none" stroke="white" stroke-width="1.5" pointer-events="none"/>
                </g>
                <g id="dirArrow">
                        <path fill="none" stroke="white" stroke-width="1.5" d="M0,-3.0v7 M-2.5,-0.5L0,-3.0L2.5,-0.5"/>
                </g>
               <g id="resetDef">
                       <use xlink:href="#rim2" fill="#404040">
                               <set attributeName="fill" to="#808080" begin="reset.mouseover" end="reset.mouseout"/>
                       </use>
               </g>
        </defs>

<script type="text/javascript">
var viewWidth = 2044;
var viewHeight = 140;
var sectionId = 'dynsection-0';
</script>
<script xlink:href="svgpan.js"/>
<svg id="graph" class="graph">
<g id="viewport">
<title>G</title>
<polygon fill="white" stroke="white" points="-4,5 -4,-136 2041,-136 2041,5 -4,5"/>
<!-- Node1 -->
<g id="node1" class="node"><title>Node1</title>
<polygon fill="#bfbfbf" stroke="black" points="1076,-112.5 1076,-131.5 1122,-131.5 1122,-112.5 1076,-112.5"/>
<text text-anchor="middle" x="1099" y="-119.5" font-family="Helvetica,sans-Serif" font-size="10.00">main.c</text>
</g>
<!-- Node2 -->
<g id="node3" class="node"><title>Node2</title>
<polygon fill="white" stroke="#bfbfbf" points="0,-56.5 0,-75.5 46,-75.5 46,-56.5 0,-56.5"/>
<text text-anchor="middle" x="23" y="-63.5" font-family="Helvetica,sans-Serif" font-size="10.00">stdio.h</text>
</g>
<!-- Node1&#45;&gt;Node2 -->
<g id="edge2" class="edge"><title>Node1&#45;&gt;Node2</title>
<path fill="none" stroke="midnightblue" d="M1075.7,-120.727C943.067,-119.065 281.691,-109.293 56.3569,-75.7808"/>
<polygon fill="midnightblue" stroke="midnightblue" points="56.6979,-72.2919 46.2797,-74.2187 55.6255,-79.2093 56.6979,-72.2919"/>
</g>
<!-- Node3 -->
<g id="node5" class="node"><title>Node3</title>
<polygon fill="white" stroke="#bfbfbf" points="64,-56.5 64,-75.5 112,-75.5 112,-56.5 64,-56.5"/>
<text text-anchor="middle" x="88" y="-63.5" font-family="Helvetica,sans-Serif" font-size="10.00">stdlib.h</text>
</g>
<!-- Node1&#45;&gt;Node3 -->
<g id="edge4" class="edge"><title>Node1&#45;&gt;Node3</title>
<path fill="none" stroke="midnightblue" d="M1075.92,-120.628C948.971,-118.479 333.946,-106.714 122.098,-75.7444"/>
<polygon fill="midnightblue" stroke="midnightblue" points="122.431,-72.2548 112.017,-74.2073 121.376,-79.1748 122.431,-72.2548"/>
</g>
<!-- Node4 -->
<g id="node7" class="node"><title>Node4</title>
<polygon fill="white" stroke="#bfbfbf" points="130.5,-56.5 130.5,-75.5 179.5,-75.5 179.5,-56.5 130.5,-56.5"/>
<text text-anchor="middle" x="155" y="-63.5" font-family="Helvetica,sans-Serif" font-size="10.00">string.h</text>
</g>
<!-- Node1&#45;&gt;Node4 -->
<g id="edge6" class="edge"><title>Node1&#45;&gt;Node4</title>
<path fill="none" stroke="midnightblue" d="M1075.78,-121.351C972.221,-122.601 542.238,-124.45 194,-76 192.537,-75.7965 191.049,-75.5648 189.549,-75.311"/>
<polygon fill="midnightblue" stroke="midnightblue" points="190.12,-71.8564 179.635,-73.3788 188.781,-78.7271 190.12,-71.8564"/>
</g>
<!-- Node5 -->
<g id="node9" class="node"><title>Node5</title>
<polygon fill="white" stroke="#bfbfbf" points="679,-0.5 679,-19.5 763,-19.5 763,-0.5 679,-0.5"/>
<text text-anchor="middle" x="721" y="-7.5" font-family="Helvetica,sans-Serif" font-size="10.00">gsl/gsl_vector.h</text>
</g>
<!-- Node1&#45;&gt;Node5 -->
<g id="edge8" class="edge"><title>Node1&#45;&gt;Node5</title>
<path fill="none" stroke="midnightblue" d="M1075.66,-120.692C939.925,-118.791 257.078,-107.67 227,-76 220.879,-69.5547 221.006,-62.5643 227,-56 256.34,-23.8659 547.26,-14.4226 668.443,-11.8709"/>
<polygon fill="midnightblue" stroke="midnightblue" points="668.669,-15.3671 678.596,-11.6649 668.527,-8.36853 668.669,-15.3671"/>
</g>
<!-- Node6 -->
<g id="node11" class="node"><title>Node6</title>
<polygon fill="white" stroke="#bfbfbf" points="858,-0.5 858,-19.5 944,-19.5 944,-0.5 858,-0.5"/>
<text text-anchor="middle" x="901" y="-7.5" font-family="Helvetica,sans-Serif" font-size="10.00">gsl/gsl_matrix.h</text>
</g>
<!-- Node1&#45;&gt;Node6 -->
<g id="edge10" class="edge"><title>Node1&#45;&gt;Node6</title>
<path fill="none" stroke="midnightblue" d="M1122.42,-120.66C1180.84,-119.268 1330.51,-112.171 1361,-76 1366.73,-69.2034 1366.97,-62.5843 1361,-56 1334.08,-26.3223 1069.18,-15.562 954.015,-12.2653"/>
<polygon fill="midnightblue" stroke="midnightblue" points="954.101,-8.76643 944.008,-11.9869 953.906,-15.7637 954.101,-8.76643"/>
</g>
<!-- Node7 -->
<g id="node13" class="node"><title>Node7</title>
<polygon fill="white" stroke="#bfbfbf" points="1409.5,-56.5 1409.5,-75.5 1486.5,-75.5 1486.5,-56.5 1409.5,-56.5"/>
<text text-anchor="middle" x="1448" y="-63.5" font-family="Helvetica,sans-Serif" font-size="10.00">gsl/gsl_blas.h</text>
</g>
<!-- Node1&#45;&gt;Node7 -->
<g id="edge12" class="edge"><title>Node1&#45;&gt;Node7</title>
<path fill="none" stroke="midnightblue" d="M1122.05,-117.635C1171.89,-110.328 1293.39,-92.3501 1395,-76 1396.3,-75.7915 1397.61,-75.5787 1398.93,-75.3628"/>
<polygon fill="midnightblue" stroke="midnightblue" points="1399.93,-78.7461 1409.23,-73.664 1398.79,-71.8395 1399.93,-78.7461"/>
</g>
<!-- Node8 -->
<g id="node15" class="node"><title>Node8</title>
<polygon fill="white" stroke="#bfbfbf" points="1504.5,-56.5 1504.5,-75.5 1585.5,-75.5 1585.5,-56.5 1504.5,-56.5"/>
<text text-anchor="middle" x="1545" y="-63.5" font-family="Helvetica,sans-Serif" font-size="10.00">gsl/gsl_linalg.h</text>
</g>
<!-- Node1&#45;&gt;Node8 -->
<g id="edge14" class="edge"><title>Node1&#45;&gt;Node8</title>
<path fill="none" stroke="midnightblue" d="M1122.28,-118.888C1182.12,-113.345 1346.37,-97.4204 1494.21,-76.0233"/>
<polygon fill="midnightblue" stroke="midnightblue" points="1494.99,-79.4475 1504.38,-74.5398 1493.98,-72.5209 1494.99,-79.4475"/>
</g>
<!-- Node9 -->
<g id="node17" class="node"><title>Node9</title>
<polygon fill="white" stroke="#bfbfbf" points="1604,-56.5 1604,-75.5 1684,-75.5 1684,-56.5 1604,-56.5"/>
<text text-anchor="middle" x="1644" y="-63.5" font-family="Helvetica,sans-Serif" font-size="10.00">gsl/gsl_math.h</text>
</g>
<!-- Node1&#45;&gt;Node9 -->
<g id="edge16" class="edge"><title>Node1&#45;&gt;Node9</title>
<path fill="none" stroke="midnightblue" d="M1122.03,-119.626C1192.74,-115.251 1412.92,-100.48 1594,-76 1594.1,-75.9863 1594.2,-75.9726 1594.3,-75.9588"/>
<polygon fill="midnightblue" stroke="midnightblue" points="1594.55,-79.4601 1603.93,-74.5305 1593.53,-72.5359 1594.55,-79.4601"/>
</g>
<!-- Node10 -->
<g id="node19" class="node"><title>Node10</title>
<polygon fill="white" stroke="#bfbfbf" points="1702.5,-56.5 1702.5,-75.5 1767.5,-75.5 1767.5,-56.5 1702.5,-56.5"/>
<text text-anchor="middle" x="1735" y="-63.5" font-family="Helvetica,sans-Serif" font-size="10.00">SDL/SDL.h</text>
</g>
<!-- Node1&#45;&gt;Node10 -->
<g id="edge18" class="edge"><title>Node1&#45;&gt;Node10</title>
<path fill="none" stroke="midnightblue" d="M1122.06,-120.377C1200.49,-118.021 1464.28,-108.171 1691.93,-75.9512"/>
<polygon fill="midnightblue" stroke="midnightblue" points="1692.66,-79.383 1702.06,-74.4994 1691.67,-72.4538 1692.66,-79.383"/>
</g>
<!-- Node11 -->
<g id="node21" class="node"><title>Node11</title>
<polygon fill="white" stroke="#bfbfbf" points="1786,-56.5 1786,-75.5 1834,-75.5 1834,-56.5 1786,-56.5"/>
<text text-anchor="middle" x="1810" y="-63.5" font-family="Helvetica,sans-Serif" font-size="10.00">GL/gl.h</text>
</g>
<!-- Node1&#45;&gt;Node11 -->
<g id="edge20" class="edge"><title>Node1&#45;&gt;Node11</title>
<path fill="none" stroke="midnightblue" d="M1122.27,-121.068C1209.12,-120.979 1522.3,-117.611 1776,-76 1776.1,-75.9833 1776.2,-75.9665 1776.31,-75.9495"/>
<polygon fill="midnightblue" stroke="midnightblue" points="1776.88,-79.404 1785.98,-73.9707 1775.48,-72.5461 1776.88,-79.404"/>
</g>
<!-- Node12 -->
<g id="node23" class="node"><title>Node12</title>
<polygon fill="white" stroke="#bfbfbf" points="1852.5,-56.5 1852.5,-75.5 1905.5,-75.5 1905.5,-56.5 1852.5,-56.5"/>
<text text-anchor="middle" x="1879" y="-63.5" font-family="Helvetica,sans-Serif" font-size="10.00">GL/glu.h</text>
</g>
<!-- Node1&#45;&gt;Node12 -->
<g id="edge22" class="edge"><title>Node1&#45;&gt;Node12</title>
<path fill="none" stroke="midnightblue" d="M1122.31,-121.15C1213.32,-121.409 1553.52,-119.35 1842.13,-75.8045"/>
<polygon fill="midnightblue" stroke="midnightblue" points="1843.02,-79.2095 1852.38,-74.2379 1841.96,-72.2899 1843.02,-79.2095"/>
</g>
<!-- Node13 -->
<g id="node25" class="node"><title>Node13</title>
<a xlink:href="u_link_8h.html" target="_top" xlink:title="Link initialisation and declarations.">
<polygon fill="white" stroke="black" points="1301.5,-56.5 1301.5,-75.5 1352.5,-75.5 1352.5,-56.5 1301.5,-56.5"/>
<text text-anchor="middle" x="1327" y="-63.5" font-family="Helvetica,sans-Serif" font-size="10.00">uLINK.h</text>
</a>
</g>
<!-- Node1&#45;&gt;Node13 -->
<g id="edge24" class="edge"><title>Node1&#45;&gt;Node13</title>
<path fill="none" stroke="midnightblue" d="M1122.21,-115.766C1156.8,-107.929 1224.14,-92.5232 1291.47,-76.0853"/>
<polygon fill="midnightblue" stroke="midnightblue" points="1292.52,-79.4318 1301.4,-73.6534 1290.86,-72.6328 1292.52,-79.4318"/>
</g>
<!-- Node14 -->
<g id="node29" class="node"><title>Node14</title>
<a xlink:href="_draw_all_joints_8h.html" target="_top" xlink:title="DrawAllJoints.h">
<polygon fill="white" stroke="black" points="236.5,-56.5 236.5,-75.5 319.5,-75.5 319.5,-56.5 236.5,-56.5"/>
<text text-anchor="middle" x="278" y="-63.5" font-family="Helvetica,sans-Serif" font-size="10.00">DrawAllJoints.h</text>
</a>
</g>
<!-- Node1&#45;&gt;Node14 -->
<g id="edge30" class="edge"><title>Node1&#45;&gt;Node14</title>
<path fill="none" stroke="midnightblue" d="M1075.92,-120.63C983.453,-118.944 630.647,-110.558 329.917,-75.9534"/>
<polygon fill="midnightblue" stroke="midnightblue" points="330.028,-72.4428 319.69,-74.7641 329.219,-79.3959 330.028,-72.4428"/>
</g>
<!-- Node15 -->
<g id="node33" class="node"><title>Node15</title>
<a xlink:href="_print_state_8h.html" target="_top" xlink:title="Save and load states.">
<polygon fill="white" stroke="black" points="338,-56.5 338,-75.5 406,-75.5 406,-56.5 338,-56.5"/>
<text text-anchor="middle" x="372" y="-63.5" font-family="Helvetica,sans-Serif" font-size="10.00">PrintState.h</text>
</a>
</g>
<!-- Node1&#45;&gt;Node15 -->
<g id="edge36" class="edge"><title>Node1&#45;&gt;Node15</title>
<path fill="none" stroke="midnightblue" d="M1075.85,-120.656C989.869,-119.131 680.618,-111.456 416.363,-75.991"/>
<polygon fill="midnightblue" stroke="midnightblue" points="416.572,-72.4873 406.192,-74.609 415.63,-79.4236 416.572,-72.4873"/>
</g>
<!-- Node16 -->
<g id="node37" class="node"><title>Node16</title>
<a xlink:href="bmp_8h.html" target="_top" xlink:title="read and write bmp images">
<polygon fill="white" stroke="black" points="1924,-56.5 1924,-75.5 1968,-75.5 1968,-56.5 1924,-56.5"/>
<text text-anchor="middle" x="1946" y="-63.5" font-family="Helvetica,sans-Serif" font-size="10.00">bmp.h</text>
</a>
</g>
<!-- Node1&#45;&gt;Node16 -->
<g id="edge42" class="edge"><title>Node1&#45;&gt;Node16</title>
<path fill="none" stroke="midnightblue" d="M1122.28,-120.403C1236.17,-117.381 1735.96,-102.902 1913.78,-75.5348"/>
<polygon fill="midnightblue" stroke="midnightblue" points="1914.45,-78.9721 1923.76,-73.9264 1913.33,-72.0611 1914.45,-78.9721"/>
</g>
<!-- Node17 -->
<g id="node39" class="node"><title>Node17</title>
<a xlink:href="_integrate_euler_8h.html" target="_top" xlink:title="IntegrateEuler.h">
<polygon fill="white" stroke="black" points="424.5,-56.5 424.5,-75.5 509.5,-75.5 509.5,-56.5 424.5,-56.5"/>
<text text-anchor="middle" x="467" y="-63.5" font-family="Helvetica,sans-Serif" font-size="10.00">IntegrateEuler.h</text>
</a>
</g>
<!-- Node1&#45;&gt;Node17 -->
<g id="edge44" class="edge"><title>Node1&#45;&gt;Node17</title>
<path fill="none" stroke="midnightblue" d="M1075.94,-120.022C998.721,-116.578 741.977,-103.759 519.751,-76.1098"/>
<polygon fill="midnightblue" stroke="midnightblue" points="519.888,-72.5996 509.53,-74.8244 519.015,-79.5449 519.888,-72.5996"/>
</g>
<!-- Node18 -->
<g id="node43" class="node"><title>Node18</title>
<a xlink:href="_forward_dynamics_8h.html" target="_top" xlink:title="ForwardDynamics.h">
<polygon fill="white" stroke="black" points="527.5,-56.5 527.5,-75.5 630.5,-75.5 630.5,-56.5 527.5,-56.5"/>
<text text-anchor="middle" x="579" y="-63.5" font-family="Helvetica,sans-Serif" font-size="10.00">ForwardDynamics.h</text>
</a>
</g>
<!-- Node1&#45;&gt;Node18 -->
<g id="edge50" class="edge"><title>Node1&#45;&gt;Node18</title>
<path fill="none" stroke="midnightblue" d="M1075.55,-119.108C1009.17,-113.665 814.118,-97.0799 640.638,-76.0193"/>
<polygon fill="midnightblue" stroke="midnightblue" points="640.911,-72.5267 630.561,-74.7878 640.062,-79.475 640.911,-72.5267"/>
</g>
<!-- Node19 -->
<g id="node47" class="node"><title>Node19</title>
<a xlink:href="_forward_kinematics_8h.html" target="_top" xlink:title="ForwardKinematics.h">
<polygon fill="white" stroke="black" points="649,-56.5 649,-75.5 757,-75.5 757,-56.5 649,-56.5"/>
<text text-anchor="middle" x="703" y="-63.5" font-family="Helvetica,sans-Serif" font-size="10.00">ForwardKinematics.h</text>
</a>
</g>
<!-- Node1&#45;&gt;Node19 -->
<g id="edge56" class="edge"><title>Node1&#45;&gt;Node19</title>
<path fill="none" stroke="midnightblue" d="M1075.98,-117.95C1023.31,-110.959 889.726,-93.1555 767.219,-76.1613"/>
<polygon fill="midnightblue" stroke="midnightblue" points="767.679,-72.6917 757.292,-74.7827 766.716,-79.6251 767.679,-72.6917"/>
</g>
<!-- Node20 -->
<g id="node51" class="node"><title>Node20</title>
<a xlink:href="_inverse_sherpa_kinematics_8h.html" target="_top" xlink:title="Inverse kinematics computations for Sherpa robot.">
<polygon fill="white" stroke="black" points="775,-56.5 775,-75.5 909,-75.5 909,-56.5 775,-56.5"/>
<text text-anchor="middle" x="842" y="-63.5" font-family="Helvetica,sans-Serif" font-size="10.00">InverseSherpaKinematics.h</text>
</a>
</g>
<!-- Node1&#45;&gt;Node20 -->
<g id="edge62" class="edge"><title>Node1&#45;&gt;Node20</title>
<path fill="none" stroke="midnightblue" d="M1075.74,-116.113C1034.56,-107.461 947.962,-89.2644 892.516,-77.6142"/>
<polygon fill="midnightblue" stroke="midnightblue" points="893.049,-74.1499 882.543,-75.5188 891.61,-81.0003 893.049,-74.1499"/>
</g>
<!-- Node21 -->
<g id="node55" class="node"><title>Node21</title>
<a xlink:href="_calc_co_m_8h.html" target="_top" xlink:title="CalcCoM.h">
<polygon fill="white" stroke="black" points="927.5,-56.5 927.5,-75.5 992.5,-75.5 992.5,-56.5 927.5,-56.5"/>
<text text-anchor="middle" x="960" y="-63.5" font-family="Helvetica,sans-Serif" font-size="10.00">CalcCoM.h</text>
</a>
</g>
<!-- Node1&#45;&gt;Node21 -->
<g id="edge68" class="edge"><title>Node1&#45;&gt;Node21</title>
<path fill="none" stroke="midnightblue" d="M1076.98,-112.444C1053.9,-103.478 1017.44,-89.314 991.359,-79.1827"/>
<polygon fill="midnightblue" stroke="midnightblue" points="992.511,-75.8753 981.922,-75.5164 989.976,-82.4002 992.511,-75.8753"/>
</g>
<!-- Node22 -->
<g id="node59" class="node"><title>Node22</title>
<a xlink:href="_draw_marker_8h.html" target="_top" xlink:title="DrawMarker.h">
<polygon fill="white" stroke="black" points="1010.5,-56.5 1010.5,-75.5 1087.5,-75.5 1087.5,-56.5 1010.5,-56.5"/>
<text text-anchor="middle" x="1049" y="-63.5" font-family="Helvetica,sans-Serif" font-size="10.00">DrawMarker.h</text>
</a>
</g>
<!-- Node1&#45;&gt;Node22 -->
<g id="edge74" class="edge"><title>Node1&#45;&gt;Node22</title>
<path fill="none" stroke="midnightblue" d="M1090.74,-112.083C1083.54,-104.298 1072.89,-92.8015 1064.15,-83.3665"/>
<polygon fill="midnightblue" stroke="midnightblue" points="1066.47,-80.7108 1057.1,-75.7511 1061.33,-85.4666 1066.47,-80.7108"/>
</g>
<!-- Node23 -->
<g id="node63" class="node"><title>Node23</title>
<a xlink:href="_draw_indicators_8h.html" target="_top" xlink:title="DrawIndicators.h">
<polygon fill="white" stroke="black" points="1105.5,-56.5 1105.5,-75.5 1194.5,-75.5 1194.5,-56.5 1105.5,-56.5"/>
<text text-anchor="middle" x="1150" y="-63.5" font-family="Helvetica,sans-Serif" font-size="10.00">DrawIndicators.h</text>
</a>
</g>
<!-- Node1&#45;&gt;Node23 -->
<g id="edge80" class="edge"><title>Node1&#45;&gt;Node23</title>
<path fill="none" stroke="midnightblue" d="M1107.42,-112.083C1114.85,-104.22 1125.85,-92.5688 1134.81,-83.0813"/>
<polygon fill="midnightblue" stroke="midnightblue" points="1137.41,-85.4244 1141.74,-75.7511 1132.32,-80.618 1137.41,-85.4244"/>
</g>
<!-- Node24 -->
<g id="node67" class="node"><title>Node24</title>
<a xlink:href="_setup_8h.html" target="_top" xlink:title="Contain setup of simulations.">
<polygon fill="white" stroke="black" points="1986,-56.5 1986,-75.5 2036,-75.5 2036,-56.5 1986,-56.5"/>
<text text-anchor="middle" x="2011" y="-63.5" font-family="Helvetica,sans-Serif" font-size="10.00">Setup.h</text>
</a>
</g>
<!-- Node1&#45;&gt;Node24 -->
<g id="edge86" class="edge"><title>Node1&#45;&gt;Node24</title>
<path fill="none" stroke="midnightblue" d="M1122.04,-120.467C1240.77,-117.623 1784.92,-103.388 1975.71,-75.8092"/>
<polygon fill="midnightblue" stroke="midnightblue" points="1976.51,-79.2278 1985.87,-74.2734 1975.46,-72.3064 1976.51,-79.2278"/>
</g>
<!-- Node25 -->
<g id="node69" class="node"><title>Node25</title>
<a xlink:href="_total_mass_8h.html" target="_top" xlink:title="TotalMass.h">
<polygon fill="white" stroke="black" points="1213,-56.5 1213,-75.5 1283,-75.5 1283,-56.5 1213,-56.5"/>
<text text-anchor="middle" x="1248" y="-63.5" font-family="Helvetica,sans-Serif" font-size="10.00">TotalMass.h</text>
</a>
</g>
<!-- Node1&#45;&gt;Node25 -->
<g id="edge88" class="edge"><title>Node1&#45;&gt;Node25</title>
<path fill="none" stroke="midnightblue" d="M1122.28,-112.563C1147.17,-103.541 1186.86,-89.1599 1214.97,-78.9702"/>
<polygon fill="midnightblue" stroke="midnightblue" points="1216.18,-82.2544 1224.39,-75.5565 1213.8,-75.6733 1216.18,-82.2544"/>
</g>
<!-- Node13&#45;&gt;Node5 -->
<g id="edge26" class="edge"><title>Node13&#45;&gt;Node5</title>
<path fill="none" stroke="midnightblue" d="M1301.49,-57.8978C1298.32,-57.1734 1295.09,-56.5158 1292,-56 1266.64,-51.7724 909.432,-24.9945 773.235,-14.8702"/>
<polygon fill="midnightblue" stroke="midnightblue" points="773.282,-11.3642 763.05,-14.1136 772.763,-18.3449 773.282,-11.3642"/>
</g>
<!-- Node13&#45;&gt;Node6 -->
<g id="edge28" class="edge"><title>Node13&#45;&gt;Node6</title>
<path fill="none" stroke="midnightblue" d="M1301.48,-58.0057C1298.3,-57.2628 1295.08,-56.5713 1292,-56 1172.32,-33.8345 1029.89,-20.7285 954.313,-14.8058"/>
<polygon fill="midnightblue" stroke="midnightblue" points="954.341,-11.2977 944.101,-14.0176 953.802,-18.2769 954.341,-11.2977"/>
</g>
<!-- Node14&#45;&gt;Node5 -->
<g id="edge32" class="edge"><title>Node14&#45;&gt;Node5</title>
<path fill="none" stroke="midnightblue" d="M319.715,-57.4271C322.854,-56.9221 325.975,-56.4401 329,-56 450.232,-38.361 593.387,-23.4057 668.671,-15.9927"/>
<polygon fill="midnightblue" stroke="midnightblue" points="669.223,-19.4555 678.834,-14.9973 668.541,-12.4888 669.223,-19.4555"/>
</g>
<!-- Node14&#45;&gt;Node6 -->
<g id="edge34" class="edge"><title>Node14&#45;&gt;Node6</title>
<path fill="none" stroke="midnightblue" d="M319.699,-57.3048C322.841,-56.8281 325.968,-56.3859 329,-56 379.57,-49.5638 715.01,-24.6472 847.402,-14.9207"/>
<polygon fill="midnightblue" stroke="midnightblue" points="847.984,-18.3874 857.701,-14.1645 847.472,-11.4062 847.984,-18.3874"/>
</g>
<!-- Node15&#45;&gt;Node5 -->
<g id="edge38" class="edge"><title>Node15&#45;&gt;Node5</title>
<path fill="none" stroke="midnightblue" d="M406.231,-57.6411C409.193,-57.0634 412.147,-56.5079 415,-56 503.704,-40.2095 607.586,-25.7863 668.642,-17.7217"/>
<polygon fill="midnightblue" stroke="midnightblue" points="669.339,-21.1604 678.797,-16.3869 668.426,-14.2201 669.339,-21.1604"/>
</g>
<!-- Node15&#45;&gt;Node6 -->
<g id="edge40" class="edge"><title>Node15&#45;&gt;Node6</title>
<path fill="none" stroke="midnightblue" d="M406.204,-57.4741C409.171,-56.9327 412.134,-56.4312 415,-56 497.291,-43.6197 739.397,-23.747 847.643,-15.1667"/>
<polygon fill="midnightblue" stroke="midnightblue" points="847.997,-18.6497 857.69,-14.3723 847.445,-11.6715 847.997,-18.6497"/>
</g>
<!-- Node17&#45;&gt;Node5 -->
<g id="edge46" class="edge"><title>Node17&#45;&gt;Node5</title>
<path fill="none" stroke="midnightblue" d="M507.247,-56.4435C551.65,-47.0036 623.153,-31.802 671.088,-21.6111"/>
<polygon fill="midnightblue" stroke="midnightblue" points="671.888,-25.0195 680.941,-19.5164 670.432,-18.1725 671.888,-25.0195"/>
</g>
<!-- Node17&#45;&gt;Node6 -->
<g id="edge48" class="edge"><title>Node17&#45;&gt;Node6</title>
<path fill="none" stroke="midnightblue" d="M509.547,-57.3025C512.405,-56.8438 515.242,-56.405 518,-56 635.355,-38.7655 773.713,-23.8331 847.797,-16.2707"/>
<polygon fill="midnightblue" stroke="midnightblue" points="848.22,-19.7459 857.815,-15.2531 847.512,-12.7817 848.22,-19.7459"/>
</g>
<!-- Node18&#45;&gt;Node5 -->
<g id="edge52" class="edge"><title>Node18&#45;&gt;Node5</title>
<path fill="none" stroke="midnightblue" d="M601.5,-56.4435C625.077,-47.4776 662.322,-33.314 688.964,-23.1827"/>
<polygon fill="midnightblue" stroke="midnightblue" points="690.502,-26.3424 698.605,-19.5164 688.014,-19.7995 690.502,-26.3424"/>
</g>
<!-- Node18&#45;&gt;Node6 -->
<g id="edge54" class="edge"><title>Node18&#45;&gt;Node6</title>
<path fill="none" stroke="midnightblue" d="M630.022,-56.4435C689.533,-46.4634 787.445,-30.0434 847.853,-19.9129"/>
<polygon fill="midnightblue" stroke="midnightblue" points="848.662,-23.3261 857.946,-18.2203 847.504,-16.4225 848.662,-23.3261"/>
</g>
<!-- Node19&#45;&gt;Node5 -->
<g id="edge58" class="edge"><title>Node19&#45;&gt;Node5</title>
<path fill="none" stroke="midnightblue" d="M705.972,-56.083C708.384,-48.8486 711.864,-38.4087 714.868,-29.3968"/>
<polygon fill="midnightblue" stroke="midnightblue" points="718.241,-30.3447 718.083,-19.7511 711.6,-28.1311 718.241,-30.3447"/>
</g>
<!-- Node19&#45;&gt;Node6 -->
<g id="edge60" class="edge"><title>Node19&#45;&gt;Node6</title>
<path fill="none" stroke="midnightblue" d="M734.374,-56.4435C768.263,-47.2011 822.403,-32.4356 859.724,-22.2572"/>
<polygon fill="midnightblue" stroke="midnightblue" points="861.046,-25.5243 869.773,-19.5164 859.205,-18.771 861.046,-25.5243"/>
</g>
<!-- Node20&#45;&gt;Node5 -->
<g id="edge64" class="edge"><title>Node20&#45;&gt;Node5</title>
<path fill="none" stroke="midnightblue" d="M822.827,-56.4435C803.091,-47.6356 772.115,-33.8116 749.507,-23.722"/>
<polygon fill="midnightblue" stroke="midnightblue" points="750.641,-20.3957 740.083,-19.5164 747.789,-26.788 750.641,-20.3957"/>
</g>
<!-- Node20&#45;&gt;Node6 -->
<g id="edge66" class="edge"><title>Node20&#45;&gt;Node6</title>
<path fill="none" stroke="midnightblue" d="M851.479,-56.324C860.201,-48.3414 873.343,-36.3128 883.898,-26.6529"/>
<polygon fill="midnightblue" stroke="midnightblue" points="886.334,-29.1674 891.348,-19.8339 881.608,-24.0036 886.334,-29.1674"/>
</g>
<!-- Node21&#45;&gt;Node5 -->
<g id="edge70" class="edge"><title>Node21&#45;&gt;Node5</title>
<path fill="none" stroke="midnightblue" d="M927.269,-57.6048C886.297,-48.3475 815.8,-32.4192 768.793,-21.7983"/>
<polygon fill="midnightblue" stroke="midnightblue" points="769.371,-18.3409 758.846,-19.5509 767.828,-25.1688 769.371,-18.3409"/>
</g>
<!-- Node21&#45;&gt;Node6 -->
<g id="edge72" class="edge"><title>Node21&#45;&gt;Node6</title>
<path fill="none" stroke="midnightblue" d="M950.521,-56.324C941.799,-48.3414 928.657,-36.3128 918.102,-26.6529"/>
<polygon fill="midnightblue" stroke="midnightblue" points="920.392,-24.0036 910.652,-19.8339 915.666,-29.1674 920.392,-24.0036"/>
</g>
<!-- Node22&#45;&gt;Node5 -->
<g id="edge76" class="edge"><title>Node22&#45;&gt;Node5</title>
<path fill="none" stroke="midnightblue" d="M1010.24,-57.6436C1007.12,-57.0777 1004.01,-56.5235 1001,-56 921.774,-42.2086 829.663,-27.6974 773.36,-18.9989"/>
<polygon fill="midnightblue" stroke="midnightblue" points="773.692,-15.5088 763.275,-17.4439 772.625,-22.427 773.692,-15.5088"/>
</g>
<!-- Node22&#45;&gt;Node6 -->
<g id="edge78" class="edge"><title>Node22&#45;&gt;Node6</title>
<path fill="none" stroke="midnightblue" d="M1025.55,-56.4435C1000.87,-47.4381 961.815,-33.1891 934.023,-23.049"/>
<polygon fill="midnightblue" stroke="midnightblue" points="934.935,-19.6561 924.341,-19.5164 932.536,-26.2321 934.935,-19.6561"/>
</g>
<!-- Node23&#45;&gt;Node5 -->
<g id="edge82" class="edge"><title>Node23&#45;&gt;Node5</title>
<path fill="none" stroke="midnightblue" d="M1105.24,-57.3774C1102.11,-56.8954 1099.01,-56.4313 1096,-56 981.239,-39.5596 846.125,-24.3637 773.511,-16.5351"/>
<polygon fill="midnightblue" stroke="midnightblue" points="773.578,-13.0222 763.261,-15.4342 772.83,-19.9821 773.578,-13.0222"/>
</g>
<!-- Node23&#45;&gt;Node6 -->
<g id="edge84" class="edge"><title>Node23&#45;&gt;Node6</title>
<path fill="none" stroke="midnightblue" d="M1110.55,-56.4435C1067.11,-47.0234 997.214,-31.8656 950.224,-21.6752"/>
<polygon fill="midnightblue" stroke="midnightblue" points="950.785,-18.2154 940.27,-19.5164 949.301,-25.0564 950.785,-18.2154"/>
</g>
<!-- Node25&#45;&gt;Node5 -->
<g id="edge90" class="edge"><title>Node25&#45;&gt;Node5</title>
<path fill="none" stroke="midnightblue" d="M1212.69,-57.5756C1209.42,-56.9981 1206.15,-56.4612 1203,-56 1121.21,-44.0367 880.548,-23.8907 773.441,-15.1994"/>
<polygon fill="midnightblue" stroke="midnightblue" points="773.446,-11.6884 763.197,-14.3699 772.882,-18.6656 773.446,-11.6884"/>
</g>
<!-- Node25&#45;&gt;Node6 -->
<g id="edge92" class="edge"><title>Node25&#45;&gt;Node6</title>
<path fill="none" stroke="midnightblue" d="M1212.66,-57.7599C1209.4,-57.1436 1206.14,-56.5475 1203,-56 1116.12,-40.8482 1014.61,-26.384 954.181,-18.1133"/>
<polygon fill="midnightblue" stroke="midnightblue" points="954.499,-14.6243 944.117,-16.7412 953.553,-21.5601 954.499,-14.6243"/>
</g>
</g>
</svg>
        <g id="navigator" transform="translate(0 0)" fill="#404254">
                <rect fill="#f2f5e9" fill-opacity="0.5" stroke="#606060" stroke-width=".5" x="0" y="0" width="60" height="60"/>
                <use id="zoomplus" xlink:href="#zoomPlus" x="17" y="9" onmousedown="handleZoom(evt,'in')"/>
                <use id="zoomminus" xlink:href="#zoomMin" x="42" y="9" onmousedown="handleZoom(evt,'out')"/>
                <use id="reset" xlink:href="#resetDef" x="30" y="36" onmousedown="handleReset()"/>
                <g id="arrowUp" xlink:href="#dirArrow" transform="translate(30 24)" onmousedown="handlePan(0,-1)">
                  <use xlink:href="#rim" fill="#404040">
                        <set attributeName="fill" to="#808080" begin="arrowUp.mouseover" end="arrowUp.mouseout"/>
                  </use>
                  <path fill="none" stroke="white" stroke-width="1.5" d="M0,-3.0v7 M-2.5,-0.5L0,-3.0L2.5,-0.5"/>
                </g>
                <g id="arrowRight" xlink:href="#dirArrow" transform="rotate(90) translate(36 -43)" onmousedown="handlePan(1,0)">
                  <use xlink:href="#rim" fill="#404040">
                        <set attributeName="fill" to="#808080" begin="arrowRight.mouseover" end="arrowRight.mouseout"/>
                  </use>
                  <path fill="none" stroke="white" stroke-width="1.5" d="M0,-3.0v7 M-2.5,-0.5L0,-3.0L2.5,-0.5"/>
                </g>
                <g id="arrowDown" xlink:href="#dirArrow" transform="rotate(180) translate(-30 -48)" onmousedown="handlePan(0,1)">
                  <use xlink:href="#rim" fill="#404040">
                        <set attributeName="fill" to="#808080" begin="arrowDown.mouseover" end="arrowDown.mouseout"/>
                  </use>
                  <path fill="none" stroke="white" stroke-width="1.5" d="M0,-3.0v7 M-2.5,-0.5L0,-3.0L2.5,-0.5"/>
                </g>
                <g id="arrowLeft" xlink:href="#dirArrow" transform="rotate(270) translate(-36 17)" onmousedown="handlePan(-1,0)">
                  <use xlink:href="#rim" fill="#404040">
                        <set attributeName="fill" to="#808080" begin="arrowLeft.mouseover" end="arrowLeft.mouseout"/>
                  </use>
                  <path fill="none" stroke="white" stroke-width="1.5" d="M0,-3.0v7 M-2.5,-0.5L0,-3.0L2.5,-0.5"/>
                </g>
        </g>
</svg>
