<?xml version="1.0" encoding="UTF-8" standalone="no"?>
<!DOCTYPE svg PUBLIC "-//W3C//DTD SVG 1.1//EN"
 "http://www.w3.org/Graphics/SVG/1.1/DTD/svg11.dtd">
<!-- Generated by graphviz version 2.28.0 (20110507.0327)
 -->
<!-- Title: G Pages: 1 -->
<!--zoomable-->
<svg id="main" version="1.1" xmlns="http://www.w3.org/2000/svg" xmlns:xlink="http://www.w3.org/1999/xlink" xml:space="preserve" onload="init(evt)">
        <defs>
                <circle id="rim" cx="0" cy="0" r="7"/>
                <circle id="rim2" cx="0" cy="0" r="3.5"/>
                <g id="zoomPlus">
                        <use xlink:href="#rim" fill="#404040">
                                <set attributeName="fill" to="#808080" begin="zoomplus.mouseover" end="zoomplus.mouseout"/>
                        </use>
                        <path d="M-4,0h8M0,-4v8" fill="none" stroke="white" stroke-width="1.5" pointer-events="none"/>
                </g>
                <g id="zoomMin">
                        <use xlink:href="#rim" fill="#404040">
                                <set attributeName="fill" to="#808080" begin="zoomminus.mouseover" end="zoomminus.mouseout"/>
                        </use>
                        <path d="M-4,0h8" fill="none" stroke="white" stroke-width="1.5" pointer-events="none"/>
                </g>
                <g id="dirArrow">
                        <path fill="none" stroke="white" stroke-width="1.5" d="M0,-3.0v7 M-2.5,-0.5L0,-3.0L2.5,-0.5"/>
                </g>
               <g id="resetDef">
                       <use xlink:href="#rim2" fill="#404040">
                               <set attributeName="fill" to="#808080" begin="reset.mouseover" end="reset.mouseout"/>
                       </use>
               </g>
        </defs>

<script type="text/javascript">
var viewWidth = 2842;
var viewHeight = 84;
var sectionId = 'dynsection-1';
</script>
<script xlink:href="svgpan.js"/>
<svg id="graph" class="graph">
<g id="viewport">
<title>G</title>
<polygon fill="white" stroke="white" points="-4,5 -4,-80 2839,-80 2839,5 -4,5"/>
<!-- Node1 -->
<g id="node1" class="node"><title>Node1</title>
<polygon fill="#bfbfbf" stroke="black" points="1430,-56.5 1430,-75.5 1478,-75.5 1478,-56.5 1430,-56.5"/>
<text text-anchor="middle" x="1454" y="-63.5" font-family="Helvetica,sans-Serif" font-size="10.00">uLink.h</text>
</g>
<!-- Node2 -->
<g id="node3" class="node"><title>Node2</title>
<a xlink:href="_calc_co_m_8c.html" target="_top" xlink:title="CalcCoM.c">
<polygon fill="white" stroke="black" points="-0.5,-0.5 -0.5,-19.5 64.5,-19.5 64.5,-0.5 -0.5,-0.5"/>
<text text-anchor="middle" x="32" y="-7.5" font-family="Helvetica,sans-Serif" font-size="10.00">CalcCoM.c</text>
</a>
</g>
<!-- Node1&#45;&gt;Node2 -->
<g id="edge2" class="edge"><title>Node1&#45;&gt;Node2</title>
<path fill="none" stroke="midnightblue" d="M1419.78,-64.7366C1234.06,-63.1779 345.319,-54.0328 73,-20 70.2521,-19.6566 67.4166,-19.2168 64.5801,-18.7169"/>
<polygon fill="midnightblue" stroke="midnightblue" points="1419.77,-68.2365 1429.8,-64.819 1419.83,-61.2368 1419.77,-68.2365"/>
</g>
<!-- Node3 -->
<g id="node5" class="node"><title>Node3</title>
<a xlink:href="_calc_co_p_8c.html" target="_top" xlink:title="CalcCoP.c">
<polygon fill="white" stroke="black" points="82.5,-0.5 82.5,-19.5 145.5,-19.5 145.5,-0.5 82.5,-0.5"/>
<text text-anchor="middle" x="114" y="-7.5" font-family="Helvetica,sans-Serif" font-size="10.00">CalcCoP.c</text>
</a>
</g>
<!-- Node1&#45;&gt;Node3 -->
<g id="edge4" class="edge"><title>Node1&#45;&gt;Node3</title>
<path fill="none" stroke="midnightblue" d="M1419.58,-64.6531C1240.09,-62.716 410.056,-52.1415 155,-20 151.963,-19.6173 148.819,-19.118 145.685,-18.5505"/>
<polygon fill="midnightblue" stroke="midnightblue" points="1419.71,-68.1547 1429.75,-64.7612 1419.79,-61.1551 1419.71,-68.1547"/>
</g>
<!-- Node4 -->
<g id="node7" class="node"><title>Node4</title>
<a xlink:href="_calc_l_8c.html" target="_top" xlink:title="CalcL.c">
<polygon fill="white" stroke="black" points="164,-0.5 164,-19.5 214,-19.5 214,-0.5 164,-0.5"/>
<text text-anchor="middle" x="189" y="-7.5" font-family="Helvetica,sans-Serif" font-size="10.00">CalcL.c</text>
</a>
</g>
<!-- Node1&#45;&gt;Node4 -->
<g id="edge6" class="edge"><title>Node1&#45;&gt;Node4</title>
<path fill="none" stroke="midnightblue" d="M1419.42,-64.7731C1245.27,-63.4725 463.085,-55.7097 223,-20 220.101,-19.5688 217.094,-18.9829 214.121,-18.3155"/>
<polygon fill="midnightblue" stroke="midnightblue" points="1419.53,-68.2739 1429.55,-64.8465 1419.58,-61.2741 1419.53,-68.2739"/>
</g>
<!-- Node5 -->
<g id="node9" class="node"><title>Node5</title>
<a xlink:href="_calc_m_c_8c.html" target="_top" xlink:title="CalcMC.c">
<polygon fill="white" stroke="black" points="232.5,-0.5 232.5,-19.5 291.5,-19.5 291.5,-0.5 232.5,-0.5"/>
<text text-anchor="middle" x="262" y="-7.5" font-family="Helvetica,sans-Serif" font-size="10.00">CalcMC.c</text>
</a>
</g>
<!-- Node1&#45;&gt;Node5 -->
<g id="edge8" class="edge"><title>Node1&#45;&gt;Node5</title>
<path fill="none" stroke="midnightblue" d="M1419.5,-64.5554C1252.23,-62.2621 524.516,-50.6704 300,-20 297.313,-19.6329 294.538,-19.1609 291.768,-18.6256"/>
<polygon fill="midnightblue" stroke="midnightblue" points="1419.65,-68.0576 1429.7,-64.6931 1419.75,-61.0583 1419.65,-68.0576"/>
</g>
<!-- Node6 -->
<g id="node11" class="node"><title>Node6</title>
<a xlink:href="_calc_p_8c.html" target="_top" xlink:title="CalcP.c">
<polygon fill="white" stroke="black" points="309.5,-0.5 309.5,-19.5 360.5,-19.5 360.5,-0.5 309.5,-0.5"/>
<text text-anchor="middle" x="335" y="-7.5" font-family="Helvetica,sans-Serif" font-size="10.00">CalcP.c</text>
</a>
</g>
<!-- Node1&#45;&gt;Node6 -->
<g id="edge10" class="edge"><title>Node1&#45;&gt;Node6</title>
<path fill="none" stroke="midnightblue" d="M1419.52,-64.5778C1258.4,-62.4507 578.784,-51.7296 369,-20 366.344,-19.5982 363.596,-19.0687 360.867,-18.4672"/>
<polygon fill="midnightblue" stroke="midnightblue" points="1419.75,-68.0809 1429.79,-64.7109 1419.84,-61.0815 1419.75,-68.0809"/>
</g>
<!-- Node7 -->
<g id="node13" class="node"><title>Node7</title>
<a xlink:href="_connect3_d_8c.html" target="_top" xlink:title="Connect3D.c">
<polygon fill="white" stroke="black" points="378.5,-0.5 378.5,-19.5 451.5,-19.5 451.5,-0.5 378.5,-0.5"/>
<text text-anchor="middle" x="415" y="-7.5" font-family="Helvetica,sans-Serif" font-size="10.00">Connect3D.c</text>
</a>
</g>
<!-- Node1&#45;&gt;Node7 -->
<g id="edge12" class="edge"><title>Node1&#45;&gt;Node7</title>
<path fill="none" stroke="midnightblue" d="M1419.33,-65.3335C1291.36,-66.1616 833.646,-65.5537 460,-20 457.311,-19.6722 454.543,-19.2727 451.763,-18.8263"/>
<polygon fill="midnightblue" stroke="midnightblue" points="1419.69,-68.831 1429.67,-65.2585 1419.64,-61.8312 1419.69,-68.831"/>
</g>
<!-- Node8 -->
<g id="node15" class="node"><title>Node8</title>
<a xlink:href="_draw_all_joints_8c.html" target="_top" xlink:title="DrawAllJoints.c">
<polygon fill="white" stroke="black" points="469.5,-0.5 469.5,-19.5 552.5,-19.5 552.5,-0.5 469.5,-0.5"/>
<text text-anchor="middle" x="511" y="-7.5" font-family="Helvetica,sans-Serif" font-size="10.00">DrawAllJoints.c</text>
</a>
</g>
<!-- Node1&#45;&gt;Node8 -->
<g id="edge14" class="edge"><title>Node1&#45;&gt;Node8</title>
<path fill="none" stroke="midnightblue" d="M1419.46,-64.7989C1300.14,-63.7766 894.443,-57.5716 562,-20 558.962,-19.6567 555.832,-19.2458 552.687,-18.7914"/>
<polygon fill="midnightblue" stroke="midnightblue" points="1419.76,-68.3013 1429.79,-64.8803 1419.81,-61.3015 1419.76,-68.3013"/>
</g>
<!-- Node9 -->
<g id="node17" class="node"><title>Node9</title>
<a xlink:href="_draw_cylinder_8c.html" target="_top" xlink:title="DrawCylinder.c">
<polygon fill="white" stroke="black" points="571,-0.5 571,-19.5 653,-19.5 653,-0.5 571,-0.5"/>
<text text-anchor="middle" x="612" y="-7.5" font-family="Helvetica,sans-Serif" font-size="10.00">DrawCylinder.c</text>
</a>
</g>
<!-- Node1&#45;&gt;Node9 -->
<g id="edge16" class="edge"><title>Node1&#45;&gt;Node9</title>
<path fill="none" stroke="midnightblue" d="M1419.74,-64.5366C1309.46,-62.7284 953.866,-54.4308 662,-20 659.109,-19.659 656.133,-19.2564 653.142,-18.8137"/>
<polygon fill="midnightblue" stroke="midnightblue" points="1419.88,-68.0391 1429.93,-64.6964 1419.99,-61.04 1419.88,-68.0391"/>
</g>
<!-- Node10 -->
<g id="node19" class="node"><title>Node10</title>
<a xlink:href="_draw_indicators_8c.html" target="_top" xlink:title="DrawIndicators.c">
<polygon fill="white" stroke="black" points="671.5,-0.5 671.5,-19.5 760.5,-19.5 760.5,-0.5 671.5,-0.5"/>
<text text-anchor="middle" x="716" y="-7.5" font-family="Helvetica,sans-Serif" font-size="10.00">DrawIndicators.c</text>
</a>
</g>
<!-- Node1&#45;&gt;Node10 -->
<g id="edge18" class="edge"><title>Node1&#45;&gt;Node10</title>
<path fill="none" stroke="midnightblue" d="M1419.86,-63.9557C1319.76,-60.6351 1018.36,-48.7945 770,-20 766.979,-19.6497 763.869,-19.2464 760.74,-18.8088"/>
<polygon fill="midnightblue" stroke="midnightblue" points="1419.88,-67.4581 1429.99,-64.2851 1420.11,-60.4618 1419.88,-67.4581"/>
</g>
<!-- Node11 -->
<g id="node21" class="node"><title>Node11</title>
<a xlink:href="_draw_polygon_8c.html" target="_top" xlink:title="DrawPolygon.c">
<polygon fill="white" stroke="black" points="779,-0.5 779,-19.5 861,-19.5 861,-0.5 779,-0.5"/>
<text text-anchor="middle" x="820" y="-7.5" font-family="Helvetica,sans-Serif" font-size="10.00">DrawPolygon.c</text>
</a>
</g>
<!-- Node1&#45;&gt;Node11 -->
<g id="edge20" class="edge"><title>Node1&#45;&gt;Node11</title>
<path fill="none" stroke="midnightblue" d="M1419.81,-63.576C1329.61,-59.5583 1077.9,-46.6516 870,-20 867.113,-19.6299 864.139,-19.2057 861.15,-18.7474"/>
<polygon fill="midnightblue" stroke="midnightblue" points="1419.85,-67.0811 1429.99,-64.0223 1420.15,-60.0878 1419.85,-67.0811"/>
</g>
<!-- Node12 -->
<g id="node23" class="node"><title>Node12</title>
<a xlink:href="_external_forces_8c.html" target="_top" xlink:title="ExternalForces.c">
<polygon fill="white" stroke="black" points="879.5,-0.5 879.5,-19.5 970.5,-19.5 970.5,-0.5 879.5,-0.5"/>
<text text-anchor="middle" x="925" y="-7.5" font-family="Helvetica,sans-Serif" font-size="10.00">ExternalForces.c</text>
</a>
</g>
<!-- Node1&#45;&gt;Node12 -->
<g id="edge22" class="edge"><title>Node1&#45;&gt;Node12</title>
<path fill="none" stroke="midnightblue" d="M1419.52,-62.5294C1341.22,-56.743 1144.03,-41.1829 980,-20 976.929,-19.6035 973.767,-19.1654 970.584,-18.7025"/>
<polygon fill="midnightblue" stroke="midnightblue" points="1419.54,-66.0398 1429.76,-63.2806 1420.05,-59.0586 1419.54,-66.0398"/>
</g>
<!-- Node13 -->
<g id="node25" class="node"><title>Node13</title>
<a xlink:href="_find_mother_8c.html" target="_top" xlink:title="FindMother.c">
<polygon fill="white" stroke="black" points="989,-0.5 989,-19.5 1063,-19.5 1063,-0.5 989,-0.5"/>
<text text-anchor="middle" x="1026" y="-7.5" font-family="Helvetica,sans-Serif" font-size="10.00">FindMother.c</text>
</a>
</g>
<!-- Node1&#45;&gt;Node13 -->
<g id="edge24" class="edge"><title>Node1&#45;&gt;Node13</title>
<path fill="none" stroke="midnightblue" d="M1419.78,-61.8493C1352.8,-55.4872 1199.75,-39.993 1072,-20 1069.11,-19.5471 1066.12,-19.0435 1063.11,-18.5126"/>
<polygon fill="midnightblue" stroke="midnightblue" points="1419.49,-65.3374 1429.78,-62.7913 1420.15,-58.3683 1419.49,-65.3374"/>
</g>
<!-- Node14 -->
<g id="node27" class="node"><title>Node14</title>
<a xlink:href="_forward_all_kinematics_8c.html" target="_top" xlink:title="ForwardAllKinematics.c">
<polygon fill="white" stroke="black" points="1081.5,-0.5 1081.5,-19.5 1200.5,-19.5 1200.5,-0.5 1081.5,-0.5"/>
<text text-anchor="middle" x="1141" y="-7.5" font-family="Helvetica,sans-Serif" font-size="10.00">ForwardAllKinematics.c</text>
</a>
</g>
<!-- Node1&#45;&gt;Node14 -->
<g id="edge26" class="edge"><title>Node1&#45;&gt;Node14</title>
<path fill="none" stroke="midnightblue" d="M1419.94,-59.1242C1364.48,-49.5548 1254.4,-30.5648 1190.36,-19.5162"/>
<polygon fill="midnightblue" stroke="midnightblue" points="1419.51,-62.6012 1429.96,-60.8524 1420.7,-55.7031 1419.51,-62.6012"/>
</g>
<!-- Node15 -->
<g id="node29" class="node"><title>Node15</title>
<a xlink:href="_forward_dynamics_8c.html" target="_top" xlink:title="ForwardDynamics.c">
<polygon fill="white" stroke="black" points="1218.5,-0.5 1218.5,-19.5 1321.5,-19.5 1321.5,-0.5 1218.5,-0.5"/>
<text text-anchor="middle" x="1270" y="-7.5" font-family="Helvetica,sans-Serif" font-size="10.00">ForwardDynamics.c</text>
</a>
</g>
<!-- Node1&#45;&gt;Node15 -->
<g id="edge28" class="edge"><title>Node1&#45;&gt;Node15</title>
<path fill="none" stroke="midnightblue" d="M1420.26,-55.0989C1385.59,-44.9225 1332.15,-29.2394 1299.22,-19.576"/>
<polygon fill="midnightblue" stroke="midnightblue" points="1419.36,-58.4827 1429.95,-57.9404 1421.34,-51.766 1419.36,-58.4827"/>
</g>
<!-- Node16 -->
<g id="node31" class="node"><title>Node16</title>
<a xlink:href="_forward_kinematics_8c.html" target="_top" xlink:title="ForwardKinematics.c">
<polygon fill="white" stroke="black" points="1340,-0.5 1340,-19.5 1448,-19.5 1448,-0.5 1340,-0.5"/>
<text text-anchor="middle" x="1394" y="-7.5" font-family="Helvetica,sans-Serif" font-size="10.00">ForwardKinematics.c</text>
</a>
</g>
<!-- Node1&#45;&gt;Node16 -->
<g id="edge30" class="edge"><title>Node1&#45;&gt;Node16</title>
<path fill="none" stroke="midnightblue" d="M1436.82,-49.5372C1426.12,-39.9087 1412.74,-27.8694 1403.82,-19.8339"/>
<polygon fill="midnightblue" stroke="midnightblue" points="1434.59,-52.2358 1444.36,-56.324 1439.27,-47.0327 1434.59,-52.2358"/>
</g>
<!-- Node17 -->
<g id="node33" class="node"><title>Node17</title>
<a xlink:href="_forward_velocity_8c.html" target="_top" xlink:title="ForwardVelocity.c">
<polygon fill="white" stroke="black" points="1466.5,-0.5 1466.5,-19.5 1561.5,-19.5 1561.5,-0.5 1466.5,-0.5"/>
<text text-anchor="middle" x="1514" y="-7.5" font-family="Helvetica,sans-Serif" font-size="10.00">ForwardVelocity.c</text>
</a>
</g>
<!-- Node1&#45;&gt;Node17 -->
<g id="edge32" class="edge"><title>Node1&#45;&gt;Node17</title>
<path fill="none" stroke="midnightblue" d="M1471.18,-49.5372C1481.88,-39.9087 1495.26,-27.8694 1504.18,-19.8339"/>
<polygon fill="midnightblue" stroke="midnightblue" points="1468.73,-47.0327 1463.64,-56.324 1473.41,-52.2358 1468.73,-47.0327"/>
</g>
<!-- Node18 -->
<g id="node35" class="node"><title>Node18</title>
<a xlink:href="_gravity_8c.html" target="_top" xlink:title="Gravity.c">
<polygon fill="white" stroke="black" points="1579.5,-0.5 1579.5,-19.5 1634.5,-19.5 1634.5,-0.5 1579.5,-0.5"/>
<text text-anchor="middle" x="1607" y="-7.5" font-family="Helvetica,sans-Serif" font-size="10.00">Gravity.c</text>
</a>
</g>
<!-- Node1&#45;&gt;Node18 -->
<g id="edge34" class="edge"><title>Node1&#45;&gt;Node18</title>
<path fill="none" stroke="midnightblue" d="M1487.89,-53.0392C1516.68,-42.8786 1557.29,-28.5457 1582.87,-19.5164"/>
<polygon fill="midnightblue" stroke="midnightblue" points="1486.51,-49.8148 1478.24,-56.4435 1488.84,-56.4157 1486.51,-49.8148"/>
</g>
<!-- Node19 -->
<g id="node37" class="node"><title>Node19</title>
<a xlink:href="_integrate_euler_8c.html" target="_top" xlink:title="IntegrateEuler.c">
<polygon fill="white" stroke="black" points="1652.5,-0.5 1652.5,-19.5 1737.5,-19.5 1737.5,-0.5 1652.5,-0.5"/>
<text text-anchor="middle" x="1695" y="-7.5" font-family="Helvetica,sans-Serif" font-size="10.00">IntegrateEuler.c</text>
</a>
</g>
<!-- Node1&#45;&gt;Node19 -->
<g id="edge36" class="edge"><title>Node1&#45;&gt;Node19</title>
<path fill="none" stroke="midnightblue" d="M1488.2,-57.3363C1532.71,-47.3645 1610.25,-29.9901 1656.68,-19.5851"/>
<polygon fill="midnightblue" stroke="midnightblue" points="1487.43,-53.9232 1478.43,-59.525 1488.96,-60.7538 1487.43,-53.9232"/>
</g>
<!-- Node20 -->
<g id="node39" class="node"><title>Node20</title>
<a xlink:href="_inv_dyn_8c.html" target="_top" xlink:title="InvDyn.c">
<polygon fill="white" stroke="black" points="1755.5,-0.5 1755.5,-19.5 1808.5,-19.5 1808.5,-0.5 1755.5,-0.5"/>
<text text-anchor="middle" x="1782" y="-7.5" font-family="Helvetica,sans-Serif" font-size="10.00">InvDyn.c</text>
</a>
</g>
<!-- Node1&#45;&gt;Node20 -->
<g id="edge38" class="edge"><title>Node1&#45;&gt;Node20</title>
<path fill="none" stroke="midnightblue" d="M1488.57,-60.7212C1543.41,-53.698 1653.61,-38.627 1746,-20 1749.03,-19.3889 1752.19,-18.6905 1755.33,-17.9591"/>
<polygon fill="midnightblue" stroke="midnightblue" points="1487.84,-57.2856 1478.36,-62.0172 1488.72,-64.2299 1487.84,-57.2856"/>
</g>
<!-- Node21 -->
<g id="node41" class="node"><title>Node21</title>
<a xlink:href="_inverse_dynamics_8c.html" target="_top" xlink:title="InverseDynamics.c">
<polygon fill="white" stroke="black" points="1827,-0.5 1827,-19.5 1925,-19.5 1925,-0.5 1827,-0.5"/>
<text text-anchor="middle" x="1876" y="-7.5" font-family="Helvetica,sans-Serif" font-size="10.00">InverseDynamics.c</text>
</a>
</g>
<!-- Node1&#45;&gt;Node21 -->
<g id="edge40" class="edge"><title>Node1&#45;&gt;Node21</title>
<path fill="none" stroke="midnightblue" d="M1488.25,-61.0782C1552.69,-53.6283 1696.33,-36.6792 1817,-20 1820.18,-19.5602 1823.46,-19.0949 1826.76,-18.6168"/>
<polygon fill="midnightblue" stroke="midnightblue" points="1487.78,-57.6097 1478.24,-62.2324 1488.58,-64.5636 1487.78,-57.6097"/>
</g>
<!-- Node22 -->
<g id="node43" class="node"><title>Node22</title>
<a xlink:href="main_8c.html" target="_top" xlink:title="This is the multi body simulator.">
<polygon fill="white" stroke="black" points="1943,-0.5 1943,-19.5 1989,-19.5 1989,-0.5 1943,-0.5"/>
<text text-anchor="middle" x="1966" y="-7.5" font-family="Helvetica,sans-Serif" font-size="10.00">main.c</text>
</a>
</g>
<!-- Node1&#45;&gt;Node22 -->
<g id="edge42" class="edge"><title>Node1&#45;&gt;Node22</title>
<path fill="none" stroke="midnightblue" d="M1488.56,-63.9002C1567.89,-60.9105 1768.96,-50.685 1934,-20 1936.84,-19.4726 1939.79,-18.8078 1942.7,-18.0795"/>
<polygon fill="midnightblue" stroke="midnightblue" points="1488.05,-60.416 1478.19,-64.2754 1488.31,-67.4114 1488.05,-60.416"/>
</g>
<!-- Node23 -->
<g id="node45" class="node"><title>Node23</title>
<a xlink:href="_one_foot_trajectory_8c.html" target="_top" xlink:title="OneFootTrajectory.c">
<polygon fill="white" stroke="black" points="2007.5,-0.5 2007.5,-19.5 2112.5,-19.5 2112.5,-0.5 2007.5,-0.5"/>
<text text-anchor="middle" x="2060" y="-7.5" font-family="Helvetica,sans-Serif" font-size="10.00">OneFootTrajectory.c</text>
</a>
</g>
<!-- Node1&#45;&gt;Node23 -->
<g id="edge44" class="edge"><title>Node1&#45;&gt;Node23</title>
<path fill="none" stroke="midnightblue" d="M1488.41,-62.8926C1574.47,-57.4618 1805.89,-41.8678 1998,-20 2001.03,-19.6556 2004.13,-19.2788 2007.26,-18.8809"/>
<polygon fill="midnightblue" stroke="midnightblue" points="1487.94,-59.4149 1478.18,-63.5333 1488.38,-66.4012 1487.94,-59.4149"/>
</g>
<!-- Node24 -->
<g id="node47" class="node"><title>Node24</title>
<a xlink:href="_print_state_8c.html" target="_top" xlink:title="PrintState.c">
<polygon fill="white" stroke="black" points="2131,-0.5 2131,-19.5 2199,-19.5 2199,-0.5 2131,-0.5"/>
<text text-anchor="middle" x="2165" y="-7.5" font-family="Helvetica,sans-Serif" font-size="10.00">PrintState.c</text>
</a>
</g>
<!-- Node1&#45;&gt;Node24 -->
<g id="edge46" class="edge"><title>Node1&#45;&gt;Node24</title>
<path fill="none" stroke="midnightblue" d="M1488.32,-64.3107C1587.05,-61.9785 1880.16,-52.6048 2121,-20 2124.25,-19.5607 2127.61,-19.0232 2130.97,-18.4317"/>
<polygon fill="midnightblue" stroke="midnightblue" points="1487.96,-60.8177 1478.05,-64.5441 1488.12,-67.8159 1487.96,-60.8177"/>
</g>
<!-- Node25 -->
<g id="node49" class="node"><title>Node25</title>
<a xlink:href="_s_e3exp_8c.html" target="_top" xlink:title="SE3exp.c">
<polygon fill="white" stroke="black" points="2217.5,-0.5 2217.5,-19.5 2276.5,-19.5 2276.5,-0.5 2217.5,-0.5"/>
<text text-anchor="middle" x="2247" y="-7.5" font-family="Helvetica,sans-Serif" font-size="10.00">SE3exp.c</text>
</a>
</g>
<!-- Node1&#45;&gt;Node25 -->
<g id="edge48" class="edge"><title>Node1&#45;&gt;Node25</title>
<path fill="none" stroke="midnightblue" d="M1488.46,-64.9866C1595.65,-64.5089 1932.56,-59.7158 2208,-20 2211.03,-19.5637 2214.16,-19.0114 2217.29,-18.3961"/>
<polygon fill="midnightblue" stroke="midnightblue" points="1488.23,-61.4873 1478.24,-65.0218 1488.25,-68.4872 1488.23,-61.4873"/>
</g>
<!-- Node26 -->
<g id="node51" class="node"><title>Node26</title>
<a xlink:href="_setup_rigid_body_8c.html" target="_top" xlink:title="SetupRigidBody.c">
<polygon fill="white" stroke="black" points="2294.5,-0.5 2294.5,-19.5 2389.5,-19.5 2389.5,-0.5 2294.5,-0.5"/>
<text text-anchor="middle" x="2342" y="-7.5" font-family="Helvetica,sans-Serif" font-size="10.00">SetupRigidBody.c</text>
</a>
</g>
<!-- Node1&#45;&gt;Node26 -->
<g id="edge50" class="edge"><title>Node1&#45;&gt;Node26</title>
<path fill="none" stroke="midnightblue" d="M1488.4,-64.3998C1602.24,-62.1441 1977.04,-52.5643 2285,-20 2288.09,-19.6734 2291.26,-19.294 2294.46,-18.8792"/>
<polygon fill="midnightblue" stroke="midnightblue" points="1488.14,-60.9041 1478.21,-64.5958 1488.27,-67.9028 1488.14,-60.9041"/>
</g>
<!-- Node27 -->
<g id="node53" class="node"><title>Node27</title>
<a xlink:href="_stabilizator_8c.html" target="_top" xlink:title="Stabilizator.c">
<polygon fill="white" stroke="black" points="2408,-0.5 2408,-19.5 2482,-19.5 2482,-0.5 2408,-0.5"/>
<text text-anchor="middle" x="2445" y="-7.5" font-family="Helvetica,sans-Serif" font-size="10.00">Stabilizator.c</text>
</a>
</g>
<!-- Node1&#45;&gt;Node27 -->
<g id="edge52" class="edge"><title>Node1&#45;&gt;Node27</title>
<path fill="none" stroke="midnightblue" d="M1488.52,-65.1137C1612.18,-65.1481 2044.53,-62.0535 2398,-20 2401.22,-19.6172 2404.55,-19.1422 2407.88,-18.6119"/>
<polygon fill="midnightblue" stroke="midnightblue" points="1488.18,-61.6135 1478.17,-65.1031 1488.17,-68.6135 1488.18,-61.6135"/>
</g>
<!-- Node28 -->
<g id="node55" class="node"><title>Node28</title>
<a xlink:href="_static_trajectory_8c.html" target="_top" xlink:title="StaticTrajectory.c">
<polygon fill="white" stroke="black" points="2500.5,-0.5 2500.5,-19.5 2593.5,-19.5 2593.5,-0.5 2500.5,-0.5"/>
<text text-anchor="middle" x="2547" y="-7.5" font-family="Helvetica,sans-Serif" font-size="10.00">StaticTrajectory.c</text>
</a>
</g>
<!-- Node1&#45;&gt;Node28 -->
<g id="edge54" class="edge"><title>Node1&#45;&gt;Node28</title>
<path fill="none" stroke="midnightblue" d="M1488.39,-64.9532C1619.27,-64.4689 2098.65,-59.905 2491,-20 2494.04,-19.6911 2497.16,-19.3251 2500.3,-18.9202"/>
<polygon fill="midnightblue" stroke="midnightblue" points="1488.18,-61.4537 1478.19,-64.985 1488.2,-68.4537 1488.18,-61.4537"/>
</g>
<!-- Node29 -->
<g id="node57" class="node"><title>Node29</title>
<a xlink:href="_total_mass_8c.html" target="_top" xlink:title="TotalMass.c">
<polygon fill="white" stroke="black" points="2612,-0.5 2612,-19.5 2682,-19.5 2682,-0.5 2612,-0.5"/>
<text text-anchor="middle" x="2647" y="-7.5" font-family="Helvetica,sans-Serif" font-size="10.00">TotalMass.c</text>
</a>
</g>
<!-- Node1&#45;&gt;Node29 -->
<g id="edge56" class="edge"><title>Node1&#45;&gt;Node29</title>
<path fill="none" stroke="midnightblue" d="M1488.3,-64.3882C1654.6,-61.3099 2378.15,-46.6027 2602,-20 2605.16,-19.6239 2608.44,-19.1456 2611.71,-18.6063"/>
<polygon fill="midnightblue" stroke="midnightblue" points="1488.1,-60.8913 1478.16,-64.5742 1488.22,-67.8901 1488.1,-60.8913"/>
</g>
<!-- Node30 -->
<g id="node59" class="node"><title>Node30</title>
<a xlink:href="_trajectory_8c.html" target="_top" xlink:title="Trajectory.c">
<polygon fill="white" stroke="black" points="2700,-0.5 2700,-19.5 2768,-19.5 2768,-0.5 2700,-0.5"/>
<text text-anchor="middle" x="2734" y="-7.5" font-family="Helvetica,sans-Serif" font-size="10.00">Trajectory.c</text>
</a>
</g>
<!-- Node1&#45;&gt;Node30 -->
<g id="edge58" class="edge"><title>Node1&#45;&gt;Node30</title>
<path fill="none" stroke="midnightblue" d="M1488.15,-64.5429C1661.85,-62.098 2448.62,-49.5558 2691,-20 2693.88,-19.6492 2696.85,-19.2042 2699.82,-18.7008"/>
<polygon fill="midnightblue" stroke="midnightblue" points="1488,-61.0445 1478.05,-64.6833 1488.1,-68.0438 1488,-61.0445"/>
</g>
<!-- Node31 -->
<g id="node61" class="node"><title>Node31</title>
<a xlink:href="u_link_8c.html" target="_top" xlink:title="uLink.c">
<polygon fill="white" stroke="black" points="2786,-0.5 2786,-19.5 2834,-19.5 2834,-0.5 2786,-0.5"/>
<text text-anchor="middle" x="2810" y="-7.5" font-family="Helvetica,sans-Serif" font-size="10.00">uLink.c</text>
</a>
</g>
<!-- Node1&#45;&gt;Node31 -->
<g id="edge60" class="edge"><title>Node1&#45;&gt;Node31</title>
<path fill="none" stroke="midnightblue" d="M1488.23,-64.9108C1669.4,-64.2753 2517.72,-59.2199 2777,-20 2779.94,-19.5559 2782.98,-18.942 2785.99,-18.2415"/>
<polygon fill="midnightblue" stroke="midnightblue" points="1488.2,-61.4108 1478.21,-64.9437 1488.22,-68.4107 1488.2,-61.4108"/>
</g>
</g>
</svg>
        <g id="navigator" transform="translate(0 0)" fill="#404254">
                <rect fill="#f2f5e9" fill-opacity="0.5" stroke="#606060" stroke-width=".5" x="0" y="0" width="60" height="60"/>
                <use id="zoomplus" xlink:href="#zoomPlus" x="17" y="9" onmousedown="handleZoom(evt,'in')"/>
                <use id="zoomminus" xlink:href="#zoomMin" x="42" y="9" onmousedown="handleZoom(evt,'out')"/>
                <use id="reset" xlink:href="#resetDef" x="30" y="36" onmousedown="handleReset()"/>
                <g id="arrowUp" xlink:href="#dirArrow" transform="translate(30 24)" onmousedown="handlePan(0,-1)">
                  <use xlink:href="#rim" fill="#404040">
                        <set attributeName="fill" to="#808080" begin="arrowUp.mouseover" end="arrowUp.mouseout"/>
                  </use>
                  <path fill="none" stroke="white" stroke-width="1.5" d="M0,-3.0v7 M-2.5,-0.5L0,-3.0L2.5,-0.5"/>
                </g>
                <g id="arrowRight" xlink:href="#dirArrow" transform="rotate(90) translate(36 -43)" onmousedown="handlePan(1,0)">
                  <use xlink:href="#rim" fill="#404040">
                        <set attributeName="fill" to="#808080" begin="arrowRight.mouseover" end="arrowRight.mouseout"/>
                  </use>
                  <path fill="none" stroke="white" stroke-width="1.5" d="M0,-3.0v7 M-2.5,-0.5L0,-3.0L2.5,-0.5"/>
                </g>
                <g id="arrowDown" xlink:href="#dirArrow" transform="rotate(180) translate(-30 -48)" onmousedown="handlePan(0,1)">
                  <use xlink:href="#rim" fill="#404040">
                        <set attributeName="fill" to="#808080" begin="arrowDown.mouseover" end="arrowDown.mouseout"/>
                  </use>
                  <path fill="none" stroke="white" stroke-width="1.5" d="M0,-3.0v7 M-2.5,-0.5L0,-3.0L2.5,-0.5"/>
                </g>
                <g id="arrowLeft" xlink:href="#dirArrow" transform="rotate(270) translate(-36 17)" onmousedown="handlePan(-1,0)">
                  <use xlink:href="#rim" fill="#404040">
                        <set attributeName="fill" to="#808080" begin="arrowLeft.mouseover" end="arrowLeft.mouseout"/>
                  </use>
                  <path fill="none" stroke="white" stroke-width="1.5" d="M0,-3.0v7 M-2.5,-0.5L0,-3.0L2.5,-0.5"/>
                </g>
        </g>
</svg>
