<?xml version="1.0" encoding="UTF-8" standalone="no"?>
<!DOCTYPE svg PUBLIC "-//W3C//DTD SVG 1.1//EN"
 "http://www.w3.org/Graphics/SVG/1.1/DTD/svg11.dtd">
<!-- Generated by graphviz version 2.28.0 (20110507.0327)
 -->
<!-- Title: G Pages: 1 -->
<svg width="310pt" height="299pt"
 viewBox="0.00 0.00 310.00 299.00" xmlns="http://www.w3.org/2000/svg" xmlns:xlink="http://www.w3.org/1999/xlink">
<g id="graph1" class="graph" transform="scale(1 1) rotate(0) translate(4 295)">
<title>G</title>
<polygon fill="white" stroke="white" points="-4,5 -4,-295 307,-295 307,5 -4,5"/>
<!-- Node1 -->
<g id="node1" class="node"><title>Node1</title>
<polygon fill="#bfbfbf" stroke="black" points="0,-159.5 0,-178.5 68,-178.5 68,-159.5 0,-159.5"/>
<text text-anchor="middle" x="34" y="-166.5" font-family="Helvetica,sans-Serif" font-size="10.00">SetupRobot</text>
</g>
<!-- Node2 -->
<g id="node3" class="node"><title>Node2</title>
<a xlink:href="_setup_rigid_body_8c.html#af1b456407145870f37fb9cd6f868efb7" target="_top" xlink:title="SetupRigidBody">
<polygon fill="white" stroke="black" points="111,-271.5 111,-290.5 197,-290.5 197,-271.5 111,-271.5"/>
<text text-anchor="middle" x="154" y="-278.5" font-family="Helvetica,sans-Serif" font-size="10.00">SetupRigidBody</text>
</a>
</g>
<!-- Node1&#45;&gt;Node2 -->
<g id="edge2" class="edge"><title>Node1&#45;&gt;Node2</title>
<path fill="none" stroke="midnightblue" d="M39.7226,-178.563C49.3488,-197.141 72.9788,-238.359 104,-262 106.313,-263.763 108.81,-265.381 111.409,-266.864"/>
<polygon fill="midnightblue" stroke="midnightblue" points="110.007,-270.075 120.519,-271.394 113.123,-263.808 110.007,-270.075"/>
</g>
<!-- Node3 -->
<g id="node5" class="node"><title>Node3</title>
<a xlink:href="_find_mother_8c.html#a1d3572a5a830436a015f73c66ba3d086" target="_top" xlink:title="FindMother">
<polygon fill="white" stroke="black" points="121.5,-215.5 121.5,-234.5 186.5,-234.5 186.5,-215.5 121.5,-215.5"/>
<text text-anchor="middle" x="154" y="-222.5" font-family="Helvetica,sans-Serif" font-size="10.00">FindMother</text>
</a>
</g>
<!-- Node1&#45;&gt;Node3 -->
<g id="edge4" class="edge"><title>Node1&#45;&gt;Node3</title>
<path fill="none" stroke="midnightblue" d="M51.4423,-178.553C65.2438,-186.392 85.5995,-197.538 104,-206 108.169,-207.917 112.592,-209.815 117.007,-211.626"/>
<polygon fill="midnightblue" stroke="midnightblue" points="115.975,-214.982 126.56,-215.428 118.563,-208.478 115.975,-214.982"/>
</g>
<!-- Node4 -->
<g id="node8" class="node"><title>Node4</title>
<a xlink:href="_forward_kinematics_8c.html#a95980f5defd053812a9fbc687b690606" target="_top" xlink:title="ForwardKinematics">
<polygon fill="white" stroke="black" points="104,-159.5 104,-178.5 204,-178.5 204,-159.5 104,-159.5"/>
<text text-anchor="middle" x="154" y="-166.5" font-family="Helvetica,sans-Serif" font-size="10.00">ForwardKinematics</text>
</a>
</g>
<!-- Node1&#45;&gt;Node4 -->
<g id="edge8" class="edge"><title>Node1&#45;&gt;Node4</title>
<path fill="none" stroke="midnightblue" d="M68.1836,-169C76.1208,-169 84.8344,-169 93.5609,-169"/>
<polygon fill="midnightblue" stroke="midnightblue" points="93.7652,-172.5 103.765,-169 93.7651,-165.5 93.7652,-172.5"/>
</g>
<!-- Node6 -->
<g id="node13" class="node"><title>Node6</title>
<a xlink:href="_forward_velocity_8c.html#ad3bfaea752c445b6aa7acf78cf9a6725" target="_top" xlink:title="ForwardVelocity">
<polygon fill="white" stroke="black" points="111,-103.5 111,-122.5 197,-122.5 197,-103.5 111,-103.5"/>
<text text-anchor="middle" x="154" y="-110.5" font-family="Helvetica,sans-Serif" font-size="10.00">ForwardVelocity</text>
</a>
</g>
<!-- Node1&#45;&gt;Node6 -->
<g id="edge14" class="edge"><title>Node1&#45;&gt;Node6</title>
<path fill="none" stroke="midnightblue" d="M55.2849,-159.373C74.1421,-150.424 102.446,-136.992 123.745,-126.883"/>
<polygon fill="midnightblue" stroke="midnightblue" points="125.446,-129.951 132.98,-122.501 122.445,-123.627 125.446,-129.951"/>
</g>
<!-- Node8 -->
<g id="node18" class="node"><title>Node8</title>
<a xlink:href="_calc_co_m_8c.html#a02ae60f79cbcfde98d1451065cf394c7" target="_top" xlink:title="CalcCoM">
<polygon fill="white" stroke="black" points="126,-56.5 126,-75.5 182,-75.5 182,-56.5 126,-56.5"/>
<text text-anchor="middle" x="154" y="-63.5" font-family="Helvetica,sans-Serif" font-size="10.00">CalcCoM</text>
</a>
</g>
<!-- Node1&#45;&gt;Node8 -->
<g id="edge20" class="edge"><title>Node1&#45;&gt;Node8</title>
<path fill="none" stroke="midnightblue" d="M42.2634,-159.355C54.0362,-144.161 78.5452,-114.295 104,-94 110.11,-89.1288 117.168,-84.5753 123.991,-80.6142"/>
<polygon fill="midnightblue" stroke="midnightblue" points="125.984,-83.5113 133.038,-75.6059 122.594,-77.3871 125.984,-83.5113"/>
</g>
<!-- Node3&#45;&gt;Node3 -->
<g id="edge6" class="edge"><title>Node3&#45;&gt;Node3</title>
<path fill="none" stroke="midnightblue" d="M136.121,-234.757C127.423,-243.565 133.383,-253 154,-253 166.886,-253 174.046,-249.315 175.48,-244.4"/>
<polygon fill="midnightblue" stroke="midnightblue" points="178.657,-242.9 171.879,-234.757 172.099,-245.35 178.657,-242.9"/>
</g>
<!-- Node4&#45;&gt;Node4 -->
<g id="edge12" class="edge"><title>Node4&#45;&gt;Node4</title>
<path fill="none" stroke="midnightblue" d="M136.121,-178.757C127.423,-187.565 133.383,-197 154,-197 166.886,-197 174.046,-193.315 175.48,-188.4"/>
<polygon fill="midnightblue" stroke="midnightblue" points="178.657,-186.9 171.879,-178.757 172.099,-189.35 178.657,-186.9"/>
</g>
<!-- Node5 -->
<g id="node10" class="node"><title>Node5</title>
<a xlink:href="_rodrigues_8c.html#a331402e0b6dc7ab640fe40cce0871e1a" target="_top" xlink:title="Rodrigues">
<polygon fill="white" stroke="black" points="241,-159.5 241,-178.5 301,-178.5 301,-159.5 241,-159.5"/>
<text text-anchor="middle" x="271" y="-166.5" font-family="Helvetica,sans-Serif" font-size="10.00">Rodrigues</text>
</a>
</g>
<!-- Node4&#45;&gt;Node5 -->
<g id="edge10" class="edge"><title>Node4&#45;&gt;Node5</title>
<path fill="none" stroke="midnightblue" d="M204.104,-169C213.045,-169 222.262,-169 230.866,-169"/>
<polygon fill="midnightblue" stroke="midnightblue" points="230.998,-172.5 240.998,-169 230.998,-165.5 230.998,-172.5"/>
</g>
<!-- Node6&#45;&gt;Node6 -->
<g id="edge18" class="edge"><title>Node6&#45;&gt;Node6</title>
<path fill="none" stroke="midnightblue" d="M136.121,-122.757C127.423,-131.565 133.383,-141 154,-141 166.886,-141 174.046,-137.315 175.48,-132.4"/>
<polygon fill="midnightblue" stroke="midnightblue" points="178.657,-130.9 171.879,-122.757 172.099,-133.35 178.657,-130.9"/>
</g>
<!-- Node7 -->
<g id="node15" class="node"><title>Node7</title>
<a xlink:href="_cross_8c.html#ae694d97c46b1d90555b4e9a1809baeb3" target="_top" xlink:title="Cross">
<polygon fill="white" stroke="black" points="250,-112.5 250,-131.5 292,-131.5 292,-112.5 250,-112.5"/>
<text text-anchor="middle" x="271" y="-119.5" font-family="Helvetica,sans-Serif" font-size="10.00">Cross</text>
</a>
</g>
<!-- Node6&#45;&gt;Node7 -->
<g id="edge16" class="edge"><title>Node6&#45;&gt;Node7</title>
<path fill="none" stroke="midnightblue" d="M197.169,-116.3C211.191,-117.398 226.526,-118.598 239.493,-119.612"/>
<polygon fill="midnightblue" stroke="midnightblue" points="239.504,-123.124 249.746,-120.415 240.05,-116.145 239.504,-123.124"/>
</g>
<!-- Node9 -->
<g id="node20" class="node"><title>Node9</title>
<a xlink:href="_total_mass_8c.html#a8b97866743257c18887a3d7adde02637" target="_top" xlink:title="TotalMass">
<polygon fill="white" stroke="black" points="240,-56.5 240,-75.5 302,-75.5 302,-56.5 240,-56.5"/>
<text text-anchor="middle" x="271" y="-63.5" font-family="Helvetica,sans-Serif" font-size="10.00">TotalMass</text>
</a>
</g>
<!-- Node8&#45;&gt;Node9 -->
<g id="edge22" class="edge"><title>Node8&#45;&gt;Node9</title>
<path fill="none" stroke="midnightblue" d="M182.253,-66C196.285,-66 213.675,-66 229.264,-66"/>
<polygon fill="midnightblue" stroke="midnightblue" points="229.705,-69.5001 239.705,-66 229.705,-62.5001 229.705,-69.5001"/>
</g>
<!-- Node10 -->
<g id="node23" class="node"><title>Node10</title>
<a xlink:href="_calc_m_c_8c.html#ae1ac5dd3e92965aa232a169e6639bb37" target="_top" xlink:title="CalcMC">
<polygon fill="white" stroke="black" points="245.5,-0.5 245.5,-19.5 296.5,-19.5 296.5,-0.5 245.5,-0.5"/>
<text text-anchor="middle" x="271" y="-7.5" font-family="Helvetica,sans-Serif" font-size="10.00">CalcMC</text>
</a>
</g>
<!-- Node8&#45;&gt;Node10 -->
<g id="edge26" class="edge"><title>Node8&#45;&gt;Node10</title>
<path fill="none" stroke="midnightblue" d="M174.769,-56.3733C193.147,-47.4241 220.731,-33.9917 241.489,-23.8835"/>
<polygon fill="midnightblue" stroke="midnightblue" points="243.03,-27.026 250.489,-19.5011 239.966,-20.7325 243.03,-27.026"/>
</g>
<!-- Node9&#45;&gt;Node9 -->
<g id="edge24" class="edge"><title>Node9&#45;&gt;Node9</title>
<path fill="none" stroke="midnightblue" d="M253.121,-75.7571C244.423,-84.5653 250.383,-94 271,-94 283.886,-94 291.046,-90.3146 292.48,-85.4"/>
<polygon fill="midnightblue" stroke="midnightblue" points="295.657,-83.9004 288.879,-75.7571 289.099,-86.3496 295.657,-83.9004"/>
</g>
<!-- Node10&#45;&gt;Node10 -->
<g id="edge28" class="edge"><title>Node10&#45;&gt;Node10</title>
<path fill="none" stroke="midnightblue" d="M253.121,-19.7571C244.423,-28.5653 250.383,-38 271,-38 283.886,-38 291.046,-34.3146 292.48,-29.4"/>
<polygon fill="midnightblue" stroke="midnightblue" points="295.657,-27.9004 288.879,-19.7571 289.099,-30.3496 295.657,-27.9004"/>
</g>
</g>
</svg>
