<?xml version="1.0" encoding="UTF-8" standalone="no"?>
<!DOCTYPE svg PUBLIC "-//W3C//DTD SVG 1.1//EN"
 "http://www.w3.org/Graphics/SVG/1.1/DTD/svg11.dtd">
<!-- Generated by graphviz version 2.28.0 (20110507.0327)
 -->
<!-- Title: G Pages: 1 -->
<!--zoomable-->
<svg id="main" version="1.1" xmlns="http://www.w3.org/2000/svg" xmlns:xlink="http://www.w3.org/1999/xlink" xml:space="preserve" onload="init(evt)">
        <defs>
                <circle id="rim" cx="0" cy="0" r="7"/>
                <circle id="rim2" cx="0" cy="0" r="3.5"/>
                <g id="zoomPlus">
                        <use xlink:href="#rim" fill="#404040">
                                <set attributeName="fill" to="#808080" begin="zoomplus.mouseover" end="zoomplus.mouseout"/>
                        </use>
                        <path d="M-4,0h8M0,-4v8" fill="none" stroke="white" stroke-width="1.5" pointer-events="none"/>
                </g>
                <g id="zoomMin">
                        <use xlink:href="#rim" fill="#404040">
                                <set attributeName="fill" to="#808080" begin="zoomminus.mouseover" end="zoomminus.mouseout"/>
                        </use>
                        <path d="M-4,0h8" fill="none" stroke="white" stroke-width="1.5" pointer-events="none"/>
                </g>
                <g id="dirArrow">
                        <path fill="none" stroke="white" stroke-width="1.5" d="M0,-3.0v7 M-2.5,-0.5L0,-3.0L2.5,-0.5"/>
                </g>
               <g id="resetDef">
                       <use xlink:href="#rim2" fill="#404040">
                               <set attributeName="fill" to="#808080" begin="reset.mouseover" end="reset.mouseout"/>
                       </use>
               </g>
        </defs>

<script type="text/javascript">
var viewWidth = 993;
var viewHeight = 140;
var sectionId = 'dynsection-0';
</script>
<script xlink:href="svgpan.js"/>
<svg id="graph" class="graph">
<g id="viewport">
<title>G</title>
<polygon fill="white" stroke="white" points="-4,5 -4,-136 990,-136 990,5 -4,5"/>
<!-- Node1 -->
<g id="node1" class="node"><title>Node1</title>
<polygon fill="#bfbfbf" stroke="black" points="470,-112.5 470,-131.5 518,-131.5 518,-112.5 470,-112.5"/>
<text text-anchor="middle" x="494" y="-119.5" font-family="Helvetica,sans-Serif" font-size="10.00">uLink.c</text>
</g>
<!-- Node2 -->
<g id="node3" class="node"><title>Node2</title>
<polygon fill="white" stroke="#bfbfbf" points="-0.5,-56.5 -0.5,-75.5 48.5,-75.5 48.5,-56.5 -0.5,-56.5"/>
<text text-anchor="middle" x="24" y="-63.5" font-family="Helvetica,sans-Serif" font-size="10.00">string.h</text>
</g>
<!-- Node1&#45;&gt;Node2 -->
<g id="edge2" class="edge"><title>Node1&#45;&gt;Node2</title>
<path fill="none" stroke="midnightblue" d="M469.557,-119.504C403.601,-115.239 216.607,-101.643 63,-76 61.5435,-75.7569 60.0602,-75.4921 58.5643,-75.2109"/>
<polygon fill="midnightblue" stroke="midnightblue" points="59.1664,-71.7615 48.6661,-73.1735 57.7551,-78.6178 59.1664,-71.7615"/>
</g>
<!-- Node3 -->
<g id="node5" class="node"><title>Node3</title>
<polygon fill="white" stroke="#bfbfbf" points="283,-0.5 283,-19.5 367,-19.5 367,-0.5 283,-0.5"/>
<text text-anchor="middle" x="325" y="-7.5" font-family="Helvetica,sans-Serif" font-size="10.00">gsl/gsl_vector.h</text>
</g>
<!-- Node1&#45;&gt;Node3 -->
<g id="edge4" class="edge"><title>Node1&#45;&gt;Node3</title>
<path fill="none" stroke="midnightblue" d="M469.718,-120.098C387.159,-116.787 121.016,-104.004 96,-76 44.5798,-18.4383 190.066,-10.2689 272.524,-10.0604"/>
<polygon fill="midnightblue" stroke="midnightblue" points="272.733,-13.5606 282.738,-10.0741 272.743,-6.56061 272.733,-13.5606"/>
</g>
<!-- Node4 -->
<g id="node7" class="node"><title>Node4</title>
<polygon fill="white" stroke="#bfbfbf" points="391,-0.5 391,-19.5 477,-19.5 477,-0.5 391,-0.5"/>
<text text-anchor="middle" x="434" y="-7.5" font-family="Helvetica,sans-Serif" font-size="10.00">gsl/gsl_matrix.h</text>
</g>
<!-- Node1&#45;&gt;Node4 -->
<g id="edge6" class="edge"><title>Node1&#45;&gt;Node4</title>
<path fill="none" stroke="midnightblue" d="M518.404,-121.095C581.429,-120.538 741.432,-113.572 693,-56 667.255,-25.3967 555.378,-15.6049 487.363,-12.4727"/>
<polygon fill="midnightblue" stroke="midnightblue" points="487.393,-8.97085 477.253,-12.041 487.095,-15.9645 487.393,-8.97085"/>
</g>
<!-- Node5 -->
<g id="node9" class="node"><title>Node5</title>
<polygon fill="white" stroke="#bfbfbf" points="741.5,-56.5 741.5,-75.5 818.5,-75.5 818.5,-56.5 741.5,-56.5"/>
<text text-anchor="middle" x="780" y="-63.5" font-family="Helvetica,sans-Serif" font-size="10.00">gsl/gsl_blas.h</text>
</g>
<!-- Node1&#45;&gt;Node5 -->
<g id="edge8" class="edge"><title>Node1&#45;&gt;Node5</title>
<path fill="none" stroke="midnightblue" d="M518.384,-116.396C565.473,-107.505 669.714,-87.8232 731.455,-76.1658"/>
<polygon fill="midnightblue" stroke="midnightblue" points="732.177,-79.5914 741.354,-74.2967 730.879,-72.7129 732.177,-79.5914"/>
</g>
<!-- Node6 -->
<g id="node11" class="node"><title>Node6</title>
<polygon fill="white" stroke="#bfbfbf" points="837,-56.5 837,-75.5 917,-75.5 917,-56.5 837,-56.5"/>
<text text-anchor="middle" x="877" y="-63.5" font-family="Helvetica,sans-Serif" font-size="10.00">gsl/gsl_math.h</text>
</g>
<!-- Node1&#45;&gt;Node6 -->
<g id="edge10" class="edge"><title>Node1&#45;&gt;Node6</title>
<path fill="none" stroke="midnightblue" d="M518.287,-118.088C573.329,-111.407 711.745,-94.1516 827,-76 827.101,-75.9841 827.202,-75.9682 827.303,-75.9523"/>
<polygon fill="midnightblue" stroke="midnightblue" points="827.608,-79.4491 836.909,-74.3757 826.474,-72.5415 827.608,-79.4491"/>
</g>
<!-- Node7 -->
<g id="node13" class="node"><title>Node7</title>
<a xlink:href="u_link_8h.html" target="_top" xlink:title="Link initialisation and declarations.">
<polygon fill="white" stroke="black" points="105.5,-56.5 105.5,-75.5 156.5,-75.5 156.5,-56.5 105.5,-56.5"/>
<text text-anchor="middle" x="131" y="-63.5" font-family="Helvetica,sans-Serif" font-size="10.00">uLINK.h</text>
</a>
</g>
<!-- Node1&#45;&gt;Node7 -->
<g id="edge12" class="edge"><title>Node1&#45;&gt;Node7</title>
<path fill="none" stroke="midnightblue" d="M469.889,-118.728C416.764,-113.503 285.504,-99.4069 166.543,-76.1077"/>
<polygon fill="midnightblue" stroke="midnightblue" points="167.031,-72.6365 156.541,-74.1209 165.667,-79.5023 167.031,-72.6365"/>
</g>
<!-- Node8 -->
<g id="node17" class="node"><title>Node8</title>
<a xlink:href="_setup_rigid_body_8h.html" target="_top" xlink:title="SetupRigidBody.h">
<polygon fill="white" stroke="black" points="174.5,-56.5 174.5,-75.5 269.5,-75.5 269.5,-56.5 174.5,-56.5"/>
<text text-anchor="middle" x="222" y="-63.5" font-family="Helvetica,sans-Serif" font-size="10.00">SetupRigidBody.h</text>
</a>
</g>
<!-- Node1&#45;&gt;Node8 -->
<g id="edge18" class="edge"><title>Node1&#45;&gt;Node8</title>
<path fill="none" stroke="midnightblue" d="M469.862,-116.208C426.353,-107.57 333.835,-89.2026 274.959,-77.5139"/>
<polygon fill="midnightblue" stroke="midnightblue" points="275.585,-74.0699 265.095,-75.5555 274.222,-80.9359 275.585,-74.0699"/>
</g>
<!-- Node9 -->
<g id="node21" class="node"><title>Node9</title>
<a xlink:href="_find_mother_8h.html" target="_top" xlink:title="FindMother.h">
<polygon fill="white" stroke="black" points="288,-56.5 288,-75.5 362,-75.5 362,-56.5 288,-56.5"/>
<text text-anchor="middle" x="325" y="-63.5" font-family="Helvetica,sans-Serif" font-size="10.00">FindMother.h</text>
</a>
</g>
<!-- Node1&#45;&gt;Node9 -->
<g id="edge24" class="edge"><title>Node1&#45;&gt;Node9</title>
<path fill="none" stroke="midnightblue" d="M469.786,-113.263C441.416,-104.198 394.127,-89.0879 361.348,-78.6141"/>
<polygon fill="midnightblue" stroke="midnightblue" points="362.269,-75.2341 351.678,-75.5243 360.138,-81.902 362.269,-75.2341"/>
</g>
<!-- Node10 -->
<g id="node25" class="node"><title>Node10</title>
<a xlink:href="_forward_kinematics_8h.html" target="_top" xlink:title="ForwardKinematics.h">
<polygon fill="white" stroke="black" points="380,-56.5 380,-75.5 488,-75.5 488,-56.5 380,-56.5"/>
<text text-anchor="middle" x="434" y="-63.5" font-family="Helvetica,sans-Serif" font-size="10.00">ForwardKinematics.h</text>
</a>
</g>
<!-- Node1&#45;&gt;Node10 -->
<g id="edge30" class="edge"><title>Node1&#45;&gt;Node10</title>
<path fill="none" stroke="midnightblue" d="M484.36,-112.324C475.49,-104.341 462.125,-92.3128 451.392,-82.6529"/>
<polygon fill="midnightblue" stroke="midnightblue" points="453.59,-79.922 443.815,-75.8339 448.907,-85.1251 453.59,-79.922"/>
</g>
<!-- Node11 -->
<g id="node29" class="node"><title>Node11</title>
<a xlink:href="_forward_velocity_8h.html" target="_top" xlink:title="ForwardVelocity.h">
<polygon fill="white" stroke="black" points="506.5,-56.5 506.5,-75.5 601.5,-75.5 601.5,-56.5 506.5,-56.5"/>
<text text-anchor="middle" x="554" y="-63.5" font-family="Helvetica,sans-Serif" font-size="10.00">ForwardVelocity.h</text>
</a>
</g>
<!-- Node1&#45;&gt;Node11 -->
<g id="edge36" class="edge"><title>Node1&#45;&gt;Node11</title>
<path fill="none" stroke="midnightblue" d="M503.64,-112.324C512.51,-104.341 525.875,-92.3128 536.608,-82.6529"/>
<polygon fill="midnightblue" stroke="midnightblue" points="539.093,-85.1251 544.185,-75.8339 534.41,-79.922 539.093,-85.1251"/>
</g>
<!-- Node12 -->
<g id="node33" class="node"><title>Node12</title>
<a xlink:href="_calc_co_m_8h.html" target="_top" xlink:title="CalcCoM.h">
<polygon fill="white" stroke="black" points="619.5,-56.5 619.5,-75.5 684.5,-75.5 684.5,-56.5 619.5,-56.5"/>
<text text-anchor="middle" x="652" y="-63.5" font-family="Helvetica,sans-Serif" font-size="10.00">CalcCoM.h</text>
</a>
</g>
<!-- Node1&#45;&gt;Node12 -->
<g id="edge42" class="edge"><title>Node1&#45;&gt;Node12</title>
<path fill="none" stroke="midnightblue" d="M518.341,-112.681C544.861,-103.617 587.5,-89.0442 617.472,-78.8006"/>
<polygon fill="midnightblue" stroke="midnightblue" points="618.779,-82.0529 627.109,-75.5069 616.515,-75.4291 618.779,-82.0529"/>
</g>
<!-- Node13 -->
<g id="node37" class="node"><title>Node13</title>
<a xlink:href="_setup_8h.html" target="_top" xlink:title="Contain setup of simulations.">
<polygon fill="white" stroke="black" points="935,-56.5 935,-75.5 985,-75.5 985,-56.5 935,-56.5"/>
<text text-anchor="middle" x="960" y="-63.5" font-family="Helvetica,sans-Serif" font-size="10.00">Setup.h</text>
</a>
</g>
<!-- Node1&#45;&gt;Node13 -->
<g id="edge48" class="edge"><title>Node1&#45;&gt;Node13</title>
<path fill="none" stroke="midnightblue" d="M518.07,-119.804C582.518,-116.326 764.428,-104.7 924.803,-75.9513"/>
<polygon fill="midnightblue" stroke="midnightblue" points="925.636,-79.3574 934.847,-74.1229 924.382,-72.4705 925.636,-79.3574"/>
</g>
<!-- Node7&#45;&gt;Node3 -->
<g id="edge14" class="edge"><title>Node7&#45;&gt;Node3</title>
<path fill="none" stroke="midnightblue" d="M156.762,-57.8292C189.404,-48.7433 246.034,-32.9804 284.486,-22.277"/>
<polygon fill="midnightblue" stroke="midnightblue" points="285.634,-25.5906 294.33,-19.5371 283.757,-18.847 285.634,-25.5906"/>
</g>
<!-- Node7&#45;&gt;Node4 -->
<g id="edge16" class="edge"><title>Node7&#45;&gt;Node4</title>
<path fill="none" stroke="midnightblue" d="M156.558,-57.9619C159.397,-57.2614 162.254,-56.5917 165,-56 205.148,-47.3479 314.401,-29.759 380.671,-19.3175"/>
<polygon fill="midnightblue" stroke="midnightblue" points="381.586,-22.7167 390.921,-17.7056 380.499,-15.8017 381.586,-22.7167"/>
</g>
<!-- Node8&#45;&gt;Node3 -->
<g id="edge20" class="edge"><title>Node8&#45;&gt;Node3</title>
<path fill="none" stroke="midnightblue" d="M238.549,-56.324C254.992,-47.7034 280.435,-34.3643 299.468,-24.3855"/>
<polygon fill="midnightblue" stroke="midnightblue" points="301.261,-27.3977 308.492,-19.6545 298.011,-21.198 301.261,-27.3977"/>
</g>
<!-- Node8&#45;&gt;Node4 -->
<g id="edge22" class="edge"><title>Node8&#45;&gt;Node4</title>
<path fill="none" stroke="midnightblue" d="M255.592,-56.4435C292.187,-47.1221 350.838,-32.1828 390.826,-21.9972"/>
<polygon fill="midnightblue" stroke="midnightblue" points="391.739,-25.3766 400.565,-19.5164 390.011,-18.5932 391.739,-25.3766"/>
</g>
<!-- Node9&#45;&gt;Node3 -->
<g id="edge26" class="edge"><title>Node9&#45;&gt;Node3</title>
<path fill="none" stroke="midnightblue" d="M325,-56.083C325,-49.0059 325,-38.8611 325,-29.9865"/>
<polygon fill="midnightblue" stroke="midnightblue" points="328.5,-29.751 325,-19.7511 321.5,-29.7511 328.5,-29.751"/>
</g>
<!-- Node9&#45;&gt;Node4 -->
<g id="edge28" class="edge"><title>Node9&#45;&gt;Node4</title>
<path fill="none" stroke="midnightblue" d="M342.513,-56.324C360.072,-47.6247 387.331,-34.1202 407.531,-24.113"/>
<polygon fill="midnightblue" stroke="midnightblue" points="409.124,-27.23 416.531,-19.6545 406.016,-20.9575 409.124,-27.23"/>
</g>
<!-- Node10&#45;&gt;Node3 -->
<g id="edge32" class="edge"><title>Node10&#45;&gt;Node3</title>
<path fill="none" stroke="midnightblue" d="M416.487,-56.324C398.928,-47.6247 371.669,-34.1202 351.469,-24.113"/>
<polygon fill="midnightblue" stroke="midnightblue" points="352.984,-20.9575 342.469,-19.6545 349.876,-27.23 352.984,-20.9575"/>
</g>
<!-- Node10&#45;&gt;Node4 -->
<g id="edge34" class="edge"><title>Node10&#45;&gt;Node4</title>
<path fill="none" stroke="midnightblue" d="M434,-56.083C434,-49.0059 434,-38.8611 434,-29.9865"/>
<polygon fill="midnightblue" stroke="midnightblue" points="437.5,-29.751 434,-19.7511 430.5,-29.7511 437.5,-29.751"/>
</g>
<!-- Node11&#45;&gt;Node3 -->
<g id="edge38" class="edge"><title>Node11&#45;&gt;Node3</title>
<path fill="none" stroke="midnightblue" d="M517.714,-56.4435C478.017,-47.0826 414.293,-32.0561 371.088,-21.868"/>
<polygon fill="midnightblue" stroke="midnightblue" points="371.652,-18.4051 361.116,-19.5164 370.046,-25.2182 371.652,-18.4051"/>
</g>
<!-- Node11&#45;&gt;Node4 -->
<g id="edge40" class="edge"><title>Node11&#45;&gt;Node4</title>
<path fill="none" stroke="midnightblue" d="M534.986,-56.4435C515.412,-47.6356 484.692,-33.8116 462.271,-23.722"/>
<polygon fill="midnightblue" stroke="midnightblue" points="463.481,-20.4284 452.925,-19.5164 460.608,-26.8119 463.481,-20.4284"/>
</g>
<!-- Node12&#45;&gt;Node3 -->
<g id="edge44" class="edge"><title>Node12&#45;&gt;Node3</title>
<path fill="none" stroke="midnightblue" d="M619.476,-57.8476C616.279,-57.1995 613.079,-56.5726 610,-56 609.284,-55.8669 459.171,-32.174 377.123,-19.2254"/>
<polygon fill="midnightblue" stroke="midnightblue" points="377.651,-15.7655 367.227,-17.6638 376.56,-22.6799 377.651,-15.7655"/>
</g>
<!-- Node12&#45;&gt;Node4 -->
<g id="edge46" class="edge"><title>Node12&#45;&gt;Node4</title>
<path fill="none" stroke="midnightblue" d="M619.363,-56.9157C581.945,-47.6469 520.399,-32.4015 478.581,-22.043"/>
<polygon fill="midnightblue" stroke="midnightblue" points="479.212,-18.5937 468.664,-19.5865 477.529,-25.3883 479.212,-18.5937"/>
</g>
</g>
</svg>
        <g id="navigator" transform="translate(0 0)" fill="#404254">
                <rect fill="#f2f5e9" fill-opacity="0.5" stroke="#606060" stroke-width=".5" x="0" y="0" width="60" height="60"/>
                <use id="zoomplus" xlink:href="#zoomPlus" x="17" y="9" onmousedown="handleZoom(evt,'in')"/>
                <use id="zoomminus" xlink:href="#zoomMin" x="42" y="9" onmousedown="handleZoom(evt,'out')"/>
                <use id="reset" xlink:href="#resetDef" x="30" y="36" onmousedown="handleReset()"/>
                <g id="arrowUp" xlink:href="#dirArrow" transform="translate(30 24)" onmousedown="handlePan(0,-1)">
                  <use xlink:href="#rim" fill="#404040">
                        <set attributeName="fill" to="#808080" begin="arrowUp.mouseover" end="arrowUp.mouseout"/>
                  </use>
                  <path fill="none" stroke="white" stroke-width="1.5" d="M0,-3.0v7 M-2.5,-0.5L0,-3.0L2.5,-0.5"/>
                </g>
                <g id="arrowRight" xlink:href="#dirArrow" transform="rotate(90) translate(36 -43)" onmousedown="handlePan(1,0)">
                  <use xlink:href="#rim" fill="#404040">
                        <set attributeName="fill" to="#808080" begin="arrowRight.mouseover" end="arrowRight.mouseout"/>
                  </use>
                  <path fill="none" stroke="white" stroke-width="1.5" d="M0,-3.0v7 M-2.5,-0.5L0,-3.0L2.5,-0.5"/>
                </g>
                <g id="arrowDown" xlink:href="#dirArrow" transform="rotate(180) translate(-30 -48)" onmousedown="handlePan(0,1)">
                  <use xlink:href="#rim" fill="#404040">
                        <set attributeName="fill" to="#808080" begin="arrowDown.mouseover" end="arrowDown.mouseout"/>
                  </use>
                  <path fill="none" stroke="white" stroke-width="1.5" d="M0,-3.0v7 M-2.5,-0.5L0,-3.0L2.5,-0.5"/>
                </g>
                <g id="arrowLeft" xlink:href="#dirArrow" transform="rotate(270) translate(-36 17)" onmousedown="handlePan(-1,0)">
                  <use xlink:href="#rim" fill="#404040">
                        <set attributeName="fill" to="#808080" begin="arrowLeft.mouseover" end="arrowLeft.mouseout"/>
                  </use>
                  <path fill="none" stroke="white" stroke-width="1.5" d="M0,-3.0v7 M-2.5,-0.5L0,-3.0L2.5,-0.5"/>
                </g>
        </g>
</svg>
